<?xml version="1.0" encoding="utf-8"?>
<!-- Generator: Adobe Illustrator 25.2.3, SVG Export Plug-In . SVG Version: 6.00 Build 0)  -->
<svg version="1.1" id="Stripelight-logo" xmlns="http://www.w3.org/2000/svg" xmlns:xlink="http://www.w3.org/1999/xlink" x="0px"
	 y="0px" viewBox="0 0 145.7 31.7" style="enable-background:new 0 0 145.7 31.7;" xml:space="preserve">
<style type="text/css">
	.st0{fill:#FFFFFF;}
</style>
<g>
	<path class="st0" d="M2,18.3c0.1-1.1,0.5-2,0.8-3c1-3,3-5,6.1-5.8c2.2-0.6,4.5-0.7,6.7,0c1.7,0.5,3.3,1.3,4.5,2.7
		c1,1.1,1.4,2.4,1.4,3.9c0,0.3-0.2,0.6-0.5,0.6c-1,0.3-2,0.3-3.1,0.1c-0.2,0-0.2-0.2-0.3-0.3c-0.2-0.5-0.4-1-0.7-1.4
		C16,13.8,14.8,13,13.2,13c-0.7,0-1.4,0-2,0.1c-1.3,0.1-2.3,0.9-3.2,1.8c-0.9,1-1.5,2.3-1.7,3.6c-0.1,0.9,0.2,1.8,0.5,2.7
		c0.2,0.4,0.3,0.9,0.5,1.3c0.3,0.7,0.8,1.4,1.5,1.7c1.7,1,3.7,1.4,5.6,1.1c1-0.2,2-0.8,2.5-1.7c0.1-0.2,0.2-0.5,0.2-0.8
		c0-0.3-0.1-0.5-0.4-0.5c-1,0.1-2.1,0.1-3.1,0.1c-0.1,0-0.2,0-0.4,0c-0.9,0-1.3-0.4-1.2-1.3c0-0.4,0.1-0.8,0.2-1.2
		c0.2-0.6,0.7-1,1.3-0.9c0.9,0,1.8,0,2.7,0.1c0.6,0,1.1,0,1.7,0c1,0,2.1,0.1,3.1,0.1c0.4,0,0.6,0.2,0.6,0.7c0.1,1.3-0.1,2.5-0.5,3.7
		c-0.2,0.6-0.4,1.3-0.7,1.8c-0.8,1.3-1.9,2.1-3.3,2.7c-2.5,1-5,1.3-7.6,0.6c-1.3-0.4-2.4-1.1-3.5-1.8c-1.4-0.9-2.3-2.2-2.9-3.7
		c-0.5-1.2-0.9-2.4-1-3.8c0,0,0-0.1,0-0.1L2,18.3z M29.9,29.2c-0.5-0.1-1-0.2-1.5-0.3c-1.5-0.2-2.7-0.9-3.6-2
		c-1.2-1.3-2-2.9-1.9-4.7c0-0.5,0-1-0.1-1.5c-0.1-0.7,0-1.4,0.3-2c0.4-0.9,0.8-1.7,1.3-2.5c0.7-1.1,1.8-1.9,3.1-2.3
		c1.6-0.5,3.4-0.6,5-0.3c1.6,0.2,3.1,1.1,4.2,2.3c0.1,0.1,0.3,0.3,0.4,0.4c1,0.9,1.2,2.2,1.5,3.5c0.5,2.9-0.4,5.2-2.4,7.2
		c-0.9,0.9-2,1.5-3.3,1.7c-0.6,0.1-1.2,0.3-1.7,0.4L29.9,29.2z M27.1,20.8c0,1.1,0.2,2.2,0.6,3.2c0.7,1.6,2.5,2.4,4.2,1.8
		c0.3-0.1,0.5-0.2,0.7-0.4c1.9-1.8,2.4-4.4,1.3-6.8c-0.2-0.5-0.5-0.8-1-1c-0.4-0.2-0.8-0.3-1.1-0.5c-1.6-0.7-3.1,0.2-3.8,1.2
		C27.4,19.1,27.1,19.9,27.1,20.8L27.1,20.8z M85.1,26.1c-0.1,0.1-0.2,0.2-0.3,0.3c-1.5,2.6-4.8,3.4-7.4,1.9
		c-0.1-0.1-0.3-0.2-0.4-0.3c-2.5-1.7-3.5-4.2-3.3-7.1c0.1-1.6,0.6-3.2,1.3-4.6c0.2-0.3,0.4-0.6,0.7-0.8c1.3-1.1,2.9-1.7,4.6-1.9
		c1.2-0.1,2.4,0.2,3.4,0.8c0.5,0.4,0.9,0.9,1.3,1.3c0.1,0.1,0.1,0.3,0.3,0.2c0.2,0,0.1-0.2,0.1-0.4c-0.1-1.3-0.1-2.6-0.2-4
		c0-0.6-0.2-0.7-0.8-0.6c-0.3,0.1-0.7,0.1-1,0.1c-0.8,0-1.3-0.5-1.3-1.3c0-0.1,0-0.2,0-0.4c0.1-1,0.3-1.6,1.5-1.7
		c1.7-0.1,3.4-0.2,5.1,0c0.5,0,0.8,0.3,0.8,0.9c0.1,3.7,0.1,7.4,0,11.1c0,1.3-0.1,2.6-0.1,4c0,0.4-0.1,0.9-0.1,1.3
		c0,0.3,0.1,0.4,0.4,0.4c0.3,0,0.6,0,0.9,0.1c0.4,0,0.8,0.3,0.9,0.7c0.2,0.6,0.2,1.2,0,1.8c-0.1,0.4-0.5,0.6-0.9,0.7
		c-1.5,0.2-3,0.2-4.4,0.1c-0.5,0-0.9-0.6-1-1.3C85.2,27.1,85.2,26.6,85.1,26.1L85.1,26.1z M85.1,21.3c0-1.7-0.5-3-1.9-3.9
		c-0.4-0.3-1-0.4-1.5-0.3c-0.4,0.1-0.7,0.1-1.1,0.3c-1.7,0.5-2.7,1.9-2.7,3.6c0,1.1,0.2,2.1,0.5,3.1c0.1,0.3,0.2,0.5,0.4,0.7
		c1.2,1.4,3.3,1.6,4.7,0.4c0.3-0.3,0.6-0.6,0.8-1C84.8,23.3,85.1,22.3,85.1,21.3L85.1,21.3z M64.3,13.3c1.5,0,3,0.3,4.3,0.9
		c0.6,0.3,1.1,0.7,1.5,1.2c0.6,0.7,1.3,1.4,1.7,2.4c1,2.4,1,4.9-0.2,7.2c-1,2.1-2.8,3.5-5.3,3.8c-0.8,0.1-1.6,0.2-2.4,0.3
		c-1.3,0.1-2.4-0.3-3.5-0.9c-0.5-0.3-1-0.6-1.6-0.9c-0.4-0.2-0.8-0.6-1-1c-0.9-1.7-1.5-3.4-1.4-5.3c0.1-2.5,0.9-4.6,2.9-6.2
		c0.4-0.3,0.8-0.5,1.2-0.7C61.8,13.6,63.1,13.3,64.3,13.3z M68.3,21c0-0.4-0.1-0.8-0.2-1.2c-0.3-1.7-1.8-2.9-3.6-2.9
		c-1.8,0-3.1,1.1-3.4,2.9c-0.2,1.2-0.1,2.4,0.3,3.6c0.2,0.6,0.4,1.2,0.9,1.6c0.8,0.6,1.8,0.9,2.7,0.7c0.5-0.1,0.9-0.1,1.3-0.4
		C67.6,24.2,68.3,22.9,68.3,21L68.3,21z M55.6,21.6c0,1.1-0.5,2.3-1.1,3.5c-1.2,2.4-3.3,3.4-5.8,3.9c-1.5,0.3-2.8-0.1-4.1-0.8
		c-1-0.5-1.9-1.1-2.8-1.8c-0.5-0.4-0.9-0.9-1.2-1.5c-0.5-1.1-0.9-2.3-0.9-3.5c0.1-2.9,1.3-5.2,3.9-6.7c3.3-1.8,6.7-1.2,9.3,0.9
		c0.9,0.7,1.4,1.5,1.8,2.5C55.3,19.4,55.6,20.2,55.6,21.6L55.6,21.6z M46.4,27.9c0.5,0.2,0.9,0.1,1.3-0.3c0.5-0.8,1.3-1.3,2.2-1.7
		c0.7-0.3,1.2-0.9,1.5-1.6c0.1-0.4,0.2-0.7-0.1-1.1c-0.3-0.3-0.7-0.2-1-0.1c-0.5,0.1-0.6,0.1-0.7-0.4c-0.1-0.4-0.5-0.7-0.9-0.9
		c-0.5-0.2-1.1-0.3-1.6-0.1c-0.1,0-0.2,0.1-0.3-0.1c-0.2-0.4-0.6-0.6-1-0.8c-0.2-0.1-0.5-0.3-0.7-0.4c-0.2-0.1-0.3-0.4-0.2-0.6
		c0.1-0.2,0.3-0.4,0.5-0.4c0.1,0,0.2,0,0.4,0c0.4,0.1,0.7,0,1-0.3c0.2-0.2,0.4-0.5,0.5-0.7c0.2-0.5,0.4-0.9,1-1.1
		c0.2-0.1,0.4-0.3,0.3-0.5c-0.1-0.3-0.3-0.2-0.5-0.3c-0.1,0-0.2,0-0.3,0c-0.2,0-0.3,0-0.4-0.1c-0.2-0.1-0.2-0.4-0.5-0.4
		c-0.2,0-0.3,0.3-0.4,0.5c-0.2,0.2-0.4,0.2-0.6-0.1c-0.3-0.4-0.4-0.8-0.4-1.2c0-0.2-0.1-0.2-0.2-0.1c-0.7,0.3-1.5,0.6-1.8,1.4
		c-0.1,0.1-0.1,0.3-0.2,0.4c-0.7,1-0.7,2-0.3,3c0.3,0.7,0.7,1.3,1.5,1.4c0.4,0.1,0.7,0.2,1.1,0.3c0.3,0.1,0.6,0.2,0.8,0.4
		c0.3,0.3,0.3,0.7,0,1c0,0-0.1,0.1-0.1,0.1c-0.2,0.1-0.3,0.3-0.2,0.4c0,0,0,0.1,0,0.1c0.1,0.3,0.4,0.6,0.6,0.9
		c0.3,0.3,0.5,0.7,0.5,1.2C47.2,26.6,47.1,27.3,46.4,27.9L46.4,27.9z M50.9,15.7c0.3,0.1,0.5,0.4,0.6,0.7c0.1,0.4,0.4,0.6,0.8,0.7
		c0.6,0.1,0.7,0.4,0.6,1c-0.1,0.4-0.2,0.7-0.3,1.1c-0.1,0.8,0.2,1.5,0.9,1.9c0.2,0.1,0.5,0.2,0.7,0.2c0.2,0,0.4-0.2,0.4-0.3
		c0,0,0-0.1,0-0.1c0-0.6-0.3-1.2-0.5-1.7c-0.4-1.4-1.3-2.4-2.4-3.2C51.4,15.7,51.1,15.6,50.9,15.7L50.9,15.7z M46.4,15
		c0.2,0,0.4,0,0.6,0c0.5,0,0.9,0.2,1.1,0.7c0.1,0.1,0.1,0.3,0.3,0.3c0.2,0.1,0.5,0.1,0.7,0c0.2-0.2,0.1-0.4,0-0.6
		c-0.3-0.4-0.7-0.7-1.2-0.8c-0.4,0-0.8,0-1.2,0.1C46.5,14.7,46.4,14.8,46.4,15L46.4,15z M52.9,8c0.1,0.7-0.1,1.3-0.3,1.9
		c-0.1,0.2-0.3,0.4-0.5,0.5c-1.4,0.9-3,0.5-3.9-0.9c-0.3-0.4-0.4-0.9-0.3-1.4c0.1-0.7,0.2-1.3,0.3-2c0.2-0.8,0.9-1.3,1.4-1.8
		c0.1-0.1,0.3-0.2,0.5-0.3c0.5-0.3,0.8-0.2,1.2,0.1c1,0.7,1.3,1.8,1.5,3C52.8,7.4,52.8,7.7,52.9,8z M43.9,10.5
		c-0.7,0-1.3-0.2-1.7-0.8c-0.3-0.4-0.3-0.9-0.3-1.4c0-1.1,0.2-2.2,0.6-3.2c0.4-0.8,1-1.4,2-1.4c0.2,0,0.3,0,0.4,0.1
		c1,0.6,1.7,1.3,1.9,2.4C47,7.2,47.1,8,46.7,8.9c-0.3,0.7-0.7,1.2-1.5,1.4C44.8,10.4,44.3,10.5,43.9,10.5z M39.4,9.4
		c1.2-0.1,1.9,0.7,2.7,1.4c0.4,0.4,0.5,0.9,0.6,1.5c0.1,0.5-0.1,1-0.4,1.3c-0.6,0.7-1.5,1.1-2.4,1.3c-0.4,0-0.8-0.1-1-0.4
		c-0.6-0.5-1-1.1-1.3-1.8c-0.3-1-0.1-1.9,0.3-2.8c0.2-0.3,0.5-0.5,0.8-0.5C39,9.4,39.2,9.4,39.4,9.4L39.4,9.4z M57.4,10.7
		c-0.1,1.1-0.3,2.2-0.8,3.1c-0.4,0.7-1,1-1.8,0.8c-1-0.2-2.2-1.2-2-2.6c0.1-0.8,0.5-1.4,1-2c0.7-0.8,1.6-0.9,2.5-1
		c0.5-0.1,1,0.5,1.1,1C57.4,10.3,57.4,10.5,57.4,10.7z M44.9,2.7c0,0.3,0,0.6-0.3,0.7c-0.3,0.1-0.5,0-0.7-0.2
		c-0.3-0.1-0.4-0.4-0.3-0.7c0.1-0.4,0.3-0.7,0.5-1c0.2-0.3,0.3-0.2,0.5,0C44.7,1.9,44.9,2.3,44.9,2.7L44.9,2.7z M37.3,9.7
		c-0.4,0-0.5-0.3-0.7-0.6c-0.1-0.1-0.2-0.3-0.2-0.5c0-0.3-0.1-0.6,0.2-0.7c0.2-0.1,0.8,0.2,0.9,0.4c0.1,0.2,0.2,0.4,0.3,0.5
		C38,9.1,38,9.4,37.7,9.6C37.6,9.7,37.5,9.7,37.3,9.7z M51.6,2.4c0,0.5-0.2,0.7-0.5,0.8c-0.3,0.1-0.6-0.1-0.7-0.3c0-0.1,0-0.1,0-0.2
		c0-0.5-0.1-1,0.3-1.4c0.2-0.2,0.2-0.2,0.4,0C51.4,1.6,51.6,2,51.6,2.4L51.6,2.4z M58.1,7.6c0,0.2,0,0.5-0.2,0.7
		c-0.2,0.3-0.6,0.4-0.9,0.3c0,0,0,0,0,0c-0.2-0.1-0.3-0.6-0.2-0.9c0.1-0.4,0.4-0.7,0.7-1c0.2-0.1,0.3-0.1,0.3,0.1
		C58,7,58.1,7.3,58.1,7.6z"/>
</g>
</svg>
