<?xml version="1.0" encoding="utf-8"?>
<!-- Generator: Adobe Illustrator 25.0.1, SVG Export Plug-In . SVG Version: 6.00 Build 0)  -->
<svg version="1.1" id="Laag_1" xmlns="http://www.w3.org/2000/svg" xmlns:xlink="http://www.w3.org/1999/xlink" x="0px" y="0px"
	 viewBox="0 0 70 23" style="enable-background:new 0 0 70 23;" xml:space="preserve">
<style type="text/css">
	.st0{fill:#FFFFFF;}
</style>
<g>
	<g>
		<path class="st0" d="M22.2,15.3c-0.1-0.2-0.3-0.7-0.3-0.7c-0.2-0.6-0.3-1-0.5-1.1c-0.2-0.2-0.6-0.1-0.8,0
			c-0.4,0.2-0.3,0.5-0.7,0.8c-0.4,0.4-1.2,0.6-1.5,0.3c-0.3-0.3,0-0.8-0.3-1.1c-0.2-0.2-0.7-0.3-0.8-0.1c0,0,0,0,0,0
			c-0.7,0.9-0.4,1.9-0.3,2.2c0.1,0.4,0.3,0.6,0.4,0.6c0.2,0.2,0.5,0.2,0.7,0.2c0.9,0.1,1.6-0.4,1.7-0.4c0.5-0.3,0.7-0.7,0.8-1
			c0.1,0.2,0.3,0.5,0.6,0.8c0.2,0.2,0.4,0.3,0.5,0.3c0.1,0,0.2,0,0.2,0c0.1,0,0.1,0,0.2,0c0.1,0,0.1-0.1,0.2-0.1
			c0,0,0.1-0.1,0.1-0.1c0-0.1,0-0.1,0-0.2c0-0.1,0-0.1-0.1-0.2C22.3,15.3,22.2,15.3,22.2,15.3z"/>
		<path class="st0" d="M17.8,10.3L17.8,10.3c0.1,0.6,0.5,1,0.9,0.9c0,0,0,0,0,0c0.4-0.1,0.6-0.7,0.5-1.3c-0.1-0.6-0.5-1.1-0.9-1
			C17.9,9.1,17.7,9.6,17.8,10.3C17.8,10.3,17.8,10.3,17.8,10.3z"/>
		<path class="st0" d="M17.2,11.3c-0.3-0.4-0.8-0.6-1.1-0.4c-0.3,0.2-0.3,0.7,0,1.2c0.3,0.4,0.8,0.6,1.1,0.4
			C17.5,12.3,17.5,11.8,17.2,11.3z"/>
		<path class="st0" d="M20.5,11.2C20.5,11.2,20.5,11.2,20.5,11.2c0.4,0.1,0.7-0.2,0.9-0.7c0-0.1,0-0.1,0.1-0.2
			C21.6,9.6,21.3,9.1,21,9c-0.4-0.1-0.8,0.4-0.9,1C19.9,10.6,20.1,11.1,20.5,11.2z"/>
		<path class="st0" d="M23.1,11c-0.3-0.2-0.8-0.1-1.1,0.4c-0.3,0.4-0.3,0.9,0,1.2c0.3,0.2,0.8,0.1,1.1-0.4
			C23.4,11.7,23.4,11.2,23.1,11z"/>
	</g>
	<g>
		<path class="st0" d="M2.7,18.4c-0.4-0.2-0.6-0.4-0.6-0.7c0-0.2,0.1-0.4,0.3-0.6C2.5,17,2.6,17,2.8,16.9c0.2,0,0.3-0.1,0.4-0.3
			c0.3-0.6,0.4-1.2,0.4-1.9c0-0.9-0.5-2.2-1.4-3.9C1.4,9.1,1,7.7,1,6.7c0-0.9,0.2-1.6,0.5-2.3c0.4-0.8,0.9-1.3,1.6-1.7
			C3.4,2.6,3.7,2.5,4,2.5c0.6,0,1,0.2,1.3,0.5c0.1,0.1,0.2,0.3,0.2,0.5c0,0.3-0.2,0.5-0.6,0.7c-0.1,0-0.1,0-0.2,0
			c-0.1,0-0.1,0-0.2,0C4.4,4.1,4.3,4.1,4.3,4.1c-0.1,0-0.2,0-0.3,0.1C3.3,5,2.9,5.9,2.9,7c0,0.4,0.1,0.8,0.2,1.1
			c0,0.1,0.2,0.4,0.4,0.9c0.3,0.5,0.7,1.3,1.2,2.3c0.7,1.3,1,2.5,1,3.4c0,0.8-0.2,1.5-0.6,2.2C5,17.3,4.7,17.6,4.2,18
			c-0.4,0.3-0.8,0.4-1.1,0.4C2.9,18.4,2.8,18.4,2.7,18.4z"/>
		<path class="st0" d="M9.3,13.2c0.2-0.2,0.4-0.4,0.5-0.8c0.1-0.3,0.2-0.6,0.3-0.9l0-0.1c0.1-0.2,0.2-0.5,0.4-0.8
			c0.2-0.3,0.4-0.6,0.6-0.9c0.2-0.3,0.5-0.6,0.7-0.8c0.3-0.2,0.5-0.3,0.8-0.3c0.2,0.1,0.4,0.2,0.5,0.3c0.1,0.2,0.2,0.3,0.3,0.5
			c0.1,0.2,0.1,0.4,0.2,0.6c0,0.2,0.1,0.4,0.2,0.6c0.2,0.4,0.3,0.8,0.4,1.3c0.1,0.5,0.2,0.9,0.2,1.4c0.1,0.5,0.1,0.9,0.2,1.4
			c0.1,0.5,0.2,0.9,0.4,1.3c0,0.2-0.2,0.4-0.4,0.5c-0.2,0.1-0.4,0.2-0.6,0.2c-0.3,0-0.4-0.1-0.6-0.3c-0.1-0.2-0.2-0.4-0.3-0.7
			c-0.1-0.3-0.1-0.6-0.2-0.9c0-0.3-0.1-0.5-0.1-0.7c-0.1-0.2-0.1-0.5-0.2-0.8c0-0.3-0.1-0.6-0.1-0.9c-0.1-0.3-0.1-0.6-0.2-0.9
			c-0.1-0.3-0.2-0.5-0.3-0.7c-0.2,0.4-0.4,0.7-0.6,1.1c-0.1,0.3-0.3,0.6-0.4,0.9c-0.1,0.3-0.2,0.6-0.3,0.9c-0.1,0.3-0.3,0.6-0.4,0.9
			c-0.2,0.4-0.4,0.7-0.6,0.9c-0.2,0.2-0.4,0.4-0.5,0.5c-0.2,0.1-0.3,0.2-0.4,0.2c-0.1,0-0.3,0-0.4,0c-0.1,0-0.3-0.1-0.5-0.2
			c-0.2-0.1-0.3-0.3-0.3-0.5c0-0.9,0-1.7,0-2.5c0-0.8,0-1.6,0-2.4c0-0.2,0-0.5,0-0.7c0-0.2,0-0.5,0-0.7c0-0.2,0-0.3,0.1-0.5
			c0.1-0.2,0.2-0.3,0.3-0.3c0.1,0,0.2,0,0.3,0c0.1,0,0.2,0,0.2,0c0.2,0,0.3,0.1,0.4,0.2C9,8.6,9,8.8,9.1,8.9c0,0.2,0.1,0.3,0.1,0.5
			c0,0.2,0,0.3,0,0.4c0,0.2,0,0.3,0.1,0.4c0,0.1,0.1,0.3,0.1,0.4c0,0.5,0,1,0,1.3c0,0.4,0,0.7,0,1V13.2z"/>
		<path class="st0" d="M25.9,19.3c0-0.4,0-0.8,0-1.1c0-0.4,0-0.7,0-1.1c0-0.1,0-0.2,0-0.5c0-0.2,0-0.5,0-0.8c0-0.3,0-0.6,0-0.9
			c0-0.3,0-0.7,0-0.9c0-0.3,0-0.6,0-0.8c0-0.2,0-0.4,0-0.5v-0.4c-0.1,0-0.2,0-0.2,0c-0.1,0-0.1,0-0.2,0c-0.4,0-0.7-0.1-0.9-0.3
			c-0.2-0.2-0.3-0.4-0.3-0.7c0-0.1,0.1-0.2,0.2-0.3c0.1-0.1,0.3-0.1,0.4-0.2c0.2,0,0.3-0.1,0.5-0.1c0.2,0,0.3-0.1,0.5-0.1
			c0.1-0.8,0.1-1.4,0.1-2c0-0.6,0-1.1,0-1.4c0-0.3,0-0.7,0.1-1.1c0-0.4,0.1-0.8,0.1-1.2c0-0.4,0.1-0.8,0.2-1.1
			c0.1-0.3,0.2-0.6,0.3-0.8l0.1-0.1c0.1-0.2,0.3-0.3,0.4-0.5c0.2-0.1,0.3-0.2,0.6-0.2c0.1,0,0.2,0,0.3,0.1c0.1,0,0.2,0.1,0.3,0.2
			c0.1,0.1,0.2,0.1,0.3,0.2c0.1,0.1,0.1,0.1,0.1,0.2c0,0.1,0,0.2,0,0.3c0,0.1-0.1,0.1-0.1,0.2c0,0.1-0.1,0.1-0.1,0.2
			c-0.1,0-0.1,0.1-0.2,0.2C28.2,3.9,28.1,4,28,4.2c-0.1,0.2-0.1,0.3-0.1,0.5c0,0.2-0.1,0.3-0.1,0.5c0,0.2,0,0.3,0,0.4
			c-0.1,0.7-0.1,1.2-0.1,1.6c0,0.4-0.1,0.7-0.1,1c0,0.2,0,0.4,0,0.6c0,0.1,0,0.2,0,0.3v0.8c0,0.2,0,0.3,0.1,0.3c0,0,0.1,0.1,0.3,0.1
			c0.1,0,0.3,0,0.5-0.1c0.2,0,0.4-0.1,0.6-0.1c0.2-0.1,0.4-0.1,0.6-0.2c0.2-0.1,0.4-0.1,0.5-0.1c0-0.5,0-0.9,0-1.1
			c0-0.2,0-0.3,0-0.4c0-0.1,0-0.1,0-0.1c0,0,0-0.1,0-0.3c0-0.3,0-0.7,0.1-1c0-0.3,0.1-0.7,0.2-1c0.1-0.3,0.2-0.6,0.3-0.9
			c0.1-0.3,0.2-0.5,0.3-0.6c0.1-0.2,0.3-0.3,0.4-0.5c0.1-0.2,0.3-0.2,0.6-0.2c0.1,0,0.1,0,0.2,0.1c0.1,0,0.2,0.1,0.3,0.2
			c0.1,0.1,0.2,0.1,0.2,0.2C32.9,4,32.9,4,32.9,4.1c0,0.3,0,0.4-0.1,0.5c-0.1,0.1-0.2,0.2-0.3,0.3c-0.2,0.2-0.3,0.4-0.4,0.5
			c-0.1,0.1-0.2,0.3-0.2,0.6c-0.1,0.3-0.1,0.7-0.1,1.1c0,0.4-0.1,0.8-0.1,1.2c0,0.1,0,0.2,0,0.4c0,0.2,0,0.3,0,0.3
			c0,0.2,0,0.2,0.1,0.3c0,0,0.1,0.1,0.3,0.1c0.1,0,0.3,0,0.6-0.1c0.2,0,0.5-0.1,0.8-0.1C33.6,9.1,33.8,9,34,9c0.2,0,0.4-0.1,0.5-0.1
			c0.2,0,0.3,0,0.4,0.1c0.1,0.1,0.2,0.2,0.3,0.4c0,0.5,0,1,0,1.7c0,0.6,0.1,1.2,0.2,1.8c0.1,0.6,0.1,1.1,0.2,1.6
			c0.1,0.5,0.1,0.9,0.1,1.1c0,0.1,0,0.2-0.1,0.3c0,0.1-0.2,0.2-0.3,0.4c-0.2,0-0.4,0-0.6-0.1c-0.2,0-0.3-0.1-0.5-0.2
			c-0.1-0.1-0.2-0.3-0.3-0.5c-0.1-0.2-0.1-0.5-0.1-0.9c0-0.2,0-0.4-0.1-0.7c0-0.2-0.1-0.4-0.1-0.7c0-0.5,0-1-0.1-1.5
			c-0.1-0.4-0.1-0.9-0.1-1.4c-0.4,0-0.8,0.1-1,0.1c-0.3,0.1-0.5,0.2-0.6,0.3c0,1.4,0,2.6,0,3.6c0,1,0,1.9,0.1,2.7
			c0,0.7,0.1,1.4,0.1,1.9c0,0.5,0.1,0.9,0.1,1.3c0,0.3,0.1,0.6,0.1,0.8c0,0.2,0,0.4,0,0.5c0,0.3-0.1,0.4-0.2,0.5
			c-0.2,0.1-0.3,0.1-0.5,0.1c-0.3,0-0.5-0.1-0.7-0.4c-0.1-0.3-0.3-0.6-0.3-1c-0.1-0.4-0.1-0.7-0.1-1.1c0-0.4,0-0.7,0-0.9
			c0-0.3,0-0.7,0-1c0-0.3,0-0.7,0-1c0-0.1,0-0.3,0-0.6c0-0.3,0-0.7,0-1.1c0-0.4,0-0.8,0-1.3c0-0.5,0-0.9,0-1.3c0-0.4,0-0.8,0-1.1
			c0-0.3,0-0.5,0-0.6c-0.2,0.1-0.5,0.1-0.8,0.1c-0.3,0-0.6,0.1-0.9,0.2c-0.3,0.1-0.5,0.2-0.7,0.3c-0.2,0.1-0.3,0.3-0.3,0.6
			c0,0.5,0,1.1,0,1.7c0,0.6,0,1.3,0,2c0,0.7,0,1.4,0.1,2.1c0,0.7,0,1.3,0.1,1.9c0,0.6,0,1.1,0,1.5c0,0.4,0,0.7,0,0.9
			c0,0.3-0.1,0.5-0.3,0.5C27.4,23,27.2,23,27,23c-0.3,0-0.5-0.1-0.7-0.4c-0.2-0.3-0.3-0.6-0.3-0.9c-0.1-0.4-0.1-0.7-0.1-1.1
			c0-0.4,0-0.7,0-1V19.3z M34,5c0.1-0.1,0.2-0.1,0.3-0.1c0.3,0,0.5,0.1,0.8,0.3c0.3,0.2,0.4,0.4,0.4,0.6c0,0.2-0.1,0.4-0.2,0.5
			S35,6.3,34.8,6.3c-0.1,0-0.3,0-0.4-0.1c-0.1,0-0.3-0.1-0.4-0.2c-0.1-0.1-0.2-0.1-0.3-0.2c-0.1-0.1-0.1-0.1-0.1-0.2
			c0-0.2,0-0.3,0.1-0.4C33.7,5.2,33.8,5.1,34,5z"/>
		<path class="st0" d="M36.8,12.7c0-0.5,0.1-1,0.2-1.6c0.1-0.5,0.3-1,0.6-1.4c0.3-0.4,0.6-0.8,1-1C39,8.4,39.5,8.3,40,8.3
			c0.4,0,0.7,0.1,1,0.2c0.3,0.1,0.5,0.3,0.7,0.4c0.2,0.2,0.3,0.4,0.4,0.6c0.1,0.2,0.1,0.5,0.1,0.7c0,0.3-0.1,0.6-0.2,0.9
			c-0.1,0.3-0.3,0.6-0.5,0.8c-0.2,0.2-0.5,0.4-0.8,0.6c-0.3,0.1-0.7,0.2-1.1,0.2c-0.2,0-0.3,0-0.5,0c-0.1,0-0.3-0.1-0.5-0.1
			c0,0.1,0,0.1,0,0.2c0,0,0,0.1,0,0.1c0,0.5,0.1,0.9,0.3,1.2c0.2,0.3,0.3,0.5,0.5,0.7c0.2,0.1,0.4,0.2,0.5,0.3
			c0.2,0,0.3,0.1,0.3,0.1c0.4,0,0.8-0.1,1.1-0.3c0.3-0.2,0.6-0.4,1-0.7c0.1,0,0.1,0.1,0.2,0.1c0.1,0,0.2,0.1,0.2,0.2
			c0,0.1,0,0.2,0,0.2c0,0,0,0.1,0,0.2c0,0.2-0.1,0.4-0.2,0.5c-0.1,0.1-0.2,0.2-0.3,0.3c-0.4,0.3-0.7,0.5-1,0.6
			c-0.3,0.1-0.7,0.1-1.2,0.1c-0.2,0-0.5,0-0.8-0.1c-0.3-0.1-0.6-0.2-0.8-0.3c-0.3-0.3-0.6-0.5-0.8-0.8c-0.2-0.3-0.3-0.5-0.4-0.8
			c-0.1-0.3-0.2-0.6-0.2-0.9C36.9,13.3,36.8,13,36.8,12.7z M38.7,11.5c0.1,0,0.1,0,0.3,0c0.1,0,0.2,0,0.3,0c0.5,0,0.8-0.1,1.1-0.4
			c0.3-0.2,0.4-0.5,0.4-0.9c0-0.2-0.1-0.4-0.2-0.5c-0.1-0.2-0.3-0.3-0.5-0.3c-0.1,0-0.3,0-0.4,0c-0.1,0-0.2,0.1-0.3,0.2
			c-0.1,0.1-0.1,0.1-0.2,0.2c-0.1,0.1-0.1,0.2-0.2,0.3c-0.1,0.1-0.1,0.3-0.2,0.5C38.7,11,38.7,11.2,38.7,11.5z"/>
		<path class="st0" d="M46.4,12c0.3,0.5,0.5,1.1,0.8,1.6c0.2,0.5,0.4,1.1,0.4,1.8c0,0.3-0.1,0.7-0.2,1c-0.1,0.3-0.3,0.6-0.5,0.8
			c-0.2,0.2-0.5,0.4-0.8,0.6C45.8,18,45.5,18,45.2,18c-0.3,0-0.6-0.1-0.8-0.3c-0.2-0.2-0.4-0.5-0.4-0.8c0.1-0.1,0.1-0.2,0.2-0.2
			c0,0,0.2-0.1,0.3-0.1c0.2,0.2,0.3,0.3,0.5,0.3c0.2,0,0.4-0.1,0.6-0.3c0.2-0.2,0.3-0.5,0.3-0.8c0-0.1,0-0.2,0-0.2
			c-0.2-0.6-0.3-1.2-0.6-1.7c-0.2-0.5-0.5-1-0.7-1.4c-0.2-0.4-0.4-0.9-0.6-1.3c-0.2-0.4-0.3-0.8-0.3-1.2c0-0.3,0-0.7,0.1-1
			c0.1-0.4,0.2-0.7,0.3-1c0.1-0.3,0.3-0.6,0.6-0.8c0.2-0.2,0.5-0.3,0.9-0.3c0,0,0.1,0,0.1,0c0,0,0.1,0,0.1,0c0.1,0,0.3,0.1,0.4,0.2
			c0.1,0.1,0.2,0.3,0.2,0.4c0,0.1,0,0.2-0.1,0.3C46.1,7.7,46,7.8,46,7.8c-0.2,0.2-0.3,0.5-0.4,0.7c-0.1,0.3-0.1,0.5-0.1,0.8v0.5
			c0,0.1,0,0.2,0.1,0.4c0.1,0.2,0.2,0.4,0.2,0.6c0.1,0.2,0.2,0.4,0.3,0.6c0.1,0.2,0.2,0.3,0.2,0.4L46.4,12z"/>
	</g>
</g>
</svg>
