<?xml version="1.0" encoding="utf-8"?>
<!-- Generator: Adobe Illustrator 24.1.2, SVG Export Plug-In . SVG Version: 6.00 Build 0)  -->
<svg version="1.1" id="Stripelight-logo" xmlns="http://www.w3.org/2000/svg" xmlns:xlink="http://www.w3.org/1999/xlink" x="0px"
	 y="0px" viewBox="0 0 134.1 55.7" style="enable-background:new 0 0 134.1 55.7;" xml:space="preserve">
<style type="text/css">
	.st0{fill:#FFFFFF;}
</style>
<g>
	<g>
		<line class="st0" x1="32.3" y1="42.8" x2="26.2" y2="36.5"/>
		<path class="st0" d="M37.5,48.3h-2.7l-12.3-13l0,0c-0.2-0.2-0.3-0.4-0.5-0.6c-0.4-0.5-0.7-0.9-0.9-1.3c-0.2-0.4-0.4-0.8-0.5-1.1
			c-0.1-0.4-0.2-0.7-0.2-1.1c0-0.7,0.1-1.3,0.4-1.9c0.3-0.6,0.7-1.1,1.1-1.5c0.5-0.4,1.1-0.8,1.7-1c0.7-0.2,1.4-0.4,2.1-0.4
			c0.7,0,1.4,0.1,2,0.3c0.6,0.2,1.1,0.5,1.6,0.9c0.5,0.4,0.8,0.8,1.1,1.4c0.3,0.5,0.4,1.1,0.4,1.7c0,0.6-0.1,1.2-0.4,1.7
			c-0.3,0.5-0.6,1-1,1.5c-0.4,0.5-0.9,0.9-1.5,1.3c-0.1,0.1-0.3,0.2-0.5,0.3l-1.2-1.3c0.6-0.4,1.1-0.8,1.5-1.2
			c0.7-0.7,1.1-1.5,1.1-2.3c0-0.8-0.3-1.4-0.9-1.9c-0.6-0.5-1.3-0.8-2.2-0.8c-0.5,0-1,0.1-1.4,0.2c-0.4,0.2-0.8,0.4-1.1,0.7
			c-0.3,0.3-0.6,0.6-0.7,1c-0.2,0.4-0.3,0.8-0.3,1.2c0,0.2,0,0.5,0.1,0.7c0.1,0.2,0.2,0.5,0.4,0.8c0.2,0.3,0.5,0.7,0.8,1.1
			c0.3,0.4,0.8,0.9,1.3,1.5l1.2,1.2l6,6.3l1.2,1.3L37.5,48.3z"/>
		<path class="st0" d="M31,46.9c-0.5,0.4-1,0.7-1.6,0.9c-1.1,0.5-2.3,0.8-3.6,0.8c-1,0-1.8-0.1-2.7-0.4c-0.8-0.3-1.6-0.7-2.2-1.2
			c-0.6-0.5-1.1-1.1-1.5-1.9c-0.4-0.7-0.5-1.5-0.5-2.4c0-0.7,0.1-1.4,0.4-2c0.2-0.6,0.6-1.2,1-1.7c0.4-0.5,0.9-1,1.5-1.4
			c0.1-0.1,0.3-0.2,0.4-0.3l1.2,1.3c-0.5,0.4-1,0.9-1.3,1.3c-0.7,0.8-1.1,1.8-1.1,2.9c0,0.7,0.1,1.3,0.4,1.8c0.3,0.5,0.7,1,1.2,1.3
			c0.5,0.4,1,0.6,1.6,0.8c0.6,0.2,1.2,0.3,1.9,0.3c1,0,2-0.2,2.9-0.6c0.3-0.2,0.7-0.4,1-0.6L31,46.9z"/>
	</g>
	<g>
		<path class="st0" d="M16.5,37.1V35c-0.8,1.6-2.4,2.3-3.8,2.3c-3.2,0-5.1-2.4-5.1-5.4s1.9-5.4,5.1-5.4c1.4,0,3,0.7,3.8,2.3v-7.2
			h1.9v15.5H16.5z M9.5,31.9c0,1.8,1.1,3.8,3.5,3.8c2.4,0,3.5-2,3.5-3.8c0-1.8-1.1-3.8-3.5-3.8C10.6,28.1,9.5,30,9.5,31.9z"/>
		<path class="st0" d="M40.4,26.7h2.7l-4.8,4.3l4.9,6.1h-2.4l-3.9-4.9l-1.5,1.3v3.6h-1.9V21.6h1.9v9.6L40.4,26.7z"/>
		<path class="st0" d="M44.3,26.7h2v-3.1h1.9v3.1h3v1.6h-3v4.5c0,2.1,0.2,2.9,1.5,2.9c0.5,0,1-0.1,1.4-0.2l0.5,1.5
			c-0.4,0.2-1.2,0.3-1.9,0.3c-2.8,0-3.4-1.3-3.4-4.5v-4.5h-2V26.7z"/>
		<path class="st0" d="M61.3,34.5l1.2,1.1c-0.8,0.8-2.2,1.6-4.5,1.6c-3.3,0-5.2-2.3-5.2-5.4s2-5.4,5.2-5.4c3.2,0,5.3,2.2,5.2,6.3
			h-8.3c0.1,1.5,1.2,2.9,3.1,2.9C59.5,35.7,60.6,35.1,61.3,34.5z M61.1,31.1c-0.1-1.4-0.9-3.1-3.1-3.1c-2.2,0-3,1.6-3.1,3.1H61.1z"
			/>
		<path class="st0" d="M71.4,28.4c-0.4-0.2-0.9-0.3-1.5-0.3c-2.3,0-2.9,1.6-2.9,3.4v5.6h-1.9V26.7H67v1.6c0.3-1,1.4-1.8,3-1.8
			c0.9,0,1.7,0.2,2.3,0.5L71.4,28.4z"/>
	</g>
</g>
</svg>
