<?xml version="1.0" encoding="utf-8"?>
<!-- Generator: Adobe Illustrator 24.1.0, SVG Export Plug-In . SVG Version: 6.00 Build 0)  -->
<svg version="1.1" id="Stripelight-logo" xmlns="http://www.w3.org/2000/svg" xmlns:xlink="http://www.w3.org/1999/xlink" x="0px"
	 y="0px" viewBox="0 0 145.7 31.7" style="enable-background:new 0 0 145.7 31.7;" xml:space="preserve">
<style type="text/css">
	.st0{fill:#FFFFFF;}
</style>
<g>
	<g>
		<path class="st0" d="M42.62,20.69v-9.75l0.89-0.23v9.09h3.55l-0.27,0.89H42.62z"/>
		<path class="st0" d="M51,20.69v-9.75h5.27l0.16,0.89h-4.56v3.48h3.91v0.89h-3.91v3.63h4.81l-0.15,0.89H51V20.69z"/>
		<path class="st0" d="M63.49,20.69L62.6,20.8v-8.99h-2.7l0.2-0.89h5.95v0.89h-2.57V20.69z"/>
		<path class="st0" d="M69.94,13.46c0.19-0.29,0.78-1.04,0.78-1.37c0-0.29-0.3-0.49-0.51-0.61l0.61-0.76
			c0.37,0.25,0.76,0.56,0.76,1.02c0,0.68-0.81,1.46-1.16,2.01L69.94,13.46z"/>
		<path class="st0" d="M76.22,18.67c0.6,0.93,1.31,1.37,2.42,1.37c1.19,0,2.08-0.7,2.08-1.94c0-2.73-5.01-1.24-5.01-4.63
			c0-1.78,1.39-2.76,3.06-2.76c0.97,0,1.94,0.45,2.57,1.16l-0.55,0.66c-0.61-0.55-1.17-0.94-2.03-0.94c-1.13,0-2.09,0.59-2.09,1.82
			c0,2.43,5.01,1.15,5.01,4.6c0,1.78-1.34,2.9-3.06,2.9c-1.32,0-2.4-0.55-3.09-1.71L76.22,18.67z"/>
		<path class="st0" d="M94.99,20.69l-0.89,0.11v-8.99h-2.7l0.2-0.89h5.95v0.89h-2.57V20.69z"/>
		<path class="st0" d="M111.25,15.82c0,2.83-2.36,5.11-5.16,5.11s-5.16-2.28-5.16-5.11s2.36-5.11,5.16-5.11
			C108.9,10.71,111.25,12.99,111.25,15.82z M101.89,15.82c0,2.31,1.93,4.22,4.19,4.22c2.27,0,4.19-1.93,4.19-4.22
			c0-2.31-1.93-4.22-4.19-4.22C103.82,11.6,101.89,13.51,101.89,15.82z"/>
		<path class="st0" d="M125.16,15.82c0,2.83-2.36,5.11-5.16,5.11c-2.8,0-5.16-2.28-5.16-5.11s2.36-5.11,5.16-5.11
			C122.8,10.71,125.16,12.99,125.16,15.82z M115.81,15.82c0,2.31,1.93,4.22,4.19,4.22c2.27,0,4.19-1.93,4.19-4.22
			c0-2.31-1.93-4.22-4.19-4.22C117.73,11.6,115.81,13.51,115.81,15.82z"/>
		<path class="st0" d="M129.53,18.67c0.6,0.93,1.31,1.37,2.42,1.37c1.19,0,2.08-0.7,2.08-1.94c0-2.73-5.01-1.24-5.01-4.63
			c0-1.78,1.39-2.76,3.06-2.76c0.97,0,1.94,0.45,2.57,1.16l-0.55,0.66c-0.61-0.55-1.17-0.94-2.03-0.94c-1.13,0-2.09,0.59-2.09,1.82
			c0,2.43,5.01,1.15,5.01,4.6c0,1.78-1.34,2.9-3.06,2.9c-1.32,0-2.4-0.55-3.09-1.71L129.53,18.67z"/>
		<path class="st0" d="M141.92,20.69l-0.89,0.11v-8.99h-2.7l0.2-0.89h5.95v0.89h-2.57V20.69z"/>
	</g>
	<g>
		<g>
			<path class="st0" d="M10.44,28.12c-0.25,0-0.51-0.01-0.75-0.04l-0.36-0.36l0.05-0.46l0.38,0.04c3.36,0.37,6.39-2.08,6.76-5.44
				c0.37-3.36-2.08-6.39-5.44-6.76l-0.38-0.04l0.05-0.44l0.42-0.29c3.78,0.41,6.54,3.84,6.12,7.62
				C16.92,25.5,13.92,28.12,10.44,28.12z"/>
		</g>
		<g>
			<path class="st0" d="M19.86,28.12c-3.48,0-6.49-2.62-6.87-6.16c-0.41-3.78,2.34-7.21,6.12-7.62l0.42,0.26l0.05,0.48l-0.38,0.04
				c-3.36,0.37-5.79,3.4-5.44,6.76c0.37,3.36,3.4,5.79,6.76,5.44l0.38-0.04l0.04,0.38l-0.34,0.44
				C20.35,28.11,20.11,28.12,19.86,28.12z"/>
		</g>
		<g>
			<path class="st0" d="M15.16,29.35c-7.46,0-13.53-6.08-13.53-13.53c0-1.63,0.29-3.22,0.85-4.72c1.56-4.17,5.05-7.29,9.34-8.38
				c2.16-0.55,4.49-0.55,6.66,0c4.3,1.08,7.78,4.21,9.34,8.37c0.57,1.52,0.86,3.11,0.86,4.75C28.7,23.27,22.62,29.35,15.16,29.35z
				 M15.16,3.06c-1.07,0-2.13,0.14-3.14,0.4c-4.06,1.02-7.35,3.99-8.81,7.91c-0.53,1.42-0.81,2.91-0.81,4.45
				c0,7.03,5.72,12.75,12.75,12.75s12.75-5.72,12.75-12.75c0-1.54-0.27-3.05-0.81-4.48c-1.46-3.92-4.75-6.86-8.81-7.88
				C17.28,3.2,16.23,3.06,15.16,3.06z"/>
		</g>
		<g>
			<path class="st0" d="M8.74,15.48c-2.72,0-5.16-1.61-6.25-4.1l-0.07-0.15l0.05-0.15c1.56-4.15,5.05-7.28,9.34-8.37l0.15-0.04
				l0.14,0.08c2.12,1.22,3.44,3.48,3.44,5.91C15.56,12.42,12.5,15.48,8.74,15.48z M3.27,11.22c0.98,2.12,3.11,3.48,5.48,3.48
				c3.33,0,6.04-2.7,6.04-6.04c0-2.1-1.11-4.07-2.91-5.16C7.94,4.55,4.74,7.42,3.27,11.22z"/>
		</g>
		<g>
			<path class="st0" d="M21.57,15.48c-3.76,0-6.81-3.06-6.81-6.81c0-2.44,1.32-4.71,3.44-5.93l0.14-0.08l0.15,0.05
				c4.3,1.08,7.78,4.21,9.34,8.37l0.05,0.15l-0.07,0.15C26.74,13.86,24.28,15.48,21.57,15.48z M18.45,3.5
				c-1.8,1.09-2.92,3.05-2.92,5.16c0,3.33,2.7,6.04,6.04,6.04c2.36,0,4.49-1.37,5.48-3.51C25.57,7.41,22.37,4.54,18.45,3.5z"/>
		</g>
	</g>
</g>
</svg>
