<?xml version="1.0" encoding="utf-8"?>
<!-- Generator: Adobe Illustrator 24.0.1, SVG Export Plug-In . SVG Version: 6.00 Build 0)  -->
<svg version="1.1" id="Laag_1" xmlns="http://www.w3.org/2000/svg" xmlns:xlink="http://www.w3.org/1999/xlink" x="0px" y="0px"
	 viewBox="0 0 415.36 51.83" style="enable-background:new 0 0 415.36 51.83;" xml:space="preserve">
<style type="text/css">
	.st0{fill:#FFFFFF;}
</style>
<g>
	<path class="st0" d="M21.28,27.28c0-1.12-0.18-2.02-0.56-2.72c-0.37-0.7-0.88-1.24-1.53-1.64c-0.65-0.4-1.45-0.67-2.41-0.8
		c-0.95-0.14-2.01-0.21-3.17-0.21c-2.51,0-5.19,0.49-8.02,1.46c-0.65-1.21-1.14-2.35-1.46-3.42c-0.33-1.07-0.49-2.35-0.49-3.84
		c2.05-0.7,4.09-1.21,6.14-1.53c2.05-0.32,3.95-0.49,5.72-0.49c4.84,0,8.62,1.16,11.34,3.49c2.72,2.33,4.08,6.04,4.08,11.16v20.93
		c-1.63,0.51-3.61,1-5.93,1.47c-2.33,0.46-4.95,0.7-7.88,0.7c-2.37,0-4.55-0.21-6.52-0.63c-1.98-0.42-3.67-1.12-5.09-2.1
		c-1.42-0.98-2.51-2.23-3.28-3.77s-1.15-3.42-1.15-5.65c0-2.23,0.48-4.1,1.43-5.62c0.95-1.51,2.19-2.72,3.7-3.63
		c1.51-0.91,3.2-1.56,5.06-1.95s3.72-0.59,5.58-0.59c1.35,0,2.84,0.07,4.46,0.21V27.28z M21.28,34.46
		c-0.56-0.09-1.16-0.18-1.81-0.25c-0.65-0.07-1.23-0.1-1.74-0.1c-2.28,0-4.08,0.41-5.41,1.22c-1.33,0.81-1.99,2.13-1.99,3.94
		c0,1.21,0.26,2.14,0.77,2.79c0.51,0.65,1.13,1.13,1.85,1.43c0.72,0.3,1.49,0.49,2.3,0.56c0.81,0.07,1.52,0.11,2.13,0.11
		c0.7,0,1.4-0.06,2.09-0.18s1.3-0.22,1.81-0.31V34.46z"/>
	<path class="st0" d="M40.88,14.93c1.68-0.28,3.33-0.42,4.95-0.42c1.63,0,3.28,0.14,4.95,0.42v19.12c0,1.91,0.15,3.47,0.45,4.71
		c0.3,1.23,0.77,2.21,1.4,2.93c0.63,0.72,1.41,1.23,2.34,1.53c0.93,0.3,2.02,0.45,3.28,0.45c1.72,0,3.16-0.16,4.33-0.49V14.93
		c1.67-0.28,3.3-0.42,4.88-0.42c1.63,0,3.28,0.14,4.95,0.42V49.6c-1.49,0.51-3.45,1.01-5.89,1.5c-2.44,0.49-4.99,0.73-7.64,0.73
		c-2.37,0-4.65-0.18-6.84-0.56c-2.19-0.37-4.11-1.16-5.76-2.37c-1.65-1.21-2.97-2.98-3.94-5.3c-0.98-2.33-1.47-5.42-1.47-9.28V14.93
		z"/>
	<path class="st0" d="M84.2,22.46h-4.54l-0.35-1.4L92.36,4.39h1.6v10.53h8.44c0.14,0.7,0.23,1.33,0.28,1.88
		c0.05,0.56,0.07,1.14,0.07,1.75c0,0.65-0.02,1.28-0.07,1.88c-0.05,0.61-0.14,1.28-0.28,2.02h-8.44v14.16
		c0,1.44,0.12,2.61,0.35,3.49c0.23,0.89,0.57,1.58,1.01,2.09c0.44,0.51,0.99,0.86,1.64,1.05c0.65,0.19,1.42,0.28,2.3,0.28
		c0.7,0,1.38-0.06,2.06-0.18c0.67-0.11,1.27-0.22,1.78-0.31c0.32,0.88,0.56,1.8,0.7,2.75s0.21,1.8,0.21,2.55
		c0,0.51-0.01,0.94-0.04,1.29c-0.02,0.35-0.06,0.68-0.1,1.01c-2.14,0.51-4.35,0.77-6.63,0.77c-4.23,0-7.47-0.99-9.7-2.97
		c-2.23-1.98-3.35-5.2-3.35-9.66V22.46z"/>
	<path class="st0" d="M127.04,51.83c-2.93,0-5.48-0.48-7.64-1.43c-2.16-0.95-3.95-2.28-5.37-3.98c-1.42-1.7-2.49-3.69-3.21-5.96
		c-0.72-2.28-1.08-4.74-1.08-7.4c0-2.65,0.36-5.14,1.08-7.46c0.72-2.33,1.79-4.34,3.21-6.04c1.42-1.7,3.21-3.03,5.37-4.01
		s4.71-1.47,7.64-1.47c2.93,0,5.49,0.49,7.67,1.47c2.19,0.98,4,2.31,5.44,4.01c1.44,1.7,2.51,3.71,3.21,6.04s1.05,4.81,1.05,7.46
		c0,2.65-0.35,5.12-1.05,7.4s-1.77,4.27-3.21,5.96c-1.44,1.7-3.26,3.03-5.44,3.98C132.53,51.36,129.97,51.83,127.04,51.83z
		 M127.04,44.3c2.61,0,4.48-0.97,5.62-2.9c1.14-1.93,1.71-4.71,1.71-8.34c0-3.63-0.57-6.4-1.71-8.33s-3.01-2.9-5.62-2.9
		c-2.56,0-4.41,0.97-5.55,2.9c-1.14,1.93-1.71,4.71-1.71,8.33c0,3.63,0.57,6.41,1.71,8.34C122.63,43.33,124.48,44.3,127.04,44.3z"/>
	<path class="st0" d="M154.73,15.21c0.51-0.09,1.01-0.16,1.5-0.21c0.49-0.05,0.99-0.07,1.5-0.07c0.51,0,0.99,0.03,1.43,0.07
		c0.44,0.05,0.92,0.12,1.43,0.21c0.14,0.7,0.28,1.62,0.42,2.76c0.14,1.14,0.21,2.11,0.21,2.89c0.42-0.84,0.94-1.64,1.57-2.41
		c0.63-0.77,1.37-1.45,2.23-2.06c0.86-0.6,1.85-1.09,2.97-1.47c1.12-0.37,2.35-0.56,3.7-0.56c2.79,0,4.94,0.57,6.45,1.71
		c1.51,1.14,2.66,2.73,3.45,4.78c0.46-0.79,1.03-1.58,1.71-2.37c0.67-0.79,1.43-1.49,2.27-2.09c0.84-0.6,1.79-1.09,2.86-1.47
		c1.07-0.37,2.28-0.56,3.63-0.56c4.14,0,7.15,1.16,9.03,3.49s2.83,5.77,2.83,10.32V51c-0.51,0.09-1.09,0.16-1.74,0.21
		c-0.65,0.05-1.23,0.07-1.74,0.07c-0.51,0-1.08-0.02-1.71-0.07c-0.63-0.05-1.2-0.12-1.71-0.21V30.21c0-3.21-0.49-5.62-1.46-7.22
		c-0.98-1.6-2.58-2.41-4.81-2.41c-2.37,0-4.29,0.86-5.76,2.58c-1.46,1.72-2.2,4.26-2.2,7.6V51c-0.51,0.09-1.08,0.16-1.71,0.21
		c-0.63,0.05-1.2,0.07-1.71,0.07c-0.51,0-1.08-0.02-1.71-0.07c-0.63-0.05-1.2-0.12-1.71-0.21V29.72c0-3.11-0.47-5.45-1.4-7.01
		c-0.93-1.56-2.42-2.34-4.47-2.34c-1.16,0-2.26,0.26-3.28,0.77c-1.02,0.51-1.92,1.28-2.69,2.3c-0.77,1.02-1.37,2.31-1.81,3.87
		c-0.44,1.56-0.66,3.36-0.66,5.41V51c-0.51,0.09-1.08,0.16-1.71,0.21c-0.63,0.05-1.2,0.07-1.71,0.07c-0.51,0-1.09-0.02-1.74-0.07
		c-0.65-0.05-1.23-0.12-1.74-0.21V15.21z"/>
	<path class="st0" d="M230.64,51.83c-2.79,0-5.23-0.48-7.33-1.43c-2.09-0.95-3.84-2.27-5.23-3.94c-1.4-1.67-2.43-3.65-3.1-5.93
		c-0.67-2.28-1.01-4.74-1.01-7.39s0.34-5.12,1.01-7.39c0.67-2.28,1.71-4.26,3.1-5.93c1.4-1.67,3.14-3,5.23-3.98
		c2.09-0.98,4.54-1.47,7.33-1.47c2.79,0,5.23,0.49,7.33,1.47c2.09,0.98,3.84,2.3,5.23,3.98c1.4,1.67,2.43,3.65,3.1,5.93
		c0.67,2.28,1.01,4.74,1.01,7.39s-0.34,5.12-1.01,7.39c-0.67,2.28-1.71,4.26-3.1,5.93c-1.4,1.67-3.14,2.99-5.23,3.94
		C235.87,51.36,233.43,51.83,230.64,51.83z M230.64,46.32c3.21,0,5.58-1.16,7.12-3.49c1.53-2.33,2.3-5.56,2.3-9.7
		s-0.77-7.36-2.3-9.66c-1.53-2.3-3.91-3.46-7.12-3.46c-3.21,0-5.57,1.15-7.08,3.46c-1.51,2.3-2.27,5.52-2.27,9.66
		s0.76,7.37,2.27,9.7C225.07,45.16,227.43,46.32,230.64,46.32z"/>
	<path class="st0" d="M259.52,20.72h-5.44l-0.28-0.98l12-13.4h0.56v8.86h9.07c0.19,0.79,0.28,1.68,0.28,2.65
		c0,0.51-0.02,1-0.07,1.46c-0.05,0.47-0.12,0.93-0.21,1.4h-9.07v16.33c0,1.95,0.08,3.51,0.24,4.68c0.16,1.16,0.44,2.06,0.84,2.69
		c0.39,0.63,0.93,1.04,1.6,1.26c0.67,0.21,1.52,0.31,2.55,0.31c0.79,0,1.53-0.06,2.23-0.18s1.33-0.24,1.88-0.38
		c0.32,0.93,0.52,1.88,0.59,2.86s0.11,1.84,0.11,2.58c-0.93,0.23-1.91,0.41-2.93,0.52c-1.02,0.12-2.12,0.18-3.28,0.18
		c-3.35,0-5.96-0.81-7.85-2.44c-1.88-1.63-2.83-4.32-2.83-8.09V20.72z"/>
	<path class="st0" d="M287.07,20.65h-4.54c-0.09-0.37-0.16-0.8-0.21-1.29c-0.05-0.49-0.07-0.96-0.07-1.43
		c0-0.46,0.02-0.94,0.07-1.43c0.05-0.49,0.12-0.92,0.21-1.29h11.3V51c-0.51,0.09-1.08,0.16-1.71,0.21c-0.63,0.05-1.2,0.07-1.71,0.07
		c-0.47,0-1.01-0.02-1.64-0.07c-0.63-0.05-1.2-0.12-1.71-0.21V20.65z M285.54,7.32c-0.09-0.56-0.15-1.16-0.18-1.81
		c-0.02-0.65-0.03-1.23-0.03-1.74s0.01-1.09,0.03-1.75c0.02-0.65,0.08-1.23,0.18-1.74c0.6-0.09,1.26-0.16,1.95-0.21
		c0.7-0.05,1.3-0.07,1.81-0.07c0.51,0,1.12,0.02,1.81,0.07c0.7,0.05,1.33,0.12,1.88,0.21c0.09,0.51,0.15,1.09,0.18,1.74
		c0.02,0.65,0.03,1.23,0.03,1.75s-0.01,1.09-0.03,1.74c-0.02,0.65-0.08,1.26-0.18,1.81c-0.56,0.09-1.17,0.17-1.85,0.21
		c-0.67,0.05-1.27,0.07-1.78,0.07c-0.56,0-1.19-0.03-1.88-0.07C286.8,7.49,286.14,7.42,285.54,7.32z"/>
	<path class="st0" d="M321.4,51.83c-2.79,0-5.23-0.48-7.33-1.43c-2.09-0.95-3.84-2.27-5.23-3.94c-1.4-1.67-2.43-3.65-3.1-5.93
		c-0.67-2.28-1.01-4.74-1.01-7.39s0.34-5.12,1.01-7.39c0.67-2.28,1.71-4.26,3.1-5.93s3.14-3,5.23-3.98
		c2.09-0.98,4.54-1.47,7.33-1.47s5.23,0.49,7.33,1.47c2.09,0.98,3.84,2.3,5.23,3.98c1.4,1.67,2.43,3.65,3.1,5.93
		c0.67,2.28,1.01,4.74,1.01,7.39s-0.34,5.12-1.01,7.39c-0.67,2.28-1.71,4.26-3.1,5.93c-1.4,1.67-3.14,2.99-5.23,3.94
		C326.63,51.36,324.19,51.83,321.4,51.83z M321.4,46.32c3.21,0,5.58-1.16,7.12-3.49s2.3-5.56,2.3-9.7s-0.77-7.36-2.3-9.66
		c-1.53-2.3-3.91-3.46-7.12-3.46c-3.21,0-5.57,1.15-7.08,3.46c-1.51,2.3-2.27,5.52-2.27,9.66s0.76,7.37,2.27,9.7
		C315.83,45.16,318.19,46.32,321.4,46.32z"/>
	<path class="st0" d="M348.95,15.21c0.51-0.09,1.01-0.16,1.5-0.21c0.49-0.05,0.99-0.07,1.5-0.07c0.51,0,0.99,0.03,1.43,0.07
		c0.44,0.05,0.92,0.12,1.43,0.21c0.14,0.7,0.28,1.64,0.42,2.83c0.14,1.19,0.21,2.18,0.21,2.97c0.47-0.79,1.06-1.58,1.78-2.37
		c0.72-0.79,1.55-1.5,2.48-2.13c0.93-0.63,2-1.14,3.21-1.53c1.21-0.39,2.54-0.59,3.98-0.59c4.09,0,7.11,1.18,9.07,3.52
		c1.95,2.35,2.93,5.83,2.93,10.43V51c-0.51,0.09-1.09,0.16-1.74,0.21c-0.65,0.05-1.23,0.07-1.75,0.07c-0.51,0-1.08-0.02-1.71-0.07
		c-0.63-0.05-1.2-0.12-1.71-0.21V30.21c0-3.3-0.51-5.73-1.53-7.29c-1.02-1.56-2.65-2.34-4.88-2.34c-1.3,0-2.54,0.23-3.7,0.7
		c-1.16,0.47-2.19,1.19-3.07,2.16c-0.88,0.98-1.59,2.25-2.13,3.8c-0.54,1.56-0.8,3.43-0.8,5.62V51c-0.51,0.09-1.08,0.16-1.71,0.21
		c-0.63,0.05-1.2,0.07-1.71,0.07c-0.51,0-1.09-0.02-1.74-0.07c-0.65-0.05-1.23-0.12-1.74-0.21V15.21z"/>
	<path class="st0" d="M390.46,44.51c1.26,0.51,2.64,0.92,4.15,1.22c1.51,0.3,3.01,0.45,4.5,0.45c1.07,0,2.09-0.11,3.07-0.35
		s1.82-0.58,2.55-1.05c0.72-0.46,1.3-1.03,1.74-1.71c0.44-0.67,0.66-1.43,0.66-2.27c0-0.93-0.17-1.7-0.52-2.3
		c-0.35-0.6-0.81-1.12-1.4-1.53c-0.58-0.42-1.26-0.78-2.02-1.08c-0.77-0.3-1.59-0.59-2.48-0.87l-2.44-0.91
		c-2.98-1.12-5.14-2.37-6.49-3.77c-1.35-1.4-2.02-3.28-2.02-5.65c0-3.16,1.13-5.67,3.38-7.53c2.26-1.86,5.57-2.79,9.94-2.79
		c1.81,0,3.59,0.18,5.34,0.53c1.74,0.35,3.27,0.76,4.57,1.22c-0.09,0.93-0.27,1.86-0.52,2.79c-0.25,0.93-0.57,1.79-0.94,2.58
		c-1.02-0.37-2.25-0.73-3.66-1.08c-1.42-0.35-2.94-0.52-4.57-0.52c-1.72,0-3.24,0.3-4.57,0.91c-1.33,0.6-1.99,1.67-1.99,3.21
		c0,0.79,0.16,1.47,0.49,2.02s0.77,1.03,1.33,1.43c0.56,0.4,1.2,0.73,1.92,1.01c0.72,0.28,1.5,0.56,2.34,0.84l3.07,1.05
		c1.12,0.37,2.17,0.81,3.17,1.32c1,0.51,1.86,1.15,2.58,1.92c0.72,0.77,1.3,1.7,1.75,2.79c0.44,1.09,0.66,2.41,0.66,3.94
		c0,1.72-0.35,3.29-1.05,4.71c-0.7,1.42-1.69,2.63-2.97,3.63c-1.28,1-2.83,1.78-4.64,2.34c-1.81,0.56-3.81,0.84-6,0.84
		c-2.23,0-4.19-0.15-5.86-0.45c-1.67-0.3-3.23-0.71-4.68-1.22c0.09-0.93,0.29-1.87,0.59-2.83
		C389.75,46.38,390.09,45.44,390.46,44.51z"/>
</g>
</svg>
