<?xml version="1.0" encoding="utf-8"?>
<!-- Generator: Adobe Illustrator 24.0.1, SVG Export Plug-In . SVG Version: 6.00 Build 0)  -->
<svg version="1.1" xmlns="http://www.w3.org/2000/svg" xmlns:xlink="http://www.w3.org/1999/xlink" x="0px" y="0px"
	 viewBox="0 0 672 218" style="enable-background:new 0 0 672 218;" xml:space="preserve">
<style type="text/css">
	.st0{fill:#FFFFFF;}
</style>
<g>
	<path class="st0" d="M36.6,193.1c20.1,0,36.4-5.3,36.4-11.8c0-6.4-16.3-11.6-36.4-11.5c-20.1,0-36.4,5.3-36.4,11.8
		C0.2,187.9,16.5,193.2,36.6,193.1"/>
	<path class="st0" d="M55.8,79.2c13.2,0,24-3.4,24-7.7c0-4.2-10.8-7.6-24-7.6c-13.3,0-24.2,3.6-24,7.7
		C31.8,75.8,42.5,79.2,55.8,79.2"/>
	<path class="st0" d="M35.2,128.8c15.3,0,27.6-3.9,27.6-8.8c0-4.8-12.2-8.8-27.6-8.8c-15.2,0-27.4,4-27.4,8.8
		C7.8,124.8,20,128.8,35.2,128.8"/>
	<path class="st0" d="M89.3,41.6c10.2,0,18.6-2.3,18.6-5.3c0-3.1-8.4-5.4-18.6-5.4c-10.2,0-18.4,2.3-18.6,5.3
		C70.7,39.1,79,41.6,89.3,41.6"/>
	<path class="st0" d="M139.6,10.9c-7.9,0-14.3,1.7-14.3,3.7c0,2,6.3,3.7,14.3,3.7c7.9,0,14.2-1.7,14.2-3.7
		C153.8,12.6,147.5,10.9,139.6,10.9"/>
	<path class="st0" d="M185.4,5.2c5.7,0.2,10.4-0.9,10.4-2.3c0-1.2-4.6-2.3-10.2-2.3c-5.7,0-10.4,0.9-10.4,2.3
		C175.2,4.1,179.9,5.2,185.4,5.2"/>
	<path class="st0" d="M230.5,113.8h5.7c6.5,0,15.8-1.9,15.8-13c0-10.8-6.3-13.9-14.7-13.9c-6.8,0-6.8,1.9-6.8,9.1V113.8z
		 M219.5,95.8c0-9.9-0.3-9.9-9.6-11.5v-2.1h24.8c7.4,0,28.4,0,28.4,18c0,11.3-7.4,15.2-15.3,16.4l18.4,33.1h-11.6l-17.8-31.3h-6.2
		v31.3h-11V95.8z"/>
	<path class="st0" d="M293.5,147.4c9.9,0,10.7-11,10.7-21.1c0-9.1-0.9-20.9-10.7-20.9c-9.9,0-10.7,12.1-10.7,20.9
		C282.9,134.7,283.6,147.4,293.5,147.4 M271.8,126.3c0-16.7,7-24.3,21.7-24.3c14.6,0,21.7,9.9,21.7,24.3c0,16.4-6.8,24.5-21.7,24.5
		C277.3,150.8,271.8,140.4,271.8,126.3"/>
	<path class="st0" d="M344.6,147.4c9.8,0,10.7-11,10.7-21.1c0-9.1-0.9-20.9-10.7-20.9c-9.9,0-10.5,12.1-10.5,20.9
		C334.1,134.7,334.7,147.4,344.6,147.4 M322.9,126.3c0-16.7,7.1-24.3,21.7-24.3c14.6,0,21.7,9.9,21.7,24.3
		c0,16.4-6.8,24.5-21.7,24.5C328.5,150.8,322.9,140.4,322.9,126.3"/>
	<path class="st0" d="M403.2,111.1c-1.5-1.1-6.3-4.8-11.9-4.8c-3.3,0-7.1,1.1-7.1,5.4c0,9.6,22,9.7,22,25.2
		c0,9.8-8.1,13.8-18.1,13.8c-6,0-10.5-1.1-12.8-1.7v-7.9c2.9,2,7.7,5.3,13.3,5.3c6.3,0,8.7-3.3,8.7-6.8c0-9.8-22-10.4-22-24.3
		c0-7.3,4.8-13.3,16.7-13.3c5.1,0,9.6,1.2,11.3,1.7V111.1z"/>
	<path class="st0" d="M443,117c0-2.3-0.1-11.6-9-11.6c-7.4,0-9.6,7.7-9.6,11.6H443z M452.1,148.1c-1.8,0.6-7.3,2.6-14.1,2.6
		c-15.5,0-24.8-9.3-24.8-26.2c0-15.8,7.7-22.6,21.2-22.6c17.2,0,18.6,12.2,18.6,19.1h-28.7c0,10.1,4.2,24.3,18.3,24.3
		c4.2,0,7.7-0.9,9.4-1.7V148.1z"/>
	<path class="st0" d="M464,115.9c0-7-1.7-8.5-8.1-8.7v-2l18.1-3.2v12.7h0.2c1.5-3.6,6.8-12.7,16.9-12.7c9.1,0,12.1,6.2,12.1,13.9
		v33.8h-10.1v-26c0-7.9,0-15-6.6-15c-6.7,0-12.4,9.3-12.4,16.6v24.5H464V115.9z"/>
	<path class="st0" d="M546.3,123.4c0-5.6-1.1-16-10.7-16c-9.3,0-10.2,11.5-10.2,18.4c0,7.7,0.9,19.5,10.4,19.5
		c9.6,0,10.5-12.5,10.5-17.8V123.4z M546.3,144.1c-2.5,2.3-6.7,6.6-13.9,6.6c-13,0-18-10.8-18-23.5c0-12.7,5.1-25.3,18.4-25.3
		c8.2,0,11.3,4.2,13.3,7.4h0.2V93.2c0-7.3-1.7-9-7.6-9.3v-2l17.7-2.5v70.3h-10.1V144.1z"/>
	<path class="st0" d="M592.6,127.4c-3.6,0.2-15.3,0.6-15.3,10.2c0,4.5,2.3,7.7,6,7.7c5.9,0,9.3-5.3,9.3-12.1V127.4z M592.6,143.8
		c-1.7,2.2-5.1,7-12.9,7c-7.9,0-13.5-5.6-13.5-11.5c0-14.2,20-15.3,26.3-15.5v-5.2c0-6.4,0-13.2-6.4-13.2c-6.5,0-7,5.7-7,10.1h-11.9
		c1.1-6.7,4.3-13.5,18.9-13.5c14.3,0,16.4,7.1,16.4,17.2v30.5h-10.1V143.8z"/>
	<path class="st0" d="M638.3,127.4c-3.7,0.2-15.5,0.6-15.5,10.2c0,4.5,2.3,7.7,6,7.7c5.9,0,9.5-5.3,9.5-12.1V127.4z M638.3,143.8
		c-1.9,2.2-5.3,7-13,7c-7.9,0-13.5-5.6-13.5-11.5c0-14.2,20-15.3,26.5-15.5v-5.2c0-6.4,0-13.2-6.4-13.2c-6.6,0-7.1,5.7-7.1,10.1
		h-11.9c1.1-6.7,4.5-13.5,18.9-13.5c14.4,0,16.6,7.1,16.6,17.2v30.5h-10.1V143.8z"/>
	<path class="st0" d="M661.9,93.2c0-7.3-1.7-9-7.6-9.3v-2l17.7-2.5v70.3h-10.1V93.2z"/>
	<path class="st0" d="M142.1,217.5C23.9,65.3,218.6,3.2,218.6,3.2S14.8,61.3,123.5,217.5H142.1z"/>
	<path class="st0" d="M311.8,74.4c-2.3,0.8-7.3,2.1-12.1,2.1c-11.8,0-15.5-7.4-15.5-19.2c0-10.7,3.4-18.1,15.2-18.1
		c8,0,11.5,3.7,11.9,8.1h-6.5c-0.2-2-1.5-5.6-6.2-5.6c-7.6,0-8.4,9.1-8.4,16.1c0,8.8,2.2,16.3,10.5,16.3c2.2,0,3.5-0.3,5.1-0.9V62.3
		c0-4.9-0.8-4.8-5.4-5.7v-1.1h11.3V74.4z"/>
	<path class="st0" d="M334,58.6c0-1.2-0.2-6.3-4.8-6.3c-4,0-5.1,4.3-5.1,6.3H334z M338.9,75.2c-1.1,0.3-3.9,1.4-7.6,1.4
		c-8.4,0-13.2-4.9-13.2-13.9c0-8.5,4-12.2,11.2-12.2c9.3,0,10.1,6.6,10.1,10.4H324c0,5.3,2.2,13,9.7,13c2.2,0,4.2-0.6,5.1-0.9V75.2z
		"/>
	<path class="st0" d="M344.8,58c0-3.7-0.9-4.6-4-4.8v-1.1l9.5-1.7v6.5h0.2c0.9-1.8,3.4-6.5,8.2-6.5c5,0,6.2,3.7,6.7,6
		c1.2-2,3.2-6,8-6c6.8,0,6.8,6.3,6.8,10.1v15.6h-5.4V61.4c0-3.4,0-7.3-3.6-7.3c-4,0-6,5.6-6,9.5v12.5h-5.3V62.2c0-4.3,0-8.1-3.7-8.1
		c-3.7,0-6,5-6,8.8v13.2h-5.2V58z"/>
	<path class="st0" d="M401.5,58.6c0-1.2-0.1-6.3-4.8-6.3c-4,0-5.1,4.3-5.1,6.3H401.5z M406.4,75.2c-1.1,0.3-3.9,1.4-7.6,1.4
		c-8.2,0-13.2-4.9-13.2-13.9c0-8.5,4-12.2,11.3-12.2c9.1,0,9.9,6.6,9.9,10.4h-15.3c0,5.3,2.2,13,9.8,13c2.3,0,4.2-0.6,5.1-0.9V75.2z
		"/>
	<path class="st0" d="M425.8,58.6c0-1.2,0-6.3-4.8-6.3c-4,0-5.1,4.3-5.1,6.3H425.8z M430.7,75.2c-1.1,0.3-3.9,1.4-7.6,1.4
		c-8.2,0-13.2-4.9-13.2-13.9c0-8.5,4-12.2,11.3-12.2c9.1,0,9.9,6.6,9.9,10.4h-15.3c0,5.3,2.2,13,9.8,13c2.3,0,4.2-0.6,5.1-0.9V75.2z
		"/>
	<path class="st0" d="M437.1,58c0-3.7-0.9-4.6-4.3-4.8v-1.1l9.8-1.7v7c0.8-1.9,3.7-7,9-7c5,0,6.5,3.5,6.5,7.6v18.1h-5.3V62.2
		c0-4.3,0-8.1-3.7-8.1c-3.5,0-6.5,5-6.5,8.8v13.2h-5.4V58z"/>
	<path class="st0" d="M478.9,76.3c-1.2,0.2-2.5,0.3-3.6,0.3c-5.3,0-8.2-0.8-8.2-6.8V53.2h-4.2V51h4.2v-4.2l5.4-4.8v9h7v2.2h-7v15.6
		c0,3.7,0.1,5.4,4.3,5.4c0.6,0,1.4,0,2-0.2V76.3z"/>
	<path class="st0" d="M497.9,58.6c0-1.2-0.2-6.3-4.8-6.3c-4,0-5.1,4.3-5.1,6.3H497.9z M502.8,75.2c-0.9,0.3-3.9,1.4-7.6,1.4
		c-8.2,0-13.2-4.9-13.2-13.9c0-8.5,4.2-12.2,11.3-12.2c9.3,0,9.9,6.6,9.9,10.4H488c0,5.3,2.1,13,9.7,13c2.2,0,4-0.6,5-0.9V75.2z"/>
</g>
</svg>
