<?xml version="1.0" encoding="utf-8"?>
<!-- Generator: Adobe Illustrator 26.5.0, SVG Export Plug-In . SVG Version: 6.00 Build 0)  -->
<svg version="1.1" id="Laag_1" xmlns="http://www.w3.org/2000/svg" xmlns:xlink="http://www.w3.org/1999/xlink" x="0px" y="0px"
	 viewBox="0 0 858 297" style="enable-background:new 0 0 858 297;" xml:space="preserve">
<style type="text/css">
	.st0{fill:#FFFFFF;}
</style>
<g>
	<path class="st0" d="M230.1,178.7h-34.9v-1.9h1.2c3.7-0.6,6.8-1.2,8.1-2.5c1.2-1.2,2.5-3.7,2.5-6.8V88.4L171.6,99v67.9
		c0,3.1,0.6,5.6,2.5,6.8c1.2,1.2,4.4,2.5,8.1,2.5h1.9v1.9h-35.5v-1.9h1.9c3.7-0.6,6.8-1.2,8.1-2.5c1.2-1.2,2.5-3.7,2.5-6.8V99
		l-35.5-10.6v79.1c0,3.1,0.6,5.6,2.5,6.8c1.2,1.2,4.4,2.5,8.1,2.5h1.9v1.9h-35.5v-1.9h1.9c3.7-0.6,6.8-1.2,8.1-2.5
		c1.2-1.2,2.5-3.7,2.5-6.8V89.6c0-3.1-0.6-5.6-2.5-6.8c-1.9-1.2-4.4-2.5-8.1-2.5h-1.9v-2.5h2.5c3.7,0.6,6.8,0.6,8.1,1.2
		c3.1,0.6,8.1,1.9,14.3,3.7L166,94.6l38.6-11.8c5.6-1.9,10-3.1,13.1-3.7c3.7,0,6.8-0.6,10-1.2h2.5v1.9h-1.9
		c-3.7,0.6-6.8,1.2-8.1,2.5c-1.2,1.2-2.5,3.7-2.5,6.8v77.8c0,3.1,0.6,5.6,2.5,6.8c1.2,1.2,4.4,2.5,8.1,2.5h1.9V178.7z"/>
	<path class="st0" d="M261.9,178.7v-1.9h1.9c4.4-0.6,7.5-1.2,9.3-3.1c1.9-1.2,3.7-5,5.6-10.6l33-86.5h1.9l38.6,90.3
		c1.9,3.7,3.1,6.2,5,7.5c1.9,1.2,5,1.9,9.3,2.5h1.9v1.9h-41.1v-1.9h1.9c3.1-0.6,6.2-1.2,8.1-1.9c2.5-1.2,3.7-2.5,3.7-5
		c0-1.2,0-1.9-0.6-3.1l-29.9-69.1l-26.1,67.9c-0.6,1.2-0.6,2.5-0.6,3.7c0,2.5,1.2,4.4,3.1,5.6c1.9,1.2,5,1.9,8.7,2.5h1.9v1.9h-35.5
		V178.7z"/>
	<path class="st0" d="M461.1,153.2c0,6.8-3.1,13.7-10,19.3s-14.9,8.1-24.9,8.1c-5,0-10.6-0.6-15.6-2.5s-7.5-3.1-8.7-3.1l-3.1-20.5
		h2.5c1.9,8.1,4.4,13.7,8.7,16.8c3.7,3.7,9.3,5,16.8,5c6.8,0,12.5-1.9,16.8-5c4.4-3.1,6.8-8.1,6.8-13.7c0-6.2-1.9-11.2-6.2-15.6
		c-3.7-3.7-10.6-8.7-19.9-14.3c-6.8-3.7-12.5-7.5-15.6-11.2c-4.4-5-6.8-10-6.8-14.9c0-7.5,2.5-13.7,7.5-18.1
		c5-4.4,11.8-6.8,20.5-6.8c4.4,0,8.1,0.6,13.1,2.5c4.4,1.2,8.1,2.5,11.2,2.5l2.5,14.9h-1.2c-2.5-6.2-6.2-10.6-11.8-13.1
		c-3.7-1.9-8.7-2.5-14.3-2.5c-5,0-9.3,1.2-12.5,4.4c-3.1,3.1-5,6.8-5,11.8c0,3.7,1.2,6.8,3.7,10c2.5,3.1,8.1,6.8,16.8,11.8
		c10,5.6,17.4,10.6,21.2,14.3C458,138.8,461.1,145.7,461.1,153.2"/>
	<path class="st0" d="M615.5,127c0,14.3-5.6,27.4-16.2,38c-11.2,10.6-24.9,16.2-41.1,16.2s-29.9-4.4-40.5-13.7
		c-11.2-9.3-16.8-21.8-16.8-36.7c0-14.3,5.6-27.4,16.2-37.4c11.2-10.6,24.9-16.2,41.1-16.2s29.9,4.4,41.1,13.7
		C609.9,99.6,615.5,111.4,615.5,127 M604.3,128.2c-1.2-13.7-6.8-24.3-15.6-33.6c-9.3-9.3-21.2-13.7-35.5-13.7
		c-12.5,0-22.4,3.7-29.9,11.8s-11.2,18.1-11.2,29.9v2.5c0,1.2,0.6,2.5,0.6,2.5c1.2,13.7,6.8,24.3,15.6,33.6
		c9.3,9.3,21.2,13.7,35.5,13.7c12.5,0,22.4-3.7,29.9-11.8c7.5-8.1,11.2-18.1,11.2-29.9v-2.5C604.3,129.5,604.3,128.9,604.3,128.2"/>
	<path class="st0" d="M753.8,178.7h-34.9v-1.9h1.9c3.7-0.6,6.8-1.2,8.1-2.5c1.2-1.2,2.5-3.7,2.5-6.8V84.7h-51.1v82.2
		c0,3.1,0.6,5.6,2.5,6.8c1.2,1.2,4.4,2.5,8.1,2.5h1.9v1.9h-34.9v-1.9h1.9c3.7-0.6,6.8-1.2,8.1-2.5c1.2-1.2,2.5-3.7,2.5-6.8V89.6
		c0-3.1-0.6-5.6-2.5-6.8c-1.2-1.2-4.4-2.5-8.1-2.5h-1.9v-2.5h2.5l12.5,0.6h67.9l12.5-0.6h2.5v1.9h-1.9c-3.7,0.6-6.8,1.2-8.1,2.5
		c-1.2,1.2-2.5,3.7-2.5,6.8v77.8c0,3.1,0.6,5.6,2.5,6.8c1.2,1.2,4.4,2.5,8.1,2.5h1.9v2.5H753.8z"/>
	<path class="st0" d="M224.5,239.7c0,1.2,0,1.2-0.6,1.2c-2.5,1.2-5.6,1.9-8.1,1.9c-8.7,0-16.2-3.7-16.2-13.7c0-5.6,3.1-9.3,6.2-11.2
		c3.1-1.9,6.2-2.5,9.3-2.5c2.5,0,5.6,0.6,6.2,0.6s1.9,0.6,2.5,0.6s0.6,0,0.6,0.6s0,1.2,0,5.6c0,0.6,0,0.6-0.6,0.6c0,0-0.6,0-0.6-0.6
		s0-1.9-1.2-3.1s-3.7-2.5-7.5-2.5c-1.9,0-4.4,0-6.8,1.9c-1.9,1.9-3.1,4.4-3.1,8.7c0,7.5,5,13.1,11.8,13.1c0.6,0,1.9,0,3.1-0.6
		c0.6,0,0.6-0.6,0.6-1.2V236c0-1.9,0-3.1,0-4.4c0-1.2-0.6-1.9-1.2-1.9c0,0-0.6,0-1.2,0s-0.6,0-0.6,0s0-0.6,0.6-0.6c1.9,0,3.7,0,5,0
		s3.1,0,4.4,0c0.6,0,0.6,0,0.6,0.6c0,0,0,0-0.6,0c0,0-0.6,0-1.2,0c-1.2,0-1.2,0.6-1.2,1.9c0,1.2,0,2.5,0,4.4
		C224.5,236,224.5,239.7,224.5,239.7z"/>
	<path class="st0" d="M270.6,232.8L270.6,232.8l-2.5,5c-0.6,0.6-0.6,1.9-0.6,1.9c0,0.6,0.6,1.2,1.2,1.2h0.6c0.6,0,0.6,0,0.6,0
		s0,0.6-0.6,0.6c-1.2,0-2.5,0-3.7,0c-0.6,0-2.5,0-4.4,0c-0.6,0-0.6,0-0.6-0.6c0,0,0,0,0.6,0s0.6,0,1.2,0c1.9,0,2.5-1.2,3.1-3.1
		l8.7-21.8c0.6-1.2,0.6-1.2,1.2-1.2s0.6,0.6,0.6,1.2c0.6,1.9,6.2,15.6,8.7,21.2c1.2,3.1,2.5,3.7,3.1,3.7s1.2,0,1.2,0h0.6
		c0,0-0.6,0.6-1.9,0.6s-3.7,0-6.8,0c-0.6,0-1.2,0-1.2,0s0,0,0.6-0.6l0.6-0.6l-2.5-7.5c0,0,0,0-0.6,0
		C278.1,232.8,270.6,232.8,270.6,232.8z M277.5,231C278.1,231,278.1,231,277.5,231l-3.1-8.7v-0.6c0,0,0,0,0,0.6l-3.1,8.7l0,0H277.5z
		"/>
	<path class="st0" d="M328.5,225.4c0-5,0-6.2,0-7.5c0-1.2-0.6-1.9-1.2-1.9c0,0-0.6,0-1.2,0s-0.6,0-0.6-0.6c0,0,0-0.6,0.6-0.6
		c1.9,0,3.7,0,5,0s3.7,0,5,0c2.5,0,4.4,0,6.2,1.2c1.2,0.6,2.5,2.5,2.5,5s-1.2,5-4.4,8.1c3.1,3.7,5.6,6.8,7.5,9.3
		c1.9,1.9,3.1,2.5,3.7,2.5c0.6,0,0.6,0,1.2,0h0.6c0,0,0,0.6-0.6,0.6h-3.1c-1.9,0-3.1,0-3.7-0.6c-1.2-0.6-3.1-2.5-5-5
		c-1.2-1.9-3.1-4.4-3.7-5h-0.6h-3.1l0,0v0.6c0,3.1,0,6.2,0,7.5c0,1.2,0.6,1.9,1.2,1.9s1.2,0,1.9,0h0.6c0,0,0,0.6-0.6,0.6
		c-1.9,0-4.4,0-5,0c-0.6,0-3.1,0-4.4,0c-0.6,0-0.6,0-0.6-0.6c0,0,0,0,0.6,0c0.6,0,1.2,0,1.2,0c0.6,0,0.6-0.6,1.2-1.9
		c0-1.2,0-4.4,0-7.5v-6.2H328.5z M332.2,228.5c0,0.6,0,0.6,0.6,0.6c0.6,0,1.9,0.6,2.5,0.6c1.2,0,1.9,0,2.5-0.6
		c1.2-0.6,1.9-2.5,1.9-5c0-5-3.1-6.2-5.6-6.2c-0.6,0-1.2,0-1.9,0c0,0-0.6,0-0.6,0.6v10H332.2z"/>
	<path class="st0" d="M390.8,216c0-0.6,0.6-0.6,0.6-0.6s0.6,0,1.2,1.2L402,236l9.3-19.3c0-0.6,0.6-0.6,0.6-0.6
		c0.6,0,0.6,0.6,0.6,1.2l3.1,21.2c0.6,2.5,0.6,3.1,1.9,3.7s1.9,0.6,1.9,0.6c0.6,0,0.6,0,0.6,0l-0.6,0.6c-0.6,0-5.6,0-6.8,0
		c-0.6,0-1.2,0-1.2-0.6c0,0,0,0,0.6-0.6c0,0,0.6-0.6,0-1.2l-1.9-14.9l0,0l-8.1,13.7c-0.6,1.9-1.2,1.9-1.2,1.9
		c-0.6,0-0.6-0.6-1.2-1.9c-0.6-1.9-3.7-6.8-3.7-8.1c-0.6-0.6-2.5-5-3.7-7.5l0,0l-2.5,14.3c0,0.6,0,1.2,0,1.9c0,0.6,0.6,1.2,1.2,1.2
		s1.2,0,1.2,0h0.6c0,0.6-0.6,0.6-0.6,0.6c-1.2,0-3.1,0-3.7,0c-0.6,0-2.5,0-3.7,0c-0.6,0-0.6,0-0.6-0.6c0,0,0,0,0.6,0
		c0,0,0.6,0,1.2,0c1.2,0,1.2-1.9,1.2-2.5L390.8,216z"/>
	<path class="st0" d="M460.5,225.4c0-5,0-6.2,0-7.5c0-1.2-0.6-1.9-1.2-1.9c0,0-0.6,0-1.2,0c-0.6,0-0.6,0-0.6-0.6c0,0,0-0.6,0.6-0.6
		c1.2,0,1.9,0,3.1,0c0.6,0,1.9,0,2.5,0c1.2,0,8.1,0,8.7,0s1.2,0,1.2,0h0.6c0,0,0,0,0,0.6c0,0,0,0.6,0,2.5c0,0.6,0,1.9,0,2.5
		c0,0,0,0.6-0.6,0.6c0,0-0.6,0-0.6-0.6c0,0,0-0.6,0-1.2c0-0.6-0.6-1.2-2.5-1.2c-0.6,0-4.4,0-5,0c0,0,0,0,0,0.6v8.7v0.6
		c0.6,0,5,0,5.6,0s1.2,0,1.9-0.6l0.6-0.6l0,0c0,0,0,0.6,0,2.5c0,0.6,0,1.9,0,2.5c0,0,0,0.6-0.6,0.6c0,0-0.6,0-0.6-0.6s0-0.6,0-1.2
		s-0.6-1.2-1.9-1.2c-0.6,0-4.4,0-5,0c0,0,0,0,0,0.6v2.5c0,1.2,0,4.4,0,5.6c0,2.5,0.6,3.1,4.4,3.1c0.6,0,2.5,0,3.1-0.6
		c0.6-0.6,1.2-1.2,1.9-2.5c0-0.6,0-0.6,0.6-0.6c0,0,0,0,0,0.6s0,3.1-0.6,3.7c0,0.6-0.6,0.6-1.9,0.6c-2.5,0-4.4,0-6.2,0
		c-1.2,0-2.5,0-3.7,0c-0.6,0-1.2,0-1.9,0c-0.6,0-1.9,0-2.5,0c-0.6,0-0.6,0-0.6-0.6c0,0,0,0,0.6,0c0.6,0,1.2,0,1.2,0
		c0.6,0,0.6-0.6,1.2-1.9c0-1.2,0-4.4,0-7.5v-6.8H460.5z"/>
	<path class="st0" d="M519,237.2c0,2.5,0.6,3.7,1.2,3.7s1.2,0,1.9,0s0.6,0,0.6,0l-0.6,0.6c-2.5,0-3.7,0-4.4,0s-1.9,0-3.7,0
		c-0.6,0-0.6,0-0.6-0.6c0,0,0,0,0.6,0c0.6,0,1.2,0,1.9,0s1.2-1.2,1.2-4.4l0.6-20.5c0-0.6,0-1.2,0.6-1.2c0.6,0,0.6,0.6,1.2,1.2
		c0.6,0.6,5.6,6.2,10.6,11.2c2.5,2.5,6.8,7.5,7.5,8.1l0,0l-0.6-15.6c0-1.9-0.6-2.5-1.2-3.1c-0.6,0-1.2,0-1.9,0c-0.6,0-0.6,0-0.6-0.6
		l0.6-0.6c1.9,0,3.7,0,4.4,0c0.6,0,1.9,0,3.1,0c0.6,0,0.6,0,0.6,0.6c0,0,0,0.6-0.6,0.6s-0.6,0-1.2,0c-1.2,0-1.2,1.2-1.2,3.1v21.2
		c0,0.6,0,1.2-0.6,1.2c-0.6,0-0.6-0.6-1.2-0.6c-2.5-1.9-6.8-6.8-10-10c-3.7-3.7-7.5-8.1-8.1-8.7l0,0V237.2z"/>
	<path class="st0" d="M589.4,217.3h-5c-1.9,0-3.1,0-3.1,1.2c-0.6,0.6-0.6,1.2-0.6,1.2s0,0.6-0.6,0.6c0,0-0.6,0-0.6-0.6
		s0.6-3.7,0.6-3.7c0-0.6,0-0.6,0.6-0.6c0,0,0.6,0.6,1.2,0.6c1.2,0,2.5,0,3.7,0h13.7c1.2,0,1.9,0,2.5,0s0.6,0,1.2,0c0,0,0,0,0,0.6
		s0,3.1,0,3.7s0,0.6-0.6,0.6c0,0-0.6,0-0.6-0.6v-0.6c0-0.6-1.2-1.9-4.4-1.9h-4.4v14.3c0,3.1,0,6.2,0,7.5c0,1.2,0.6,1.9,1.2,1.9
		s1.2,0,1.9,0c0.6,0,0.6,0,0.6,0s0,0.6-0.6,0.6c-2.5,0-4.4,0-5.6,0c-0.6,0-3.1,0-4.4,0c-0.6,0-0.6,0-0.6-0.6c0,0,0,0,0.6,0
		s1.2,0,1.2,0c0.6,0,0.6-0.6,1.2-1.9c0-1.2,0-4.4,0-7.5v-14.9H589.4z"/>
	<path class="st0" d="M642.3,241.6c-0.6,0-0.6-0.6-0.6-1.2c0-1.9,0-3.7,0-4.4s0-0.6,0.6-0.6c0.6,0,0.6,0.6,0.6,0.6
		c0,0.6,0,1.2,0.6,1.9c0.6,2.5,3.1,3.7,5,3.7c3.1,0,4.4-1.9,4.4-3.7c0-1.9-0.6-3.1-3.1-5.6l-1.9-1.2c-3.7-3.1-5-5.6-5-8.1
		c0-3.7,3.1-6.8,8.1-6.8c2.5,0,3.7,0.6,4.4,0.6s0.6,0,0.6,0.6c0,0.6,0,1.2,0,4.4c0,0.6,0,1.2-0.6,1.2c0,0-0.6,0-0.6-0.6
		s0-1.2-0.6-2.5c-0.6-0.6-1.2-1.9-3.7-1.9s-4.4,1.2-4.4,3.7c0,1.9,0.6,3.1,3.7,5l1.2,0.6c4.4,3.1,5.6,5.6,5.6,8.7
		c0,1.9-0.6,4.4-3.1,6.2c-1.9,1.2-3.7,1.2-5.6,1.2C645.4,242.2,643.6,242.2,642.3,241.6"/>
	<path class="st0" d="M788,82.8c0,6.2-5,11.2-11.2,11.2c-6.2,0-11.2-5-11.2-11.2s5-11.2,11.2-11.2C783,72.2,788,76.6,788,82.8
		 M768.1,82.8c0,5,3.7,8.7,8.7,8.7c5,0,8.7-3.7,8.7-8.7s-3.7-8.7-8.7-8.7C771.8,74.1,768.1,78.4,768.1,82.8 M774.9,89h-2.5V77.8
		c1.2,0,2.5-0.6,4.4-0.6s3.1,0.6,3.7,0.6c0.6,0.6,1.2,1.2,1.2,2.5s-1.2,1.9-2.5,2.5l0,0c1.2,0.6,1.9,1.2,1.9,2.5
		c0.6,1.9,0.6,2.5,0.6,2.5h-2.5c-0.6-0.6-0.6-1.2-0.6-2.5s-0.6-1.9-2.5-1.9h-1.2C774.9,83.4,774.9,89,774.9,89z M774.9,82.8h1.2
		c1.2,0,2.5-0.6,2.5-1.9c0-1.2-0.6-1.9-2.5-1.9c-0.6,0-1.2,0-1.2,0V82.8z"/>
</g>
</svg>
