<?xml version="1.0" encoding="utf-8"?>
<!-- Generator: Adobe Illustrator 26.5.0, SVG Export Plug-In . SVG Version: 6.00 Build 0)  -->
<svg version="1.1" id="Stripelight-logo" xmlns="http://www.w3.org/2000/svg" xmlns:xlink="http://www.w3.org/1999/xlink" x="0px"
	 y="0px" viewBox="0 0 145.7 31.7" style="enable-background:new 0 0 145.7 31.7;" xml:space="preserve">
<style type="text/css">
	.st0{fill:#FFFFFF;}
</style>
<g>
	<path class="st0" d="M21.4,19.1h-5.6l0-0.3H16c0.6-0.1,1.1-0.2,1.3-0.4c0.2-0.2,0.4-0.6,0.4-1.1V4.6L12,6.3v10.9
		c0,0.5,0.1,0.9,0.4,1.1c0.2,0.2,0.7,0.4,1.3,0.4h0.3v0.3H8.3l0-0.3h0.3c0.6-0.1,1.1-0.2,1.3-0.4c0.2-0.2,0.4-0.6,0.4-1.1V6.3
		L4.6,4.6v12.7c0,0.5,0.1,0.9,0.4,1.1c0.2,0.2,0.7,0.4,1.3,0.4h0.3l0,0.3H0.9l0-0.3h0.3c0.6-0.1,1.1-0.2,1.3-0.4
		c0.2-0.2,0.4-0.6,0.4-1.1V4.8c0-0.5-0.1-0.9-0.4-1.1C2.2,3.5,1.8,3.3,1.2,3.3H0.9l0-0.4l0.4,0C1.9,3,2.4,3,2.6,3.1
		c0.5,0.1,1.3,0.3,2.3,0.6l6.2,1.9l6.2-1.9c0.9-0.3,1.6-0.5,2.1-0.6C20,3.1,20.5,3,21,2.9h0.4l0,0.3h-0.3c-0.6,0.1-1.1,0.2-1.3,0.4
		c-0.2,0.2-0.4,0.6-0.4,1.1v12.5c0,0.5,0.1,0.9,0.4,1.1c0.2,0.2,0.7,0.4,1.3,0.4h0.3V19.1z"/>
	<path class="st0" d="M26.5,19.1l0-0.3h0.3c0.7-0.1,1.2-0.2,1.5-0.5c0.3-0.2,0.6-0.8,0.9-1.7l5.3-13.9h0.3l6.2,14.5
		c0.3,0.6,0.5,1,0.8,1.2c0.3,0.2,0.8,0.3,1.5,0.4h0.3l0,0.3l-6.6,0l0-0.3h0.3c0.5-0.1,1-0.2,1.3-0.3c0.4-0.2,0.6-0.4,0.6-0.8
		c0-0.2,0-0.3-0.1-0.5L34.3,6.1L30.1,17C30,17.2,30,17.4,30,17.6c0,0.4,0.2,0.7,0.5,0.9c0.3,0.2,0.8,0.3,1.4,0.4h0.3v0.3H26.5z"/>
	<path class="st0" d="M58.5,15c0,1.1-0.5,2.2-1.6,3.1c-1.1,0.9-2.4,1.3-4,1.3c-0.8,0-1.7-0.1-2.5-0.4c-0.8-0.3-1.2-0.5-1.4-0.5
		l-0.5-3.3h0.4c0.3,1.3,0.7,2.2,1.4,2.7c0.6,0.6,1.5,0.8,2.7,0.8c1.1,0,2-0.3,2.7-0.8c0.7-0.5,1.1-1.3,1.1-2.2c0-1-0.3-1.8-1-2.5
		c-0.6-0.6-1.7-1.4-3.2-2.3c-1.1-0.6-2-1.2-2.5-1.8c-0.7-0.8-1.1-1.6-1.1-2.4c0-1.2,0.4-2.2,1.2-2.9c0.8-0.7,1.9-1.1,3.3-1.1
		c0.7,0,1.3,0.1,2.1,0.4c0.7,0.2,1.3,0.4,1.8,0.4l0.4,2.4h-0.2c-0.4-1-1-1.7-1.9-2.1c-0.6-0.3-1.4-0.4-2.3-0.4c-0.8,0-1.5,0.2-2,0.7
		c-0.5,0.5-0.8,1.1-0.8,1.9c0,0.6,0.2,1.1,0.6,1.6c0.4,0.5,1.3,1.1,2.7,1.9c1.6,0.9,2.8,1.7,3.4,2.3C58,12.7,58.5,13.8,58.5,15"/>
	<path class="st0" d="M83.3,10.8c0,2.3-0.9,4.4-2.6,6.1c-1.8,1.7-4,2.6-6.6,2.6c-2.6,0-4.8-0.7-6.5-2.2c-1.8-1.5-2.7-3.5-2.7-5.9
		c0-2.3,0.9-4.4,2.6-6c1.8-1.7,4-2.6,6.6-2.6c2.6,0,4.8,0.7,6.6,2.2C82.4,6.4,83.3,8.3,83.3,10.8 M81.5,11c-0.2-2.2-1.1-3.9-2.5-5.4
		c-1.5-1.5-3.4-2.2-5.7-2.2c-2,0-3.6,0.6-4.8,1.9c-1.2,1.3-1.8,2.9-1.8,4.8v0.4c0,0.2,0.1,0.4,0.1,0.4c0.2,2.2,1.1,3.9,2.5,5.4
		c1.5,1.5,3.4,2.2,5.7,2.2c2,0,3.6-0.6,4.8-1.9c1.2-1.3,1.8-2.9,1.8-4.8v-0.4C81.5,11.2,81.5,11.1,81.5,11"/>
	<path class="st0" d="M105.5,19.1l-5.6,0l0-0.3h0.3c0.6-0.1,1.1-0.2,1.3-0.4c0.2-0.2,0.4-0.6,0.4-1.1V4h-8.2v13.2
		c0,0.5,0.1,0.9,0.4,1.1c0.2,0.2,0.7,0.4,1.3,0.4h0.3v0.3l-5.6,0l0-0.3h0.3c0.6-0.1,1.1-0.2,1.3-0.4c0.2-0.2,0.4-0.6,0.4-1.1V4.8
		c0-0.5-0.1-0.9-0.4-1.1c-0.2-0.2-0.7-0.4-1.3-0.4h-0.3V2.9l0.4,0l2,0.1h10.9l2-0.1h0.4l0,0.3h-0.3c-0.6,0.1-1.1,0.2-1.3,0.4
		c-0.2,0.2-0.4,0.6-0.4,1.1v12.5c0,0.5,0.1,0.9,0.4,1.1c0.2,0.2,0.7,0.4,1.3,0.4h0.3V19.1z"/>
	<path class="st0" d="M20.5,28.9c0,0.2,0,0.2-0.1,0.2c-0.4,0.2-0.9,0.3-1.3,0.3c-1.4,0-2.6-0.6-2.6-2.2c0-0.9,0.5-1.5,1-1.8
		c0.5-0.3,1-0.4,1.5-0.4c0.4,0,0.9,0.1,1,0.1c0.1,0,0.3,0.1,0.4,0.1c0.1,0,0.1,0,0.1,0.1c0,0.1,0,0.2,0,0.9c0,0.1,0,0.1-0.1,0.1
		c0,0-0.1,0-0.1-0.1c0-0.1,0-0.3-0.2-0.5c-0.2-0.2-0.6-0.4-1.2-0.4c-0.3,0-0.7,0-1.1,0.3c-0.3,0.3-0.5,0.7-0.5,1.4
		c0,1.2,0.8,2.1,1.9,2.1c0.1,0,0.3,0,0.5-0.1c0.1,0,0.1-0.1,0.1-0.2v-0.5c0-0.3,0-0.5,0-0.7c0-0.2-0.1-0.3-0.2-0.3c0,0-0.1,0-0.2,0
		c-0.1,0-0.1,0-0.1,0c0,0,0-0.1,0.1-0.1c0.3,0,0.6,0,0.8,0c0.2,0,0.5,0,0.7,0c0.1,0,0.1,0,0.1,0.1c0,0,0,0-0.1,0c0,0-0.1,0-0.2,0
		c-0.2,0-0.2,0.1-0.2,0.3c0,0.2,0,0.4,0,0.7V28.9z"/>
	<path class="st0" d="M27.9,27.8C27.9,27.8,27.9,27.8,27.9,27.8l-0.4,0.8c-0.1,0.1-0.1,0.3-0.1,0.3c0,0.1,0.1,0.2,0.2,0.2h0.1
		c0.1,0,0.1,0,0.1,0c0,0,0,0.1-0.1,0.1c-0.2,0-0.4,0-0.6,0c-0.1,0-0.4,0-0.7,0c-0.1,0-0.1,0-0.1-0.1c0,0,0,0,0.1,0
		c0.1,0,0.1,0,0.2,0c0.3,0,0.4-0.2,0.5-0.5l1.4-3.5c0.1-0.2,0.1-0.2,0.2-0.2c0.1,0,0.1,0.1,0.1,0.2c0.1,0.3,1,2.5,1.4,3.4
		c0.2,0.5,0.4,0.6,0.5,0.6c0.1,0,0.2,0,0.2,0c0,0,0.1,0,0.1,0c0,0-0.1,0.1-0.3,0.1c-0.2,0-0.6,0-1.1,0c-0.1,0-0.2,0-0.2,0
		c0,0,0,0,0.1-0.1c0,0,0.1-0.1,0.1-0.1l-0.4-1.2c0,0,0,0-0.1,0H27.9z M29,27.5C29.1,27.5,29.1,27.5,29,27.5l-0.5-1.4
		c0,0,0-0.1,0-0.1c0,0,0,0,0,0.1L28,27.5c0,0,0,0,0,0H29z"/>
	<path class="st0" d="M37.2,26.6c0-0.8,0-1,0-1.2c0-0.2-0.1-0.3-0.2-0.3c0,0-0.1,0-0.2,0c-0.1,0-0.1,0-0.1-0.1c0,0,0-0.1,0.1-0.1
		c0.3,0,0.6,0,0.8,0c0.2,0,0.6,0,0.8,0c0.4,0,0.7,0,1,0.2c0.2,0.1,0.4,0.4,0.4,0.8c0,0.4-0.2,0.8-0.7,1.3c0.5,0.6,0.9,1.1,1.2,1.5
		c0.3,0.3,0.5,0.4,0.6,0.4c0.1,0,0.1,0,0.2,0c0,0,0.1,0,0.1,0c0,0,0,0.1-0.1,0.1h-0.5c-0.3,0-0.5,0-0.6-0.1
		c-0.2-0.1-0.5-0.4-0.8-0.8c-0.2-0.3-0.5-0.7-0.6-0.8c0,0-0.1,0-0.1,0l-0.5,0c0,0,0,0,0,0v0.1c0,0.5,0,1,0,1.2
		c0,0.2,0.1,0.3,0.2,0.3c0.1,0,0.2,0,0.3,0c0,0,0.1,0,0.1,0c0,0,0,0.1-0.1,0.1c-0.3,0-0.7,0-0.8,0c-0.1,0-0.5,0-0.7,0
		c-0.1,0-0.1,0-0.1-0.1c0,0,0,0,0.1,0c0.1,0,0.2,0,0.2,0c0.1,0,0.1-0.1,0.2-0.3c0-0.2,0-0.7,0-1.2V26.6z M37.8,27.1
		c0,0.1,0,0.1,0.1,0.1c0.1,0,0.3,0.1,0.4,0.1c0.2,0,0.3,0,0.4-0.1c0.2-0.1,0.3-0.4,0.3-0.8c0-0.8-0.5-1-0.9-1c-0.1,0-0.2,0-0.3,0
		c0,0-0.1,0-0.1,0.1V27.1z"/>
	<path class="st0" d="M47.2,25.1c0-0.1,0.1-0.1,0.1-0.1c0,0,0.1,0,0.2,0.2l1.5,3.1l1.5-3.1c0-0.1,0.1-0.1,0.1-0.1
		c0.1,0,0.1,0.1,0.1,0.2l0.5,3.4c0.1,0.4,0.1,0.5,0.3,0.6c0.2,0.1,0.3,0.1,0.3,0.1c0.1,0,0.1,0,0.1,0c0,0-0.1,0.1-0.1,0.1
		c-0.1,0-0.9,0-1.1,0c-0.1,0-0.2,0-0.2-0.1c0,0,0,0,0.1-0.1c0,0,0.1-0.1,0-0.2l-0.3-2.4h0L49,28.9c-0.1,0.3-0.2,0.3-0.2,0.3
		c-0.1,0-0.1-0.1-0.2-0.3c-0.1-0.3-0.6-1.1-0.6-1.3c-0.1-0.1-0.4-0.8-0.6-1.2h0L47,28.7c0,0.1,0,0.2,0,0.3c0,0.1,0.1,0.2,0.2,0.2
		c0.1,0,0.2,0,0.2,0c0,0,0.1,0,0.1,0c0,0.1-0.1,0.1-0.1,0.1c-0.2,0-0.5,0-0.6,0c-0.1,0-0.4,0-0.6,0c-0.1,0-0.1,0-0.1-0.1
		c0,0,0,0,0.1,0c0,0,0.1,0,0.2,0c0.2,0,0.2-0.3,0.2-0.4L47.2,25.1z"/>
	<path class="st0" d="M58.4,26.6c0-0.8,0-1,0-1.2c0-0.2-0.1-0.3-0.2-0.3c0,0-0.1,0-0.2,0c-0.1,0-0.1,0-0.1-0.1c0,0,0-0.1,0.1-0.1
		c0.2,0,0.3,0,0.5,0c0.1,0,0.3,0,0.4,0c0.2,0,1.3,0,1.4,0c0.1,0,0.2,0,0.2,0c0,0,0.1,0,0.1,0c0,0,0,0,0,0.1c0,0,0,0.1,0,0.4
		c0,0.1,0,0.3,0,0.4c0,0,0,0.1-0.1,0.1c0,0-0.1,0-0.1-0.1c0,0,0-0.1,0-0.2c0-0.1-0.1-0.2-0.4-0.2c-0.1,0-0.7,0-0.8,0c0,0,0,0,0,0.1
		v1.4c0,0,0,0.1,0,0.1c0.1,0,0.8,0,0.9,0c0.1,0,0.2,0,0.3-0.1c0,0,0.1-0.1,0.1-0.1c0,0,0,0,0,0s0,0.1,0,0.4c0,0.1,0,0.3,0,0.4
		c0,0,0,0.1-0.1,0.1c0,0-0.1,0-0.1-0.1c0-0.1,0-0.1,0-0.2c0-0.1-0.1-0.2-0.3-0.2c-0.1,0-0.7,0-0.8,0c0,0,0,0,0,0.1v0.4
		c0,0.2,0,0.7,0,0.9c0,0.4,0.1,0.5,0.7,0.5c0.1,0,0.4,0,0.5-0.1c0.1-0.1,0.2-0.2,0.3-0.4c0-0.1,0-0.1,0.1-0.1c0,0,0,0,0,0.1
		c0,0.1,0,0.5-0.1,0.6c0,0.1-0.1,0.1-0.3,0.1c-0.4,0-0.7,0-1,0c-0.2,0-0.4,0-0.6,0c-0.1,0-0.2,0-0.3,0c-0.1,0-0.3,0-0.4,0
		c-0.1,0-0.1,0-0.1-0.1c0,0,0,0,0.1,0c0.1,0,0.2,0,0.2,0c0.1,0,0.1-0.1,0.2-0.3c0-0.2,0-0.7,0-1.2V26.6z"/>
	<path class="st0" d="M67.8,28.5c0,0.4,0.1,0.6,0.2,0.6c0.1,0,0.2,0,0.3,0c0.1,0,0.1,0,0.1,0c0,0-0.1,0.1-0.1,0.1
		c-0.4,0-0.6,0-0.7,0c-0.1,0-0.3,0-0.6,0c-0.1,0-0.1,0-0.1-0.1c0,0,0,0,0.1,0c0.1,0,0.2,0,0.3,0c0.1,0,0.2-0.2,0.2-0.7l0.1-3.3
		c0-0.1,0-0.2,0.1-0.2c0.1,0,0.1,0.1,0.2,0.2c0.1,0.1,0.9,1,1.7,1.8c0.4,0.4,1.1,1.2,1.2,1.3h0l-0.1-2.5c0-0.3-0.1-0.4-0.2-0.5
		c-0.1,0-0.2,0-0.3,0c-0.1,0-0.1,0-0.1-0.1c0,0,0.1-0.1,0.1-0.1c0.3,0,0.6,0,0.7,0c0.1,0,0.3,0,0.5,0c0.1,0,0.1,0,0.1,0.1
		c0,0,0,0.1-0.1,0.1c-0.1,0-0.1,0-0.2,0c-0.2,0-0.2,0.2-0.2,0.5L71,29.1c0,0.1,0,0.2-0.1,0.2c-0.1,0-0.1-0.1-0.2-0.1
		c-0.4-0.3-1.1-1.1-1.6-1.6c-0.6-0.6-1.2-1.3-1.3-1.4h0L67.8,28.5z"/>
	<path class="st0" d="M79.1,25.3l-0.8,0c-0.3,0-0.5,0-0.5,0.2c-0.1,0.1-0.1,0.2-0.1,0.2c0,0,0,0.1-0.1,0.1c0,0-0.1,0-0.1-0.1
		c0-0.1,0.1-0.6,0.1-0.6c0-0.1,0-0.1,0.1-0.1c0,0,0.1,0.1,0.2,0.1c0.2,0,0.4,0,0.6,0h2.2c0.2,0,0.3,0,0.4,0c0.1,0,0.1,0,0.2,0
		c0,0,0,0,0,0.1c0,0.1,0,0.5,0,0.6c0,0.1,0,0.1-0.1,0.1c0,0-0.1,0-0.1-0.1l0-0.1c0-0.1-0.2-0.3-0.7-0.3l-0.7,0v2.3c0,0.5,0,1,0,1.2
		c0,0.2,0.1,0.3,0.2,0.3c0.1,0,0.2,0,0.3,0c0.1,0,0.1,0,0.1,0c0,0,0,0.1-0.1,0.1c-0.4,0-0.7,0-0.9,0c-0.1,0-0.5,0-0.7,0
		c-0.1,0-0.1,0-0.1-0.1c0,0,0,0,0.1,0c0.1,0,0.2,0,0.2,0c0.1,0,0.1-0.1,0.2-0.3c0-0.2,0-0.7,0-1.2V25.3z"/>
	<path class="st0" d="M87.6,29.2c-0.1,0-0.1-0.1-0.1-0.2c0-0.3,0-0.6,0-0.7c0-0.1,0-0.1,0.1-0.1c0.1,0,0.1,0.1,0.1,0.1
		c0,0.1,0,0.2,0.1,0.3c0.1,0.4,0.5,0.6,0.8,0.6c0.5,0,0.7-0.3,0.7-0.6c0-0.3-0.1-0.5-0.5-0.9l-0.3-0.2c-0.6-0.5-0.8-0.9-0.8-1.3
		c0-0.6,0.5-1.1,1.3-1.1c0.4,0,0.6,0.1,0.7,0.1c0.1,0,0.1,0,0.1,0.1c0,0.1,0,0.2,0,0.7c0,0.1,0,0.2-0.1,0.2c0,0-0.1,0-0.1-0.1
		c0-0.1,0-0.2-0.1-0.4c-0.1-0.1-0.2-0.3-0.6-0.3c-0.4,0-0.7,0.2-0.7,0.6c0,0.3,0.1,0.5,0.6,0.8l0.2,0.1c0.7,0.5,0.9,0.9,0.9,1.4
		c0,0.3-0.1,0.7-0.5,1c-0.3,0.2-0.6,0.2-0.9,0.2C88.1,29.3,87.8,29.3,87.6,29.2"/>
	<path class="st0" d="M111,3.7c0,1-0.8,1.8-1.8,1.8c-1,0-1.8-0.8-1.8-1.8c0-1,0.8-1.8,1.8-1.8C110.2,2,111,2.7,111,3.7 M107.8,3.7
		c0,0.8,0.6,1.4,1.4,1.4c0.8,0,1.4-0.6,1.4-1.4c0-0.8-0.6-1.4-1.4-1.4C108.4,2.3,107.8,3,107.8,3.7 M108.9,4.7h-0.4V2.9
		c0.2,0,0.4-0.1,0.7-0.1c0.3,0,0.5,0.1,0.6,0.1c0.1,0.1,0.2,0.2,0.2,0.4c0,0.2-0.2,0.3-0.4,0.4v0c0.2,0.1,0.3,0.2,0.3,0.4
		c0.1,0.3,0.1,0.4,0.1,0.4h-0.4c-0.1-0.1-0.1-0.2-0.1-0.4c0-0.2-0.1-0.3-0.4-0.3h-0.2V4.7z M108.9,3.7h0.2c0.2,0,0.4-0.1,0.4-0.3
		c0-0.2-0.1-0.3-0.4-0.3c-0.1,0-0.2,0-0.2,0V3.7z"/>
</g>
</svg>
