<?xml version="1.0" encoding="utf-8"?>
<!-- Generator: Adobe Illustrator 26.5.0, SVG Export Plug-In . SVG Version: 6.00 Build 0)  -->
<svg version="1.1" id="Stripelight-logo" xmlns="http://www.w3.org/2000/svg" xmlns:xlink="http://www.w3.org/1999/xlink" x="0px"
	 y="0px" viewBox="0 0 179.2 31.7" style="enable-background:new 0 0 179.2 31.7;" xml:space="preserve">
<style type="text/css">
	.st0{clip-path:url(#SVGID_00000096757307945200618550000003321229528566117545_);}
	.st1{fill:#EAEDED;}
	.st2{fill:#F0882C;}
</style>
<g>
	<g>
		<defs>
			<rect id="SVGID_1_" x="0.4" y="1" width="143.6" height="29.7"/>
		</defs>
		<clipPath id="SVGID_00000026146799229998624240000015727956796208479935_">
			<use xlink:href="#SVGID_1_"  style="overflow:visible;"/>
		</clipPath>
		<g id="Group_1219" style="clip-path:url(#SVGID_00000026146799229998624240000015727956796208479935_);">
			<path id="Path_498" class="st1" d="M129.9,13.3c-0.6,0.7-1.2,1.4-1.6,2.2c-0.7,1.4-1,2.9-1,4.5c0,1.4,0.3,2.7,0.8,4
				c0,0,0,0.1,0.1,0.1c0.4,1,1,1.9,1.7,2.6c0.3,0.3,0.5,0.6,0.8,0.8c0.3,0.4,0.7,0.7,1.1,1c2.1,1.5,4.6,2.2,7.1,2.2
				c0.7,0,1.4,0,2.1-0.1c0.3-0.1,0.7-0.2,1-0.2c0.7-0.2,1.3-0.4,1.9-0.7v-6c-0.2,0.3-0.4,0.5-0.6,0.7c-0.7,0.7-1.6,1.2-2.6,1.5
				c-0.1,0-0.2,0.1-0.3,0.1C140,26,139.5,26,139,26h-0.7c-1.4-0.1-2.7-0.7-3.7-1.7c-0.2-0.2-0.3-0.4-0.5-0.5c-0.7-0.9-1.1-2-1.2-3.2
				c0-0.2,0-0.4,0-0.6c0-0.6,0.1-1.2,0.3-1.8c0.3-0.9,0.8-1.8,1.5-2.5c0.9-0.8,1.9-1.4,3.1-1.6c0.4-0.1,0.9-0.1,1.3-0.1
				c0.8,0,1.7,0.1,2.4,0.4c0.7,0.3,1.4,0.7,1.9,1.2c0.2,0.2,0.4,0.4,0.6,0.7v-6c-1.2-0.5-2.5-0.9-3.9-1c-0.4,0-0.8,0-1.3,0
				c-0.6,0-1.1,0-1.7,0.1c-2.2,0.3-4.3,1.2-6,2.6C130.7,12.4,130.3,12.8,129.9,13.3"/>
			<path id="Path_499" class="st1" d="M55,12c-1.7,1.4-2.8,3-3.4,4.8c-0.2,0.7-0.4,1.4-0.5,2.1v1c0,2.9,1.2,5.7,3.4,7.5
				c0.3,0.3,0.6,0.6,1,0.8l0.1,0.1c2.1,1.4,4.6,2.2,7.1,2.2c2.1,0,4.2-0.5,6-1.4c0.1-0.1,0.3-0.2,0.5-0.3c0.2-0.1,0.4-0.2,0.6-0.3
				c0.7-0.5,1.3-1,1.9-1.6c0.5-0.5,1-1.2,1.3-1.8c1-1.6,1.6-3.5,1.6-5.4v-0.3c-0.1-0.7-0.1-1.3-0.3-2c-0.1-0.7-0.4-1.3-0.7-1.9
				c-0.2-0.4-0.4-0.7-0.6-1.1c-1.1-1.7-2.6-3-4.4-3.9c-0.9-0.5-1.9-0.8-2.9-1c-0.1,0-0.2,0-0.3-0.1c-0.9-0.2-1.9-0.3-2.9-0.3
				C60,9.2,57.2,10.2,55,12 M62.2,14c0.2,0,0.4,0,0.7,0c1.6-0.1,3.2,0.5,4.4,1.6c0.2,0.3,0.4,0.5,0.6,0.8c0.6,0.8,1,1.8,1.1,2.8
				c0,0.3,0,0.5,0,0.8c0,0.2,0,0.4,0,0.6c-0.1,1.2-0.6,2.4-1.4,3.4c-0.1,0.1-0.2,0.2-0.3,0.4c-0.1,0.1-0.3,0.2-0.4,0.3
				c-2.5,1.9-6.1,1.8-8.4-0.3c-0.1-0.1-0.2-0.2-0.3-0.4c-0.2-0.2-0.4-0.5-0.6-0.8c-0.6-1-0.8-2.1-0.8-3.2c0-1.6,0.6-3.2,1.7-4.3
				C59.5,14.7,60.9,14.1,62.2,14"/>
			<path id="Path_500" class="st1" d="M37.3,10.7c-0.6,0.3-1.1,0.6-1.6,1c-0.6,0.5-1.2,1.1-1.7,1.7c-0.4-0.7-1-1.3-1.6-1.9
				c-0.4-0.3-0.8-0.6-1.2-0.8c-1.2-0.6-2.5-1-3.9-0.9c-1.3,0-2.7,0.2-3.9,0.7l-0.3,0.1c-0.2,0.1-0.4,0.2-0.6,0.3v0
				c-0.9,0.4-1.7,1-2.4,1.8v-2.4h-5.6v20.5h5.6v-9.1c0-0.5,0-0.9,0-1.3v0c0-1,0.2-2,0.5-2.9c0.2-0.5,0.5-1,0.9-1.4
				c0.3-0.3,0.6-0.5,0.9-0.8c0.6-0.4,1.3-0.6,2-0.7c0.2,0,0.4-0.1,0.6,0c0.8,0,1.5,0.2,2.2,0.6c0.6,0.5,1.1,1.1,1.4,1.8
				c0.1,0.3,0.1,0.5,0.2,0.8v0c0.1,0.3,0.1,0.5,0.1,0.8c0,0.6,0.1,1.4,0.1,2.3v9.9h5.6v-9.2c0-1.9,0.2-3.4,0.6-4.2
				c0.1-0.2,0.2-0.4,0.3-0.6c0.1-0.2,0.2-0.4,0.4-0.5c0.3-0.4,0.7-0.7,1.1-1c0.8-0.5,1.7-0.8,2.7-0.8c1.3,0,2.3,0.4,2.9,1.2
				c0.7,0.8,1,2.4,1,4.7v10.4h5.7V18.8c0-2.5-0.3-4.3-0.8-5.4c-0.2-0.4-0.4-0.8-0.7-1.1c-0.5-0.6-1.2-1.1-1.9-1.5
				c-1.3-0.7-2.8-1-4.3-1C40.1,9.8,38.7,10.1,37.3,10.7"/>
			<path id="Path_501" class="st1" d="M100.1,1h-5.5v9.9c-0.1,0-0.3-0.1-0.4-0.2c-0.5-0.2-1-0.5-1.5-0.7c-1.4-0.5-3-0.8-4.5-0.8
				c-2.8,0-5.6,0.9-7.8,2.8c-2.3,1.8-3.8,4.6-3.9,7.5c0,0.1,0,0.3,0,0.4c0,3,1.2,5.5,3.4,7.6c0.9,0.8,1.9,1.5,3.1,2.1
				c3.2,1.4,6.9,1.5,10.1,0.1c0.4-0.1,0.7-0.3,1-0.5c0.4-0.2,0.7-0.4,1-0.6c1.3-0.9,2.5-2,3.3-3.3c0.9-1.4,1.4-3,1.5-4.7L100.1,1
				L100.1,1z M90.7,14.3c0.4,0.1,0.7,0.3,1,0.5c0.3,0.2,0.7,0.5,1,0.8c0.9,0.8,1.5,1.9,1.6,3.1c0.1,0.4,0.1,0.8,0.1,1.2
				c0,0.2,0,0.5,0,0.7c-0.1,1.2-0.5,2.3-1.3,3.2c-0.1,0.2-0.3,0.3-0.5,0.5c-0.3,0.3-0.7,0.6-1.1,0.9c-1,0.5-2.1,0.8-3.3,0.8
				c-1.6,0-3.2-0.6-4.4-1.7c-0.3-0.3-0.6-0.7-0.9-1.1c-0.3-0.5-0.5-1.1-0.7-1.6c-0.1-0.5-0.2-1.1-0.2-1.7c0-1.6,0.6-3.2,1.7-4.3
				c1.2-1.1,2.8-1.7,4.4-1.7C89.1,13.9,90,14,90.7,14.3"/>
			<path id="Path_502" class="st1" d="M105.8,12c-1.7,1.4-2.8,3-3.4,4.8c-0.2,0.7-0.4,1.4-0.5,2.1v1c0,2.9,1.2,5.7,3.4,7.5
				c0.3,0.3,0.6,0.6,1,0.8l0.1,0.1c2.1,1.4,4.6,2.2,7.1,2.2c2.1,0,4.2-0.5,6-1.4c0.1-0.1,0.3-0.2,0.5-0.3c0.2-0.1,0.4-0.2,0.6-0.3
				c0.7-0.5,1.3-1,1.9-1.6c0.5-0.5,1-1.2,1.3-1.8c1-1.6,1.6-3.5,1.6-5.4v-0.3c-0.1-0.7-0.1-1.3-0.3-2c-0.1-0.7-0.4-1.3-0.7-1.9
				c-0.2-0.4-0.4-0.7-0.6-1.1c-1.1-1.7-2.6-3-4.4-3.9c-0.9-0.5-1.9-0.8-2.9-1c-0.1,0-0.2,0-0.3-0.1c-0.9-0.2-1.9-0.3-2.9-0.3
				C110.7,9.2,107.9,10.2,105.8,12 M113,14c0.2,0,0.4,0,0.7,0c1.6-0.1,3.2,0.5,4.4,1.6c0.2,0.3,0.4,0.5,0.6,0.8
				c0.6,0.8,1,1.8,1.1,2.8c0,0.3,0,0.5,0,0.8c0,0.2,0,0.4,0,0.6c-0.1,1.2-0.6,2.4-1.4,3.4c-0.1,0.1-0.2,0.2-0.3,0.4
				c-0.1,0.1-0.3,0.2-0.4,0.3c-1.1,0.9-2.6,1.4-4,1.3c-1.6,0.1-3.2-0.5-4.4-1.7c-0.1-0.1-0.2-0.2-0.3-0.4c-0.2-0.2-0.4-0.5-0.6-0.8
				c-0.6-1-0.8-2.1-0.8-3.2c-0.1-1.6,0.6-3.2,1.7-4.3C110.3,14.7,111.6,14.1,113,14"/>
			<path id="Path_503" class="st2" d="M9,9.7c0.4,0.1,0.7,0.3,1,0.5c0.3,0.2,0.7,0.5,1,0.8c0.9,0.8,1.5,1.9,1.6,3.1
				c0.1,0.4,0.1,0.8,0.1,1.2c0,0.2,0,0.5,0,0.7c-0.1,1.2-0.5,2.3-1.3,3.2c-0.1,0.2-0.3,0.3-0.5,0.5c-0.3,0.3-0.7,0.6-1.1,0.9
				c-1,0.5-2.1,0.8-3.3,0.8c-1.6,0-3.2-0.6-4.4-1.7c-0.3-0.3-0.6-0.7-0.9-1.1C1,18,0.8,17.5,0.6,16.9c-0.1-0.6-0.2-1.1-0.2-1.7
				c0-1.6,0.6-3.2,1.7-4.3c1.2-1.1,2.8-1.7,4.4-1.7C7.4,9.3,8.2,9.4,9,9.7"/>
		</g>
	</g>
</g>
</svg>
