<?xml version="1.0" encoding="utf-8"?>
<!-- Generator: Adobe Illustrator 25.2.3, SVG Export Plug-In . SVG Version: 6.00 Build 0)  -->
<svg version="1.1" id="Stripelight-logo" xmlns="http://www.w3.org/2000/svg" xmlns:xlink="http://www.w3.org/1999/xlink" x="0px"
	 y="0px" viewBox="0 0 179.2 31.7" style="enable-background:new 0 0 179.2 31.7;" xml:space="preserve">
<style type="text/css">
	.st0{fill-rule:evenodd;clip-rule:evenodd;fill:#FFFFFF;}
	.st1{fill:#FFFFFF;}
</style>
<g>
	<g>
		<path class="st0" d="M51.3,19.4C51.2,19.4,51.2,19.5,51.3,19.4C51.2,19.5,51.3,19.4,51.3,19.4z"/>
		<path class="st0" d="M51.3,19.5C51.3,19.6,51.2,19.6,51.3,19.5C51.2,19.6,51.3,19.6,51.3,19.5z"/>
		<path class="st0" d="M51,19.7C51,19.8,51,19.8,51,19.7C51,19.8,51,19.8,51,19.7C51.1,19.8,51,19.8,51,19.7z"/>
		<path class="st0" d="M50,20.3L50,20.3c0,0.1-0.1,0.1-0.1,0.1C50,20.4,50,20.4,50,20.3z"/>
		<path class="st0" d="M51.2,19.7C51.2,19.7,51.1,19.8,51.2,19.7C51.2,19.8,51.2,19.8,51.2,19.7C51.2,19.7,51.2,19.7,51.2,19.7z"/>
		<path class="st0" d="M50,20.4C49.9,20.5,49.9,20.5,50,20.4C49.9,20.5,49.9,20.5,50,20.4L50,20.4z"/>
		<path class="st0" d="M50.7,20.3C50.7,20.2,50.7,20.3,50.7,20.3C50.7,20.3,50.7,20.3,50.7,20.3z"/>
		<path class="st0" d="M49.7,20.8C49.7,20.8,49.7,20.8,49.7,20.8c-0.1,0,0,0.1,0,0.1c0,0-0.1,0-0.1,0.1c0,0,0,0.1,0,0.2
			c0,0,0-0.1,0.1-0.1c0,0,0,0,0-0.1c0,0,0,0,0,0C49.7,20.9,49.7,20.9,49.7,20.8C49.7,20.8,49.7,20.8,49.7,20.8z"/>
		<path class="st0" d="M50.6,20.4L50.6,20.4C50.6,20.4,50.6,20.4,50.6,20.4C50.6,20.5,50.6,20.4,50.6,20.4z"/>
		<path class="st0" d="M50.7,20.6c0,0,0,0.1,0,0.1C50.7,20.7,50.8,20.7,50.7,20.6z"/>
		<path class="st0" d="M49.1,21.5C49,21.5,49,21.5,49.1,21.5C49.1,21.5,49.1,21.5,49.1,21.5z"/>
		<path class="st0" d="M50.6,20.9c0,0-0.1,0-0.1,0.1C50.5,21,50.5,21,50.6,20.9z"/>
		<path class="st0" d="M49.5,21.7c0,0,0,0.1,0,0.1C49.5,21.8,49.5,21.8,49.5,21.7C49.5,21.7,49.6,21.7,49.5,21.7z"/>
		<path class="st0" d="M50.4,21.4C50.4,21.4,50.5,21.3,50.4,21.4C50.5,21.3,50.5,21.3,50.4,21.4z"/>
		<path class="st0" d="M50.2,21.7c0,0-0.1,0.1-0.1,0.1C50.2,21.8,50.2,21.7,50.2,21.7C50.2,21.6,50.2,21.7,50.2,21.7z"/>
		<path class="st0" d="M48.8,22.2C48.8,22.1,48.8,22.2,48.8,22.2C48.8,22.3,48.8,22.2,48.8,22.2z"/>
		<path class="st0" d="M48.9,22.4C48.9,22.4,48.9,22.3,48.9,22.4C49,22.3,48.9,22.3,48.9,22.4C48.9,22.3,48.9,22.3,48.9,22.4z"/>
		<path class="st0" d="M48.2,22.6C48.2,22.6,48.1,22.6,48.2,22.6C48.1,22.6,48.2,22.6,48.2,22.6z"/>
		<path class="st0" d="M50.7,21.7C50.6,21.7,50.6,21.7,50.7,21.7C50.6,21.8,50.6,21.8,50.7,21.7L50.7,21.7z"/>
		<path class="st0" d="M50.3,21.9C50.3,21.9,50.3,21.9,50.3,21.9C50.3,22,50.4,21.9,50.3,21.9z"/>
		<path class="st0" d="M50.5,21.9C50.5,21.9,50.5,21.9,50.5,21.9c-0.1,0.1-0.1,0.2-0.2,0.2c0,0.1,0,0.1,0,0.1c0,0,0-0.1,0-0.1
			c0,0,0,0,0.1,0C50.4,22.1,50.5,22.1,50.5,21.9C50.5,22,50.5,22,50.5,21.9C50.5,21.9,50.5,22,50.5,21.9z"/>
		<path class="st0" d="M48.5,22.8C48.5,22.7,48.5,22.8,48.5,22.8C48.5,22.9,48.5,22.8,48.5,22.8C48.6,22.7,48.6,22.7,48.5,22.8
			C48.5,22.7,48.5,22.7,48.5,22.8C48.5,22.8,48.5,22.8,48.5,22.8z"/>
		<path class="st0" d="M51.5,21.6c0,0-0.1,0-0.1,0.1C51.4,21.7,51.5,21.6,51.5,21.6z"/>
		<path class="st0" d="M51.5,21.6C51.5,21.6,51.5,21.7,51.5,21.6C51.5,21.7,51.5,21.6,51.5,21.6z"/>
		<path class="st0" d="M51.4,21.7C51.4,21.8,51.4,21.8,51.4,21.7C51.4,21.8,51.4,21.8,51.4,21.7C51.4,21.7,51.4,21.7,51.4,21.7z"/>
		<path class="st0" d="M48.5,22.9c0,0-0.1,0.1-0.1,0.1C48.4,23,48.4,22.9,48.5,22.9z"/>
		<path class="st0" d="M52,21.6c0,0,0,0.1,0,0.2C52,21.8,52,21.7,52,21.6z"/>
		<path class="st0" d="M48.2,23.2C48.2,23.2,48.2,23.2,48.2,23.2C48.2,23.1,48.2,23.1,48.2,23.2z"/>
		<path class="st0" d="M50.8,22.3c0,0-0.1,0.2,0,0.1C50.8,22.3,50.8,22.3,50.8,22.3z"/>
		<path class="st0" d="M50,22.7c0,0-0.1,0.1-0.1,0.1c0,0,0,0,0,0C50,22.8,50,22.7,50,22.7z"/>
		<path class="st0" d="M51.5,22.1c-0.1,0-0.1,0.1-0.1,0.1C51.4,22.2,51.5,22.2,51.5,22.1z"/>
		<path class="st0" d="M48,23.3C48,23.3,48,23.3,48,23.3c-0.1,0.1-0.1,0.1-0.1,0.2C47.9,23.4,48,23.4,48,23.3z"/>
		<path class="st0" d="M50.5,22.7C50.5,22.7,50.5,22.8,50.5,22.7C50.5,22.8,50.5,22.8,50.5,22.7C50.5,22.8,50.5,22.7,50.5,22.7z"/>
		<path class="st0" d="M47.9,23.5C47.9,23.5,47.8,23.5,47.9,23.5C47.9,23.5,47.8,23.5,47.9,23.5C47.8,23.6,47.8,23.5,47.9,23.5
			C47.8,23.5,47.8,23.5,47.9,23.5z"/>
		<path class="st0" d="M47.8,23.6c-0.1,0-0.1,0-0.1,0.1C47.7,23.6,47.7,23.7,47.8,23.6C47.7,23.7,47.7,23.6,47.8,23.6z"/>
		<path class="st0" d="M50.7,23c0,0-0.1,0.1,0,0.1C50.7,23,50.7,23,50.7,23z"/>
		<path class="st0" d="M47.5,23.9c-0.1,0-0.1,0.1-0.1,0.1c0,0,0,0,0-0.1c-0.1,0,0,0.1-0.1,0.2c0,0,0,0,0.1,0c0-0.1,0,0,0,0
			C47.4,24,47.5,23.9,47.5,23.9z"/>
		<path class="st0" d="M48.9,23.8c0,0-0.1,0.1-0.1,0.1C48.9,23.9,49,23.9,48.9,23.8z"/>
		<path class="st0" d="M49.8,23.6C49.8,23.7,49.8,23.6,49.8,23.6C49.7,23.7,49.8,23.7,49.8,23.6C49.8,23.7,49.8,23.7,49.8,23.6z"/>
		<path class="st0" d="M49,24.4c0,0-0.1,0.1-0.1,0.1C49,24.5,49,24.5,49,24.4z"/>
		<path class="st0" d="M50.1,24.5C50.1,24.5,50.1,24.6,50.1,24.5C50,24.6,50.1,24.6,50.1,24.5C50.1,24.6,50.1,24.6,50.1,24.5z"/>
		<path class="st0" d="M50.8,24.3c0,0-0.1,0.1-0.1,0.1C50.7,24.4,50.8,24.3,50.8,24.3z"/>
		<path class="st0" d="M48,25.2L48,25.2C48,25.2,48,25.2,48,25.2C48,25.2,48,25.2,48,25.2z"/>
		<path class="st0" d="M50,24.9C50,24.9,50,25,49.9,25c0,0,0,0,0,0c0,0-0.1,0.1,0,0.1c0,0,0-0.1,0.1-0.1C49.9,25,50,25,50,24.9z"/>
		<path class="st0" d="M48,25.5C48,25.5,47.9,25.5,48,25.5C47.9,25.5,48,25.5,48,25.5C48,25.5,48,25.5,48,25.5z"/>
		<path class="st0" d="M49.6,25.5c0,0-0.1,0.1-0.1,0.1C49.5,25.6,49.5,25.5,49.6,25.5z"/>
		<path class="st0" d="M49.8,25.6c0,0-0.1,0.1-0.1,0.1C49.8,25.7,49.8,25.7,49.8,25.6z"/>
		<path class="st0" d="M49,25.9C49,25.9,49,25.9,49,25.9C49,25.9,49,25.9,49,25.9z"/>
		<path class="st0" d="M48.7,26.1C48.7,26.1,48.7,26.2,48.7,26.1C48.6,26.2,48.7,26.2,48.7,26.1L48.7,26.1z"/>
		<path class="st0" d="M48.6,26.3C48.5,26.3,48.5,26.3,48.6,26.3C48.5,26.4,48.6,26.3,48.6,26.3z"/>
		<path class="st0" d="M46.7,26.5C46.7,26.5,46.7,26.5,46.7,26.5C46.7,26.6,46.7,26.5,46.7,26.5c-0.1,0.1,0,0.1-0.1,0.1
			c0,0.1,0.1,0,0,0C46.7,26.6,46.7,26.5,46.7,26.5z"/>
		<path class="st0" d="M46.6,26.6C46.6,26.6,46.6,26.7,46.6,26.6C46.6,26.7,46.5,26.7,46.6,26.6c-0.1,0-0.1,0-0.1,0.1L46.6,26.6
			C46.6,26.7,46.6,26.7,46.6,26.6z"/>
		<path class="st0" d="M46.3,26.7C46.3,26.7,46.3,26.7,46.3,26.7C46.3,26.8,46.3,26.7,46.3,26.7z"/>
		<path class="st0" d="M48,26.7C48,26.7,48,26.7,48,26.7C48.1,26.7,48,26.7,48,26.7z"/>
		<path class="st0" d="M48.1,26.7c-0.1,0-0.1,0.1-0.1,0.1C48.1,26.8,48.1,26.8,48.1,26.7z"/>
		<path class="st0" d="M48,26.7C47.9,26.8,47.9,26.8,48,26.7C47.9,26.8,47.9,26.8,48,26.7C48,26.8,47.9,26.8,48,26.7z"/>
		<path class="st0" d="M47.7,26.8c-0.1,0.1-0.1,0.1,0,0.1C47.7,26.8,47.7,26.8,47.7,26.8z"/>
		<path class="st0" d="M46.1,26.9C46,26.9,46,26.9,46.1,26.9C46,27,46,26.9,46.1,26.9z"/>
		<path class="st0" d="M45.6,27.1c-0.1,0.1-0.2,0.1-0.2,0.2C45.4,27.3,45.5,27.3,45.6,27.1C45.6,27.2,45.6,27.2,45.6,27.1
			C45.6,27.2,45.6,27.2,45.6,27.1z"/>
		<path class="st0" d="M47.2,27.3C47.1,27.3,47.2,27.4,47.2,27.3C47.2,27.4,47.2,27.3,47.2,27.3z"/>
		<path class="st0" d="M47.2,27.4C47.1,27.4,47.1,27.4,47.2,27.4C47.1,27.4,47.1,27.4,47.2,27.4z"/>
		<path class="st0" d="M45.2,27.5L45.2,27.5C45.1,27.5,45.1,27.5,45.2,27.5C45.1,27.5,45.1,27.5,45.2,27.5z"/>
		<path class="st0" d="M46.4,27.7C46.4,27.7,46.5,27.7,46.4,27.7C46.5,27.7,46.5,27.6,46.4,27.7z"/>
		<path class="st0" d="M45.3,29.2C45.2,29.2,45.2,29.3,45.3,29.2C45.2,29.3,45.3,29.3,45.3,29.2z"/>
		<path class="st0" d="M44.2,29.8C44.1,29.8,44.2,29.9,44.2,29.8C44.1,29.8,44.1,29.8,44.2,29.8c-0.1,0-0.1,0-0.1,0.1
			C44.1,29.9,44.1,29.9,44.2,29.8C44.1,29.9,44,29.9,44,30c0,0,0.1,0,0.1,0C44.1,29.9,44.2,29.9,44.2,29.8
			C44.2,29.9,44.1,29.8,44.2,29.8z"/>
		<path class="st0" d="M43.8,30L43.8,30c-0.1,0-0.1,0-0.1,0.1C43.7,30.1,43.8,30,43.8,30C43.8,30.1,43.8,30,43.8,30z"/>
		<path class="st0" d="M43.6,30C43.6,30.1,43.6,30.1,43.6,30l0,0.1C43.6,30.1,43.6,30.1,43.6,30C43.6,30.1,43.6,30.1,43.6,30
			C43.6,30.1,43.6,30,43.6,30z"/>
		<path class="st0" d="M43.4,30.1c0,0-0.1,0-0.1,0.1C43.4,30.1,43.4,30.1,43.4,30.1C43.5,30.1,43.4,30.1,43.4,30.1z"/>
		<path class="st0" d="M43.2,30.2C43.3,30.2,43.3,30.2,43.2,30.2C43.2,30.2,43.2,30.2,43.2,30.2C43.2,30.2,43.2,30.2,43.2,30.2z"/>
		<path class="st0" d="M43.2,30.2C43.2,30.2,43.2,30.2,43.2,30.2C43.1,30.2,43.2,30.2,43.2,30.2C43.1,30.2,43.2,30.2,43.2,30.2
			L43.2,30.2z"/>
		<path class="st0" d="M43.2,30.3c0,0-0.1,0-0.1,0C43.1,30.3,43.1,30.3,43.2,30.3z"/>
		<path class="st0" d="M42.5,30.5C42.5,30.5,42.4,30.5,42.5,30.5C42.4,30.5,42.5,30.5,42.5,30.5C42.5,30.5,42.5,30.5,42.5,30.5z"/>
		<path class="st0" d="M42.1,30.6C42.1,30.6,42.1,30.6,42.1,30.6L42.1,30.6L42.1,30.6z"/>
		<path class="st0" d="M41.9,30.6c0,0-0.1,0-0.1,0C41.7,30.7,41.8,30.7,41.9,30.6C41.8,30.7,41.8,30.7,41.9,30.6
			C41.9,30.7,41.9,30.7,41.9,30.6z"/>
		<path class="st0" d="M41.8,30.8C41.7,30.8,41.7,30.8,41.8,30.8C41.7,30.8,41.7,30.8,41.8,30.8C41.8,30.8,41.7,30.8,41.8,30.8z"/>
		<path class="st0" d="M41.5,30.7c-0.1,0.1-0.1,0-0.2,0.1c0,0.1,0.1,0,0.1,0.1C41.4,30.8,41.4,30.8,41.5,30.7
			C41.5,30.8,41.5,30.8,41.5,30.7C41.6,30.7,41.5,30.7,41.5,30.7z"/>
		<path class="st0" d="M41.5,30.8c-0.1,0-0.1,0-0.1,0C41.3,30.9,41.5,30.9,41.5,30.8z"/>
		<path class="st0" d="M41.3,30.9C41.2,30.9,41.2,30.9,41.3,30.9C41.2,31,41.2,31,41.3,30.9C41.2,31,41.2,31,41.3,30.9
			C41.2,31,41.2,31,41.3,30.9z"/>
		<path class="st0" d="M40.9,31C40.9,31,40.9,31,40.9,31C40.9,31,40.8,31,40.9,31C40.9,31,40.9,31,40.9,31z"/>
		<path class="st0" d="M36.8,31.1c-0.1,0-0.1,0-0.2,0C36.7,31.2,36.8,31.2,36.8,31.1C36.8,31.2,36.8,31.1,36.8,31.1z"/>
		<path class="st0" d="M35.7,31.2C35.7,31.1,35.6,31.2,35.7,31.2C35.6,31.2,35.7,31.2,35.7,31.2z"/>
		<path class="st0" d="M34.5,30.9c0,0-0.1-0.1-0.1,0C34.4,30.9,34.5,30.9,34.5,30.9z"/>
		<path class="st0" d="M33.9,30.8c-0.1,0-0.2,0-0.2,0C33.8,30.8,33.9,30.8,33.9,30.8z"/>
		<path class="st0" d="M32.8,30.5c0,0-0.1,0-0.1-0.1C32.7,30.5,32.8,30.5,32.8,30.5z"/>
		<path class="st0" d="M31.7,29.9C31.7,29.9,31.6,29.9,31.7,29.9C31.7,30,31.7,30,31.7,29.9C31.7,29.9,31.7,29.9,31.7,29.9z"/>
		<path class="st0" d="M29.6,25.5c-0.1-0.1-0.2-0.1-0.2-0.1C29.4,25.5,29.5,25.5,29.6,25.5z"/>
		<path class="st0" d="M29.3,25.4C29.3,25.3,29.3,25.3,29.3,25.4C29.3,25.4,29.3,25.4,29.3,25.4z"/>
		<path class="st0" d="M29.6,29C29.6,29,29.6,29,29.6,29c-0.1,0-0.1,0-0.2,0C29.5,29,29.6,29.1,29.6,29C29.6,29,29.7,29,29.6,29z"/>
		<path class="st0" d="M29.4,28.7C29.4,28.7,29.3,28.7,29.4,28.7C29.4,28.8,29.4,28.7,29.4,28.7z"/>
		<path class="st0" d="M29.4,28.9C29.4,28.9,29.4,28.8,29.4,28.9C29.3,28.8,29.3,28.8,29.4,28.9C29.3,28.9,29.4,28.8,29.4,28.9z"/>
		<path class="st0" d="M27,27.2C26.9,27.2,26.9,27.2,27,27.2C26.9,27.2,26.9,27.2,27,27.2C26.9,27.2,27,27.2,27,27.2z"/>
		<path class="st0" d="M26.8,27.1C26.8,27.1,26.7,27.1,26.8,27.1C26.7,27.2,26.8,27.2,26.8,27.1z"/>
		<path class="st0" d="M26.6,27c-0.1-0.1-0.2-0.1-0.2-0.2c0,0-0.1,0-0.1,0C26.4,26.8,26.5,26.8,26.6,27z"/>
		<path class="st0" d="M26.4,26.7c0-0.1-0.1-0.1-0.1-0.1C26.3,26.7,26.3,26.7,26.4,26.7z"/>
		<path class="st0" d="M26.2,26.6c0,0-0.1-0.1-0.1-0.1C26.1,26.5,26.1,26.6,26.2,26.6z"/>
		<path class="st0" d="M26.1,26.4c0-0.1,0-0.1-0.1-0.1c0,0-0.1,0-0.1,0C26.1,26.3,26.1,26.4,26.1,26.4z"/>
		<path class="st0" d="M25.8,26.7C25.8,26.7,25.8,26.6,25.8,26.7C25.7,26.7,25.7,26.7,25.8,26.7C25.8,26.7,25.8,26.7,25.8,26.7z"/>
		<path class="st0" d="M25.6,26C25.6,26,25.6,26,25.6,26L25.6,26c-0.1,0-0.1-0.2-0.2-0.2c0,0,0,0,0,0C25.4,25.9,25.5,25.9,25.6,26
			c0,0-0.1-0.1-0.1,0C25.5,26,25.5,26,25.6,26C25.6,26.1,25.6,26,25.6,26z"/>
		<path class="st0" d="M25.6,26.5c-0.1-0.1-0.1-0.1-0.2-0.2C25.5,26.4,25.6,26.5,25.6,26.5z"/>
		<path class="st0" d="M25.4,25.8c0,0,0-0.1,0-0.1c0,0,0,0-0.1,0C25.3,25.7,25.3,25.8,25.4,25.8z"/>
		<path class="st0" d="M25.3,25.8c0-0.1-0.1-0.1-0.1-0.1C25.2,25.7,25.2,25.7,25.3,25.8z"/>
		<path class="st0" d="M24.9,25.3C24.9,25.3,24.9,25.4,24.9,25.3c0,0.1,0.1,0.1,0.2,0.2C25.1,25.5,24.9,25.4,24.9,25.3z"/>
		<path class="st0" d="M25,25.6c0-0.1-0.1-0.1-0.2-0.2C24.9,25.5,25,25.5,25,25.6z"/>
		<path class="st0" d="M24.8,25.5C24.9,25.5,24.8,25.4,24.8,25.5C24.8,25.4,24.8,25.4,24.8,25.5z"/>
		<path class="st0" d="M24.8,25.4c0-0.1-0.1-0.1-0.1-0.2C24.8,25.3,24.8,25.4,24.8,25.4z"/>
		<path class="st0" d="M24.6,25.1C24.7,25.2,24.6,25.1,24.6,25.1C24.6,25,24.6,25.1,24.6,25.1C24.7,25,24.6,25,24.6,25.1
			c-0.1-0.1-0.3-0.2-0.3-0.2c0,0,0.1,0.1,0.2,0.1c0,0,0.1,0.1,0,0.1c0.1,0,0.2,0.1,0.3,0.1C24.8,25.1,24.7,25.1,24.6,25.1z"/>
		<path class="st0" d="M24.4,24.8C24.4,24.8,24.4,24.8,24.4,24.8c0-0.1-0.1-0.1-0.1-0.1c0,0,0,0,0,0C24.3,24.8,24.3,24.8,24.4,24.8
			C24.3,24.8,24.3,24.8,24.4,24.8z"/>
		<path class="st0" d="M24.3,24.7C24.3,24.7,24.2,24.6,24.3,24.7C24.3,24.7,24.3,24.7,24.3,24.7z"/>
		<path class="st0" d="M24.2,24.7C24.3,24.7,24.2,24.6,24.2,24.7c0-0.1,0-0.1-0.1-0.1C24.1,24.6,24.2,24.6,24.2,24.7z"/>
		<path class="st0" d="M51.6,19C51.6,19,51.6,19,51.6,19C51.6,19,51.6,18.9,51.6,19C51.6,19,51.5,18.8,51.6,19
			c0,0.1-0.1,0.2-0.2,0.3c0,0.1,0,0.1,0,0.1c0,0,0,0,0,0c0,0.1,0,0-0.1,0c0,0,0,0.1,0,0.1c0,0,0-0.1,0-0.1c0.1,0,0-0.1,0.1-0.1
			C51.5,19.2,51.6,19.1,51.6,19c0,0,0,0.1,0,0.1C51.5,19,51.6,19,51.6,19z"/>
		<path class="st0" d="M50.9,19.8c0,0-0.1,0.1-0.1,0.2c0,0,0,0,0.1,0C50.8,19.9,50.9,19.8,50.9,19.8z"/>
		<path class="st0" d="M50.8,20C50.8,20.1,50.8,20.1,50.8,20C50.8,20.1,50.8,20.1,50.8,20c0,0.1,0,0.1,0,0.2c0,0.1-0.1,0.1-0.1,0.2
			c-0.1,0-0.1,0.1-0.1,0.2c0,0,0-0.1,0-0.2c0,0.1-0.1,0.2-0.1,0.3c0,0-0.1,0-0.1,0.1c0,0-0.1,0-0.1-0.1c0,0,0,0,0,0c0,0,0,0.1,0.1,0
			c-0.1,0-0.1,0.2-0.1,0.2c0-0.1,0-0.2,0-0.2c-0.1,0-0.1,0.2-0.1,0.2c0,0-0.1,0.1-0.1,0.1c0,0,0,0,0,0c0,0,0,0,0,0c0,0,0,0,0,0
			c-0.1,0.1-0.1,0.2-0.1,0.3c0,0,0,0,0,0c0-0.1,0-0.1,0.1-0.2c-0.1,0-0.1,0.1-0.1,0.2c0,0,0,0,0,0c0,0,0,0,0,0.1c0,0-0.1,0-0.1,0
			c0,0,0,0,0,0.1c0,0,0,0,0,0c0,0,0.1,0,0,0c0.1,0,0,0.1,0,0.1c0-0.1-0.1,0-0.1,0c0,0,0,0.1,0,0.1c0,0,0-0.1,0-0.1c0,0,0,0,0,0
			c0,0,0,0.1-0.1,0.1c0,0,0-0.1,0-0.1c-0.1,0,0,0.1-0.1,0.1c0,0,0,0,0.1,0c0,0,0,0.1-0.1,0.1c0.1,0,0.1,0,0.1,0c0,0,0,0,0,0
			c0,0,0,0,0,0c0,0.1-0.2,0.3-0.2,0.2c0,0,0,0.1,0,0.1c-0.1,0,0,0-0.1,0c0,0,0.1-0.1,0.1-0.1c0,0-0.1,0.1-0.2,0.2c0,0,0,0,0,0
			c0,0.1,0,0.1-0.1,0.1c0,0,0,0.1,0,0.1c0,0,0,0.1-0.1,0.1c0.1,0,0,0.1,0,0.1c-0.1,0.1,0-0.1-0.1,0c0,0.1,0,0.1,0,0.1c0,0,0,0,0-0.1
			c0.1-0.1,0.1-0.2,0.2-0.3c0,0,0,0.1-0.1,0.1c0,0.2-0.2,0.2-0.2,0.4c-0.1,0.1-0.2,0.3-0.3,0.3c0,0-0.1,0.1-0.1,0.1
			c0,0.1-0.1,0.1-0.1,0.1c0,0,0,0,0,0c0,0,0,0.1,0,0.1c-0.1,0.1-0.2,0.2-0.2,0.3c0,0,0,0.1,0,0.1c0,0,0-0.1,0-0.1
			c-0.1,0.1-0.1,0.2-0.2,0.2c0-0.1-0.1,0-0.1,0.1c0,0,0,0-0.1,0c0,0.1-0.2,0.2-0.3,0.3c-0.1,0-0.2,0.2-0.3,0.2c0,0,0-0.1,0.1-0.1
			c0,0-0.1,0.1-0.2,0.1c0,0-0.1,0.1-0.1,0.1c0,0,0,0-0.1,0c0,0.1-0.1,0.1-0.1,0.2c-0.1,0-0.2,0.2-0.3,0.3c-1.4,1.1-3,1.9-4.6,2.5
			l-0.1,0.1l-0.2,0l-0.3,0.1c-0.2,0.1-0.4,0.1-0.6,0.2l-0.6,0.1l-0.3,0.1c-0.1,0-0.2,0-0.3,0l-0.6,0.1c-0.1,0-0.2,0-0.3,0l-0.3,0
			c-0.2,0-0.4,0-0.6,0l-0.6,0c0,0,0,0,0-0.1c0.3,0.1,0.5,0,0.8,0c0,0,0,0,0.1,0c0,0,0,0,0,0c0,0,0.1,0,0.1,0c0,0,0,0,0-0.1
			c0.1,0.1,0.3,0,0.4,0c0.1,0,0.2,0,0.3,0c0,0,0,0,0,0c0.2-0.1,0.4,0,0.5-0.1c0,0,0,0,0,0c0,0,0,0,0,0c0.2,0,0.4-0.1,0.6-0.1
			c0-0.1,0.1,0,0.2,0c0.1,0,0.1-0.1,0.2-0.1c0.1-0.1,0.2-0.1,0.2,0c0,0,0,0,0-0.1c0,0,0.1,0,0,0c0-0.1,0.1,0,0.2-0.1c0,0,0,0,0,0
			c0.1-0.1,0.1,0,0.2-0.1c0,0.1,0,0,0.1,0c0,0,0,0,0-0.1c0,0,0,0,0,0c0-0.1,0.1,0,0.2-0.1c0,0,0,0,0,0c0.1-0.1,0.4-0.1,0.4-0.2
			c0.1,0,0.1,0,0.2-0.1c0.1,0,0.2,0,0.2,0c0.4-0.1,0.7-0.3,1.1-0.4c0,0,0,0,0,0c0,0,0,0,0.1,0c0.1-0.1,0.2-0.1,0.3-0.2
			c0.1,0,0.3-0.1,0.3-0.2c0,0,0,0,0,0c0.1-0.1,0.2-0.1,0.2-0.2c0,0-0.1-0.1,0-0.1c0,0,0,0,0.1,0c0,0,0,0.1-0.1,0.1
			c0,0.1,0.1,0,0.1,0c0.1,0,0.2-0.2,0.4-0.2c0-0.1,0.1-0.1,0.2-0.1c0,0,0,0,0,0c0.1,0,0.2-0.1,0.3-0.2c0,0,0,0,0,0
			c0.2-0.1,0.3-0.3,0.5-0.3c0,0,0,0,0,0c0.2-0.1,0.3-0.2,0.5-0.3c0.1-0.1,0.3-0.2,0.4-0.3c0,0,0,0,0-0.1c0,0,0,0,0,0
			c0,0.1,0.1-0.1,0.2-0.1c0-0.1,0,0-0.1,0c0,0,0-0.1,0-0.1c0.1,0,0.2-0.1,0.3-0.1c0,0,0,0,0-0.1c0,0,0,0,0,0c0,0,0,0,0,0.1
			c0,0,0.1,0,0.1-0.1c0,0,0,0,0,0c0,0,0,0-0.1,0c0-0.1,0.1,0,0.1-0.1c0.1,0,0.1,0,0.1,0c0,0-0.1,0-0.1,0.1c0.1,0,0,0,0,0.1
			c0.1,0,0.1-0.1,0.2-0.1c0,0,0,0,0,0c0,0,0,0,0,0c0,0,0,0,0,0c0-0.1,0.1-0.1,0.1-0.2c0,0,0.1,0,0.1,0c0,0,0-0.1,0.1-0.1
			c0,0,0,0.1,0,0.1c0,0,0-0.1,0-0.1c0,0,0.1,0,0.1-0.1c0,0,0,0,0,0c0-0.1,0.1-0.2,0.1-0.2c0,0,0.1-0.1,0.1-0.1
			c0.1,0,0.1-0.1,0.1-0.1c0-0.1,0.2-0.1,0.2-0.2c0.1,0,0.1-0.1,0.2-0.2c0,0,0,0,0,0c0-0.2,0.2-0.2,0.3-0.3c0,0,0,0-0.1,0
			c0,0,0,0,0,0c0,0,0.1-0.1,0.2-0.1c0,0,0,0,0,0c0,0,0,0,0-0.1c0,0,0,0,0.1,0c0-0.1,0.1-0.1,0.1-0.2c0,0,0.1,0,0,0
			c0,0,0-0.1,0.1-0.1c0,0,0,0,0,0c0-0.1,0-0.1,0-0.1c0,0,0,0,0,0.1c0-0.1,0.1-0.1,0.1-0.2c0,0,0,0,0,0c0-0.1,0.1-0.2,0.2-0.3
			c0,0,0.1-0.1,0.1,0c0,0,0-0.1,0-0.1c0,0,0.1,0,0.1-0.1c0,0,0,0-0.1,0c0,0,0,0,0,0c0.1-0.1,0.2-0.1,0.2-0.3c0,0,0,0,0.1,0
			c0,0,0,0-0.1,0c0-0.1,0.1-0.1,0.1-0.2c0.1,0,0,0.1,0.1,0c0-0.1,0-0.1,0-0.1c0-0.1,0,0,0,0c0,0,0,0,0,0.1c0,0,0-0.1,0-0.1
			c0.1,0,0-0.1,0.1-0.1c0-0.1,0-0.1,0.1-0.1c0,0,0,0,0-0.1l-0.1,0c0,0,0,0,0,0.1c0,0,0,0,0,0c0,0.1-0.1,0.3-0.2,0.2c0,0,0,0.1,0,0.1
			c0,0,0,0,0-0.1c0,0-0.1,0.1,0,0.1c0,0.1-0.1,0.1-0.1,0.1c0,0,0-0.1,0-0.1c0,0-0.1,0.1-0.1,0.1c0,0,0,0.1,0,0c0,0-0.1,0.1-0.1,0.1
			c0,0,0,0,0,0c0,0,0,0,0,0.1c0,0,0,0,0,0c0,0.1-0.1,0.2-0.2,0.2c0,0,0,0,0-0.1c0,0,0,0.1-0.1,0.1c0-0.1,0-0.1,0.1-0.1
			c0-0.1,0.1-0.1,0.1-0.2c-0.1,0.1-0.2,0.2-0.2,0.3c0,0,0,0,0,0c0,0.1-0.1,0-0.1,0.1c0,0,0,0,0.1,0c0,0.1,0,0,0,0.1c0,0,0,0,0,0
			c0,0,0,0,0,0c0,0.1-0.1,0.2-0.2,0.2c0,0,0,0,0-0.1c-0.1,0.1-0.2,0.2-0.3,0.3c0,0,0,0,0-0.1c-0.1,0,0,0.1,0,0.1c0,0.1,0,0-0.1,0
			c0,0.1,0.1,0,0,0c-0.1,0.1-0.1,0.2-0.2,0.2c0,0.1,0,0.1-0.1,0.1c0,0,0,0-0.1,0c0,0.1-0.1,0.1-0.1,0.2c0,0,0-0.1,0-0.1
			c-0.1,0-0.1,0.1-0.1,0.2c0,0,0,0-0.1,0c0,0,0.1-0.1,0-0.1c-0.1,0.1-0.1,0.2-0.2,0.3c-0.1,0,0-0.1-0.1-0.1
			c-0.1,0.1-0.1,0.2-0.3,0.2c0,0.1-0.1,0.1-0.1,0.1c0,0,0,0,0,0.1c-0.1,0-0.2,0.2-0.2,0.2c-0.1,0.1-0.3,0.2-0.3,0.3
			c-0.1,0-0.1,0.1-0.2,0.1c0,0.1-0.1,0.1-0.1,0.1c0,0,0,0-0.1,0c-0.2,0.2-0.4,0.3-0.6,0.4c0,0,0,0.1,0,0c-0.2,0.1-0.3,0.2-0.5,0.3
			c0,0.1-0.1,0-0.1,0.1c0,0,0,0,0,0c-0.1,0-0.1,0-0.2,0.1l-0.1,0c-0.2,0.1-0.3,0.2-0.5,0.3c0,0,0,0,0,0c-0.3,0.1-0.6,0.3-0.9,0.5
			c0,0.1-0.3,0.1-0.4,0.2c-0.1,0-0.1,0.1-0.2,0.1l0,0c-0.1,0-0.1,0.1-0.2,0.1c-0.1,0.1-0.4,0.1-0.6,0.2l0,0
			c-0.2,0.1-0.5,0.2-0.7,0.3c-0.1,0-0.2,0.1-0.3,0.1c-0.1,0.1-0.1,0-0.2,0.1c-0.2,0-0.4,0.1-0.5,0.1c-0.2,0-0.4,0.1-0.6,0.1
			c-0.2,0-0.4,0.1-0.6,0.1l0,0c0,0,0,0,0,0c-0.1,0-0.2,0-0.3,0.1c-0.1,0-0.2,0-0.3,0.1l0,0c0,0,0,0.1-0.1,0c0,0,0,0,0,0
			c0,0-0.1,0-0.1,0c-1.6,0.1-3.1,0-4.7-0.4l0,0c-0.2-0.1-0.4-0.1-0.6-0.2c0,0-0.1,0-0.1,0c0,0-0.1,0-0.2-0.1l-0.1,0
			c-0.1,0-0.1-0.1-0.2-0.1c-0.2-0.1-0.3-0.2-0.5-0.2c-0.2-0.1-0.3-0.1-0.5-0.3l-0.1,0c0-0.1-0.1-0.1-0.2-0.1c0,0,0,0,0-0.1
			c-0.1,0-0.1,0-0.1,0c-0.1,0-0.2-0.1-0.3-0.1c0,0,0,0,0,0c0,0-0.1,0-0.1,0c0,0,0,0,0,0c0,0,0,0-0.1,0c0,0,0,0,0,0
			c0,0-0.1,0-0.2-0.1c0-0.1,0,0,0.1,0c-0.1,0-0.2-0.1-0.3-0.1l0-0.1c0,0,0,0,0,0c-0.1,0-0.1,0-0.2-0.1c0,0-0.1-0.1,0-0.1
			c0,0-0.1,0-0.1-0.1c-0.1,0,0,0,0,0.1c-0.1,0-0.1-0.1-0.2-0.1c0,0,0,0,0,0c0,0,0,0,0-0.1c0,0.1,0,0-0.1,0c-0.1-0.2-0.4-0.2-0.4-0.3
			c-0.1,0-0.1,0-0.2-0.1c0,0,0.1,0,0.1,0c0,0,0,0,0-0.1c0.1,0,0.1,0,0.2,0.1c-0.1,0.1,0.1,0.1,0.1,0.1c-0.1-0.1-0.2-0.2-0.4-0.2
			c0,0,0,0,0,0c-0.1,0-0.2-0.1-0.2-0.1c0,0,0,0,0-0.1c-0.1,0-0.2-0.1-0.3-0.1c-0.1-0.1-0.2-0.2-0.4-0.3c-0.1-0.1-0.2-0.1-0.3-0.2
			c-0.1-0.2-0.5-0.3-0.6-0.6c0,0.1-0.1-0.1-0.2,0c0,0-0.1,0-0.1-0.1c-0.2-0.1-0.4-0.3-0.4-0.5c0,0-0.1,0-0.1,0c0,0,0-0.1,0-0.1
			c0,0-0.1,0-0.1-0.1c0,0-0.1,0-0.1,0c0,0,0,0,0,0.1c-0.1-0.1-0.3-0.3-0.3-0.5c-0.1,0-0.1,0-0.1-0.1c-0.2,0-0.3-0.2-0.5-0.3v-0.1
			c0,0-0.1-0.1-0.1-0.1c0,0,0,0,0,0c-0.1-0.1-0.2-0.3-0.3-0.3c-0.1-0.1-0.2-0.3-0.4-0.4c0-0.1-0.2-0.3-0.3-0.3
			c-0.1-0.1-0.2-0.2-0.3-0.3c0,0,0,0.1,0,0.1c0,0,0-0.1-0.1-0.1c0,0.1,0.1,0.1,0,0.1c0.1,0,0.1,0.2,0.1,0.1c0,0,0,0.1,0,0.1
			c0,0.1,0.1,0.1,0.1,0.2c-0.1,0-0.1-0.1-0.2-0.1c0.1,0.1,0.2,0.3,0.3,0.4c0.1,0.1,0.2,0.3,0.3,0.4c0,0,0,0.1,0,0.1c0,0,0,0,0,0
			c0,0,0,0.1,0.1,0.1c0,0.1,0.1,0.1,0.2,0.2c0,0-0.1,0-0.1,0c0,0,0,0.1,0,0.1c-0.1,0,0-0.1-0.1-0.1c0,0,0.1,0,0,0.1c0,0,0,0,0.1,0
			c0,0,0,0,0,0c0,0-0.1,0-0.1,0c0,0,0,0,0,0c0.1,0,0-0.1-0.1-0.1c0,0,0,0,0-0.1c-0.1-0.1-0.1-0.1-0.2-0.1c0,0,0.1,0,0.1,0.1
			c0,0-0.1-0.1-0.1-0.1c0-0.1-0.1-0.2-0.2-0.3c0,0.1,0.1,0.1,0.2,0.2c-0.1,0-0.2-0.1-0.2-0.2c-0.1-0.1-0.1-0.1-0.2-0.2
			c-0.2-0.2-0.3-0.5-0.5-0.7c0,0.1,0.1,0.1,0,0.2c0,0.1,0.1,0.1,0.1,0.2c0,0,0,0,0,0c0,0.1,0,0.1,0.1,0.2c0,0,0,0-0.1,0
			c0,0.1,0.1,0.1,0.1,0.2c0,0.1,0,0,0,0c0,0.1,0.1,0.1,0.2,0.2c0,0.1-0.1-0.1-0.1-0.1c0,0,0,0,0,0.1c0,0,0,0,0,0c0,0,0,0.1,0.1,0.1
			c0,0,0,0,0,0.1c0.1,0.1,0.1,0.1,0.1,0.2c0,0,0.1,0,0.1,0c0,0,0,0,0.1,0.1c0,0,0,0.1-0.1,0.1c-0.1-0.1-0.2-0.2-0.2-0.2
			c-0.1-0.1-0.2-0.3-0.2-0.4c0,0.1-0.1-0.1-0.1-0.1c0,0,0,0.1,0.1,0.1c0-0.1-0.1-0.1-0.1-0.2c0-0.1,0,0,0-0.1
			c-0.1,0-0.1-0.1-0.2-0.2c-0.1,0-0.1-0.1-0.2-0.2c-0.1,0,0,0.1,0,0.1c0,0-0.1-0.1-0.1-0.2c0-0.1-0.1-0.2-0.1-0.3
			c-0.1-0.1-0.2-0.5-0.3-0.4c0-0.1-0.1-0.1-0.1-0.2c0,0,0,0,0.1,0c-0.1-0.2-0.3-0.3-0.4-0.3c0,0.1,0,0.1,0,0.1c0,0.1,0.1,0.3,0,0.4
			c0.1,0,0.1,0.1,0.1,0.1c0,0,0,0,0,0c0,0,0,0,0.1,0c0,0,0,0.1,0,0.1c0,0,0,0-0.1,0c0,0,0,0.1,0,0.1c0,0.1,0.1,0.3,0.2,0.4
			c0,0.2,0.1,0.3,0.3,0.4v0c-0.1,0-0.2-0.1-0.2-0.2c0,0,0,0.1,0,0.1c0.2,0.2,0.2,0.3,0.3,0.5c0,0,0,0,0,0c0-0.1-0.1-0.2-0.2-0.2
			c0,0,0,0.1,0,0.1c0,0,0,0,0,0.1c0,0,0,0,0.1,0c0,0.1,0.1,0.2,0.2,0.2c0,0,0,0,0,0.1c0,0,0,0-0.1,0c0,0.1,0.1,0.1,0.1,0
			c0,0,0,0,0,0.1c0.1,0.1,0.1,0,0.1,0c0,0,0,0.1,0,0c0,0.1,0,0,0.1,0c0,0,0,0.1,0,0.1c0,0,0,0-0.1-0.1C22.9,22,23,22,23,22
			c0,0.1,0.1,0.2,0.2,0.2c0,0.1,0,0,0,0.1c0,0-0.1-0.1-0.1-0.1c0,0.1,0,0.1-0.1,0c0,0,0,0.1,0,0.1c0,0,0,0.1,0,0.1
			c0.1,0,0.1,0.1,0.2,0.2c0,0-0.1,0-0.1-0.1c0,0,0,0,0,0l0,0c0,0.1,0.1,0.1,0.1,0.1c0,0-0.1,0-0.1,0.1c0,0,0,0,0.1,0
			c0,0.1,0,0.1,0,0.1c0,0,0,0,0.1,0c0,0,0,0,0,0.1c0.1,0.1,0.1,0.1,0.1,0.2c0,0.1,0,0-0.1,0c0,0,0.1,0.1,0.1,0.1c0,0,0,0,0,0
			c0.1,0.2,0.2,0.3,0.3,0.5c0,0,0,0,0,0c0,0,0.1,0,0.1,0.1c-0.1,0.1,0.2,0.2,0.2,0.3c-0.1,0-0.2-0.1-0.3-0.2c0,0.1,0.1,0.1,0.1,0.1
			l0.1,0c0,0,0,0,0,0.1c0,0-0.1,0-0.1-0.1c0,0,0,0-0.1,0c0,0.1,0.1,0.1,0.1,0.1c0.1,0,0.1,0.1,0.2,0.1c0,0.1,0,0-0.1,0
			c0,0.1,0,0.1,0.1,0.1c0,0,0,0,0.1,0c0,0,0,0,0-0.1c0,0,0.1,0.1,0.1,0.1l0.1,0.1c0,0,0,0,0,0.1c0,0.1,0,0,0,0.1
			c0.1,0,0.1,0,0.2,0.1c0,0.1,0.1,0.1,0.1,0.2c0.1,0,0.1,0.1,0.2,0.1c0,0.1-0.1,0-0.1,0C24.7,25,24.9,25,25,25
			c-0.1-0.1-0.2-0.1-0.2-0.1c0,0,0,0,0,0c0,0-0.1,0-0.1,0c0-0.1-0.3-0.2-0.3-0.3c0.1,0,0.2,0.2,0.3,0.3c0.1,0,0.2,0.1,0.3,0.3
			c-0.1,0-0.1,0-0.1,0c0,0,0.1,0,0.1,0.1c0,0.1,0.1,0.1,0.1,0.2c0.1,0.1,0.1,0,0.2,0.1c0,0,0,0,0,0c0,0,0,0.1,0.1,0.1
			c0,0.1,0,0-0.1,0c0,0,0.1,0.1,0.1,0.1c0,0,0.1,0.1,0.1,0.1c0,0.1,0.1,0.1,0.2,0.1c0,0.1-0.1,0-0.1,0c0.1,0.1,0.1,0.1,0.2,0.1
			c0,0.1,0,0,0,0.1c0,0,0-0.1,0-0.1c0,0,0-0.1-0.1-0.1c0,0,0,0,0-0.1c0,0,0,0,0,0c0,0,0,0.1,0,0.1c0,0,0,0,0,0c0,0,0.1,0.1,0.1,0.1
			c0,0,0,0,0,0c0,0,0,0,0,0c0,0,0,0,0,0.1c0.2,0,0.3,0.2,0.5,0.3c0,0,0,0,0,0c0,0,0.1,0,0.2,0.1c0,0-0.1,0-0.1,0c0-0.1,0-0.1,0,0
			c0.1,0.1,0.2,0.1,0.3,0.2c0,0.1-0.1-0.1-0.1,0c0,0,0,0.1,0.1,0c0.1,0.1,0.4,0.3,0.5,0.4c0,0-0.1,0-0.1,0c0,0,0.1,0,0.1,0
			c0,0,0-0.1-0.1-0.1c0,0,0,0,0,0c0.1,0,0.1,0.1,0.2,0.1c0,0,0,0,0,0.1c0.1,0,0.1,0.1,0.1,0.1c0,0,0,0,0,0c0,0,0.1,0,0.1,0.1
			c0,0,0,0,0,0c0.2,0.2,0.3,0.2,0.5,0.4c0,0,0,0,0,0c0,0,0.1,0,0.1,0.1c0.1,0,0-0.1,0.1,0c0,0.1,0.1,0.1,0.1,0.1c0,0,0,0,0,0.1
			c0,0,0,0,0,0c0,0.1,0,0,0.1,0.1c0,0,0,0,0,0.1c0,0,0,0,0,0c0.1,0,0.2,0.2,0.2,0.2c0.1,0-0.1-0.1,0-0.1c0,0,0,0,0,0.1
			c0.1,0,0.1,0.1,0.1,0c0,0,0.1,0.1,0.1,0.1H29c0-0.1,0,0,0,0c0.1,0,0.2,0.1,0.3,0.1c0,0,0,0.1-0.1,0c0,0.1,0.1,0,0.2,0.1
			c0,0.1,0.1,0.1,0.1,0.1c0,0.1,0.1,0.1,0.2,0.1c0,0-0.1,0-0.1,0c0,0-0.1,0,0,0.1c0.1,0,0.2,0,0.2,0c0,0,0,0,0.1,0.1
			c0,0.1-0.1-0.1-0.1,0c0,0-0.1,0-0.1,0c0,0.1,0.1,0,0.1,0.1c0,0,0.1,0,0.1,0c0,0.1,0.1,0,0.1,0.1c0.1,0,0.1,0,0.2,0.1
			c0,0,0-0.1-0.1-0.1c0,0,0.1,0,0.1,0.1c0,0,0,0-0.1,0c0,0,0,0,0,0.1c0-0.1,0.1,0,0.1,0c0-0.1-0.1,0-0.1-0.1c0,0,0.1,0,0.1,0.1
			c0,0,0,0,0,0c0,0,0,0,0,0c0,0,0,0,0.1,0c0,0,0-0.1,0-0.1c0.1,0,0,0,0,0.1c0,0,0,0,0,0c0,0,0,0,0.1,0c0,0.1-0.1,0,0,0.1
			c0,0,0,0,0.1,0c0.1,0,0.1,0.1,0.1,0c0,0,0,0.1,0,0.1c0.1,0,0.1,0,0.1,0.1c0,0,0.1,0,0.2,0.1c0,0-0.1,0,0,0c0.1,0,0.1,0,0.2,0.1
			c0.1,0,0,0,0,0c0.1,0,0,0.1,0,0.1c0,0,0,0,0.1,0c0.1,0.1,0.2,0.1,0.3,0.1c0.1,0,0.1,0,0.2,0c0,0,0,0,0.1,0.1c0,0-0.1,0-0.1,0
			c0.1,0.1,0.1,0,0.2,0c0.1,0,0,0,0,0.1c0,0,0.1,0,0.1,0l0,0.1c0-0.1,0.1,0,0.1,0.1c0.1,0,0.1,0,0.1,0c0.1,0,0,0,0,0
			c0,0,0.1,0,0.1,0c0,0.1,0,0,0,0.1c0.1,0,0.1,0.1,0.1,0.1c0,0,0,0,0,0c0,0,0.1,0.1,0.2,0.1c-0.1-0.1-0.1-0.1-0.2-0.2
			c0.1,0,0.1,0.1,0.2,0.1c0,0-0.1-0.1,0-0.1c0,0,0.1,0.1,0.1,0.1c0,0,0.1-0.1,0.1-0.1c0,0.1,0,0.1,0.1,0.1c0,0-0.1,0,0,0.1
			c0,0,0,0,0-0.1c0,0,0.1,0.1,0.1,0c0,0,0.1,0,0.1,0.1c0,0-0.1,0-0.1,0c0.1,0,0.4,0,0.3,0.1c0,0,0.1,0,0.1,0c0.1-0.1,0.2,0,0.3,0
			c0,0.1,0.1,0,0.1,0.1c0,0,0,0,0.1,0c0.1,0,0.2,0.1,0.3,0c0,0,0.1,0.1,0.1,0c0,0.1,0.1,0,0.1,0.1c0,0,0,0,0-0.1
			c0,0,0.1,0.1,0.1,0.1c0.1,0,0,0,0.1,0c0,0,0,0,0,0c-0.1,0-0.1,0-0.1-0.1c0.1,0,0.2,0,0.3,0.1c0,0,0,0,0,0c0,0-0.1,0-0.1,0
			c0.1,0,0.1,0,0.2,0.1c0,0,0,0,0.1,0c0,0,0,0,0,0c0.1,0,0.1,0,0.2,0c0,0,0,0,0,0.1c0.1,0,0,0,0,0c0,0,0,0,0,0c0,0,0,0,0,0
			c0.2,0.1,0.4,0.1,0.5,0.1c0,0,0,0,0,0c0.1,0,0.1,0,0.2,0c0,0,0,0,0,0c0,0,0.1,0,0.1,0c0,0,0,0,0,0c0,0,0.1,0,0.1,0c0,0,0,0,0,0
			c0,0,0,0,0.1,0c0,0,0,0,0,0l0.1,0c0,0,0,0,0,0.1c0.1,0,0.1,0,0.2,0s0.1,0,0.2,0l0,0c0,0,0.1,0,0.1,0c0,0,0,0,0,0
			c0.1,0,0.2,0,0.2,0c0,0,0,0,0.1,0c-0.1,0,0,0,0,0c-0.1,0-0.1,0-0.3,0c0,0,0,0,0,0c0,0,0,0-0.1,0c0,0,0,0-0.1-0.1
			c0.1,0,0.3,0,0.4,0.1c0,0,0,0,0,0c0,0,0,0,0,0c0.1-0.1,0.1,0,0.2,0c0,0,0.1,0,0.1,0c0,0-0.1,0.1,0,0.1c0,0-0.1,0-0.1,0
			c0,0,0,0,0.1,0c0,0,0.1,0,0.1-0.1c0,0,0.1,0,0.1,0c0,0.1,0.1,0,0.2,0c0,0.1,0,0,0.1,0c0,0,0,0,0,0c0.1,0,0.2,0,0.2,0
			c0,0,0,0,0-0.1c0,0,0,0,0.1,0c0,0,0,0,0,0c0,0,0,0,0.1,0c0,0,0,0,0,0.1c0.1,0,0.2,0,0.2,0c0,0,0,0,0,0.1c0-0.1,0.1,0,0.1,0
			c0.1,0,0.1-0.1,0.2,0c0-0.1,0.1,0,0.2,0c0,0,0,0,0,0c0-0.1,0.1,0,0.2-0.1c0,0-0.1,0-0.1,0c0,0,0.1,0,0.1,0c0,0-0.1,0-0.1,0
			c0,0,0,0,0,0c0,0,0.1,0,0.1,0c0,0,0.1,0,0,0.1c0,0,0.1,0,0.1,0c0,0,0-0.1,0-0.1c0,0.1-0.1,0.1-0.2,0.2c0,0,0.1,0,0.1,0
			c0,0,0-0.1,0.1,0c0,0,0,0,0,0c0.1,0,0,0,0.1,0c0-0.1,0.2-0.1,0.2,0c0,0,0.1,0,0.1-0.1c0,0-0.1,0-0.1,0c0,0,0.1,0,0.1,0
			c0,0,0,0,0-0.1c0,0,0,0,0,0c0,0,0,0,0-0.1c0,0-0.1,0-0.1,0c0,0,0,0,0,0c0.1,0,0.1,0,0.2,0c0,0-0.1,0.1,0,0.1c0,0,0,0,0.1,0
			c0,0.1,0,0,0.1,0c0,0,0,0,0.1-0.1c0,0.1,0.1,0,0.1,0c-0.1,0-0.3,0.1-0.4,0.1c0.1,0.1-0.1,0-0.1,0.1c0,0,0,0,0.1,0
			c0-0.1,0.1,0,0.1,0c0,0,0.1-0.1,0-0.1c0,0,0.1,0,0.1,0c0,0-0.1,0,0,0c0,0-0.1,0-0.1,0c0,0,0,0,0,0c0.1-0.1,0.1,0,0.1,0
			c0-0.1,0.1,0,0.2-0.1c0,0,0,0,0,0c0.1-0.1,0.2,0,0.2-0.1c0.1,0,0,0,0,0.1c-0.1,0-0.1,0-0.2,0c0,0,0,0.1,0,0.1c0,0,0,0,0,0
			c0,0,0,0,0,0c0.1,0,0.2,0,0.3-0.1c0,0.1,0.1,0,0.1,0.1c0,0,0,0,0.1,0c0-0.1-0.1,0-0.1,0c0,0,0-0.1,0.1-0.1c0.1,0,0,0.1,0,0.1
			c0.1,0,0,0,0.1,0c0,0,0,0,0-0.1c0,0,0.1,0,0.1,0c-0.1,0-0.1,0.1-0.2,0c-0.1,0-0.1,0.1-0.2,0.1c0,0,0.1,0,0.1,0c0,0-0.1,0,0,0
			c0-0.2,0.3-0.1,0.5-0.2c0,0,0,0,0,0c0,0-0.1,0-0.1,0c0,0,0.1-0.1,0.1,0c0,0,0.1-0.1,0.1-0.1c0,0-0.1,0.1-0.1,0c0,0,0,0.1,0,0.1
			c0.1,0,0,0,0.1,0c-0.1,0-0.1,0-0.2,0.1c0.1,0,0,0,0.1,0.1c0,0-0.1,0,0-0.1c0.1,0,0.2,0,0.2,0c0,0,0,0,0,0c0,0-0.1,0-0.1,0
			c0,0,0,0,0.1-0.1c0,0,0,0,0,0c0.1,0,0-0.1,0.1-0.1c0,0,0,0.1,0,0.1c0.1-0.1,0.2-0.1,0.3-0.1c0,0,0,0,0,0.1c0,0,0.1,0,0.1-0.1
			c0,0,0,0-0.1,0c0.1,0,0.1,0,0.2-0.1c0,0,0,0.1-0.1,0.1c0,0,0,0.1,0,0.1c0-0.1,0.1-0.1,0.2-0.1c0,0-0.1,0-0.1,0c0,0,0.1,0,0.1-0.1
			c0,0,0,0,0,0c0-0.1,0.1,0,0.2-0.1c0,0.1-0.1,0.1-0.1,0.1c0,0,0,0,0,0c0.1,0,0,0,0,0c0,0,0.1,0,0.1-0.1c0,0,0.1,0,0.1,0
			c0,0,0,0.1,0,0c0,0.1,0.1-0.1,0.2,0l0.1-0.1c0,0,0,0,0,0c0,0,0,0,0.1,0c0.1-0.1,0.1-0.1,0.3-0.1c0.1-0.1,0.2-0.1,0.3-0.1
			c0,0-0.1,0-0.1,0c0-0.1,0.1-0.1,0.2-0.1c0,0-0.1,0,0,0.1c0,0,0.1,0,0.1,0c0,0,0.1-0.1,0.1-0.1c0.1,0,0.1,0,0.1,0
			c0,0,0.1-0.1,0.1,0c0.1-0.1,0.2-0.1,0.3-0.1c0.1,0,0,0.1,0,0.1c0.1-0.1,0,0,0-0.1c0,0,0.1,0,0.1,0c0,0,0.1,0,0.1,0c0,0,0,0,0.1,0
			c0,0,0,0,0,0c0,0,0,0-0.1,0c0,0,0.1,0,0.1,0c0,0-0.1,0-0.1,0c0,0,0,0,0-0.1c0,0,0.1,0,0.1,0c0.1,0,0,0,0,0.1c0.1,0,0,0,0-0.1
			c0,0,0.1,0,0.2-0.1c0,0,0,0.1,0,0.1c0.1,0,0.1,0,0.2,0c0.1,0,0.1,0.1,0.2,0c0,0-0.1,0-0.1,0c0,0,0.1,0,0.1-0.1c0,0,0,0,0-0.1
			c0,0-0.1,0-0.1,0.1c0,0,0,0,0-0.1c0,0,0,0,0.1,0c0.1,0,0,0,0,0c0,0,0-0.1,0.1-0.1c0,0,0,0-0.1,0c0,0,0,0,0-0.1c0,0,0.1,0,0.1,0
			c0,0,0.1-0.1,0.1,0c0,0,0-0.1,0.1-0.1c0,0,0,0,0,0.1c0.1,0,0.2,0,0.2-0.1c0,0,0.1,0,0.1,0c0.1-0.1,0.2-0.2,0.2-0.3
			c0,0,0.1,0,0.1-0.1c0.1,0,0,0.1,0.1,0.1c0,0.1,0,0-0.1,0c0,0.1,0,0.1,0,0.1c0,0,0,0,0,0c0,0,0.1-0.1,0.1-0.1c0,0,0,0,0,0.1
			c0,0,0.1-0.1,0.1,0c0-0.1,0.1-0.1,0.2-0.1c0,0,0-0.1,0-0.1c0,0,0,0-0.1,0.1c0,0,0,0,0,0c0,0-0.1,0.1-0.2,0.1
			c0.1-0.1,0.2-0.1,0.3-0.2c0.1-0.1,0.2-0.1,0.3-0.2c0,0,0,0,0,0c0,0,0.1,0,0.1-0.1c0,0,0,0,0.1,0c0,0-0.1,0.1,0,0.1
			c0-0.1,0.1-0.1,0.1-0.1c0-0.1,0-0.1,0.1-0.1c0-0.1,0.1-0.1,0.1-0.1c0.1,0,0.2,0,0.2-0.1c0.1-0.1,0.2-0.1,0.3-0.2
			c0,0,0-0.1,0.1-0.1c0,0,0-0.1,0-0.1c0,0,0,0,0,0c0,0,0,0,0,0.1c0.1,0,0-0.1,0.1-0.1c0-0.1,0-0.1,0.1-0.1c0,0,0,0,0,0.1
			c0.1-0.1,0.2-0.2,0.3-0.3c0-0.1,0.1,0,0.1,0c0,0,0,0.1,0,0.1c0,0,0-0.1,0-0.1c0.1,0,0,0,0.1-0.1c0.1,0,0,0.1,0,0.1c0,0,0,0,0,0
			c0.1,0,0.2-0.1,0.3-0.2c0,0,0,0.1,0,0.1c0-0.1,0.1-0.1,0.2-0.2c0,0,0,0,0-0.1c0,0,0,0,0,0c0,0,0,0,0-0.1c0,0,0,0,0,0
			c0.1,0,0.1-0.1,0.1-0.1c0,0,0,0,0,0c0,0,0,0,0,0c0.1-0.1,0.3-0.2,0.3-0.3c0.1,0,0.1-0.1,0.1-0.1c0-0.1,0.1-0.1,0.1-0.2
			c0,0-0.1,0-0.1,0c0-0.1,0.1,0,0.1-0.1c0,0,0,0,0,0c0.1-0.1,0.1-0.1,0.2-0.1c0,0,0,0,0,0c0,0,0.1,0,0.1-0.1c0-0.1,0.2-0.2,0.3-0.3
			c-0.1,0.1-0.2,0.2-0.3,0.3c0-0.1,0.1-0.1,0.1-0.1c0,0-0.1,0-0.1,0l0-0.1c0,0,0,0,0.1,0c0.1-0.1,0-0.1,0.1-0.2c0,0,0,0.1,0,0.1
			c0,0,0,0,0,0c0,0,0-0.1,0.1-0.2c0,0,0,0,0,0.1c0.1,0,0-0.1,0.1-0.2c0.1,0,0,0.1,0.1,0c0,0,0,0,0,0c0,0,0-0.1,0-0.1
			c0,0,0.1-0.1,0-0.1c0,0,0-0.1,0.1-0.1c0,0,0,0.1,0,0.1c0,0,0-0.1,0.1-0.1c0,0,0,0,0.1,0c0-0.1,0.1-0.1,0.1-0.2c0,0,0,0,0,0.1
			c0.1-0.1,0-0.2,0.1-0.2c0,0,0-0.1,0-0.1c0,0,0,0-0.1,0l0-0.1c0.1,0,0.1-0.1,0.2-0.2c0,0,0,0.1-0.1,0.1c0,0,0,0.1,0,0.1
			c0,0,0.1-0.1,0.1-0.2c0.1,0,0,0,0.1,0c0-0.1,0.1-0.2,0.2-0.3c0,0,0,0,0,0.1c0,0,0,0,0.1,0c0-0.1,0.1-0.1,0.1-0.2
			c0.1,0,0.1-0.1,0.1-0.2c0,0.1-0.1,0.1-0.1,0.1c0,0,0,0,0,0c0,0,0,0.1-0.1,0.1c0,0,0,0,0-0.1c0,0-0.2,0-0.2,0.1
			c-0.1,0-0.1,0.1-0.2,0.2c0,0,0,0,0,0c-0.1,0.1-0.2,0.2-0.3,0.3c0,0-0.1,0.1-0.1,0c0,0,0,0.1-0.1,0.1c0,0,0,0,0.1,0c0,0,0,0,0,0.1
			c0,0,0,0,0,0c0,0-0.1,0-0.1,0.1c0,0,0,0,0,0c0,0-0.1,0-0.1,0.1c0,0-0.1,0-0.1,0c0,0,0-0.1,0,0c0,0.1-0.2,0.2-0.2,0.2
			c0,0,0,0,0,0.1c0,0,0,0,0,0c0,0,0,0-0.1,0c0,0.1-0.2,0.2-0.3,0.3c0,0,0,0.1,0,0.1c0.1,0,0-0.1,0.1-0.1c0,0,0,0,0,0
			c0,0.1-0.1,0.1-0.1,0.1c0-0.1,0.1,0,0.1-0.1c0,0-0.1,0-0.1,0c-0.1,0.1-0.1,0.1-0.2,0.2c0-0.1,0,0-0.1,0c0,0,0.1-0.1,0.1-0.1
			c0,0,0,0,0,0c0,0-0.1,0.1-0.1,0.1c0,0,0,0,0.1,0c0,0.1-0.1,0.1-0.1,0.2c0,0,0,0,0,0.1c-0.1,0.1,0,0-0.1,0c0,0,0,0,0,0
			c-0.1,0-0.2,0.1-0.3,0.1c0,0.1-0.1,0.1-0.2,0.2c0,0,0-0.1,0-0.1c-0.1,0,0,0.1-0.1,0.1c0,0,0,0.1,0,0.1c-0.1,0.1-0.1,0.1-0.2,0.2
			c0,0.1-0.1,0.1-0.1,0.1c0,0,0,0,0,0c0,0,0,0,0.1,0c0,0,0,0,0,0l0,0c0,0-0.1,0.1-0.1,0.1c0,0,0,0,0.1-0.1c0,0-0.1,0-0.1,0
			c0-0.1-0.1,0.1-0.1,0.1c0,0,0,0.1,0,0.1c0-0.1,0,0-0.1-0.1c0,0,0,0,0,0c0,0,0,0.1,0,0.1c0,0-0.1,0-0.2,0.1c0,0,0,0,0-0.1
			c-0.1,0-0.1,0.1-0.2,0.1l0,0.1H47c0-0.1,0.1-0.1,0.1-0.1c0,0.1-0.1,0.1-0.1,0.1c0-0.1-0.1,0-0.2,0.1c0,0,0.1-0.1,0.1-0.1
			c0,0-0.1,0-0.1,0.1c0,0,0,0,0,0.1c0,0.1,0,0-0.1,0c0,0,0,0,0,0c0,0,0,0.1-0.1,0.1c0.1,0,0,0,0,0.1c-0.1,0,0.1-0.1,0-0.1
			c0,0.1,0,0.1,0,0.1c-0.1,0,0-0.1,0-0.1c-0.1,0-0.1,0-0.1,0.1c-0.1,0,0,0,0-0.1c-0.1,0-0.1,0.1-0.2,0.2c0,0,0,0-0.1,0
			c0,0.1-0.1,0.1-0.1,0.1c0,0,0,0,0-0.1c0,0,0,0,0,0c0,0,0,0,0,0c0.1,0,0.1-0.1,0.1-0.1c-0.1,0-0.1,0-0.1,0.1c0,0,0.1,0,0,0
			c0.1,0,0.1-0.1,0.1-0.1c0,0,0,0,0,0c0,0,0,0,0.1,0c0,0,0,0,0,0c0-0.1,0.1,0,0.1-0.1c0,0,0,0.1,0.1,0c0-0.1,0-0.1,0-0.1
			c0,0-0.1,0-0.1,0c0,0,0,0,0,0c0,0-0.1,0.1-0.1,0.1c0,0,0,0,0-0.1c0,0,0.1,0,0.1-0.1c0,0,0,0.1,0.1,0c0-0.2,0.3-0.2,0.4-0.3
			c0,0,0,0.1,0,0.1c-0.1,0.1-0.2,0.1-0.4,0.2c0,0,0.1,0,0.1,0c0,0,0.1,0,0.1,0c0,0,0.1-0.1,0.1-0.1c0,0,0,0.1,0.1,0
			c0-0.1,0-0.1,0.1-0.1c0,0,0,0,0.1,0c0.1,0,0.1-0.1,0.2-0.2c0,0,0,0,0,0c0,0,0,0,0,0c0.1,0,0.1-0.1,0.2-0.1l0-0.1c0,0,0,0,0.1,0
			c0-0.1-0.1,0-0.1,0c0-0.1,0.1,0,0.1-0.1c0.1,0,0,0.1,0.1,0.1c0,0,0,0,0,0c0.1-0.1,0.1-0.1,0.2-0.2c0-0.1-0.1,0-0.1,0
			c0,0,0-0.1,0.1-0.1c0,0,0,0,0,0.1c0,0,0-0.1,0.1,0c0,0,0,0,0-0.1c0,0,0,0,0,0c0.1,0,0-0.1,0.1-0.1c0,0,0,0.1,0,0.1
			c0,0,0-0.1,0-0.1c0,0,0,0,0,0c0,0,0,0.1,0,0.1c0,0,0,0,0.1,0c0.1-0.1,0.2-0.2,0.2-0.2c0,0.1,0.2-0.1,0.2-0.1c0,0-0.1,0.1-0.1,0.1
			c0.1,0,0.1-0.2,0.2-0.2c0,0,0,0,0,0c0-0.1,0-0.1,0.1-0.1c0.1,0,0.2-0.2,0.2-0.1c0.1-0.1,0.1-0.1,0.2-0.2c0,0,0,0-0.1,0
			c0.1-0.1,0.1-0.1,0.2-0.1c0-0.1,0-0.1,0-0.1c0,0,0.1-0.1,0.1-0.1c0,0,0,0.1,0,0.1c0,0,0.1-0.1,0.2-0.1c0,0,0.1,0,0,0
			c0,0,0,0,0.1-0.1c0,0,0,0,0,0c0.1-0.1,0.2-0.1,0.3-0.3l0.1,0c0,0,0,0,0-0.1c0.1,0,0.1-0.2,0.3-0.2c0-0.1,0.1-0.2,0.2-0.2
			c0,0.1,0,0.1,0,0.1c0.1-0.1,0.1-0.2,0.2-0.3c0,0,0-0.1-0.1-0.2c0,0,0.1-0.1,0.1-0.1c-0.1,0-0.2,0.2-0.2,0.1c0,0,0,0,0.1,0
			c0,0,0.1-0.1,0.1-0.2c0,0,0,0.1,0.1,0c0,0,0-0.1,0-0.1c0,0,0.1,0,0.1-0.1c0,0,0,0,0.1,0c0,0,0,0,0,0.1c0,0,0.1-0.1,0.1-0.1
			c0,0,0,0.1,0.1,0.1c0,0,0-0.1,0-0.1c0,0,0-0.1,0,0c0-0.1,0-0.1,0-0.1c0,0,0.1,0,0.1-0.1c0-0.1,0,0-0.1,0c0,0,0.1,0,0.1-0.1
			c0,0,0,0.1,0,0c0,0,0-0.1,0,0c0-0.1,0.1-0.2,0.2-0.3c0,0,0-0.1,0-0.1c0,0,0,0-0.1,0c0,0,0,0,0,0c-0.1,0.1-0.1,0.1-0.2,0.2
			c0-0.1,0.1-0.1,0.2-0.2c0,0-0.1,0.1-0.1,0.1c0-0.1,0.1-0.1,0.1-0.1c0,0,0,0,0.1,0c0,0,0,0,0-0.1c0,0,0,0,0,0c0,0,0-0.1,0.1-0.1
			c0,0,0-0.1,0-0.1c0.1,0,0,0,0.1,0c0-0.1,0.1-0.1,0.1-0.1c0-0.1,0.1-0.1,0.1-0.1c0,0,0,0,0,0.1c0.1,0,0.1-0.1,0.1-0.2
			c0,0,0-0.1,0-0.1c0,0,0.1-0.1,0-0.1c0,0,0,0,0.1,0c0,0,0-0.1,0.1-0.1c0-0.1,0,0,0-0.1c0,0,0,0.1,0,0.1c0,0-0.1,0-0.1,0.1
			c0,0,0.1-0.1,0.1-0.1c0,0,0,0,0.1,0c0-0.1,0.1-0.2,0.1-0.2c0,0,0,0,0,0c0,0,0-0.1,0.1-0.1c0,0,0-0.1,0-0.1c0,0.1-0.1,0.1-0.1,0.1
			c0,0,0,0-0.1,0c0-0.1,0.1-0.1,0.1-0.1c0-0.1,0,0-0.1,0c0,0,0,0.1,0,0.1c0,0.1,0,0.1,0,0.1c0,0,0-0.1,0.1,0c0,0-0.1,0-0.1,0.1
			c0,0,0-0.1-0.1,0c0.1,0,0,0.1-0.1,0.1c0,0,0,0,0-0.1c0,0-0.1,0.1-0.1,0.1c-0.1,0-0.1,0.1-0.1,0.1c0,0.1,0,0.1,0,0.1c0,0,0,0,0-0.1
			c-0.1,0-0.1,0.1-0.1,0.1c0,0,0,0,0,0c0,0.1-0.1,0.1,0,0.1c0,0,0,0-0.1,0c0,0,0,0,0-0.1c-0.1,0-0.1,0.1-0.1,0.1
			c0,0.1-0.1,0.1-0.1,0.1c0,0,0,0-0.1,0c0,0,0-0.1,0.1-0.1c0-0.1,0.1-0.1,0.1-0.2c0,0,0,0,0-0.1c0,0.2-0.3,0.2-0.2,0.4
			c0,0.1-0.1,0.1-0.1,0.2c0,0,0,0,0,0l0,0.1c0,0,0,0-0.1,0.1c0-0.1,0-0.1,0-0.1c0,0-0.1,0.1-0.1,0.1l0,0.1c0,0,0,0,0,0
			c0,0,0,0,0-0.1c-0.1,0.1,0,0.1-0.1,0.2c0,0,0,0,0,0c0,0,0,0.1,0,0.1c0-0.1-0.1,0.1-0.2,0.1c0-0.1,0.2-0.2,0.1-0.2
			c0-0.1,0.1-0.1,0.1-0.2c0,0-0.1,0.1-0.1,0.1c0-0.1,0-0.1,0-0.1c0.1,0,0.1-0.1,0.1,0c0-0.1,0-0.1-0.1-0.1c0-0.1,0.1,0,0.1,0
			c0,0,0-0.1,0-0.1c0,0,0,0,0.1,0c0-0.1,0,0,0.1-0.1c0-0.1,0.1-0.1,0.1-0.2c0,0,0,0,0,0c0,0.1-0.1,0.1-0.1,0.2c0,0,0-0.1,0-0.1
			c0,0,0,0,0,0c0-0.1,0-0.1,0.1-0.1c0-0.1,0,0,0-0.1c0,0,0,0,0,0c0,0,0,0,0,0c0,0,0-0.1,0.1-0.1c0,0,0,0,0,0c0-0.1,0.1-0.1,0.1-0.2
			c0.1-0.1,0.1-0.2,0.2-0.3c0-0.1,0-0.1,0.1-0.1c0,0,0,0,0-0.1c-0.1,0-0.1,0-0.1,0.1c0,0,0,0,0,0.1c0,0.1-0.1,0.1-0.1,0.2
			c0,0,0-0.1,0-0.1c0,0-0.1,0.1-0.1,0.1c-0.1,0.1-0.1,0.2-0.1,0.2c0-0.1,0-0.1,0.1-0.1c0,0,0,0.1-0.1,0.1c0,0,0,0,0,0
			c0,0.1-0.1,0.1-0.2,0.2c0,0,0,0,0-0.1c0,0,0,0.1-0.1,0.1c0,0,0.1,0,0.1,0c0,0,0,0,0,0c0,0,0,0-0.1,0.1c0,0,0,0,0,0c0,0,0,0,0,0.1
			c0,0,0,0,0,0c0,0,0,0,0-0.1c0,0,0.1,0,0.1-0.1c-0.2,0.3-0.5,0.6-0.7,0.9c0,0.1-0.1,0.1-0.1,0.1c0,0,0.1,0,0.1,0.1
			c0,0.1-0.1,0-0.1,0.1c0,0,0,0,0,0c0,0-0.1,0.1-0.1,0.2c0-0.1-0.1,0.1-0.2,0.1c0,0.1,0,0,0,0c-0.1,0.1,0,0-0.1,0.1c0,0,0,0,0,0
			c0,0,0,0-0.1,0c0,0,0,0,0,0.1c0,0.1-0.1,0-0.1,0.1c0,0,0,0,0-0.1c-0.1,0.1-0.1,0.1-0.2,0.2c0,0,0,0,0,0c0,0.1-0.1,0.2-0.2,0.3
			c0,0,0,0,0,0c0,0,0,0.1-0.1,0.1c0,0,0,0,0,0c-0.1,0.1-0.2,0.2-0.3,0.3c0,0,0,0-0.1,0c0,0,0,0,0-0.1c-0.1,0.1-0.1,0.2-0.3,0.3
			c0,0,0.1-0.1,0.1,0c-0.1,0-0.1,0-0.1,0.1c0,0.1,0,0,0.1,0c0,0.1-0.1,0.1-0.1,0.1c0,0,0-0.1,0-0.1c-0.1,0.1-0.1,0.2-0.2,0.3
			c0,0,0,0,0,0c0,0,0,0-0.1,0c0,0.1,0,0,0,0.1c0,0,0,0-0.1,0c0,0.1-0.1,0.1-0.1,0.1c0,0,0-0.1,0,0c-0.1,0-0.1,0.1-0.1,0.2
			c-0.1,0,0,0,0-0.1c-0.1,0.1-0.1,0.2-0.2,0.2c0,0,0-0.1,0,0c0,0-0.1,0-0.1,0c0,0,0-0.1,0,0c0,0,0,0,0-0.1c0,0-0.1,0.1-0.1,0.1
			c0,0,0,0.1,0,0.1c0,0,0,0,0,0c0,0-0.1,0.1-0.1,0.1c-0.1,0,0-0.1-0.1,0c0,0-0.1,0.1,0,0.1c-0.1,0.1-0.2,0.1-0.2,0.2c0,0,0,0,0,0.1
			c-0.1,0,0-0.1-0.1,0c0,0,0,0,0.1-0.1c0,0-0.1,0.1-0.1,0.1c0,0,0,0,0,0c0,0-0.1,0-0.1,0c0,0,0,0,0,0.1c0,0-0.1,0-0.1,0.1
			c0,0,0,0-0.1,0c0,0,0,0,0.1-0.1c-0.2,0-0.3,0.3-0.5,0.4c0,0,0-0.1,0-0.1c0,0-0.1,0.1-0.1,0.1c0,0,0,0,0,0.1
			c-0.1,0.1-0.3,0.1-0.3,0.2c0,0,0,0,0-0.1c-0.1,0-0.1,0.1-0.1,0.1c0,0,0,0,0,0c-0.1,0.1-0.2,0-0.2,0.1c0,0,0,0-0.1,0
			c0,0,0,0.1-0.1,0.1c0,0.1-0.2,0.1-0.2,0.2c0,0-0.1,0,0,0c0,0-0.1,0.1-0.1,0.1c0,0,0,0.1-0.1,0.1c0,0,0,0,0,0c0,0-0.1,0.1,0,0
			c0,0-0.1,0.1-0.1,0.1c0,0,0,0,0,0.1c0,0,0,0,0,0c-0.1,0-0.1,0.1-0.1,0.1c0-0.1,0.1,0,0.1-0.1c0,0-0.1,0-0.1,0c0,0,0,0,0-0.1
			c0,0,0.1,0,0.1-0.1c0,0,0,0-0.1,0c0,0,0-0.1,0-0.1c0,0,0,0,0,0.1c0,0,0,0,0.1-0.1c0,0,0.1-0.1,0.1,0c-0.1,0,0,0.1-0.1,0.1
			c0,0,0.1,0,0,0c0,0,0-0.1,0,0c0,0.1,0,0,0,0c0,0,0,0,0,0c0.1,0,0.2-0.1,0.3-0.1c0,0,0,0,0-0.1c0,0-0.1,0.1-0.1,0.1
			c-0.1-0.1,0.1-0.1,0.1-0.2c0.1,0,0,0.1,0.1,0.1c0-0.1,0.1,0,0.1-0.1c0,0-0.1,0.1-0.1,0c0.1,0,0-0.1,0.1-0.1c0.1,0,0,0.1,0.1,0.1
			l0-0.1c0,0,0,0,0,0c0.1-0.1,0.2-0.1,0.3-0.2c0,0-0.1,0-0.1,0c0-0.1,0.1-0.1,0.2-0.1c0,0-0.1,0-0.1,0.1c0,0,0.1,0,0,0
			c0.1,0,0.1-0.1,0.1-0.1c0,0,0,0,0.1-0.1c0,0,0,0,0,0c0.1,0,0.2-0.1,0.2-0.1c0,0,0.1-0.1,0.1-0.1c0,0,0,0,0,0c0,0,0,0,0-0.1
			c0.1,0,0,0,0,0.1C46,27,46,27,46,27c0,0-0.1,0,0-0.1c-0.1,0,0,0.1-0.1,0.1c0,0,0,0,0-0.1c0.1-0.1,0.2,0,0.2-0.1c0,0,0,0,0,0.1
			c0,0,0.1-0.1,0.1-0.1c0,0,0,0,0,0c0,0,0,0,0,0c0.1,0,0.1-0.1,0.2-0.1c0,0,0.1-0.1,0.1-0.1c0-0.1,0.1-0.1,0.2-0.2c0,0,0,0,0,0
			c0.1,0,0.1-0.1,0.1,0l0-0.1c0.1,0,0,0.1,0.1,0.1c0-0.1,0.1-0.1,0.1-0.1c0,0,0-0.1,0-0.1c0,0,0,0.1,0.1,0.1c0-0.1,0.1-0.2,0.1-0.2
			c0-0.1,0-0.1,0.1-0.1c0,0,0,0.1,0,0c0,0,0,0.1,0,0.1c0,0,0,0,0,0h0c0,0,0,0,0-0.1c0-0.1,0.1,0,0.1,0c0-0.1,0.1,0,0.1-0.1
			c-0.1,0-0.1,0-0.1,0.1c0,0,0,0-0.1,0c0,0,0-0.1,0.1-0.1c0-0.1,0,0,0-0.1c0.1,0,0.1-0.1,0.2-0.1c0,0-0.1,0-0.1,0.1
			c0,0,0-0.1,0.1-0.1c0,0-0.1,0.1,0,0.1c0.1,0,0-0.1,0.1-0.1c0,0.1,0.1-0.1,0.2-0.1c0,0,0.1-0.1,0.1-0.2c0,0.1,0.1-0.1,0.1-0.2
			c0,0,0,0,0,0c0,0,0.1,0,0.1-0.1c0.1,0,0.1-0.1,0.1-0.1c0,0,0,0,0.1,0c0.1-0.1,0.2-0.2,0.2-0.3c0,0,0,0,0.1,0c0-0.1,0-0.1,0.1-0.1
			c0,0,0-0.1,0-0.1c0,0,0,0.1,0,0.1c0,0,0,0,0.1,0c0,0,0,0,0-0.1c0,0,0,0,0,0c0.1,0,0.1-0.1,0-0.1c0-0.1,0,0,0.1,0c0,0,0-0.1,0-0.1
			c0,0,0,0,0.1,0c0,0,0-0.1,0.1-0.1c0,0,0,0,0,0c0-0.1,0.1-0.2,0.1-0.2c0,0,0-0.1,0.1-0.1c0,0,0,0.1,0,0.1c0,0,0.1-0.1,0.1-0.1
			c-0.1-0.1,0.1-0.2,0.1-0.2c0,0,0,0.1,0,0.1c0,0,0,0,0,0c0,0,0,0,0,0.1c0.1-0.1,0.1-0.1,0.1-0.1c0-0.1,0,0,0-0.1
			c0.1,0,0.2-0.3,0.3-0.4c0,0,0-0.1,0-0.1c0-0.1,0.1-0.1,0.1-0.1c0,0,0,0,0,0c0,0,0,0-0.1,0c0,0.1,0.1,0,0,0.1c0-0.1,0-0.1,0.1-0.1
			c0,0,0,0,0,0c0-0.1,0,0,0,0c0,0,0.1-0.1,0-0.1c-0.1,0.1-0.2,0.3-0.4,0.4c0,0,0,0,0,0c0,0,0,0,0,0.1c-0.1,0,0-0.1,0-0.1
			c0.1-0.1,0.2-0.1,0.2-0.3c0,0,0.1,0,0.1-0.1c0,0,0,0,0-0.1c0,0,0,0,0-0.1c0.1,0,0.1-0.1,0.1-0.1c0,0,0,0,0.1,0c0,0,0-0.1,0-0.1
			c0,0,0,0.1,0,0c0,0,0,0,0,0c0,0,0,0,0-0.1c0.1-0.1,0.1-0.1,0.2-0.2c0-0.1,0.1-0.1,0.1-0.1c0,0,0,0,0,0.1c0,0,0-0.1,0.1-0.1
			c0,0,0-0.1,0-0.1c0,0,0,0,0-0.1c0,0.1-0.1,0.1-0.1,0.2c-0.1,0,0,0,0,0c0,0.1,0,0.1,0,0.1c0,0,0,0.1,0,0.1c0,0-0.1,0.1-0.1,0.1
			c0,0,0-0.1,0-0.1c0,0,0,0,0,0.1c0,0-0.1,0-0.1,0.1c0,0,0,0.1,0,0.1c0,0,0,0-0.1,0c0,0,0,0.1-0.1,0.1c0,0,0,0,0,0
			c-0.1,0.1-0.1,0.2-0.2,0.3c0,0.1-0.1,0.1-0.1,0.2c-0.1,0-0.1,0.3-0.3,0.3c0,0,0,0,0,0.1c0,0-0.1,0-0.1,0c0-0.1,0.1-0.1,0-0.1
			c0,0,0,0,0.1,0c0-0.1,0,0-0.1,0c0-0.1,0.1-0.1,0.1-0.1c0,0,0,0.1,0,0.1c0,0,0.1-0.1,0.1-0.2c0,0,0,0.1-0.1,0.1
			c0.1-0.1,0.1-0.1,0.1-0.2c0,0,0,0.1,0,0.1l0-0.1c0.1-0.1,0.1-0.2,0.2-0.3c0,0.1,0,0,0.1-0.1c0,0,0-0.1,0,0c0-0.1,0.1-0.1,0.1-0.1
			c0,0,0,0,0.1,0c0,0,0-0.1,0-0.1c0-0.1,0.1-0.1,0.1-0.1c0,0,0.1-0.1,0.1,0c0-0.1,0.1-0.2,0.1-0.3c0,0.1,0,0.1,0,0.1
			c0,0,0.1,0,0.1-0.1c0,0-0.1,0,0,0c0,0,0,0,0,0.1c0,0,0-0.2,0.1-0.2c0-0.1,0-0.2,0.1-0.2v-0.1c0,0,0,0,0,0c0,0,0-0.1,0.1-0.1
			c0,0,0,0.1,0,0.1c0.1-0.1,0.1-0.3,0.2-0.3c0,0,0-0.1,0-0.1c0,0,0,0,0,0c0.1,0,0.1-0.2,0.1-0.2c0,0,0,0.1,0,0.1
			c0,0,0.1-0.1,0.1-0.2c0-0.1,0,0-0.1,0c0-0.1,0-0.1,0-0.1c0,0,0,0,0,0c0,0,0,0,0,0c0,0,0,0,0-0.1c0.1,0,0.1,0,0.1-0.1
			c0,0.1-0.1,0.1,0,0.1c0,0,0,0,0.1-0.1c0,0,0-0.1,0-0.1c0,0,0,0,0,0c0,0,0-0.1,0.1-0.1c0,0,0,0,0,0c0-0.1,0.1-0.1,0.1-0.2
			c0,0,0,0.1-0.1,0.1c0,0,0,0,0,0c0,0,0-0.1,0-0.1c0,0-0.1,0,0,0.1C50.9,20.2,50.9,20.1,50.8,20C50.8,20.1,50.8,20,50.8,20z
			 M48.1,23.4C48.1,23.5,48,23.5,48.1,23.4C48,23.5,48.1,23.5,48.1,23.4z M45.5,25.5C45.5,25.4,45.6,25.4,45.5,25.5
			c0.1-0.1,0.1-0.2,0.2-0.2c0,0,0,0,0,0.1C45.7,25.4,45.6,25.4,45.5,25.5c0.1-0.1,0.1-0.1,0.1-0.1C45.6,25.4,45.6,25.5,45.5,25.5z
			 M23.9,22.1C23.9,22,23.8,22.1,23.9,22.1C23.9,22,23.9,22,23.9,22.1z M23.3,22.6c-0.1-0.1-0.1-0.1-0.1-0.1c0,0,0-0.1-0.1-0.1
			c0-0.1,0-0.1,0-0.1c-0.1,0-0.1,0-0.1,0c0-0.1,0-0.1,0.1-0.1C23.1,22.4,23.2,22.4,23.3,22.6C23.2,22.6,23.2,22.5,23.3,22.6
			C23.2,22.5,23.3,22.6,23.3,22.6z M28.6,28.2c0.1,0,0.1,0.1,0.1,0.1C28.7,28.3,28.6,28.3,28.6,28.2z M32,30C32,30,32,30,32,30
			C32,30,31.9,30,32,30z M34.6,30.8C34.6,30.8,34.6,30.9,34.6,30.8C34.6,30.8,34.6,30.8,34.6,30.8z M49.8,25.4c0,0,0.1-0.1,0.1-0.1
			C49.9,25.3,49.8,25.5,49.8,25.4z M48.8,25.8c0,0,0.1-0.2,0.1-0.1C48.9,25.7,48.9,25.8,48.8,25.8z M51.6,22.3
			C51.6,22.3,51.6,22.3,51.6,22.3c0,0.1,0,0.1,0,0.1C51.5,22.4,51.5,22.3,51.6,22.3z M47.2,25.8c0.1-0.1,0.1-0.1,0.2-0.2
			C47.3,25.8,47.3,25.8,47.2,25.8z M48.8,24.2C48.8,24.2,48.8,24.1,48.8,24.2C48.8,24.2,48.8,24.3,48.8,24.2z M49.5,23.4
			C49.5,23.3,49.5,23.3,49.5,23.4C49.6,23.3,49.6,23.4,49.5,23.4z M50.7,20.5C50.7,20.5,50.7,20.5,50.7,20.5c0.1,0,0-0.1,0.1-0.1
			C50.8,20.4,50.7,20.5,50.7,20.5z M49.7,21.8C49.7,21.8,49.7,21.7,49.7,21.8C49.8,21.8,49.7,21.8,49.7,21.8z M48.6,22.9
			C48.6,22.9,48.6,22.8,48.6,22.9C48.7,22.9,48.7,22.9,48.6,22.9z M48.4,23.1c0,0,0.1-0.1,0.1-0.1C48.5,23.1,48.5,23.1,48.4,23.1z
			 M50.9,22.3c0,0.1-0.1,0.2-0.1,0.2C50.8,22.4,50.9,22.3,50.9,22.3z M47.4,23.5C47.4,23.4,47.5,23.4,47.4,23.5
			C47.5,23.4,47.5,23.5,47.4,23.5z M49.1,23.1C49.1,23.1,49.1,23,49.1,23.1C49.2,23.1,49.1,23.2,49.1,23.1z M51,22.4
			C51.1,22.4,51.1,22.3,51,22.4C51.1,22.3,51.1,22.4,51,22.4z M51,22.4C51,22.4,51,22.5,51,22.4C51,22.5,50.9,22.5,51,22.4
			C51,22.4,51,22.5,51,22.4L51,22.4C51,22.4,51,22.4,51,22.4z M50.8,22.6c0,0,0-0.1,0.1-0.1C50.9,22.5,50.9,22.6,50.8,22.6z
			 M49.4,23.3C49.4,23.4,49.4,23.4,49.4,23.3C49.4,23.3,49.3,23.3,49.4,23.3C49.4,23.3,49.3,23.4,49.4,23.3z M50.6,22.9L50.6,22.9
			L50.6,22.9C50.7,22.9,50.6,22.9,50.6,22.9z M51.4,22.6C51.4,22.6,51.4,22.5,51.4,22.6C51.5,22.5,51.4,22.7,51.4,22.6z M49.2,23.6
			c-0.1,0-0.1,0.2-0.2,0.1c0,0,0,0.1-0.1,0.1c0.1-0.1,0-0.1,0.1-0.2C49.1,23.6,49.1,23.6,49.2,23.6c-0.1,0,0-0.2,0-0.1
			C49.3,23.4,49.2,23.5,49.2,23.6c0-0.1,0.1-0.2,0.1-0.2c0,0,0,0.1-0.1,0.1C49.3,23.5,49.2,23.5,49.2,23.6z M47.8,23.8
			C47.8,23.8,47.8,23.7,47.8,23.8C47.9,23.7,47.9,23.8,47.8,23.8z M49.5,23.4L49.5,23.4C49.4,23.4,49.4,23.4,49.5,23.4
			C49.4,23.4,49.5,23.4,49.5,23.4z M51.1,22.9c0-0.1,0.1,0,0.1-0.1c0,0,0,0,0.1,0C51.2,22.9,51.1,22.9,51.1,22.9z M50.4,23.3
			c0,0,0-0.1,0.1-0.1C50.4,23.2,50.4,23.2,50.4,23.3z M50.9,23c0.1,0,0,0.1,0,0.2C50.8,23.2,50.8,23.1,50.9,23
			C50.9,23.1,50.9,23.1,50.9,23z M48.7,24C48.7,24.1,48.7,24,48.7,24C48.7,23.9,48.8,23.9,48.7,24c0.1-0.2,0.2-0.2,0.2-0.3
			c0,0,0,0.1,0.1,0c0,0,0.1,0,0,0.1c0,0,0,0,0,0c0.1,0.1-0.1,0.2-0.1,0.2l-0.1,0c0,0,0,0.1-0.1,0.1c0-0.1,0-0.1,0.1-0.2c0,0,0,0,0,0
			C48.8,23.9,48.8,24,48.7,24c0.1,0,0,0.1,0,0.1C48.7,24.1,48.7,24.1,48.7,24z M50.3,23.3C50.3,23.4,50.4,23.3,50.3,23.3
			C50.3,23.4,50.3,23.4,50.3,23.3C50.3,23.4,50.3,23.4,50.3,23.3L50.3,23.3L50.3,23.3z M46.7,24.2C46.6,24.2,46.7,24.1,46.7,24.2
			C46.7,24.1,46.7,24.2,46.7,24.2z M47.3,24.3C47.3,24.2,47.4,24.2,47.3,24.3C47.4,24.2,47.4,24.3,47.3,24.3z M50.6,23.4L50.6,23.4
			C50.6,23.4,50.6,23.3,50.6,23.4C50.6,23.4,50.7,23.4,50.6,23.4z M50.2,23.7C50.2,23.7,50.2,23.7,50.2,23.7L50.2,23.7
			c0-0.1,0-0.1,0.1-0.2C50.2,23.6,50.2,23.6,50.2,23.7z M50.6,23.5C50.6,23.5,50.6,23.5,50.6,23.5c0,0.1,0,0.1,0,0.1
			c0-0.1-0.1,0.1-0.1,0C50.6,23.5,50.6,23.4,50.6,23.5L50.6,23.5z M50,23.8C50.1,23.8,50.1,23.7,50,23.8C50.1,23.8,50,23.9,50,23.8z
			 M49.9,23.9C49.9,23.9,49.9,23.8,49.9,23.9C49.9,23.9,49.9,23.9,49.9,23.9L49.9,23.9C49.9,23.9,49.9,23.9,49.9,23.9
			C49.8,23.9,49.8,23.8,49.9,23.9C49.9,23.8,49.9,23.9,49.9,23.9C49.9,23.8,49.9,23.8,49.9,23.9C50,23.8,49.9,23.8,49.9,23.9z
			 M49.6,24c0-0.1,0-0.1,0.1-0.1C49.7,23.9,49.6,24,49.6,24z M50.5,23.6c0,0.1-0.1,0.1-0.1,0.1C50.4,23.7,50.4,23.7,50.5,23.6
			C50.5,23.6,50.5,23.6,50.5,23.6z M48.5,24.3L48.5,24.3c0.1-0.1,0.1-0.1,0.1-0.1l0,0C48.6,24.2,48.6,24.3,48.5,24.3z M50.3,23.8
			C50.3,23.8,50.3,23.7,50.3,23.8C50.4,23.8,50.3,23.8,50.3,23.8z M46.9,24.6c0-0.1,0.1-0.1,0.1-0.1C47,24.5,46.9,24.6,46.9,24.6z
			 M50.6,23.7C50.6,23.7,50.6,23.8,50.6,23.7c0,0.1,0,0.1,0,0.2C50.5,23.9,50.5,23.9,50.6,23.7c-0.1,0.2-0.1,0.2-0.2,0.3
			c-0.1,0-0.1,0.1-0.2,0.1c0-0.1,0.1-0.1,0.1-0.2c0,0,0,0,0,0c0-0.1,0.1-0.1,0.1,0C50.5,23.8,50.6,23.6,50.6,23.7
			C50.6,23.7,50.6,23.7,50.6,23.7z M50,24c0,0,0-0.1,0-0.1C50,24,50,23.9,50,24z M50.4,23.8C50.4,23.8,50.4,23.9,50.4,23.8
			C50.4,23.8,50.4,23.8,50.4,23.8z M48.4,24.4C48.4,24.5,48.4,24.5,48.4,24.4L48.4,24.4c-0.1,0.1-0.2,0.1-0.2,0.2c0,0,0,0,0-0.1
			c0.1,0,0.1-0.1,0.1-0.1c0,0,0,0,0-0.1C48.3,24.4,48.3,24.4,48.4,24.4c-0.1,0-0.1,0-0.1,0C48.4,24.5,48.4,24.4,48.4,24.4z
			 M48.4,24.4C48.4,24.4,48.4,24.4,48.4,24.4C48.5,24.4,48.4,24.4,48.4,24.4z M50.2,24C50.2,24.1,50.2,24,50.2,24
			C50.2,24,50.2,23.9,50.2,24C50.2,24,50.2,24,50.2,24z M46.4,24.7C46.5,24.7,46.5,24.7,46.4,24.7C46.5,24.7,46.5,24.7,46.4,24.7z
			 M50.3,24C50.3,24,50.3,24,50.3,24C50.2,24,50.3,24,50.3,24L50.3,24z M49.2,24.4C49.2,24.5,49.2,24.5,49.2,24.4c0,0,0-0.1,0.1-0.1
			C49.3,24.4,49.2,24.4,49.2,24.4z M50.1,24.1c-0.1,0-0.1,0.1-0.1,0.1C50,24.3,50,24.2,50.1,24.1C50.1,24.1,50.1,24.1,50.1,24.1z
			 M49.8,24.3L49.8,24.3C49.8,24.3,49.8,24.3,49.8,24.3C49.8,24.3,49.8,24.3,49.8,24.3z M50.2,24.2C50.2,24.2,50.3,24.1,50.2,24.2
			C50.2,24.2,50.2,24.2,50.2,24.2L50.2,24.2C50.2,24.1,50.3,24,50.2,24.2C50.2,24.1,50.2,24.1,50.2,24.2z M48.1,24.7
			C48.2,24.7,48.1,24.7,48.1,24.7C48.2,24.7,48.1,24.8,48.1,24.7z M49.6,24.5c0,0,0-0.1,0.1-0.1C49.7,24.4,49.6,24.5,49.6,24.5z
			 M46.1,25C46.1,25,46.1,24.9,46.1,25C46.1,25,46.1,25,46.1,25z M49.2,24.7c0,0,0.1-0.1,0.1-0.1C49.3,24.6,49.3,24.7,49.2,24.7z
			 M47.9,24.9c0,0-0.1,0.1-0.1,0.1C47.8,24.9,47.9,24.8,47.9,24.9z M50,24.7C50,24.6,50,24.7,50,24.7C50,24.6,50,24.7,50,24.7
			C50,24.6,50,24.7,50,24.7c-0.1,0-0.2,0-0.1-0.1C49.9,24.7,49.9,24.6,50,24.7c-0.1-0.2,0-0.2,0-0.2c0.1,0,0.1,0,0.1-0.1
			c0,0,0,0,0,0c0.1-0.1,0.1,0,0.1,0.1c0,0,0,0,0,0c0,0,0,0,0,0c0,0,0,0,0.1,0c0,0.1-0.1,0.1,0,0.1C50.2,24.6,50.2,24.7,50,24.7
			c0.1-0.1,0.1-0.1,0.1-0.1C50.1,24.6,50.1,24.7,50,24.7z M49.6,24.8C49.6,24.8,49.6,24.8,49.6,24.8c-0.1,0.1-0.1,0.1-0.1,0.2
			c0-0.1,0,0-0.1,0c0-0.1,0.1-0.1,0.1-0.1c0-0.1,0-0.2,0-0.2C49.5,24.7,49.5,24.9,49.6,24.8z M45.8,25.3
			C45.8,25.2,45.8,25.2,45.8,25.3C45.8,25.3,45.8,25.3,45.8,25.3C45.8,25.3,45.8,25.3,45.8,25.3c-0.1,0-0.1-0.1-0.1-0.1
			c0.1,0,0.1,0,0.2,0C45.9,25.1,45.9,25.2,45.8,25.3z M47.7,25.1C47.7,25.1,47.8,25,47.7,25.1C47.8,25,47.8,25.1,47.7,25.1z
			 M50.3,24.5C50.3,24.5,50.2,24.5,50.3,24.5C50.3,24.4,50.3,24.5,50.3,24.5z M49.4,24.9l0-0.1c0,0,0,0,0,0
			C49.5,24.7,49.4,24.9,49.4,24.9z M47.7,25.2C47.6,25.2,47.6,25.2,47.7,25.2C47.7,25.1,47.7,25.1,47.7,25.2L47.7,25.2z M48.6,25.1
			C48.5,25.1,48.6,25,48.6,25.1C48.6,25,48.6,25,48.6,25.1z M49.9,24.7C49.9,24.7,49.8,24.8,49.9,24.7
			C49.9,24.7,49.9,24.7,49.9,24.7z M47.7,25.2C47.7,25.2,47.7,25.2,47.7,25.2C47.6,25.3,47.6,25.3,47.7,25.2
			C47.6,25.2,47.7,25.2,47.7,25.2C47.7,25.2,47.7,25.2,47.7,25.2z M47.8,25.3C47.8,25.3,47.8,25.3,47.8,25.3
			C47.8,25.3,47.8,25.4,47.8,25.3z M50.5,24.7C50.5,24.7,50.5,24.8,50.5,24.7C50.4,24.8,50.4,24.8,50.5,24.7c0,0,0,0,0-0.1
			C50.5,24.7,50.5,24.7,50.5,24.7z M45.2,25.6C45.2,25.6,45.3,25.6,45.2,25.6C45.3,25.6,45.3,25.7,45.2,25.6z M48.1,25.6
			C48.1,25.6,48.1,25.6,48.1,25.6C48.1,25.6,48.1,25.6,48.1,25.6z M46.9,25.7C46.9,25.7,46.9,25.7,46.9,25.7
			C46.9,25.7,47,25.7,46.9,25.7z M47.9,25.7c0,0.1-0.1,0.1-0.1,0.1C47.8,25.8,47.8,25.7,47.9,25.7C47.9,25.7,47.9,25.7,47.9,25.7z
			 M44.8,25.9c0,0,0.1-0.1,0.1-0.1C44.8,25.9,44.8,25.9,44.8,25.9z M49.7,25.5C49.7,25.5,49.8,25.5,49.7,25.5
			C49.8,25.5,49.7,25.6,49.7,25.5z M48.7,26c-0.1,0-0.1,0-0.1,0.1C48.6,26,48.6,26,48.7,26c0-0.1,0-0.1,0-0.1
			C48.7,25.9,48.7,25.9,48.7,26z M46.8,26.2C46.8,26.2,46.7,26.2,46.8,26.2C46.8,26.1,46.8,26.2,46.8,26.2
			C46.9,26.2,46.8,26.2,46.8,26.2z M49,26.2c0-0.1,0-0.1,0.1-0.1C49.1,26.1,49.1,26.2,49,26.2z M47.8,26.3
			C47.8,26.3,47.9,26.2,47.8,26.3C47.9,26.3,47.9,26.3,47.8,26.3z M48.3,26.3C48.3,26.3,48.3,26.2,48.3,26.3
			C48.3,26.3,48.3,26.3,48.3,26.3z M47.9,26.4c-0.1,0-0.1,0.1-0.1,0.1C47.8,26.5,47.9,26.4,47.9,26.4C47.9,26.3,47.9,26.3,47.9,26.4
			C48,26.3,48,26.4,47.9,26.4z M46.9,26.6c0-0.1,0.1-0.1,0.1-0.1C47,26.5,46.9,26.6,46.9,26.6z M48.8,26.4
			C48.8,26.4,48.9,26.4,48.8,26.4C48.9,26.4,48.9,26.4,48.8,26.4C48.9,26.5,48.9,26.4,48.8,26.4z M49,26.3C49,26.3,49,26.2,49,26.3
			c0,0,0,0.2,0,0.1C49,26.3,49,26.3,49,26.3z M48.8,26.4C48.8,26.4,48.9,26.3,48.8,26.4C48.8,26.4,48.8,26.4,48.8,26.4
			C48.8,26.4,48.8,26.4,48.8,26.4C48.8,26.3,48.8,26.3,48.8,26.4C48.8,26.3,48.8,26.4,48.8,26.4z M47.9,26.6
			C47.9,26.6,47.9,26.5,47.9,26.6C48,26.6,47.9,26.6,47.9,26.6z M48,26.5C48,26.5,48.1,26.5,48,26.5C48,26.6,48,26.5,48,26.5z
			 M47.7,26.6C47.7,26.6,47.7,26.6,47.7,26.6c-0.1,0.1-0.1,0.1-0.1,0.1c0-0.1,0,0,0-0.1C47.6,26.6,47.7,26.6,47.7,26.6
			C47.7,26.5,47.7,26.6,47.7,26.6z M45.7,26.7C45.7,26.6,45.8,26.6,45.7,26.7L45.7,26.7c0.1-0.1,0.1-0.1,0.1-0.1
			C45.8,26.6,45.7,26.7,45.7,26.7z M44.1,26.4C44,26.4,44,26.4,44.1,26.4C44,26.3,44.1,26.3,44.1,26.4z M48.7,26.5
			C48.8,26.5,48.8,26.5,48.7,26.5C48.8,26.5,48.7,26.5,48.7,26.5z M46,26.8c0,0,0.1-0.1,0.1-0.1C46.1,26.8,46.1,26.8,46,26.8z
			 M48.3,26.8C48.4,26.8,48.3,26.8,48.3,26.8c0.1-0.1,0.1,0,0.1-0.1c0,0-0.1,0-0.1,0c0,0,0.1,0,0.1,0C48.5,26.7,48.4,26.8,48.3,26.8
			z M46.4,26.8c0,0-0.1,0.1-0.1,0.1C46.3,26.9,46.4,26.9,46.4,26.8C46.4,26.8,46.4,26.8,46.4,26.8z M47.5,26.9
			C47.5,26.9,47.5,26.9,47.5,26.9C47.4,26.9,47.5,26.8,47.5,26.9z M48.2,26.9C48.2,26.9,48.2,26.9,48.2,26.9
			C48.2,26.8,48.2,26.8,48.2,26.9C48.3,26.9,48.2,26.9,48.2,26.9z M47.3,27C47.3,27,47.3,26.9,47.3,27C47.4,27,47.3,27,47.3,27z
			 M47,27.1C47,27.1,47,27.1,47,27.1C47,27,47.1,27,47,27.1C47.1,27.1,47,27.1,47,27.1z M47.2,27c-0.1,0-0.1,0.1-0.1,0.1
			C47.1,27,47.2,26.9,47.2,27z M48,27C48,26.9,48.1,26.9,48,27C48.1,26.9,48,26.9,48,27z M47.2,27.1C47.2,27,47.2,27,47.2,27.1
			C47.3,27.1,47.2,27.1,47.2,27.1z M47.1,27.2c0-0.1,0.1-0.1,0-0.1c0,0,0,0,0.1,0C47.2,27.2,47.1,27.2,47.1,27.2
			C47.1,27.2,47.2,27.2,47.1,27.2C47.1,27.3,47.1,27.3,47.1,27.2C47,27.3,47,27.2,47.1,27.2C47.1,27.2,47.1,27.2,47.1,27.2z
			 M46.9,27.3c0.1-0.1,0.1-0.1,0.2-0.2C47.1,27.2,47,27.3,46.9,27.3z M48.2,27.1c0-0.1,0.1-0.1,0.1-0.1
			C48.3,27.1,48.2,27.1,48.2,27.1z M47.8,27.2C47.8,27.2,47.7,27.1,47.8,27.2C47.8,27.1,47.8,27.2,47.8,27.2z M47.9,27.3
			C47.9,27.3,47.9,27.2,47.9,27.3C47.9,27.2,47.9,27.3,47.9,27.3c-0.1-0.1,0-0.1,0-0.1C48,27.2,47.9,27.2,47.9,27.3z M46.8,27.3
			c0,0.1-0.1,0.1-0.1,0C46.7,27.3,46.7,27.3,46.8,27.3z M46.8,27.4L46.8,27.4C46.9,27.3,46.9,27.3,46.8,27.4
			C46.8,27.3,46.9,27.4,46.8,27.4z M47.4,27.4C47.3,27.4,47.4,27.4,47.4,27.4C47.4,27.3,47.4,27.3,47.4,27.4L47.4,27.4z M47.6,27.4
			C47.6,27.4,47.6,27.4,47.6,27.4C47.7,27.3,47.7,27.4,47.6,27.4z M46.9,27.4C46.9,27.4,46.8,27.4,46.9,27.4
			C46.8,27.4,46.8,27.4,46.9,27.4z M47.5,27.6C47.4,27.6,47.4,27.6,47.5,27.6C47.4,27.5,47.5,27.5,47.5,27.6
			c0.1-0.1,0.1-0.1,0.1-0.1C47.6,27.5,47.5,27.5,47.5,27.6z M47.2,27.7c0.1,0,0.2-0.2,0.2-0.1C47.3,27.6,47.2,27.8,47.2,27.7z
			 M47.2,27.7C47.2,27.6,47.2,27.6,47.2,27.7C47.2,27.6,47.3,27.6,47.2,27.7C47.2,27.6,47.3,27.6,47.2,27.7z M46.9,28
			C46.9,27.9,46.8,28,46.9,28C46.8,28,46.9,27.9,46.9,28C46.9,27.9,46.9,27.9,46.9,28z M45.8,28.1c0,0,0.1-0.1,0.1-0.1
			C45.8,28,45.8,28.1,45.8,28.1z M44.4,27.9C44.4,27.9,44.4,27.8,44.4,27.9C44.4,27.9,44.5,27.9,44.4,27.9z M45.8,28.1
			C45.8,28.1,45.9,28.1,45.8,28.1C45.9,28.1,45.9,28.1,45.8,28.1C45.9,28.1,45.8,28.1,45.8,28.1z M45.8,28.2
			C45.7,28.2,45.8,28.1,45.8,28.2C45.8,28.1,45.8,28.1,45.8,28.2z M46.4,28.3c-0.1,0-0.1,0.1-0.1,0C46.3,28.2,46.4,28.2,46.4,28.3
			L46.4,28.3z M45.8,28.2L45.8,28.2L45.8,28.2C45.9,28.2,45.9,28.2,45.8,28.2z M45.6,28.2c0,0.1-0.1,0-0.1,0
			C45.5,28.2,45.6,28.2,45.6,28.2z M45.4,28.3L45.4,28.3C45.4,28.2,45.5,28.2,45.4,28.3C45.4,28.2,45.4,28.3,45.4,28.3z M44.1,28.1
			C44.1,28.1,44.2,28.1,44.1,28.1c0,0-0.1,0.1-0.1,0.1c-0.1,0-0.1,0.1-0.2,0.1c0-0.1,0.1,0,0.1-0.1c0,0-0.1,0,0,0c0,0,0,0,0.1,0
			C44,28.1,44,28.2,44.1,28.1c-0.1,0-0.1,0.1-0.2,0c0,0,0,0,0.1-0.1C44,28,44,28.1,44.1,28.1C44.1,28,44,28.1,44.1,28.1
			C44.1,28,44.1,28,44.1,28.1C44.1,28,44.1,28.1,44.1,28.1z M45.6,28.3c-0.1,0-0.1,0.1-0.2,0.1c0,0,0-0.1,0-0.1
			C45.5,28.3,45.5,28.3,45.6,28.3C45.6,28.3,45.6,28.3,45.6,28.3C45.7,28.2,45.7,28.3,45.6,28.3z M46.1,28.4
			C46.2,28.4,46.2,28.3,46.1,28.4C46.2,28.3,46.2,28.4,46.1,28.4z M45.1,28.3L45.1,28.3L45.1,28.3C45.2,28.3,45.1,28.3,45.1,28.3z
			 M44.9,28.6C44.9,28.6,44.8,28.6,44.9,28.6c0-0.1,0.1,0,0.1,0l0-0.1c0.1,0,0.2-0.1,0.2-0.1c0,0,0-0.1,0-0.1c0,0.1,0,0,0.1,0
			c0,0.1-0.1,0.1-0.1,0.2c-0.1,0-0.2,0.1-0.3,0.2c0,0,0.1-0.1,0-0.1C45,28.6,45,28.6,44.9,28.6c0.1,0.1,0.1,0.1,0.1,0.1
			c-0.1,0-0.1,0.1-0.1,0.1C44.9,28.7,45,28.6,44.9,28.6c0,0.1-0.1,0.1-0.1,0.1C44.8,28.7,44.9,28.7,44.9,28.6z M44.9,28.7
			C44.9,28.7,44.8,28.8,44.9,28.7c-0.1,0-0.1,0.1-0.1,0.1C44.8,28.8,44.8,28.7,44.9,28.7z M46.1,28.4c0,0-0.1,0.1-0.2,0.1
			C46,28.4,46.1,28.4,46.1,28.4z M45.6,28.4C45.6,28.4,45.6,28.4,45.6,28.4C45.7,28.4,45.6,28.4,45.6,28.4z M45.4,28.5
			C45.4,28.5,45.5,28.4,45.4,28.5C45.5,28.4,45.4,28.5,45.4,28.5z M45.9,28.5C45.9,28.5,45.9,28.5,45.9,28.5
			C45.9,28.5,45.9,28.5,45.9,28.5z M43.6,28.3C43.6,28.3,43.7,28.3,43.6,28.3C43.7,28.2,43.7,28.3,43.6,28.3z M43.5,28.4
			C43.5,28.3,43.6,28.3,43.5,28.4L43.5,28.4C43.6,28.3,43.6,28.4,43.5,28.4z M45.1,28.6C45.1,28.6,45.2,28.6,45.1,28.6
			C45.2,28.6,45.1,28.6,45.1,28.6z M45.4,28.8C45.4,28.7,45.4,28.7,45.4,28.8C45.5,28.8,45.4,28.8,45.4,28.8z M44.6,28.8
			C44.6,28.8,44.6,28.8,44.6,28.8C44.6,28.8,44.6,28.8,44.6,28.8C44.6,28.8,44.7,28.8,44.6,28.8z M44.4,28.8
			C44.4,28.8,44.4,28.8,44.4,28.8L44.4,28.8C44.4,28.8,44.3,28.8,44.4,28.8c0,0-0.1-0.1,0-0.1c0,0,0,0,0.1,0
			C44.4,28.8,44.4,28.8,44.4,28.8z M44.6,28.9C44.6,28.9,44.5,28.9,44.6,28.9c0,0,0-0.1,0.1-0.1C44.6,28.9,44.6,28.9,44.6,28.9z
			 M40.9,27.7C40.9,27.7,40.9,27.7,40.9,27.7C41,27.6,41,27.6,40.9,27.7C41,27.7,41,27.7,40.9,27.7z M43.1,28.6c0,0-0.1,0-0.1,0
			C43,28.6,43,28.5,43.1,28.6C43,28.6,43,28.6,43.1,28.6z M44.2,28.9C44.2,28.9,44.2,28.9,44.2,28.9c0.1,0,0.3-0.1,0.3-0.1
			C44.4,28.9,44.3,29,44.2,28.9C44.2,29,44.2,29,44.2,28.9C44.2,29,44.2,29,44.2,28.9C44.1,29,44.1,29,44.2,28.9
			C44.1,29,44.1,29,44.1,29c0,0,0,0.1-0.1,0c0,0,0,0,0.1-0.1C44.1,29,44.1,29,44.2,28.9z M45.2,29.2c-0.1,0-0.1,0.1-0.1,0.1
			C45,29.3,45.1,29.2,45.2,29.2C45.1,29.2,45.1,29.2,45.2,29.2C45.2,29.1,45.2,29.1,45.2,29.2z M44.2,29.1c-0.1,0-0.1,0-0.1,0
			C44.1,29.1,44.1,29.1,44.2,29.1C44.2,29.1,44.3,29,44.2,29.1z M44.8,29.3C44.8,29.2,44.8,29.2,44.8,29.3
			C44.8,29.2,44.8,29.3,44.8,29.3z M44.9,29.4C44.9,29.3,44.9,29.3,44.9,29.4C44.9,29.3,44.9,29.3,44.9,29.4
			c0.1-0.1,0.1-0.2,0.1-0.1C45,29.3,45,29.4,44.9,29.4z M43.9,29.1C43.9,29.1,43.9,29.2,43.9,29.1C43.9,29.1,44,29,43.9,29.1z
			 M44.3,29.3c0,0,0.1,0,0.1-0.1C44.4,29.2,44.3,29.3,44.3,29.3z M44.8,29.4C44.8,29.4,44.8,29.3,44.8,29.4c0,0,0.1-0.1,0.1-0.1
			C44.8,29.3,44.8,29.4,44.8,29.4z M43.5,29.3c0.1-0.1,0.2-0.1,0.2-0.1c0,0-0.1,0,0-0.1c0,0.1,0.1,0,0.1,0c0,0.1-0.1,0.1,0,0.1
			C43.7,29.2,43.6,29.3,43.5,29.3z M40.3,27.9C40.3,27.9,40.4,27.8,40.3,27.9C40.4,27.9,40.3,27.9,40.3,27.9z M42.4,28.9
			C42.3,28.8,42.3,28.9,42.4,28.9C42.2,28.9,42.3,28.8,42.4,28.9C42.3,28.8,42.3,28.8,42.4,28.9z M44.5,29.5
			c0.1-0.1,0.1-0.1,0.2-0.1l0,0C44.6,29.4,44.6,29.5,44.5,29.5z M43.2,29.1c0,0,0.1-0.1,0.2,0C43.4,29.1,43.3,29.2,43.2,29.1z
			 M43.4,29.3c-0.1,0-0.1,0-0.2,0C43.3,29.2,43.4,29.2,43.4,29.3C43.4,29.2,43.4,29.2,43.4,29.3z M44.4,29.5
			C44.5,29.5,44.4,29.5,44.4,29.5C44.5,29.5,44.5,29.5,44.4,29.5C44.5,29.5,44.5,29.5,44.4,29.5z M44.2,29.6c0-0.1,0.1-0.1,0.1-0.1
			C44.3,29.6,44.3,29.6,44.2,29.6z M43.4,29.4c-0.1,0.1-0.1,0-0.1,0c0,0,0,0,0-0.1L43.4,29.4C43.3,29.4,43.4,29.4,43.4,29.4z
			 M44.4,29.7c-0.1,0-0.1,0.1-0.2,0.1c0.1,0,0-0.1,0.1-0.1C44.3,29.6,44.3,29.7,44.4,29.7C44.3,29.6,44.3,29.6,44.4,29.7
			C44.4,29.6,44.4,29.6,44.4,29.7z M44.1,29.7C44.1,29.7,44.1,29.6,44.1,29.7c0.1,0,0.1-0.1,0.1-0.1l0,0
			C44.1,29.6,44.1,29.7,44.1,29.7z M43,29.5c0.1,0,0.2-0.1,0.2-0.1C43.2,29.4,43.1,29.5,43,29.5z M42.7,29.5
			C42.7,29.5,42.7,29.4,42.7,29.5C42.8,29.5,42.7,29.5,42.7,29.5z M42.7,29.6c0.1,0,0.2-0.1,0.2,0C42.9,29.5,42.7,29.6,42.7,29.6z
			 M42.3,29.5C42.3,29.5,42.3,29.5,42.3,29.5C42.4,29.5,42.3,29.5,42.3,29.5z M42.4,29.6c-0.1,0-0.1,0-0.2,0
			C42.2,29.6,42.3,29.6,42.4,29.6C42.4,29.6,42.4,29.6,42.4,29.6z M42.4,29.6c-0.1,0-0.1,0.1-0.1,0.1C42.3,29.7,42.2,29.7,42.4,29.6
			C42.3,29.6,42.4,29.6,42.4,29.6z M42,29.8C42,29.7,42,29.7,42,29.8C42.1,29.7,42,29.8,42,29.8z M42.9,30.1c0-0.1,0.1,0,0.1-0.1
			C42.9,30.1,42.9,30.1,42.9,30.1z M42.9,30.1C42.9,30.1,43,30.1,42.9,30.1C42.9,30.1,42.9,30.2,42.9,30.1z M42.7,30.1
			C42.7,30.1,42.7,30.1,42.7,30.1C42.7,30,42.7,30,42.7,30.1C42.7,30.1,42.8,30.1,42.7,30.1z M42.7,30.3
			C42.7,30.2,42.8,30.2,42.7,30.3C42.7,30.2,42.7,30.2,42.7,30.3c0-0.1,0-0.2,0.1-0.2C42.8,30.2,42.9,30.3,42.7,30.3z M41.5,29.7
			C41.6,29.7,41.6,29.7,41.5,29.7C41.6,29.7,41.6,29.8,41.5,29.7z M42.6,30.2C42.6,30.2,42.6,30.1,42.6,30.2
			C42.6,30.2,42.6,30.2,42.6,30.2z M41.7,29.9c-0.1,0-0.1,0.1-0.2,0c0,0-0.1,0-0.1,0.1l-0.1,0c0,0,0.1,0,0.1-0.1
			c0.1,0,0.1,0,0.1-0.1c0.1,0,0,0,0,0l0.1-0.1C41.7,29.8,41.6,29.9,41.7,29.9z M41.3,29.9c-0.1,0,0.1-0.1,0.1-0.1
			C41.4,29.9,41.4,29.9,41.3,29.9C41.3,29.9,41.3,29.8,41.3,29.9z M41.2,30C41.1,30,41.2,30,41.2,30c0-0.1,0.1-0.1,0.1-0.1
			C41.2,30,41.2,29.9,41.2,30z M40.9,29.9C40.9,29.9,41,29.9,40.9,29.9C41,29.9,40.9,29.9,40.9,29.9z M37.8,28.3
			C37.7,28.3,37.7,28.3,37.8,28.3C37.7,28.3,37.7,28.2,37.8,28.3C37.7,28.2,37.8,28.2,37.8,28.3z M40.3,30.1
			C40.2,30.1,40.4,30,40.3,30.1C40.4,30.1,40.4,30.1,40.3,30.1z M37.6,28.3c-0.1,0-0.2,0-0.2,0c0.1,0,0,0,0.1-0.1
			C37.5,28.2,37.5,28.2,37.6,28.3C37.5,28.2,37.6,28.2,37.6,28.3z M37.3,28.3C37.3,28.3,37.3,28.3,37.3,28.3
			C37.4,28.3,37.2,28.3,37.3,28.3z M40.4,30.8c0,0,0.1,0,0.1,0C40.5,30.8,40.4,30.8,40.4,30.8z M40.2,30.9
			C40.2,31,40.1,30.9,40.2,30.9c-0.1,0.1-0.1,0.1-0.1,0.1c-0.1,0,0.1-0.1,0-0.1c0,0,0,0,0,0c0,0-0.1,0-0.1,0
			C40,30.9,40.3,30.7,40.2,30.9c0.1,0,0.2-0.1,0.2,0C40.4,30.9,40.2,30.9,40.2,30.9z M40.1,31c0.1,0,0.1,0,0.2-0.1
			C40.3,31,40.2,31,40.1,31z M36.6,28.4c0,0-0.1,0-0.1,0C36.5,28.3,36.6,28.3,36.6,28.4z M39.9,31.1C39.9,31,39.9,31,39.9,31.1
			C40,31,40,31,39.9,31.1C40,31,40,31,39.9,31.1z M39.7,31C39.7,31,39.7,31,39.7,31C39.7,30.9,39.7,31,39.7,31z M39.8,31.2
			C39.8,31.1,39.8,31.1,39.8,31.2C39.8,31.1,39.8,31.1,39.8,31.2C39.8,31.1,39.9,31.1,39.8,31.2L39.8,31.2z M36.1,28.3
			C36.1,28.3,36.1,28.3,36.1,28.3c0.1,0,0.1,0,0.1,0C36.2,28.3,36.1,28.3,36.1,28.3z M39.3,31C39.3,31,39.2,31,39.3,31
			C39.2,31,39.2,31.1,39.3,31c-0.1,0-0.2,0-0.1,0C39.2,31,39.3,31,39.3,31C39.3,31,39.3,31,39.3,31z M35.9,28.2L35.9,28.2
			C35.9,28.3,35.9,28.2,35.9,28.2z M39,31c0,0-0.1,0-0.1,0C38.9,31,38.9,31,39,31C39,31,39,31,39,31z M35.5,28.3
			C35.5,28.3,35.4,28.3,35.5,28.3C35.4,28.2,35.4,28.2,35.5,28.3C35.4,28.2,35.4,28.2,35.5,28.3C35.5,28.2,35.5,28.2,35.5,28.3
			C35.5,28.2,35.5,28.2,35.5,28.3C35.5,28.2,35.5,28.3,35.5,28.3z M38.6,31.2c-0.1,0-0.2,0-0.2,0C38.5,31.1,38.5,31.1,38.6,31.2
			c-0.1-0.1-0.1,0-0.1-0.1c0,0,0.1,0,0.1-0.1C38.6,31.1,38.6,31.1,38.6,31.2z M35.3,28.2C35.3,28.2,35.3,28.2,35.3,28.2
			C35.3,28.2,35.3,28.3,35.3,28.2z M38.4,31.1c-0.1,0-0.1-0.1,0-0.1C38.4,31,38.4,31,38.4,31.1C38.4,31.1,38.4,31.1,38.4,31.1z
			 M35.2,28.2C35.2,28.2,35.3,28.2,35.2,28.2C35.2,28.2,35.2,28.2,35.2,28.2z M38.2,31.1c0.1,0,0.1,0,0.2,0
			C38.3,31.2,38.3,31.2,38.2,31.1C38.3,31.2,38.3,31.2,38.2,31.1C38.3,31.2,38.2,31.2,38.2,31.1z M38.1,31.1
			C38.1,31.1,38.1,31.1,38.1,31.1c0.1-0.1,0.1-0.1,0.2-0.1c0,0,0,0-0.1,0.1C38.2,31.1,38.2,31.1,38.1,31.1z M34.9,28.2
			C35,28.2,35,28.1,34.9,28.2c0.1,0,0.1-0.1,0.1,0c-0.1,0,0,0,0,0.1C35,28.2,35,28.2,34.9,28.2z M38,31.2C38,31.2,38,31.2,38,31.2
			C38,31.2,38,31.2,38,31.2C38,31.2,38,31.2,38,31.2C38,31.1,38,31.2,38,31.2C38.1,31.1,38.1,31.1,38,31.2L38,31.2
			C38.1,31.2,38.1,31.2,38,31.2z M37.9,31.1c0,0-0.1,0-0.1,0C37.8,31.1,37.9,31,37.9,31.1z M37.6,31.2c0,0-0.1,0-0.1,0
			C37.6,31.1,37.6,31.2,37.6,31.2C37.6,31.1,37.6,31.1,37.6,31.2C37.6,31.1,37.6,31.1,37.6,31.2z M37.4,31.1c0,0,0.1,0,0.1,0
			C37.4,31.1,37.4,31.1,37.4,31.1z M37.4,31.1C37.4,31.1,37.4,31.1,37.4,31.1C37.3,31.1,37.3,31.1,37.4,31.1
			C37.4,31.1,37.4,31,37.4,31.1C37.4,31.1,37.4,31.1,37.4,31.1z M37.1,31.1c0.1,0,0.1,0,0.2,0C37.2,31.1,37.2,31.1,37.1,31.1z
			 M37.1,31.1c0-0.1,0.1,0,0.2,0C37.2,31.1,37.1,31.2,37.1,31.1z M36.8,31C36.8,31,36.8,31,36.8,31c0-0.1,0.1-0.1,0.1,0
			C36.8,31,36.8,31,36.8,31z M36.1,31.1C36.1,31.1,36.1,31.1,36.1,31.1C36.1,31,36.1,31.1,36.1,31.1C36.1,31.1,36.1,31.1,36.1,31.1z
			 M31.4,29.8C31.4,29.8,31.3,29.8,31.4,29.8C31.4,29.7,31.4,29.8,31.4,29.8l0.1,0C31.4,29.8,31.4,29.8,31.4,29.8z M31.1,29.6
			C31.1,29.7,31.2,29.6,31.1,29.6C31.1,29.7,31,29.6,31.1,29.6z M28.6,25.1C28.7,25.1,28.5,25,28.6,25.1C28.6,25,28.6,25,28.6,25.1
			C28.6,25.1,28.6,25.1,28.6,25.1z M28.7,25.1C28.7,25.1,28.7,25.1,28.7,25.1C28.8,25.1,28.8,25,28.7,25.1
			C28.8,25.1,28.8,25.1,28.7,25.1C28.7,25.1,28.7,25.1,28.7,25.1C28.7,25.1,28.7,25,28.7,25.1z M30,29.1C30,29.1,29.9,29.1,30,29.1
			C29.9,29,30,29,30,29.1C30,29.1,30,29.1,30,29.1z M28.5,24.9C28.4,24.9,28.5,24.9,28.5,24.9C28.5,24.9,28.6,24.9,28.5,24.9
			C28.5,24.9,28.5,24.9,28.5,24.9z M29.8,28.9C29.8,29,29.8,28.9,29.8,28.9C29.9,29,29.8,29,29.8,28.9z M28.4,24.9
			C28.4,24.9,28.4,24.9,28.4,24.9C28.4,24.9,28.4,24.9,28.4,24.9C28.4,24.9,28.4,24.9,28.4,24.9z M26.9,26.9c0,0.1,0.1,0,0.1,0.1
			C26.9,27,26.8,26.9,26.9,26.9z M26.7,26.8c0,0,0.1,0.1,0.1,0.1C26.8,26.9,26.7,26.8,26.7,26.8z M26.6,26.7L26.6,26.7L26.6,26.7
			C26.6,26.8,26.6,26.8,26.6,26.7z M25,22.8C25,22.7,25,22.7,25,22.8c0.1,0,0.2,0.1,0.2,0.1c0,0,0,0,0,0
			C25.2,22.9,25.1,22.8,25,22.8z M24.8,22.5C24.8,22.5,24.8,22.5,24.8,22.5c0.1,0,0.1,0.1,0.2,0.1C24.9,22.6,24.9,22.6,24.8,22.5z
			 M25,25.1c0,0,0.1,0,0.1,0.1C25,25.2,25,25.1,25,25.1z M24.6,22.2c0.1,0.1,0.1,0.1,0.2,0.1c0,0,0,0,0,0.1
			C24.8,22.4,24.6,22.4,24.6,22.2z M24.3,24.5C24.2,24.5,24.2,24.5,24.3,24.5c-0.1-0.1,0-0.1,0-0.2C24.3,24.4,24.3,24.4,24.3,24.5
			C24.3,24.4,24.2,24.4,24.3,24.5z M24.2,21.4C24.2,21.4,24.2,21.4,24.2,21.4C24.2,21.4,24.3,21.4,24.2,21.4
			C24.2,21.5,24.2,21.5,24.2,21.4z M23.9,22.2C23.9,22.2,23.8,22.2,23.9,22.2C23.8,22.1,23.8,22.1,23.9,22.2
			c-0.1-0.1-0.1-0.1-0.1-0.1C23.9,22.1,23.9,22.2,23.9,22.2C23.9,22.2,23.9,22.2,23.9,22.2z M23.6,23.1
			C23.6,23.1,23.6,23.1,23.6,23.1C23.6,23.1,23.5,23.1,23.6,23.1z M23.4,22.7c0.1,0,0.1,0.1,0.1,0.2C23.5,22.8,23.4,22.8,23.4,22.7z
			 M23.3,22.5C23.3,22.5,23.3,22.5,23.3,22.5C23.3,22.6,23.3,22.5,23.3,22.5z M23.2,22.6C23.2,22.6,23.2,22.5,23.2,22.6
			C23.1,22.5,23.2,22.6,23.2,22.6C23.2,22.6,23.2,22.6,23.2,22.6z M22.4,20.3C22.4,20.3,22.5,20.4,22.4,20.3
			C22.5,20.4,22.4,20.4,22.4,20.3z"/>
		<path class="st0" d="M46,28.7C46,28.7,46,28.7,46,28.7c-0.1,0.1-0.2,0.1-0.3,0.3C45.8,28.9,45.9,28.9,46,28.7
			C46,28.8,46,28.8,46,28.7C46,28.8,46,28.7,46,28.7z"/>
		<path class="st0" d="M49.8,20.7c0,0,0,0.1,0,0.1C49.8,20.8,49.8,20.8,49.8,20.7z"/>
		<path class="st0" d="M48.8,22.5C48.8,22.5,48.8,22.5,48.8,22.5C48.8,22.5,48.8,22.5,48.8,22.5C48.8,22.5,48.8,22.5,48.8,22.5
			C48.7,22.6,48.8,22.5,48.8,22.5z"/>
		<path class="st0" d="M50.6,21.8C50.6,21.8,50.6,21.9,50.6,21.8C50.5,21.9,50.6,21.9,50.6,21.8C50.6,21.9,50.6,21.9,50.6,21.8z"/>
		<path class="st0" d="M49.8,22.2C49.8,22.2,49.8,22.2,49.8,22.2C49.8,22.2,49.8,22.2,49.8,22.2C49.8,22.3,49.8,22.2,49.8,22.2z"/>
		<path class="st0" d="M50,22.2C50.1,22.2,50.1,22.2,50,22.2C50.1,22.2,50.1,22.2,50,22.2C50,22.2,50.1,22.2,50,22.2
			C50,22.2,50,22.2,50,22.2z"/>
		<path class="st0" d="M48.3,22.8C48.3,22.8,48.3,22.8,48.3,22.8C48.3,22.9,48.3,22.8,48.3,22.8c-0.1,0.1-0.1,0.2-0.2,0.2
			c0,0,0,0,0,0.1C48.2,23,48.2,22.9,48.3,22.8C48.3,22.8,48.3,22.8,48.3,22.8z"/>
		<path class="st0" d="M50.2,22.2c-0.1,0.1-0.1,0.2-0.2,0.4c0,0,0,0,0,0c0,0,0,0,0-0.1c0,0,0.1-0.1,0.1-0.1
			C50.3,22.4,50.3,22.3,50.2,22.2z"/>
		<path class="st0" d="M47.8,23c0,0-0.1,0.1-0.1,0.2L47.8,23z"/>
		<path class="st0" d="M52.1,21.6C52,21.6,52.1,21.5,52.1,21.6C52,21.5,52,21.6,52.1,21.6C52,21.6,52.1,21.6,52.1,21.6z"/>
		<path class="st0" d="M50.1,22.5c0,0-0.1,0.1-0.1,0.1C50.1,22.6,50.1,22.5,50.1,22.5z"/>
		<path class="st0" d="M48.1,23.2C48.1,23.2,48.1,23.2,48.1,23.2C48.1,23.2,48.1,23.2,48.1,23.2C48.1,23.3,48.1,23.2,48.1,23.2z"/>
		<path class="st0" d="M51.1,22.5C51.1,22.5,51.1,22.5,51.1,22.5C51.1,22.5,51.1,22.5,51.1,22.5C51.1,22.5,51.2,22.5,51.1,22.5
			C51.1,22.5,51.1,22.5,51.1,22.5z"/>
		<path class="st0" d="M50,23.3C50,23.4,50,23.4,50,23.3c-0.1,0.1-0.1,0.1-0.1,0.2C50,23.5,50,23.4,50,23.3z"/>
		<path class="st0" d="M47.2,24.1C47.3,24.1,47.2,24.1,47.2,24.1C47.3,24.1,47.2,24.1,47.2,24.1C47.3,24.1,47.3,24,47.2,24.1
			C47.2,24,47.2,24.1,47.2,24.1C47.2,24.1,47.2,24.1,47.2,24.1z"/>
		<path class="st0" d="M47.1,24.2c-0.1,0-0.1,0.1-0.1,0.1c0,0.1,0,0,0,0C47,24.3,47.1,24.2,47.1,24.2z"/>
		<path class="st0" d="M46.9,24.4C47,24.4,47,24.4,46.9,24.4c0.1-0.1,0.1-0.1,0.2-0.1C47.1,24.2,47,24.3,46.9,24.4
			C47,24.4,46.9,24.4,46.9,24.4c-0.1,0.1-0.1,0.1-0.1,0.1c0,0,0,0,0.1,0C46.9,24.4,46.9,24.5,46.9,24.4
			C46.9,24.4,46.9,24.4,46.9,24.4C46.9,24.4,46.9,24.4,46.9,24.4C46.9,24.4,46.9,24.4,46.9,24.4z"/>
		<path class="st0" d="M51,24.1C51,24.1,51,24.1,51,24.1C51,24.2,50.9,24.2,51,24.1C50.9,24.2,50.9,24.2,51,24.1
			C50.9,24.2,51,24.2,51,24.1z"/>
		<path class="st0" d="M50.1,25c0,0-0.1,0.1-0.2,0.2c0,0,0.1-0.1,0.1,0C50,25.1,50,25,50.1,25z"/>
		<path class="st0" d="M49.6,25.4c0,0-0.1,0-0.1,0.1C49.5,25.5,49.6,25.4,49.6,25.4C49.6,25.4,49.6,25.5,49.6,25.4z"/>
		<path class="st0" d="M47.2,26.1C47.2,26.1,47.2,26.1,47.2,26.1C47.1,26.2,47.2,26.2,47.2,26.1C47.1,26.2,47.1,26.2,47.2,26.1
			L47.2,26.1C47.1,26.2,47.2,26.1,47.2,26.1C47.2,26.1,47.2,26.1,47.2,26.1z"/>
		<path class="st0" d="M48.5,26.4c0,0-0.1,0.1-0.1,0.1c0-0.1-0.1,0-0.1,0c0,0,0.1,0.1,0.1,0.1C48.4,26.5,48.5,26.5,48.5,26.4
			C48.5,26.4,48.5,26.4,48.5,26.4z"/>
		<path class="st0" d="M48.2,26.5c0,0-0.1,0.1-0.2,0.1c0,0.1,0.1,0,0.1,0C48.1,26.6,48.1,26.6,48.2,26.5z"/>
		<path class="st0" d="M48.3,26.6C48.3,26.5,48.3,26.5,48.3,26.6C48.3,26.6,48.3,26.6,48.3,26.6c-0.1,0-0.1,0-0.1,0c0,0,0.1,0,0,0
			C48.2,26.6,48.2,26.6,48.3,26.6C48.3,26.6,48.3,26.6,48.3,26.6z"/>
		<path class="st0" d="M47.8,27C47.8,26.9,47.9,26.9,47.8,27c0.1-0.1,0-0.1,0.1-0.1C47.9,26.9,47.9,26.9,47.8,27z"/>
		<path class="st0" d="M47.6,27.6C47.6,27.6,47.6,27.6,47.6,27.6C47.6,27.6,47.6,27.5,47.6,27.6L47.6,27.6
			C47.6,27.6,47.6,27.6,47.6,27.6C47.5,27.7,47.6,27.6,47.6,27.6z"/>
		<path class="st0" d="M46.6,27.7C46.6,27.7,46.6,27.6,46.6,27.7C46.6,27.7,46.6,27.6,46.6,27.7C46.5,27.6,46.5,27.7,46.6,27.7
			C46.6,27.7,46.6,27.7,46.6,27.7z"/>
		<path class="st0" d="M45.1,27.5C45,27.5,45,27.5,45.1,27.5C45,27.6,45,27.5,45.1,27.5C45,27.6,45,27.6,45.1,27.5
			C45.1,27.5,45,27.5,45.1,27.5z"/>
		<path class="st0" d="M46.5,28.5c0.1,0,0.1,0,0.1-0.1C46.6,28.4,46.6,28.4,46.5,28.5c0,0-0.1,0.1-0.2,0.1
			C46.4,28.6,46.5,28.5,46.5,28.5z"/>
		<path class="st0" d="M46.4,28.5c-0.1,0-0.1,0.1-0.2,0.1c0,0.1-0.2,0.1-0.2,0.2c0,0,0,0,0,0c0,0,0.1-0.1,0.1-0.1
			c0.1-0.1,0.1-0.1,0.2-0.1C46.4,28.6,46.3,28.6,46.4,28.5C46.3,28.6,46.4,28.6,46.4,28.5z"/>
		<path class="st0" d="M46.6,28.6c-0.1-0.1-0.3,0.1-0.3,0.2C46.3,28.7,46.5,28.6,46.6,28.6z"/>
		<path class="st0" d="M45.8,29c0,0-0.1,0-0.1,0.1C45.6,29.1,45.7,29.1,45.8,29z"/>
		<path class="st0" d="M45.2,29.3c-0.1,0-0.2,0.1-0.3,0.2c0.1,0,0.1-0.1,0.1,0C44.9,29.4,45,29.4,45.2,29.3
			C45.1,29.4,45,29.4,45.2,29.3C45.1,29.4,45.1,29.4,45.2,29.3z"/>
		<path class="st0" d="M45.2,29.4c0,0-0.1,0-0.1,0.1C45.1,29.5,45.1,29.4,45.2,29.4C45.2,29.4,45.2,29.4,45.2,29.4z"/>
		<path class="st0" d="M44.8,29.5c-0.1,0-0.2,0.1-0.2,0.1C44.6,29.7,44.7,29.6,44.8,29.5z"/>
		<path class="st0" d="M43.6,30c0,0-0.1,0-0.1,0.1L43.6,30C43.5,30,43.6,30,43.6,30z"/>
		<path class="st0" d="M43,30.4L43,30.4C43,30.3,43,30.4,43,30.4C42.9,30.4,43,30.4,43,30.4z"/>
		<path class="st0" d="M42.3,30.6c0-0.1-0.1,0.1-0.1,0c0,0,0,0,0,0C42.2,30.6,42.3,30.6,42.3,30.6z"/>
		<path class="st0" d="M41.2,30.9C41.2,30.9,41.2,30.9,41.2,30.9C41.2,30.9,41.2,30.8,41.2,30.9c0-0.1-0.1,0-0.1,0
			c0,0.1-0.1,0.1-0.2,0.1c-0.1,0,0,0,0,0.1c0.1,0,0.1,0,0.2-0.1C41.1,30.9,41.1,30.9,41.2,30.9C41.1,30.9,41.2,30.9,41.2,30.9z"/>
		<path class="st0" d="M39.3,31.2c-0.1,0-0.1,0.1-0.2,0c0,0,0,0,0,0C39.2,31.2,39.2,31.2,39.3,31.2z"/>
		<path class="st0" d="M38.1,31.3c0,0-0.1,0-0.2,0C38,31.3,38,31.3,38.1,31.3z"/>
		<path class="st0" d="M36.9,31.1C36.9,31.1,36.9,31.1,36.9,31.1C36.9,31.2,36.9,31.2,36.9,31.1C36.9,31.1,36.9,31.2,36.9,31.1
			C36.9,31.1,37,31.1,36.9,31.1z"/>
		<path class="st0" d="M32.4,30.3C32.4,30.3,32.3,30.3,32.4,30.3c-0.1-0.1-0.1-0.1-0.1-0.1L32.4,30.3C32.4,30.3,32.4,30.3,32.4,30.3
			z"/>
		<path class="st0" d="M30.1,25.9c0,0-0.1-0.1-0.1-0.1c0,0-0.1,0-0.1-0.1c0,0,0,0,0,0c0,0,0,0,0,0C29.9,25.7,30,25.8,30.1,25.9z"/>
		<path class="st0" d="M26.3,26.7C26.2,26.7,26.3,26.8,26.3,26.7C26.2,26.8,26.2,26.8,26.3,26.7L26.3,26.7
			C26.2,26.7,26.3,26.8,26.3,26.7z"/>
		<path class="st0" d="M25.9,26.3C25.9,26.2,25.9,26.3,25.9,26.3C25.8,26.3,25.9,26.3,25.9,26.3C25.9,26.3,25.9,26.3,25.9,26.3z"/>
	</g>
</g>
<g>
	<g>
		<path class="st1" d="M0,0.3h3.6v3.6v1.5c0.7-1.1,1.9-1.5,3.2-1.5c1.8,0,2.9,0.7,3.6,1.7c0.7,1,0.8,2.5,0.8,4v6.7H7.6V9.8
			c0-0.7-0.1-1.3-0.4-1.8C6.9,7.6,6.4,7.3,5.6,7.3c-1,0-1.5,0.5-1.8,1C3.6,8.8,3.6,9.4,3.6,9.7v6.7H0L0,0.3L0,0.3z"/>
		<path class="st1" d="M13.2,10.3c0-2.9,2.1-6.4,6.5-6.4c4.4,0,6.5,3.5,6.5,6.4c0,3-2.1,6.4-6.5,6.4S13.2,13.3,13.2,10.3L13.2,10.3z
			 M16.8,10.3c0,1.7,1.3,3,2.9,3s2.9-1.3,2.9-3c0-1.8-1.3-3-2.9-3S16.8,8.6,16.8,10.3L16.8,10.3z"/>
		<path class="st1" d="M28.2,4.3h3.4v1.3c0,0,0.2-0.4,0.7-0.8c0.5-0.4,1.4-0.8,2.6-0.8c0.8,0,1.9,0.2,2.8,1.1c0.3,0.3,0.5,0.6,0.7,1
			c0.2-0.4,0.5-0.7,0.9-1c0.7-0.7,1.7-1.1,3-1.1c0.8,0,2.2,0.2,3.2,1.2c1.1,1.2,1.3,2,1.3,4.7v6.6h-3.6V9.9c0-0.5,0-1.1-0.2-1.7
			c-0.2-0.6-0.7-1-1.6-1c-1,0-1.5,0.5-1.7,1c-0.3,0.5-0.3,1.1-0.3,1.5v6.6h-3.6V9.8c0-0.3,0-1-0.2-1.5c-0.2-0.6-0.7-1-1.6-1
			c-1,0-1.5,0.5-1.8,1.1c-0.3,0.6-0.3,1.2-0.3,1.6v6.4h-3.6V4.3z"/>
		<path class="st1" d="M49.7,0.3h3.6V3h-3.6V0.3z M49.7,4.3h3.6v12.1h-3.6V4.3z"/>
	</g>
</g>
<path class="st1" d="M55.8,5c0-0.1,0-0.1-0.1-0.1c0,0-0.1,0-0.1,0h-0.1v0.3h0.2C55.7,5.2,55.8,5.1,55.8,5C55.8,5.1,55.8,5.1,55.8,5
	 M55.9,5.3l0.2,0.4c0,0,0,0,0,0c0,0,0,0,0,0h-0.2c0,0,0,0,0,0l-0.2-0.4h-0.2v0.3c0,0,0,0,0,0c0,0,0,0,0,0h-0.1c0,0,0,0,0,0
	c0,0,0,0,0,0v-1c0,0,0,0,0,0c0,0,0,0,0,0h0.3c0.1,0,0.1,0,0.2,0c0.1,0,0.1,0.1,0.1,0.1C56,4.9,56,5,56,5s0,0.1,0,0.2
	C56,5.2,55.9,5.3,55.9,5.3C55.9,5.3,55.9,5.3,55.9,5.3 M55.7,4.5c-0.1,0-0.2,0-0.3,0.1c-0.1,0-0.2,0.1-0.2,0.2
	C55.1,4.8,55,4.8,55,4.9C55,5,55,5.1,55,5.2s0,0.2,0.1,0.3c0,0.1,0.1,0.2,0.2,0.2c0.1,0.1,0.1,0.1,0.2,0.2s0.2,0.1,0.3,0.1
	s0.2,0,0.3-0.1c0.1,0,0.2-0.1,0.2-0.2c0.1-0.1,0.1-0.1,0.2-0.2c0-0.1,0.1-0.2,0.1-0.3s0-0.2-0.1-0.3c0-0.1-0.1-0.2-0.2-0.2
	C56.1,4.6,56,4.6,56,4.5S55.8,4.5,55.7,4.5 M56.6,5.2c0,0.1,0,0.2-0.1,0.3c-0.1,0.1-0.1,0.2-0.2,0.3C56.2,5.9,56.1,6,56,6
	c-0.1,0.1-0.2,0.1-0.3,0.1s-0.2,0-0.3-0.1c-0.1-0.1-0.2-0.1-0.3-0.2c-0.1-0.1-0.1-0.2-0.2-0.3c-0.1-0.1-0.1-0.2-0.1-0.3
	c0-0.1,0-0.2,0.1-0.3c0.1-0.1,0.1-0.2,0.2-0.3c0.1-0.1,0.2-0.1,0.3-0.2c0.1-0.1,0.2-0.1,0.3-0.1s0.2,0,0.3,0.1
	c0.1,0.1,0.2,0.1,0.3,0.2c0.1,0.1,0.1,0.2,0.2,0.3C56.5,5,56.6,5.1,56.6,5.2"/>
</svg>
