<?xml version="1.0" encoding="utf-8"?>
<!-- Generator: Adobe Illustrator 25.2.3, SVG Export Plug-In . SVG Version: 6.00 Build 0)  -->
<svg version="1.1" id="Layer_1" xmlns="http://www.w3.org/2000/svg" xmlns:xlink="http://www.w3.org/1999/xlink" x="0px" y="0px"
	 viewBox="0 0 858 297" style="enable-background:new 0 0 858 297;" xml:space="preserve">
<style type="text/css">
	.st0{fill:#FFFFFF;}
</style>
<g>
	<path id="XMLID_11_" class="st0" d="M555.3,73.8h55.5c16,0,29.1,2.6,39.2,7.9c10.2,5.2,15.2,15.2,15.2,29.9c0,8.1-2.3,15-6.9,20.6
		c-4.5,5.6-10.8,9.7-18.8,12.2c9.8,1.4,17.7,5.5,23.6,12.2c5.9,6.8,8.9,14.9,8.9,24.6c0,14.3-5.5,24.8-16.5,31.5
		c-10.9,6.6-24.1,9.9-39.5,9.9h-60.9V73.8z M588.1,133.4h23.8c5.8,0,10.6-1.3,14.6-3.9c4-2.6,5.9-6.7,5.9-12.3
		c0-5.6-2.1-9.6-6.4-11.9c-4.3-2.4-9.5-3.6-15.6-3.6H588L588.1,133.4L588.1,133.4z M588.1,195h29.4c5.9,0,11-1.4,15.4-4.2
		c4.4-2.8,6.5-7.2,6.5-13.2c0-6.2-2.6-10.4-8-12.8c-5.4-2.4-11.5-3.6-18.5-3.6H588L588.1,195L588.1,195z M347,73.8L312.1,171
		l-34.3-97.2h-49.6v148.9H261l0.4-114.2L299,222.7h25.1l39.5-114.2v114.2h32.8V93l-16.1-19.2H347z M547.9,74h-42.1l-50.2,53.4V73.9
		c-13.5,5.8-24.6,13.1-32.8,19.3v129.8h32.8v-60.5l4.4,5.2l45.8,55.2h42.1l-66.2-79.7L547.9,74z"/>
	<path id="XMLID_15_" class="st0" d="M547.9,74c-35.2-16.2-67.5-10.8-92.3-0.1c-13.5,5.8-24.6,13.1-32.8,19.3
		c-9.6,7.4-15.2,13.2-15.2,13.2L396.4,93l-16.1-19.2C476-2.7,547.9,74,547.9,74 M363.5,54.5c0,0,82.6-70.1,139.6-8.6
		c0,0-49-91.3-156.4-11.2L363.5,54.5z M228.2,295.1h7.9l0.1-34.1l21.9,34.1h10.1v-44.4h-7.9v33v0.1h-0.1l-21.5-33.1h-10.5
		L228.2,295.1L228.2,295.1z M280.3,282.6c0.2,2.2,1.1,4,2.6,5.3c1.5,1.3,3.3,1.9,5.5,1.9c1.8,0,3.4-0.4,4.6-1.1
		c1.2-0.7,2.4-1.7,3.5-3.1l5.4,4.1c-1.8,2.1-3.6,3.6-5.8,4.6c-2.1,1-4.4,1.4-6.9,1.4c-4.6,0-8.5-1.5-11.6-4.4
		c-3.1-2.9-4.7-6.7-4.7-11.4c0-4.7,1.5-8.5,4.7-11.4c3.1-2.9,7-4.4,11.6-4.4c4.2,0,7.6,1.4,10.2,4.3s3.8,6.9,3.8,12v2.1H280.3
		L280.3,282.6z M295.8,277c0-2.2-0.7-3.9-2.1-5.2c-1.4-1.2-3.2-1.9-5.6-1.9c-2.2,0-3.9,0.6-5.3,1.9c-1.4,1.3-2.2,3-2.5,5.2
		L295.8,277L295.8,277z M331,290.6c-1.1,1.8-2.6,3.1-4.4,3.9c-1.8,0.9-3.8,1.3-6.1,1.3c-4.5,0-8.2-1.5-10.8-4.4c-2.6-3-4-6.8-4-11.4
		c0-4.5,1.4-8.2,4.1-11.3c2.7-3,6.2-4.5,10.5-4.5c2.5,0,4.6,0.4,6.2,1.3c1.6,0.9,2.9,2,4,3.2l0.2-21.1h7.5v47.4H331L331,290.6
		L331,290.6z M322,289c2.6,0,4.8-0.9,6.4-2.7c1.6-1.8,2.5-3.9,2.5-6.4c0-2.5-0.8-4.6-2.4-6.4c-1.6-1.8-3.8-2.6-6.5-2.6
		c-2.6,0-4.8,0.9-6.4,2.7c-1.6,1.8-2.5,3.9-2.5,6.3c0,2.5,0.8,4.6,2.4,6.4C317.2,288.2,319.3,289,322,289 M349.5,282.6
		c0.2,2.2,1.1,4,2.6,5.3c1.5,1.3,3.3,1.9,5.5,1.9c1.8,0,3.4-0.4,4.6-1.1c1.2-0.7,2.4-1.7,3.5-3.1l5.4,4.1c-1.7,2.1-3.6,3.6-5.8,4.6
		c-2.1,1-4.4,1.4-6.9,1.4c-4.6,0-8.5-1.5-11.6-4.4c-3.1-2.9-4.7-6.7-4.7-11.4c0-4.7,1.5-8.5,4.7-11.4c3.1-2.9,7.1-4.4,11.6-4.4
		c4.2,0,7.7,1.4,10.2,4.3c2.6,2.9,3.8,6.9,3.8,12v2.1H349.5L349.5,282.6z M364.9,277c0-2.2-0.7-3.9-2.1-5.2
		c-1.4-1.2-3.2-1.9-5.6-1.9c-2.2,0-3.9,0.6-5.3,1.9c-1.4,1.3-2.2,3-2.5,5.2L364.9,277L364.9,277z M376.3,265h7.5v4.8
		c1.9-3.7,4.9-5.5,9.1-5.5c0.4,0,0.8,0,1.2,0.1s0.9,0.2,1.5,0.4v7.3c-1.1-0.2-1.7-0.4-2.1-0.5c-0.4-0.1-0.9-0.1-1.5-0.1
		c-2.4,0-4.4,0.7-5.8,2.1c-1.5,1.4-2.3,3.2-2.3,5.5v16.1h-7.5V265z M397.8,247.7h7.5v47.4h-7.5V247.7z M429.6,290.9
		c-1.1,1.6-2.5,2.9-4.2,3.7c-1.6,0.8-3.5,1.2-5.6,1.2c-3,0-5.6-0.8-7.7-2.4c-2.2-1.6-3.2-3.8-3.2-6.6c0-4.3,1.8-7.1,5.4-8.5
		c3.6-1.4,8.1-2,13.5-2h1.9v-0.8c0-1.8-0.6-3.2-1.9-4.2c-1.2-1-2.9-1.5-4.9-1.5c-3.2,0-5.8,1.1-8.1,3.1l-3.9-3.9
		c1.6-1.7,3.5-2.9,5.7-3.6c2.2-0.8,4.5-1.2,7.1-1.2c4.3,0,7.5,1.1,9.6,3.1c2.2,2.1,3.2,5.6,3.2,10.4V295h-6.8L429.6,290.9
		L429.6,290.9z M429.2,281.6h-1.6c-3.1,0-5.7,0.3-7.9,0.9c-2.2,0.6-3.4,1.8-3.4,3.7c0,1.3,0.5,2.3,1.5,2.9c1.1,0.6,2.3,1,3.7,1
		c2.5,0,4.4-0.6,5.6-1.8c1.3-1.2,1.9-2.9,1.9-5.1L429.2,281.6L429.2,281.6z M441.3,265h7.1v4.8c0.8-1.6,2-3,3.5-4.1
		c1.5-1,3.5-1.5,5.8-1.5c3.8,0,6.6,1.1,8.4,3.3c1.8,2.2,2.6,5.1,2.6,8.5v19h-7.5v-15.2c0-2.5-0.4-4.6-1-6.3
		c-0.6-1.7-2.2-2.5-4.5-2.5c-2.3,0-4,0.7-5.2,2.2c-1.1,1.5-1.7,3.3-1.7,5.5V295h-7.5V265z M498,290.6c-1.1,1.8-2.6,3.1-4.4,3.9
		c-1.8,0.9-3.8,1.3-6.1,1.3c-4.6,0-8.2-1.5-10.8-4.4c-2.6-3-4-6.8-4-11.4c0-4.5,1.4-8.2,4.1-11.3c2.7-3,6.2-4.5,10.5-4.5
		c2.5,0,4.6,0.4,6.2,1.3c1.6,0.9,2.9,2,3.9,3.2l0.2-21.1h7.5v47.4h-7.2v-4.5H498z M489.1,289c2.6,0,4.8-0.9,6.4-2.7
		c1.6-1.8,2.5-3.9,2.5-6.4c0-2.5-0.8-4.6-2.4-6.4c-1.6-1.8-3.8-2.6-6.5-2.6c-2.6,0-4.8,0.9-6.4,2.7c-1.6,1.8-2.5,3.9-2.5,6.3
		c0,2.5,0.8,4.6,2.5,6.4C484.3,288.2,486.5,289,489.1,289"/>
</g>
</svg>
