<?xml version="1.0" encoding="utf-8"?>
<!-- Generator: Adobe Illustrator 25.2.3, SVG Export Plug-In . SVG Version: 6.00 Build 0)  -->
<svg version="1.1" id="Stripelight-logo" xmlns="http://www.w3.org/2000/svg" xmlns:xlink="http://www.w3.org/1999/xlink" x="0px"
	 y="0px" viewBox="0 0 179.2 31.7" style="enable-background:new 0 0 179.2 31.7;" xml:space="preserve">
<style type="text/css">
	.st0{fill:#FFFFFF;}
	.st1{fill:#BC181B;}
	.st2{fill:#E62A3C;}
	.st3{fill:#C71A1C;}
	.st4{fill:#9C1919;}
	.st5{fill:#8A1723;}
	.st6{fill:#C31B1B;}
	.st7{fill:#E72A51;}
	.st8{fill:#731246;}
	.st9{fill:#4A1237;}
	.st10{fill:#E62A3E;}
	.st11{fill:#881725;}
	.st12{fill:#E7348A;}
	.st13{fill:#A8144B;}
	.st14{fill:#E72C65;}
	.st15{fill:#8D1350;}
	.st16{fill:#9B134E;}
	.st17{fill:#6E2472;}
	.st18{fill:#581D53;}
	.st19{fill:#902F88;}
	.st20{fill:#A24893;}
	.st21{fill:#0D4690;}
	.st22{fill:#0D5EA9;}
	.st23{fill:#1E3E8A;}
	.st24{fill:#17428E;}
	.st25{fill:#2E2E72;}
	.st26{fill:#125AA5;}
</style>
<g>
	<g>
		<path class="st0" d="M39.4,10.8h-3.9v4.7h3.9c1.5,0,2.4-0.9,2.4-2.3C41.7,11.6,40.9,10.8,39.4,10.8 M39.5,9.1
			c2.6,0,4.1,1.5,4.1,4.1c0,2.1-1,3.4-2.9,3.8c0.3,0.2,0.7,0.6,0.9,1l2.2,4.1c0.2,0.3,0.1,0.6-0.2,0.6h-0.8c-0.7,0-0.8-0.1-1-0.5
			l-1.7-3.5c-0.6-1.1-1.1-1.5-2.5-1.5h-2.1v4.9c0,0.3-0.1,0.5-0.6,0.5h-0.8c-0.3,0-0.5-0.1-0.5-0.5V9.5c0-0.3,0.1-0.5,0.5-0.5
			C34.2,9.1,39.5,9.1,39.5,9.1z"/>
		<path class="st0" d="M52.2,16c0-1.4-1-2.1-2.6-2.1S47,14.8,47,16v3.1c0,1.4,1,2.1,2.6,2.1c1.6,0,2.6-0.8,2.6-2.1V16z M45.4,16.1
			c0-2.3,1.6-3.7,4.2-3.7c2.7,0,4.3,1.4,4.3,3.7v3.1c0,2.3-1.6,3.7-4.3,3.7c-2.6,0-4.2-1.4-4.2-3.7V16.1z"/>
		<path class="st0" d="M62.5,16c0-1.4-1-2.1-2.6-2.1s-2.6,0.8-2.6,2.1v3.1c0,1.4,1,2.1,2.6,2.1c1.6,0,2.6-0.8,2.6-2.1V16z
			 M55.6,16.1c0-2.3,1.6-3.7,4.2-3.7c2.7,0,4.3,1.4,4.3,3.7v3.1c0,2.3-1.6,3.7-4.3,3.7c-2.6,0-4.2-1.4-4.2-3.7V16.1z"/>
		<path class="st0" d="M69.9,12.5c2.1,0,3.3,0.7,4,2.1c0.1,0.3,0.1,0.6-0.2,0.7L73,15.5c-0.3,0.1-0.5,0.1-0.7-0.2
			c-0.5-0.8-1-1.3-2.4-1.3c-1.5,0-2.2,0.5-2.2,1.4c0,1.1,0.8,1.4,2.6,1.5c1.3,0.1,2.2,0.3,2.9,0.8c0.7,0.5,0.9,1.1,0.9,2.2
			c0,1.9-1.4,3.1-4,3.1c-2.2,0-3.5-0.8-4.2-2.4c-0.1-0.3,0-0.6,0.3-0.6l0.7-0.2c0.3-0.1,0.5,0,0.6,0.3c0.3,0.9,1.3,1.4,2.6,1.4
			c1.6,0,2.4-0.5,2.4-1.5s-0.7-1.4-2.5-1.5c-0.9-0.1-1.4-0.1-2.2-0.5c-0.3-0.1-0.7-0.3-0.9-0.5c-0.5-0.3-0.8-1.1-0.8-2.1
			C66.1,13.5,67.4,12.5,69.9,12.5"/>
		<path class="st0" d="M82.5,16.3c0-1.5-0.9-2.4-2.6-2.4c-1.7,0-2.6,0.9-2.6,2.4v0.6h5.3C82.5,16.8,82.5,16.3,82.5,16.3z M75.5,16.5
			c0-2.6,1.5-4.1,4.3-4.1c2.9,0,4.3,1.6,4.3,4v1.1c0,0.5-0.2,0.7-0.7,0.7h-6.2v0.9c0,1.5,0.9,2.3,2.5,2.3c1.3,0,2.2-0.5,2.6-1.4
			c0.2-0.3,0.5-0.3,0.8-0.2l0.6,0.2c0.3,0.2,0.3,0.5,0.2,0.8c-0.8,1.4-2.2,1.9-4.1,1.9c-2.9,0-4.2-1.5-4.2-4v-2.3H75.5z"/>
		<path class="st0" d="M90.3,12.5c2.6,0,3.9,1.3,3.9,3.8v5.9c0,0.3-0.1,0.5-0.5,0.5H93c-0.3,0-0.5-0.1-0.5-0.5v-5.8
			c0-1.5-0.8-2.3-2.4-2.3c-0.8,0-1.5,0.1-2.2,0.3c-0.1,0.1-0.2,0.2-0.2,0.3v7.4c0,0.3-0.1,0.5-0.5,0.5h-0.8c-0.3,0-0.5-0.1-0.5-0.5
			v-8c0-0.6,0.1-0.8,0.7-1C87.8,12.6,89,12.5,90.3,12.5"/>
		<path class="st0" d="M102.8,14.4c-0.9-0.3-1.7-0.5-2.4-0.5c-1.7,0-2.5,0.8-2.5,2.4V19c0,1.6,0.8,2.3,2.5,2.3
			c0.8,0,1.5-0.1,2.1-0.3c0.2-0.1,0.2-0.2,0.2-0.3v-6.2H102.8z M96.3,16.4c0-2.5,1.3-3.9,3.9-3.9c0.8,0,1.6,0.1,2.6,0.5v-4
			c0-0.3,0.1-0.5,0.5-0.5h0.8c0.3,0,0.5,0.1,0.5,0.5v12.3c0,0.7-0.1,0.8-0.8,1c-1,0.5-2.2,0.6-3.4,0.6c-2.7,0-4.1-1.3-4.1-3.9v-2.6
			H96.3z"/>
		<path class="st0" d="M112.7,18.4c-1-0.1-1.8-0.1-2.4-0.1c-1.7,0-2.4,0.5-2.4,1.6c0,1.1,0.6,1.6,2.3,1.6c1,0,1.7-0.1,2.2-0.2
			c0.2-0.1,0.3-0.2,0.3-0.5C112.7,20.8,112.7,18.4,112.7,18.4z M110.5,12.5c2.9,0,4,1.5,4,3.9v5c0,0.7-0.1,0.9-0.7,1.1
			c-0.8,0.3-1.8,0.5-3.3,0.5c-1.6,0-2.7-0.2-3.3-0.8c-0.6-0.5-0.9-1.3-0.9-2.3c0-2.2,1.1-3,4.2-3c0.7,0,1.4,0,2.2,0.1v-0.7
			c0-1.5-0.6-2.3-2.3-2.3c-1.1,0-1.9,0.3-2.4,1.1c-0.2,0.3-0.2,0.3-0.7,0.2l-0.6-0.2c-0.3-0.1-0.5-0.3-0.2-0.7
			C107.4,13.1,108.6,12.5,110.5,12.5"/>
		<path class="st0" d="M122.5,18.4c-1-0.1-1.8-0.1-2.4-0.1c-1.7,0-2.4,0.5-2.4,1.6c0,1.1,0.6,1.6,2.3,1.6c1,0,1.7-0.1,2.2-0.2
			c0.2-0.1,0.3-0.2,0.3-0.5C122.5,20.8,122.5,18.4,122.5,18.4z M120.4,12.5c2.9,0,4,1.5,4,3.9v5c0,0.7-0.1,0.9-0.7,1.1
			c-0.8,0.3-1.8,0.5-3.3,0.5c-1.6,0-2.7-0.2-3.3-0.8c-0.6-0.5-0.9-1.3-0.9-2.3c0-2.2,1.1-3,4.2-3c0.7,0,1.4,0,2.2,0.1v-0.7
			c0-1.5-0.6-2.3-2.3-2.3c-1.1,0-1.9,0.3-2.4,1.1c-0.2,0.3-0.2,0.3-0.7,0.2l-0.6-0.2c-0.3-0.1-0.5-0.3-0.2-0.7
			C117.2,13.1,118.4,12.5,120.4,12.5"/>
		<path class="st0" d="M128.2,22.1c0,0.3-0.1,0.5-0.5,0.5H127c-0.3,0-0.5-0.1-0.5-0.5V8.9c0-0.3,0.1-0.5,0.5-0.5h0.8
			c0.3,0,0.5,0.1,0.5,0.5V22.1z"/>
	</g>
	<polygon class="st1" points="16.2,9.9 12.6,11.2 16,15.6 	"/>
	<polygon class="st2" points="12.1,14.2 16,15.6 12.6,11.2 	"/>
	<polygon class="st3" points="19.9,12.7 20,15.2 16,15.6 	"/>
	<polygon class="st4" points="16,15.6 17.7,18 20,15.2 	"/>
	<polygon class="st5" points="12.1,14.2 13.8,18.3 16,15.6 	"/>
	<polygon class="st6" points="17.7,18 16,15.6 13.8,18.3 	"/>
	<polygon class="st7" points="16.2,9.9 16,15.6 19.9,12.7 	"/>
	<polygon class="st8" points="10.1,16.3 12,14.3 12.4,11.9 	"/>
	<polygon class="st9" points="17.2,10.5 20.1,12.6 22.6,10.9 	"/>
	<polygon class="st8" points="22.6,10.9 24.8,16.8 20.1,12.6 	"/>
	<polygon class="st3" points="10.9,20.6 17.4,22.5 13.7,18.4 	"/>
	<polygon class="st10" points="12,14.3 10.9,20.6 13.7,18.4 	"/>
	<polygon class="st11" points="10.1,16.3 10.9,20.6 12,14.3 	"/>
	<polygon class="st3" points="16.9,23.4 18.4,23.8 17.6,22.9 	"/>
	<polygon class="st12" points="17.7,18.1 18.4,23.8 23.3,21.7 	"/>
	<polygon class="st13" points="20.1,15.3 17.7,18.1 23.3,21.7 	"/>
	<polygon class="st14" points="20.1,15.3 23.3,21.7 24.8,16.8 	"/>
	<polygon class="st15" points="20.1,12.6 20.1,15.3 24.8,16.8 	"/>
	<polygon class="st16" points="18.4,23.8 17.6,22.9 17.7,22.6 17.4,22.5 13.7,18.4 17.7,18.1 	"/>
	<polygon class="st17" points="23.4,12.4 25,16.8 27.2,13.9 	"/>
	<polygon class="st18" points="14.2,25.3 10.4,24 11.7,27 	"/>
	<polygon class="st19" points="14.8,27.3 14.2,25.3 11.7,27 	"/>
	<polygon class="st17" points="15.8,24.1 14.2,25.3 14.8,27.3 	"/>
	<polygon class="st18" points="15.8,24.1 20.2,27.8 18.4,24 16.7,23.4 	"/>
	<polygon class="st20" points="14.8,27.3 20.2,27.8 15.8,24.1 	"/>
	<polygon class="st17" points="20.2,27.8 24.9,24 18.4,24 	"/>
	<polygon class="st19" points="27.2,13.9 25,16.8 27.2,22.3 	"/>
	<polygon class="st19" points="23.5,22 18.4,24 24.9,24 	"/>
	<polygon class="st20" points="23.5,22 24.9,24 27.2,22.3 	"/>
	<polygon class="st18" points="25,16.8 23.5,22 27.2,22.3 	"/>
	<polygon class="st18" points="12.5,11.1 16.2,9.7 17.2,10.4 18.8,10.5 15.9,6.7 	"/>
	<polygon class="st17" points="7.1,11 9.8,16.3 12.5,11.1 	"/>
	<polygon class="st20" points="7.1,11 12.5,11.1 12,6.3 	"/>
	<polygon class="st17" points="21.7,10.7 20.4,6.9 18.8,10.5 	"/>
	<polygon class="st19" points="7.1,11 5.5,17.1 9.8,16.3 	"/>
	<polygon class="st18" points="5.5,17.1 8.4,23.1 9.8,16.3 	"/>
	<polygon class="st20" points="10.4,23.9 10.6,20.8 8.4,23.1 	"/>
	<polygon class="st17" points="14.2,25.2 13.4,21.6 10.4,23.9 	"/>
	<polygon class="st19" points="10.6,20.8 10.4,23.9 13.4,21.6 	"/>
	<polygon class="st18" points="17.5,22.8 13.4,21.6 14.2,25.2 	"/>
	<polygon class="st17" points="8.4,23.1 10.6,20.8 9.8,16.3 	"/>
	<polygon class="st20" points="18.8,10.5 20.4,6.9 15.9,6.7 	"/>
	<polygon class="st17" points="15.9,6.7 12,6.3 12.5,11.1 	"/>
	<polygon class="st21" points="22,10.7 25.5,8 22,6.3 	"/>
	<polygon class="st22" points="22,10.7 22.9,10.7 23.3,12 26.1,13.2 25.5,8 	"/>
	<polygon class="st23" points="4.7,23.4 8.1,23.3 6.4,19.6 	"/>
	<polygon class="st22" points="4.7,23.4 7.7,27.8 8.1,23.3 	"/>
	<polygon class="st24" points="7.7,27.8 10.3,24.1 8.1,23.3 	"/>
	<polygon class="st25" points="7.7,27.8 11.3,26.8 10.3,24.1 	"/>
	<polygon class="st23" points="18.8,6.5 18.6,4.8 16.2,6.4 	"/>
	<polygon class="st26" points="22,10.7 22,6.3 18.6,4.8 18.8,6.5 20.6,6.7 	"/>
	<path class="st0" d="M4.7,23.4l1.7-3.9l1.7,3.8l2.2,0.8l1,2.6l-3.5,1L4.7,23.4z M23.4,22l1.6-5.1l-1.6-4.3l3.8,1.5v8.3l-7,5.5
		L11.7,27l-1-2.7l3.5,1.3l2.5-1.8l1.7,0.5L23.4,22z M17.7,18.1L17.7,18.1l2.4-2.7v-2.6l-2.5-1.9l5.1,0.2l2.1,5.8l-1.6,4.9l-4.8,2.1
		l-1.5-0.3l1-0.8l-7.2-2.1l-0.7-4.3l2.2-4.2l-0.3,2.3l1.7,4.1L17.7,18.1z M12.2,14.3l0.5-3l3.5-1.4l3.7,2.7v2.4l-2.2,2.6L14,18.1
		L12.2,14.3z M8.4,23.1l-2.7-6.1L7.1,11l5-4.7l8.3,0.6l1.4,3.7l-4.5-0.2l-0.9-0.7l-4,1.5l0,0l-2.6,5l0.8,4.6l6.9,1.9L14.2,25
		L8.4,23.1z M23.3,12l-0.5-1.4H22l-1.5-4l-4.2-0.2L18.5,5l6.9,3.2l0.6,5.1L23.3,12z M18.6,4.6l-2.7,1.8L12,6.2L6.9,11l-1.6,6.3
		l1,2.2l-1.9,4.2l3.3,4.6l3.8-1.1l0.1,0.2l8.8,0.8l7.1-5.6l0,0v-8.7l-1.1-0.5L25.7,8L18.6,4.6z"/>
</g>
</svg>
