<?xml version="1.0" encoding="utf-8"?>
<!-- Generator: Adobe Illustrator 25.2.3, SVG Export Plug-In . SVG Version: 6.00 Build 0)  -->
<svg version="1.1" id="Layer_1" xmlns="http://www.w3.org/2000/svg" xmlns:xlink="http://www.w3.org/1999/xlink" x="0px" y="0px"
	 viewBox="0 0 858 297" style="enable-background:new 0 0 858 297;" xml:space="preserve">
<style type="text/css">
	.st0{fill:#FFFFFF;}
</style>
<g>
	<path class="st0" d="M152,82l26.8-26.6c0,0,3.1-3.9,6.1-3.9c2.3,0.1,4.5,1.2,6,3.1c1.5,1.4,27.3,27.4,27.3,27.4H233l-35.1-35
		c-1.8-1.9-3.9-3.5-6.2-4.6c-2.1-0.8-4.3-1.2-6.6-1.3c-2.1,0-4.2,0.4-6.2,1.2c-2.2,0.9-4.3,2.2-6,4c-2.3,2.3-35.6,35.8-35.6,35.8
		L152,82z"/>
	<path class="st0" d="M190.6,213.1c0.5,0.8,0.2,1.8-0.6,2.3c-0.2,0.1-0.4,0.2-0.6,0.2c-4.7,0.8-9.5,0.3-13.9-1.5
		c-4.6-2-8.6-5.1-11.6-9.1c-4-6-7.8-12.2-11.1-18.6c1.4,2.4-45.8-78.9-54.7-94.3c-0.5-0.8-0.2-1.8,0.6-2.3c0.3-0.1,0.5-0.2,0.8-0.2
		h46.6c0.6,0,1.1,0.3,1.4,0.8l55.7,93.8c0.5,0.8,1.5,1.1,2.3,0.6c0.2-0.1,0.4-0.3,0.6-0.6l46.6-80.7c0.5-0.8,0.2-1.8-0.6-2.3
		c-0.3-0.1-0.5-0.2-0.8-0.2h-21c-0.6,0-1.1,0.3-1.4,0.8l-26.8,46.9c-0.5,0.8-1.5,1.1-2.3,0.6c-0.3-0.1-0.5-0.4-0.6-0.6l-5-8.6
		c-0.3-0.5-0.3-1.2,0-1.7l28.3-48.1c0.3-0.5,0.8-0.8,1.4-0.8h46.6c0.9,0,1.7,0.7,1.7,1.7c0,0.3-0.1,0.6-0.2,0.8
		c-7.7,13.1-43.3,73.7-57.4,98.9c-3.4,6.1-4.7,8.7-6.3,10.9c-1.1,1.5-2.3,3-3.2,4.2c-0.6,0.7-1.6,0.8-2.3,0.3
		c-0.2-0.1-0.3-0.3-0.4-0.5l-61.4-104c-0.3-0.5-0.8-0.8-1.4-0.8h-20.6c-0.9,0-1.7,0.7-1.7,1.7c0,0.3,0.1,0.6,0.2,0.8l42.2,73
		c0,0,9.7,17.2,12.2,21.1c1.6,2.4,3.7,4.3,6.2,5.6c2,1.2,4.3,1.8,6.7,1.9c0.6,0,1.1,0.3,1.4,0.8L190.6,213.1z"/>
	<path class="st0" d="M326.7,152.9l-33.4-62.5h21l24.7,47.2l25.2-47.2h21.2l-34.6,62.5H326.7z"/>
	<rect x="394.8" y="90.3" class="st0" width="19.1" height="62.5"/>
	<path class="st0" d="M429.2,132.9h18.7c0,1.3,0.1,2.5,0.5,3.8c0.4,1.2,1.4,2.1,2.6,2.5c1.7,0.4,3.4,0.7,5.1,0.6l7.4,0.2
		c1.1,0,5.8,0,14-0.2c2.4,0.1,4.7-0.2,7-0.8c2.3-0.6,3.9-2.7,3.8-5.1c0-3.1-1.8-5-5.5-5.5c-0.9-0.1-4.1-0.2-9.6-0.2h-17.2
		c-5.8,0.3-11.6-0.2-17.2-1.4c-3.5-0.9-6.4-3.3-8-6.6c-1.3-3.4-1.9-6.9-1.7-10.5c0-7.3,1.7-12.3,5.1-15c4.8-2.9,10.2-4.5,15.8-4.5
		c3-0.3,9.1-0.4,18.2-0.4c8.2-0.3,16.4,0.1,24.5,1.1c3.7,0.6,7.1,2.5,9.4,5.5c1.9,3.2,2.8,7,2.5,10.7v2.2h-18.6
		c0.2-3-2.1-5.6-5.1-5.9c-3-0.2-6.1-0.3-9.1-0.2c-7.5,0-13.2,0.1-17.3,0.4c-1.6,0-3.2,0.4-4.7,1.1c-1.4,0.9-2.2,2.5-2,4.1
		c-0.1,2.5,1.6,4.6,4,5c2.5,0.4,5.1,0.6,7.7,0.5h17.7c1.2,0,4.3,0.1,9.3,0.3c4.2-0.1,8.4,0.6,12.4,1.8c5.5,2.3,8.2,8,8.2,17
		c0,8.4-2.3,13.9-6.9,16.4c-4.3,2.4-15.4,3.5-33.3,3.5c-9,0.3-17.9-0.2-26.8-1.3c-3.6-0.5-6.7-2.5-8.8-5.5
		c-1.6-3.2-2.4-6.7-2.2-10.3C429.1,135.8,429.1,134.7,429.2,132.9"/>
	<path class="st0" d="M581.7,129.3h18.4v2.8c0.3,4.4-0.4,8.7-2.1,12.8c-2.2,3.8-6,6.4-10.3,7.1c-3.7,0.7-7.4,1.1-11.1,1.1
		c-3.4,0.1-10,0.2-20,0.2c-6.2,0.1-12.5-0.2-18.6-0.8c-8.1-1-13.2-4.6-15.3-10.8c-1.8-7-2.5-14.3-2.2-21.5c-0.2-5.5,0.3-11,1.4-16.4
		c1.4-5.3,5.4-9.6,10.6-11.5c4.3-1.6,12.9-2.4,25.8-2.4c16.4,0,26.4,0.5,30,1.6c3.9,1,7.2,3.5,9,7.1c1.5,3.6,2.2,7.5,2,11.5v2.2
		h-18.2c0-1.5-0.3-3-1-4.4c-0.9-1.6-3.7-2.6-8.2-2.9c-0.3,0-3.4,0-9.1,0c-5.4-0.1-10.8,0-16.1,0.5c-4.3,0.7-7.4,4.5-7.1,8.8
		c-0.1,1.7-0.2,4.4-0.2,8.2c0,6.9,0.9,11.2,2.6,13c2.4,1.8,5.2,2.7,8.2,2.7c1.4,0.1,4.3,0.2,8.9,0.2c6.3,0.4,12.7,0,19-1.2
		C580.4,135.9,581.6,133.3,581.7,129.3"/>
	<path class="st0" d="M656.3,105c-6.3-0.4-12.6,0.1-18.7,1.5c-2.5,1.3-4.1,3.7-4.3,6.5c-0.4,2.7-0.5,5.5-0.4,8.2
		c-0.1,3.8,0.2,7.6,1,11.3c0.9,3.3,4,5.1,9.1,5.5c3,0.2,6.6,0.3,10.8,0.3c6.9,0.3,13.9-0.1,20.8-1.2c2.9-1.1,5-3.8,5.3-6.9
		c0.4-3.1,0.5-6.3,0.4-9.4c0.1-2.5,0-5-0.3-7.5c-0.1-3-1.8-5.6-4.4-7c-2.9-0.9-5.8-1.3-8.8-1.2C665.9,105,662.4,105,656.3,105
		 M653.6,89.7c9.7-0.3,19.5,0.1,29.2,1c7,0.6,12.9,5.5,14.8,12.3c0.8,3.3,1.2,6.7,1.3,10c0.1,2.4,0.1,5.5,0.1,9
		c0.2,5.8-0.3,11.7-1.5,17.4c-2.2,8.2-8.5,12.7-19,13.6c-4.6,0.4-12.2,0.5-22.7,0.5c-9.1,0-14.6,0-16.5-0.1c-5.5,0-11-0.9-16.1-2.9
		c-5-2.6-8.3-7.6-8.8-13.2c-0.7-5.3-0.9-10.6-0.8-15.9c0-5.3,0-8.6,0.1-10c0.2-3.3,0.8-6.6,1.9-9.8c2.4-6.5,8.4-10.2,18.1-11.2
		C638.3,89.9,644.9,89.7,653.6,89.7"/>
	<path class="st0" d="M781.7,90.3l0.5,47.6l-37.9-47.6H714v62.5h18.3l-0.6-47.1l37.4,47.1h30.6V90.3H781.7z"/>
	<path class="st0" d="M558.7,188.1h-11.8c-0.1-2.9-1.8-4.3-4.9-4.4h-7.4c-1.3,0-2.8,0-4.7,0l-3.8,0.1c-1.6-0.1-3.2,0.2-4.7,1
		c-1.3,1-2,2.6-2,4.2c-0.1,1.4-0.2,3.5-0.2,6.4c-0.2,2.4,0.1,4.9,0.9,7.2c0.9,1.8,3.2,2.7,6.9,2.9c0.5,0,3.6,0,9.4,0
		c3.3,0,5.3,0,6.1-0.1c1.3,0,2.5-0.5,3.5-1.3c0.8-1,1.2-2.2,1.1-3.5c0-0.3,0-0.7,0-1.2h-15.3V192h27.1v5.5c0.1,3.2-0.1,6.4-0.6,9.5
		c-1,4.9-4.7,7.4-11.1,7.6c-1.4,0-6.5,0.1-15.2,0.1c-5.7,0-9.8-0.1-12.3-0.3c-6-0.5-9.8-2.8-11.3-7.1c-1-4-1.4-8.1-1.2-12.2
		c-0.2-4.5,0.3-9.1,1.5-13.5c1.2-3.1,4-5.4,7.3-6.1c6-1,12-1.4,18-1.1c7.1,0,11.9,0.1,14.4,0.3c5.6,0.5,8.9,2.8,10,7
		C558.6,183.8,558.8,185.9,558.7,188.1"/>
	<path class="st0" d="M580.3,194.6h18.9c1.7,0.1,3.3-0.1,4.9-0.5c1.4-0.6,2-1.9,2-4c0-2.5-0.5-4.1-1.4-4.8c-1.6-0.8-3.4-1.1-5.2-0.9
		h-19.3V194.6z M568.3,214.4v-39.7h34.3c2.9-0.1,5.7,0.1,8.5,0.7c2.8,0.5,5.2,2.5,6.2,5.1c0.8,2.3,1.1,4.7,1,7.2
		c0.5,3.5-0.8,7.1-3.4,9.5c-2.4,1.2-5,1.9-7.7,2.1c0.5,0,1.1,0.1,2,0.1c1.9-0.1,3.9,0.3,5.7,1.1c2.2,1.9,3.3,4.7,2.9,7.6v6.3h-12.2
		v-4.9c0-3-1.1-4.6-3.2-4.9c-1.2-0.1-2.3-0.2-3.5-0.1h-18.6v10L568.3,214.4z"/>
	<path class="st0" d="M654.3,184c-4-0.2-8,0.1-11.9,0.9c-1.6,0.8-2.6,2.4-2.7,4.1c-0.2,1.7-0.3,3.5-0.3,5.2
		c-0.1,2.4,0.1,4.8,0.6,7.2c0.6,2.1,2.5,3.3,5.8,3.5c1.9,0.1,4.2,0.2,6.9,0.2c4.4,0.2,8.8,0,13.2-0.8c1.9-0.7,3.2-2.4,3.3-4.4
		c0.2-2,0.3-4,0.3-6c0-1.6,0-3.2-0.2-4.8c-0.1-1.9-1.1-3.6-2.8-4.4c-1.8-0.6-3.7-0.8-5.6-0.8C660.4,184,658.2,183.9,654.3,184
		 M652.6,174.3c6.2-0.2,12.4,0,18.5,0.6c4.5,0.4,8.2,3.5,9.4,7.8c0.5,2.1,0.8,4.2,0.8,6.4c0.1,1.6,0.1,3.5,0.1,5.7
		c0.1,3.7-0.2,7.4-0.9,11c-1.4,5.2-5.4,8.1-12,8.6c-2.9,0.2-7.8,0.3-14.4,0.4c-5.8,0-9.3,0-10.5-0.1c-3.5,0-7-0.6-10.2-1.8
		c-3.2-1.7-5.3-4.8-5.6-8.4c-0.4-3.3-0.6-6.7-0.5-10.1c0-3.3,0-5.5,0.1-6.4c0.1-2.1,0.5-4.2,1.2-6.2c1.5-4.1,5.4-6.5,11.5-7.1
		C642.8,174.4,647,174.3,652.6,174.3"/>
	<path class="st0" d="M690.8,174.7h12.1v21.1c0,1.6,0,3.3,0.3,4.9c0.5,2.5,2.7,4.3,5.3,4.3c2.1,0.2,4.3,0.3,6.5,0.3
		c4.3,0,7.4-0.1,9.1-0.2c2.7-0.2,4.4-1.2,5-3.1c0.5-1.8,0.7-3.7,0.6-5.6v-21.6h12.1v20.8c0.1,3.4-0.1,6.8-0.7,10.2
		c-0.9,3.9-4,7-7.9,7.9c-2.8,0.8-5.8,1.2-8.7,1.2c1.6,0-1.3-0.1-8.8-0.1c-6.1,0-10.4-0.1-12.8-0.3c-6.5-0.6-10.3-3.5-11.4-8.6
		c-0.6-3.2-0.8-6.5-0.7-9.7L690.8,174.7z"/>
	<path class="st0" d="M763.9,195h17.6c1.6,0.1,3.2-0.1,4.6-0.8c1.3-0.9,2-2.5,1.8-4c0.2-1.7-0.3-3.4-1.4-4.8c-1.5-0.8-3.3-1.2-5-1
		h-17.6L763.9,195z M751.8,214.4v-39.7h30.4c3.3,0,5.3,0,6.2,0.1c2.1,0.1,4.1,0.6,6,1.4c2.3,1.1,3.9,3.2,4.6,5.6
		c0.7,2.4,1,4.9,0.9,7.4c0,7.1-1.5,11.5-4.5,13.5c-1.7,1-3.6,1.6-5.6,1.7c-2.2,0.2-4.3,0.3-6.5,0.3h-19.4v9.8L751.8,214.4z"/>
	<path class="st0" d="M261,124.9l19,19c1.1,1,1.9,2.1,2.6,3.4c0.3,0.7,0.5,1.4,0.4,2.2c0,1.4-0.4,2.7-1.2,3.8
		c-1,1.2-90.5,90.6-90.5,90.6c-0.8,0.9-1.7,1.8-2.7,2.5c-2,1.2-4.5,1.3-6.5,0.2c-1-0.8-1.9-1.6-2.8-2.4L90.3,155l-1.2-1.1
		c-0.5-0.6-0.9-1.1-1.3-1.8c-0.3-0.7-0.5-1.3-0.5-2c0-0.8,0-1.6,0.2-2.4c0.3-1,0.8-1.9,1.6-2.7c0.8-0.9,19.8-19.8,19.8-19.8
		l-5.3-9.6l-22,22c-1.4,1.4-2.6,3.1-3.5,5c-2.1,4.7-2,10,0.3,14.5c0.7,1.3,1.5,2.5,2.4,3.6c0.3,0.3,92.3,92.3,92.3,92.3
		c1.3,1.2,2.7,2.3,4.3,3.1c2.1,1,4.4,1.6,6.7,1.8c2.5,0.1,5.1-0.3,7.4-1.2c2.5-1.2,4.8-2.9,6.7-5L289,161c1.4-1.5,2.5-3.2,3.3-5.1
		c0.7-1.6,1.1-3.3,1.2-5.1c0.1-2,0-4-0.5-5.9c-0.5-1.8-1.3-3.4-2.4-5c-0.4-0.5-2.1-2.5-2.6-3c-0.4-0.5-21.7-21.6-21.7-21.6
		L261,124.9z"/>
</g>
</svg>
