<?xml version="1.0" encoding="utf-8"?>
<!-- Generator: Adobe Illustrator 27.4.0, SVG Export Plug-In . SVG Version: 6.00 Build 0)  -->
<svg version="1.1" id="Layer_1" xmlns="http://www.w3.org/2000/svg" xmlns:xlink="http://www.w3.org/1999/xlink" x="0px" y="0px"
	 viewBox="0 0 673.4 266.2" style="enable-background:new 0 0 673.4 266.2;" xml:space="preserve">
<style type="text/css">
	.st0{fill:#FFFFFF;}
</style>
<g>
	<path class="st0" d="M334.5,142.2c0,0.6,0.2,1.1,0.6,1.5c1.6-1.1,3.7-0.9,3.3,1.2c0,0-0.3,0.4-2.3,0.4c0,0,0.1,0.7,0.3,0.9
		c0,0-0.5,0.5-0.1,1.1c0,0,1.8-0.9,2.7-0.6c0.4,1,0,2.3-2.8,2.7c-3.5,0.5-5.5,1.6-5.8,5.4c2.7-0.2,4.5,1.1,6.6,2.1
		c3.2,1.5,6.7-0.6,6.7-0.6c-0.8-0.7-1-2.7,0.3-3.7c0.7,1.3,2.1,1.5,3,0.8c0,0,0,0,0.1-0.1c0-0.1,0-0.1-0.1-0.2
		c-1.6-0.8-1.7-2.3-1-3.8c0.8,1.2,2.6,0.3,2.8-0.7c0-0.1,0-0.1-0.1-0.1c-1.2,0.4-1.7-0.9-1.7-1.8l0,0v0v0c0-0.8,0.6-3.6-0.7-5.6
		c0.4-0.6,2.6-1.6,3.3-1.7c0.2,0,0.2-0.2,0-0.3c-0.9-0.4-3.1,0-3.5-0.4c0,0-0.4-3.1-0.5-3.2c-0.1-0.1-2.9,1.4-2.9,1.4
		c-0.6,0-1.5-2.1-2.3-2.6c-0.2-0.1-0.4,0-0.3,0.2c0.3,0.6,0.8,3,0.5,3.7c-2.5-0.2-3.3,0.7-3.5,1.4c-0.6,0.1-2.9,1.5-2.9,2
		C334.1,141.8,334.3,142,334.5,142.2z M339.5,140.5c-0.8,1.5-1.8,1.6-2.6,0.8C336.8,140.8,337.9,140.4,339.5,140.5z"/>
	<rect x="352.8" y="138.9" class="st0" width="3.6" height="9.9"/>
	<path class="st0" d="M330.6,143.7c0-0.2-0.2-0.2-0.2,0c-0.4,1.5,0.7,2.5,1.7,2.5c1.5,0,1.6-1.1,4-1.4c0.1,0,0.1-0.1,0.1-0.1
		c0-0.1,0-0.2-0.1-0.2c-0.8-0.1-1.7-0.1-2.5,0.1C331.7,145,330.7,144.3,330.6,143.7z"/>
	<path class="st0" d="M287.2,126.3c-0.1-1.3-1.4-1.6-4.3-1.4C283.5,127.5,285.8,127.9,287.2,126.3z"/>
	<path class="st0" d="M316.7,149.6c0.3-0.1,1.5-0.4,2,0.1l-1.5,2c-0.3,0.4,1.2,1.6,1.5,1.1l1.9-2.6c0,0,6.2,3.3,7.7,4.3
		c0.1-1.3,0.6-2.5,1.3-3.5c-1.9-0.5-5.8-1.8-5.8-1.8c-0.2,0.3-0.8,0.6-1.3,0.6c-1,0-1.7-1.1-1.8-1.5c0,0,0-0.1,0,0
		c0.3,0.1,1,0.4,1.2,0.1v0l0.8-1l1.7,0.8l0.8-1.2l-1.5-0.5l7-9.8c0.2-0.2,0.1-1.7,0-2.3c-0.5,0.1-1.9,0.5-2.1,0.8l-7.1,9.7l-0.9-1.3
		l-0.8,1.1l1.3,1.4l-0.6,0.9c-1.5-0.9-2.8,0.2-3.3,0.7c0,0.1,0,0.1,0,0.1c0.4-0.1,2.1-0.5,2.1,0.6
		C317.5,147.9,316.8,149.1,316.7,149.6C316.6,149.6,316.6,149.6,316.7,149.6z"/>
	<path class="st0" d="M358.7,153.5c-0.2,0.5-0.5,1.6-2.1,1.6c-1.3,0-3.6-0.7-5.1-0.7c-2.9,0-4,2.2-4,3.7c0,3.4,3.6,4.1,3.6,7.3
		c0,2.4-3.5,3.2-5.9,0.9c-0.6-2.8-1.2-4.9-2.8-7.3c-6.4,2-7.6-2-11-2c-2.9,0-6.7,5.2-9.7,5.9l0.4-3l0.3-0.1l-0.1-2.5l-0.8,1.9
		c-0.1,0.2-0.2,0.2-0.3,0c-0.3-0.8-1-2.2-1-2.2s0,2,0,2.4c0,0.2-0.1,0.2-0.2,0.1l-1.5-2.2c0,0,0.4,1.7,0.6,2.7
		c0,0.1-0.1,0.2-0.2,0.1l-2.1-2c0,0,0.6,1.4,1.1,2.7c0,0.1,0,0.2-0.2,0.1c-0.4-0.3-2.3-1.5-2.3-1.5s0.9,1.3,1.5,2.3
		c0.1,0.1,0,0.2-0.1,0.2c-1.4-0.5-2.3-0.9-2.3-0.9s0.8,0.8,1.8,1.8c0.1,0.1,0.1,0.2-0.1,0.2c-0.4,0-2.1,0-2.1,0l2.3,1l0.2-0.2l2,0.5
		v0c-0.5,0.6-0.3,1.4-0.3,1.6c0,0,0,0,0,0c0,0,0.1,0,0.1,0c0.2-0.3,0.8-1.1,2-1.1c0.1,0,0.1,0,0,0.1c-0.4,0.2-1.7,1-1.3,2.5
		c0,0,0,0,0,0.1c0,0,0.1,0,0.1,0c0.5-0.7,1.4-1,1.8-1.2l-0.4,2.7c0.2,0.1,0.4,0.1,0.6,0.1c2,0.2,3.8-1.3,4-3.3l-2.4-0.5
		c2.5-1.8,5.9-3.1,9.1-3.1c5,0,8.2,5.4,8.2,8.6c0,0.8-0.1,2-0.7,2.9c-0.9,1.4-1.6,1-2,0.7c-0.1-0.1-0.1-0.1-0.1,0.1
		c0.4,1.7,2.7,1.7,2.9,0.8c0.1-0.2,0.2-0.1,0.2-0.1c1.2,4.2,6.3-0.3,9,5c-0.1,0.1-1.5,0.7-2.2,0.3c-1.5-1-2.3,0-2.6,0.6
		c-0.1,0.1,0,0.1,0.1,0.1c1.7-0.3,2.3,0.7,2.4,1c-1.3-0.5-3,0.1-2.2,2.2c0,0.1,0.1,0.1,0.1,0c0.5-1.5,1.8-0.9,1.9-0.9
		c-0.7,0.4-1.8,1.8,0,3c0.1,0.1,0.1,0,0.1-0.1c-0.2-1,0.3-1.8,1.1-1.8c0.4,0,1.5,0,2.1-1.3c0.7,1.3,2.2,0.8,2.9,0.5
		c0.1,0,0.1-0.1,0-0.2c-0.9-0.3-2.2-0.9-1.2-1.7c0,0,2,0.7,2.8-1.2c0-0.1,0-0.2-0.1-0.1c-0.1,0.1-2.1,1.1-2.5-0.8
		c-0.3-1.3-0.5-3.3-1.5-3.8c1.1-0.5,1.5-1.4,0.6-2.6c-0.1-0.1-0.2-0.2-0.2,0c-0.1,2.8-6.1,0.5-6.2-3.5c4.2,1,8.4,0,8.4-4.2
		c0-4-3.9-5.8-3.9-7.8c0-1.4,1.2-1.7,1.8-1.7c1.6,0,3.4,1.9,3.8,3.5c0,0.1,0.1,0.1,0.2,0c0.6-0.8,0.7-2.1,0.2-2.5
		c-0.1-0.1,0-0.3,0.2-0.2c0.4,0.3,3.6,0,3.6-2.2c0-0.7-0.2-1.2-0.2-1.5C359.3,153.3,358.9,153.2,358.7,153.5z"/>
	<path class="st0" d="M233.7,0v266.2h206V0H233.7z M386.5,123.2c0.3-1.3,1.9-3.1,6.8-2.4c2.3,0.3,4-0.3,3.2-1.7
		c-0.1-0.2,0.3-0.3,0.5,0c0.5,0.5,1.3,2.1-0.8,3.1c-2.3,1.1-2.4,3.4-2.4,3.7c0,0.5,0.5,0.5,0.7,0c1-3.8,6.3-4.7,9.4-2.6
		c-0.2,2.1-2.4,3.4-3.6,3.4c-0.7,0-1.7-0.7-1.7-1.7c0-0.5-0.2-0.4-0.4,0c-0.5,1.4,1.5,4.2,4.5,2.5c3.1,3,1.8,6.8,1.5,8.2
		c-0.5,2.5,0.7,4.9,2.9,3.8c0.1-0.1,0.2-0.1,0.2,0.2l0,0c0,1.6-2,3.3-4.5,2c-0.3,0.4-3.7,4.8,1.5,6.5c0.2,0.1,0.3,0.3,0,0.4
		c-3.8,1.6-5.7-1.3-5.7-1.3c-1.9,4.4,1,6.9,1,6.9c-0.4,0.8-2.2,2.1-5,2.7c-1-0.6-2.5-1.7-3.1-3.3c0,0-0.7,1.9-0.1,3.8
		c-7.8,0.7-10.6-5.5-16.6-4.4c-0.2,0-0.2-0.1-0.2-0.3c0-3.9,2.4-10.9,9.8-12.3c7.4-1.4,5.4-4.5,5.4-4.5c-3.1-0.1-4.9,1.2-4.9,1.2
		c-0.6-0.9,0.2-2,0.2-2c-0.3-0.4-0.5-1.6-0.5-1.6c3.5,0,4.5-0.8,4.5-0.8c0.5-2.1-0.9-5.1-6.2-1.9c-1.3-1.2-1.2-2.9-1.2-2.9
		c-0.4-0.2-0.6-0.8-0.6-1.1C381.2,125.9,385.4,123.5,386.5,123.2z M374.3,130.6c0.1-0.4,0.4-0.3,0.4,0c0.3,1.2,1.7,1.9,3.2,1.9
		c1.9,0,2.3-0.6,5.3-0.6c0.3,0,2.1,0,2.1,0.4c0,0.4-0.9,0.2-2.1,0.4c-2.9,0.5-4,1.9-6,1.9C375.5,134.5,373.6,133.2,374.3,130.6z
		 M333.2,83c0.6,0,1.1,0.2,1.6,0.5c0.7,0.5,1,0.4,1.2,0.2c0.2-0.2,0.3-0.6-0.2-1.2c-0.3-0.5-0.5-1-0.5-1.6c0-1.1,0.7-1.7,1.4-1.7
		c0.6,0,1.4,0.6,1.4,1.7c0,0.6-0.2,1.1-0.5,1.6c-0.5,0.7-0.4,1-0.2,1.2c0.2,0.2,0.6,0.3,1.2-0.2c0.5-0.3,1-0.5,1.6-0.5
		c1.1,0,1.7,0.7,1.7,1.4c0,0.6-0.5,1.4-1.7,1.4c-0.6,0-1.1-0.2-1.6-0.5c-0.7-0.5-1-0.4-1.2-0.2c-0.2,0.2,0.1,2.5,0.4,4.3
		c1.9,0.4,2.8,1.9,2.8,2.8c0,2.2-2.4,3.6-3.8,4.3c-1.4-0.8-3.8-2.1-3.8-4.3c0-0.9,0.9-2.4,2.8-2.8c0.3-1.8,0.6-4.1,0.4-4.3
		c-0.2-0.2-0.6-0.3-1.2,0.2c-0.5,0.3-1,0.5-1.6,0.5c-1.1,0-1.7-0.7-1.7-1.4C331.5,83.8,332.1,83,333.2,83z M339.4,100.3
		C339.4,100.3,339.4,100.4,339.4,100.3c0,1.5-1.2,2.8-2.7,2.7c-1.5,0-2.7-1.2-2.7-2.7s1.2-2.7,2.7-2.7
		C338.2,97.6,339.4,98.8,339.4,100.3z M314.3,100.9c2.5,0,2.1,1.6,4.2,1.6c0.3,0,0.5-0.1,0.5,0.1c0,0.7-0.6,1.9-1.6,1.9
		c-1.3,0-1.3-1.3-2.3-1.3c-0.4,0-1,0.3-1,1.7c0,2.6,1.7,5.4,3.7,7.7c0.5-0.6,1.1-1,1.8-1c1.2,0,2.2,1.2,2.2,2.8c0,0.5-0.1,1-0.3,1.5
		c0.7,0.4,1.3,0.6,1.7,0.6c0.9,0,2.3-0.4,2.3-2.3c0-4.4-5.9-8.3-5.9-13.9c0-2.7,1.8-5.3,5.5-5.3c4,0,3.2,3.6,6.7,3.6
		c0.2,0,0.3,0.1,0.3,0.2c0,0.2-0.6,2.2-2.4,2.2c-1.9,0-2.5-3.3-4.1-3.3c-0.6,0-1.6,0.4-1.6,2.6c0,1.7,0.9,4.5,2.1,7.2
		c0.5-0.5,1.1-0.8,1.7-0.8c1.5,0,2.5,1.4,2.5,3.1c0,1.1-0.4,2.1-1.2,2.8c0.9,1.1,1.8,2,3,2c2.4,0,3.4-1.4,3.4-2.8
		c0-1.6-2.9-2.2-2.9-4.7c0-1.7,1.1-2.6,2.2-2.6c1.1,0,1.7,0.7,1.8,0.7c0.1,0,0.7-0.7,1.8-0.7c1.1,0,2.2,0.9,2.2,2.6
		c0,2.5-2.9,3.1-2.9,4.7c0,1.5,1,2.8,3.4,2.8c1.2,0,2.1-0.9,3-2c-0.7-0.7-1.2-1.8-1.2-2.8c0-1.7,1.1-3.1,2.5-3.1
		c0.7,0,1.3,0.3,1.7,0.8c1.2-2.7,2.1-5.5,2.1-7.2c0-2.2-0.9-2.6-1.6-2.6c-1.7,0-2.2,3.3-4.1,3.3c-1.8,0-2.4-2-2.4-2.2
		c0-0.1,0.1-0.2,0.3-0.2c3.5,0,2.7-3.6,6.7-3.6c3.7,0,5.5,2.7,5.5,5.3c0,5.6-5.9,9.5-5.9,13.9c0,2,1.4,2.3,2.3,2.3
		c0.5,0,1-0.2,1.7-0.6c-0.2-0.5-0.3-1-0.3-1.5c0-1.5,1-2.8,2.2-2.8c0.7,0,1.4,0.4,1.8,1c2-2.2,3.7-5.1,3.7-7.7c0-1.3-0.6-1.7-1-1.7
		c-1,0-1,1.3-2.3,1.3c-1,0-1.6-1.2-1.6-1.9c0-0.2,0.3-0.1,0.5-0.1c2.1,0,1.7-1.6,4.2-1.6c0.8,0,3.7,0.5,3.7,4.5
		c0,6.1-7.5,7.9-5.8,12.6c-3.2-0.5-3.1,2.6-3.2,8.2c0,0-6.2-2.1-17.2-2.1h0c-11,0-17.2,2.1-17.2,2.1c-0.1-5.6,0-8.6-3.2-8.2
		c1.7-4.7-5.8-6.5-5.8-12.6C310.6,101.3,313.4,100.9,314.3,100.9z M298.6,130.5c0.1-0.3,0.3-0.4,0.4,0c0.7,2.6-1.1,3.9-3,3.9
		c-2,0-3.1-1.4-6-1.9c-1.3-0.2-2.1,0-2.1-0.4c0-0.4,1.9-0.4,2.1-0.4c3,0,3.4,0.6,5.3,0.6C296.9,132.4,298.4,131.7,298.6,130.5z
		 M266.1,139.5c2.2,1.1,3.5-1.3,2.9-3.8c-0.3-1.4-1.5-5.1,1.5-8.2c3,1.7,5-1.1,4.5-2.5c-0.1-0.4-0.4-0.4-0.4,0c0,1-0.9,1.7-1.7,1.7
		c-1.2,0-3.4-1.4-3.6-3.4c3.1-2,8.3-1.2,9.4,2.6c0.1,0.5,0.7,0.4,0.7,0c0-0.3-0.2-2.6-2.4-3.7c-2-1-1.3-2.5-0.7-3.1
		c0.2-0.2,0.6-0.2,0.5,0c-0.8,1.4,0.9,2,3.2,1.7c4.9-0.7,6.6,1.2,6.8,2.4c1.1,0.3,5.3,2.6,5.3,3.5c0,0.3-0.2,0.9-0.6,1.1
		c0,0,0.1,1.8-1.2,2.9c-5.2-3.2-6.7-0.2-6.2,1.9c0,0,0.9,0.8,4.5,0.8c0,0-0.2,1.3-0.5,1.6c0,0,0.8,1,0.2,2c0,0-1.8-1.4-4.9-1.2
		c0,0-2,3.1,5.4,4.5c7.5,1.4,9.8,8.5,9.8,12.3c0,0.2-0.1,0.3-0.3,0.3c-6-1.1-8.8,5.1-16.6,4.4c0.7-1.8-0.1-3.8-0.1-3.8
		c-0.6,1.7-2.1,2.7-3.1,3.3c-2.8-0.6-4.6-2-5-2.7c0,0,3-2.4,1-6.9c0,0-1.9,2.9-5.7,1.3c-0.3-0.1-0.3-0.4,0-0.4
		c5.2-1.7,1.8-6.1,1.5-6.5v0c-2.4,1.4-4.4-0.4-4.5-2C265.9,139.4,266,139.5,266.1,139.5z M304,223.6c0,7.8-12.9,0.5-25.3-0.3
		c-10.3-0.7-13.2,2-13.2,2l1.9-10.4c0.1-0.6,2.3-2.2,9.4-2.2c8.6,0,12.9,1.6,14.4,2.2v5.5c0,1.3,0.6,1.9,1.6,2.2
		c0-0.5,1.4-3.6,11.2-3.6V223.6z M292.5,182.3c-1.4-1.2-7.4-3.5-10.7-4.7c-0.2-0.1-0.2-0.2,0-0.2c0.9-0.3,1.8-0.8,1.9-1.9
		c0.1-0.7-0.1-1.7-0.9-2.1c1.6-1.8,4.9-3,6.6-3c6.6,0,12.1,8.9,14.8,8.9c0.3,0,0.8-0.1,1.2-0.7c0.1-0.1,0.2-0.1,0.2,0.1
		c0,2.7-1.4,2.9-2.2,2.9c-0.4,0-0.8-0.1-1.2-0.3c-0.1,0-0.1,0-0.1,0.1c0,0.1,0,0.4,0,0.6c0,3.2-3.3,6.6-3.3,6.6
		c1.5,1.6,5.2,4.2,6.3,2.8c0.4-0.6,2.4-4.1,5-1.3c0.1,0.1,0,0.2-0.1,0.2c-1.5,0-2.6,1-2.2,2.5c2.1-1.7,5-1.4,5,2.5
		c0,0,0,0.1-0.1,0.1c-0.1,0-0.1,0-0.2,0c-1.4-2-3.6-0.6-3.9-0.4c1.5,0.2,4.1,2,1.8,5.1c-0.1,0.1-0.2,0.1-0.2,0
		c-0.2-2-1.5-2.4-2.5-2.4c-2.1,0-3.6,1.9-5.2-0.1v0c-0.6,2.6-3.5,2.4-4.2,2.3c-0.1,0-0.1-0.1,0-0.1c0.9-0.6,1.6-1.4,1.6-2.4
		c0-1.6-3.1-3.8-4.6-3.8c-0.9,0-1.5,1.1-3.3,1.1c-0.9,0-1.9-0.4-2.8-1.4c-0.1-0.1,0-0.1,0.1-0.1c0.7,0.1,2.7,0.6,3.6-2.9
		C293.8,186.3,294.2,183.7,292.5,182.3z M293.7,218.4c-0.2,0.2-0.3,0-0.3-0.2v-10.6c0-3.1,21-4.9,43.3-4.9c22.3,0,43.3,1.8,43.3,4.9
		v10.6c0,0.2-0.1,0.4-0.3,0.2c-2.7-3-23-4.1-43-4.1S296.4,215.3,293.7,218.4z M363.5,190.1c-0.2,0-0.2-0.1-0.1-0.2
		c2.6-2.8,4.6,0.7,5,1.3c1,1.4,4.8-1.2,6.3-2.8c0,0-3.3-3.5-3.3-6.6c0-0.2,0-0.4,0-0.6c0-0.1,0-0.1-0.1-0.1
		c-0.4,0.2-0.8,0.3-1.2,0.3c-0.8,0-2.2-0.2-2.2-2.9c0-0.2,0.1-0.2,0.2-0.1c0.4,0.6,0.8,0.7,1.2,0.7c2.7,0,8.2-8.9,14.8-8.9
		c1.7,0,5,1.3,6.6,3c-0.8,0.5-0.9,1.4-0.9,2.1c0.1,1.1,1,1.7,1.9,1.9c0.2,0,0.2,0.2,0,0.2c-3.3,1.3-9.4,3.6-10.7,4.7
		c-1.6,1.4-1.3,4.1-0.4,7.7c0.9,3.5,2.8,3,3.6,2.9c0.1,0,0.1,0.1,0.1,0.1c-0.9,1.1-1.9,1.4-2.8,1.4c-1.7,0-2.4-1.1-3.3-1.1
		c-1.5,0-4.6,2.1-4.6,3.8c0,0.9,0.7,1.8,1.6,2.4c0.1,0,0,0.1,0,0.1c-0.7,0.1-3.7,0.4-4.2-2.3c-1.6,2-3.1,0.1-5.2,0.1
		c-1,0-2.2,0.3-2.5,2.4c0,0.1-0.1,0.1-0.2,0c-2.3-3.1,0.3-4.8,1.8-5.1c-0.3-0.3-2.5-1.7-3.9,0.4c0,0.1-0.1,0.1-0.1,0.1
		c-0.1,0-0.1-0.1-0.1-0.1c0-3.9,2.9-4.2,5-2.5C366.1,191.1,365,190.1,363.5,190.1z M394.7,223.3c-12.4,0.8-25.3,8.1-25.3,0.3V219
		c9.7,0,11.2,3.1,11.2,3.6c0.9-0.4,1.6-1,1.6-2.2v-5.5c1.6-0.5,5.9-2.2,14.4-2.2c7.1,0,9.3,1.6,9.4,2.2l1.9,10.4
		C407.9,225.3,405,222.7,394.7,223.3z M421.4,151.9c-1.3,0-2.5-0.4-2.9-0.6c-0.3-0.2-0.4,0.1-0.3,0.2c1.2,1.4,1.3,4.1,0.8,4.8
		c-0.1,0.2-0.3,0.1-0.3,0c-0.7-2.7-3.2-5.3-6.7-5.3c-4.2,0-4.2,3.6-4.2,4.5c0,5.2,9.1,9,9.1,16.1c0,7.2-7.6,8.8-12.1,7.6
		c0.3,7.2,8.6,9.7,8.8,4.5c0-0.2,0.2-0.3,0.3,0c1,2.6,0.6,4.8-2.6,5.5c-0.2,0-0.1,0.2,0.1,0.3c3.2,2,1.5,10,1.3,12.4
		c-0.2,3.4,3.1,3,3.4,2.9c0.1-0.1,0.3,0,0.1,0.3c-2.4,2.9-5.3,0.3-5.3,0.3c-2.2,0.7-0.8,2.6,0.6,3.6c0.2,0.2,0.2,0.3,0,0.3
		c-0.3,0-3.8,0.3-4.4-2.4c-1.5,1.8-3.8,1.2-4.2,0.9c-0.7-0.3-3.9-1.5-4.2,2.1c0,0.3-0.2,0.1-0.3,0c-2.4-3.1,0.2-4.9,1.6-5.2
		c-0.1-0.2-2.1-1.8-3.8,0.5c-0.1,0.1-0.2,0.2-0.2-0.1c-0.2-3.9,3-4.3,5-2.6c0.1-0.4,0.8-2.6-2.3-2.5c-0.1,0-0.2-0.1-0.1-0.3
		c2.4-2.5,4.4-0.2,4.8,0.3c1.1,1.3,3.7,0.7,4,0.7c-0.8-13.5-12.7-8.7-14.4-15.3c-0.1-0.3-0.2-0.2-0.3-0.1c-0.4,1.6-4.5,1.8-5.2-1.3
		c0-0.2,0-0.3,0.1-0.2c3.5,3.4,11.2-7.3,0.6-16.1c-9-7.5-17.2-3.3-20.2-0.8c-0.2,1.1,0.5,1.4,0.9,1.6c0.1,0,0.2,0.2,0,0.3
		c-0.9,0.3-2.1,0.2-2.6-0.6c-2,1.4-0.3,3.1,0.5,3.5c0.2,0.1,0.1,0.3-0.1,0.3c-1.8,0.3-3.2-1.5-3.3-2.5l-0.3,0.2v7.7
		c0,10.9-12.6,12.5-26.5,21.7c-13.9-9.3-26.5-10.8-26.5-21.7v-7.7l-0.3-0.2c-0.1,1-1.5,2.9-3.3,2.5c-0.2,0-0.2-0.2,0-0.3
		c0.8-0.5,2.4-2.2,0.5-3.5c-0.6,0.8-1.8,0.9-2.6,0.6c-0.2-0.1-0.2-0.2,0-0.3c0.4-0.1,1-0.5,0.9-1.6c-3.1-2.5-11.2-6.6-20.2,0.8
		c-10.6,8.8-2.8,19.5,0.6,16.1c0.1-0.1,0.2,0,0.1,0.2c-0.7,3.2-4.8,2.9-5.2,1.3c0-0.1-0.2-0.3-0.3,0.1c-1.6,6.6-13.6,1.8-14.4,15.3
		c0.2,0,2.9,0.5,4-0.7c0.5-0.6,2.4-2.9,4.8-0.3c0.2,0.1,0,0.3-0.1,0.3c-3.1-0.1-2.4,2.1-2.3,2.5c2.1-1.7,5.2-1.3,5,2.6
		c0,0.3-0.1,0.3-0.2,0.1c-1.8-2.3-3.7-0.6-3.8-0.5c1.5,0.2,4.1,2.1,1.6,5.2c-0.1,0.1-0.3,0.3-0.3,0c-0.3-3.6-3.6-2.4-4.2-2.1
		c-0.5,0.2-2.7,0.9-4.2-0.9c-0.6,2.7-4.1,2.5-4.4,2.4c-0.3,0-0.3-0.2,0-0.3c1.5-1,2.9-2.9,0.6-3.6c0,0-2.9,2.7-5.3-0.3
		c-0.2-0.3-0.1-0.3,0.1-0.3c0.3,0.1,3.7,0.5,3.4-2.9c-0.2-2.3-1.9-10.3,1.3-12.4c0.2-0.1,0.3-0.3,0.1-0.3c-3.2-0.7-3.6-3-2.6-5.5
		c0.1-0.3,0.3-0.3,0.3,0c0.3,5.2,8.5,2.7,8.8-4.5c-4.4,1.2-12.1-0.4-12.1-7.6c0-7.1,9.1-10.9,9.1-16.1c0-0.9,0-4.5-4.2-4.5
		c-3.5,0-6,2.6-6.7,5.3c0,0.1-0.2,0.2-0.3,0c-0.5-0.6-0.4-3.4,0.8-4.8c0.1-0.1,0-0.4-0.3-0.2c-0.4,0.2-1.6,0.6-2.9,0.6
		c-2.8,0-4.3-1.6-4.3-4.1c0-1.6,0.6-2.4,0.3-3c-0.1-0.2,0.2-0.4,0.3-0.1c0.4,0.8,1.1,2.9,4,2.9c0,0,6,0,7,0c7.8,0,8.5,6.3,8.5,7.8
		c0,6.4-8.1,9.1-8.1,15.6c0,1.5,0.8,4.1,4.9,4.1c1.6,0,3.2-0.4,4.6-1c0,0,1.9-11.3,7.3-15.3c0,0,6.4,3.1,12.8-0.3
		c4.9-2.6,7.1-4.4,11.4-1.5c4.3,2.9,8,6.1,8.5,6l1-0.2v-25.5c-2-0.2-2.1,1.6-2,2c0.1,0.6,0.7,1.1-0.6,3.1c-0.1,0.2-0.3,0.1-0.3-0.1
		c-0.1-0.5-0.3-1.4-1-1.4c-0.7,0-3.7,2.3-6.3,4.9c0,0-1.5-4.5-5-5.9c2-0.3,10.8-2.4,10.8-6.2c0-1.3,1.4-1.6,2.4-1.5
		c0-0.1,1.5-3.5,4.1-1.7c0,0,0.1,0.1,0.1,0.1c0,0.1,0,0.2-0.1,0.2c-1.2,0.3-1.7,1.5-1.7,2.8c1-0.3,3.1-0.9,6-1.5v0h0.1
		c0,0-0.1,0-0.1,0v8.1h3.6v-8.8c5.5-1,11-1.5,16.6-1.6c12.8,0,23.7,3,26.2,3.8c0-1.3-0.5-2.5-1.7-2.8c0,0-0.1,0-0.1-0.1
		c-0.1-0.1,0-0.2,0.1-0.2c2.7-1.8,4.1,1.6,4.1,1.7c0.9-0.1,2.4,0.2,2.4,1.5c0,3.8,8.7,5.9,10.8,6.2c-3.6,1.4-5,5.9-5,5.9
		c-2.6-2.6-5.6-4.9-6.3-4.9c-0.7,0-0.9,0.9-1,1.4c0,0.2-0.2,0.2-0.3,0.1c-1.4-2-0.7-2.5-0.6-3.1c0.1-0.5-0.1-2.2-2-2v25.5l1,0.2
		c0.5,0.1,4.2-3.1,8.5-6c4.3-2.9,6.6-1.2,11.4,1.5c6.4,3.4,12.8,0.3,12.8,0.3c5.5,3.9,7.3,15.3,7.3,15.3c1.5,0.6,3,0.9,4.6,1
		c4.2,0,5-2.5,5-4.1c0-6.5-8.1-9.2-8.1-15.6c0-1.6,0.7-7.8,8.5-7.8c1,0,6.9,0,7,0c2.9,0,3.6-2.1,4-2.9c0.2-0.3,0.5-0.1,0.3,0.1
		c-0.2,0.5,0.3,1.4,0.3,3C425.8,150.3,424.3,151.9,421.4,151.9z"/>
	<path class="st0" d="M338.5,169.9c0.1,0,0.1-0.2,0-0.1c-1,0.2-2.3-1.4-1-3c-0.9-0.6-2-1.1-2.9-1.1c-3.9,0-6.9,4.3-7.4,4.9
		c-0.5,0.6-1.5,1.5-2.2,0.7c-0.1-0.1-0.1-0.1-0.1,0c0,1.8,1.4,1.8,2,1.5c0.1,0,0.1,0,0.1,0.1c-0.2,1.8,0.9,4.8,0.9,4.9
		c-0.2,0.2-1.8,1.7-3,1.7c-0.8,0-0.9-1.5-2.1-1.5c-0.4,0-0.7,0.2-1.1,0.6c-0.1,0,0,0.1,0.1,0.1c0.9,0,1.4,0.6,1.2,1.4
		c-1.1-0.9-2.8-0.8-2.8,1.4c0,0.1,0.1,0.1,0.1,0.1c0.8-1.1,2-0.3,2.2-0.2c-0.8,0.1-2.2,1.1-1,2.8c0,0.1,0.1,0,0.1,0
		c0-0.4,0.2-1.3,1.3-1.3c1.2,0,2,1.1,2.9,0c0.4,1.4,1.9,1.3,2.3,1.2c0,0,0.1,0,0-0.1c-0.7-0.4-0.9-0.9-0.9-1.3
		c0-0.9,1.9-2.1,2.5-2.1c0.6,0,0.8,0.6,1.9,0.6c0.6,0,1.1-0.3,1.5-0.8c0.1-0.1,0-0.1-0.1-0.1c-1.3,0.3-2.1-1-2.1-3.2
		C331,172.7,333.3,171.9,338.5,169.9z"/>
	<rect x="336.7" y="182.7" class="st0" width="3.6" height="9.9"/>
	<path class="st0" d="M390.5,124.9c-2.9-0.2-4.2,0.1-4.3,1.4C387.6,127.9,389.9,127.5,390.5,124.9z"/>
	<path class="st0" d="M316.5,132.2L316.5,132.2c0,0,0.1,0,0.1,0H316.5z"/>
	<polygon class="st0" points="346.9,146.8 346.9,146.8 346.9,146.8 	"/>
</g>
</svg>
