<?xml version="1.0" encoding="utf-8"?>
<!-- Generator: Adobe Illustrator 27.4.0, SVG Export Plug-In . SVG Version: 6.00 Build 0)  -->
<svg version="1.1" id="Layer_1" xmlns="http://www.w3.org/2000/svg" xmlns:xlink="http://www.w3.org/1999/xlink" x="0px" y="0px"
	 viewBox="0 0 672 218" style="enable-background:new 0 0 672 218;" xml:space="preserve">
<style type="text/css">
	.st0{fill:#FFFFFF;}
</style>
<g>
	<g>
		<path class="st0" d="M82.3,120C82.3,120.1,82.3,120.1,82.3,120l-0.3,0.2c0,0,0,0,0,0c-6.5,4-12.9,8.3-19.1,12.8
			c0.1,0,0.1-0.1,0.2-0.1c6.5-3.7,13.1-7.2,19.8-10.4L82.3,120C82.3,120,82.3,120,82.3,120C82.3,120,82.3,120,82.3,120z"/>
		<polygon class="st0" points="86.7,117.4 86.7,117.4 86.7,117.4 		"/>
		<path class="st0" d="M62.8,133.1C62.8,133.1,62.8,133.1,62.8,133.1L62.8,133.1C62.8,133.1,62.8,133.1,62.8,133.1
			C62.8,133.1,62.8,133,62.8,133.1C62.8,133.1,62.8,133.1,62.8,133.1L62.8,133.1z"/>
		<path class="st0" d="M86.1,117.4L86.1,117.4L86.1,117.4C86.2,117.4,86.2,117.4,86.1,117.4C86.2,117.4,86.2,117.4,86.1,117.4z"/>
		<path class="st0" d="M56.6,118.9c1.5,0,2.9,0,4.2,0c7.2,0.1,14.3,0.4,21.5,1.1l0,0c0.7-0.4,1.4-0.8,2.1-1.2
			c0.6-0.4,1.2-0.7,1.8-1.1l0-0.3C75.5,117.5,67.1,118,56.6,118.9z"/>
		<polygon class="st0" points="82.3,120 82.3,120 82.3,120 82.3,120 82.3,120 82.3,120 82.3,120 		"/>
		<path class="st0" d="M86.6,117.4L86.6,117.4c-0.1,0-0.3,0-0.4,0c0.1,0,0.2,0.1,0.3,0.1C86.5,117.5,86.6,117.4,86.6,117.4z"/>
		<path class="st0" d="M90.4,112.7c0.2,0.7,0.4,1.5,0.7,2.2c5.4-3,10.9-5.8,16.5-8.3C101.8,108.4,96,110.4,90.4,112.7
			C90.4,112.7,90.4,112.7,90.4,112.7L90.4,112.7z"/>
		<path class="st0" d="M91,114.9C91,114.9,91,114.9,91,114.9L91,114.9L91,114.9C91,114.9,91,114.9,91,114.9z"/>
		<path class="st0" d="M86.7,117.3L86.7,117.3L86.7,117.3C86.7,117.4,86.7,117.4,86.7,117.3C86.7,117.3,86.7,117.3,86.7,117.3
			L86.7,117.3C86.7,117.3,86.7,117.3,86.7,117.3z"/>
		<path class="st0" d="M82.4,114.9l4.3,2.5c0-5.3,0-10.5,0-15.8C85.1,106,83.7,110.4,82.4,114.9C82.4,114.9,82.4,114.9,82.4,114.9
			C82.4,114.9,82.4,114.9,82.4,114.9z"/>
		<path class="st0" d="M78.4,115.3l3.6-0.4l0.4,0c0,0,0,0,0,0c-5.4-3-10.8-5.7-16.4-8.2c3.5,2.2,6.8,4.5,10.1,6.9
			C76.9,114.2,77.6,114.7,78.4,115.3z"/>
		<polygon class="st0" points="91.2,120 91.2,120 91.2,120 		"/>
		<path class="st0" d="M140.5,118.4c-3.9-7.8-11.9-14.3-22.4-18.6l0,0c-9.5-4-20.6-6-31.9-6c-11.3,0-22.4,2-31.9,6
			c-10.4,4.3-18.5,10.8-22.4,18.6c-4.5,9.2-2.9,19.3,6.1,28.1c10.3,10.1,27.8,16.3,48.2,16.3c20.3,0,37.9-6.2,48.2-16.3
			C143.3,137.6,145,127.5,140.5,118.4z M122.3,107.4C122.3,107.4,122.3,107.4,122.3,107.4L122.3,107.4c0.8-0.2,1.6-0.3,2.4-0.4
			c0.5-0.1,1-0.2,1.5-0.2c0.8-0.1,1.7-0.3,2.5-0.4l0,0l0,0c0,0,0,0,0,0l0.9,0.4l0,0.2c0,0.2,0,0.4-0.1,0.5c-2.1,0.3-4.3,0.7-6.4,1.1
			l-0.9-0.5c0,0,0,0,0,0L122.3,107.4z M105.9,99.5c1.1-0.8,2.2-1.5,3.3-2.2v0h0.8l0.3,0.3c-1.1,0.7-2.2,1.4-3.3,2.2h-0.8l-0.1-0.1
			c0,0,0,0,0,0L105.9,99.5C105.9,99.5,105.9,99.5,105.9,99.5L105.9,99.5z M86,94.2L86,94.2l0.6-0.2l0.6,0.2c0,0.9,0,1.7,0,2.6
			l-0.6,0.2l-0.6-0.2C85.9,96,86,95.1,86,94.2z M63,97.3L63,97.3h0.8h0c1.1,0.7,2.2,1.4,3.3,2.2l-0.3,0.3c-0.3,0-0.7,0.1-1,0.1
			c-1-0.7-2-1.4-3.1-2l0,0l-0.3-0.2C62.7,97.6,62.9,97.4,63,97.3z M44,106.3c1,0.1,2,0.3,2.9,0.4c0.2,0,0.4,0.1,0.6,0.1
			c1,0.2,1.9,0.3,2.9,0.5l0,0c0,0,0,0,0,0l0.1,0.6c0,0,0,0,0,0l-0.9,0.5c-2.1-0.4-4.3-0.8-6.4-1.1c0-0.1,0-0.3-0.1-0.5l0-0.2
			L44,106.3C44,106.4,44,106.4,44,106.3L44,106.3L44,106.3z M32.2,122L32.2,122l-0.2-0.3l0,0l0,0l0.8-0.7l0,0
			c2.9-0.4,5.8-0.8,8.6-1.1l0.5,0.5l0,0l0,0l-0.2,0.2l0,0l-0.7,0.6c-2.9,0.3-5.8,0.6-8.7,1.1L32.2,122z M45.1,135.8l-9.2,4.9l-1-0.4
			l0,0l-0.2-0.1l0.5-1c3.1-1.6,6.2-3.2,9.3-4.8h0l0.9,0.2C45.3,135.1,45.2,135.4,45.1,135.8z M55.8,155.3L55.8,155.3
			c-0.5,0.1-1,0.1-1.4,0.2c-0.1-0.2-0.2-0.4-0.2-0.6l0,0c0-0.1-0.2-0.3-0.2-0.4c2.2-2.6,4.4-5.2,6.6-7.7l0,0c0,0,0,0,0,0l1.4-0.3
			l0.4,1C60.2,150.1,58,152.7,55.8,155.3z M87.8,160.7l0-0.3C87.8,160.5,87.8,160.6,87.8,160.7L87.8,160.7l-1.1,0.8l-1.1-0.8v-8.9
			c0.3-0.2,0.8-0.4,1.1-0.7c0,0,0,0,0,0c0,0,0,0,0,0c0.3,0.2,0.7,0.4,1.1,0.7V160.7z M118.6,154.9L118.6,154.9l-0.3,0.5l-1.4-0.2
			l0,0c-2.1-2.5-4.3-5.1-6.4-7.6c0,0,0,0,0,0l-0.1-0.1c0,0,0,0,0,0c0,0,0,0,0,0l0.4-1l1.4,0.3c2.2,2.5,4.4,5.1,6.6,7.7l0,0
			c0,0,0,0,0,0L118.6,154.9z M86.7,150.1c-13.2,0-38.5-5.8-42.6-20.8c-0.9-2.7-1-5.8-0.3-9.1h0c3.9-17.2,27.8-22.4,42.7-22.4
			s38.9,5.1,42.8,22.4c0,0.1,0,0.2,0,0.3c0,0.1,0,0.1,0.1,0.2C134.2,142.1,102.2,150.1,86.7,150.1z M136.9,140.7l-9.2-4.9
			c-0.1-0.3-0.1-0.5-0.2-0.7l-0.1-0.3l0,0c0,0,0,0,0,0l0.9-0.2c3.1,1.6,6.2,3.2,9.3,4.8l0.1,0.2l0.4,0.8L136.9,140.7z M140.5,122
			l-0.3,0.4c-2.9-0.4-5.8-0.8-8.7-1.1l-0.7-0.7l0,0l-0.2-0.2l0.5-0.5c0,0,0,0,0,0l0,0c2.9,0.3,5.8,0.7,8.6,1.1v0l0.4,0.3l0.5,0.4
			L140.5,122L140.5,122z"/>
		<path class="st0" d="M127.4,119c-4.7-15.4-26.8-20-40.8-20c-14.4,0-37.5,4.9-41.2,21.6v0c-0.7,3-0.5,5.7,0.1,8.2
			c4.5,14.1,28.3,19.5,40.9,19.5c14.9,0,45.7-7.6,41.2-28.2C127.6,119.6,127.5,119.3,127.4,119z M124.8,119.6h-1.5c0,0,0,0-0.1,0
			c-8.6-0.1-16.7,0.2-25.3,0.7c0,0,0.1,0.1,0.1,0.1l0.1,0.1h0c6.3,5.4,11.8,10.6,17.7,16.4c0,0,0,0,0,0c0,0,0,0,0,0l-0.2-0.1
			c-8.1-4.6-15.7-8.5-24.2-12.5c-1.7,7.1-3.2,14.3-4.7,21.5l-4.6-21.1c-8.3,3.9-15.9,7.7-24.1,12l-0.7,0.4c0,0,0,0,0.1-0.1
			c0,0-0.1,0-0.1,0.1c4.1-4.1,8.4-8,12.7-11.9c0.2-0.2,0.5-0.4,0.7-0.6c0.2-0.1,0.3-0.3,0.5-0.4c1.4-1.2,2.8-2.4,4.2-3.6l0,0
			c0,0,0,0,0,0c-9.1-0.6-17.9-0.7-27.2-0.8c0.6-0.1,1.2-0.2,1.8-0.4c4-0.8,7.9-1.6,11.9-2.3c4.5-0.8,9-1.4,13.5-2l0.2-0.1
			c-4.5-3.6-9.1-6.9-14-10c0,0,0,0,0,0l0,0c0,0,0,0,0,0c0,0,0,0,0,0l0,0c7,1.8,13.8,3.9,20.5,6.4c0.4-1.2,0.8-2.3,1.2-3.5
			c0.7-2,1.5-4.1,2.2-6.1c0.3-0.8,0.6-1.6,1-2.5c0,0,0,0,0,0c0,0,0,0,0,0c1.6,4,3.1,8,4.4,12c6.7-2.5,13.5-4.6,20.4-6.3l0,0
			c0,0,0,0,0,0c-4.8,3-9.5,6.4-13.9,9.9h0v0C107,116.1,115.7,117.6,124.8,119.6C124.8,119.6,124.8,119.6,124.8,119.6
			C124.8,119.6,124.8,119.6,124.8,119.6z"/>
		<path class="st0" d="M86.7,117.4c10.9,0,21.7,0.6,32.5,1.7c-9.5-1.7-18.7-3-28.2-4.1C89.6,115.7,88.2,116.5,86.7,117.4z"/>
		<path class="st0" d="M91.2,120c6.6,4.1,13.1,8.4,19.4,13c-5-4.6-10.1-9-15.3-13.3C93.9,119.8,92.6,119.9,91.2,120z"/>
		<path class="st0" d="M86.2,118l0.6,22.5l4.5-20.4c-1.3-0.8-3.1-1.6-4.5-2.4L86.2,118z"/>
		<path class="st0" d="M86.4,117.5C86.4,117.5,86.4,117.5,86.4,117.5c-0.1,0.1-0.2,0.1-0.3,0.2l0,0c0,0,0.1-0.1,0.1-0.1L86.4,117.5z
			"/>
		<path class="st0" d="M86.2,117.4C86.2,117.4,86.2,117.4,86.2,117.4l0,0.3c0.1-0.1,0.2-0.1,0.3-0.2
			C86.4,117.5,86.3,117.4,86.2,117.4z"/>
		<path class="st0" d="M61.8,104.9C61.8,104.9,61.8,104.9,61.8,104.9C61.8,104.9,61.8,104.9,61.8,104.9L61.8,104.9z"/>
		<polygon class="st0" points="82.3,120 82.3,120 82.3,120 82.3,120 		"/>
		<path class="st0" d="M87.2,96.8c0-0.9,0-1.7,0-2.6L86.6,94L86,94.2h0c0,0.9,0,1.7,0,2.6l0.6,0.2L87.2,96.8z"/>
		<path class="st0" d="M107,72.8l-1.4-1.4c-0.1-0.5,0.4-1.1,0.5-1.8c-0.2-0.1-0.3-0.1-0.4-0.2c-0.3-1.3-0.6-3.7,0-4.9
			c0.4-0.6,0.6-1.4,0.5-2.1c-1.2-4-3.5-7.5-5.1-11.3c-0.3-0.9-0.5-1.9-0.4-2.8c-1.3-1.4-2.7-5-3.4-7.3c-1.5,3.7-2.4,8-2.4,9
			c0,4.2,4.2,6.2,2.8,13.2c-0.3,1.3-0.8,3.2-1.3,5.1c0.9,4.8,0.9,8.4,2.2,14c2,1.9,3.4,4.4,4.1,7c0.5,1.8,2,6.1,4,6.7
			c1.2,0.4-4.1,1.4-5.6-0.5c-1.5-1.9-3.9-3.3-5.1-5.2c-0.9-1.5-2.4-4.8-3.3-6.4l-1.1,6c1.5,6.4,0.6,7.8-0.8,12.9
			c-0.6,2.3-5.1-8.2-5.1-9c0.1-1.7-0.2-3.4-0.7-5.1c-0.9-1.8-0.8-4.4-0.7-6.4c0.2-3.3,0.2-9.6,0.3-11.2c-1.1-2.8-4-7.8-4.3-10.7
			c-0.5-4.4,0.3-8.9-0.3-13.3c-0.8,2.2-1.6,5-3.3,6.7c-2.5,2.6-5,5.3-7.2,8.1c-0.8,1.1-0.1,1.7-1.4,3.5c-1.3,1.8-0.6,1-0.9,2.7
			c0,0.2-0.1,0.5-0.3,0.6c-0.7,0.6-1.4,1.1-2.4,0.7c-1.9-0.9-2-2.4-2.2-4.2c-0.2-3.5,2.3-3.6,3.8-5.7c2.8-4.1,4.3-11,7.3-14.1
			c0.2-0.6,0.9-2.8,2.3-6.1c0-4.1,1.1-7.7,5.3-9.4c1.7-0.7,4-0.9,4.1-3.2c0-0.4-0.1-0.9-0.2-1.3c-0.7-0.6-1.2-0.6-1.5-1
			c-0.7-0.9-1.2-6.5-1.2-6.8c1-4.8,3.3-6.3,6.1-6.2c3.4,0.2,6.1,1.8,6,6.4c-0.1,3.7-3.9,8.4,1.8,10.2c2.2,0.7,2.6,0.2,4.5,2.1
			c2.1,2.1,2.6,5.8,3,9.3l2.1,5c3.9,6.6,2.5,8.7,3.9,15.4c0.7,2.3,1.1,4.7,1.2,7.1C110.4,68.7,109,72.8,107,72.8L107,72.8z"/>
		<path class="st0" d="M66.1,67.9c0.2-1.8-0.1-1.6,1.1-3.2c1-1.5,0.5-2.3,1.5-3.6c2.2-2.9,4.5-5.6,6.9-8.3c1.7-1.7,4-7.5,4.5-9.6
			c0.1-0.3,0.3-0.5,0.3-0.2c0.4,3.9,0.9,7.1,0.8,11c-0.3,8-0.1,7.2,3.3,14.7c0.3-3,1-7.4,2.8-8.9c-2.1,7.8-2.2,18.9-2.4,22.4
			c-0.1,1.7-0.6,4.5,0.2,6.1c0.2,1.3,0.4,2.6,0.3,4l0.1,13.7l-1.2,6c-0.8,2.3-2.3,4.2-4.3,5.6c-0.5,0.3-1.8,0.9-1.8,1.5
			c0,0.9,6.1,2.7,7.5,0.6c0.9-1.4,2-2.6,3.2-3.7c1.9-1.8-0.2-3.8,0-6.2c0.5-4.4,2.3-8.1,2.9-12.3c0.5-2.5,0.2-5.1-0.8-7.5l0.8-7.9
			c1,1.7,1.8,3.5,2.6,5.3c1.5,3.2,1.5,3.5,4.2,6.1c0.9,0.9,1.8,1.9,2.5,3c1.2,2,2.1,3.9,2,6.3c-0.9,1.7-1.3,1.6-2.5,2.6
			c-0.1,0.4,0.1,0.8,0.5,0.9c0.1,0,0.2,0,0.3,0c4,0,3.5-2.1,5-4.8c1-1.7,3.8-4.4,0.7-5.3c-1-0.3-1.9-0.9-2.4-1.8
			c-2.1-3.5-2.2-3.5-3.3-6.7c-0.7-1.9-2-3.6-3.6-4.9c-0.9-2-1.5-4-1.7-6.2l-1.3-8.8c1.6-6.2,2.4-7.5-0.3-13.4
			c-0.6-1.4-1-2.9-0.9-4.4c0.2-3,1-5.9,2.1-8.7c0.2-0.9,0.8-1.6,1.6-2.1c0.6,2.4,2.9,7.3,4.1,8.5c0,1,0.1,1.9,0.4,2.8
			c1.6,3.9,3.9,7.4,5.1,11.5c0.4,1.4-0.1,2.1-0.5,3.2c-0.1,1.1-0.1,2.2,0.1,3.3l0.6,0.3c-0.1,0.6-0.3,1.2-0.5,1.8
			c0.1,0.4,0.4,0.7,0.8,0.9c0.9-0.2,2.2-3.4,2.1-4.7c-0.1-2.3-0.5-4.6-1.2-6.9c-1.3-6.7-0.6-8.5-4.3-14.9l-2.1-5.3
			c-0.3-2.6-1.4-8.7-4.8-9.8c-0.6-0.2-1.2-0.2-2-0.5c-4.5-1.5-4.5-4.9-3.3-8.7c1.1-3.4,1.2-7.3-3.7-7.7c-3.1-0.3-4,2.2-4.6,4.9
			c0,0.3,0.2,4.8,0.8,5.8c1.3,1,2,0.7,2,3.1c-0.1,2-1.4,3.3-3.1,3.9c-2.9,1-4.3,1.6-5.3,4.6c-0.4,1.4-0.6,2.8-0.6,4.3v0.2
			c-0.9,2.1-1.8,4.3-2.5,6.6c-3.5,3.5-5.3,11.6-8.9,15c-2.4,2.3-3.1,2.4-2.3,5.9c0.4,0.6,0.9,1,1.5,1.4
			C65.4,68.5,65.9,68.3,66.1,67.9L66.1,67.9z"/>
	</g>
	<path class="st0" d="M548.4,137.4c-1.7,0-3.1,0-4.8,0c1.1-6,2.3-11.9,3.3-17.8c0.2-1.1,0.3-2.3,0.2-3.5c-0.2-3.7-3.1-5.4-6.4-3.8
		c-4.2,2-6.2,5.8-7.1,10.1c-1.1,4.9-1.9,9.9-2.9,14.9c-1.6,0-3.1,0-4.8,0c1.8-9.8,3.6-19.4,5.3-29.1c1.4,0,2.7,0,4.2,0
		c-0.2,1.6-0.3,3.1-0.5,4.8c9.5-7.5,14.4-7.3,17-0.2c2.5-1.6,4.9-3.7,7.7-4.7c6.3-2.1,10.8,1.3,10.2,7.8c-0.5,5.8-1.8,11.5-2.8,17.3
		c-0.2,1.4-0.6,2.7-0.8,4.1c-1.6,0-3.1,0-4.8,0c1-5.2,2-10.3,2.9-15.3c0.3-1.9,0.7-3.9,0.7-5.8c-0.1-3.7-2.9-5.5-6.3-4.1
		c-4.4,1.7-6.3,5.4-7.2,9.7C550.3,127,549.4,132.1,548.4,137.4z"/>
	<path class="st0" d="M271.6,118.3c2.8,1.6,3.6,4.4,3.9,7.3c0.4,3.9,0.7,7.7,1,11.8c-1.5,0-3.1,0-5,0c-0.3-3-0.7-6.1-0.8-9.2
		c-0.4-8.1-3.9-9-10.9-8.2c-1.1,5.7-2.2,11.5-3.3,17.4c-1.6,0-3.2,0-5,0c0.9-4.8,1.8-9.5,2.7-14.2c1.5-8,3-16,4.7-24
		c0.2-0.8,1-2,1.7-2c3.8-0.3,7.6-0.6,11.4-0.3c4.3,0.4,7.6,2.6,8.6,7.1c1,4.5-0.5,8.3-4,11.2C275.1,116.4,273.3,117.2,271.6,118.3z
		 M260.6,116.3c3-0.3,5.6-0.3,8.2-0.9c3-0.7,5.2-2.7,6.3-5.7c1.4-3.7,0.1-7.4-3.2-8.4c-2.3-0.7-4.9-0.5-7.4-0.5
		c-0.4,0-1.2,1-1.3,1.6C262.3,106.7,261.5,111.2,260.6,116.3z"/>
	<path class="st0" d="M325.9,94.6c-1.2,6.2-2.4,12-3.6,17.8c2.1-1.4,3.9-3,5.9-3.9c6.1-2.7,11.4,0.2,12.7,6.6
		c1.7,8.5-3.9,20.8-14.8,22.6c-1.7,0.3-3.4,0.3-5.1,0.1c-4.6-0.5-7.2-3.2-6.7-7.8c0.6-5.5,1.8-11,2.8-16.5c1-5.4,2.3-10.8,3.2-16.2
		c0.4-2.2,1.2-3.2,3.4-2.8C324.3,94.7,324.9,94.6,325.9,94.6z M336.1,119.1c-0.1-2.8-0.5-5.5-3.3-6.8c-2.8-1.3-5.3-0.1-7.5,1.7
		c-0.2,0.2-0.5,0.4-0.7,0.6c-4.1,4.4-5.2,10-5.3,15.7c-0.1,2,1.2,3.3,3.3,3.6c3,0.5,5.5-0.4,7.7-2.4
		C334.1,128.3,335.7,123.9,336.1,119.1z"/>
	<path class="st0" d="M310.1,108.7c-1.6,9.7-3.1,19-4.7,28.6c-0.8,0-2.2,0-3.9,0c0.1-2,0.3-4.2,0.5-6.9c-0.8,1-1.2,1.6-1.6,2.1
		c-1.8,2.3-3.9,4.2-6.8,5c-5.8,1.6-10.8-1.8-11.2-7.8c-1.1-13.5,10.4-24.1,23.8-21.9C307.4,108.1,308.8,108.5,310.1,108.7z
		 M304.7,112.1c-3.7-0.9-7-0.6-9.9,1.5c-5,3.4-7.4,8.3-7.5,14.2c0,2.3,0.5,4.6,2.9,5.7c2.4,1.1,4.6,0.2,6.5-1.3
		c2.9-2.3,4.7-5.4,5.6-8.9C303.3,119.7,303.9,116.1,304.7,112.1z"/>
	<path class="st0" d="M345,125.9c0-7.8,4.5-14.9,10.9-17.2c9.2-3.4,16.6,1.8,16.6,11.6c0,8.2-5.5,15.7-12.6,17.4
		C351.3,139.6,345,134.6,345,125.9z M350,125.6c0.2,3.4,0.9,6.4,4.4,7.9c2.9,1.3,6.1,0.4,8.8-2.6c3.1-3.5,4.5-7.6,4.2-12.2
		c-0.2-2.9-1.3-5.6-4.3-6.6c-3-1.1-5.8-0.3-8.2,2C351.6,117.3,350.3,121.2,350,125.6z"/>
	<path class="st0" d="M606.3,108.3c1.4,0,2.7,0,4.2,0c-0.1,1.7-0.3,3.3-0.4,5.3c0.6-0.7,1-1.2,1.5-1.5c1.5-1.2,3-2.6,4.7-3.4
		c6.8-3.1,12.5,0.5,11.9,7.9c-0.5,5.9-1.9,11.7-2.9,17.5c-0.2,1.1-0.5,2.2-0.7,3.4c-1.6,0-3.1,0-4.9,0c0.8-4.4,1.7-8.7,2.4-13.1
		c0.4-2.4,1-4.9,1.1-7.4c0.1-4.5-3.3-6.5-7.3-4.4c-4.3,2.2-6.3,6.1-7.2,10.6c-1,4.7-1.8,9.5-2.7,14.2c-1.6,0-3.1,0-4.9,0
		C602.7,127.6,604.5,118,606.3,108.3z"/>
	<path class="st0" d="M405,137.4c-1.7,0-3.1,0-4.9,0c1.8-9.8,3.6-19.5,5.4-29.2c1.4,0,2.7,0,4.2,0c-0.1,1.7-0.3,3.3-0.4,5.3
		c0.8-0.8,1.2-1.4,1.8-1.9c2.3-2.4,5-3.9,8.4-4c4.9-0.2,8.1,2.6,7.9,7.4c-0.3,4.6-1.2,9.1-2,13.6c-0.5,2.9-1.1,5.8-1.7,8.7
		c-1.6,0-3.1,0-4.9,0c0.8-4.4,1.7-8.7,2.4-13c0.4-2.5,1-5.1,1.1-7.6c0.1-4.2-3.2-6.2-7-4.4c-4.5,2.2-6.6,6.2-7.5,10.9
		C406.7,128,405.9,132.7,405,137.4z"/>
	<path class="st0" d="M594.7,132.2c0.9,3.9,0.9,4-2.8,4.9c-2.5,0.5-5.1,0.9-7.6,0.8c-4.9-0.1-8.3-3.1-9.5-7.8
		c-2.3-9.3,4-20.1,12.9-22.1c1.6-0.3,3.3-0.4,4.9-0.2c3.5,0.5,5.9,2.8,6.4,5.9c0.6,3.4-0.7,6.8-4,8.2c-3.1,1.3-6.5,1.9-9.9,2.5
		c-1.8,0.3-3.7,0.1-5.5,0.1c-1.2,5.9,1.9,9.6,7.4,9.5c1.3,0,2.6-0.2,3.9-0.5C592.2,133.2,593.4,132.7,594.7,132.2z M580.3,121.2
		c3.6-0.5,6.9-0.8,10.1-1.6c3.1-0.7,4.4-2.9,3.8-5.2c-0.6-2.3-3.1-3.3-6.2-2.6C584.5,112.6,581.1,116.5,580.3,121.2z"/>
	<path class="st0" d="M464,124.4c-0.9,6.3,2.1,9.8,8,9.5c2.4-0.1,4.7-0.9,7-1.4c1,3.6,1,3.7-2.6,4.5c-2.6,0.6-5.2,0.9-7.8,0.9
		c-4.8-0.1-8.3-3.2-9.4-7.9c-2.2-9.2,4-19.9,12.8-21.9c1.6-0.4,3.3-0.4,4.9-0.2c3.5,0.4,5.9,2.7,6.5,5.8c0.7,3.5-0.7,7-4,8.4
		c-3,1.3-6.4,1.8-9.6,2.4C467.9,124.7,466,124.4,464,124.4z M464.6,121.3c3.9-0.7,7.5-1.1,11-2c2.6-0.7,3.6-2.9,3-5
		c-0.6-1.9-2.6-2.9-5.1-2.6C469.4,112.1,465.7,115.9,464.6,121.3z"/>
	<path class="st0" d="M433.5,108.3c1.7,0,3.2,0,5,0c1.1,7.7,2.3,15.4,3.5,23.3c0.3-0.3,0.5-0.5,0.6-0.7c3.4-6.7,6.8-13.3,10-20
		c1-2.1,2.2-3.2,4.6-2.8c0.7,0.1,1.4,0,2.4,0c-2.5,4.5-4.8,8.7-7.1,12.9c-2.7,5-5.6,9.9-8.2,14.9c-1.2,2.4-3.2,1.4-4.9,1.4
		c-0.5,0-1.3-1.4-1.4-2.3c-1.6-8.5-3-17-4.5-25.5C433.5,109.2,433.5,108.8,433.5,108.3z"/>
	<path class="st0" d="M504.9,109c-0.5,1.4-0.9,2.5-1.2,3.3c-2.4-0.2-4.6-0.6-6.8-0.5c-2,0.1-3.5,1.4-4,3.4c-0.5,2.1,0.8,3.4,2.4,4.4
		c1.5,1,3.1,1.8,4.5,3c4,3.5,3.9,9.5-0.3,12.8c-4,3.2-11.2,3.4-15.5,0.4c0.4-1.1,0.8-2.2,1.2-3.2c1.9,0.5,3.6,1.2,5.4,1.4
		c1.3,0.1,2.8-0.1,4.1-0.6c3.5-1.5,4-5.6,0.9-7.9c-1.4-1-3-1.7-4.3-2.8c-4.6-3.5-4.5-9.8,0.3-13C495.7,107,500.1,107.1,504.9,109z"
		/>
	<path class="st0" d="M649.7,136c0.4-1.2,0.9-2.2,1.3-3.3c1.9,0.5,3.7,1.4,5.5,1.3c1.9-0.1,4-0.6,5.6-1.7c2.1-1.5,1.8-4.6-0.2-6.3
		c-0.8-0.7-1.8-1.3-2.7-1.8c-4.1-2.4-5.9-5.2-5.4-8.7c0.6-3.8,3.4-6.6,7.9-7.5c3-0.6,6-0.5,9,1.1c-0.4,1.2-0.8,2.4-1.1,3.2
		c-2.5-0.2-4.7-0.6-6.9-0.4c-2,0.1-3.5,1.4-3.9,3.5c-0.4,2,0.8,3.2,2.3,4.3c1.5,1,3.1,1.8,4.5,3c4.4,3.7,3.9,10.4-1,13.5
		C660.4,138.6,654.1,138.7,649.7,136z"/>
	<path class="st0" d="M520,133.9c-0.4,1.4,0.9,3.4-1.6,4c-3.5,0.9-7.2-0.3-8-3c-0.5-1.9-0.6-4-0.3-5.9c0.7-4.9,1.8-9.8,2.7-14.7
		c0.1-0.7,0.2-1.3,0.3-2.1c-1.3-0.1-2.5-0.2-3.9-0.3c0.2-1.2,0.4-2.4,0.5-3.6c1.4-0.1,2.7-0.1,4.2-0.2c1-3.4,0.3-8.3,6.4-7.3
		c-0.4,2.2-0.8,4.6-1.3,7.3c2.3,0,4.4,0,6.6,0c0.1,3.9,0.1,4-3.6,4c-3.7,0-3.7,0-4.5,3.7c-0.8,4-1.6,8.1-2.3,12.1
		C514.3,132.9,514.9,133.6,520,133.9z"/>
	<path class="st0" d="M638.2,112.2c-1.5-0.1-2.6-0.2-4-0.3c0.2-1.3,0.4-2.4,0.7-3.7c1.4,0,2.6,0,4,0c0.2-1,0.5-1.9,0.7-2.7
		c0.7-4,0.7-4,4.8-4.8c0.3-0.1,0.6-0.1,1.1-0.2c-0.5,2.6-0.9,5-1.3,7.7c2.4,0,4.5,0,6.6,0c-0.1,3.9-0.1,3.9-3.6,3.9
		c-1.2,0-2.5,0-4,0c-1.1,6-2.3,11.9-3.2,17.8c-0.5,3.4,0.5,4.1,4.7,4c0.7,3.7,0.3,4.2-3.5,4.2c-4.5,0-6.8-2-6.3-6.3
		c0.6-5.8,1.9-11.5,2.9-17.2C637.9,113.8,638,113.1,638.2,112.2z"/>
	<path class="st0" d="M399.3,97.1c-2.6,13.5-5.1,26.8-7.7,40.3c-1.7,0-3.3,0-5,0c2.6-13.5,5.1-26.8,7.7-40.3
		C395.9,97.1,397.4,97.1,399.3,97.1z"/>
	
		<rect x="167.9" y="113.2" transform="matrix(0.1912 -0.9815 0.9815 0.1912 59.4707 301.8842)" class="st0" width="90" height="3.2"/>
	<g>
		<path class="st0" d="M101.4,200.2c-0.7,4.5-3,6.9-5.8,6.9c-1.8,0-2.8-1.2-2.5-3.2l1-6.1c0.4-2.3,1.7-4,4.2-4
			C100.9,193.7,102.2,195.5,101.4,200.2L101.4,200.2z M91.9,209.2c0.4,0,1.3,1.6,4.3,1.6c6.3,0,9.9-4.5,10.9-10.4
			c1.2-7.2-2.3-10.5-6.7-10.5c-2.1,0-3.6,0.2-4.8,0.8l1.7-9.9H92l-5.2,29.7h3.9C90.7,210.4,91.3,209.2,91.9,209.2L91.9,209.2
			L91.9,209.2z M147.4,196.5c0.8-4.5-0.8-6.7-5.8-6.7c-3.6,0-5.1,1.6-6.4,3l0.1-2.5h-4.8l-0.4,3.7l-2.8,16.4h5.3l1.7-10.7
			c0.6-3.7,3.1-6.5,5.5-6.5c2.6,0,2.6,1.5,2.2,3.8l-2.3,13.3h5.3L147.4,196.5z M169.5,189.8h-6.2l-7.1,7.5h-0.1l2.8-16.6h-5.2
			l-5.2,29.7h5.3l0.5-3l1.1-6.5c2.8,0,4.3,0.3,5.5,5.8l0.8,3.7h5.3l-2.2-7.8c-0.9-2.3-1.9-3.8-4-4.3L169.5,189.8z M17.8,197.1
			c3-0.7,5.5-2.9,6.3-5.9c1.4-5.5-1.1-9.8-8.1-9.8H7.9l-5.1,29h5.3l2.1-11.6c4.8-0.1,5.4,1.1,6.4,6.7l0.8,5h5.5l-1.6-8.1
			c-0.6-2.4-1.4-4.3-3.7-5.1L17.8,197.1z M18.9,190.2c-0.3,2.5-2.4,4.3-4.9,4.4h-3.1l1.6-9.2h2.8C18.6,185.4,19.3,187.6,18.9,190.2
			L18.9,190.2z M42.6,195.7c0.8-4.4-1.6-5.9-6.3-5.9c-5.9,0-8.5,2.8-8.5,2.8l1.8,3.1c1.5-1.5,3.6-2.3,5.7-2.2c2.1,0,2.2,1.1,2,2.2
			l-0.4,2.6c-7.6-0.2-11.5,1.4-12.4,6.4c-0.7,4.1,2.3,6.1,5.8,6.1c1.8,0.1,3.6-0.5,5-1.8c0.2,0.8,0.8,1.4,1.6,1.6
			c1.2,0.2,2.4,0.1,3.6-0.4c0-1.9,0.2-3.9,0.6-5.8L42.6,195.7z M36.4,201c-0.8,6-1.6,6.6-4.5,6.6c-2,0-2.7-1.3-2.4-3.1
			C30,202.1,31.8,201,36.4,201L36.4,201z M126.1,195.7c0.8-4.4-1.6-5.9-6.3-5.9c-5.9,0-8.5,2.8-8.5,2.8l1.8,3.1
			c1.5-1.5,3.6-2.3,5.7-2.2c2.1,0,2.2,1.1,2,2.2l-0.4,2.6c-7.6-0.2-11.5,1.4-12.4,6.4c-0.7,4.1,2.3,6.1,5.8,6.1
			c1.8,0.1,3.6-0.5,5-1.8c0.2,0.8,0.8,1.4,1.6,1.6c1.2,0.2,2.4,0.1,3.6-0.4c0-1.9,0.2-3.9,0.6-5.8L126.1,195.7z M119.8,201
			c-0.8,6-1.6,6.6-4.5,6.6c-2,0-2.7-1.3-2.4-3.1C113.4,202.1,115.2,201,119.8,201L119.8,201z M53.2,210.8c6.3,0,9.9-4.5,10.9-10.4
			c1.2-7.2-2.3-10.5-6.7-10.5c-2.1,0-3.6,0.2-4.8,0.8l1.7-9.9h-5.2l-5.2,29.7h3.9c0,0,0.6-1.2,1.1-1.2
			C49.3,209.2,50.2,210.8,53.2,210.8L53.2,210.8z M55.4,193.7c2.7,0,3.8,1.8,3.2,6.5c-0.6,4.6-3,6.9-5.9,6.9c-1.8,0-2.8-1.2-2.5-3.2
			l1-6.1C51.6,195.5,53,193.7,55.4,193.7L55.4,193.7L55.4,193.7z M66.3,202c0.8-7.6,4.2-12.2,12.3-12.2c6,0,8,4.6,7.2,9.5
			c-1.3,7.9-4.4,11.6-12.1,11.6C68.7,210.9,65.7,206.8,66.3,202L66.3,202z M80.3,199.6c0.4-2.1,0.8-6.2-2.8-6.2
			c-2.4,0-4.7,1.6-5.7,7.4c-0.6,3.5,0.1,6.3,2.8,6.3C76.7,207.2,79.2,205.5,80.3,199.6L80.3,199.6z"/>
	</g>
</g>
</svg>
