<?xml version="1.0" encoding="utf-8"?>
<!-- Generator: Adobe Illustrator 23.1.1, SVG Export Plug-In . SVG Version: 6.00 Build 0)  -->
<svg version="1.1" id="Stripelight-logo" xmlns="http://www.w3.org/2000/svg" xmlns:xlink="http://www.w3.org/1999/xlink" x="0px"
	 y="0px" viewBox="0 0 134.1 55.7" style="enable-background:new 0 0 134.1 55.7;" xml:space="preserve">
<style type="text/css">
	.st0{fill:#FFFFFF;}
</style>
<g>
	<g>
		<g>
			<g>
				<path class="st0" d="M4.8,21.7l0.3-1c0.3-0.9,1-1.2,1.7-1l0,0c0.7,0.2,1.1,0.9,0.8,1.9l-0.3,1L4.8,21.7z M7,21.4
					c0.1-0.4,0-0.8-0.4-0.9l0,0c-0.4-0.1-0.7,0.1-0.9,0.5l-0.1,0.3l1.3,0.4L7,21.4z"/>
				<path class="st0" d="M8.2,17.3L7,16.5l0.4-0.6l1.2,0.8c0.3,0.2,0.6,0.1,0.7-0.1c0.2-0.2,0.1-0.5-0.2-0.7l-1.3-0.8l0.4-0.6
					l1.2,0.8c0.7,0.5,0.8,1.1,0.4,1.7C9.5,17.6,8.9,17.8,8.2,17.3z"/>
				<path class="st0" d="M11.2,12l-0.6,0.6l-0.4-0.5l1.7-1.6l0.4,0.5l-0.6,0.6l1.4,1.4l-0.5,0.5L11.2,12z"/>
				<path class="st0" d="M14.8,9.9L14.8,9.9c-0.4-0.7-0.2-1.5,0.5-1.9c0.5-0.3,0.9-0.3,1.2-0.1l-0.3,0.6c-0.2-0.1-0.4-0.1-0.7,0
					c-0.3,0.2-0.4,0.6-0.2,0.9l0,0c0.2,0.3,0.6,0.5,0.9,0.3c0.2-0.1,0.3-0.3,0.3-0.6l0.7,0.1c0,0.4-0.2,0.8-0.7,1.1
					C16.1,10.8,15.2,10.6,14.8,9.9z"/>
				<path class="st0" d="M19.1,6.2L19.9,6L20.1,7L21,6.7l-0.3-0.9l0.7-0.2l0.8,2.5l-0.7,0.2l-0.3-1l-0.9,0.3l0.3,1l-0.7,0.2
					L19.1,6.2z"/>
				<path class="st0" d="M26.4,4.8l1,0c0.9,0,1.5,0.6,1.5,1.3l0,0c0,0.8-0.6,1.3-1.5,1.3l-1,0L26.4,4.8z M27.4,6.9
					c0.4,0,0.7-0.2,0.7-0.6l0,0c0-0.4-0.3-0.7-0.7-0.7l-0.3,0l0,1.3L27.4,6.9z"/>
				<path class="st0" d="M32.1,5.4l1.2,0.3C33.7,5.8,33.9,6,34,6.2c0.1,0.2,0.1,0.4,0.1,0.7l0,0c-0.1,0.4-0.4,0.6-0.7,0.6l0.4,1.1
					l-0.8-0.2l-0.3-0.9l0,0l-0.3-0.1l-0.2,0.8L31.4,8L32.1,5.4z M32.9,6.9c0.2,0.1,0.4,0,0.5-0.2l0,0c0.1-0.2-0.1-0.3-0.3-0.4
					l-0.5-0.1l-0.2,0.6L32.9,6.9z"/>
				<path class="st0" d="M36.7,8.8l-0.1-1.9l0.7,0.4l0,1.1l0.9-0.6L39,8.2l-1.7,1l-0.5,0.9l-0.7-0.3L36.7,8.8z"/>
				<path class="st0" d="M42.1,12.3L42.1,12.3c0.6-0.5,1.4-0.5,2,0.1c0.3,0.3,0.4,0.7,0.4,1.1l-0.7,0c0-0.2-0.1-0.4-0.2-0.6
					c-0.3-0.3-0.7-0.3-1,0l0,0c-0.3,0.3-0.3,0.7-0.1,1c0.1,0.1,0.2,0.2,0.4,0.2l0.2-0.2l-0.4-0.4l0.4-0.4l0.8,0.9l-0.9,0.8
					c-0.4-0.1-0.8-0.2-1.1-0.6C41.5,13.7,41.5,12.8,42.1,12.3z"/>
				<path class="st0" d="M46.6,15.9l0.4,0.6l-2.3,1.3l-0.4-0.6L46.6,15.9z"/>
				<path class="st0" d="M48.4,19.3l0.2,0.6l-1,1.5L49,21l0.2,0.7l-2.5,0.8l-0.2-0.6l1-1.5l-1.4,0.5l-0.2-0.7L48.4,19.3z"/>
			</g>
		</g>
		<g>
			<g>
				<path class="st0" d="M5.3,26.8L5.3,26.8c0.8,0,1.4,0.6,1.4,1.4c0,0.5-0.1,0.8-0.4,1.1l-0.5-0.4c0.2-0.2,0.2-0.4,0.2-0.6
					c0-0.4-0.3-0.7-0.7-0.7l0,0c-0.4,0-0.7,0.3-0.7,0.7c0,0.2,0,0.3,0.1,0.4l0.3,0l0-0.5l0.5,0l0,1.2l-1.2,0C4.2,29.2,4,28.8,4,28.3
					C4,27.5,4.5,26.8,5.3,26.8z"/>
				<path class="st0" d="M7.1,31.9l0.2,0.7l-2.6,0.6l-0.2-0.7L7.1,31.9z"/>
				<path class="st0" d="M7.9,35l0.3,0.6l-0.8,1.6l1.3-0.6l0.3,0.7l-2.4,1.1l-0.3-0.6l0.9-1.6l-1.3,0.6l-0.3-0.7L7.9,35z"/>
				<path class="st0" d="M10.2,39.4l0.4,0.5l-0.4,1.7l1.1-0.9l0.4,0.6L9.7,43l-0.4-0.5l0.4-1.8l-1.1,0.9l-0.4-0.6L10.2,39.4z"/>
				<path class="st0" d="M13.5,43.1l1.7,1.3L14.8,45l-1.1-0.9l-0.2,0.3l1,0.8l-0.4,0.5l-1-0.8l-0.3,0.3l1.1,0.9l-0.4,0.5l-1.7-1.3
					L13.5,43.1z"/>
				<path class="st0" d="M17.2,45.8l0.7,0.3l-0.5,1l1.3-0.6l0.8,0.4l-1.4,0.6l0.3,1.8l-0.8-0.4l-0.2-1.2L17,47.8l-0.3,0.6l-0.7-0.3
					L17.2,45.8z"/>
				<path class="st0" d="M21.7,47.5l2.1,0.5l-0.1,0.6l-1.4-0.3l-0.1,0.4l1.2,0.3l-0.1,0.6L22,49.3l-0.1,0.4l1.4,0.3l-0.1,0.6
					l-2.1-0.5L21.7,47.5z"/>
				<path class="st0" d="M26.2,48.2l0.7,0l1.1,1.4l0-1.4l0.7,0l0.1,2.6l-0.6,0l-1.2-1.4l0,1.5l-0.7,0L26.2,48.2z"/>
				<path class="st0" d="M31.4,49.1L31.4,49.1c-0.2-0.8,0.2-1.5,1-1.7c0.4-0.1,0.8-0.1,1.1,0.1l-0.3,0.6C33,48,32.8,48,32.6,48.1
					c-0.4,0.1-0.6,0.5-0.5,0.9l0,0c0.1,0.4,0.5,0.6,0.9,0.5c0.2,0,0.3-0.1,0.4-0.2L33.3,49l-0.5,0.1l-0.1-0.5l1.2-0.3l0.3,1.1
					c-0.2,0.3-0.5,0.6-1,0.7C32.3,50.3,31.6,49.9,31.4,49.1z"/>
				<path class="st0" d="M35.8,46.2l0.7-0.3l1.2,2.4L37,48.6L35.8,46.2z"/>
				<path class="st0" d="M38.7,44.6l0.5-0.4l1.7,0.4l-0.9-1.1l0.6-0.5l1.6,2.1l-0.5,0.4L40,45.1l0.9,1.1l-0.6,0.5L38.7,44.6z"/>
				<path class="st0" d="M43.7,42.6l0.5-0.6l0.6,0.5l-0.5,0.6L43.7,42.6z"/>
				<path class="st0" d="M45.2,39.7L45.2,39.7c-0.7-0.4-0.9-1.2-0.5-1.9c0.3-0.5,0.6-0.7,1-0.7l0.1,0.7c-0.2,0-0.4,0.1-0.6,0.3
					c-0.2,0.3,0,0.7,0.3,0.9l0,0c0.3,0.2,0.7,0.1,0.9-0.2c0.1-0.2,0.1-0.4,0-0.7l0.6-0.3c0.2,0.4,0.2,0.8-0.1,1.3
					C46.7,39.8,45.9,40.1,45.2,39.7z"/>
				<path class="st0" d="M47.5,35.2L47.5,35.2c-0.7-0.2-1.2-1-0.9-1.8c0.2-0.8,1-1.2,1.7-1l0,0c0.7,0.2,1.2,1,0.9,1.8
					C49,35,48.2,35.4,47.5,35.2z M48.1,33.2L48.1,33.2c-0.4-0.1-0.8,0.1-0.9,0.5c-0.1,0.4,0.1,0.7,0.5,0.8l0,0
					c0.4,0.1,0.8-0.1,0.9-0.5C48.7,33.6,48.4,33.3,48.1,33.2z"/>
				<path class="st0" d="M47.3,29.7l0-0.8l1-0.6l-1-0.7l0-0.8L50,27l0,0.7l-1.5,0l1,0.7v0l-1,0.7l1.5,0l0,0.7L47.3,29.7z"/>
			</g>
		</g>
	</g>
	<g>
		<g>
			<path class="st0" d="M25,18.9L25,18.9c-0.6,0.1-0.6,0.4-0.7,1.2v2.2h0c0-0.5-0.6-0.4-1-0.3c-0.3,0.1-0.7,0.2-1.2,0.2
				c-2.1,0.1-4.3-0.9-4.4-3.3s1.7-3.8,3.8-4c0.6-0.1,1.4,0.1,1.9,0.2c0.5,0.1,0.8,0.2,0.8-0.5h0.1v2.6h-0.1c0-0.6-0.9-2.4-2.7-2.2
				c-1.6,0.1-2.1,2.2-2,3.8c0.1,1.6,1,3.4,2.6,3.3c0.2,0,0.5,0,0.7-0.1v-2c0-0.7-0.1-1.1-0.7-1.1v-0.1H25z"/>
			<path class="st0" d="M27.8,20.9c0,0.8,0.1,1.1,0.7,1.1v0.1h-2.9v-0.1c0.6,0,0.6-0.4,0.7-1.1v-4.8c0-0.7-0.1-1.1-0.7-1.1V15h2.9
				v0.1c-0.6,0-0.7,0.4-0.7,1.1V20.9z"/>
			<path class="st0" d="M36.4,15L36.4,15c-0.7,0.1-1.3,0.8-1.3,2v5.1h-0.3c-0.2-0.3-4.6-5.8-4.8-6v4.1c0,1.2,0.6,1.9,1.3,1.9v0.1
				h-2.6v-0.1c0.7,0,1.3-0.7,1.3-1.9V16c-0.4-0.5-0.8-1-1.2-1V15h2.4l3.9,5v-3c0-1.2-0.6-1.9-1.3-1.9V15H36.4z"/>
		</g>
		<g>
			<path class="st0" d="M27.9,23.4L27.9,23.4c-0.7,0.1-1.3,0.8-1.3,2v5.1h-0.3c-0.2-0.3-4.6-5.8-4.8-6v4.1c0,1.2,0.6,1.9,1.3,1.9
				v0.1h-2.6v-0.1c0.7,0,1.3-0.7,1.3-1.9v-4.1c-0.4-0.5-0.8-1-1.2-1v-0.1h2.4l3.9,5v-3c0-1.2-0.6-1.9-1.3-1.9v-0.1H27.9z"/>
			<path class="st0" d="M33.8,28.7l-0.4,1.8h-5.1v-0.1c0.6,0,0.7-0.4,0.7-1.1v-4.8c0-0.7-0.1-1.1-0.7-1.1v-0.1h4.8l0.4,1.5h-0.1
				c-0.3-0.7-0.9-1.4-1.9-1.4h-0.3c-0.6,0-0.6,0.4-0.7,1.1v2.4h0.2c0.8,0,1.4-0.6,1.4-1.3h0.1v2.7h-0.1c0-0.7-0.7-1.3-1.4-1.3h-0.2
				v2.4c0,0.8,0.1,1.1,0.7,1.1h0.6C32.8,30.4,33.5,29.3,33.8,28.7L33.8,28.7z"/>
		</g>
		<g>
			<path class="st0" d="M23.8,38.8L23.8,38.8l-2.4,0.1l-2.3-3.7c-0.1,0.1-0.2,0.2-0.3,0.3v2.2c0,0.8,0.1,1.1,0.7,1.1v0.1h-2.9v-0.1
				c0.6,0,0.7-0.4,0.7-1.1v-4.8c0-0.7-0.1-1.1-0.7-1.1v-0.1h2.9v0.1c-0.6,0-0.6,0.4-0.7,1.1v2.5c0.7-0.6,1.7-1.5,2.3-2.1
				c0.7-0.7,0.8-1.5,0.1-1.5v-0.1h2.2v0.1c-0.7,0-1.8,1.2-2.3,1.7c-0.2,0.2-0.5,0.5-0.8,0.7c0.2,0.3,1.8,2.7,2.2,3.3
				C22.9,38.1,23.5,38.8,23.8,38.8z"/>
			<path class="st0" d="M29.7,37l-0.4,1.8h-5.1v-0.1c0.6,0,0.7-0.4,0.7-1.1v-4.8c0-0.7-0.1-1.1-0.7-1.1v-0.1H29l0.4,1.5h-0.1
				c-0.3-0.7-0.9-1.4-1.9-1.4h-0.3c-0.6,0-0.6,0.4-0.7,1.1v2.4h0.2c0.8,0,1.4-0.6,1.4-1.3h0.1v2.7H28c0-0.7-0.7-1.3-1.4-1.3h-0.2
				v2.4c0,0.8,0.1,1.1,0.7,1.1h0.6C28.7,38.8,29.4,37.7,29.7,37L29.7,37z"/>
			<path class="st0" d="M37.6,31.7L37.6,31.7c-0.7,0.1-1.3,0.8-1.3,2v5.1H36c-0.2-0.3-4.6-5.8-4.8-6v4.1c0,1.2,0.6,1.9,1.3,1.9v0.1
				h-2.6v-0.1c0.7,0,1.3-0.7,1.3-1.9v-4.1c-0.4-0.5-0.8-1-1.2-1v-0.1h2.4l3.9,5v-3c0-1.2-0.6-1.9-1.3-1.9v-0.1H37.6z"/>
		</g>
		<g>
			<g>
				<path class="st0" d="M24.8,42.4c-0.3,0-0.5-0.2-0.5-0.5v0c0-0.3,0.2-0.5,0.5-0.5c0.2,0,0.3,0.1,0.4,0.1l-0.1,0.2
					c-0.1-0.1-0.2-0.1-0.3-0.1c-0.2,0-0.3,0.1-0.3,0.3v0c0,0.2,0.1,0.3,0.3,0.3c0.1,0,0.2,0,0.2-0.1V42h-0.2v-0.2h0.4v0.4
					C25.1,42.3,25,42.4,24.8,42.4z"/>
				<path class="st0" d="M26.9,42.4v-1h0.2v1H26.9z"/>
				<path class="st0" d="M29.6,42.4l-0.5-0.7v0.7h-0.2v-1H29l0.5,0.6v-0.6h0.2v1H29.6z"/>
			</g>
		</g>
		<g>
			<polygon class="st0" points="38.5,25.3 38.4,25.1 36.7,26.8 35.1,25.1 35,25.3 36.6,26.9 35,28.5 35.1,28.7 36.7,27 38.4,28.7 
				38.5,28.5 36.9,26.9 			"/>
			<polygon class="st0" points="19.1,25.3 18.9,25.1 17.3,26.8 15.7,25.1 15.5,25.3 17.2,26.9 15.5,28.5 15.7,28.7 17.3,27 
				18.9,28.7 19.1,28.5 17.4,26.9 			"/>
		</g>
		<polygon class="st0" points="28.8,40.2 28.6,40.1 27,41.7 25.4,40.1 25.2,40.2 26.9,41.9 25.2,43.5 25.4,43.6 27,42 28.6,43.6 
			28.8,43.5 27.1,41.9 		"/>
	</g>
</g>
</svg>
