<?xml version="1.0" encoding="utf-8"?>
<!-- Generator: Adobe Illustrator 23.1.1, SVG Export Plug-In . SVG Version: 6.00 Build 0)  -->
<svg version="1.1" id="Stripelight-logo" xmlns="http://www.w3.org/2000/svg" xmlns:xlink="http://www.w3.org/1999/xlink" x="0px"
	 y="0px" viewBox="0 0 134.1 31.7" style="enable-background:new 0 0 134.1 31.7;" xml:space="preserve">
<style type="text/css">
	.st0{fill:#FFFFFF;}
</style>
<g>
	<g>
		<path class="st0" d="M24.2,5.6v16.3c0,0.8-0.6,1.4-1.4,1.4c-0.8,0-1.4-0.6-1.4-1.4V5.6h-3.9v16.2c0,2.8,2.3,5,5.3,5c0,0,0,0,0,0
			c0,0,0,0,0,0c3,0,5.3-2.2,5.3-5V5.6H24.2z"/>
	</g>
	<g>
		<path class="st0" d="M38.7,6.2c-1.1-0.6-2-0.6-2.4-0.6h-5.4v20.8h5.4c0.5,0,1.6-0.1,2.7-0.6c1.4-0.8,2.1-2.1,2.1-3.9v-2.6
			c0-2.1-0.7-3.2-1.8-3.8c-0.4-0.2-0.5-0.2-0.5-0.2l0.4-0.2c1.2-0.7,1.6-1.8,1.6-3v-1.7C40.8,8.4,40.1,7,38.7,6.2z M36.4,12.7
			L36.4,12.7l-1.7,0.7V9.2H36c0.4,0,1.3-0.2,1.3,1.3v0.8C37.3,12.4,36.6,12.6,36.4,12.7z M34.8,16.9l0.8-0.3c1.1-0.1,2,0.6,2,1.9
			v2.4c0,1.6-1.1,2-1.3,2h-1.5V16.9z"/>
	</g>
	<g>
		<polygon class="st0" points="43.3,26.4 52.1,26.4 52.1,22.9 47.3,22.9 47.3,16.9 50.9,15.4 50.9,11.9 47.3,13.5 47.3,9.2 
			52.1,9.2 52.1,5.6 43.3,5.6 		"/>
	</g>
	<g>
		<polygon class="st0" points="58.6,22.9 58.6,5.6 54.7,5.6 54.7,26.4 63.5,26.4 63.5,22.9 		"/>
	</g>
	<g>
		<path class="st0" d="M10.8,5.6v16.3c0,0.8-0.6,1.4-1.4,1.4c-0.8,0-1.4-0.6-1.4-1.4v-3.1l-3.9,1.6v1.4c0,2.8,2.3,5,5.3,5
			c0,0,0,0,0,0c0,0,0,0,0,0c3,0,5.3-2.2,5.3-5V5.6H10.8z"/>
	</g>
</g>
</svg>
