<?xml version="1.0" encoding="utf-8"?>
<!-- Generator: Adobe Illustrator 24.0.2, SVG Export Plug-In . SVG Version: 6.00 Build 0)  -->
<svg version="1.1" id="Stripelight-logo" xmlns="http://www.w3.org/2000/svg" xmlns:xlink="http://www.w3.org/1999/xlink" x="0px"
	 y="0px" viewBox="0 0 145.7 31.7" style="enable-background:new 0 0 145.7 31.7;" xml:space="preserve">
<style type="text/css">
	.st0{fill:#FFFFFF;}
</style>
<g>
	<path class="st0" d="M35.3,20.7V11h4.1c0.4,0,0.9,0.1,1.3,0.3s0.7,0.4,1,0.7c0.3,0.3,0.4,0.7,0.7,1c0.1,0.4,0.3,0.9,0.3,1.1
		c0,0.4-0.1,0.9-0.3,1.3c-0.1,0.4-0.4,0.7-0.6,1c-0.3,0.3-0.6,0.6-1,0.7c-0.4,0.1-0.9,0.3-1.3,0.3h-2v3.1h-2.3V20.7z M37.6,15.6h1.8
		c0.3,0,0.4-0.1,0.7-0.3c0.1-0.3,0.3-0.6,0.3-1c0-0.3,0-0.4-0.1-0.6c0-0.1-0.1-0.3-0.3-0.4c-0.1-0.1-0.3-0.1-0.3-0.3
		c-0.1,0-0.3-0.1-0.4-0.1h-1.7C37.6,12.9,37.6,15.6,37.6,15.6z"/>
	<path class="st0" d="M44.8,20.7V11h4.4c0.4,0,0.9,0.1,1.3,0.3c0.4,0.1,0.7,0.4,1,0.7c0.3,0.3,0.6,0.7,0.7,1
		c0.1,0.4,0.3,0.9,0.3,1.1c0,0.3,0,0.6-0.1,0.9c-0.1,0.3-0.1,0.6-0.3,0.9c-0.1,0.3-0.3,0.4-0.6,0.7c-0.1,0.1-0.4,0.4-0.7,0.6
		l2.1,3.5h-2.6l-1.8-3.1h-1.4v3.1H44.8z M47.1,15.6h2c0.3,0,0.4-0.1,0.7-0.4c0.1-0.3,0.3-0.6,0.3-1c0-0.4-0.1-0.7-0.3-1
		c-0.3-0.3-0.4-0.4-0.7-0.4h-2V15.6z"/>
	<path class="st0" d="M59.1,20.8c-0.7,0-1.4-0.1-2-0.4c-0.6-0.3-1.1-0.7-1.6-1.1c-0.4-0.4-0.7-1-1-1.6s-0.3-1.1-0.3-1.8
		c0-0.6,0.1-1.3,0.4-1.8s0.6-1.1,1-1.6c0.4-0.4,1-0.9,1.6-1.1c0.6-0.3,1.3-0.4,2-0.4c0.7,0,1.4,0.1,2,0.4s1.1,0.7,1.6,1.1
		s0.7,1,1,1.6c0.3,0.6,0.3,1.1,0.3,1.8c0,0.6-0.1,1.3-0.4,1.8s-0.6,1.1-1,1.6c-0.4,0.4-1,0.9-1.6,1.1C60.5,20.7,59.8,20.8,59.1,20.8
		z M56.6,15.8c0,0.4,0,0.7,0.1,1.1c0.1,0.3,0.3,0.7,0.4,1c0.3,0.3,0.4,0.4,0.9,0.7c0.3,0.1,0.7,0.3,1.1,0.3s0.9-0.1,1.1-0.3
		s0.6-0.4,0.9-0.7c0.1-0.3,0.4-0.6,0.4-1c0.1-0.3,0.1-0.7,0.1-1.1c0-0.4,0-0.7-0.1-1.1c-0.1-0.3-0.3-0.7-0.4-1
		c-0.3-0.3-0.4-0.4-0.9-0.7c-0.3-0.1-0.7-0.3-1.1-0.3S58.3,12.9,58,13c-0.3,0.1-0.6,0.4-0.9,0.7c-0.3,0.3-0.4,0.6-0.4,1
		C56.7,15.1,56.6,15.4,56.6,15.8z"/>
	<path class="st0" d="M66.2,20.7V11h4.1c0.4,0,0.9,0.1,1.3,0.3c0.4,0.1,0.7,0.4,1,0.7c0.3,0.3,0.4,0.7,0.7,1
		c0.1,0.4,0.3,0.9,0.3,1.1c0,0.4-0.1,0.9-0.3,1.3c-0.1,0.4-0.4,0.7-0.6,1c-0.3,0.3-0.6,0.6-1,0.7c-0.4,0.1-0.9,0.3-1.3,0.3h-2v3.1
		h-2.3V20.7z M68.5,15.6h1.8c0.3,0,0.4-0.1,0.7-0.3c0.1-0.3,0.3-0.6,0.3-1c0-0.3,0-0.4-0.1-0.6c0-0.1-0.1-0.3-0.3-0.4
		c-0.1-0.1-0.3-0.1-0.3-0.3c-0.1,0-0.3-0.1-0.4-0.1h-1.7V15.6z"/>
	<path class="st0" d="M77,11l2.1,4.4l2.1-4.4h2.4l-3.4,6.4v3.3H78v-3.3L74.6,11H77z"/>
	<path class="st0" d="M85.5,20.7V11h2.3v7.7h4.7v2H85.5z"/>
	<path class="st0" d="M98.1,20.8c-0.7,0-1.4-0.1-2-0.4c-0.6-0.3-1.1-0.7-1.6-1.1c-0.4-0.4-0.7-1-1-1.6s-0.3-1.1-0.3-1.8
		c0-0.6,0.1-1.3,0.4-1.8c0.3-0.6,0.6-1.1,1-1.6c0.4-0.4,1-0.9,1.6-1.1s1.3-0.4,2-0.4c0.7,0,1.4,0.1,2,0.4s1.1,0.7,1.6,1.1
		c0.4,0.4,0.7,1,1,1.6c0.3,0.6,0.3,1.1,0.3,1.8c0,0.6-0.1,1.3-0.4,1.8c-0.3,0.6-0.6,1.1-1,1.6c-0.4,0.4-1,0.9-1.6,1.1
		C99.6,20.7,98.8,20.8,98.1,20.8z M95.6,15.8c0,0.4,0,0.7,0.1,1.1c0.1,0.3,0.3,0.7,0.4,1c0.3,0.3,0.4,0.4,0.9,0.7
		c0.3,0.1,0.7,0.3,1.1,0.3s0.9-0.1,1.1-0.3c0.3-0.1,0.6-0.4,0.9-0.7c0.1-0.3,0.4-0.6,0.4-1c0.1-0.3,0.1-0.7,0.1-1.1
		c0-0.4,0-0.7-0.1-1.1c-0.1-0.3-0.3-0.7-0.4-1c-0.3-0.3-0.4-0.4-0.9-0.7c-0.3-0.1-0.7-0.3-1.1-0.3S97.3,12.9,97,13
		c-0.3,0.1-0.6,0.4-0.9,0.7c-0.3,0.3-0.4,0.6-0.4,1S95.6,15.4,95.6,15.8z"/>
	<path class="st0" d="M107.5,15.1v5.5h-2.3V11h1.7l4.5,5.7V11h2.3v9.6h-1.8L107.5,15.1z"/>
</g>
<path class="st0" d="M25.5,8.3c-0.1-2.1-1.7-3.7-3.5-3.5c-4.3,0.4-8.7,0.9-12.9,1.3C7.2,6.3,5.7,7.9,5.5,9.6
	c-0.3,4.1-0.4,8.2-0.7,12.3c-0.1,1.7,1.4,3.3,3.5,3.5c4.8,0.4,9.5,1,14.3,1.4c2,0.3,3.5-1.4,3.5-3.5C25.9,18.4,25.7,13.3,25.5,8.3z
	 M18.6,9.3c0.7-0.1,1.3,0.4,1.3,1.3c0,0.7-0.6,1.4-1.3,1.6c-0.7,0-1.3-0.6-1.3-1.3C17.3,10,17.9,9.3,18.6,9.3z M12.5,10
	c0.7-0.1,1.3,0.4,1.3,1.1s-0.6,1.3-1.3,1.3c-0.7,0-1.3-0.4-1.3-1.1C11.2,10.7,11.8,10.2,12.5,10z M20.1,22.5
	c-0.9-0.1-1.7-0.3-2.6-0.3c-0.3,0-0.4-0.3-0.4-0.6c0-0.3,0.1-0.4,0.4-0.4c0,0,0,0,0.1,0c0-2.6,0-5.1,0.1-7.8c-1.6,0-3,0.1-4.5,0.1
	c0,2.4,0,4.7,0.1,7.1c0,0,0,0,0.1,0c0.3,0,0.4,0.3,0.4,0.4c0,0.3-0.3,0.4-0.4,0.4c-0.9-0.1-1.7-0.3-2.6-0.3c-0.3,0-0.4-0.3-0.4-0.4
	c0-0.3,0.3-0.4,0.6-0.4c0,0,0,0,0.1,0c0.1-2.3,0.3-4.7,0.4-7.1l0,0c0-0.1,0.1-0.3,0.3-0.3c2.6-0.1,5-0.3,7.5-0.4
	c0.1,0,0.3,0.1,0.3,0.3l0,0l0,0c0.1,2.8,0.3,5.5,0.4,8.4c0,0,0,0,0.1,0c0.3,0,0.4,0.3,0.6,0.6C20.5,22.4,20.4,22.5,20.1,22.5z"/>
</svg>
