<svg id="Stripelight-logo" xmlns="http://www.w3.org/2000/svg" xmlns:xlink="http://www.w3.org/1999/xlink" width="179.181" height="31.708" viewBox="0 0 179.181 31.708">
  <defs>
    <clipPath id="clip-path">
      <rect id="Rectangle_55" data-name="Rectangle 55" width="179.181" height="31.708"/>
    </clipPath>
  </defs>
  <g id="Group_24" data-name="Group 24">
    <g id="Group_22" data-name="Group 22" clip-path="url(#clip-path)">
      <path id="Path_61" data-name="Path 61" d="M153.76,7.43v.678h.322a.5.5,0,0,0,.31-.092.275.275,0,0,0,.115-.241c0-.23-.138-.345-.425-.345Zm1.253.31a.741.741,0,0,1-.414.724l.517.942h-.563l-.437-.827h-.356v.827h-.517V6.947h.827a.968.968,0,0,1,.678.23.7.7,0,0,1,.264.563m-.977,2.643a2.2,2.2,0,0,0,2.2-2.207,2.143,2.143,0,0,0-.644-1.563,2.192,2.192,0,0,0-3.1,0,2.22,2.22,0,0,0,0,3.126,2.155,2.155,0,0,0,1.552.644M152.266,6.4a2.517,2.517,0,0,1,4.3,1.781,2.517,2.517,0,1,1-5.034,0,2.386,2.386,0,0,1,.736-1.781" transform="translate(22.617 0.845)" fill="#fff"/>
    </g>
    <g id="Group_23" data-name="Group 23" clip-path="url(#clip-path)">
      <path id="Path_62" data-name="Path 62" d="M38.51,18.96,41.5,17.224a3.179,3.179,0,0,0,3.183,2.1c1.643,0,2.057-.655,2.057-1.23,0-.931-.862-1.3-3.137-1.931-2.253-.632-4.459-1.712-4.459-4.609,0-2.919,2.471-4.609,5.091-4.609a5.873,5.873,0,0,1,5.539,3.425l-2.919,1.712a2.657,2.657,0,0,0-2.62-1.758c-1.08,0-1.62.54-1.62,1.149,0,.69.368,1.172,2.724,1.885,2.3.69,4.873,1.494,4.873,4.7,0,2.919-2.333,4.654-5.631,4.654-3.183-.023-5.218-1.529-6.068-3.758" transform="translate(5.748 1.037)" fill="#fff"/>
    </g>
  </g>
  <path id="Path_63" data-name="Path 63" d="M60.031,10.543h-3.9V22.357H52.676V10.543h-3.9V7.21H60.031Z" transform="translate(7.281 1.076)" fill="#fff"/>
  <g id="Group_26" data-name="Group 26">
    <g id="Group_25" data-name="Group 25" clip-path="url(#clip-path)">
      <path id="Path_64" data-name="Path 64" d="M63.349,14.347h2.6A1.831,1.831,0,0,0,67.682,12.4a1.831,1.831,0,0,0-1.735-1.942h-2.6Zm1.643,3.034H63.349v4.976H59.89V7.21h6.057A5.175,5.175,0,0,1,71.141,12.4a4.982,4.982,0,0,1-2.793,4.39l3.229,5.562H67.854Z" transform="translate(8.939 1.076)" fill="#fff"/>
    </g>
  </g>
  <rect id="Rectangle_58" data-name="Rectangle 58" width="3.459" height="15.147" transform="translate(82.137 8.286)" fill="#fff"/>
  <g id="Group_28" data-name="Group 28">
    <g id="Group_27" data-name="Group 27" clip-path="url(#clip-path)">
      <path id="Path_65" data-name="Path 65" d="M84.312,12.4a1.848,1.848,0,0,0-1.839-1.942H80.2v3.9h2.276A1.858,1.858,0,0,0,84.312,12.4m3.471,0a5.205,5.205,0,0,1-5.3,5.195H80.209v4.758H76.75V7.21h5.735a5.205,5.205,0,0,1,5.3,5.195" transform="translate(11.455 1.076)" fill="#fff"/>
    </g>
  </g>
  <path id="Path_66" data-name="Path 66" d="M97.377,19.024v3.333H87.85V7.21h9.412v3.333H91.321v2.505h5.4v3.287h-5.4v2.689Z" transform="translate(13.112 1.076)" fill="#fff"/>
  <path id="Path_67" data-name="Path 67" d="M106.7,19.024v3.333H97.83V7.21H101.3V19.024Z" transform="translate(14.602 1.076)" fill="#fff"/>
  <rect id="Rectangle_60" data-name="Rectangle 60" width="3.459" height="15.147" transform="translate(122.821 8.286)" fill="#fff"/>
  <g id="Group_30" data-name="Group 30">
    <g id="Group_29" data-name="Group 29" clip-path="url(#clip-path)">
      <path id="Path_68" data-name="Path 68" d="M127.233,15.259a7.086,7.086,0,0,1-7.47,7.447,7.881,7.881,0,1,1-.241-15.756,7.746,7.746,0,0,1,6.62,3.459L123.2,12.1a4.555,4.555,0,0,0-8.16,2.77c0,2.574,1.816,4.459,4.758,4.459a3.763,3.763,0,0,0,3.873-2.333h-4.045V13.96h7.6v1.3Z" transform="translate(16.654 1.037)" fill="#fff"/>
    </g>
  </g>
  <path id="Path_69" data-name="Path 69" d="M138.578,7.21V22.357h-3.459V16.335h-4.769v6.022H126.89V7.21h3.459V13h4.769V7.21Z" transform="translate(18.939 1.076)" fill="#fff"/>
  <path id="Path_70" data-name="Path 70" d="M149.631,10.543h-3.9V22.357h-3.459V10.543h-3.9V7.21h11.251Z" transform="translate(20.654 1.076)" fill="#fff"/>
  <g id="Group_32" data-name="Group 32">
    <g id="Group_31" data-name="Group 31" clip-path="url(#clip-path)">
      <path id="Path_71" data-name="Path 71" d="M27.663,19.066h0l-23.4-7.344a12.273,12.273,0,0,1,23.525,1.425.237.237,0,0,1-.2.115l-7.516-.23a.223.223,0,0,0-.069.437l8.091,2.54v0h0l3.528,1.138c.034-.425.057-.85.057-1.287A15.862,15.862,0,0,0,.218,13.021l3.471,1,23.238,7.056a12.273,12.273,0,0,1-22.261-.115.363.363,0,0,1,.3-.184l4.677-.23a.371.371,0,0,0,.092-.724L3.747,17.986h0L0,16.837a15.859,15.859,0,0,0,31.087,3.333l-3.264-1.057Z" fill="#fff"/>
    </g>
  </g>
</svg>
