<?xml version="1.0" encoding="utf-8"?>
<!-- Generator: Adobe Illustrator 26.5.0, SVG Export Plug-In . SVG Version: 6.00 Build 0)  -->
<svg version="1.1" id="Stripelight-logo" xmlns="http://www.w3.org/2000/svg" xmlns:xlink="http://www.w3.org/1999/xlink" x="0px"
	 y="0px" viewBox="0 0 179.2 31.7" style="enable-background:new 0 0 179.2 31.7;" xml:space="preserve">
<style type="text/css">
	.st0{clip-path:url(#SVGID_00000122717378207113576530000015484129922514003861_);}
	.st1{fill:#FFFFFF;}
	.st2{enable-background:new    ;}
</style>
<g>
	<g id="Group_1476" transform="translate(0 4.388)">
		<g>
			<defs>
				<rect id="SVGID_1_" x="1.8" y="1.2" width="11.7" height="11.7"/>
			</defs>
			<clipPath id="SVGID_00000125598630748307871950000013813301106269042816_">
				<use xlink:href="#SVGID_1_"  style="overflow:visible;"/>
			</clipPath>
			
				<g id="Group_1474" transform="translate(0 0)" style="clip-path:url(#SVGID_00000125598630748307871950000013813301106269042816_);">
				<g id="Group_1473" transform="translate(0.029 0)">
					<path id="Path_1064" class="st1" d="M13.5,7.1c0-3.2-2.6-5.8-5.8-5.8c-3.2,0-5.8,2.6-5.8,5.8s2.6,5.8,5.8,5.8
						C10.9,12.9,13.5,10.3,13.5,7.1 M12.6,7.1c0,2.7-2.2,5-5,5s-5-2.2-5-5s2.2-5,5-5S12.6,4.3,12.6,7.1"/>
					<path id="Path_1065" class="st1" d="M8.5,6.3c0.3,0,0.8,0,0.8-0.5c0-0.3-0.3-0.5-0.5-0.5c0,0,0,0,0,0h0H6.6v1L8.5,6.3L8.5,6.3z
						 M8.7,8.7c0.4,0,0.9-0.1,0.9-0.6c0-0.4-0.4-0.5-0.7-0.5H6.5v1.1L8.7,8.7L8.7,8.7z M9.4,4c1,0,2,0.2,2,1.4c0,0.9-0.4,1-1.1,1.4
						c0.9,0.2,1.4,0.5,1.4,1.5c0,1.5-1.5,1.8-2.7,1.8H4.4V4H9.4z"/>
				</g>
			</g>
		</g>
	</g>
	<g class="st2">
		<path class="st1" d="M19.1,27.5V5.9h6.6c1.9,0,3.6,0.4,5.1,1.3c1.5,0.9,2.7,2.1,3.5,3.6c0.8,1.6,1.3,3.4,1.3,5.4v1
			c0,2-0.4,3.8-1.2,5.4c-0.8,1.6-2,2.8-3.5,3.6c-1.5,0.9-3.2,1.3-5.1,1.3H19.1z M23.5,9.5v14.4h2.1c1.7,0,3.1-0.6,4-1.7
			c0.9-1.1,1.4-2.8,1.4-4.9v-1.1c0-2.2-0.5-3.9-1.4-5c-0.9-1.1-2.2-1.7-4-1.7H23.5z"/>
		<path class="st1" d="M50.2,15.6l4.5-9.7h4.9l-7.1,13.8v7.8h-4.5v-7.8L40.9,5.9h4.9L50.2,15.6z"/>
		<path class="st1" d="M70.5,23.9H80v3.6H66.1V5.9h4.4V23.9z"/>
		<path class="st1" d="M99.6,23.1h-7.8l-1.5,4.4h-4.7l8-21.6h4.1l8.1,21.6H101L99.6,23.1z M93,19.5h5.4l-2.7-8.1L93,19.5z"/>
		<path class="st1" d="M129.9,27.5h-4.4l-8.7-14.2v14.2h-4.4V5.9h4.4l8.7,14.2V5.9h4.4V27.5z"/>
	</g>
</g>
</svg>
