<?xml version="1.0" encoding="utf-8"?>
<!-- Generator: Adobe Illustrator 26.5.0, SVG Export Plug-In . SVG Version: 6.00 Build 0)  -->
<svg version="1.1" id="Laag_1" xmlns="http://www.w3.org/2000/svg" xmlns:xlink="http://www.w3.org/1999/xlink" x="0px" y="0px"
	 viewBox="0 0 163.3 38.9" style="enable-background:new 0 0 163.3 38.9;" xml:space="preserve">
<style type="text/css">
	.st0{fill:#EE7623;}
	.st1{fill:#FFFFFF;}
</style>
<g>
	<path id="Path_36" class="st0" d="M67,31.6c0.8-3.5-0.5-7.8-3.9-12.9C60,13.7,55.8,9.6,50.9,6.4c-5.2-3.4-10.2-5.1-15.1-5
		c-5.3,0-8.1,1.9-8.5,5.7c-0.3,2.6,0.5,5.6,2.4,9c-0.2-0.7-0.4-1.3-0.5-2c-1.6-10.8,9.1-9.2,10.7-8.8c3.3,0.3,6.7,1.8,10.2,4.3
		c3.5,2.5,6.6,5.7,8.9,9.3c2.6,4,3.7,7.4,3.2,10.2l-6.2-3.3l-0.4,2.5l5.1,2.8c-0.6,0.4-1.2,0.7-1.8,1c-0.5,0.2-1.4,0.3-2.4,0.3
		c-1.4,0-2.8-0.2-4.2-0.5c-3.9-0.6-9-2.1-12-3c1,0.8,2.1,1.6,3.2,2.3c5.1,3.4,10.4,5,15.9,5c2.7,0,4.9-0.7,6.6-2.2l7.2,3.9l0.4-2.7
		L67,31.6L67,31.6z"/>
	<polygon class="st1" points="7.2,18.3 7.2,19.8 3.7,19.8 3.7,21.7 7.2,21.7 7.2,23.2 3.7,23.2 3.7,26.5 1.6,26.5 1.6,18.3 	"/>
	<path class="st1" d="M16.2,19.5c-0.9-0.8-2-1.3-3.4-1.3l0,0c-1.4,0-2.5,0.4-3.4,1.3c-0.1,0.1-0.2,0.2-0.3,0.3
		c-1.5,1.6-1.4,4.2,0.3,5.6c0.9,0.8,2,1.2,3.4,1.2c1.4,0,2.5-0.4,3.4-1.2c0.8-0.7,1.3-1.8,1.3-3C17.5,21.3,17.1,20.2,16.2,19.5z
		 M14.7,24.2c-0.5,0.5-1.2,0.7-1.9,0.7h0c-0.8,0-1.4-0.2-1.9-0.7c-0.9-1-0.9-2.6,0-3.6c0.5-0.5,1.1-0.7,1.9-0.7
		c0.8,0,1.4,0.2,1.9,0.7C15.7,21.6,15.7,23.2,14.7,24.2z"/>
	<path class="st1" d="M23,18.2c-1.4,0-2.5,0.4-3.4,1.3c-0.1,0.1-0.2,0.2-0.3,0.3c-1.5,1.6-1.4,4.2,0.3,5.6c0.9,0.8,2,1.2,3.4,1.2
		c1.4,0,2.5-0.4,3.4-1.2c0.8-0.7,1.3-1.8,1.3-3c0-1.1-0.4-2.1-1.3-2.9C25.5,18.6,24.4,18.2,23,18.2z M24.9,24.2
		c-0.5,0.5-1.2,0.7-1.9,0.7c-0.8,0-1.4-0.2-1.9-0.7c-0.9-1-0.9-2.6,0-3.6c0.5-0.5,1.1-0.7,1.9-0.7c0.8,0,1.4,0.2,1.9,0.7
		C25.8,21.6,25.8,23.2,24.9,24.2z"/>
	<path class="st1" d="M35.7,19.5c-0.8-0.8-1.9-1.1-3.3-1.1h-3.6v8.2h3.4c1.5,0,2.7-0.4,3.5-1.1c0.8-0.7,1.2-1.7,1.2-3
		C36.9,21.2,36.5,20.2,35.7,19.5z M34.1,24.3c-0.5,0.5-1.1,0.7-2,0.7h-1.3v-5.2l0,0h1.3c0.9,0,1.5,0.2,2,0.7
		c0.5,0.5,0.7,1.1,0.7,1.9C34.8,23.2,34.6,23.8,34.1,24.3z"/>
	<path id="Path_38" class="st0" d="M44.1,24.9v1.6h-6v-8.6h6v1.6h-3.9v1.8h3.7v1.6h-3.7v2.1L44.1,24.9z M72.3,29.7
		c0,0.8-0.7,1.5-1.5,1.5c-0.8,0-1.5-0.7-1.5-1.5s0.7-1.5,1.5-1.5C71.6,28.2,72.3,28.8,72.3,29.7z M71.9,29.7c0-0.6-0.5-1.1-1.1-1.1
		c-0.6,0-1.1,0.5-1.1,1.1c0,0.6,0.5,1.1,1.1,1.1C71.4,30.8,71.9,30.3,71.9,29.7C71.9,29.7,71.9,29.7,71.9,29.7L71.9,29.7z
		 M71.1,29.8l0.3,0.5H71l-0.2-0.4h-0.3v0.4h-0.3v-1.4h0.6c0.4,0,0.6,0.2,0.6,0.5C71.4,29.6,71.3,29.8,71.1,29.8L71.1,29.8z
		 M70.8,29.6c0.1,0,0.2-0.1,0.2-0.2c0-0.1-0.1-0.2-0.2-0.2c0,0,0,0,0,0h-0.3v0.5L70.8,29.6L70.8,29.6z"/>
</g>
</svg>
