<?xml version="1.0" encoding="utf-8"?>
<!-- Generator: Adobe Illustrator 24.1.0, SVG Export Plug-In . SVG Version: 6.00 Build 0)  -->
<svg version="1.1" id="Stripelight-logo" xmlns="http://www.w3.org/2000/svg" xmlns:xlink="http://www.w3.org/1999/xlink" x="0px"
	 y="0px" viewBox="0 0 145.7 31.7" style="enable-background:new 0 0 145.7 31.7;" xml:space="preserve">
<style type="text/css">
	.st0{fill:#FFFFFF;}
</style>
<g>
	<g>
		<path class="st0" d="M73.7,15.3c-0.2,0.7-0.9,2-1.7,2.8c1-1.2,1.3-2.2,1.5-2.8l0,0c-0.7,1.5-1.9,2.8-2.4,2.8c-0.6,0,1.6-4.1,1.6-6
			c0-1.3-0.9-3-1.5-4.2c0.6-1.8,0.9-3.6,0.9-4.8c0-0.2-0.2-0.6-0.4-0.7c-0.1-0.1-1.6,0.6-3,3c0.7-1.5,1.7-2.6,2.4-3.1
			c-1,0.4-3.1,2.6-3.1,3.6c0,0.9,0.9,1.8,1.7,2.8l0,0c0.2,0.2,0.6,0.9,0.8,1.1c-0.2-0.2-0.6-0.6-0.9-0.9c-1.2,3.1-3.6,7.9-4.3,7.9
			c0,0-0.1,0-0.1-0.1l0,0c-0.1-0.4-0.1-1.7,0.6-3.6c-0.2,0.9-0.4,2-0.4,2.7c0.4-1,1.1-2.6,1.1-3c0-0.3-0.4-0.6-0.8-0.7
			c0.4-0.9,0.9-2.2,0.9-3c0-0.4-0.4-0.9-0.8-1.3c0,0-0.1,0-0.1-0.1c-0.5-0.4-2.4,1.2-3.8,2.7c1.8-2.5,3.1-3,3.4-2.9
			c-0.1-0.1-0.3-0.1-0.4-0.1c-0.9,0-2.6,1.8-4.1,3.9c-1.8,2.2-4,4.4-5.9,4.5c-0.2,0-0.5-0.2-0.5-0.8c0-0.3,0.1-0.6,0.2-1
			c0.2,0.1,0.5,0.2,0.7,0.2c0,0,0,0,0.1,0c0.6-0.1,3.4-1.7,4.3-5.4c-0.2,2-1.2,3.4-2.3,4.5c1.3-0.9,2.6-2.6,2.6-4.7
			c0-0.4-0.4-1-0.9-1.5c-0.2-0.2-3,0.6-5.2,3.9c1.3-2.2,3.3-3.9,4.8-4.1c-0.1-0.1-0.2-0.1-0.3-0.1c-2,0-7.1,6.1-7.1,10.1
			c0,0.7,1.6,2.3,2.2,2.3c1.1,0,3.2-1.5,4.9-3.3c-0.2,0.6-0.4,1.1-0.4,1.5c0,0.6,1.5,2.2,2.2,2.2c0.5,0,1.7-1.8,2.8-3.4
			c-0.3,0.8-0.5,1.6-0.5,2.2c0,0.6,1.2,1.8,1.6,1.8c1.5-0.1,4.6-5.4,6.5-10.5c0.1,0.2,0.2,0.5,0.3,0.8l0,0c0.3,0.9,0.6,2.3-1.7,6
			c0.4-0.9,1.2-2.7,1.4-4.1c-0.9,2.2-3,5-3,6.1c0,0.7,1.5,2.7,2,2.7c1.3,0,3.9-3.1,4.4-5.1C74.1,15.9,73.9,15.5,73.7,15.3z
			 M58.4,9.6c0.1,0,0.2,0.1,0.2,0.3c0,0.9-2,3.5-3.3,3.1C56.1,11.3,57.6,9.6,58.4,9.6z M64.5,13.1c-0.1,0.1-0.1,0.2-0.2,0.4l0,0
			c-0.5,0.8-2.5,3.1-3,3.1c-0.1,0-0.1-0.1-0.1-0.2c-0.1-1.4,2.8-6,3.6-6c0.5,0-0.6,1.8-0.7,2.1C63.9,12.5,64.1,12.9,64.5,13.1z"/>
		<path class="st0" d="M30.1,22.5C23.3,24,17,25.9,12.3,28.1c-0.2,0.1-0.2,0.8-0.1,0.7c4.1-1.7,10.3-3.6,17.2-4.9
			C29.6,23.5,29.9,23,30.1,22.5z"/>
		<path class="st0" d="M62.7,21.9C55.4,19.6,43.9,20,33.2,22c0.1-0.3,0.2-0.7,0.4-1c0.2-0.5,0.4-1.1,0.8-1.8c0-1,0.4-2.4,1-3.3
			c-0.7,1.2-0.7,3.3-0.5,3.6c0.6,0.6,1.4,1.2,1.7,1.2c2,0,6.2-7.1,6-10.8c-0.1-0.6-1.4-1.8-2-1.8c-0.4,0-2.2,2.3-3.9,5.1
			c0.5-1.1,1-2.2,1.5-3.3c0.2-0.4-0.8-1.5-1.4-1.5c-0.1,0-0.3,0.3-0.6,0.7l0,0l0,0c-0.1,0.2-0.3,0.5-0.4,0.8c-1.7,3.1-5,8.1-5.3,8.1
			c-0.3,0,1.1-3.1,1.1-3.6c0-0.2-0.5-0.7-0.9-0.9c0.2-0.6,0.3-1.3,0.3-1.8c0-0.1-0.1-0.3-0.2-0.5c0.1,0.7-0.2,1.5-0.4,1.8
			c0.2-1.2,0.1-2.2-0.2-2.4c-0.4-0.3-0.9-0.6-1.2-0.6c-0.9,0-2.3,1.4-3.4,3.1l0,0c-0.2,0.4-0.5,0.7-0.7,1.1
			c-1.3,1.8-3.8,5.5-4.3,5.5c-0.5,0,1.8-4.8,1.8-5.7c0-1.4-1.5-3-2.6-4.1C20,9.5,20.1,8.7,20.1,8c0-0.7-0.3-1.9-0.7-1.9
			c-1.3,0-2.6,0.9-2.6,1.5c0,0.9,0.8,1.8,1.6,2.8v0.1c0.2,0.3,0.9,1.1,1.2,1.5c0-0.1,0-0.1,0.1-0.1c0.4,0.6,0.7,1,0.7,1.6l0,0l0,0
			c0,0,0,0,0,0.1c0.1,2-1.1,5.4-2.2,7.5c0.5-1.3,1.4-3.6,1.7-5.4c-1,2.2-2.8,5.1-2.8,6c0,0.6,1.9,2.6,2.5,2.6s1.9-2.1,3.2-4.3
			c-0.1,0.3-0.1,0.6-0.1,0.9c0,0.4,1.5,2,2.1,2c0.7,0,2.5-2.8,3.4-4.5c-0.3,0.9-0.6,1.7-0.6,1.9c0.1,0.7,1.5,1.6,1.8,1.6
			c0.4,0,1.9-2.3,3.1-4.3c-0.6,1.5-1.2,3-1.7,4.2c-0.2,0.4-0.6,1.6-0.8,2.2l0,0l0,0c-0.3,0.9-0.5,1.5-0.5,1.7c0,0.7,2,2.5,2,2.2
			c0.1-0.7,0.6-2.3,1.2-4.3c10.5-1.7,21.8-2.2,28.9,0.6c-4-2-9.5-2.3-14.3-2.4c10.6-0.2,13.9,1.7,16.4,3.3c0.2,0.1,0.3,0.2,0.5,0.2
			c0.2,0.1,0.2-0.2,0.2-0.3C64.3,24.3,63.4,22.2,62.7,21.9z M37,15.4c0.1-0.2-0.1-0.5-0.4-0.6c1.4-2.4,2.9-4.5,3.4-4.5
			c0.1,0,0.1,0.1,0.1,0.1c0.2,0.6,0.4,3.1-1.8,6.3c0.9-1.8,1.6-3.4,1.7-4.9c-0.6,2-2.5,5.5-3.2,5.5C36.2,17.2,36.9,15.6,37,15.4z
			 M28.6,15.7c-1,1.4-2.5,3.3-2.9,3.3c-0.1,0-0.1-0.1-0.1-0.2c-0.3-1.2,0.2-3.3,1.7-5c-0.9,1.2-1.4,3-1.5,3.9
			c0.7-1.8,2.8-4.8,3.1-4.8c0.5,0-0.6,1.8-0.7,2.1C28.2,15.3,28.4,15.5,28.6,15.7z"/>
		<path class="st0" d="M19.5,11.9c-0.3-0.2-0.8-0.7-1.2-1c-1.1,4.1-5.1,11.5-5.4,11.5c-0.2,0,0.9-4.6,1.8-5.9
			c0.2-0.3-1.2-1.7-1.6-1.7c-1.6,0.1-6.9,8.5-8.1,10.8c0-3.2,3.4-10.6,6.1-13.7c-2,1.5-3.9,4.9-5.4,8.4c1.8-5.9,4.9-9.2,7.1-9.7
			c0.1,0,0.2-0.1,0.3-0.1c0.2,0,0.6,0,0.7,0c0.1,0,0.1-0.2,0.1-0.4c0-0.6-1.7-2.2-2.3-2.2c-3.6,0-10,11.5-10,19c0,0.3,0.2,0.7,0.5,1
			c-0.1-1.8,0.1-3.9,0.7-5.4c-0.6,2.2-0.4,5.7,0.1,6.2l0,0c0.7,0.6,1.4,1.1,1.6,1.1c1.9-3.5,4.7-8.8,6.7-11.1
			c-1.5,2.2-1.6,3.9-1.6,4.7c0,0.1,0,0.1,0,0.1l0,0c0-0.6,0.8-3.2,1.7-4.4c-0.5,1-1.2,3-1.4,4.9c0.6,0.9,1.7,2.1,2.2,2.1
			C13,26.2,17.8,18.4,19.5,11.9z"/>
		<path class="st0" d="M42,16.6c0-0.4,0.7-4.6,3.1-8c-1.4,2.3-3,6-2.6,9.1c0.7,1,2.1,2,2.5,2c2.8,0,8.4-6.9,8.4-11.2
			c0-0.2-0.8-1.2-1.2-1.2c-1.5,0.2-1.6,0.2-2.9,0.7c-0.4,0.1-1.5,1.8-1.5,2.5c0,0.1,0,0.4,0.2,0.3c0.9-0.8,3.3-1.6,3.6-1.6
			c0,2.2-1.4,4.5-3.3,6.2c1.4-1.5,2.5-3.2,2.8-4.7c-1,2.1-3.6,5.6-5,5.6c-0.2,0-0.7-0.7-0.7-1c0-3.9,3.5-8.7,5.8-10.5
			c-1,0.6-2.3,1.7-3.1,2.5c1.5-2,3.5-3.2,4.4-3.2h0.1c0.2,0-0.2,1.2-0.5,1.4c-0.1,0.1-0.2,0-0.2,0.2C51.8,6,53,7.1,53.2,7
			c0.9-0.7,1.3-2.8,1.2-3.6c0-0.2-0.1-0.4-0.3-0.7c0.1,0.7,0.1,2.2-0.6,3.5c0.2-1.1,0.7-3.6-0.2-4.3c-0.2-0.2-0.4-0.2-0.6-0.2
			C49.6,1.7,42,9.2,42,16.5C42,16.6,42,16.6,42,16.6z"/>
	</g>
</g>
</svg>
