<?xml version="1.0" encoding="utf-8"?>
<!-- Generator: Adobe Illustrator 25.2.3, SVG Export Plug-In . SVG Version: 6.00 Build 0)  -->
<svg version="1.1" id="Stripelight-logo" xmlns="http://www.w3.org/2000/svg" xmlns:xlink="http://www.w3.org/1999/xlink" x="0px"
	 y="0px" viewBox="0 0 179.2 31.7" style="enable-background:new 0 0 179.2 31.7;" xml:space="preserve">
<style type="text/css">
	.st0{fill:#FFFFFF;}
	.st1{enable-background:new    ;}
</style>
<g id="Group_592" transform="translate(-177.588 -435.678)">
	<g id="Group_9" transform="translate(177.588 440.381)">
		<path id="Path_3" class="st0" d="M8.7,9.3c7.2,0,8.7-4.6,8.7-4.6s0,10.8,0,13.3c0,4.8-3.9,8.7-8.7,8.7S0,22.8,0,18
			C0,13.2,3.9,9.3,8.7,9.3L8.7,9.3L8.7,9.3z"/>
		<circle id="Ellipse_1" class="st0" cx="10.3" cy="1" r="5.8"/>
	</g>
	<g class="st1">
		<path class="st0" d="M205,455.9v-4.5c0-3.9,2-6.3,6.2-6.3c2.3,0,4.2,0.6,5,0.9v-7c0-0.4,0.2-0.6,0.6-0.6h1c0.4,0,0.6,0.1,0.6,0.6
			v20.4c0,1-0.2,1.3-1.2,1.7c-1.2,0.5-2.9,0.9-5.4,0.9C207,462.1,205,459.9,205,455.9z M215.5,459.6c0.6-0.2,0.6-0.3,0.6-0.8V448
			c-0.7-0.3-2.4-1-4.6-1c-3.1,0-4.4,1.6-4.4,4.4v4.4c0,2.9,1.5,4.4,4.7,4.4C213.3,460.2,214.6,459.9,215.5,459.6z"/>
		<path class="st0" d="M222.5,455.8v-4.1c0-4.1,2.4-6.6,6.9-6.6c4.7,0,7,2.7,7,6.5v1.7c0,0.5-0.3,0.9-0.9,0.9h-10.8v1.8
			c0,2.7,1.6,4.3,4.7,4.3c2.6,0,4-1,4.9-2.6c0.3-0.4,0.5-0.4,0.9-0.2l0.7,0.3c0.4,0.2,0.5,0.5,0.2,0.9c-1.1,2-3.1,3.4-6.7,3.4
			C224.6,462.1,222.5,459.6,222.5,455.8z M234.3,452.6v-1.1c0-2.8-1.6-4.5-4.9-4.5c-3.2,0-4.8,1.8-4.8,4.5v1.1H234.3z"/>
		<path class="st0" d="M241.6,461.2c-1-0.4-1.2-0.7-1.2-1.7v-20.4c0-0.4,0.2-0.6,0.6-0.6h1c0.4,0,0.6,0.1,0.6,0.6v7
			c0.8-0.3,2.7-1,5-1c4.3,0,6.2,2.3,6.2,6.1v4.4c0,4.2-2.2,6.4-6.7,6.4C244.6,462.1,242.8,461.7,241.6,461.2z M251.6,455.7v-4.4
			c0-2.7-1.4-4.3-4.4-4.3c-2.1,0-3.9,0.7-4.7,1v10.7c0,0.5,0.1,0.6,0.6,0.8c0.8,0.3,2.1,0.6,3.7,0.6
			C250.1,460.2,251.6,458.7,251.6,455.7z"/>
	</g>
</g>
</svg>
