<svg xmlns="http://www.w3.org/2000/svg" xmlns:xlink="http://www.w3.org/1999/xlink" width="163.287" height="38.917" viewBox="0 0 163.287 38.917">
  <defs>
    <linearGradient id="linear-gradient" x1="0.987" y1="0.363" x2="-0.656" y2="1.729" gradientUnits="objectBoundingBox">
      <stop offset="0" stop-color="#7cc793"/>
      <stop offset="0.077" stop-color="#70c599"/>
      <stop offset="0.336" stop-color="#4ec0ad"/>
      <stop offset="0.583" stop-color="#36bcbb"/>
      <stop offset="0.811" stop-color="#28bac4"/>
      <stop offset="1" stop-color="#23bac7"/>
    </linearGradient>
    <linearGradient id="linear-gradient-2" x1="-0.19" y1="1.145" x2="0.858" y2="0.522" gradientUnits="objectBoundingBox">
      <stop offset="0" stop-color="#7cc793"/>
      <stop offset="0.31" stop-color="#64c3a1"/>
      <stop offset="0.963" stop-color="#26bac4"/>
      <stop offset="1" stop-color="#23bac7"/>
    </linearGradient>
    <linearGradient id="linear-gradient-3" x1="0.934" y1="0.667" x2="-0.013" y2="0.992" gradientUnits="objectBoundingBox">
      <stop offset="0.211" stop-color="#7cc793"/>
      <stop offset="0.456" stop-color="#64c3a1"/>
      <stop offset="0.971" stop-color="#26bac4"/>
      <stop offset="1" stop-color="#23bac7"/>
    </linearGradient>
    <linearGradient id="linear-gradient-5" x1="0.174" y1="1.193" x2="0.745" y2="-0.422" gradientUnits="objectBoundingBox">
      <stop offset="0.006" stop-color="#47b8b4"/>
      <stop offset="0.047" stop-color="#4cbab6" stop-opacity="0.973"/>
      <stop offset="0.096" stop-color="#5dc0bd" stop-opacity="0.89"/>
      <stop offset="0.149" stop-color="#79cbc8" stop-opacity="0.753"/>
      <stop offset="0.204" stop-color="#a0dad8" stop-opacity="0.565"/>
      <stop offset="0.261" stop-color="#d1edec" stop-opacity="0.322"/>
      <stop offset="0.307" stop-color="#fff" stop-opacity="0.102"/>
      <stop offset="0.396" stop-color="#fff" stop-opacity="0.102"/>
    </linearGradient>
    <linearGradient id="linear-gradient-6" x1="-0.01" y1="0.841" x2="0.826" y2="0.726" gradientUnits="objectBoundingBox">
      <stop offset="0" stop-color="#ffc52c"/>
      <stop offset="0.012" stop-color="#fec42c"/>
      <stop offset="0.4" stop-color="#faa82c"/>
      <stop offset="0.742" stop-color="#f7972c"/>
      <stop offset="1" stop-color="#f7922c"/>
    </linearGradient>
    <linearGradient id="linear-gradient-7" x1="-0.163" y1="0.802" x2="0.834" y2="0.802" gradientUnits="objectBoundingBox">
      <stop offset="0" stop-color="#ffc52c"/>
      <stop offset="0.195" stop-color="#fbb02c"/>
      <stop offset="0.432" stop-color="#f99f2c"/>
      <stop offset="0.688" stop-color="#f7952c"/>
      <stop offset="1" stop-color="#f7922c"/>
    </linearGradient>
    <linearGradient id="linear-gradient-8" x1="0.336" y1="1.303" x2="0.336" y2="0.301" gradientUnits="objectBoundingBox">
      <stop offset="0" stop-color="#ffc52c" stop-opacity="0"/>
      <stop offset="0.246" stop-color="#ffd158" stop-opacity="0.106"/>
      <stop offset="0.771" stop-color="#fff0ca" stop-opacity="0.376"/>
      <stop offset="1" stop-color="#fff" stop-opacity="0.502"/>
    </linearGradient>
    <linearGradient id="linear-gradient-9" x1="0.71" y1="2.02" x2="-0.29" y2="2.02" xlink:href="#linear-gradient-7"/>
    <linearGradient id="linear-gradient-10" x1="1.635" y1="0.205" x2="-1.178" y2="4.199" gradientUnits="objectBoundingBox">
      <stop offset="0" stop-color="#ffc52c"/>
      <stop offset="0.051" stop-color="#ffc838" stop-opacity="0.949"/>
      <stop offset="0.397" stop-color="#ffdf8c" stop-opacity="0.631"/>
      <stop offset="0.681" stop-color="#fff0ca" stop-opacity="0.4"/>
      <stop offset="0.89" stop-color="#fffbf0" stop-opacity="0.255"/>
      <stop offset="1" stop-color="#fff" stop-opacity="0.2"/>
    </linearGradient>
    <linearGradient id="linear-gradient-11" x1="-0.378" y1="3.454" x2="0.621" y2="3.454" xlink:href="#linear-gradient-7"/>
    <linearGradient id="linear-gradient-12" x1="0.621" y1="3.454" x2="-0.378" y2="3.454" xlink:href="#linear-gradient-2"/>
    <linearGradient id="linear-gradient-13" x1="0.675" y1="2.991" x2="-0.705" y2="4.578" xlink:href="#linear-gradient-3"/>
    <linearGradient id="linear-gradient-14" x1="-1.945" y1="6.732" x2="1.054" y2="2.153" gradientUnits="objectBoundingBox">
      <stop offset="0.176" stop-color="#47b8b4" stop-opacity="0.502"/>
      <stop offset="0.281" stop-color="#4bb9b5" stop-opacity="0.486"/>
      <stop offset="0.39" stop-color="#5abfbb" stop-opacity="0.451"/>
      <stop offset="0.502" stop-color="#72c8c5" stop-opacity="0.392"/>
      <stop offset="0.614" stop-color="#94d5d3" stop-opacity="0.31"/>
      <stop offset="0.728" stop-color="#c0e6e5" stop-opacity="0.204"/>
      <stop offset="0.841" stop-color="#f4fbfa" stop-opacity="0.075"/>
      <stop offset="0.861" stop-color="#fff" stop-opacity="0.051"/>
    </linearGradient>
  </defs>
  <g id="Group_183" data-name="Group 183" transform="translate(-651.058 440.448)">
    <g id="Group_175" data-name="Group 175" transform="translate(651.058 -440.448)">
      <g id="Group_165" data-name="Group 165" transform="translate(8.27 10.266)">
        <g id="Group_164" data-name="Group 164">
          <path id="Path_126" data-name="Path 126" d="M712.941-393.206a18.534,18.534,0,0,0-.468-3.4,20.081,20.081,0,0,0-1.6-4.557c-.054-.111-.137-.263-.235-.435a15.782,15.782,0,0,1,.415,3.353,15.206,15.206,0,0,1-2.194,7.609,6.113,6.113,0,0,1-5.412,3.33,16.658,16.658,0,0,1-3.1-.422c-4.276-.858-11.753-2.366-12.847-2.557-.869-.151-1.707-.3-2.587-.376a3.046,3.046,0,0,0-1.155.082c-1.92.6-1.377,3.9-1.2,5.327a69.452,69.452,0,0,0,2.4,10.246,19.073,19.073,0,0,0,24.216-5.937,22.545,22.545,0,0,0,2.432-4.421,18.639,18.639,0,0,0,1.154-4.116A17.76,17.76,0,0,0,712.941-393.206Zm-23.982,13.255-.05-.184-.769-2.855a1.578,1.578,0,0,1,1.791-1.966l10.47,1.793,1.778.3C700.2-380.177,696.187-378.928,688.959-379.951Z" transform="translate(-682.351 401.6)" fill="url(#linear-gradient)"/>
        </g>
      </g>
      <g id="Group_167" data-name="Group 167" transform="translate(7.144 7.88)">
        <g id="Group_166" data-name="Group 166">
          <path id="Path_127" data-name="Path 127" d="M705.729-397.283a6.113,6.113,0,0,1-5.412,3.33,16.664,16.664,0,0,1-3.1-.422c-4.276-.858-11.753-2.366-12.847-2.557-.869-.151-1.707-.3-2.587-.376a3.045,3.045,0,0,0-1.155.082c-1.92.6-1.377,3.9-1.2,5.327a69.459,69.459,0,0,0,2.4,10.246q-.51-.247-1.016-.523a73.035,73.035,0,0,1-2.508-10.638c-.173-1.429-.716-4.729,1.2-5.328a3.05,3.05,0,0,1,1.154-.082c.879.072,1.717.225,2.587.376,1.1.19,8.571,1.7,12.848,2.556a16.635,16.635,0,0,0,3.1.422A6.112,6.112,0,0,0,704.6-398.2a15.2,15.2,0,0,0,2.194-7.609,15.191,15.191,0,0,0-.846-4.825s.574.746.637.853c.19.319.623,1.016.919,1.533h0a15.785,15.785,0,0,1,.415,3.353A15.206,15.206,0,0,1,705.729-397.283Z" transform="translate(-678.093 410.632)" fill="url(#linear-gradient-2)"/>
        </g>
      </g>
      <g id="Group_169" data-name="Group 169" transform="translate(7.144 7.88)">
        <g id="Group_168" data-name="Group 168">
          <path id="Path_128" data-name="Path 128" d="M705.729-397.283a6.113,6.113,0,0,1-5.412,3.33,16.664,16.664,0,0,1-3.1-.422c-4.276-.858-11.753-2.366-12.847-2.557-.869-.151-1.707-.3-2.587-.376a3.045,3.045,0,0,0-1.155.082c-1.92.6-1.377,3.9-1.2,5.327a69.459,69.459,0,0,0,2.4,10.246q-.51-.247-1.016-.523a73.035,73.035,0,0,1-2.508-10.638c-.173-1.429-.716-4.729,1.2-5.328a3.05,3.05,0,0,1,1.154-.082c.879.072,1.717.225,2.587.376,1.1.19,8.571,1.7,12.848,2.556a16.635,16.635,0,0,0,3.1.422A6.112,6.112,0,0,0,704.6-398.2a15.2,15.2,0,0,0,2.194-7.609,15.191,15.191,0,0,0-.846-4.825s.574.746.637.853c.19.319.623,1.016.919,1.533h0a15.785,15.785,0,0,1,.415,3.353A15.206,15.206,0,0,1,705.729-397.283Z" transform="translate(-678.093 410.632)" fill="url(#linear-gradient-3)"/>
          <path id="Path_129" data-name="Path 129" d="M705.729-397.283a6.113,6.113,0,0,1-5.412,3.33,16.664,16.664,0,0,1-3.1-.422c-4.276-.858-11.753-2.366-12.847-2.557-.869-.151-1.707-.3-2.587-.376a3.045,3.045,0,0,0-1.155.082c-1.92.6-1.377,3.9-1.2,5.327a69.459,69.459,0,0,0,2.4,10.246q-.51-.247-1.016-.523a73.035,73.035,0,0,1-2.508-10.638c-.173-1.429-.716-4.729,1.2-5.328a3.05,3.05,0,0,1,1.154-.082c.879.072,1.717.225,2.587.376,1.1.19,8.571,1.7,12.848,2.556a16.635,16.635,0,0,0,3.1.422A6.112,6.112,0,0,0,704.6-398.2a15.2,15.2,0,0,0,2.194-7.609,15.191,15.191,0,0,0-.846-4.825s.574.746.637.853c.19.319.623,1.016.919,1.533h0a15.785,15.785,0,0,1,.415,3.353A15.206,15.206,0,0,1,705.729-397.283Z" transform="translate(-678.093 410.632)" fill="url(#linear-gradient-3)"/>
          <path id="Path_130" data-name="Path 130" d="M705.729-397.283a6.113,6.113,0,0,1-5.412,3.33,16.664,16.664,0,0,1-3.1-.422c-4.276-.858-11.753-2.366-12.847-2.557-.869-.151-1.707-.3-2.587-.376a3.045,3.045,0,0,0-1.155.082c-1.92.6-1.377,3.9-1.2,5.327a69.459,69.459,0,0,0,2.4,10.246q-.51-.247-1.016-.523a73.035,73.035,0,0,1-2.508-10.638c-.173-1.429-.716-4.729,1.2-5.328a3.05,3.05,0,0,1,1.154-.082c.879.072,1.717.225,2.587.376,1.1.19,8.571,1.7,12.848,2.556a16.635,16.635,0,0,0,3.1.422A6.112,6.112,0,0,0,704.6-398.2a15.2,15.2,0,0,0,2.194-7.609,15.191,15.191,0,0,0-.846-4.825s.574.746.637.853c.19.319.623,1.016.919,1.533h0a15.785,15.785,0,0,1,.415,3.353A15.206,15.206,0,0,1,705.729-397.283Z" transform="translate(-678.093 410.632)" fill="url(#linear-gradient-5)"/>
        </g>
      </g>
      <g id="Group_170" data-name="Group 170" transform="translate(1.023 0.772)">
        <path id="Path_131" data-name="Path 131" d="M687.069-432.142a8.947,8.947,0,0,0-1.9-2.154h0q-.416-.283-.847-.539a19.814,19.814,0,0,0-18.886-.57,19.811,19.811,0,0,0-10.448,15.744,19.854,19.854,0,0,0,6.825,16.357c-1.13-3.851-2.256-7.785-2.115-11.795.052-1.476.367-3.373,1.847-4.093a4.063,4.063,0,0,1,2.5-.226s15.361,2.908,15.8,2.99a17.176,17.176,0,0,0,2.471.275,3.524,3.524,0,0,0,.716-.057,5.4,5.4,0,0,0,3.225-2.657,14.93,14.93,0,0,0,2.118-7.374A10.578,10.578,0,0,0,687.069-432.142Zm-5.7,8.862a1.642,1.642,0,0,1-1.972.541,135.035,135.035,0,0,0-14.977-2.759,5.913,5.913,0,0,1,.34-.607,8.2,8.2,0,0,1,3.083-2.734,14.513,14.513,0,0,1,9.021-1.647,11.252,11.252,0,0,1,3.424.927A3.4,3.4,0,0,1,681.6-428.4a3.6,3.6,0,0,1,.5,1.977A6.1,6.1,0,0,1,681.368-423.279Z" transform="translate(-654.929 437.526)" fill="url(#linear-gradient-6)"/>
      </g>
      <g id="Group_171" data-name="Group 171">
        <path id="Path_132" data-name="Path 132" d="M682.318-436.447q-.416-.283-.847-.539a19.814,19.814,0,0,0-18.886-.57,19.811,19.811,0,0,0-10.448,15.744,19.854,19.854,0,0,0,6.825,16.357l.015.052a19.813,19.813,0,0,1-7.863-17.181,19.813,19.813,0,0,1,10.448-15.744,19.812,19.812,0,0,1,18.886.57A14.408,14.408,0,0,1,682.318-436.447Z" transform="translate(-651.058 440.448)" fill="url(#linear-gradient-7)"/>
      </g>
      <g id="Group_172" data-name="Group 172">
        <path id="Path_133" data-name="Path 133" d="M682.318-436.447q-.416-.283-.847-.539a19.814,19.814,0,0,0-18.886-.57,19.811,19.811,0,0,0-10.448,15.744,19.854,19.854,0,0,0,6.825,16.357l.015.052a19.813,19.813,0,0,1-7.863-17.181,19.813,19.813,0,0,1,10.448-15.744,19.812,19.812,0,0,1,18.886.57A14.408,14.408,0,0,1,682.318-436.447Z" transform="translate(-651.058 440.448)" fill="url(#linear-gradient-8)"/>
      </g>
      <g id="Group_173" data-name="Group 173" transform="translate(10.513 8.741)">
        <path id="Path_134" data-name="Path 134" d="M708.521-404.241a6.1,6.1,0,0,1-.732,3.145,1.642,1.642,0,0,1-1.972.542,135.041,135.041,0,0,0-14.977-2.759,5.912,5.912,0,0,1,.34-.607c4.6.594,9.067,1.56,13.614,2.594a1.643,1.643,0,0,0,1.972-.542,6.1,6.1,0,0,0,.732-3.146,3.591,3.591,0,0,0-.5-1.976,2.872,2.872,0,0,0-.293-.384,3.4,3.4,0,0,1,1.316,1.156A3.6,3.6,0,0,1,708.521-404.241Z" transform="translate(-690.84 407.374)" fill="url(#linear-gradient-9)"/>
      </g>
      <g id="Group_174" data-name="Group 174" transform="translate(10.513 8.741)">
        <path id="Path_135" data-name="Path 135" d="M708.521-404.241a6.1,6.1,0,0,1-.732,3.145,1.642,1.642,0,0,1-1.972.542,135.041,135.041,0,0,0-14.977-2.759,5.912,5.912,0,0,1,.34-.607c4.6.594,9.067,1.56,13.614,2.594a1.643,1.643,0,0,0,1.972-.542,6.1,6.1,0,0,0,.732-3.146,3.591,3.591,0,0,0-.5-1.976,2.872,2.872,0,0,0-.293-.384,3.4,3.4,0,0,1,1.316,1.156A3.6,3.6,0,0,1,708.521-404.241Z" transform="translate(-690.84 407.374)" fill="url(#linear-gradient-10)"/>
      </g>
      <path id="Path_136" data-name="Path 136" d="M720.438-331.531c-1.981,2.682-5.992,3.93-13.22,2.907l-.05-.184c6.12.607,9.652-.613,11.492-3.028Z" transform="translate(-692.34 360.539)" fill="url(#linear-gradient-11)"/>
      <path id="Path_137" data-name="Path 137" d="M720.438-331.531c-1.981,2.682-5.992,3.93-13.22,2.907l-.05-.184c6.12.607,9.652-.613,11.492-3.028Z" transform="translate(-692.34 360.539)" fill="url(#linear-gradient-12)"/>
      <path id="Path_138" data-name="Path 138" d="M720.438-331.531c-1.981,2.682-5.992,3.93-13.22,2.907l-.05-.184c6.12.607,9.652-.613,11.492-3.028Z" transform="translate(-692.34 360.539)" fill="url(#linear-gradient-13)"/>
      <path id="Path_139" data-name="Path 139" d="M720.438-331.531c-1.981,2.682-5.992,3.93-13.22,2.907l-.05-.184c6.12.607,9.652-.613,11.492-3.028Z" transform="translate(-692.34 360.539)" fill="url(#linear-gradient-14)"/>
    </g>
    <g id="Group_178" data-name="Group 178" transform="translate(702.816 -433.787)">
      <g id="Group_176" data-name="Group 176" transform="translate(0 1.636)">
        <path id="Path_140" data-name="Path 140" d="M852.989-389.665a5.345,5.345,0,0,1,2.907.81,5.735,5.735,0,0,1,2.037,2.24,6.968,6.968,0,0,1,.751,3.288,6.986,6.986,0,0,1-.751,3.277,5.838,5.838,0,0,1-2.026,2.264,5.185,5.185,0,0,1-2.872.822,4.929,4.929,0,0,1-1.656-.274,5.837,5.837,0,0,1-1.406-.715,4.724,4.724,0,0,1-1.06-1,4,4,0,0,1-.62-1.108l.524-.334v7.03a.987.987,0,0,1-.262.691.9.9,0,0,1-.691.286.923.923,0,0,1-.679-.274.952.952,0,0,1-.274-.7v-15.228a.921.921,0,0,1,.274-.679.923.923,0,0,1,.679-.274.914.914,0,0,1,.691.274.944.944,0,0,1,.262.679v2.121l-.357-.191a3.4,3.4,0,0,1,.584-1.144,4.4,4.4,0,0,1,1.025-.965,5.137,5.137,0,0,1,1.359-.655A5.124,5.124,0,0,1,852.989-389.665Zm-.215,1.763a3.786,3.786,0,0,0-2.109.6,4.047,4.047,0,0,0-1.43,1.621,5.206,5.206,0,0,0-.512,2.359,5.3,5.3,0,0,0,.512,2.359,4.008,4.008,0,0,0,1.43,1.644,3.782,3.782,0,0,0,2.109.6,3.726,3.726,0,0,0,2.1-.6,4.129,4.129,0,0,0,1.43-1.644,5.2,5.2,0,0,0,.524-2.359,5.111,5.111,0,0,0-.524-2.359,4.172,4.172,0,0,0-1.43-1.621A3.73,3.73,0,0,0,852.774-387.9Z" transform="translate(-846.912 394.789)" fill="#fff"/>
        <path id="Path_141" data-name="Path 141" d="M904.455-392.4a.941.941,0,0,1-.286.691.941.941,0,0,1-.691.286.865.865,0,0,1-.667-.286.985.985,0,0,1-.262-.691v-15.7a.924.924,0,0,1,.274-.679.923.923,0,0,1,.679-.274.914.914,0,0,1,.691.274.946.946,0,0,1,.262.679Z" transform="translate(-887.846 409.053)" fill="#fff"/>
        <path id="Path_142" data-name="Path 142" d="M931.649-389.925a.915.915,0,0,1,.691.274.946.946,0,0,1,.262.679v10.509a.963.963,0,0,1-.274.691.9.9,0,0,1-.679.286.9.9,0,0,1-.679-.286.962.962,0,0,1-.274-.691v-2.264l.453-.048a2.32,2.32,0,0,1-.358,1.144,4.534,4.534,0,0,1-.977,1.156,5.291,5.291,0,0,1-1.454.882,4.69,4.69,0,0,1-1.811.346,5.231,5.231,0,0,1-2.919-.846,5.836,5.836,0,0,1-2.037-2.3,7.209,7.209,0,0,1-.739-3.313,7.1,7.1,0,0,1,.751-3.324,5.839,5.839,0,0,1,2.026-2.264,5.183,5.183,0,0,1,2.872-.822,5.349,5.349,0,0,1,1.906.333,5.026,5.026,0,0,1,1.537.906,4.306,4.306,0,0,1,1.013,1.263,2.989,2.989,0,0,1,.357,1.382l-.62-.143v-2.6a.923.923,0,0,1,.274-.679A.923.923,0,0,1,931.649-389.925Zm-4.909,10.914a3.677,3.677,0,0,0,2.109-.619,4.262,4.262,0,0,0,1.442-1.68,5.337,5.337,0,0,0,.524-2.4,5.284,5.284,0,0,0-.524-2.371,4.172,4.172,0,0,0-1.442-1.668,3.731,3.731,0,0,0-2.109-.608,3.746,3.746,0,0,0-2.085.6,4.1,4.1,0,0,0-1.442,1.644,5.312,5.312,0,0,0-.524,2.407,5.33,5.33,0,0,0,.524,2.4,4.256,4.256,0,0,0,1.442,1.68A3.637,3.637,0,0,0,926.74-379.011Z" transform="translate(-901.313 395.12)" fill="#fff"/>
        <path id="Path_143" data-name="Path 143" d="M986.8-389.665a.923.923,0,0,1,.679.274.923.923,0,0,1,.274.679v10.39a6.417,6.417,0,0,1-.786,3.325,4.927,4.927,0,0,1-2.109,1.966,6.751,6.751,0,0,1-2.991.643,8.231,8.231,0,0,1-1.787-.191,5.153,5.153,0,0,1-1.406-.5,1.347,1.347,0,0,1-.631-.536.811.811,0,0,1-.06-.679,1.066,1.066,0,0,1,.488-.6.732.732,0,0,1,.679,0q.381.166,1.108.465a4.269,4.269,0,0,0,1.632.3,4.406,4.406,0,0,0,2.121-.477A3.251,3.251,0,0,0,985.367-376a4.9,4.9,0,0,0,.477-2.276v-1.692l.286.6a4.217,4.217,0,0,1-1.025,1.287,4.857,4.857,0,0,1-1.477.858,5.243,5.243,0,0,1-1.835.31,4.28,4.28,0,0,1-2.3-.584,3.73,3.73,0,0,1-1.43-1.62,5.557,5.557,0,0,1-.489-2.395v-7.2a.923.923,0,0,1,.274-.679.922.922,0,0,1,.679-.274.914.914,0,0,1,.691.274.946.946,0,0,1,.262.679v6.768a3.63,3.63,0,0,0,.715,2.443,2.784,2.784,0,0,0,2.216.822,3.509,3.509,0,0,0,1.728-.429,3.335,3.335,0,0,0,1.239-1.18,3.083,3.083,0,0,0,.465-1.656v-6.768a.943.943,0,0,1,.262-.679A.913.913,0,0,1,986.8-389.665Z" transform="translate(-943.044 394.789)" fill="#fff"/>
        <path id="Path_144" data-name="Path 144" d="M1036.884-409.053a.914.914,0,0,1,.691.274.946.946,0,0,1,.262.679v15.7a.963.963,0,0,1-.274.691.9.9,0,0,1-.679.286.9.9,0,0,1-.679-.286.961.961,0,0,1-.274-.691v-2.264l.453-.167a2.513,2.513,0,0,1-.346,1.2,4.329,4.329,0,0,1-.977,1.179,5.553,5.553,0,0,1-1.466.905,4.545,4.545,0,0,1-1.811.358,5.227,5.227,0,0,1-2.907-.834,5.878,5.878,0,0,1-2.037-2.288,7.115,7.115,0,0,1-.75-3.312,7.173,7.173,0,0,1,.75-3.336,5.822,5.822,0,0,1,2.026-2.276,5.183,5.183,0,0,1,2.872-.822,5.185,5.185,0,0,1,1.871.333,5.215,5.215,0,0,1,1.537.906,4.4,4.4,0,0,1,1.036,1.263,2.91,2.91,0,0,1,.37,1.382l-.619-.143V-408.1a.923.923,0,0,1,.274-.679A.923.923,0,0,1,1036.884-409.053Zm-4.909,16.109a3.717,3.717,0,0,0,2.121-.608,4.2,4.2,0,0,0,1.43-1.668,5.338,5.338,0,0,0,.524-2.4,5.317,5.317,0,0,0-.524-2.407,4.189,4.189,0,0,0-1.442-1.656,3.731,3.731,0,0,0-2.109-.608,3.689,3.689,0,0,0-2.085.608,4.184,4.184,0,0,0-1.442,1.656,5.309,5.309,0,0,0-.524,2.407,5.276,5.276,0,0,0,.524,2.371,4.255,4.255,0,0,0,1.442,1.68A3.636,3.636,0,0,0,1031.975-392.944Z" transform="translate(-978.738 409.053)" fill="#fff"/>
        <path id="Path_145" data-name="Path 145" d="M1093.349-396.487a6.69,6.69,0,0,1-.81,3.312,6.044,6.044,0,0,1-2.2,2.288,6.03,6.03,0,0,1-3.157.834,5.985,5.985,0,0,1-3.134-.834,6.13,6.13,0,0,1-2.216-2.288,6.609,6.609,0,0,1-.822-3.312,6.61,6.61,0,0,1,.822-3.312,6.134,6.134,0,0,1,2.216-2.288,5.986,5.986,0,0,1,3.134-.834,6.031,6.031,0,0,1,3.157.834,6.048,6.048,0,0,1,2.2,2.288A6.691,6.691,0,0,1,1093.349-396.487Zm-1.907,0a5.087,5.087,0,0,0-.56-2.431,4.23,4.23,0,0,0-1.525-1.644,4.067,4.067,0,0,0-2.18-.6,4.086,4.086,0,0,0-2.169.6,4.2,4.2,0,0,0-1.537,1.644,5.079,5.079,0,0,0-.56,2.431,5.025,5.025,0,0,0,.56,2.407,4.284,4.284,0,0,0,1.537,1.656,4.025,4.025,0,0,0,2.169.608,4.007,4.007,0,0,0,2.18-.608,4.317,4.317,0,0,0,1.525-1.656A5.034,5.034,0,0,0,1091.443-396.487Zm-3.908-9.913-2,1.668a4.086,4.086,0,0,1-.369.3.772.772,0,0,1-.441.107.508.508,0,0,1-.358-.131.4.4,0,0,1-.143-.3.6.6,0,0,1,.048-.25,1.646,1.646,0,0,1,.167-.274l1.549-1.763a1.245,1.245,0,0,1,1.025-.477h.548a1.274,1.274,0,0,1,.536.1,1.043,1.043,0,0,1,.393.381l1.478,1.763a.667.667,0,0,1,.179.262.824.824,0,0,1,.036.238.451.451,0,0,1-.131.31.475.475,0,0,1-.369.143.663.663,0,0,1-.417-.119q-.155-.119-.393-.286l-2.073-1.74Z" transform="translate(-1019.142 407.925)" fill="#fff"/>
        <path id="Path_146" data-name="Path 146" d="M1144.06-389.665a4.046,4.046,0,0,1,2.633.822,3.993,3.993,0,0,1,1.346,2.323h-.358l.167-.429a3.738,3.738,0,0,1,.977-1.287,6.1,6.1,0,0,1,1.6-1.025,4.561,4.561,0,0,1,1.883-.405,4.044,4.044,0,0,1,2.478.679,3.737,3.737,0,0,1,1.3,1.811,7.7,7.7,0,0,1,.393,2.538v6.505a.963.963,0,0,1-.274.691.9.9,0,0,1-.679.286.892.892,0,0,1-.691-.286.985.985,0,0,1-.262-.691v-6.458a4.886,4.886,0,0,0-.274-1.68,2.488,2.488,0,0,0-.882-1.191,2.769,2.769,0,0,0-1.656-.441,3.678,3.678,0,0,0-1.787.441,3.445,3.445,0,0,0-1.287,1.191,3.068,3.068,0,0,0-.477,1.68v6.458a.986.986,0,0,1-.262.691.893.893,0,0,1-.691.286.9.9,0,0,1-.679-.286.962.962,0,0,1-.274-.691v-6.53a5,5,0,0,0-.25-1.632,2.384,2.384,0,0,0-.846-1.168,2.714,2.714,0,0,0-1.644-.441,3.5,3.5,0,0,0-1.74.441,3.571,3.571,0,0,0-1.263,1.168,2.911,2.911,0,0,0-.477,1.632v6.53a.963.963,0,0,1-.274.691.9.9,0,0,1-.679.286.9.9,0,0,1-.679-.286.962.962,0,0,1-.274-.691v-10.39a.923.923,0,0,1,.274-.679.923.923,0,0,1,.679-.274.913.913,0,0,1,.691.274.945.945,0,0,1,.262.679v1.811l-.524.572a3.225,3.225,0,0,1,.489-1.239,5.04,5.04,0,0,1,1.013-1.144,5.1,5.1,0,0,1,1.382-.834A4.26,4.26,0,0,1,1144.06-389.665Z" transform="translate(-1061.203 394.789)" fill="#fff"/>
        <path id="Path_147" data-name="Path 147" d="M1224.226-377.248a6.652,6.652,0,0,1-3.336-.81,5.692,5.692,0,0,1-2.216-2.228,6.646,6.646,0,0,1-.786-3.277,7.129,7.129,0,0,1,.822-3.539,5.861,5.861,0,0,1,2.133-2.24,5.394,5.394,0,0,1,2.788-.774,5.691,5.691,0,0,1,2.133.405,5.539,5.539,0,0,1,1.811,1.18,5.823,5.823,0,0,1,1.275,1.859,6.238,6.238,0,0,1,.5,2.419.923.923,0,0,1-.31.643.956.956,0,0,1-.667.262h-9.413l-.429-1.645h9.175l-.381.334v-.524a2.977,2.977,0,0,0-.631-1.68,3.8,3.8,0,0,0-1.37-1.084,3.933,3.933,0,0,0-1.692-.381,4.209,4.209,0,0,0-1.418.25,3.374,3.374,0,0,0-1.263.811,4.014,4.014,0,0,0-.894,1.442,6,6,0,0,0-.334,2.121,5.08,5.08,0,0,0,.56,2.431,4.231,4.231,0,0,0,1.561,1.656,4.367,4.367,0,0,0,2.312.608,4.527,4.527,0,0,0,1.478-.215,4.017,4.017,0,0,0,1.06-.536,5.2,5.2,0,0,0,.751-.655,1.083,1.083,0,0,1,.62-.215.781.781,0,0,1,.572.239.78.78,0,0,1,.238.572.906.906,0,0,1-.381.715,6.264,6.264,0,0,1-1.823,1.3A5.436,5.436,0,0,1,1224.226-377.248Z" transform="translate(-1119.85 395.12)" fill="#fff"/>
      </g>
      <g id="Group_177" data-name="Group 177" transform="translate(107.868)">
        <path id="Path_148" data-name="Path 148" d="M1256.926-415.242a1.787,1.787,0,0,1,.482.065,1.794,1.794,0,0,1,.435.184,1.865,1.865,0,0,1,.369.286,1.843,1.843,0,0,1,.286.372,1.889,1.889,0,0,1,.186.44,1.806,1.806,0,0,1,.066.489,1.781,1.781,0,0,1-.065.482,1.789,1.789,0,0,1-.184.435,1.868,1.868,0,0,1-.286.369,1.84,1.84,0,0,1-.37.286,1.837,1.837,0,0,1-.438.186,1.807,1.807,0,0,1-.489.066,1.791,1.791,0,0,1-.482-.065,1.808,1.808,0,0,1-.435-.185,1.879,1.879,0,0,1-.37-.286,1.807,1.807,0,0,1-.288-.371,1.885,1.885,0,0,1-.186-.44,1.8,1.8,0,0,1-.066-.489,1.775,1.775,0,0,1,.065-.48,1.805,1.805,0,0,1,.184-.434,1.892,1.892,0,0,1,.287-.37,1.786,1.786,0,0,1,.372-.288,1.852,1.852,0,0,1,.44-.186A1.793,1.793,0,0,1,1256.926-415.242Zm-.738.566a1.538,1.538,0,0,0-.447.393,1.508,1.508,0,0,0-.255.506,1.467,1.467,0,0,0-.046.561,1.434,1.434,0,0,0,.185.559,1.421,1.421,0,0,0,.236.3,1.534,1.534,0,0,0,.3.23,1.507,1.507,0,0,0,.354.147,1.46,1.46,0,0,0,.38.053,1.437,1.437,0,0,0,.386-.05,1.328,1.328,0,0,0,.37-.164,1.438,1.438,0,0,0,.32-.242,1.553,1.553,0,0,0,.237-.307,1.467,1.467,0,0,0,.149-.35,1.5,1.5,0,0,0,.055-.376,1.427,1.427,0,0,0-.044-.381,1.447,1.447,0,0,0-.148-.364,1.4,1.4,0,0,0-.388-.437,1.472,1.472,0,0,0-.51-.241,1.5,1.5,0,0,0-.569-.031A1.543,1.543,0,0,0,1256.188-414.676Zm-.031.321c0-.046.021-.069.063-.069h.834a.7.7,0,0,1,.251.06.65.65,0,0,1,.2.141.673.673,0,0,1,.137.206.634.634,0,0,1,.05.252.649.649,0,0,1-.087.336.69.69,0,0,1-.234.24l.343.721a.015.015,0,0,0,0,.008.014.014,0,0,1,0,.008c0,.032-.021.048-.062.048h-.3a.056.056,0,0,1-.053-.043l-.3-.659h-.475v.645c0,.039-.021.058-.062.058h-.254a.074.074,0,0,1-.045-.013.052.052,0,0,1-.018-.044Zm1.165.585a.279.279,0,0,0-.021-.1.29.29,0,0,0-.056-.091.284.284,0,0,0-.088-.065.264.264,0,0,0-.116-.025h-.506v.576h.506a.28.28,0,0,0,.114-.023.271.271,0,0,0,.089-.061.268.268,0,0,0,.057-.091A.312.312,0,0,0,1257.322-413.77Z" transform="translate(-1255.09 415.242)" fill="#fff"/>
      </g>
    </g>
  </g>
</svg>
