<?xml version="1.0" encoding="utf-8"?>
<!-- Generator: Adobe Illustrator 25.2.1, SVG Export Plug-In . SVG Version: 6.00 Build 0)  -->
<svg version="1.1" id="Stripelight-logo" xmlns="http://www.w3.org/2000/svg" xmlns:xlink="http://www.w3.org/1999/xlink" x="0px"
	 y="0px" viewBox="0 0 145.7 31.7" style="enable-background:new 0 0 145.7 31.7;" xml:space="preserve">
<style type="text/css">
	.st0{opacity:0.3;fill:#FFFFFF;enable-background:new    ;}
	.st1{fill:#FFFFFF;}
</style>
<g id="Group_406" transform="translate(-160.896 -622.959)">
	<path id="Path_291" class="st0" d="M186,646c-0.8,0-1.5,0.4-2,0.9l0,0c-0.5,0.6-1.4,0.6-2,0.1c-0.1-0.1-0.1-0.1-0.2-0.3l0,0
		c-1-1.9-3.4-2.6-5.3-1.6c-1.9,1-2.6,3.4-1.6,5.3c1,1.9,3.4,2.6,5.3,1.6c0.6-0.4,1.2-0.8,1.6-1.5l0,0c0.4-0.6,1.3-0.8,1.9-0.4
		c0.1,0.1,0.3,0.2,0.4,0.4l0,0c1,1.1,2.7,1.1,3.7,0.1c1.1-1,1.1-2.7,0.1-3.7C187.4,646.2,186.7,646,186,646L186,646z"/>
	<path id="Path_292" class="st1" d="M175.5,633.7c-1.8-1.1-4.2-0.4-5.3,1.4l0,0l-6.7,11.7c-1.1,1.8-0.4,4.2,1.5,5.2s4.1,0.4,5.2-1.4
		l6.7-11.7C177.9,637.1,177.3,634.7,175.5,633.7L175.5,633.7z"/>
	<g id="Group_404" transform="translate(232.866 630.54)">
		<path id="Path_293" class="st1" d="M-36.7,20V6.1h2V20C-34.7,20-36.7,20-36.7,20z"/>
		<path id="Path_294" class="st1" d="M-32.2,8.7c-0.5-0.5-0.5-1.3,0-1.8c0.5-0.5,1.3-0.5,1.8,0s0.5,1.3,0,1.8l0,0
			C-30.9,9.2-31.7,9.2-32.2,8.7L-32.2,8.7z M-32.3,20v-9.5h2V20H-32.3z"/>
		<path id="Path_295" class="st1" d="M-19.2,14.2V20h-2v-5.6c0-1.4-0.8-2.2-2.1-2.2c-1.5,0-2.4,0.9-2.4,2.8V20h-2v-9.5h2v1.2
			c0.6-1,1.8-1.6,3-1.5C-20.6,10.2-19.2,11.7-19.2,14.2z"/>
		<path id="Path_296" class="st1" d="M-8.6,20H-11l-3.9-4.4V20h-2V6.7h2v8l3.7-4.2h2.5l-4.2,4.7L-8.6,20z"/>
		<path id="Path_297" class="st1" d="M-4.2,14.3c1.5,0.4,3.4,0.9,3.3,3c0,0.8-0.4,1.7-1.1,2.1c-0.8,0.6-1.7,0.8-2.7,0.8
			c-1.9,0-3.2-0.8-3.9-2.3l1.8-1.1c0.4,0.9,1.1,1.3,2.1,1.3S-3,17.8-3,17.1c0-0.6-0.8-1-1.8-1.2c-1.4-0.4-3.3-0.9-3.3-3
			c0-0.8,0.4-1.6,1-2.1c1.8-1.3,4.5-0.9,5.9,0.9c0.1,0.1,0.1,0.1,0.1,0.3l-1.8,1c-0.2-0.6-0.9-1-1.7-0.9c-0.8,0-1.4,0.4-1.4,1
			C-6,13.7-5.2,14-4.2,14.3z"/>
		<path id="Path_298" class="st1" d="M1.6,18.8c-2-2-2-5.2-0.1-7.2c2-2,5.2-2,7.2-0.1c2,2,2,5.2,0.1,7.2c-1,1-2.3,1.6-3.7,1.6
			C3.9,20.3,2.6,19.8,1.6,18.8z M5.2,18.3c0.8,0,1.6-0.3,2.1-0.8c1.1-1.2,1.1-3.1,0-4.3c-1.2-1.1-3-1.1-4.2,0
			c-1.1,1.2-1.1,3.1,0,4.3C3.6,18,4.4,18.3,5.2,18.3L5.2,18.3z"/>
		<path id="Path_299" class="st1" d="M26.1,14.1V20h-2v-5.8c0-1.3-0.7-2-1.8-2c-1.3,0-2,0.8-2,2.5v5.4H18v-5.9c0-1.3-0.6-2-1.8-2
			c-1.3,0-2.1,0.8-2.1,2.5v5.4h-2v-9.6h2v1.1c0.6-0.9,1.6-1.5,2.8-1.4c1.1-0.1,2.2,0.5,2.7,1.5c0.6-1,1.8-1.6,2.9-1.5
			C24.6,10.2,26.1,11.8,26.1,14.1z"/>
		<path id="Path_300" class="st1" d="M31.3,17.8c1.3,0.8,2.6,0.6,3.7-0.6c0.7-0.6,1.1-1.6,0.9-2.5l1.9-0.5c0.4,1.6-0.1,3.1-1.5,4.4
			c-0.9,1-2.3,1.6-3.7,1.6c-2.8-0.1-5-2.3-5.1-5.1c0-1.3,0.6-2.7,1.6-3.6c0.9-0.9,2.2-1.5,3.5-1.4c1.3,0.1,2.5,0.6,3.5,1.6
			c0.2,0.2,0.4,0.4,0.6,0.6L31.3,17.8z M34.1,12.7C33,11.8,31.5,12,30.5,13c-1.1,0.9-1.2,2.5-0.4,3.7L34.1,12.7z"/>
	</g>
	<g id="Group_405" transform="translate(399.502 634.729)">
		<path id="Path_301" class="st1" d="M-126.7,5.7c0-0.2,0.1-0.5,0.1-0.7c0.1-0.2,0.2-0.4,0.4-0.6c0.1-0.1,0.4-0.3,0.6-0.4
			c0.4-0.2,1-0.2,1.4,0c0.2,0.1,0.4,0.2,0.6,0.4c0.1,0.1,0.3,0.4,0.4,0.6c0.1,0.2,0.1,0.5,0.1,0.7s-0.1,0.5-0.1,0.7
			c-0.3,0.6-0.9,1.1-1.7,1.1c-0.2,0-0.5-0.1-0.7-0.1c-0.4-0.2-0.8-0.5-1-1C-126.6,6.2-126.7,5.9-126.7,5.7z M-126.4,5.7
			c0,0.2,0.1,0.4,0.1,0.6c0.1,0.2,0.2,0.4,0.4,0.5c0.6,0.6,1.6,0.6,2.2,0l0,0c0.1-0.1,0.3-0.3,0.4-0.5c0.1-0.2,0.1-0.4,0.1-0.6
			c0-0.2-0.1-0.4-0.1-0.6c-0.1-0.4-0.4-0.6-0.8-0.8c-0.4-0.1-0.8-0.1-1.2,0c-0.4,0.1-0.6,0.4-0.8,0.8
			C-126.3,5.2-126.4,5.5-126.4,5.7L-126.4,5.7z M-124.4,6.7l-0.4-0.8h-0.3v0.8h-0.5v-2h0.9c0.1,0,0.2,0,0.3,0s0.1,0.1,0.3,0.1
			c0.1,0.1,0.1,0.1,0.2,0.2c0.1,0.1,0.1,0.2,0.1,0.3c0,0.1-0.1,0.3-0.1,0.4c-0.1,0.1-0.2,0.1-0.3,0.2l0.6,0.8L-124.4,6.7L-124.4,6.7
			z M-124.8,5.5c0.1,0,0.1,0,0.2-0.1c0.1-0.1,0.1-0.1,0.1-0.2c0-0.1-0.1-0.1-0.1-0.2c-0.1,0-0.1-0.1-0.2-0.1h-0.4v0.5L-124.8,5.5z"
			/>
	</g>
</g>
</svg>
