<?xml version="1.0" encoding="utf-8"?>
<!-- Generator: Adobe Illustrator 26.5.0, SVG Export Plug-In . SVG Version: 6.00 Build 0)  -->
<svg version="1.1" id="Stripelight-logo" xmlns="http://www.w3.org/2000/svg" xmlns:xlink="http://www.w3.org/1999/xlink" x="0px"
	 y="0px" viewBox="0 0 145.7 31.7" style="enable-background:new 0 0 145.7 31.7;" xml:space="preserve">
<style type="text/css">
	.st0{fill:#FFFFFF;}
</style>
<g>
	<g>
		<path class="st0" d="M9.1,14c2.3,0.5,5.2,1.6,5.2,4.9c0,1.6-0.6,2.8-1.8,3.7c-1.2,0.8-2.7,1.3-4.5,1.3c-3.2,0-5.4-1.2-6.5-3.7
			l3.5-2c0.5,1.3,1.5,2,3.1,2c1.4,0,2.1-0.4,2.1-1.3c0-0.8-1.2-1.3-2.8-1.7c-2.3-0.6-5.2-1.6-5.2-4.8c0-1.5,0.6-2.7,1.7-3.6
			C5,7.8,6.4,7.4,8.1,7.4c2.5,0,4.7,1.2,5.9,3.3l-3.4,1.9C10.1,11.5,9.3,11,8.1,11c-1,0-1.8,0.5-1.8,1.3C6.3,13.1,7.5,13.6,9.1,14z"
			/>
		<path class="st0" d="M26.3,11.7h-3.5v6.5c0,1.7,1.2,1.7,3.5,1.6v3.6c-5.5,0.6-7.5-1-7.5-5.2v-6.5H16V7.8h2.7V4.7l4-1.2v4.4h3.5
			V11.7z"/>
		<path class="st0" d="M41.5,7.8h4v15.6h-4v-1.8c-1.2,1.5-2.9,2.3-5.1,2.3c-2.1,0-3.9-0.8-5.4-2.4c-1.5-1.6-2.2-3.5-2.2-5.9
			s0.7-4.2,2.2-5.8c1.5-1.6,3.3-2.4,5.4-2.4c2.2,0,3.9,0.7,5.1,2.3V7.8z M37.2,20c1.2,0,2.3-0.4,3.1-1.2c0.8-0.8,1.2-1.9,1.2-3.2
			c0-1.3-0.4-2.3-1.2-3.1c-0.8-0.8-1.8-1.2-3.1-1.2c-1.2,0-2.3,0.4-3.1,1.2c-0.8,0.8-1.2,1.9-1.2,3.1c0,1.3,0.4,2.3,1.2,3.2
			C34.9,19.6,35.9,20,37.2,20z"/>
		<path class="st0" d="M72.6,13.8v9.6h-4v-9.3c0-1.9-1-3-2.6-3c-1.8,0-2.9,1.2-2.9,3.5v8.7h-4v-9.3c0-1.9-1-3-2.6-3
			c-1.8,0-2.9,1.2-2.9,3.5v8.7h-4V7.8h4v1.6c0.9-1.4,2.4-2.1,4.3-2.1c1.9,0,3.3,0.7,4.2,2.2c1-1.5,2.6-2.2,4.6-2.2
			C70.3,7.4,72.6,9.9,72.6,13.8z"/>
	</g>
	<g>
		<path class="st0" d="M42.4,30.5l-0.9-3.3h0.7l0.6,2.5l0.7-2.5h0.6l0.7,2.5l0.6-2.5h0.6l-0.9,3.3h-0.7l-0.6-2.2l-0.6,2.2H42.4z"/>
		<path class="st0" d="M47.9,29.9h1.4v0.6h-2.1v-3.3h2v0.6h-1.4v0.7h1.3v0.6h-1.3V29.9z"/>
		<path class="st0" d="M53,29.9h1.4v0.6h-2.2V30l1.4-2.2h-1.4v-0.6h2.2v0.5L53,29.9z"/>
		<path class="st0" d="M55.6,27.2h0.7v3.3h-0.7V27.2z"/>
		<path class="st0" d="M58.5,30.6c-0.5,0-0.9-0.2-1.1-0.6l0.6-0.3c0.1,0.2,0.3,0.3,0.5,0.3c0.2,0,0.3,0,0.4-0.1
			c0.1-0.1,0.1-0.2,0.1-0.3v-2.3h0.7v2.3c0,0.3-0.1,0.6-0.3,0.8C59.1,30.5,58.8,30.6,58.5,30.6z"/>
		<path class="st0" d="M62.9,27.2h0.7v3.3h-0.5l-1.4-2v2H61v-3.3h0.5l1.4,2V27.2z"/>
		<path class="st0" d="M67.5,29.9h1.4v0.6h-2.1v-3.3h2v0.6h-1.4v0.7h1.3v0.6h-1.3V29.9z"/>
		<path class="st0" d="M71.9,30.5l-0.7-1.2h-0.5v1.2H70v-3.3h1.3c0.3,0,0.6,0.1,0.8,0.3c0.2,0.2,0.3,0.5,0.3,0.8
			c0,0.2-0.1,0.4-0.2,0.6c-0.1,0.2-0.3,0.3-0.5,0.4l0.7,1.3H71.9z M70.7,27.8v1h0.7c0.1,0,0.2,0,0.3-0.1c0.1-0.1,0.1-0.2,0.1-0.3
			c0-0.1,0-0.3-0.1-0.3c-0.1-0.1-0.2-0.1-0.3-0.1H70.7z"/>
	</g>
</g>
</svg>
