<?xml version="1.0" encoding="utf-8"?>
<!-- Generator: Adobe Illustrator 25.2.1, SVG Export Plug-In . SVG Version: 6.00 Build 0)  -->
<svg version="1.1" id="Stripelight-logo" xmlns="http://www.w3.org/2000/svg" xmlns:xlink="http://www.w3.org/1999/xlink" x="0px"
	 y="0px" viewBox="0 0 145.7 31.7" style="enable-background:new 0 0 145.7 31.7;" xml:space="preserve">
<style type="text/css">
	.st0{clip-path:url(#SVGID_2_);}
	.st1{fill:#FFFFFF;}
</style>
<g id="Group_486" transform="translate(0 0)">
	<g>
		<g>
			<defs>
				<rect id="SVGID_1_" x="1.7" y="2.1" width="92.1" height="27.6"/>
			</defs>
			<clipPath id="SVGID_2_">
				<use xlink:href="#SVGID_1_"  style="overflow:visible;"/>
			</clipPath>
			<g id="Group_485" class="st0">
				<path id="Path_12" class="st1" d="M11.3,7.3L14.7,4c0,0,0.4-0.5,0.8-0.5s0.6,0.2,0.8,0.4c0.2,0.2,3.5,3.5,3.5,3.5h1.9l-4.5-4.5
					c0,0-0.4-0.5-0.8-0.6c-0.3-0.1-0.5-0.2-0.8-0.2S15,2.2,14.8,2.3S14.3,2.5,14,2.8c-0.3,0.3-4.5,4.5-4.5,4.5L11.3,7.3L11.3,7.3z"
					/>
				<path id="Path_13" class="st1" d="M16.2,24c0.1,0.1,0,0.2-0.1,0.3h-0.1c-0.4,0.1-1.1,0.1-1.8-0.2c-0.6-0.2-1.1-0.6-1.5-1.2
					c-0.6-0.9-1.6-2.7-1.4-2.4c0.2,0.3-5.8-10-7-12c-0.1-0.1,0-0.2,0.1-0.3c0.1,0,0.1,0,0.1,0h6c0.1,0,0.1,0.1,0.2,0.1l7.1,11.9
					c0.1,0.1,0.2,0.1,0.3,0.1c0.1,0,0.1-0.1,0.1-0.1l6-10.3c0.1-0.1,0-0.2-0.1-0.3c-0.1,0-0.1,0-0.1,0h-2.7c-0.1,0-0.1,0.1-0.2,0.1
					l-3.5,5.9c-0.1,0.1-0.2,0.1-0.3,0.1c-0.1,0-0.1-0.1-0.1-0.1l-0.6-1.1c-0.1-0.1-0.1-0.2,0-0.2l3.6-6.1c0.1-0.1,0.1-0.1,0.2-0.1h6
					c0.1,0,0.2,0.1,0.2,0.2c0,0.1,0,0.1,0,0.1c-1,1.7-5.5,9.4-7.3,12.6c-0.4,0.8-0.6,1.1-0.8,1.4c-0.1,0.2-0.3,0.4-0.4,0.5
					c-0.1,0.1-0.2,0.1-0.3,0.1L17.7,23L10,9.9C9.9,9.8,9.8,9.7,9.8,9.7H7.1C7,9.7,6.9,9.9,6.9,10c0,0.1,0,0.1,0,0.1l5.4,9.3
					c0,0,1.2,2.2,1.5,2.7c0.2,0.3,0.5,0.5,0.8,0.7c0.2,0.2,0.5,0.2,0.8,0.2c0.1,0,0.1,0.1,0.2,0.1L16.2,24z"/>
				<path id="Path_14" class="st1" d="M33.6,16.4l-4.3-8H32l3.1,6l3.2-6h2.7l-4.4,8H33.6z"/>
				<rect id="Rectangle_207" x="42.3" y="8.4" class="st1" width="2.4" height="8"/>
				<path id="Path_15" class="st1" d="M46.6,13.8H49c0,0.2,0,0.3,0.1,0.5c0.1,0.2,0.2,0.3,0.4,0.3c0.2,0.1,0.4,0.1,0.6,0.1H51
					c0.1,0,0.7,0,1.8,0c0.4,0,0.7-0.1,0.9-0.1c0.3-0.1,0.5-0.3,0.5-0.6c0-0.4-0.2-0.6-0.7-0.7c-0.1,0-0.5,0-1.2,0H50
					c-1.1,0-1.8-0.1-2.2-0.2c-0.5-0.2-0.8-0.4-1-0.8c-0.2-0.3-0.2-0.8-0.2-1.4c0-0.9,0.2-1.5,0.6-1.9c0.4-0.3,1-0.5,2-0.6
					c0.4-0.1,1.2-0.1,2.3-0.1c1.7,0,2.7,0.1,3.1,0.1c0.6,0.1,0.9,0.4,1.2,0.7c0.2,0.3,0.3,0.8,0.3,1.4v0.3h-2.4
					c0-0.4-0.2-0.6-0.6-0.8c-0.1,0-0.5,0-1.2,0c-0.9,0-1.7,0-2.2,0.1c-0.3,0-0.5,0.1-0.6,0.1c-0.2,0.1-0.2,0.3-0.2,0.5
					c0,0.4,0.2,0.5,0.5,0.6c0.1,0.1,0.5,0.1,1,0.1h2.2c0.2,0,0.5,0,1.2,0.1c0.8,0,1.3,0.1,1.6,0.2c0.7,0.3,1.1,1,1.1,2.2
					c0,1.1-0.3,1.8-0.9,2.1c-0.5,0.3-1.9,0.5-4.3,0.5c-1.7,0-2.9-0.1-3.4-0.2c-0.5-0.1-0.9-0.4-1.1-0.7c-0.2-0.3-0.3-0.8-0.3-1.3
					C46.6,14.2,46.6,14.1,46.6,13.8"/>
				<path id="Path_16" class="st1" d="M66,13.3h2.4v0.4c0,0.8-0.1,1.3-0.2,1.7c-0.2,0.5-0.6,0.8-1.3,0.9c-0.5,0.1-0.9,0.1-1.4,0.1
					c-0.4,0-1.3,0-2.5,0c-0.8,0-1.6,0-2.4-0.1c-1.1-0.1-1.7-0.6-1.9-1.4c-0.2-0.5-0.3-1.5-0.3-2.7c0-1,0.1-1.7,0.2-2.1
					c0.2-0.7,0.7-1.2,1.4-1.5c0.5-0.2,1.7-0.3,3.3-0.3c2.1,0,3.4,0.1,3.8,0.2c0.5,0.2,0.9,0.5,1.1,0.9c0.2,0.4,0.2,0.8,0.2,1.5v0.3
					H66c0-0.2-0.1-0.4-0.1-0.5c-0.1-0.2-0.5-0.4-1.1-0.4c-0.1,0-0.4,0-1.2,0c-1.2,0-1.8,0-2.1,0.1c-0.5,0.1-0.9,0.5-0.9,1.1
					c0,0.2,0,0.6,0,1.1c0,0.9,0.1,1.4,0.4,1.7c0.2,0.2,0.5,0.3,1.1,0.4c0.2,0,0.5,0,1.1,0c1.4,0,2.2-0.1,2.4-0.2
					C65.9,14.2,66,13.9,66,13.3"/>
				<path id="Path_17" class="st1" d="M75.5,10.3c-1.3,0-2.1,0.1-2.4,0.2c-0.3,0.1-0.5,0.4-0.5,0.8c-0.1,0.4-0.1,0.7-0.1,1.1
					c0,0.6,0.1,1.1,0.1,1.4c0.1,0.4,0.5,0.6,1.2,0.7c0.4,0,0.8,0.1,1.4,0.1c1.4,0,2.3-0.1,2.7-0.2c0.4-0.1,0.6-0.4,0.6-0.9
					c0.1-0.2,0.1-0.6,0.1-1.2c0-0.3,0-0.6-0.1-0.9c-0.1-0.5-0.2-0.8-0.5-0.9c-0.2-0.1-0.5-0.1-1.1-0.2
					C76.7,10.3,76.3,10.3,75.5,10.3 M75.2,8.3c2,0,3.2,0.1,3.7,0.1c1,0.2,1.7,0.7,1.9,1.6c0.1,0.4,0.2,0.8,0.2,1.3
					c0,0.3,0,0.7,0,1.1c0,1-0.1,1.7-0.2,2.2c-0.3,1.1-1.1,1.6-2.4,1.7c-0.6,0.1-1.5,0.1-2.9,0.1c-1.2,0-1.8,0-2.1,0
					c-0.9-0.1-1.7-0.2-2.1-0.4c-0.6-0.3-0.9-0.8-1.1-1.7c-0.1-0.4-0.1-1-0.1-2c0-0.6,0-1.1,0-1.3c0-0.4,0.1-0.8,0.2-1.2
					c0.3-0.8,1.1-1.3,2.3-1.4C73.3,8.3,74.1,8.3,75.2,8.3"/>
				<path id="Path_18" class="st1" d="M91.5,8.4l0.1,6.1l-4.8-6.1h-3.8v8h2.4l-0.1-6l4.8,6h3.9v-8H91.5z"/>
				<path id="Path_19" class="st1" d="M63.1,20.8h-1.5c0-0.4-0.2-0.5-0.6-0.5H60c-0.2,0-0.4,0-0.6,0h-0.5c-0.3,0-0.5,0.1-0.6,0.1
					c-0.2,0.1-0.2,0.3-0.2,0.5c0,0.2,0,0.5,0,0.8c0,0.5,0.1,0.8,0.1,0.9c0.1,0.2,0.4,0.4,0.9,0.4c0.1,0,0.5,0,1.2,0
					c0.4,0,0.6,0,0.8,0c0.2,0,0.4-0.1,0.5-0.2c0.1-0.1,0.1-0.2,0.1-0.4c0-0.1,0-0.1,0-0.2h-1.9v-0.9h3.4v0.7c0,0.4,0,0.8-0.1,1.2
					c-0.1,0.6-0.6,0.9-1.4,0.9c-0.2,0-0.8,0-1.9,0c-0.7,0-1.2,0-1.5-0.1c-0.8-0.1-1.2-0.4-1.4-0.9c-0.1-0.3-0.2-0.8-0.2-1.5
					c0-0.8,0.1-1.4,0.2-1.7c0.2-0.4,0.5-0.6,0.9-0.8c0.4-0.1,1.1-0.1,2.3-0.1c0.9,0,1.5,0,1.8,0.1c0.7,0.1,1.1,0.4,1.3,0.9
					C63.1,20.3,63.1,20.5,63.1,20.8"/>
				<path id="Path_20" class="st1" d="M65.9,21.7h2.4c0.3,0,0.5,0,0.6-0.1c0.2-0.1,0.2-0.2,0.2-0.5s-0.1-0.5-0.2-0.6
					c-0.1-0.1-0.3-0.1-0.6-0.1h-2.5V21.7z M64.3,24.2v-5.1h4.4c0.5,0,0.9,0,1.1,0.1c0.4,0.1,0.6,0.3,0.8,0.6
					c0.1,0.3,0.1,0.6,0.1,0.9c0,0.6-0.1,1-0.4,1.2c-0.2,0.1-0.5,0.2-1,0.3c0.1,0,0.1,0,0.2,0c0.4,0,0.6,0.1,0.7,0.1
					c0.2,0.2,0.4,0.5,0.4,0.9v0.8h-1.5v-0.6c0-0.4-0.1-0.6-0.4-0.6c-0.1,0-0.3,0-0.5,0h-2.4v1.3L64.3,24.2z"/>
				<path id="Path_21" class="st1" d="M75.3,20.3c-0.8,0-1.3,0.1-1.5,0.1c-0.2,0.1-0.3,0.2-0.4,0.5c0,0.2-0.1,0.5-0.1,0.6
					c0,0.4,0,0.7,0.1,0.9c0.1,0.3,0.3,0.4,0.7,0.5c0.2,0,0.5,0,0.9,0c0.9,0,1.5-0.1,1.7-0.1c0.2-0.1,0.4-0.2,0.4-0.5
					c0.1-0.2,0.1-0.5,0.1-0.8c0-0.2,0-0.4,0-0.6c-0.1-0.3-0.2-0.5-0.4-0.6c-0.1-0.1-0.4-0.1-0.7-0.1C76,20.3,75.8,20.3,75.3,20.3
					 M75.1,19.1c1.3,0,2.1,0,2.4,0.1c0.6,0.1,1.1,0.5,1.2,1c0.1,0.2,0.1,0.5,0.1,0.8c0,0.2,0,0.4,0,0.7c0,0.6-0.1,1.1-0.1,1.4
					c-0.2,0.6-0.7,1-1.5,1.1c-0.4,0-1,0.1-1.8,0.1c-0.7,0-1.2,0-1.4,0c-0.6,0-1.1-0.1-1.3-0.2c-0.4-0.2-0.6-0.5-0.7-1.1
					c-0.1-0.2-0.1-0.6-0.1-1.3c0-0.4,0-0.7,0-0.8c0-0.3,0.1-0.5,0.2-0.8c0.2-0.5,0.7-0.8,1.5-0.9C73.8,19.1,74.4,19.1,75.1,19.1"/>
				<path id="Path_22" class="st1" d="M79.9,19.1h1.5v2.7c0,0.2,0,0.4,0.1,0.6c0.1,0.3,0.3,0.5,0.7,0.5c0.3,0,0.5,0.1,0.8,0.1
					c0.5,0,0.9,0,1.2,0c0.4,0,0.5-0.2,0.6-0.4c0.1-0.2,0.1-0.5,0.1-0.7v-2.8h1.5v2.7c0,0.6,0,1.1-0.1,1.3c-0.1,0.5-0.5,0.8-1,1
					c-0.4,0.1-0.7,0.2-1.1,0.2c0.2,0-0.2,0-1.1,0c-0.8,0-1.3,0-1.7-0.1c-0.8-0.1-1.3-0.5-1.5-1.1c-0.1-0.4-0.1-0.8-0.1-1.2
					L79.9,19.1z"/>
				<path id="Path_23" class="st1" d="M89.3,21.7h2.2c0.3,0,0.5-0.1,0.6-0.1c0.2-0.1,0.2-0.2,0.2-0.5s-0.1-0.5-0.2-0.6
					c-0.1-0.1-0.3-0.1-0.6-0.1h-2.2L89.3,21.7L89.3,21.7z M87.7,24.2v-5.1h3.9c0.4,0,0.7,0,0.8,0c0.2,0,0.5,0.1,0.8,0.2
					c0.3,0.1,0.5,0.4,0.6,0.7c0.1,0.3,0.1,0.6,0.1,0.9c0,0.9-0.2,1.5-0.6,1.7c-0.2,0.1-0.5,0.2-0.7,0.2c-0.3,0-0.5,0.1-0.8,0.1h-2.5
					v1.2H87.7z"/>
				<path id="Path_24" class="st1" d="M25.2,12.8l2.4,2.4c0.1,0.1,0.2,0.3,0.4,0.4c0.1,0.1,0.1,0.2,0.1,0.3c0,0.2-0.1,0.4-0.2,0.5
					c-0.1,0.2-11.5,11.5-11.5,11.5c-0.1,0.1-0.2,0.2-0.4,0.3c-0.2,0.2-0.6,0.2-0.8,0c-0.1-0.1-0.2-0.2-0.4-0.3L3.5,16.7l-0.2-0.1
					c-0.1-0.1-0.1-0.1-0.2-0.2C3,16.2,3,16.1,3,16.1c0-0.1,0-0.2,0-0.3c0.1-0.1,0.1-0.2,0.2-0.4c0.1-0.1,2.5-2.5,2.5-2.5l-0.6-1.2
					l-2.8,2.8c-0.2,0.2-0.4,0.4-0.4,0.6c-0.3,0.6-0.2,1.3,0.1,1.8c0.1,0.2,0.2,0.3,0.3,0.5C2.3,17.4,14,29.1,14,29.1
					c0.2,0.2,0.4,0.3,0.5,0.4c0.3,0.1,0.5,0.2,0.9,0.2c0.3,0,0.6-0.1,0.9-0.2c0.4-0.2,0.8-0.6,0.8-0.6l11.5-11.6
					c0.2-0.2,0.3-0.4,0.4-0.6c0.1-0.2,0.1-0.4,0.2-0.6c0-0.2,0-0.5-0.1-0.8s-0.2-0.4-0.3-0.6c-0.1-0.1-0.3-0.3-0.4-0.4
					c-0.1-0.1-2.8-2.8-2.8-2.8L25.2,12.8z"/>
			</g>
		</g>
	</g>
</g>
</svg>
