<?xml version="1.0" encoding="utf-8"?>
<!-- Generator: Adobe Illustrator 27.0.0, SVG Export Plug-In . SVG Version: 6.00 Build 0)  -->
<svg version="1.1" id="Stripelight-logo" xmlns="http://www.w3.org/2000/svg" xmlns:xlink="http://www.w3.org/1999/xlink" x="0px"
	 y="0px" viewBox="0 0 145.7 31.7" style="enable-background:new 0 0 145.7 31.7;" xml:space="preserve">
<style type="text/css">
	.st0{fill:#FFFFFF;}
	.st1{fill:#F79420;}
</style>
<g>
	<path id="XMLID_846_" class="st0" d="M37.5,21.8c0.2,0,0.4,0.1,0.5,0.2c0.1,0.1,0.2,0.3,0.2,0.5v2.8c0,0.2-0.1,0.4-0.2,0.5
		C37.8,26,37.7,26,37.5,26H24.9c-0.2,0-0.4-0.1-0.5-0.2c-0.1-0.1-0.2-0.3-0.2-0.5V8.2c0-0.2,0.1-0.4,0.2-0.5
		c0.1-0.1,0.3-0.2,0.5-0.2h12.4c0.2,0,0.4,0.1,0.5,0.2C37.9,7.8,38,8,38,8.2V11c0,0.2-0.1,0.4-0.2,0.5c-0.1,0.1-0.3,0.2-0.5,0.2
		h-8.2v2.9h7.6c0.2,0,0.4,0.1,0.5,0.2c0.1,0.1,0.2,0.3,0.2,0.5v2.8c0,0.2-0.1,0.4-0.2,0.5c-0.1,0.1-0.3,0.2-0.5,0.2h-7.6v3H37.5z"/>
	<path id="XMLID_844_" class="st0" d="M54.5,7.5c0.2,0,0.4,0.1,0.5,0.2c0.1,0.1,0.2,0.3,0.2,0.5V11c0,0.2-0.1,0.4-0.2,0.5
		c-0.1,0.1-0.3,0.2-0.5,0.2h-4.7v13.6c0,0.2-0.1,0.4-0.2,0.5C49.4,26,49.3,26,49.1,26h-3.5c-0.2,0-0.4-0.1-0.5-0.2
		c-0.1-0.1-0.2-0.3-0.2-0.5V11.7h-4.7c-0.2,0-0.4-0.1-0.5-0.2c-0.1-0.1-0.2-0.3-0.2-0.5V8.2c0-0.2,0.1-0.4,0.2-0.5
		c0.1-0.1,0.3-0.2,0.5-0.2H54.5z"/>
	<path id="XMLID_841_" class="st0" d="M65.1,7.5c0.4,0,0.6,0.1,0.8,0.3c0.2,0.2,0.3,0.4,0.4,0.6l5.8,16.7c0.1,0.2,0.1,0.3,0.1,0.4
		c0,0.2-0.1,0.3-0.2,0.4C71.9,26,71.7,26,71.6,26h-3.3c-0.4,0-0.6-0.1-0.8-0.2c-0.2-0.2-0.2-0.3-0.3-0.4l-0.7-2.2h-7.1l-0.7,2.2
		c0,0.1-0.1,0.3-0.3,0.4C58.2,26,58,26,57.6,26h-3.3c-0.2,0-0.3-0.1-0.4-0.2c-0.1-0.1-0.2-0.3-0.2-0.4c0-0.1,0-0.2,0.1-0.4l5.8-16.7
		C59.7,8.1,59.8,8,60,7.8c0.2-0.2,0.5-0.3,0.8-0.3H65.1z M60.8,19.1h4.3l-2.2-6.4L60.8,19.1z"/>
	<path id="XMLID_839_" class="st0" d="M86.9,21.8c0.2,0,0.4,0.1,0.5,0.2c0.1,0.1,0.2,0.3,0.2,0.5v2.8c0,0.2-0.1,0.4-0.2,0.5
		C87.2,26,87.1,26,86.9,26H74.6c-0.2,0-0.4-0.1-0.5-0.2c-0.1-0.1-0.2-0.3-0.2-0.5V8.2c0-0.2,0.1-0.4,0.2-0.5
		c0.1-0.1,0.3-0.2,0.5-0.2h3.5c0.2,0,0.4,0.1,0.5,0.2c0.1,0.1,0.2,0.3,0.2,0.5v13.6H86.9z"/>
	<path id="XMLID_836_" class="st0" d="M102.3,21.8c0.2,0,0.4,0.1,0.5,0.2c0.1,0.1,0.2,0.3,0.2,0.5v2.8c0,0.2-0.1,0.4-0.2,0.5
		c-0.1,0.1-0.3,0.2-0.5,0.2H89.7c-0.2,0-0.4-0.1-0.5-0.2C89,25.7,89,25.5,89,25.3V8.2C89,8,89,7.8,89.2,7.7c0.1-0.1,0.3-0.2,0.5-0.2
		h12.4c0.2,0,0.4,0.1,0.5,0.2c0.1,0.1,0.2,0.3,0.2,0.5V11c0,0.2-0.1,0.4-0.2,0.5c-0.1,0.1-0.3,0.2-0.5,0.2h-8.2v2.9h7.6
		c0.2,0,0.4,0.1,0.5,0.2c0.1,0.1,0.2,0.3,0.2,0.5v2.8c0,0.2-0.1,0.4-0.2,0.5c-0.1,0.1-0.3,0.2-0.5,0.2h-7.6v3H102.3z"/>
	<path id="XMLID_834_" class="st0" d="M117.2,26c-0.3,0-0.5-0.1-0.7-0.2c-0.2-0.2-0.3-0.3-0.4-0.4l-6.1-9.1v9c0,0.2-0.1,0.4-0.2,0.5
		c-0.1,0.1-0.3,0.2-0.5,0.2h-3.5c-0.2,0-0.4-0.1-0.5-0.2c-0.1-0.1-0.2-0.3-0.2-0.5V8.2c0-0.2,0.1-0.4,0.2-0.5
		c0.1-0.1,0.3-0.2,0.5-0.2h2.8c0.3,0,0.5,0.1,0.7,0.2s0.3,0.3,0.4,0.4l6.1,9.1v-9c0-0.2,0.1-0.4,0.2-0.5c0.1-0.1,0.3-0.2,0.5-0.2
		h3.5c0.2,0,0.4,0.1,0.5,0.2c0.1,0.1,0.2,0.3,0.2,0.5v17.2c0,0.2-0.1,0.4-0.2,0.5c-0.1,0.1-0.3,0.2-0.5,0.2H117.2z"/>
	<path id="XMLID_831_" class="st0" d="M137.2,7.5c0.2,0,0.4,0.1,0.5,0.2c0.1,0.1,0.2,0.3,0.2,0.5V11c0,0.2-0.1,0.4-0.2,0.5
		c-0.1,0.1-0.3,0.2-0.5,0.2h-4.7v13.6c0,0.2-0.1,0.4-0.2,0.5c-0.1,0.1-0.3,0.2-0.5,0.2h-3.5c-0.2,0-0.4-0.1-0.5-0.2
		c-0.1-0.1-0.2-0.3-0.2-0.5V11.7h-4.7c-0.2,0-0.4-0.1-0.5-0.2c-0.1-0.1-0.2-0.3-0.2-0.5V8.2c0-0.2,0.1-0.4,0.2-0.5
		c0.1-0.1,0.3-0.2,0.5-0.2H137.2z"/>
	<path id="XMLID_823_" class="st0" d="M22.3,14.9c-0.1-1.1-0.3-2.1-0.7-3c-0.4-0.9-1-1.7-1.7-2.3c-0.7-0.7-1.6-1.2-2.6-1.5
		c-0.6-0.2-1.2-0.3-1.8-0.4c-0.4,0-0.7,0.2-0.7,0.6v0V11v0.8c1.7,0.3,2.6,1.2,2.7,3c0,0.4,0,0.7,0,1c0,0.3,0,0.6,0,0.9
		c0,0.3,0,0.6,0,1c0,0.3,0,0.7,0,1c-0.1,2-1.2,3.1-3.5,3.1h-2.8h-0.6H9.3H4.4v3.5c0,0.2,0.1,0.4,0.2,0.5C4.8,26,4.9,26,5.1,26h1.7
		h1.7H14c1.2,0,2.3-0.2,3.3-0.5c1-0.4,1.8-0.9,2.6-1.5c0.7-0.7,1.3-1.4,1.7-2.3c0.4-0.9,0.6-1.9,0.7-3c0-0.4,0-0.7,0-1
		c0-0.3,0-0.6,0-0.9c0-0.3,0-0.6,0-0.9C22.3,15.6,22.3,15.2,22.3,14.9z"/>
	<path class="st1" d="M12.7,7.7c-0.1-0.1-0.3-0.2-0.4-0.2c-0.1,0-0.1,0-0.2,0H6.9H5H1.5C1.4,7.5,1.2,7.5,1,7.7
		C0.9,7.8,0.8,8,0.8,8.2V11c0,0.2,0.1,0.4,0.2,0.5c0.1,0.1,0.3,0.2,0.5,0.2h2.8h0.1v0.1v4.4v3.4c0,0.2,0.1,0.4,0.2,0.5
		c0.1,0.1,0.3,0.2,0.5,0.2h3.5c0.2,0,0.4-0.1,0.5-0.2c0.1-0.1,0.2-0.3,0.2-0.5v-3.4v-4.4v-0.1h1.7H12h0.1h0.1c0.2,0,0.4-0.1,0.5-0.2
		c0.1-0.1,0.2-0.3,0.2-0.5V8.2C12.9,8,12.8,7.8,12.7,7.7z"/>
</g>
</svg>
