<?xml version="1.0" encoding="utf-8"?>
<!-- Generator: Adobe Illustrator 24.0.2, SVG Export Plug-In . SVG Version: 6.00 Build 0)  -->
<svg version="1.1" id="Stripelight-logo" xmlns="http://www.w3.org/2000/svg" xmlns:xlink="http://www.w3.org/1999/xlink" x="0px"
	 y="0px" viewBox="0 0 111.9 31.7" style="enable-background:new 0 0 111.9 31.7;" xml:space="preserve">
<style type="text/css">
	.st0{fill:#FFFFFF;}
</style>
<g>
	<path class="st0" d="M15.7,10.9L11,19.1h2.6l0.6-1.2h2.7l0.1,1.2h2.5l-1.3-8.2H15.7z M15.1,16.1l1.3-2.5h0l0.3,2.5H15.1z"/>
	<path class="st0" d="M32.1,11.3h-2.3l-0.4,1.8h-1l-0.3,1.1L15.6,1.7L1.4,15.9l14.2,14.2l12.9-12.9c0,0.1-0.1,0.3-0.1,0.5
		c0,0.4,0.2,0.9,0.6,1.1c0.4,0.2,1,0.2,1.4,0.2c0.4,0,0.8-0.1,1.2-0.1l0.3-1.6c-0.2,0-0.4,0-0.7,0c-0.4,0-0.5-0.2-0.5-0.4
		c0-0.2,0.1-0.4,0.1-0.6l0.4-1.9h1.2l0.3-1.4h-1.2L32.1,11.3z M15.6,29.6L2,15.9L15.6,2.3l10.9,10.9c-0.3-0.2-0.8-0.3-1.2-0.3
		c-0.7,0-1.4,0.4-1.8,0.9h0l0.2-0.8h-2.2l-1.2,6h2.3l0.7-3.2c0.1-0.6,0.4-1.1,1.1-1.1c0.4,0,0.6,0.2,0.6,0.6c0,0.2-0.1,0.6-0.2,1
		l-0.6,2.7h2L15.6,29.6z M28.7,16.5l-2.2,2.2l0.7-3c0.1-0.4,0.2-0.9,0.2-1.1c0-0.3-0.1-0.6-0.2-0.8l1.8,1.8L28.7,16.5z"/>
	<path class="st0" d="M36.7,12.9c-2.4,0-3.7,1.6-3.7,3.5c0,2,1.3,2.8,3,2.8c2.7,0,3.6-2.1,3.6-3.7C39.6,13.8,38.4,12.9,36.7,12.9z
		 M36.1,17.6c-0.6,0-0.8-0.5-0.8-1c0-0.6,0.3-2,1.2-2c0.6,0,0.8,0.4,0.8,1.1C37.3,16.2,37,17.6,36.1,17.6z"/>
	<path class="st0" d="M45.3,12.9c-0.7,0-1.4,0.4-1.8,0.9h0l0.2-0.8h-2.2l-1.2,6h2.3l0.7-3.2c0.1-0.6,0.4-1.1,1.1-1.1
		c0.4,0,0.6,0.2,0.6,0.6c0,0.2-0.1,0.6-0.2,1L44,19.1h2.3l0.7-3.4c0.1-0.4,0.2-0.9,0.2-1.1C47.2,13.4,46.3,12.9,45.3,12.9z"/>
	<polygon class="st0" points="49.5,10.9 49.2,12.5 51.5,12.5 51.8,10.9 	"/>
	<polygon class="st0" points="47.8,19.1 50.1,19.1 51.3,13.1 49.1,13.1 	"/>
	<path class="st0" d="M55.1,12.9c-1.4,0-3,0.5-3,2.2c0,1.3,1.2,1.5,1.6,1.5c0.8,0.1,1.4,0.2,1.4,0.6c0,0.1-0.1,0.5-0.7,0.5
		c-0.3,0-0.5,0-0.6-0.1c-0.1-0.1-0.2-0.3-0.2-0.6h-2.1c0,1.8,1.6,2.1,2.8,2.1c1.8,0,3-0.8,3-2.2c0-1.3-0.8-1.6-2.5-1.8
		c-0.3,0-0.5-0.1-0.5-0.4c0-0.4,0.3-0.5,0.6-0.5c0.2,0,0.4,0,0.5,0.1c0.1,0.1,0.2,0.2,0.2,0.5h2C57.9,13.2,56.4,12.9,55.1,12.9z"/>
	<path class="st0" d="M62,12.9c-1.5,0-3.6,0.9-3.6,3.6c0,1.4,0.8,2.6,3,2.6c2.6,0,3-1.5,3.2-1.9h-2.2c-0.1,0.2-0.4,0.4-0.9,0.4
		c-0.7,0-0.9-0.5-0.9-1.2h4.2c0.1-0.4,0.1-0.7,0.1-1C65,13.7,63.4,12.9,62,12.9z M62.8,15.4h-2c0.2-0.6,0.6-1,1.2-1
		c0.6,0,0.9,0.4,0.9,0.8C62.8,15.3,62.8,15.3,62.8,15.4z"/>
	<path class="st0" d="M70.7,12.9c-0.7,0-1.4,0.4-1.8,0.9h0l0.2-0.8h-2.2l-1.2,6h2.3l0.7-3.2c0.1-0.6,0.4-1.1,1.1-1.1
		c0.4,0,0.6,0.2,0.6,0.6c0,0.2-0.1,0.6-0.2,1l-0.6,2.7h2.3l0.7-3.4c0.1-0.4,0.2-0.9,0.2-1.1C72.6,13.4,71.8,12.9,70.7,12.9z"/>
	<path class="st0" d="M14.7,23.4L14.7,23.4l-0.1,0.4h0.6v2.3h0.7v-3.2h-0.5C15.4,23.3,15.1,23.4,14.7,23.4z"/>
</g>
</svg>
