<?xml version="1.0" encoding="utf-8"?>
<!-- Generator: Adobe Illustrator 24.0.2, SVG Export Plug-In . SVG Version: 6.00 Build 0)  -->
<svg version="1.1" id="Stripelight-logo" xmlns="http://www.w3.org/2000/svg" xmlns:xlink="http://www.w3.org/1999/xlink" x="0px"
	 y="0px" viewBox="0 0 119.5 31.7" style="enable-background:new 0 0 119.5 31.7;" xml:space="preserve">
<style type="text/css">
	.st0{fill-rule:evenodd;clip-rule:evenodd;fill:#FFFFFF;}
	.st1{fill:#FFFFFF;}
</style>
<polygon class="st0" points="18.5,16.1 37.2,4.5 53.4,16.2 75,16.2 60.7,5.7 56.9,5.2 56.6,1.5 54.2,1.3 54.1,12.1 48.5,8.2 
	48.5,4.3 37.4,2.4 16.3,16.1 "/>
<g>
	<path class="st1" d="M0.6,24.5L0.6,24.5c0-3.4,2.5-6,6-6c2.1,0,3.5,0.7,4.5,1.7l-1.6,1.9c-0.9-0.7-1.7-1.2-3-1.2
		c-2,0-3.4,1.6-3.4,3.6l0,0c0,2,1.4,3.6,3.4,3.6c1.4,0,2.1-0.5,3-1.4l1.6,1.6c-1.2,1.2-2.5,2-4.7,2C3.1,30.4,0.6,27.8,0.6,24.5z"/>
	<path class="st1" d="M12.2,28.5l1.5-1.7c1,0.9,2.1,1.4,3.5,1.4c1,0,1.6-0.4,1.6-1.1l0,0c0-0.6-0.4-1-2.4-1.5
		c-2.4-0.6-3.9-1.2-3.9-3.5l0,0c0-2.1,1.6-3.5,4-3.5c1.6,0,3.1,0.5,4.2,1.5l-1.4,1.9c-1-0.7-2-1.1-3-1.1c-1,0-1.5,0.5-1.5,1l0,0
		c0,0.7,0.5,1,2.5,1.5c2.4,0.6,3.6,1.5,3.6,3.5l0,0c0,2.2-1.7,3.6-4.2,3.6C15.4,30.4,13.5,29.8,12.2,28.5z"/>
	<path class="st1" d="M22.3,21.4h2.5l1.4,5.4l1.6-5.4h2.1l1.6,5.4l1.5-5.4h2.5l-2.6,8.8h-2.2l-1.7-5.4l-1.7,5.4h-2.2L22.3,21.4z"/>
	<path class="st1" d="M36.1,25.9L36.1,25.9c0-2.6,2-4.6,4.7-4.6c2.7,0,4.7,2,4.7,4.6l0,0c0,2.5-2,4.6-4.7,4.6
		C38.1,30.4,36.1,28.4,36.1,25.9z M43.2,25.9L43.2,25.9c0-1.4-1-2.5-2.4-2.5s-2.2,1.1-2.2,2.4l0,0c0,1.2,1,2.5,2.4,2.5
		C42.3,28.3,43.2,27.2,43.2,25.9z"/>
	<path class="st1" d="M47.3,21.4h2.5v1.2c0.6-0.7,1.4-1.4,2.6-1.4c1.9,0,3,1.2,3,3.2v5.7h-2.5v-5c0-1.2-0.5-1.7-1.5-1.7
		c-1,0-1.6,0.6-1.6,1.7v5h-2.5V21.4L47.3,21.4z"/>
	<path class="st1" d="M56.9,25.9L56.9,25.9c0-2.5,1.7-4.6,4.4-4.6c3,0,4.2,2.2,4.2,4.7c0,0.2,0,0.4,0,0.6h-6.1
		c0.2,1.1,1,1.7,2.1,1.7c0.9,0,1.5-0.2,2.1-0.9l1.4,1.2c-0.9,1-2,1.6-3.6,1.6C58.9,30.4,56.9,28.5,56.9,25.9z M63.1,25.2
		c-0.1-1.1-0.7-1.9-1.9-1.9c-1,0-1.7,0.7-1.9,1.9H63.1z"/>
	<path class="st1" d="M67.2,21.4h2.5v1.2c0.6-0.7,1.4-1.4,2.6-1.4c1.9,0,3,1.2,3,3.2v5.7h-2.5v-5c0-1.2-0.5-1.7-1.5-1.7
		s-1.6,0.6-1.6,1.7v5h-2.5V21.4L67.2,21.4z"/>
</g>
</svg>
