<?xml version="1.0" encoding="utf-8"?>
<!-- Generator: Adobe Illustrator 24.0.2, SVG Export Plug-In . SVG Version: 6.00 Build 0)  -->
<svg version="1.1" id="Stripelight-logo" xmlns="http://www.w3.org/2000/svg" xmlns:xlink="http://www.w3.org/1999/xlink" x="0px"
	 y="0px" viewBox="0 0 117.9 36.1" style="enable-background:new 0 0 117.9 36.1;" xml:space="preserve">
<style type="text/css">
	.st0{fill:#FFFFFF;}
</style>
<g>
	<path class="st0" d="M13.3,19.1c-0.5,0-0.8,0.4-0.8,1.3c0,1,0.3,1.4,0.8,1.4c0.1,0,0.1,0,0.2,0l0-2.7
		C13.4,19.1,13.4,19.1,13.3,19.1z"/>
	<path class="st0" d="M32.2,16.7c-0.8,0-1.2,0.7-1,1.9l2-0.3C33.1,17.3,32.8,16.7,32.2,16.7z"/>
	<path class="st0" d="M60,16.7c-0.8,0-1.2,0.7-1,1.9l2-0.3C60.9,17.3,60.6,16.7,60,16.7z"/>
	<path class="st0" d="M65.3,23.1l0-10.3c-6.3-2.4-16.1-5.3-27.7-5.4l0,0c-10.2,0-19,2.3-24.6,4.1c-5.7,1.9-9.4,3.9-9.8,4.1l0,8.9
		l68.4,0l0-8.9c-0.2-0.1-1-0.5-2.2-1.1l0,8.6L65.3,23.1z M6.1,23.1l-1.8-5l2.5,0l0.4,2.2c0.1,0.5,0.1,0.9,0.1,0.9h0
		c0,0,0-0.4,0.1-0.9L8,18.1l2.2,0l-1.8,5L6.1,23.1z M13.3,23.2c-1.8,0-3.1-0.8-3.1-2.6c0-1.6,1.1-2.6,2.5-2.6c0.4,0,0.7,0,0.8,0.1
		l0-2.3l2.4,0l0,7C15.1,23,14.4,23.2,13.3,23.2z M22.7,23.1l0-4.2H21l0,4.2l-4.4,0l0-10.8l4.4,0l0,4.1l1.7,0l0-4.1l4.4,0l0,10.8
		L22.7,23.1z M36.6,19.5l-5.2,0.6c0.2,0.6,0.6,0.8,1.6,0.8c1.1,0,1.9-0.2,2.5-0.4l0.8,2c-0.9,0.4-1.9,0.6-3.8,0.6
		c-3.2,0-4.7-1.9-4.7-4.2c0-2.3,1.4-4.2,4.5-4.2C35.4,14.8,36.8,16.7,36.6,19.5z M41.6,23.2c-2.8,0-4.4-0.7-4.4-3l0-5.3l3.8,0l0,5.5
		c0,0.2,0.2,0.5,0.7,0.5c0.3,0,0.4,0,0.6-0.1l0-5.9l3.8,0l0,7.6C45,23,43.5,23.2,41.6,23.2z M49.5,23L46.7,15l4,0l0.7,3.5
		c0.1,0.7,0.2,1.5,0.2,1.5l0,0c0,0,0.1-0.7,0.2-1.5l0.7-3.5l3.5,0L53.3,23L49.5,23z M64.4,19.5l-5.2,0.6c0.2,0.6,0.6,0.8,1.6,0.8
		c1.1,0,1.9-0.2,2.5-0.4l0.8,2c-0.9,0.4-1.9,0.6-3.8,0.6c-3.2,0-4.7-1.9-4.7-4.2c0-2.3,1.4-4.2,4.5-4.2
		C63.2,14.8,64.6,16.7,64.4,19.5z"/>
	<path class="st0" d="M71.7,24.7l0-9.2l0,0c0,0-0.9-0.5-2.4-1.2l-0.1-0.1v0c0,0,0,0,0,0l0,0.1c0,0,0.1,0,0.1,0v0
		c1.6,0.7,2.4,1.2,2.4,1.2L71.7,24.7L3,24.6l0-9.1c0,0,14.8-8.3,34.6-8.3l0,0c11.8,0.1,21.8,3.1,27.8,5.5l0,10.3h0v0h0l0,0l0-10.3
		c0,0,0.1,0,0.1,0l0-0.1v0l-0.1,0c-6.3-2.4-16.2-5.4-27.8-5.5l0,0c-10.2,0-19.1,2.3-24.7,4.2C6.7,13.4,3,15.5,3,15.5l0,0l0,9.2
		L71.7,24.7z"/>
	<path class="st0" d="M65.4,23L65.4,23L65.4,23l0-10.3c-6-2.4-16-5.4-27.8-5.5l0,0C17.8,7.3,3,15.6,3,15.6l0,9.1l68.6,0l0-9.1
		c0,0-0.9-0.5-2.4-1.2l0,8.7L65.4,23z M71.5,15.6l0,8.9l-68.4,0l0-8.9c0.5-0.2,4.1-2.2,9.8-4.1c5.6-1.9,14.5-4.1,24.6-4.1l0,0
		c11.6,0.1,21.5,3,27.7,5.4l0,10.3l3.9,0l0-8.6C70.5,15.1,71.3,15.5,71.5,15.6z"/>
	<path class="st0" d="M22.3,27.8c0-0.1,0-0.2-0.1-0.3h0l-0.1,0.3L22,28.7h0.5L22.3,27.8z"/>
	<path class="st0" d="M71.5,30.6l0-4.8l-68.4,0l0,4.8L71.5,30.6z M51.9,26.9h1.4v0.5h-0.7v0.6h0.6v0.5h-0.6V29h0.7v0.5h-1.4V26.9z
		 M49,26.9l0.3,1.4c0,0.1,0,0.2,0.1,0.3h0c0-0.1,0-0.2,0.1-0.3l0.3-1.4h0.7l-0.8,2.7H49l-0.8-2.7H49z M46,26.9h0.8v2.7H46V26.9z
		 M42.9,26.9h1.6v0.5h0h-0.4v2.2h-0.8v-2.2h-0.4V26.9z M39.6,27.2c0.2-0.3,0.5-0.4,0.8-0.4c0.4,0,0.6,0.1,0.8,0.4
		c0.2,0.2,0.3,0.6,0.3,1c0,0.4-0.1,0.7-0.3,1c-0.2,0.3-0.5,0.4-0.8,0.4c-0.4,0-0.6-0.1-0.8-0.4c-0.2-0.2-0.3-0.6-0.3-1
		C39.3,27.8,39.4,27.5,39.6,27.2z M35.3,26.9H36l0.4,1.3c0,0.1,0.1,0.2,0.1,0.3h0c0,0,0-0.1,0.1-0.3l0.4-1.3h0.7l0.3,2.7h-0.7
		c0-0.1,0-0.5-0.1-1.3c0-0.1,0-0.2,0-0.3h0c0,0.1,0,0.2-0.1,0.3l-0.4,1.3h-0.4c0-0.1-0.2-0.5-0.4-1.3c0-0.1-0.1-0.2-0.1-0.3h0
		c0,0.1,0,0.2,0,0.3l-0.1,1.3H35L35.3,26.9z M31.6,27.2c0.2-0.3,0.5-0.4,0.8-0.4c0.4,0,0.6,0.1,0.8,0.4c0.2,0.2,0.3,0.6,0.3,1
		c0,0.4-0.1,0.7-0.3,1c-0.2,0.3-0.5,0.4-0.8,0.4c-0.4,0-0.6-0.1-0.8-0.4c-0.2-0.2-0.3-0.6-0.3-1C31.4,27.8,31.4,27.5,31.6,27.2z
		 M28.4,26.9H30v0.5h0h-0.4v2.2h-0.8v-2.2h-0.4V26.9z M24.9,26.9h0.8v1.9c0,0.2,0.1,0.3,0.2,0.3c0.2,0,0.2-0.1,0.2-0.3v-1.9h0.7v1.9
		c0,0.3-0.1,0.5-0.3,0.6c-0.2,0.1-0.4,0.2-0.7,0.2c-0.3,0-0.5-0.1-0.7-0.2c-0.2-0.2-0.3-0.4-0.3-0.6V26.9z M21.9,26.9h0.8l0.9,2.7
		h-0.8l-0.1-0.5h-0.7l-0.1,0.5h-0.7L21.9,26.9z"/>
	<path class="st0" d="M40.4,29c0.2,0,0.3-0.3,0.3-0.8c0-0.6-0.1-0.9-0.3-0.9c-0.2,0-0.3,0.3-0.3,0.9C40.1,28.7,40.2,29,40.4,29z"/>
	<path class="st0" d="M32.5,29c0.2,0,0.3-0.3,0.3-0.8c0-0.6-0.1-0.9-0.3-0.9c-0.2,0-0.3,0.3-0.3,0.9C32.2,28.7,32.3,29,32.5,29z"/>
	<path class="st0" d="M71.7,25.6L3,25.6l-0.1,0l0,5.2l68.7,0l0.1,0L71.7,25.6z M71.6,30.7H3v-5h68.6V30.7z"/>
	<path class="st0" d="M3,30.7h68.6v-5H3V30.7z M71.5,25.8l0,4.8l-68.4,0l0-4.8L71.5,25.8z"/>
	<polygon class="st0" points="65.4,23 65.4,23 69.2,23 	"/>
	<path class="st0" d="M69.2,14.3C69.2,14.3,69.2,14.3,69.2,14.3L69.2,14.3C69.1,14.3,69.1,14.3,69.2,14.3l0,8.7L69.2,14.3z"/>
	<path class="st0" d="M65.4,12.7l0,10.3L65.4,12.7C65.5,12.8,65.4,12.8,65.4,12.7z"/>
	<polygon class="st0" points="69.2,23 69.2,23 65.4,23 65.4,23 	"/>
	<polygon class="st0" points="69.2,23 69.2,23 69.2,14.3 69.2,14.3 	"/>
	<path class="st0" d="M65.5,12.8c1.4,0.6,2.6,1.1,3.6,1.5l0-0.1C68.1,13.7,67,13.3,65.5,12.8L65.5,12.8L65.5,12.8L65.5,12.8z"/>
	<polygon class="st0" points="65.5,12.8 65.5,12.7 65.5,12.7 65.5,12.8 	"/>
	<polygon class="st0" points="69.1,14.3 69.1,14.2 69.1,14.2 69.1,14.3 	"/>
	<polygon class="st0" points="65.4,23 65.4,23 65.4,23 	"/>
	<polygon class="st0" points="69.1,22.9 65.5,22.9 65.5,12.8 65.5,12.8 65.4,23 65.4,23 69.2,23 69.2,23 69.2,23 69.1,14.3 
		69.1,14.3 	"/>
	<polygon class="st0" points="69.2,23 69.2,23 69.2,23 69.2,23 	"/>
</g>
</svg>
