<?xml version="1.0" encoding="utf-8"?>
<!-- Generator: Adobe Illustrator 24.0.2, SVG Export Plug-In . SVG Version: 6.00 Build 0)  -->
<svg version="1.1" id="Stripelight-logo" xmlns="http://www.w3.org/2000/svg" xmlns:xlink="http://www.w3.org/1999/xlink" x="0px"
	 y="0px" viewBox="0 0 145.7 31.7" style="enable-background:new 0 0 145.7 31.7;" xml:space="preserve">
<style type="text/css">
	.st0{fill:#FFFFFF;}
</style>
<g>
	<g>
		<path class="st0" d="M17.5,24.2h3.7l0,0.4c0,0.7,0.1,1.1,0.7,1.2c-1.2,1.1-2.7,1.9-4.4,2.3c-0.8,0.2-1.7,0.3-1.7,0.3
			c-0.2,0-0.5,0-0.7,0c0,0-0.1,0-0.1,0L17.5,24.2z"/>
		<path class="st0" d="M17.5,15.7L17.5,15.7v4.6h3.7v-0.4c0-1.1,0-1.5,1.2-1.5h0.2V21H20v2.5h2.5v1.5c1.7-1.8,2.7-4.2,2.7-6.8
			c0-0.9-0.1-1.7-0.3-2.6L17.5,15.7L17.5,15.7z"/>
		<path class="st0" d="M17.5,9V5.1c-0.5-0.1-1.1-0.3-1.7-0.3v4.6h-1.7V6l-1.6,2.7h0v3.9h0v4.4c0,0,0,0.1,0,0.1v4.3
			c0,0.9,0.3,1.2,0.7,1.3c-0.4,0.2-0.7,0.5-0.7,1.1v3.9c0.5,0.1,1.1,0.3,1.7,0.3v-4.6h1.7v3.3l1.6-2.7h0v-3.9h0v-4.4
			c0,0,0-0.1,0-0.1v-4.3c0-0.9-0.3-1.2-0.7-1.3C17.1,9.9,17.5,9.7,17.5,9z M15.8,10.9v4.8h-1.7c0,0,0,0,0,0v-4.8H15.8z M14.2,22.1
			v-4.8h1.6c0,0,0,0,0.1,0v4.8H14.2z"/>
		<path class="st0" d="M12.4,8.7H8.8l0-0.4c0-0.7-0.1-1.1-0.7-1.2c1.2-1.1,2.7-1.9,4.4-2.3c0.8-0.2,1.7-0.3,1.7-0.3
			c0.2,0,0.5,0,0.7,0c0.1,0,0.1,0,0.1,0L12.4,8.7z"/>
		<path class="st0" d="M12.5,17.2L12.5,17.2v-4.6H8.8V13c0,1.1,0,1.5-1.2,1.5H7.3v-2.6h2.5V9.4H7.3V7.9c-1.7,1.8-2.7,4.2-2.7,6.8
			c0,0.9,0.1,1.7,0.3,2.6L12.5,17.2L12.5,17.2z"/>
	</g>
	<path class="st0" d="M31.6,9.4h6.6c0.1,0.3,0.1,0.7,0.1,1c0,0.4,0,0.7-0.1,1H34v2.5h3.4c0.1,0.3,0.1,0.7,0.1,1c0,0.3,0,0.7-0.1,1
		H34V19h4.3c0.1,0.3,0.1,0.7,0.1,1c0,0.4,0,0.7-0.1,1h-6.7L31.6,9.4L31.6,9.4z"/>
	<path class="st0" d="M40.1,9.2c0.4-0.1,0.8-0.1,1.1-0.1c0.4,0,0.7,0,1.1,0.1v8.5c0,0.3,0,0.6,0.1,0.8c0,0.2,0.1,0.4,0.2,0.5
		s0.2,0.2,0.3,0.2c0.1,0,0.3,0.1,0.5,0.1c0.1,0,0.2,0,0.3,0c0.1,0,0.2,0,0.3,0c0.1,0.4,0.2,0.9,0.2,1.3c0,0.1,0,0.2,0,0.2
		c0,0.1,0,0.1,0,0.2c-0.2,0.1-0.4,0.1-0.6,0.1c-0.2,0-0.5,0-0.7,0c-0.8,0-1.5-0.2-2-0.7c-0.5-0.5-0.8-1.2-0.8-2.2L40.1,9.2L40.1,9.2
		z"/>
	<path class="st0" d="M45.3,9.2c0.4-0.1,0.7-0.1,1.1-0.1c0.4,0,0.8,0,1.1,0.1V21c-0.4,0.1-0.8,0.1-1.1,0.1c-0.4,0-0.8,0-1.1-0.1V9.2
		z M47.9,16.6l2.1-4c0.4-0.1,0.8-0.1,1.3-0.1c0.4,0,0.8,0,1.2,0.1l-2.1,3.9l2.5,4.5c-0.4,0.1-0.9,0.1-1.3,0.1c-0.4,0-0.8,0-1.2-0.1
		L47.9,16.6z"/>
	<path class="st0" d="M57.3,21.2c-0.7,0-1.3-0.1-1.8-0.3c-0.5-0.2-0.9-0.5-1.2-0.9c-0.3-0.4-0.6-0.9-0.7-1.4
		c-0.2-0.5-0.3-1.1-0.3-1.7c0-0.6,0.1-1.2,0.3-1.7c0.2-0.5,0.4-1,0.7-1.4c0.3-0.4,0.7-0.7,1.2-0.9c0.5-0.2,1.1-0.3,1.8-0.3
		c0.7,0,1.3,0.1,1.8,0.3c0.5,0.2,0.9,0.5,1.3,0.9c0.3,0.4,0.6,0.9,0.7,1.4c0.2,0.5,0.2,1.1,0.2,1.7c0,0.6-0.1,1.2-0.2,1.7
		c-0.2,0.5-0.4,1-0.7,1.4c-0.3,0.4-0.8,0.7-1.3,0.9C58.6,21.1,58,21.2,57.3,21.2z M57.3,19.5c0.6,0,1-0.2,1.3-0.7
		c0.3-0.4,0.4-1.1,0.4-1.9s-0.1-1.5-0.4-1.9s-0.7-0.7-1.3-0.7c-0.6,0-1,0.2-1.3,0.7c-0.3,0.4-0.4,1.1-0.4,1.9s0.1,1.5,0.4,1.9
		S56.7,19.5,57.3,19.5z"/>
	<path class="st0" d="M63.1,12.7c0.2,0,0.3-0.1,0.5-0.1c0.1,0,0.3,0,0.5,0c0.2,0,0.3,0,0.5,0c0.2,0,0.3,0,0.5,0.1
		c0,0.1,0.1,0.1,0.1,0.2c0,0.1,0.1,0.2,0.1,0.3c0,0.1,0,0.2,0.1,0.3c0,0.1,0,0.2,0,0.3c0.2-0.3,0.5-0.6,0.9-0.9
		c0.3-0.3,0.8-0.4,1.3-0.4c0.1,0,0.2,0,0.4,0c0.1,0,0.2,0,0.3,0c0,0.1,0,0.2,0,0.4s0,0.3,0,0.4c0,0.2,0,0.4,0,0.6
		c0,0.2,0,0.4-0.1,0.6c-0.1,0-0.3,0-0.4,0c-0.1,0-0.2,0-0.3,0c-0.2,0-0.4,0-0.6,0.1c-0.2,0-0.4,0.1-0.6,0.3s-0.4,0.4-0.5,0.7
		c-0.1,0.3-0.2,0.8-0.2,1.4v4c-0.2,0-0.4,0.1-0.6,0.1s-0.4,0-0.6,0s-0.4,0-0.6,0c-0.2,0-0.4,0-0.6-0.1L63.1,12.7L63.1,12.7z"/>
	<path class="st0" d="M79.5,15c0.4-0.1,0.8-0.1,1.2-0.1c0.4,0,0.8,0,1.2,0.1v5.7c-0.6,0.2-1.1,0.3-1.8,0.4c-0.6,0.1-1.1,0.1-1.6,0.1
		c-0.9,0-1.8-0.1-2.5-0.4c-0.7-0.3-1.3-0.7-1.8-1.2c-0.5-0.5-0.8-1.2-1.1-1.9c-0.2-0.7-0.4-1.5-0.4-2.4s0.1-1.7,0.4-2.4
		c0.2-0.7,0.6-1.4,1.1-1.9c0.5-0.5,1-1,1.7-1.3c0.7-0.3,1.5-0.5,2.3-0.5c0.5,0,1,0,1.4,0.1c0.4,0.1,0.9,0.2,1.4,0.4
		c0,0.3-0.1,0.6-0.2,0.9s-0.2,0.6-0.4,0.9c-0.4-0.1-0.7-0.2-1-0.3c-0.3-0.1-0.6-0.1-1-0.1c-1,0-1.8,0.3-2.4,1
		c-0.6,0.7-0.8,1.7-0.8,3s0.3,2.3,0.8,3c0.5,0.7,1.4,1,2.4,1c0.2,0,0.3,0,0.5,0c0.1,0,0.3,0,0.4-0.1L79.5,15L79.5,15z"/>
	<path class="st0" d="M83.9,12.7c0.2,0,0.3-0.1,0.5-0.1c0.1,0,0.3,0,0.5,0c0.2,0,0.3,0,0.5,0c0.2,0,0.3,0,0.5,0.1
		c0,0.1,0.1,0.1,0.1,0.2c0,0.1,0.1,0.2,0.1,0.3c0,0.1,0,0.2,0.1,0.3c0,0.1,0,0.2,0,0.3c0.2-0.3,0.5-0.6,0.9-0.9s0.8-0.4,1.3-0.4
		c0.1,0,0.2,0,0.4,0c0.1,0,0.2,0,0.3,0c0,0.1,0,0.2,0,0.4s0,0.3,0,0.4c0,0.2,0,0.4,0,0.6c0,0.2,0,0.4-0.1,0.6c-0.1,0-0.3,0-0.4,0
		c-0.1,0-0.2,0-0.3,0c-0.2,0-0.4,0-0.6,0.1c-0.2,0-0.4,0.1-0.6,0.3c-0.2,0.2-0.4,0.4-0.5,0.7c-0.1,0.3-0.2,0.8-0.2,1.4v4
		c-0.2,0-0.4,0.1-0.6,0.1s-0.4,0-0.6,0c-0.2,0-0.4,0-0.6,0c-0.2,0-0.4,0-0.6-0.1L83.9,12.7L83.9,12.7z"/>
	<path class="st0" d="M93.7,21.2c-0.7,0-1.3-0.1-1.8-0.3S91,20.4,90.7,20c-0.3-0.4-0.6-0.9-0.7-1.4c-0.2-0.5-0.3-1.1-0.3-1.7
		c0-0.6,0.1-1.2,0.3-1.7c0.2-0.5,0.4-1,0.7-1.4c0.3-0.4,0.7-0.7,1.2-0.9c0.5-0.2,1.1-0.3,1.8-0.3c0.7,0,1.3,0.1,1.8,0.3
		c0.5,0.2,0.9,0.5,1.3,0.9c0.3,0.4,0.6,0.9,0.7,1.4c0.2,0.5,0.2,1.1,0.2,1.7c0,0.6-0.1,1.2-0.2,1.7c-0.2,0.5-0.4,1-0.7,1.4
		c-0.3,0.4-0.8,0.7-1.3,0.9C95,21.1,94.4,21.2,93.7,21.2z M93.7,19.5c0.6,0,1-0.2,1.3-0.7s0.4-1.1,0.4-1.9s-0.1-1.5-0.4-1.9
		s-0.7-0.7-1.3-0.7c-0.6,0-1,0.2-1.3,0.7C92.2,15.4,92,16,92,16.9s0.1,1.5,0.4,1.9C92.7,19.2,93.1,19.5,93.7,19.5z"/>
	<path class="st0" d="M101.4,17.5c0,0.6,0.3,1.1,0.7,1.4s0.9,0.4,1.6,0.4c0.4,0,0.7,0,1.1-0.1c0.4-0.1,0.7-0.2,1.1-0.3
		c0.1,0.2,0.2,0.5,0.3,0.8c0.1,0.3,0.1,0.6,0.1,1c-0.8,0.3-1.8,0.5-2.8,0.5c-0.8,0-1.4-0.1-2-0.3c-0.6-0.2-1-0.5-1.4-0.9
		c-0.4-0.4-0.6-0.8-0.8-1.4c-0.2-0.5-0.3-1.1-0.3-1.7c0-0.6,0.1-1.2,0.3-1.7c0.2-0.5,0.4-1,0.8-1.4c0.3-0.4,0.8-0.7,1.3-0.9
		c0.5-0.2,1.1-0.3,1.8-0.3c0.6,0,1.1,0.1,1.6,0.3c0.5,0.2,0.8,0.5,1.2,0.8c0.3,0.4,0.6,0.8,0.7,1.3c0.2,0.5,0.2,1,0.2,1.6
		c0,0.2,0,0.4,0,0.6c0,0.2,0,0.4-0.1,0.5L101.4,17.5L101.4,17.5z M104.7,15.9c0-0.5-0.2-0.9-0.4-1.3c-0.3-0.3-0.6-0.5-1.1-0.5
		c-0.5,0-0.9,0.2-1.2,0.5c-0.3,0.3-0.4,0.7-0.5,1.3L104.7,15.9L104.7,15.9z"/>
	<path class="st0" d="M108.6,12.7c0.2,0,0.3-0.1,0.4-0.1c0.1,0,0.3,0,0.5,0c0.3,0,0.6,0,0.9,0.1c0,0.1,0.1,0.1,0.1,0.2
		s0.1,0.2,0.1,0.3c0,0.1,0,0.2,0.1,0.3c0,0.1,0,0.2,0,0.3c0.1-0.2,0.2-0.3,0.4-0.5c0.1-0.2,0.3-0.3,0.5-0.4c0.2-0.1,0.4-0.2,0.7-0.3
		c0.2-0.1,0.5-0.1,0.8-0.1c0.5,0,0.9,0.1,1.3,0.3c0.4,0.2,0.8,0.4,1.1,0.8c0.3,0.3,0.5,0.8,0.7,1.3c0.2,0.5,0.3,1.2,0.3,1.9
		c0,0.7-0.1,1.3-0.3,1.9c-0.2,0.6-0.5,1-0.9,1.4c-0.4,0.4-0.9,0.7-1.4,0.9c-0.6,0.2-1.2,0.3-1.9,0.3c-0.2,0-0.4,0-0.5,0
		c-0.2,0-0.3,0-0.4-0.1v3.7c-0.2,0-0.4,0.1-0.6,0.1c-0.2,0-0.4,0-0.6,0s-0.4,0-0.6,0c-0.2,0-0.4,0-0.6-0.1L108.6,12.7L108.6,12.7z
		 M110.9,19.2c0.3,0.1,0.6,0.1,1,0.1c0.7,0,1.2-0.2,1.5-0.6s0.5-1.1,0.5-2c0-0.3,0-0.6-0.1-0.9c-0.1-0.3-0.1-0.5-0.3-0.7
		s-0.3-0.4-0.5-0.5c-0.2-0.1-0.4-0.2-0.7-0.2c-0.3,0-0.5,0.1-0.7,0.2c-0.2,0.1-0.3,0.2-0.5,0.4c-0.1,0.2-0.2,0.4-0.3,0.6
		c-0.1,0.2-0.1,0.5-0.1,0.8L110.9,19.2L110.9,19.2z"/>
</g>
</svg>
