<?xml version="1.0" encoding="utf-8"?>
<!-- Generator: Adobe Illustrator 24.0.2, SVG Export Plug-In . SVG Version: 6.00 Build 0)  -->
<svg version="1.1" id="Stripelight-logo" xmlns="http://www.w3.org/2000/svg" xmlns:xlink="http://www.w3.org/1999/xlink" x="0px"
	 y="0px" viewBox="0 0 112.4 31.7" style="enable-background:new 0 0 112.4 31.7;" xml:space="preserve">
<style type="text/css">
	.st0{fill:#FFFFFF;}
</style>
<g>
	<g>
		<path class="st0" d="M14.3,5.6l0,0.3l-1.7,0l0-0.3l0.1,0c0.1,0,0.1,0,0.2,0s0.1,0,0.2-0.1l0.1-0.1c0-0.1,0-0.1,0-0.2l0-3.5
			c0-0.1,0-0.2,0-0.2c-0.2-0.1-0.2-0.2-0.2-0.2S13,1.2,12.9,1.2c-0.1,0-0.1,0-0.2,0l-0.1,0l0-0.3l1.2,0l0,1.4c0,0.1,0,0.1,0,0.2
			c0,0.1,0,0.1,0,0.2c0,0.1,0,0.1,0,0.2l0,0c0.2-0.4,0.5-0.6,0.9-0.6c0.2,0,0.3,0,0.5,0.1c0.1,0,0.3,0.1,0.4,0.2
			c0.1,0.1,0.2,0.2,0.2,0.4c0.1,0.2,0.1,0.3,0.1,0.6l0,1.5c0,0.1,0,0.2,0,0.2c0,0.1,0.1,0.1,0.1,0.1s0.1,0.1,0.2,0.1
			c0.1,0,0.1,0,0.2,0l0,0l0,0.4l-1.1,0l0-2.3c0-0.1,0-0.3,0-0.4c0-0.1-0.1-0.2-0.1-0.3c-0.1,0-0.2-0.1-0.3-0.1s-0.2-0.1-0.3-0.1
			c-0.1,0-0.3,0-0.3,0.1C14.1,2.9,14,2.9,13.9,3c-0.1,0.1-0.1,0.2-0.1,0.3s0,0.3,0,0.4l0,1.4c0,0.1,0,0.2,0,0.2
			c0,0.1,0.1,0.1,0.1,0.1s0.1,0,0.2,0.1C14.1,5.6,14.2,5.6,14.3,5.6L14.3,5.6z"/>
		<path class="st0" d="M18.4,5.9c-0.2,0-0.4,0-0.6-0.1s-0.3-0.2-0.5-0.3C17.1,5.3,17,5.1,17,4.9c-0.1-0.2-0.1-0.5-0.1-0.7
			c0-0.6,0.1-1.1,0.4-1.4c0.2-0.3,0.6-0.5,1.1-0.5c0.2,0,0.4,0,0.6,0.1c0.2,0.1,0.3,0.2,0.4,0.3s0.2,0.3,0.3,0.5
			c0.1,0.2,0.1,0.4,0.1,0.7l0,0.3l-2.1,0c0,0.2,0,0.4,0.1,0.6c0,0.2,0.1,0.3,0.2,0.4s0.2,0.2,0.3,0.2c0.1,0.1,0.3,0.1,0.4,0.1
			c0.1,0,0.2,0,0.3,0s0.2-0.1,0.3-0.1c0.1,0,0.1-0.1,0.2-0.1s0.1-0.1,0.1-0.2c0,0,0.1,0,0.1,0.1l0,0.1c0,0.1,0,0.1-0.1,0.2
			c0,0.1-0.1,0.1-0.2,0.2C19.3,5.9,19,5.9,18.9,6C18.7,6,18.6,6,18.4,5.9z M18.3,2.7c-0.2,0-0.4,0.1-0.6,0.3
			c-0.1,0.2-0.2,0.5-0.2,0.9L19,4c0-0.2,0-0.3,0-0.5c0-0.1-0.1-0.3-0.1-0.4c-0.1-0.1-0.1-0.2-0.2-0.2C18.5,2.7,18.4,2.7,18.3,2.7z"
			/>
		<path class="st0" d="M21.7,5.7c0.1,0,0.1,0,0.2,0s0.1,0,0.2,0l0,0.3L22,6l-0.1,0c-0.1,0-0.1,0-0.2,0c-0.1,0-0.1,0-0.2,0
			c-0.2,0-0.3,0-0.4-0.1c-0.1,0-0.2-0.1-0.3-0.2c-0.1-0.1-0.1-0.2-0.2-0.3c0-0.1-0.1-0.3-0.1-0.5l0-2l-0.5,0l0-0.3
			c0.1,0,0.2,0,0.3,0s0.2-0.1,0.2-0.2c0.1-0.1,0.1-0.2,0.2-0.3c0-0.1,0.1-0.2,0.1-0.4l0.3,0l0,0.8l0.9,0l0,0.4l-0.8,0l0,2.1
			c0,0.2,0,0.4,0.1,0.5C21.4,5.6,21.5,5.7,21.7,5.7z"/>
	</g>
</g>
<polygon class="st0" points="61.4,30.8 3,30.6 3.1,3.4 10.8,3.4 10.8,4.4 4.1,4.4 4,29.6 60.5,29.8 60.6,4.5 23.7,4.4 23.7,3.4 
	61.5,3.5 "/>
<g>
	<path class="st0" d="M8.1,9.3l1.4,0l0,2.6l2.6,0l0-2.6l1.4,0l0,6.5l-1.4,0l0-2.6l-2.6,0l0,2.6l-1.4,0L8.1,9.3z"/>
	<path class="st0" d="M15.3,12.6L15.3,12.6c0-1.9,1.5-3.4,3.5-3.4c2,0,3.4,1.5,3.4,3.3l0,0c0,1.8-1.5,3.4-3.5,3.4
		C16.8,15.9,15.3,14.4,15.3,12.6z M20.7,12.7L20.7,12.7c0-1.1-0.8-2.1-2-2.1c-1.2,0-1.9,0.9-1.9,2l0,0c0,1.1,0.8,2,2,2
		C19.9,14.7,20.7,13.8,20.7,12.7z"/>
	<path class="st0" d="M24,9.4l3,0c0.8,0,1.5,0.2,1.9,0.7c0.4,0.4,0.6,0.9,0.6,1.5l0,0c0,1-0.6,1.7-1.4,2l1.6,2.3l-1.7,0l-1.4-2.1
		l0,0l-1.1,0l0,2.1l-1.5,0L24,9.4z M26.8,12.6c0.7,0,1.1-0.4,1.1-0.9l0,0c0-0.6-0.4-0.9-1.1-0.9l-1.4,0l0,1.9L26.8,12.6L26.8,12.6z"
		/>
	<path class="st0" d="M31.1,9.4l4.9,0l0,1.3l-3.5,0l0,1.3l3.1,0l0,1.3l-3.1,0l0,1.4l3.5,0l0,1.3l-4.9,0L31.1,9.4z"/>
	<path class="st0" d="M37.5,12.7L37.5,12.7c0-1.9,1.4-3.4,3.4-3.4c1.2,0,2,0.4,2.6,1l-0.9,1c-0.5-0.5-1-0.7-1.7-0.7
		c-1.1,0-1.9,0.9-1.9,2l0,0c0,1.1,0.8,2,1.9,2c0.7,0,1.2-0.3,1.7-0.8l0.9,0.9c-0.7,0.7-1.4,1.2-2.7,1.2C38.9,16,37.5,14.5,37.5,12.7
		z"/>
	<path class="st0" d="M47.3,9.5l1.3,0l2.8,6.5l-1.5,0l-0.6-1.5l-2.7,0L46,16l-1.5,0L47.3,9.5z M48.8,13.3L48,11.2l-0.9,2.1
		C47.1,13.3,48.8,13.3,48.8,13.3z"/>
	<path class="st0" d="M7.8,22.1L7.8,22.1c0-1.9,1.4-3.4,3.4-3.4c1.2,0,2,0.4,2.6,1l-0.9,1c-0.5-0.5-1-0.7-1.7-0.7
		c-1.1,0-1.9,0.9-1.9,2l0,0c0,1.1,0.8,2,1.9,2c0.7,0,1.2-0.3,1.7-0.8l0.9,0.9c-0.7,0.7-1.4,1.2-2.7,1.2C9.2,25.4,7.8,24,7.8,22.1z"
		/>
	<path class="st0" d="M14.9,22.1L14.9,22.1c0-1.9,1.5-3.4,3.5-3.4s3.4,1.5,3.4,3.3l0,0c0,1.8-1.5,3.4-3.5,3.4
		C16.4,25.4,14.9,23.9,14.9,22.1z M20.3,22.2L20.3,22.2c0-1.1-0.8-2.1-2-2.1s-1.9,0.9-1.9,2l0,0c0,1.1,0.8,2,2,2
		C19.5,24.2,20.3,23.3,20.3,22.2z"/>
	<path class="st0" d="M23.6,18.9l1.3,0l3,4l0-4l1.4,0l0,6.5l-1.2,0L25,21.3l0,4.1l-1.4,0L23.6,18.9z"/>
	<path class="st0" d="M31.1,22.2L31.1,22.2c0-1.9,1.4-3.4,3.4-3.4c1.2,0,2,0.4,2.6,1l-0.9,1c-0.5-0.5-1-0.7-1.7-0.7
		c-1.1,0-1.9,0.9-1.9,2l0,0c0,1.1,0.8,2,1.9,2c0.7,0,1.2-0.3,1.7-0.8l0.9,0.9c-0.7,0.7-1.4,1.2-2.7,1.2
		C32.5,25.5,31.1,24.1,31.1,22.2z"/>
	<path class="st0" d="M38.7,18.9l4.9,0l0,1.3l-3.5,0l0,1.3l3.1,0l0,1.3l-3.1,0l0,1.4l3.5,0l0,1.3l-4.9,0L38.7,18.9z"/>
	<path class="st0" d="M45.3,18.9l2.7,0c1.5,0,2.5,0.9,2.5,2.2l0,0c0,1.5-1.2,2.3-2.6,2.3l-1.1,0l0,1.9l-1.4,0l0-6.4L45.3,18.9z
		 M47.9,22.3c0.7,0,1.1-0.4,1.1-1l0,0c0-0.6-0.4-1-1.2-1l-1.1,0l0,2L47.9,22.3z"/>
	<path class="st0" d="M53.5,20.3l-2,0l0-1.3l5.4,0l0,1.3l-2,0l0,5.2l-1.4,0L53.5,20.3z"/>
</g>
</svg>
