<?xml version="1.0" encoding="utf-8"?>
<!-- Generator: Adobe Illustrator 24.0.2, SVG Export Plug-In . SVG Version: 6.00 Build 0)  -->
<svg version="1.1" id="Stripelight-logo" xmlns="http://www.w3.org/2000/svg" xmlns:xlink="http://www.w3.org/1999/xlink" x="0px"
	 y="0px" viewBox="0 0 117.9 36.1" style="enable-background:new 0 0 117.9 36.1;" xml:space="preserve">
<style type="text/css">
	.st0{enable-background:new    ;}
	.st1{fill:#FFFFFF;}
</style>
<g>
	<g class="st0">
		<path class="st1" d="M34,14.7V8.6l-0.8-0.1V8h2.9v0.5l-0.9,0.1v6h2.5l0.6-1.7l0.7,0.1l-0.3,2.2h-5.3v-0.5L34,14.7z"/>
		<path class="st1" d="M39.8,11.2c0.2-0.4,0.5-0.7,0.9-1c0.4-0.2,0.8-0.3,1.3-0.3c0.6,0,1.1,0.2,1.4,0.5c0.3,0.3,0.5,0.8,0.5,1.3
			v0.2c0,0.3,0,0.5-0.1,0.7h-3.4c0,0.5,0.1,0.9,0.2,1.2c0.1,0.3,0.3,0.5,0.6,0.7c0.2,0.1,0.5,0.2,0.8,0.2c0.3,0,0.5,0,0.8-0.1
			c0.3-0.1,0.5-0.2,0.7-0.3l0.2,0.5c-0.1,0.1-0.3,0.2-0.5,0.4c-0.2,0.1-0.5,0.2-0.7,0.3c-0.3,0.1-0.5,0.1-0.8,0.1
			c-0.5,0-1-0.1-1.4-0.3c-0.4-0.2-0.7-0.6-0.8-1c-0.2-0.4-0.3-0.9-0.3-1.4C39.4,12.1,39.6,11.6,39.8,11.2z M42.9,12
			c0-0.1,0-0.2,0-0.4c0-0.4-0.1-0.6-0.3-0.9c-0.2-0.2-0.4-0.3-0.8-0.3c-0.4,0-0.7,0.1-0.9,0.3c-0.2,0.2-0.3,0.6-0.4,1.2H42.9z"/>
		<path class="st1" d="M45.7,13.7l0.2,0.7c0,0.1,0.1,0.1,0.2,0.2c0.1,0.1,0.2,0.1,0.4,0.1c0.2,0,0.3,0.1,0.5,0.1
			c0.4,0,0.6-0.1,0.8-0.2c0.2-0.1,0.2-0.3,0.2-0.5c0-0.2-0.1-0.3-0.2-0.4c-0.1-0.1-0.3-0.2-0.5-0.3c-0.2-0.1-0.5-0.2-0.8-0.4
			c-0.5-0.2-0.9-0.4-1.1-0.7c-0.2-0.3-0.4-0.6-0.4-1c0-0.3,0.1-0.5,0.3-0.7c0.2-0.2,0.4-0.4,0.7-0.5c0.3-0.1,0.7-0.2,1-0.2
			c0.3,0,0.6,0,0.8,0.1c0.2,0,0.5,0.1,0.7,0.2l0.2,0.1v1.2h-0.6l-0.2-0.6c0-0.1-0.1-0.1-0.3-0.2c-0.2-0.1-0.4-0.1-0.6-0.1
			c-0.3,0-0.5,0.1-0.7,0.2s-0.2,0.3-0.2,0.5c0,0.2,0,0.3,0.1,0.4c0.1,0.1,0.2,0.2,0.4,0.3c0.1,0.1,0.3,0.2,0.6,0.3l0.2,0.1
			c0.4,0.2,0.7,0.3,0.9,0.4c0.2,0.1,0.4,0.3,0.6,0.5c0.2,0.2,0.2,0.5,0.2,0.8c0,0.3-0.1,0.6-0.3,0.8c-0.2,0.2-0.4,0.4-0.7,0.5
			c-0.3,0.1-0.7,0.2-1.1,0.2c-0.3,0-0.7,0-1-0.1c-0.4-0.1-0.7-0.2-0.9-0.3v-1.2H45.7z"/>
		<path class="st1" d="M53.8,14.7v-6L53,8.6V8h1.3c0.2,0,0.5,0,0.8,0c0.3,0,0.5,0,0.7,0c0.9,0,1.6,0.1,2,0.4
			c0.4,0.3,0.6,0.7,0.6,1.2c0,0.3-0.1,0.6-0.2,0.8c-0.1,0.2-0.3,0.5-0.5,0.6c-0.2,0.2-0.5,0.3-0.8,0.3c0.4,0,0.8,0.1,1.1,0.2
			c0.3,0.1,0.5,0.3,0.7,0.6c0.2,0.3,0.2,0.6,0.2,0.9c0,0.7-0.2,1.2-0.7,1.6c-0.5,0.4-1.3,0.6-2.3,0.6c-0.1,0-0.2,0-0.4,0
			c-0.1,0-0.2,0-0.3,0c-0.4,0-0.7,0-0.9,0H53v-0.6L53.8,14.7z M55.3,14.8c0.2,0,0.4,0,0.6,0c0.6,0,1.1-0.1,1.4-0.4
			c0.3-0.3,0.4-0.6,0.4-1.1c0-0.4-0.1-0.6-0.2-0.9c-0.1-0.2-0.3-0.4-0.5-0.5c-0.2-0.1-0.6-0.2-1-0.2h-0.5c-0.3,0-0.6,0-0.7,0v3
			C55,14.8,55.1,14.8,55.3,14.8z M55.9,11.2c0.9,0,1.4-0.5,1.4-1.4c0-0.3,0-0.5-0.1-0.7s-0.3-0.3-0.5-0.4c-0.2-0.1-0.5-0.1-0.9-0.1
			c-0.2,0-0.4,0-0.6,0c-0.2,0-0.2,0-0.3,0v2.6C55.1,11.2,55.4,11.2,55.9,11.2z"/>
		<path class="st1" d="M63.7,14.6c-0.2,0.2-0.5,0.4-0.8,0.5c-0.3,0.2-0.6,0.2-1,0.2c-0.4,0-0.7-0.1-1-0.2c-0.3-0.1-0.4-0.4-0.6-0.7
			c-0.1-0.3-0.2-0.7-0.2-1.2v-2.8l-0.5-0.2V9.8l1.4-0.1h0l0.2,0.1v3.4c0,0.4,0,0.7,0.1,0.9c0.1,0.2,0.2,0.4,0.3,0.5
			c0.1,0.1,0.3,0.1,0.6,0.1c0.3,0,0.5,0,0.7-0.1c0.2-0.1,0.4-0.2,0.6-0.3v-3.7l-0.7-0.2V9.8l1.5-0.1h0l0.3,0.1v5h0.6v0.5
			c-0.2,0.1-0.4,0.1-0.5,0.1c-0.1,0-0.3,0-0.5,0c-0.2,0-0.4,0-0.5-0.1c-0.1-0.1-0.1-0.2-0.1-0.4V14.6z"/>
		<path class="st1" d="M66.8,14.8V8L66,7.9V7.4l1.7-0.2h0l0.2,0.2v7.4l0.8,0.1v0.5H66v-0.5L66.8,14.8z"/>
		<path class="st1" d="M70.1,14.8V8l-0.8-0.1V7.4L71,7.2h0l0.2,0.2v7.4l0.8,0.1v0.5h-2.7v-0.5L70.1,14.8z"/>
		<path class="st1" d="M73.1,11.2c0.2-0.4,0.5-0.7,0.9-1c0.4-0.2,0.8-0.3,1.3-0.3c0.6,0,1.1,0.2,1.4,0.5c0.3,0.3,0.5,0.8,0.5,1.3
			v0.2c0,0.3,0,0.5-0.1,0.7h-3.4c0,0.5,0.1,0.9,0.2,1.2c0.1,0.3,0.3,0.5,0.6,0.7c0.2,0.1,0.5,0.2,0.8,0.2c0.3,0,0.5,0,0.8-0.1
			c0.3-0.1,0.5-0.2,0.7-0.3l0.2,0.5c-0.1,0.1-0.3,0.2-0.5,0.4c-0.2,0.1-0.5,0.2-0.7,0.3c-0.3,0.1-0.5,0.1-0.8,0.1
			c-0.5,0-1-0.1-1.4-0.3c-0.4-0.2-0.7-0.6-0.8-1c-0.2-0.4-0.3-0.9-0.3-1.4C72.7,12.1,72.9,11.6,73.1,11.2z M76.2,12
			c0-0.1,0-0.2,0-0.4c0-0.4-0.1-0.6-0.3-0.9c-0.2-0.2-0.4-0.3-0.8-0.3c-0.4,0-0.7,0.1-0.9,0.3c-0.2,0.2-0.3,0.6-0.4,1.2H76.2z"/>
		<path class="st1" d="M79,13.7l0.2,0.7c0,0.1,0.1,0.1,0.2,0.2c0.1,0.1,0.2,0.1,0.4,0.1c0.2,0,0.3,0.1,0.5,0.1
			c0.4,0,0.6-0.1,0.8-0.2c0.2-0.1,0.2-0.3,0.2-0.5c0-0.2-0.1-0.3-0.2-0.4c-0.1-0.1-0.3-0.2-0.5-0.3c-0.2-0.1-0.5-0.2-0.8-0.4
			c-0.5-0.2-0.9-0.4-1.1-0.7c-0.2-0.3-0.4-0.6-0.4-1c0-0.3,0.1-0.5,0.3-0.7c0.2-0.2,0.4-0.4,0.7-0.5c0.3-0.1,0.7-0.2,1-0.2
			c0.3,0,0.6,0,0.8,0.1c0.2,0,0.5,0.1,0.7,0.2l0.2,0.1v1.2h-0.6l-0.2-0.6c0-0.1-0.1-0.1-0.3-0.2c-0.2-0.1-0.4-0.1-0.6-0.1
			c-0.3,0-0.5,0.1-0.7,0.2c-0.2,0.1-0.2,0.3-0.2,0.5c0,0.2,0,0.3,0.1,0.4c0.1,0.1,0.2,0.2,0.4,0.3c0.1,0.1,0.3,0.2,0.6,0.3l0.2,0.1
			c0.4,0.2,0.7,0.3,0.9,0.4c0.2,0.1,0.4,0.3,0.6,0.5c0.2,0.2,0.2,0.5,0.2,0.8c0,0.3-0.1,0.6-0.3,0.8c-0.2,0.2-0.4,0.4-0.7,0.5
			c-0.3,0.1-0.7,0.2-1.1,0.2c-0.3,0-0.7,0-1-0.1c-0.4-0.1-0.7-0.2-0.9-0.3v-1.2H79z"/>
	</g>
	<g class="st0">
		<path class="st1" d="M34,26.9v-6.1l-0.8-0.1v-0.5h5.1l0.1,1.5h-0.6l-0.3-1h-2.3v2.7h1.6l0.1-0.8h0.6v2.3h-0.6L36.7,24h-1.6v2.8
			h2.7l0.5-1.3l0.6,0.2l-0.3,1.7h-5.5V27L34,26.9z"/>
		<path class="st1" d="M40.3,26.9V23l-0.7-0.2v-0.6l1.4-0.2h0l0.2,0.2v0.4l0,0.2c0.1-0.1,0.3-0.3,0.6-0.4c0.2-0.1,0.5-0.2,0.7-0.3
			c0.3-0.1,0.5-0.1,0.7-0.1c0.4,0,0.7,0.1,1,0.2c0.2,0.2,0.4,0.4,0.5,0.7c0.1,0.3,0.1,0.8,0.1,1.3v2.7l0.7,0.1v0.5h-2.4V27l0.6-0.1
			v-2.7c0-0.4,0-0.7-0.1-0.9c-0.1-0.2-0.1-0.4-0.3-0.5c-0.1-0.1-0.3-0.2-0.6-0.2c-0.2,0-0.5,0.1-0.7,0.2c-0.3,0.1-0.5,0.2-0.7,0.4
			v3.7l0.7,0.1v0.5h-2.4V27L40.3,26.9z"/>
		<path class="st1" d="M50.6,22.3l0,1.4h-0.7l-0.2-0.9c0-0.1-0.1-0.2-0.3-0.2c-0.1,0-0.3-0.1-0.5-0.1c-0.3,0-0.5,0.1-0.7,0.2
			c-0.2,0.1-0.4,0.4-0.5,0.7c-0.1,0.3-0.2,0.7-0.2,1.1c0,0.5,0.1,0.9,0.2,1.3c0.1,0.3,0.3,0.6,0.6,0.7c0.2,0.2,0.5,0.2,0.8,0.2
			c0.3,0,0.5,0,0.8-0.1c0.2-0.1,0.4-0.2,0.6-0.3l0.2,0.4c-0.1,0.1-0.3,0.2-0.5,0.3c-0.2,0.1-0.4,0.2-0.7,0.3s-0.5,0.1-0.7,0.1
			c-0.5,0-1-0.1-1.4-0.3s-0.7-0.6-0.9-1c-0.2-0.4-0.3-0.9-0.3-1.4c0-0.5,0.1-1,0.3-1.4c0.2-0.4,0.5-0.8,1-1c0.4-0.3,0.9-0.4,1.5-0.4
			C49.5,22,50,22.1,50.6,22.3z"/>
		<path class="st1" d="M52,26.9v-6.7l-0.8-0.1v-0.5l1.6-0.2h0l0.2,0.2l0,2.3l0,0.9c0.2-0.2,0.5-0.4,0.9-0.6c0.4-0.2,0.7-0.3,1.1-0.3
			c0.4,0,0.7,0.1,1,0.2c0.2,0.2,0.4,0.4,0.5,0.7c0.1,0.3,0.1,0.8,0.1,1.3v2.7l0.7,0.1v0.5h-2.4V27l0.6-0.1v-2.7c0-0.4,0-0.7-0.1-0.9
			c-0.1-0.2-0.1-0.4-0.3-0.5c-0.1-0.1-0.4-0.2-0.6-0.2c-0.2,0-0.5,0-0.7,0.1c-0.3,0.1-0.5,0.2-0.7,0.4v3.7l0.7,0.1v0.5h-2.4V27
			L52,26.9z"/>
		<path class="st1" d="M61.2,23.8c0-0.3,0-0.5-0.1-0.6c-0.1-0.1-0.2-0.3-0.3-0.3c-0.2-0.1-0.4-0.1-0.7-0.1c-0.5,0-1.1,0.1-1.7,0.4h0
			l-0.2-0.4c0.1-0.1,0.3-0.2,0.5-0.3c0.2-0.1,0.5-0.2,0.8-0.3c0.3-0.1,0.6-0.1,0.9-0.1c0.5,0,0.8,0.1,1.1,0.2
			c0.3,0.1,0.5,0.3,0.6,0.6c0.1,0.3,0.2,0.6,0.2,1.1v3h0.6v0.5c-0.5,0.1-0.8,0.2-1.1,0.2c-0.1,0-0.2,0-0.3,0c-0.1,0-0.1-0.1-0.2-0.1
			c0-0.1-0.1-0.2-0.1-0.3v-0.2c-0.2,0.2-0.4,0.3-0.7,0.5c-0.3,0.2-0.6,0.2-1,0.2c-0.3,0-0.6-0.1-0.8-0.2c-0.3-0.1-0.5-0.3-0.6-0.5
			c-0.2-0.2-0.2-0.5-0.2-0.9c0-0.4,0.1-0.8,0.4-1.1c0.3-0.3,0.7-0.5,1.2-0.6c0.5-0.1,1-0.2,1.6-0.2V23.8z M61.2,24.6
			c-0.5,0-0.9,0.1-1.2,0.2c-0.3,0.1-0.5,0.3-0.7,0.4s-0.2,0.4-0.2,0.6c0,0.3,0.1,0.6,0.3,0.7c0.2,0.2,0.4,0.2,0.7,0.2
			c0.2,0,0.3,0,0.6-0.1c0.2-0.1,0.4-0.2,0.6-0.3V24.6z"/>
		<path class="st1" d="M64.3,26.9V23l-0.7-0.2v-0.6L65,22h0l0.2,0.2v0.4l0,0.2c0.1-0.1,0.3-0.3,0.6-0.4s0.5-0.2,0.7-0.3
			s0.5-0.1,0.7-0.1c0.4,0,0.7,0.1,1,0.2c0.2,0.2,0.4,0.4,0.5,0.7c0.1,0.3,0.1,0.8,0.1,1.3v2.7l0.7,0.1v0.5h-2.4V27l0.6-0.1v-2.7
			c0-0.4,0-0.7-0.1-0.9c-0.1-0.2-0.1-0.4-0.3-0.5c-0.1-0.1-0.3-0.2-0.6-0.2c-0.2,0-0.5,0.1-0.7,0.2c-0.3,0.1-0.5,0.2-0.7,0.4v3.7
			l0.7,0.1v0.5h-2.4V27L64.3,26.9z"/>
		<path class="st1" d="M70.2,22.7v-0.5c0.1,0,0.2-0.1,0.3-0.1c0.1,0,0.2-0.1,0.2-0.1c0.1-0.1,0.2-0.2,0.3-0.4c0-0.1,0.1-0.3,0.2-0.6
			c0.1-0.3,0.1-0.4,0.2-0.6h0.6l0,1.5h1.6v0.7H72v2.9c0,0.4,0,0.7,0,0.8c0,0.2,0.1,0.2,0.1,0.3c0.1,0,0.2,0.1,0.4,0.1h0
			c0.2,0,0.4,0,0.6-0.1c0.2,0,0.4-0.1,0.5-0.1h0l0.2,0.5c-0.1,0.1-0.2,0.2-0.4,0.2c-0.2,0.1-0.4,0.2-0.6,0.2
			c-0.2,0.1-0.4,0.1-0.6,0.1h0c-0.4,0-0.7-0.1-0.9-0.3c-0.2-0.2-0.3-0.5-0.3-0.9v-3.7H70.2z"/>
		<path class="st1" d="M74.6,23.3c0.2-0.4,0.5-0.7,0.9-1c0.4-0.2,0.8-0.3,1.3-0.3c0.6,0,1.1,0.2,1.4,0.5c0.3,0.3,0.5,0.8,0.5,1.3V24
			c0,0.3,0,0.5-0.1,0.7h-3.4c0,0.5,0.1,0.9,0.2,1.2c0.1,0.3,0.3,0.5,0.6,0.7c0.2,0.1,0.5,0.2,0.8,0.2c0.3,0,0.5,0,0.8-0.1
			c0.3-0.1,0.5-0.2,0.7-0.3l0.2,0.5c-0.1,0.1-0.3,0.2-0.5,0.4c-0.2,0.1-0.5,0.2-0.7,0.3c-0.3,0.1-0.5,0.1-0.8,0.1
			c-0.5,0-1-0.1-1.4-0.3c-0.4-0.2-0.7-0.6-0.8-1c-0.2-0.4-0.3-0.9-0.3-1.4C74.3,24.2,74.4,23.7,74.6,23.3z M77.7,24.1
			c0-0.1,0-0.2,0-0.4c0-0.4-0.1-0.6-0.3-0.9c-0.2-0.2-0.4-0.3-0.8-0.3c-0.4,0-0.7,0.1-0.9,0.3c-0.2,0.2-0.3,0.6-0.4,1.2H77.7z
			 M77.7,18.7L77.7,18.7l0.8,0.7c-0.1,0.1-0.3,0.3-0.5,0.6c-0.3,0.2-0.5,0.5-0.8,0.7c-0.3,0.2-0.5,0.3-0.6,0.4h0l-0.4-0.4L77.7,18.7
			z"/>
		<path class="st1" d="M80,23.3c0.2-0.4,0.5-0.7,0.9-1c0.4-0.2,0.8-0.3,1.3-0.3c0.6,0,1.1,0.2,1.4,0.5c0.3,0.3,0.5,0.8,0.5,1.3V24
			c0,0.3,0,0.5-0.1,0.7h-3.4c0,0.5,0.1,0.9,0.2,1.2c0.1,0.3,0.3,0.5,0.6,0.7c0.2,0.1,0.5,0.2,0.8,0.2c0.3,0,0.5,0,0.8-0.1
			c0.3-0.1,0.5-0.2,0.7-0.3l0.2,0.5c-0.1,0.1-0.3,0.2-0.5,0.4c-0.2,0.1-0.5,0.2-0.7,0.3c-0.3,0.1-0.5,0.1-0.8,0.1
			c-0.5,0-1-0.1-1.4-0.3c-0.4-0.2-0.7-0.6-0.8-1c-0.2-0.4-0.3-0.9-0.3-1.4C79.7,24.2,79.8,23.7,80,23.3z M83.1,24.1
			c0-0.1,0-0.2,0-0.4c0-0.4-0.1-0.6-0.3-0.9c-0.2-0.2-0.4-0.3-0.8-0.3s-0.7,0.1-0.9,0.3c-0.2,0.2-0.3,0.6-0.4,1.2H83.1z"/>
		<path class="st1" d="M85.9,25.9l0.2,0.7c0,0.1,0.1,0.1,0.2,0.2c0.1,0.1,0.2,0.1,0.4,0.1c0.2,0,0.3,0.1,0.5,0.1
			c0.4,0,0.6-0.1,0.8-0.2c0.2-0.1,0.2-0.3,0.2-0.5c0-0.2-0.1-0.3-0.2-0.4c-0.1-0.1-0.3-0.2-0.5-0.3c-0.2-0.1-0.5-0.2-0.8-0.4
			c-0.5-0.2-0.9-0.4-1.1-0.7s-0.4-0.6-0.4-1c0-0.3,0.1-0.5,0.3-0.7c0.2-0.2,0.4-0.4,0.7-0.5c0.3-0.1,0.7-0.2,1-0.2
			c0.3,0,0.6,0,0.8,0.1c0.2,0,0.5,0.1,0.7,0.2l0.2,0.1v1.2h-0.6l-0.2-0.6c0-0.1-0.1-0.1-0.3-0.2c-0.2-0.1-0.4-0.1-0.6-0.1
			c-0.3,0-0.5,0.1-0.7,0.2c-0.2,0.1-0.2,0.3-0.2,0.5c0,0.2,0,0.3,0.1,0.4c0.1,0.1,0.2,0.2,0.4,0.3c0.1,0.1,0.3,0.2,0.6,0.3l0.2,0.1
			c0.4,0.2,0.7,0.3,0.9,0.4c0.2,0.1,0.4,0.3,0.6,0.5c0.2,0.2,0.2,0.5,0.2,0.8c0,0.3-0.1,0.6-0.3,0.8c-0.2,0.2-0.4,0.4-0.7,0.5
			c-0.3,0.1-0.7,0.2-1.1,0.2c-0.3,0-0.7,0-1-0.1c-0.4-0.1-0.7-0.2-0.9-0.3v-1.2H85.9z"/>
	</g>
	<g>
		<path class="st1" d="M7.6,15.4c-1.2,0-2.1-1-2.1-2.1s1-2.1,2.1-2.1s2.1,1,2.1,2.1S8.8,15.4,7.6,15.4z M7.6,11.7
			c-0.8,0-1.5,0.7-1.5,1.5c0,0.9,0.7,1.5,1.5,1.5s1.5-0.7,1.5-1.5C9.1,12.4,8.4,11.7,7.6,11.7z M19,14.7c-1.3,0-2.3-1-2.3-2.3
			s1-2.3,2.3-2.3c1.3,0,2.3,1,2.3,2.3S20.3,14.7,19,14.7z M19,10.6c-1,0-1.7,0.8-1.7,1.7c0,1,0.8,1.7,1.7,1.7c1,0,1.7-0.8,1.7-1.7
			C20.8,11.4,20,10.6,19,10.6z M23.1,12.2c-0.8,0-1.5,0.7-1.5,1.5s0.7,1.5,1.5,1.5s1.5-0.7,1.5-1.5S23.9,12.2,23.1,12.2z M18.5,21.2
			c-0.6,0-1,0.5-1,1s0.5,1,1,1s1-0.5,1-1S19.1,21.2,18.5,21.2z M7.2,22.5c-0.7,0-1.3,0.6-1.3,1.3c0,0.7,0.6,1.3,1.3,1.3
			s1.3-0.6,1.3-1.3S7.9,22.5,7.2,22.5z M9.2,26.4c-1.1,0-2,0.9-2,2c0,1.1,0.9,2,2,2s2-0.9,2-2C11.2,27.4,10.4,26.4,9.2,26.4z
			 M14.1,29c-0.6,0-1.1-0.5-1.1-1.1c0-0.6,0.5-1.1,1.1-1.1c0.6,0,1.1,0.5,1.1,1.1C15.2,28.5,14.7,29,14.1,29z M14.1,27.3
			c-0.3,0-0.5,0.3-0.5,0.5c0,0.3,0.3,0.5,0.5,0.5c0.3,0,0.5-0.3,0.5-0.5C14.7,27.6,14.4,27.3,14.1,27.3z M18.9,24.3
			c-1.3,0-2.4,1.1-2.4,2.4c0,1.3,1.1,2.4,2.4,2.4c1.3,0,2.4-1.1,2.4-2.4C21.3,25.3,20.2,24.3,18.9,24.3z M20.8,15.1
			c-1.5,0-2.6,1.2-2.6,2.6s1.2,2.6,2.6,2.6s2.6-1.2,2.6-2.6S22.3,15.1,20.8,15.1z M14.3,30.1c-1.3,0-2.4,1.1-2.4,2.4
			s1.1,2.4,2.4,2.4s2.4-1.1,2.4-2.4S15.6,30.1,14.3,30.1z M3.8,14.4c-1,0-1.8,0.8-1.8,1.8c0,1,0.8,1.8,1.8,1.8s1.8-0.8,1.8-1.8
			C5.6,15.2,4.8,14.4,3.8,14.4z M7.6,21.5c-1.3,0-2.4-1.1-2.4-2.4s1.1-2.4,2.4-2.4s2.4,1.1,2.4,2.4S8.9,21.5,7.6,21.5z M7.6,17.3
			c-1,0-1.8,0.8-1.8,1.8s0.8,1.8,1.8,1.8s1.8-0.8,1.8-1.8S8.6,17.3,7.6,17.3z M13.4,12.6c-1.8,0-3.3,1.5-3.3,3.3
			c0,1.8,1.5,3.3,3.3,3.3s3.3-1.5,3.3-3.3S15.2,12.6,13.4,12.6z M12.8,20.3c-1.6,0-2.8,1.3-2.8,2.8c0,1.6,1.3,2.8,2.8,2.8
			s2.8-1.3,2.8-2.8S14.4,20.3,12.8,20.3z"/>
		<path class="st1" d="M13.8,11h-1c0-4.9,1.8-9.1,1.8-9.1h3C14.1,5.6,13.8,11,13.8,11z M9.5,5.7c1.2,1.2,3.4,1,3.4,1s0.2-2.2-1-3.4
			s-3.4-1-3.4-1S8.3,4.5,9.5,5.7z"/>
	</g>
</g>
</svg>
