<?xml version="1.0" encoding="utf-8"?>
<!-- Generator: Adobe Illustrator 24.0.2, SVG Export Plug-In . SVG Version: 6.00 Build 0)  -->
<svg version="1.1" id="Stripelight-logo" xmlns="http://www.w3.org/2000/svg" xmlns:xlink="http://www.w3.org/1999/xlink" x="0px"
	 y="0px" viewBox="0 0 179.6 31.7" style="enable-background:new 0 0 179.6 31.7;" xml:space="preserve">
<style type="text/css">
	.st0{fill:#FFFFFF;}
</style>
<g>
	<polygon class="st0" points="17.5,6.5 14.9,9 15,9.1 12.1,9.1 12.1,21.9 8,21.9 8,9.1 2.4,9.1 2.4,6.5 	"/>
	<polygon class="st0" points="17.7,6.5 17.7,6.6 17.6,6.5 	"/>
	<path class="st0" d="M24.3,13.8L24.3,13.8c1.9-0.5,4.1-1.6,4.1-3.9c0-2.5-2-3.5-4.3-3.5h-6.5l0.1,0.1L20.1,9l-2.6,2.6l0,0v10.3h6.8
		c3.8,0,4.8-2.2,4.8-3.8C29,15.4,26.6,14.2,24.3,13.8z M21.2,9h1.2c0.8,0,1.9,0.1,1.9,1.5c0,1.1-0.6,2.2-2.3,2.2
		c-0.2,0-0.5,0-0.8-0.1V9z M22.9,19.3c-0.7,0-1.2,0-1.7-0.1v-4.1c2.1,0,3.7,0.6,3.7,2.5C24.9,18.9,23.8,19.3,22.9,19.3z"/>
	<polyline class="st0" points="31.5,6.5 40,6.5 40,8 33.6,8 33.6,13.1 39,13.1 39,14.6 33.6,14.6 33.6,20.3 40.4,20.3 40.4,21.9 
		31.5,21.9 31.5,6.5 	"/>
	<polyline class="st0" points="45.7,16.1 41.7,10.6 44.2,10.6 47.4,14.9 50.4,10.6 52.4,10.6 48.5,16.3 52.7,21.9 50.1,21.9 
		46.8,17.5 43.6,21.9 41.5,21.9 45.7,16.1 	"/>
	<path class="st0" d="M57.1,12.7h0.1c0.7-1.5,2.1-2.4,3.8-2.4c3.2,0,4.4,2.8,4.4,5.6c0,2.9-1.4,6.2-4.7,6.2c-1.4,0-2.5-0.4-3.4-1.5
		h-0.1l0.1,1.5V26h-2V10.6h2L57.1,12.7 M57.3,19.2c1,0.9,1.7,1.4,3.1,1.4c2.3,0,2.9-2.6,2.9-4.4c0-1.7-0.4-4-2.6-4
		c-1.3,0-2.5,0.9-3.4,1.9V19.2z"/>
	<path class="st0" d="M69.5,16.5c0.1,2.4,1.3,4,3.8,4c1.1,0,2.2-0.3,3.2-0.7v1.6c-1.1,0.4-2.3,0.6-3.8,0.6c-4.6,0-5.4-4-5.4-5.9
		c0-2.9,1.6-5.9,4.8-5.9c3.6,0,4.4,3.3,4.3,6.2H69.5 M74.3,15.1c0-1.5-0.4-3.3-2.3-3.3c-1.7,0-2.4,1.8-2.5,3.3H74.3z"/>
	<path class="st0" d="M81.5,12.7h0.1c0.7-1.4,2-2.4,3.6-2.4h0.6v2c-0.3-0.1-0.6-0.2-0.9-0.2c-1.5,0-2.6,1.1-3.3,2.3v7.4h-2V10.6h2
		L81.5,12.7"/>
	<path class="st0" d="M92.7,10.6v1.5H90v6c0,1.4,0.2,2.5,1.9,2.5c0.3,0,0.7,0,1-0.1v1.4c-0.5,0.1-1.1,0.3-1.6,0.3
		c-2.7,0-3.3-2.1-3.3-3.2v-6.8h-1.4v-1.5H88V8.5l2-0.2v2.3H92.7"/>
	<path class="st0" d="M95.4,6.5h2v2h-2V6.5z M95.4,10.6h2v11.3h-2V10.6z"/>
	<path class="st0" d="M100.7,19.6c1,0.5,2.3,1,3.4,1c1,0,2.1-0.5,2.1-1.7c0-2.4-5.5-1.7-5.5-5.4c0-2.1,1.6-3.1,3.9-3.1
		c0.9,0,1.6,0.1,2.8,0.3v1.7c-0.9-0.3-1.8-0.5-2.7-0.5c-0.9,0-2,0.4-2,1.4c0,2.1,5.6,1.7,5.6,5.4c0,2.4-2.1,3.4-4.2,3.4
		c-1.1,0-2.3-0.3-3.3-0.6V19.6"/>
	<g>
		<path class="st0" d="M112.8,16.5c0.1,2.4,1.3,4,3.8,4c1.1,0,2.2-0.3,3.2-0.7v1.6c-1.1,0.4-2.3,0.6-3.8,0.6c-4.6,0-5.4-4-5.4-5.9
			c0-2.9,1.6-5.9,4.8-5.9c3.6,0,4.4,3.3,4.3,6.2H112.8 M117.6,15.1c0-1.5-0.4-3.3-2.3-3.3c-1.7,0-2.4,1.8-2.5,3.3H117.6z"/>
	</g>
	<polygon class="st0" points="17.6,6.5 17.5,6.5 17.5,6.4 	"/>
</g>
</svg>
