<?xml version="1.0" encoding="utf-8"?>
<!-- Generator: Adobe Illustrator 24.0.2, SVG Export Plug-In . SVG Version: 6.00 Build 0)  -->
<svg version="1.1" id="Stripelight-logo" xmlns="http://www.w3.org/2000/svg" xmlns:xlink="http://www.w3.org/1999/xlink" x="0px"
	 y="0px" viewBox="0 0 179.2 31.7" style="enable-background:new 0 0 179.2 31.7;" xml:space="preserve">
<style type="text/css">
	.st0{fill:#FFFFFF;}
</style>
<g>
	<path class="st0" d="M9.9,25.2c-0.2,0.3-0.2,0.4-0.6,0.4H5.3c-0.4,0-0.6-0.1-0.6-0.6L3.5,4.8H2c-0.3,0-0.4-0.2-0.4-0.4
		c0-0.1,0-0.3,0.1-0.4L2,2.1c0.1-0.4,0.2-0.5,0.6-0.5h4.8C7.9,1.6,8,1.7,8,2.2L8,16.4c0,2-0.1,4.2-0.1,5.6h0.1
		c0.6-1.6,1.4-3.8,2.2-5.6l6.3-14.4c0.1-0.3,0.2-0.4,0.6-0.4H22c0.3,0,0.4,0.2,0.4,0.4c0,0.1,0,0.3-0.1,0.4L22,4.3
		c-0.1,0.4-0.2,0.5-0.6,0.5h-1.5L9.9,25.2z"/>
	<path class="st0" d="M21.3,24.9c-0.1,0.3-0.1,0.3-0.4,0.3h-2.6c-0.2,0-0.4-0.1-0.4-0.2c0-0.1,0-0.2,0-0.4l1.9-8.4
		c0.1-0.6,0.3-1.3,0.3-2.2h-1.6c-0.2,0-0.4-0.1-0.4-0.3c0-0.1,0-0.2,0.1-0.3l0.3-1.5c0.1-0.3,0.1-0.3,0.4-0.3h3.7
		c0.6,0,0.6,2,0.6,2.4c0.7-0.8,2.2-2.8,4.3-2.8c0.4,0,0.9,0.1,0.9,0.4c0,0.1,0,0.1-0.1,0.2l-1.2,2.8c0,0.1-0.1,0.1-0.2,0.1
		c-0.2,0-0.5-0.2-0.9-0.2c-2.1,0-3.3,3.2-3.8,5L21.3,24.9z"/>
	<path class="st0" d="M32.8,25.7c-2.9,0-4.7-1.5-4.7-5c0-5.1,3.3-9.6,7.9-9.6c2.8,0,4.5,1.5,4.5,5C40.5,21.3,37.2,25.7,32.8,25.7z
		 M36.9,15.9c0-1.3-0.5-2-1.7-2c-2.6,0-3.7,4.4-3.7,7.1c0,1.3,0.5,2,1.7,2C35.8,23,36.9,18.6,36.9,15.9z"/>
	<path class="st0" d="M47.2,24.7c0,0.1,0,0.2,0,0.3c0,0.4-1.7,0.8-2.8,0.8c-1.6,0-2.7-0.5-2.7-2.3c0-1,0.1-2,0.3-2.9l2.7-12.6h-1.6
		c-0.2,0-0.4-0.1-0.4-0.2c0-0.1,0-0.3,0.1-0.4l0.3-1.5c0.1-0.3,0.1-0.3,0.4-0.3h4.6c0.2,0,0.4,0.1,0.4,0.2c0,0.1,0,0.3-0.1,0.4
		l-3.1,14.4c-0.1,0.7-0.3,1.4-0.3,1.7c0,0.4,0.2,0.6,0.6,0.6c0.5,0,0.9-0.2,1-0.2c0.1,0,0.2,0,0.2,0.2L47.2,24.7z"/>
	<path class="st0" d="M55.2,24.9c-0.1,0.3-0.1,0.3-0.4,0.3h-2.3c-1.1,0-2.5-0.2-2.5-1.7c0-0.4,0.1-0.8,0.2-1.2l1.8-8.2h-2.1
		c-0.2,0-0.4-0.1-0.4-0.3c0-0.1,0-0.2,0.1-0.3l0.3-1.5c0.1-0.3,0.1-0.3,0.4-0.3h5.1c0.2,0,0.3,0.1,0.3,0.3c0,0.1,0,0.2-0.1,0.4
		l-2.2,10.5h1.8c0.2,0,0.4,0.1,0.4,0.3c0,0.1,0,0.2-0.1,0.3L55.2,24.9z M54.8,9.8c-1.2,0-2.3-1-2.3-2.3c0-1.4,1.2-2.3,2.3-2.3
		c1.1,0,2.3,0.9,2.3,2.3C57.1,8.8,56.1,9.8,54.8,9.8z"/>
	<path class="st0" d="M61.3,25c-0.6,2.6-1.3,6.7-5.8,6.7c-1.3,0-2.7-0.5-2.7-0.7c0-0.1,0-0.2,0.1-0.3l0.7-2c0.1-0.2,0.1-0.2,0.3-0.2
		c0.3,0,0.8,0.5,1.6,0.5c1.8,0,2.2-2.3,2.5-4l2.3-10.9h-2.1c-0.2,0-0.4-0.1-0.4-0.3c0-0.1,0-0.2,0.1-0.3l0.3-1.5
		c0.1-0.3,0.1-0.3,0.4-0.3h5.1c0.2,0,0.3,0.1,0.3,0.3c0,0.1,0,0.2-0.1,0.4L61.3,25z M63.2,9.8c-1.2,0-2.3-1-2.3-2.3
		c0-1.4,1.2-2.3,2.3-2.3c1.1,0,2.3,0.9,2.3,2.3C65.5,8.8,64.4,9.8,63.2,9.8z"/>
	<path class="st0" d="M77,24.9c-0.1,0.3-0.1,0.3-0.4,0.3h-3.1c-0.2,0-0.3,0-0.4-0.2l-3.6-6.4l-1.4,6.4c-0.1,0.3-0.1,0.3-0.4,0.3
		h-2.6c-0.2,0-0.4-0.1-0.4-0.3c0-0.2,0.1-0.4,0.1-0.6l3.5-16.5h-1.6c-0.2,0-0.4-0.1-0.4-0.3c0-0.1,0-0.2,0.1-0.3l0.3-1.5
		c0.1-0.3,0.1-0.3,0.4-0.3h4.7c0.2,0,0.4,0.1,0.4,0.3c0,0.1,0,0.2-0.1,0.4l-2.4,11.4l4.5-3.3v-0.1h-1.5c-0.2,0-0.4-0.1-0.4-0.3
		c0-0.1,0-0.2,0.1-0.3l0.3-1.5c0.1-0.3,0.1-0.3,0.4-0.3h6.4c0.2,0,0.4,0.1,0.4,0.3c0,0.1,0,0.2-0.1,0.3l-0.3,1.5
		c-0.1,0.3-0.1,0.3-0.4,0.3h-1.2L72.7,18l2.8,4.8H77c0.2,0,0.4,0.1,0.4,0.3c0,0.1,0,0.2-0.1,0.3L77,24.9z"/>
</g>
<rect x="99.5" y="17.9" class="st0" width="7.4" height="7.4"/>
<rect x="93" y="11.6" class="st0" width="7.4" height="7.4"/>
<rect x="86.6" y="18" class="st0" width="7.4" height="7.4"/>
<rect x="99.5" y="5.2" class="st0" width="7.4" height="7.4"/>
</svg>
