<?xml version="1.0" encoding="utf-8"?>
<!-- Generator: Adobe Illustrator 26.5.0, SVG Export Plug-In . SVG Version: 6.00 Build 0)  -->
<svg version="1.1" id="Stripelight-logo" xmlns="http://www.w3.org/2000/svg" xmlns:xlink="http://www.w3.org/1999/xlink" x="0px"
	 y="0px" viewBox="0 0 145.7 31.7" style="enable-background:new 0 0 145.7 31.7;" xml:space="preserve">
<style type="text/css">
	.st0{fill:#FFFFFF;}
</style>
<g id="Group_3175" transform="translate(-50.07 -23.888)">
	<path id="Path_2370" class="st0" d="M63.9,51.1l-2-4.8l2.5-5.8H63l-1.8,4.4l-1.8-4.3h-1.3l2.5,5.8l-2,4.8l-4.4-10.6h-1.3L58,52.9
		h1.1l2.1-5.1l2.1,5.1h1.1l5.1-12.3h-1.3L63.9,51.1z"/>
	<g id="Group_3174" transform="translate(89.408 23.888)">
		<path id="Path_2371" class="st0" d="M-6.3,27.9h-0.2c-0.9,0.2-1.1-0.4-1.4-1.6C-8,26.1-8,25.8-8.1,25.6c-0.2-0.9-0.7-1.7-1.5-2.2
			c1.4-0.4,2.2-1.7,2.2-3.1c0-2.1-1.5-3.4-4-3.4H-15v12.3h1.2v-5.3h1.7c1.7,0,2.5,1,2.9,2.3c0.1,0.3,0.2,0.5,0.2,0.9
			c0.3,1.2,0.7,2.3,2,2.3c0.2,0,0.4,0,0.6-0.1h0.2L-6.3,27.9z M-13.9,17.9h2.6c1.7,0,2.7,0.9,2.7,2.2c0,1.4-1,2.2-2.7,2.2h-2.6
			C-13.9,22.4-13.9,17.9-13.9,17.9z"/>
		<path id="Path_2372" class="st0" d="M0.9,16.9h-1V29h1.2V16.9H0.9z"/>
		<path id="Path_2373" class="st0" d="M11.8,14.5c-1.5-0.5-2.9-1-2.9-2.6c0-1.2,1.1-2,2.7-2c1,0,1.9,0.3,2.8,0.9l0.2,0.1l0.6-1
			l-0.1-0.1c-1-0.6-2.1-1.1-3.4-1.1c-2.3,0-3.8,1.3-3.8,3.2c0,2.5,1.9,3.1,3.7,3.6c1.6,0.4,2.9,0.9,2.9,2.5c0,1.4-1.1,2.2-2.9,2.2
			c-1.2,0-2.3-0.3-3.3-1L8,19.2l-0.6,1l0.1,0.1c1.2,0.7,2.6,1.2,4,1.2c2.5,0,4.1-1.3,4.1-3.4C15.5,15.5,13.5,15,11.8,14.5"/>
		<path id="Path_2374" class="st0" d="M19.3,16.7v1.2H24V29h1.2V17.9h4.7v-1.2C29.8,16.7,19.3,16.7,19.3,16.7z"/>
		<path id="Path_2375" class="st0" d="M35.8,27.7v-11h-1.2V29h7.7v-1.2h-6.5V27.7z"/>
		<path id="Path_2376" class="st0" d="M48.4,27.7v-4.4h5v-1.2h-5v-4.4h6.3v-1.2h-7.5v12.3h7.6v-1.2C54.8,27.7,48.4,27.7,48.4,27.7z"
			/>
		<path id="Path_2377" class="st0" d="M69.3,27.9h-0.2c-0.9,0.2-1.1-0.4-1.4-1.6c0-0.3-0.1-0.5-0.1-0.7c-0.2-0.9-0.7-1.7-1.5-2.2
			c1.4-0.4,2.2-1.7,2.2-3.1c0-2.1-1.5-3.4-4-3.4h-3.7v12.3h1.2v-5.3h1.7c1.7,0,2.5,1,2.9,2.3c0.1,0.3,0.2,0.5,0.2,0.9
			c0.3,1.2,0.7,2.3,2,2.3c0.2,0,0.4,0,0.6-0.1h0.2L69.3,27.9z M67.1,20.1c0,1.4-1,2.2-2.7,2.2h-2.6v-4.5h2.6
			C66.1,17.9,67.1,18.6,67.1,20.1"/>
		<path id="Path_2378" class="st0" d="M16.6,28.9h-1.2c0-2.2-1.8-4.1-4.1-4.1s-4.1,1.8-4.1,4.1l0,0H6.2c0-2.9,2.3-5.2,5.2-5.2
			C14.2,23.7,16.6,26,16.6,28.9"/>
	</g>
</g>
</svg>
