<?xml version="1.0" encoding="utf-8"?>
<!-- Generator: Adobe Illustrator 24.3.0, SVG Export Plug-In . SVG Version: 6.00 Build 0)  -->
<svg version="1.1" id="Stripelight-logo" xmlns="http://www.w3.org/2000/svg" xmlns:xlink="http://www.w3.org/1999/xlink" x="0px"
	 y="0px" viewBox="0 0 134.1 55.7" style="enable-background:new 0 0 134.1 55.7;" xml:space="preserve">
<style type="text/css">
	.st0{fill:#FFFFFF;}
</style>
<g>
	<path class="st0" d="M2.5,17v36.9h34.4V17H2.5z M10.1,47.2c0.2,0,0.3,0,0.5,0l0.1,0.9c-0.1,0-0.3,0-0.4,0.1c-0.1,0-0.3,0-0.5,0
		c-0.8,0.1-1.6-0.6-1.6-1.4c0-0.1,0-0.1,0-0.2c0-1,0.6-1.6,1.7-1.6c0.3,0,0.5,0,0.8,0.1l-0.1,0.9c-0.1,0-0.3,0-0.4,0
		c-0.7,0-0.8,0.4-0.8,0.7C9.3,46.8,9.5,47.2,10.1,47.2z M11.9,47.3c-0.4,0-0.8-0.3-0.8-0.8c0-0.4,0.3-0.8,0.8-0.8h0
		c0.4,0,0.8,0.3,0.8,0.8C12.7,46.9,12.3,47.3,11.9,47.3z M13.3,33c0-0.4,0-0.7,0.1-1.1c0-0.3-0.1-0.6-0.1-0.9c0-0.1,0-0.2,0-0.4
		c0,0.1,0,0.2,0,0.4c0-3.6,2.2-8.1,7-8.1l5.7,0V24h0v0.3h-5.7c-1.8,0-3.5,0.7-4.7,2c-1.1,1.1-1.8,2.6-1.9,4.1c0.8-2.9,3-5.5,6.6-5.5
		l5.7,0V26h0v0.3h-5.7c-1.8,0-3.5,0.7-4.7,2c-1,1-1.6,2.3-1.9,3.6c0,0.1,0,0.1,0,0.2c0.9-2.7,3-5.2,6.5-5.2l5.7,0v1.1h0v0.3h-5.7
		c-1.8,0-3.5,0.7-4.7,2c-0.7,0.7-1.3,1.6-1.6,2.5c1,2.4,3.7,3.7,6.3,3.7H26v1.1h0c0,0,0,0,0,0h0V38l-3.4,0c0,0-0.1,0-0.1,0
		c-0.3,0-0.6,0-0.9,0l-1.3,0c-2.9,0-5.5-1.8-6.5-4.4c0,0.1-0.1,0.2-0.1,0.4c0.6,2.9,3.6,4.6,6.6,4.6l5.7,0v1.1H26v0H26V40l-5.7,0
		c-3.1,0-5.7-2-6.7-4.8c0,0.1,0,0.2,0,0.3c0.3,3.3,3.5,5.1,6.6,5.1H26v1.1h0c0,0,0,0,0,0h0v0.3l-5.7,0c-3.9,0-7-3.1-7-7
		c0-0.4,0-0.7,0.1-1.1C13.4,33.7,13.3,33.3,13.3,33z M15.3,47.2c0.2,0,0.3,0,0.5,0l0.1,0.9c-0.1,0-0.3,0-0.4,0.1c-0.1,0-0.3,0-0.5,0
		c-0.8,0.1-1.6-0.6-1.6-1.4c0-0.1,0-0.1,0-0.2c0-1,0.6-1.6,1.7-1.6c0.3,0,0.5,0,0.8,0.1l-0.1,0.9c-0.1,0-0.3,0-0.4,0
		c-0.7,0-0.8,0.4-0.8,0.7C14.5,46.8,14.6,47.2,15.3,47.2z M17.3,48h-1.1l0-3h1.1L17.3,48z M20.6,48h-1.3l-0.7-1.8h0l0,1.8h-1l0-3H19
		l0.7,1.7h0l0-1.7h1L20.6,48z M23.5,45.8h-1.4v0.3h1.4l0,0.8h-1.4l0,0.3h1.4l0,0.8H21l0-3h2.5L23.5,45.8z M27.1,48l-0.2-2.3h0
		L26.6,48h-1.3L25,45.7h0L24.7,48h-1l0.6-3h1.4l0.3,2.3h0l0.4-2.3h1.3l0.5,3H27.1z M30.6,48l-0.1-0.5h-1L29.3,48h-1.2l1.1-3h1.4
		l1.1,3H30.6z"/>
	<polygon class="st0" points="29.9,45.8 29.7,47 30.2,47 30,45.8 	"/>
</g>
</svg>
