<?xml version="1.0" encoding="utf-8"?>
<!-- Generator: Adobe Illustrator 25.2.1, SVG Export Plug-In . SVG Version: 6.00 Build 0)  -->
<svg version="1.1" id="Stripelight-logo" xmlns="http://www.w3.org/2000/svg" xmlns:xlink="http://www.w3.org/1999/xlink" x="0px"
	 y="0px" viewBox="0 0 179.2 31.7" style="enable-background:new 0 0 179.2 31.7;" xml:space="preserve">
<style type="text/css">
	.st0{fill:#FFFFFF;}
</style>
<g id="Group_251" transform="translate(-93 64.046)">
	<g id="Group_183" transform="translate(155.458 -54.185)">
		<path id="Path_81" class="st0" d="M-21.3,4.3h3.2c1.5-0.2,2.8,0.9,2.8,2.4c0,0.2,0,0.2,0,0.4c0,1.6-1.2,2.7-2.9,2.7h-1.3v2.5h-1.9
			L-21.3,4.3L-21.3,4.3z M-18.5,8.2c0.6,0.1,1.2-0.3,1.3-1c0-0.1,0-0.2,0-0.2c0-0.6-0.5-1.2-1.1-1.2c-0.1,0-0.2,0-0.2,0h-0.9v2.4
			L-18.5,8.2z"/>
	</g>
	<g id="Group_185" transform="translate(167.376 -54.185)">
		<path id="Path_83" class="st0" d="M-25.7,4.3h5.5v1.5h-3.6v1.6h3.3V9h-3.3v1.6h3.6v1.5h-5.5V4.3z"/>
	</g>
	<g id="Group_186" transform="translate(178.7 -54.185)">
		<path id="Path_84" class="st0" d="M-29.9,4.3h5.5v1.5h-3.6v1.6h3.3V9h-3.3v1.6h3.6v1.5h-5.5V4.3z"/>
	</g>
	<g id="Group_187" transform="translate(189.619 -54.185)">
		<path id="Path_85" class="st0" d="M-33.8,4.3h6.7v1.5h-2.4v6.4h-1.8V5.8h-2.4L-33.8,4.3L-33.8,4.3z"/>
	</g>
	<g id="Group_188" transform="translate(202.373 -54.185)">
		<path id="Path_86" class="st0" d="M-38.4,4.3h5.5v1.5h-3.6v1.6h3.3V9h-3.3v1.6h3.6v1.5h-5.5V4.3z"/>
	</g>
	<g id="Group_189" transform="translate(213.697 -54.185)">
		<path id="Path_87" class="st0" d="M-42.6,4.3h3.2c1.8,0,2.8,1,2.8,2.6c0.1,1-0.5,1.8-1.4,2.3l1.6,3h-2.1l-1.5-2.7h-1v2.7h-1.9V4.3
			H-42.6z M-39.8,8c0.8,0,1.3-0.3,1.3-1.1s-0.5-1.1-1.3-1.1h-0.9V8H-39.8z"/>
	</g>
	<g id="Group_190" transform="translate(230.596 -51.862)">
		<path id="Path_88" class="st0" d="M-48.8,3.5c-0.8,0-1.1,0.3-1.1,0.8s0.5,0.7,1.2,0.8l0.7,0.2c1.5,0.3,2.4,1.2,2.4,2.4
			c0,1.5-1.2,2.4-3.1,2.4s-3.2-0.9-3.3-2.8h1.8c0.1,0.8,0.6,1.2,1.5,1.2c0.8,0,1.2-0.3,1.2-0.8c0-0.5-0.4-0.7-1.2-0.9l-0.8-0.2
			c-1.4-0.3-2.2-1-2.2-2.2c0-1.5,1.3-2.5,3.1-2.5c1.8,0,3,1,3,2.5h-1.8C-47.6,3.8-48,3.5-48.8,3.5"/>
	</g>
	<g id="Group_191" transform="translate(248.171 -51.71)">
		<path id="Path_89" class="st0" d="M-55.1,3.4c-1.2,0-1.8,0.8-1.8,2.4s0.7,2.4,1.8,2.4c1,0,1.6-0.5,1.6-1.4h-1.5V5.4h3.4v1.1
			c0,2.1-1.5,3.4-3.5,3.4c-2.2,0-3.8-1.5-3.8-4.1c0-2.6,1.7-4.1,3.8-4.1c1.8,0,3.2,1.2,3.5,2.7h-1.9C-53.8,3.7-54.4,3.4-55.1,3.4"/>
	</g>
	<g id="Group_192" transform="translate(256.191 -54.185)">
		<path id="Path_90" class="st0" d="M-58.1,4.3h3.2c1.8,0,2.8,1,2.8,2.6c0.1,1-0.5,1.8-1.4,2.3l1.6,3h-2.1l-1.5-2.7h-1v2.7h-1.9V4.3
			H-58.1z M-55.2,8c0.8,0,1.3-0.3,1.3-1.1s-0.5-1.1-1.3-1.1h-0.9V8H-55.2z"/>
	</g>
	<g id="Group_193" transform="translate(274.059 -41.529)">
		<path id="Path_91" class="st0" d="M-64.6-0.3c-2.1,0-3.8-1.5-3.8-4.1s1.6-4.1,3.8-4.1c2.1,0,3.8,1.5,3.8,4.1S-62.5-0.3-64.6-0.3
			 M-64.6-6.8c-1.2,0-1.8,0.8-1.8,2.4S-65.8-2-64.6-2c1.2,0,1.8-0.8,1.8-2.4S-63.5-6.8-64.6-6.8"/>
	</g>
	<g id="Group_194" transform="translate(293.017 -54.185)">
		<path id="Path_92" class="st0" d="M-71.5,4.3v5.1c0,1.8-1.3,2.9-3.3,2.9c-2,0-3.3-1.2-3.3-2.9V4.3h1.9v4.9c0,0.8,0.5,1.4,1.3,1.4
			c0.1,0,0.1,0,0.2,0c0.8,0,1.4-0.5,1.5-1.3c0-0.1,0-0.1,0-0.2V4.3H-71.5z"/>
	</g>
	<g id="Group_195" transform="translate(295.698 -54.185)">
		<path id="Path_93" class="st0" d="M-72.5,4.3h3.2c1.5-0.2,2.8,0.9,2.8,2.4c0,0.2,0,0.2,0,0.4c0,1.6-1.2,2.7-2.9,2.7h-1.2v2.5h-1.9
			V4.3z M-69.6,8.2c0.6,0.1,1.2-0.4,1.3-1c0-0.1,0-0.2,0-0.2c0-0.6-0.5-1.2-1.1-1.2c-0.1,0-0.2,0-0.2,0h-0.9v2.4L-69.6,8.2z"/>
	</g>
	<g id="Group_196" transform="translate(97.338 -53.105)">
		<path id="Path_94" class="st0" d="M-0.1,3.9c-0.3,0.4-0.2,0.9,0.2,1.2c0,0.1,9.4,5.5,9.4,5.5c0.4,0.2,0.9,0.1,1.2-0.3l0,0
			c0.2-0.2,0.2-0.5,0-0.8L5.2,0.1C5-0.4,4.5-0.5,4.2-0.3l0,0c-0.1,0-0.1,0.1-0.1,0.1C2.4,0.8,1,2.2-0.1,3.9L-0.1,3.9z"/>
	</g>
	<g id="Group_197" transform="translate(93.007 -40.643)">
		<path id="Path_95" class="st0" d="M1.4-0.7c0,0.5,0.3,0.8,0.8,0.9h10.9c0.5,0,0.8-0.4,0.8-0.8l0,0c0-0.3-0.2-0.6-0.5-0.8L4.1-6.7
			C3.7-7,3.2-6.8,2.9-6.4v0.1C2.1-4.6,1.6-2.6,1.4-0.7"/>
	</g>
	<g id="Group_198" transform="translate(143.612 -40.643)">
		<path id="Path_96" class="st0" d="M-17-0.7c-0.2-2-0.7-3.9-1.5-5.8c-0.2-0.4-0.7-0.6-1.1-0.4l0,0c0,0-0.1,0-0.1,0.1l-9.4,5.4
			c-0.4,0.2-0.5,0.8-0.3,1.2c0.2,0.3,0.4,0.5,0.7,0.5h10.8C-17.4,0.2-17-0.1-17-0.7C-17-0.6-17-0.6-17-0.7L-17-0.7z"/>
	</g>
	<g id="Group_199" transform="translate(124.084 -42.619)">
		<path id="Path_97" class="st0" d="M-9.9,0.1l9.4-5.4C-0.1-5.5,0-6.1-0.2-6.4c0,0,0-0.1-0.1-0.1c-1.1-1.6-2.5-3.1-4.1-4.1
			c-0.4-0.3-0.9-0.2-1.2,0.2c0,0,0,0.1-0.1,0.1c0,0,0,0,0,0.1l-5.5,9.3c-0.2,0.4-0.1,0.9,0.3,1.2l0,0C-10.5,0.2-10.2,0.2-9.9,0.1"/>
	</g>
	<g id="Group_200" transform="translate(121.349 -44.974)">
		<path id="Path_98" class="st0" d="M-8.9,0.9l5.4-9.4c0.2-0.4,0.1-0.9-0.3-1.2l0,0H-4c-1.8-0.8-3.7-1.4-5.7-1.5
			c-0.5,0-0.9,0.3-1,0.8V0.5c0,0.5,0.4,0.8,0.8,0.8l0,0C-9.4,1.4-9.1,1.2-8.9,0.9"/>
	</g>
	<g id="Group_201" transform="translate(107.368 -61.615)">
		<path id="Path_99" class="st0" d="M-3.9,7c-0.4,0.2-0.6,0.7-0.4,1.2v0.1l5.5,9.4C1.4,18,2,18.2,2.4,17.9c0.3-0.2,0.5-0.4,0.5-0.7
			V6.3c0-0.5-0.4-0.8-0.8-0.8l0,0H1.9C-0.1,5.7-2,6.1-3.9,7L-3.9,7z"/>
	</g>
</g>
</svg>
