<?xml version="1.0" encoding="utf-8"?>
<!-- Generator: Adobe Illustrator 23.1.1, SVG Export Plug-In . SVG Version: 6.00 Build 0)  -->
<svg version="1.1" id="Stripelight-logo" xmlns="http://www.w3.org/2000/svg" xmlns:xlink="http://www.w3.org/1999/xlink" x="0px"
	 y="0px" viewBox="0 0 145.7 31.7" style="enable-background:new 0 0 145.7 31.7;" xml:space="preserve">
<style type="text/css">
	.st0{fill:#FFFFFF;}
</style>
<g>
	<path class="st0" d="M71.9,11.6c-0.1-0.9-0.6-1.7-1.3-2c-1-0.4-2.4-0.4-3.9,1.1c-0.9,0.9-2.3,2.1-6.7,7.5c0.1-0.7,0.1-0.7,0.3-1.5
		c0.6-2.4,2.1-3.5,0.3-4.4c-0.4-0.2-0.9-0.3-1.1-0.3c-1.3,0.1-1.9,2.3-2.3,3.7c-0.1,0.5-0.3,1.1-0.4,1.7c0,0,0,0.1-0.1,0.1
		c-1.2,2.7-1.5,3.5-3.1,5.6c-3.1,4.3-6.9,4.3-7.1,0c0-0.5-0.1-0.7-0.1-0.8c0.4,0.7,1.5,1,2.5,0.7c3.3-0.9,5.4-6.4,4.1-10.1
		c-0.5-1.4-1.9-1.3-3.7-0.6c-0.5,0.2-1.3,0-1.9,0.2c-1.1,0.4-2,1.3-2.6,2.5c-2,4.1-2,8.2-1.2,10.6c1.5,4.9,8.5,5,12.6-3.5
		c-0.1,0.9-0.1,1.8-0.1,2.5c0,1.4,0,2.5,0.1,2.8c0.1,0.5,0.3,1.4,1.3,1.5c0.3,0,0.9,0,1.1-0.1c1-0.2,1.5-0.6,1.3-2.1
		c-0.1-0.7-0.3-1.9-0.3-3.7c0-0.7,0-1.3,0.1-2.1c1-1.1,2.4-2.5,3.3-3.5c1.1-1.1,3.1-3,3.9-3.6c0.9-0.7,1.7-0.9,2.3,0
		c0.3,0.5,0.5,0.8,0.8,0.9c0.4,0.1,0.9-0.1,1.2-0.4C71.9,13.8,72,12.2,71.9,11.6 M49.1,15c0.4-0.1,0.9,0,1,0.3
		c0.7,1.9-0.1,5-1.5,5.6c-0.7,0.3-1.4,0-1.7-0.8C46.5,19,47.8,15.5,49.1,15"/>
	<path class="st0" d="M31.1,22.7c-0.3,0-0.5,0.4-0.7,1.1c-1.8,4.4-3.8,2.4-3.3-1.6c0.1-1.3,0.3-2.2,0.7-4c0.2-1.1,0.3-1.7,0.6-2.9
		c0-0.1,0.3-1.3-0.3-1.8c-0.5-0.3-0.9-0.5-1.6-0.4c-0.3,0-0.6,0.2-0.9,0.4c-1.8-1.9-3.2-1.6-3.9-1.4c-1.9,0.5-3.3,2.6-4.4,6.3
		c-0.3,0.9-0.5,1.8-0.6,2.6c-0.5-0.2-0.9-0.4-1.5-0.6C13.8,20,11.9,19.5,10,19c-4.2-1.1-5-2.3-3.1-3.3c0.9-0.4,1.9-0.7,3.2-0.8
		s2.7,0.1,3.7,0.1c0.7,0.1,0.7-0.6,0.8-0.8c0.1-0.5,0.2-1.1,0-1.5c-0.1-0.2-0.3-0.4-0.7-0.5c-0.7-0.1-1.3-0.3-3.1-0.2
		c-2.8,0.1-5,0.7-7,2.3c-2.7,2.1-2.4,5.3,3.7,6.9c1.5,0.4,4.4,1.2,4.4,1.2c3.3,0.9,3.9,1.9,1.5,2.8C11.6,26,10,26,8.5,25.8
		c-2.1-0.3-2.7-0.9-3.4-0.9c-1.3-0.1-1.6,1-1.5,1.7c0.1,1.5,2.2,2.1,2.8,2.2c0.8,0.2,4.8,1.1,9.6-1.1c0.5-0.3,1-0.5,1.3-0.8
		c0.5,1.2,1.5,2,2.5,2.1c3.5,0.3,4.9-3.9,4.9-3.9c0.5,5.4,4.7,4.5,6.3,1.1c0.6-1.2,0.8-2.1,0.9-2.5C31.9,23.3,31.5,22.7,31.1,22.7
		 M24.1,17.9c-0.1,2-0.4,3.3-0.7,4.5c-0.2,0.7-0.7,1.7-0.8,1.9c-1.2,1.8-2.2,1.2-2.5,0.3s-0.5-2.1,0.1-4.8c0.5-1.6,1.1-2.9,1.8-3.7
		C22.8,15,24.3,15.1,24.1,17.9"/>
	<path class="st0" d="M38,21.7c0,0-0.3-0.7-0.6-1.5c-1.1-2.7-1.9-6.1-2.2-7.6c-0.3-1.2-0.4-2-0.6-2.6c-0.1-0.7-0.3-1.3-0.9-1.7
		c-0.8-0.4-1.6-0.5-2.9-0.1c-0.5,0.1-1,0.3-1.3,0.6C29.2,9,29,9.4,29,9.8c-0.2,3.7,2.9,11.4,3.9,13.7c1,2.1,2.3,4.6,3.1,5.2
		c0.3,0.3,1.1,0.9,2.3,0.1c1.3-0.7,2.4-1.2,2.8-3.3c0.3-1.5,0.4-2,0.5-3.1c0.5-2.9,0.9-4.8,1.5-7.4c1.3-4.8,2.8-9,6.1-11.8
		c0.3-0.3,0.4-0.3,0.5-0.5c0.5-0.5,0.1-0.8-0.6-0.5c-0.3,0.1-0.5,0.1-0.9,0.4c-0.5,0.3-1.2,0.7-1.9,1.3c-3.7,3-5.1,6.3-6,9.1
		c-0.7,1.9-1.1,3.6-1.6,5.3C38.6,19.3,38,21.7,38,21.7"/>
</g>
</svg>
