<?xml version="1.0" encoding="utf-8"?>
<!-- Generator: Adobe Illustrator 23.1.1, SVG Export Plug-In . SVG Version: 6.00 Build 0)  -->
<svg version="1.1" id="Stripelight-logo" xmlns="http://www.w3.org/2000/svg" xmlns:xlink="http://www.w3.org/1999/xlink" x="0px"
	 y="0px" viewBox="0 0 134.1 31.7" style="enable-background:new 0 0 134.1 31.7;" xml:space="preserve">
<style type="text/css">
	.st0{clip-path:url(#SVGID_2_);fill:#FFFFFF;}
</style>
<g>
	<g>
		<defs>
			<rect id="SVGID_1_" x="6.3" y="8.2" width="47.1" height="16.3"/>
		</defs>
		<clipPath id="SVGID_2_">
			<use xlink:href="#SVGID_1_"  style="overflow:visible;"/>
		</clipPath>
		<path class="st0" d="M45.2,8.2c-1.9,0-3.7,0.7-5.1,1.8c-1.4-1.1-3.2-1.8-5.1-1.8c-1.9,0-3.7,0.7-5.1,1.8c-1.4-1.1-3.2-1.8-5.1-1.8
			c-1.9,0-3.7,0.7-5.1,1.8c-1.4-1.1-3.2-1.8-5.1-1.8c-4.5,0-8.1,3.6-8.1,8.1c0,4.5,3.6,8.1,8.1,8.1c1.9,0,3.7-0.7,5.1-1.8
			c1.4,1.1,3.2,1.8,5.1,1.8c1.9,0,3.7-0.7,5.1-1.8c1.4,1.1,3.2,1.8,5.1,1.8c1.9,0,3.7-0.7,5.1-1.8c1.4,1.1,3.2,1.8,5.1,1.8
			c4.5,0,8.1-3.6,8.1-8.1C53.3,11.8,49.7,8.2,45.2,8.2 M40.1,20.1c-0.8-1.1-1.2-2.3-1.2-3.7s0.5-2.7,1.2-3.7
			c0.8,1.1,1.2,2.3,1.2,3.7C41.3,17.7,40.8,19,40.1,20.1 M29.8,20.1c-0.8-1.1-1.2-2.3-1.2-3.7s0.5-2.7,1.2-3.7
			c0.8,1.1,1.2,2.3,1.2,3.7C31,17.7,30.6,19,29.8,20.1 M19.5,20.1c-0.8-1.1-1.2-2.3-1.2-3.7s0.5-2.7,1.2-3.7
			c0.8,1.1,1.2,2.3,1.2,3.7C20.8,17.7,20.3,19,19.5,20.1 M8.1,16.3c0-3.5,2.8-6.3,6.3-6.3c1.5,0,2.8,0.5,3.9,1.3
			c-1.1,1.4-1.7,3.1-1.7,5c0,1.9,0.7,3.6,1.7,5c-1.1,0.8-2.4,1.3-3.9,1.3C10.9,22.7,8.1,19.8,8.1,16.3 M20.8,21.4
			c1.1-1.4,1.7-3.1,1.7-5c0-1.9-0.7-3.6-1.7-5c1.1-0.8,2.4-1.3,3.9-1.3s2.8,0.5,3.9,1.3c-1.1,1.4-1.7,3.1-1.7,5c0,1.9,0.7,3.6,1.7,5
			c-1.1,0.8-2.4,1.3-3.9,1.3C23.2,22.7,21.9,22.2,20.8,21.4 M31.1,21.4c1.1-1.4,1.7-3.1,1.7-5c0-1.9-0.7-3.6-1.7-5
			c1.1-0.8,2.4-1.3,3.9-1.3c1.5,0,2.8,0.5,3.9,1.3c-1.1,1.4-1.7,3.1-1.7,5c0,1.9,0.7,3.6,1.7,5c-1.1,0.8-2.4,1.3-3.9,1.3
			C33.5,22.7,32.1,22.2,31.1,21.4 M45.2,22.7c-1.5,0-2.8-0.5-3.9-1.3c1.1-1.4,1.7-3.1,1.7-5c0-1.9-0.7-3.6-1.7-5
			c1.1-0.8,2.4-1.3,3.9-1.3c3.5,0,6.3,2.8,6.3,6.3S48.7,22.7,45.2,22.7"/>
	</g>
</g>
</svg>
