<?xml version="1.0" encoding="utf-8"?>
<!-- Generator: Adobe Illustrator 23.1.1, SVG Export Plug-In . SVG Version: 6.00 Build 0)  -->
<svg version="1.1" id="Stripelight-logo" xmlns="http://www.w3.org/2000/svg" xmlns:xlink="http://www.w3.org/1999/xlink" x="0px"
	 y="0px" viewBox="0 0 134.1 55.7" style="enable-background:new 0 0 134.1 55.7;" xml:space="preserve">
<style type="text/css">
	.st0{fill:#FFFFFF;}
	.st1{fill:#F07332;}
	.st2{fill:url(#XMLID_2_);}
	.st3{fill:url(#XMLID_3_);}
	.st4{fill:url(#XMLID_4_);}
	.st5{fill:url(#XMLID_5_);}
	.st6{fill:url(#XMLID_6_);}
	.st7{fill:url(#XMLID_7_);}
	.st8{fill:url(#XMLID_8_);}
	.st9{fill:url(#XMLID_9_);}
	.st10{fill:url(#XMLID_10_);}
	.st11{fill:url(#XMLID_11_);}
	.st12{fill:url(#XMLID_12_);}
	.st13{fill:url(#XMLID_13_);}
	.st14{fill:url(#XMLID_14_);}
	.st15{fill:url(#XMLID_15_);}
	.st16{fill:url(#XMLID_16_);}
</style>
<g>
	<rect id="XMLID_222_" x="6.4" y="6.2" class="st0" width="42.7" height="42.7"/>
	<rect id="XMLID_223_" x="13.9" y="32.6" class="st1" width="29.1" height="5.5"/>
	<path id="XMLID_224_" class="st0" d="M17,35.2c0-0.1,0-0.1,0-0.2c0,0-0.1-0.1-0.1-0.1c0,0-0.1,0-0.1,0c-0.1,0-0.1,0-0.2,0
		c-0.2,0-0.3,0-0.5,0.1c0-0.1-0.1-0.1-0.1-0.2c0-0.1,0-0.1,0-0.2c0.1,0,0.2-0.1,0.4-0.1c0.1,0,0.2,0,0.3,0c0.3,0,0.5,0.1,0.7,0.2
		c0.2,0.1,0.2,0.4,0.2,0.7v1.3c-0.1,0-0.2,0.1-0.4,0.1c-0.1,0-0.3,0-0.5,0c-0.1,0-0.3,0-0.4,0c-0.1,0-0.2-0.1-0.3-0.1
		c-0.1-0.1-0.2-0.1-0.2-0.2c0-0.1-0.1-0.2-0.1-0.3c0-0.1,0-0.2,0.1-0.3c0.1-0.1,0.1-0.2,0.2-0.2c0.1-0.1,0.2-0.1,0.3-0.1
		c0.1,0,0.2,0,0.3,0C16.8,35.2,16.9,35.2,17,35.2L17,35.2z M17,35.6c0,0-0.1,0-0.1,0c0,0-0.1,0-0.1,0c-0.1,0-0.2,0-0.3,0.1
		c-0.1,0-0.1,0.1-0.1,0.2c0,0.1,0,0.1,0,0.2c0,0,0.1,0.1,0.1,0.1c0,0,0.1,0,0.1,0c0,0,0.1,0,0.1,0c0,0,0.1,0,0.1,0c0,0,0.1,0,0.1,0
		V35.6z"/>
	<path id="XMLID_227_" class="st0" d="M18.1,34.5c0.1,0,0.2,0,0.3,0c0.1,0,0.2,0,0.3,0v1.1c0,0.1,0,0.2,0,0.3c0,0.1,0,0.1,0.1,0.2
		c0,0,0.1,0.1,0.1,0.1c0.1,0,0.1,0,0.2,0c0.1,0,0.2,0,0.3,0v-1.7c0.1,0,0.2,0,0.3,0c0.1,0,0.2,0,0.3,0v2.1c-0.1,0-0.2,0.1-0.4,0.1
		c-0.1,0-0.3,0-0.5,0c-0.1,0-0.3,0-0.4,0c-0.1,0-0.2-0.1-0.3-0.1c-0.1-0.1-0.2-0.2-0.2-0.3s-0.1-0.3-0.1-0.6V34.5z"/>
	<path id="XMLID_229_" class="st0" d="M20.7,34.9h-0.3l0-0.1l0.8-1h0.1v0.6h0.5c0,0,0,0.1,0,0.1c0,0,0,0.1,0,0.1c0,0,0,0.1,0,0.1
		c0,0,0,0.1,0,0.1h-0.5v0.9c0,0.1,0,0.2,0,0.2c0,0.1,0,0.1,0.1,0.1c0,0,0.1,0.1,0.1,0.1c0,0,0.1,0,0.1,0c0,0,0.1,0,0.1,0
		c0,0,0.1,0,0.1,0c0,0.1,0,0.1,0,0.2s0,0.1,0,0.2c0,0,0,0.1,0,0.1c0,0,0,0,0,0.1c-0.1,0-0.3,0-0.4,0c-0.3,0-0.4-0.1-0.6-0.2
		c-0.1-0.1-0.2-0.3-0.2-0.6V34.9z"/>
	<path id="XMLID_231_" class="st0" d="M23.3,36.7c-0.2,0-0.3,0-0.5-0.1c-0.1-0.1-0.2-0.1-0.3-0.2c-0.1-0.1-0.1-0.2-0.2-0.4
		c0-0.1-0.1-0.3-0.1-0.4c0-0.2,0-0.3,0.1-0.4c0-0.1,0.1-0.3,0.2-0.4c0.1-0.1,0.2-0.2,0.3-0.2c0.1-0.1,0.3-0.1,0.5-0.1
		c0.2,0,0.3,0,0.5,0.1c0.1,0.1,0.2,0.1,0.3,0.2c0.1,0.1,0.2,0.2,0.2,0.4c0,0.1,0.1,0.3,0.1,0.4c0,0.2,0,0.3-0.1,0.4
		c0,0.1-0.1,0.3-0.2,0.4c-0.1,0.1-0.2,0.2-0.3,0.2C23.6,36.6,23.5,36.7,23.3,36.7z M23.3,36.2c0.2,0,0.3-0.1,0.3-0.2
		s0.1-0.3,0.1-0.5c0-0.2,0-0.4-0.1-0.5c-0.1-0.1-0.2-0.2-0.3-0.2c-0.2,0-0.3,0.1-0.3,0.2c-0.1,0.1-0.1,0.3-0.1,0.5
		c0,0.2,0,0.4,0.1,0.5C23,36.2,23.2,36.2,23.3,36.2z"/>
	<path id="XMLID_234_" class="st0" d="M25,34.5C25,34.5,25,34.5,25,34.5c0.1,0,0.1,0,0.2,0c0,0,0.1,0,0.1,0c0,0,0.1,0,0.1,0
		c0,0,0,0.1,0,0.2c0,0.1,0,0.1,0,0.2c0-0.1,0.1-0.1,0.1-0.1c0,0,0.1-0.1,0.1-0.1c0.1,0,0.1-0.1,0.2-0.1c0.1,0,0.1,0,0.2,0
		c0.2,0,0.3,0,0.4,0.1c0.1,0.1,0.2,0.2,0.2,0.3c0,0,0.1-0.1,0.1-0.1c0,0,0.1-0.1,0.1-0.1c0.1,0,0.1-0.1,0.2-0.1c0.1,0,0.1,0,0.2,0
		c0.2,0,0.4,0.1,0.5,0.2s0.2,0.3,0.2,0.6v1.4c0,0-0.1,0-0.1,0c0,0-0.1,0-0.1,0c0,0-0.1,0-0.1,0c0,0-0.1,0-0.1,0v-1.2
		c0-0.2,0-0.3-0.1-0.4c-0.1-0.1-0.2-0.1-0.3-0.1c-0.1,0-0.3,0.1-0.3,0.2c-0.1,0.1-0.1,0.3-0.1,0.5v1.2c0,0-0.1,0-0.1,0
		c0,0-0.1,0-0.1,0c0,0-0.1,0-0.1,0c0,0-0.1,0-0.1,0v-1.3c0-0.2,0-0.3-0.1-0.4c-0.1-0.1-0.1-0.1-0.3-0.1c-0.1,0-0.1,0-0.2,0
		c-0.1,0-0.1,0.1-0.2,0.1s-0.1,0.1-0.1,0.2c0,0.1,0,0.2,0,0.3v1.1c0,0-0.1,0-0.1,0c0,0-0.1,0-0.1,0c0,0-0.1,0-0.1,0c0,0-0.1,0-0.1,0
		V34.5z"/>
	<path id="XMLID_236_" class="st0" d="M29.5,36.7c-0.2,0-0.3,0-0.4-0.1c-0.1-0.1-0.2-0.1-0.3-0.2c-0.1-0.1-0.1-0.2-0.2-0.4
		c0-0.1-0.1-0.3-0.1-0.4s0-0.3,0.1-0.4c0-0.1,0.1-0.3,0.2-0.4c0.1-0.1,0.2-0.2,0.3-0.2c0.1-0.1,0.3-0.1,0.4-0.1s0.3,0,0.4,0.1
		c0.1,0.1,0.2,0.1,0.3,0.2c0.1,0.1,0.1,0.2,0.2,0.4c0,0.1,0.1,0.3,0.1,0.4s0,0.3-0.1,0.4c0,0.1-0.1,0.3-0.2,0.4
		c-0.1,0.1-0.2,0.2-0.3,0.2C29.8,36.6,29.7,36.7,29.5,36.7z M29.5,36.3c0.2,0,0.3-0.1,0.4-0.2s0.1-0.3,0.1-0.6c0-0.2,0-0.4-0.1-0.6
		c-0.1-0.1-0.2-0.2-0.4-0.2c-0.2,0-0.3,0.1-0.4,0.2C29,35.1,29,35.3,29,35.5c0,0.2,0,0.4,0.1,0.6C29.2,36.3,29.3,36.3,29.5,36.3z"/>
	<path id="XMLID_239_" class="st0" d="M31.3,34.8h-0.3l0-0.1l0.7-0.8h0v0.5h0.5c0,0,0,0.1,0,0.2c0,0,0,0.1,0,0.1c0,0,0,0.1,0,0.1
		h-0.5v1c0,0.1,0,0.2,0,0.3c0,0.1,0,0.1,0.1,0.2c0,0,0.1,0.1,0.1,0.1c0,0,0.1,0,0.2,0c0,0,0.1,0,0.1,0c0,0,0.1,0,0.1,0
		c0,0.1,0,0.1,0,0.2c0,0.1,0,0.1,0,0.2c-0.1,0-0.1,0-0.2,0c-0.1,0-0.1,0-0.2,0c-0.2,0-0.4,0-0.5-0.1c-0.1-0.1-0.2-0.3-0.2-0.5V34.8z
		"/>
	<path id="XMLID_241_" class="st0" d="M32.9,34.8h-0.3c0,0,0,0,0-0.1c0,0,0-0.1,0-0.1c0,0,0-0.1,0-0.1c0,0,0-0.1,0-0.1h0.7v2.1
		c0,0-0.1,0-0.1,0c0,0-0.1,0-0.1,0c0,0-0.1,0-0.1,0c0,0-0.1,0-0.1,0V34.8z M32.8,34c0,0,0-0.1,0-0.1c0,0,0-0.1,0-0.1s0-0.1,0-0.1
		c0,0,0-0.1,0-0.1c0,0,0.1,0,0.1,0c0,0,0.1,0,0.1,0c0,0,0.1,0,0.1,0c0,0,0.1,0,0.1,0c0,0,0,0.1,0,0.1c0,0,0,0.1,0,0.1s0,0.1,0,0.1
		c0,0,0,0.1,0,0.1c0,0-0.1,0-0.1,0c0,0-0.1,0-0.1,0c0,0-0.1,0-0.1,0C32.9,34,32.9,34,32.8,34z"/>
	<path id="XMLID_244_" class="st0" d="M35,36.7c-0.2,0-0.3,0-0.4-0.1c-0.1-0.1-0.2-0.1-0.3-0.2c-0.1-0.1-0.1-0.2-0.2-0.4
		c0-0.1-0.1-0.3-0.1-0.4s0-0.3,0.1-0.4c0-0.1,0.1-0.3,0.2-0.4c0.1-0.1,0.2-0.2,0.3-0.2c0.1-0.1,0.3-0.1,0.4-0.1s0.3,0,0.4,0.1
		c0.1,0.1,0.2,0.1,0.3,0.2c0.1,0.1,0.1,0.2,0.2,0.4c0,0.1,0.1,0.3,0.1,0.4s0,0.3-0.1,0.4c0,0.1-0.1,0.3-0.2,0.4
		c-0.1,0.1-0.2,0.2-0.3,0.2C35.3,36.6,35.1,36.7,35,36.7z M35,36.3c0.2,0,0.3-0.1,0.4-0.2c0.1-0.1,0.1-0.3,0.1-0.6
		c0-0.2,0-0.4-0.1-0.6c-0.1-0.1-0.2-0.2-0.4-0.2c-0.2,0-0.3,0.1-0.4,0.2c-0.1,0.1-0.1,0.3-0.1,0.6c0,0.2,0,0.4,0.1,0.6
		C34.6,36.3,34.8,36.3,35,36.3z"/>
	<path id="XMLID_247_" class="st0" d="M36.6,34.5C36.7,34.5,36.7,34.5,36.6,34.5c0.1,0,0.1,0,0.2,0c0,0,0.1,0,0.1,0c0,0,0.1,0,0.1,0
		c0,0,0,0.1,0,0.2c0,0.1,0,0.1,0,0.2c0,0,0.1-0.1,0.1-0.1c0,0,0.1-0.1,0.1-0.1c0.1,0,0.1-0.1,0.2-0.1c0.1,0,0.2,0,0.2,0
		c0.2,0,0.4,0.1,0.5,0.2c0.1,0.1,0.2,0.3,0.2,0.6v1.4c0,0-0.1,0-0.1,0c0,0-0.1,0-0.1,0c0,0-0.1,0-0.1,0c0,0-0.1,0-0.1,0v-1.2
		c0-0.2,0-0.3-0.1-0.4c-0.1-0.1-0.2-0.1-0.3-0.1c-0.1,0-0.2,0-0.2,0c-0.1,0-0.1,0.1-0.2,0.1c-0.1,0.1-0.1,0.1-0.1,0.2
		c0,0.1,0,0.2,0,0.3v1.1c0,0-0.1,0-0.1,0c0,0-0.1,0-0.1,0c0,0-0.1,0-0.1,0c0,0-0.1,0-0.1,0V34.5z"/>
	<path id="XMLID_249_" class="st0" d="M39.1,36.2c0.1,0,0.2,0.1,0.2,0.1c0.1,0,0.2,0,0.3,0c0.1,0,0.1,0,0.2,0c0.1,0,0.1,0,0.2-0.1
		c0,0,0.1-0.1,0.1-0.1c0,0,0-0.1,0-0.1c0-0.1,0-0.1,0-0.1c0,0,0-0.1-0.1-0.1c0,0-0.1,0-0.1-0.1c0,0-0.1,0-0.1-0.1l-0.1-0.1
		c-0.2-0.1-0.3-0.1-0.4-0.2c-0.1-0.1-0.1-0.2-0.1-0.3c0-0.2,0.1-0.3,0.2-0.5c0.1-0.1,0.3-0.2,0.6-0.2c0.1,0,0.2,0,0.3,0
		c0.1,0,0.2,0,0.3,0.1c0,0.1,0,0.1,0,0.2c0,0.1,0,0.1-0.1,0.2c-0.1,0-0.1,0-0.2-0.1c-0.1,0-0.2,0-0.3,0c-0.1,0-0.2,0-0.3,0.1
		c-0.1,0-0.1,0.1-0.1,0.2c0,0,0,0.1,0,0.1c0,0,0,0.1,0.1,0.1c0,0,0.1,0,0.1,0.1c0,0,0.1,0,0.1,0.1l0.2,0.1c0.1,0,0.1,0,0.2,0.1
		c0.1,0,0.1,0.1,0.2,0.1c0,0,0.1,0.1,0.1,0.2c0,0.1,0,0.1,0,0.2c0,0.1,0,0.2-0.1,0.3c0,0.1-0.1,0.2-0.2,0.2
		c-0.1,0.1-0.2,0.1-0.3,0.1c-0.1,0-0.2,0.1-0.4,0.1c-0.1,0-0.3,0-0.4,0c-0.1,0-0.2,0-0.3-0.1c0-0.1,0-0.1,0-0.2
		C39.1,36.3,39.1,36.3,39.1,36.2z"/>
	<linearGradient id="XMLID_2_" gradientUnits="userSpaceOnUse" x1="5.9734" y1="11.8145" x2="59.2607" y2="45.5542">
		<stop  offset="0" style="stop-color:#203A54"/>
		<stop  offset="1" style="stop-color:#142030"/>
	</linearGradient>
	<path id="XMLID_785_" class="st2" d="M21.9,23c0,0.4,0.2,0.7,0.4,0.8c0.2,0.2,0.6,0.3,1,0.3c0.2,0,0.4,0,0.7-0.1
		c0.2,0,0.4-0.1,0.7-0.2c0.1,0.1,0.1,0.3,0.2,0.5c0.1,0.2,0.1,0.4,0.1,0.6c-0.5,0.2-1.1,0.3-1.7,0.3c-0.5,0-0.9-0.1-1.2-0.2
		c-0.3-0.1-0.6-0.3-0.8-0.5c-0.2-0.2-0.4-0.5-0.5-0.8c-0.1-0.3-0.2-0.7-0.2-1c0-0.4,0.1-0.7,0.2-1c0.1-0.3,0.3-0.6,0.5-0.8
		c0.2-0.2,0.5-0.4,0.8-0.6c0.3-0.1,0.7-0.2,1.1-0.2c0.3,0,0.7,0.1,0.9,0.2c0.3,0.1,0.5,0.3,0.7,0.5c0.2,0.2,0.3,0.5,0.4,0.8
		c0.1,0.3,0.1,0.6,0.1,0.9c0,0.1,0,0.2,0,0.4c0,0.1,0,0.2,0,0.3H21.9z M23.8,22c0-0.3-0.1-0.6-0.3-0.8c-0.2-0.2-0.4-0.3-0.7-0.3
		c-0.3,0-0.6,0.1-0.7,0.3c-0.2,0.2-0.3,0.4-0.3,0.8H23.8z"/>
	<linearGradient id="XMLID_3_" gradientUnits="userSpaceOnUse" x1="7.4202" y1="9.5296" x2="60.7075" y2="43.2693">
		<stop  offset="0" style="stop-color:#203A54"/>
		<stop  offset="1" style="stop-color:#142030"/>
	</linearGradient>
	<path id="XMLID_788_" class="st3" d="M28.7,21.7c0-0.2,0-0.3-0.1-0.4c-0.1-0.1-0.1-0.2-0.2-0.2c-0.1-0.1-0.2-0.1-0.3-0.1
		c-0.1,0-0.3,0-0.4,0c-0.3,0-0.7,0.1-1.1,0.2c-0.1-0.2-0.2-0.3-0.2-0.5c0-0.1-0.1-0.3-0.1-0.5c0.3-0.1,0.6-0.2,0.9-0.2
		c0.3,0,0.5-0.1,0.8-0.1c0.7,0,1.2,0.2,1.6,0.5c0.4,0.3,0.6,0.8,0.6,1.6v2.9c-0.2,0.1-0.5,0.1-0.8,0.2c-0.3,0.1-0.7,0.1-1.1,0.1
		c-0.3,0-0.6,0-0.9-0.1c-0.3-0.1-0.5-0.2-0.7-0.3c-0.2-0.1-0.3-0.3-0.5-0.5c-0.1-0.2-0.2-0.5-0.2-0.8s0.1-0.6,0.2-0.8
		c0.1-0.2,0.3-0.4,0.5-0.5c0.2-0.1,0.4-0.2,0.7-0.3c0.3-0.1,0.5-0.1,0.8-0.1c0.2,0,0.4,0,0.6,0V21.7z M28.7,22.7c-0.1,0-0.2,0-0.3,0
		c-0.1,0-0.2,0-0.2,0c-0.3,0-0.6,0.1-0.8,0.2c-0.2,0.1-0.3,0.3-0.3,0.5c0,0.2,0,0.3,0.1,0.4c0.1,0.1,0.2,0.2,0.3,0.2
		c0.1,0,0.2,0.1,0.3,0.1c0.1,0,0.2,0,0.3,0c0.1,0,0.2,0,0.3,0c0.1,0,0.2,0,0.3,0V22.7z"/>
	<linearGradient id="XMLID_4_" gradientUnits="userSpaceOnUse" x1="9.1684" y1="6.7684" x2="62.4557" y2="40.5081">
		<stop  offset="0" style="stop-color:#203A54"/>
		<stop  offset="1" style="stop-color:#142030"/>
	</linearGradient>
	<path id="XMLID_791_" class="st4" d="M31.3,17.9c0.2,0,0.5-0.1,0.7-0.1c0.2,0,0.4,0,0.7,0.1V23c0,0.2,0,0.4,0,0.5
		c0,0.1,0.1,0.2,0.1,0.3c0,0.1,0.1,0.1,0.2,0.1c0.1,0,0.2,0,0.3,0c0.1,0,0.1,0,0.2,0c0.1,0,0.1,0,0.2,0c0.1,0.3,0.1,0.5,0.1,0.8
		c0,0.1,0,0.1,0,0.1c0,0,0,0.1,0,0.1c-0.1,0-0.2,0.1-0.4,0.1c-0.1,0-0.3,0-0.4,0c-0.5,0-0.9-0.1-1.2-0.4c-0.3-0.3-0.5-0.7-0.5-1.3
		V17.9z"/>
	<linearGradient id="XMLID_5_" gradientUnits="userSpaceOnUse" x1="9.8807" y1="5.6435" x2="63.168" y2="39.3832">
		<stop  offset="0" style="stop-color:#203A54"/>
		<stop  offset="1" style="stop-color:#142030"/>
	</linearGradient>
	<path id="XMLID_793_" class="st5" d="M35.5,23c0,0.4,0.2,0.7,0.4,0.8c0.2,0.2,0.6,0.3,1,0.3c0.2,0,0.4,0,0.7-0.1
		c0.2,0,0.4-0.1,0.7-0.2c0.1,0.1,0.1,0.3,0.2,0.5c0.1,0.2,0.1,0.4,0.1,0.6c-0.5,0.2-1.1,0.3-1.7,0.3c-0.5,0-0.9-0.1-1.2-0.2
		c-0.3-0.1-0.6-0.3-0.8-0.5c-0.2-0.2-0.4-0.5-0.5-0.8c-0.1-0.3-0.2-0.7-0.2-1c0-0.4,0.1-0.7,0.2-1c0.1-0.3,0.3-0.6,0.5-0.8
		c0.2-0.2,0.5-0.4,0.8-0.6c0.3-0.1,0.7-0.2,1.1-0.2c0.3,0,0.7,0.1,0.9,0.2c0.3,0.1,0.5,0.3,0.7,0.5c0.2,0.2,0.3,0.5,0.4,0.8
		c0.1,0.3,0.1,0.6,0.1,0.9c0,0.1,0,0.2,0,0.4c0,0.1,0,0.2,0,0.3H35.5z M37.5,22c0-0.3-0.1-0.6-0.3-0.8c-0.2-0.2-0.4-0.3-0.7-0.3
		c-0.3,0-0.6,0.1-0.7,0.3c-0.2,0.2-0.3,0.4-0.3,0.8H37.5z"/>
	<linearGradient id="XMLID_6_" gradientUnits="userSpaceOnUse" x1="11.2647" y1="3.4576" x2="64.552" y2="37.1973">
		<stop  offset="0" style="stop-color:#203A54"/>
		<stop  offset="1" style="stop-color:#142030"/>
	</linearGradient>
	<path id="XMLID_796_" class="st6" d="M39.9,20c0.1,0,0.2,0,0.3,0c0.1,0,0.2,0,0.3,0c0.1,0,0.2,0,0.3,0c0.1,0,0.2,0,0.3,0
		c0,0,0,0.1,0.1,0.1c0,0.1,0,0.1,0,0.2c0,0.1,0,0.1,0,0.2c0,0.1,0,0.1,0,0.2c0.1-0.2,0.3-0.4,0.5-0.5c0.2-0.2,0.5-0.2,0.8-0.2
		c0.1,0,0.1,0,0.2,0c0.1,0,0.1,0,0.2,0c0,0.1,0,0.1,0,0.2c0,0.1,0,0.2,0,0.3c0,0.1,0,0.2,0,0.4c0,0.1,0,0.3-0.1,0.4
		c-0.1,0-0.2,0-0.2,0c-0.1,0-0.1,0-0.2,0c-0.1,0-0.2,0-0.4,0c-0.1,0-0.3,0.1-0.4,0.2c-0.1,0.1-0.2,0.2-0.3,0.4
		c-0.1,0.2-0.1,0.5-0.1,0.8V25c-0.1,0-0.2,0-0.3,0c-0.1,0-0.2,0-0.3,0c-0.1,0-0.2,0-0.3,0c-0.1,0-0.2,0-0.4,0V20z"/>
	<linearGradient id="XMLID_7_" gradientUnits="userSpaceOnUse" x1="1.0959" y1="19.9286" x2="53.6807" y2="53.2235">
		<stop  offset="0" style="stop-color:#203A54"/>
		<stop  offset="1" style="stop-color:#142030"/>
	</linearGradient>
	<path id="XMLID_798_" class="st7" d="M15.3,30.8c-0.3,0-0.5,0-0.7-0.1c-0.2-0.1-0.4-0.2-0.5-0.4c-0.1-0.2-0.2-0.4-0.3-0.6
		c-0.1-0.2-0.1-0.5-0.1-0.7c0-0.3,0-0.5,0.1-0.7c0.1-0.2,0.2-0.4,0.3-0.6c0.1-0.2,0.3-0.3,0.5-0.4c0.2-0.1,0.4-0.1,0.7-0.1
		c0.3,0,0.5,0,0.7,0.1c0.2,0.1,0.4,0.2,0.5,0.4c0.1,0.2,0.2,0.4,0.3,0.6c0.1,0.2,0.1,0.5,0.1,0.7c0,0.3,0,0.5-0.1,0.7
		c-0.1,0.2-0.2,0.4-0.3,0.6c-0.1,0.2-0.3,0.3-0.5,0.4C15.8,30.7,15.6,30.8,15.3,30.8z M15.3,30.2c0.3,0,0.5-0.1,0.7-0.3
		c0.1-0.2,0.2-0.5,0.2-0.9c0-0.4-0.1-0.7-0.2-0.9c-0.1-0.2-0.4-0.3-0.7-0.3c-0.3,0-0.5,0.1-0.7,0.3c-0.1,0.2-0.2,0.5-0.2,0.9
		c0,0.4,0.1,0.7,0.2,0.9C14.8,30.1,15,30.2,15.3,30.2z"/>
	<linearGradient id="XMLID_8_" gradientUnits="userSpaceOnUse" x1="2.2586" y1="18.0922" x2="54.8434" y2="51.3871">
		<stop  offset="0" style="stop-color:#203A54"/>
		<stop  offset="1" style="stop-color:#142030"/>
	</linearGradient>
	<path id="XMLID_801_" class="st8" d="M20.1,30.1c0,0.1,0.1,0.1,0.1,0.2c0,0.1,0,0.2,0,0.3c-0.3,0.1-0.6,0.2-0.9,0.2
		c-0.6,0-1-0.2-1.3-0.5c-0.3-0.3-0.4-0.8-0.4-1.3c0-0.3,0-0.5,0.1-0.7c0.1-0.2,0.2-0.4,0.3-0.6s0.3-0.3,0.5-0.4
		c0.2-0.1,0.5-0.1,0.7-0.1c0.2,0,0.4,0,0.5,0c0.1,0,0.3,0.1,0.4,0.1c0,0.1,0,0.2,0,0.3c0,0.1,0,0.2-0.1,0.3
		c-0.2-0.1-0.5-0.1-0.8-0.1c-0.3,0-0.6,0.1-0.8,0.3c-0.2,0.2-0.3,0.5-0.3,0.9c0,0.4,0.1,0.8,0.3,1c0.2,0.2,0.5,0.3,0.8,0.3
		c0.1,0,0.3,0,0.4,0C19.9,30.1,20,30.1,20.1,30.1z"/>
	<linearGradient id="XMLID_9_" gradientUnits="userSpaceOnUse" x1="3.1575" y1="16.6725" x2="55.7423" y2="49.9674">
		<stop  offset="0" style="stop-color:#203A54"/>
		<stop  offset="1" style="stop-color:#142030"/>
	</linearGradient>
	<path id="XMLID_803_" class="st9" d="M23.3,30.1c0,0.1,0.1,0.1,0.1,0.2c0,0.1,0,0.2,0,0.3c-0.3,0.1-0.6,0.2-0.9,0.2
		c-0.6,0-1-0.2-1.3-0.5c-0.3-0.3-0.4-0.8-0.4-1.3c0-0.3,0-0.5,0.1-0.7c0.1-0.2,0.2-0.4,0.3-0.6c0.1-0.2,0.3-0.3,0.5-0.4
		c0.2-0.1,0.5-0.1,0.7-0.1c0.2,0,0.4,0,0.5,0c0.1,0,0.3,0.1,0.4,0.1c0,0.1,0,0.2,0,0.3c0,0.1,0,0.2-0.1,0.3
		c-0.2-0.1-0.5-0.1-0.8-0.1c-0.3,0-0.6,0.1-0.8,0.3c-0.2,0.2-0.3,0.5-0.3,0.9c0,0.4,0.1,0.8,0.3,1c0.2,0.2,0.5,0.3,0.8,0.3
		c0.1,0,0.3,0,0.4,0C23.1,30.1,23.2,30.1,23.3,30.1z"/>
	<linearGradient id="XMLID_10_" gradientUnits="userSpaceOnUse" x1="3.9631" y1="15.4002" x2="56.5479" y2="48.6951">
		<stop  offset="0" style="stop-color:#203A54"/>
		<stop  offset="1" style="stop-color:#142030"/>
	</linearGradient>
	<path id="XMLID_805_" class="st10" d="M26.1,28.4c0-0.3-0.1-0.5-0.2-0.6c-0.1-0.1-0.3-0.2-0.6-0.2c-0.2,0-0.3,0-0.4,0
		c-0.1,0-0.3,0.1-0.4,0.1c-0.1-0.1-0.1-0.3-0.1-0.5c0.2,0,0.3-0.1,0.5-0.1c0.2,0,0.4,0,0.5,0c0.5,0,0.8,0.1,1,0.3
		c0.2,0.2,0.4,0.5,0.4,1v2.2c-0.2,0-0.4,0.1-0.6,0.1c-0.2,0-0.5,0.1-0.7,0.1c-0.2,0-0.4,0-0.6-0.1c-0.2,0-0.3-0.1-0.5-0.2
		c-0.1-0.1-0.2-0.2-0.3-0.3C24,30,24,29.8,24,29.6c0-0.2,0-0.4,0.1-0.5c0.1-0.1,0.2-0.3,0.3-0.4c0.1-0.1,0.3-0.2,0.5-0.2
		c0.2,0,0.4-0.1,0.6-0.1c0.1,0,0.3,0,0.4,0c0.1,0,0.2,0,0.2,0V28.4z M26.1,29c-0.1,0-0.2,0-0.3,0c-0.1,0-0.2,0-0.3,0
		c-0.3,0-0.5,0.1-0.6,0.2c-0.1,0.1-0.2,0.3-0.2,0.5c0,0.1,0,0.2,0.1,0.3c0,0.1,0.1,0.1,0.2,0.2c0.1,0,0.2,0.1,0.2,0.1
		c0.1,0,0.2,0,0.3,0c0.1,0,0.2,0,0.3,0c0.1,0,0.2,0,0.3-0.1V29z"/>
	<linearGradient id="XMLID_11_" gradientUnits="userSpaceOnUse" x1="4.9165" y1="13.8945" x2="57.5012" y2="47.1894">
		<stop  offset="0" style="stop-color:#203A54"/>
		<stop  offset="1" style="stop-color:#142030"/>
	</linearGradient>
	<path id="XMLID_808_" class="st11" d="M27.7,30c0.1,0,0.3,0.1,0.4,0.1c0.1,0,0.3,0,0.4,0c0.1,0,0.2,0,0.3,0c0.1,0,0.2-0.1,0.2-0.1
		c0.1,0,0.1-0.1,0.2-0.2c0-0.1,0.1-0.1,0.1-0.2c0-0.1,0-0.2-0.1-0.2c0-0.1-0.1-0.1-0.1-0.1c-0.1,0-0.1-0.1-0.2-0.1s-0.2-0.1-0.2-0.1
		L28.4,29c-0.3-0.1-0.5-0.2-0.6-0.4c-0.1-0.1-0.2-0.3-0.2-0.5c0-0.3,0.1-0.6,0.3-0.7c0.2-0.2,0.5-0.3,1-0.3c0.2,0,0.3,0,0.5,0.1
		c0.2,0,0.3,0.1,0.4,0.1c0,0.1,0,0.2-0.1,0.3c0,0.1-0.1,0.2-0.1,0.3c-0.1,0-0.2-0.1-0.4-0.1c-0.1,0-0.3-0.1-0.4-0.1
		c-0.2,0-0.3,0-0.4,0.1c-0.1,0.1-0.2,0.2-0.2,0.3c0,0.1,0,0.1,0,0.2c0,0.1,0.1,0.1,0.1,0.1c0.1,0,0.1,0.1,0.2,0.1
		c0.1,0,0.1,0.1,0.2,0.1l0.3,0.1c0.1,0,0.2,0.1,0.3,0.1c0.1,0,0.2,0.1,0.3,0.2c0.1,0.1,0.1,0.2,0.2,0.3c0,0.1,0.1,0.2,0.1,0.4
		c0,0.2,0,0.3-0.1,0.5c-0.1,0.1-0.2,0.3-0.3,0.4c-0.1,0.1-0.3,0.2-0.5,0.2c-0.2,0.1-0.4,0.1-0.6,0.1c-0.2,0-0.4,0-0.6,0
		c-0.2,0-0.3-0.1-0.5-0.1c0-0.1,0-0.2,0.1-0.3C27.6,30.2,27.6,30.1,27.7,30z"/>
	<linearGradient id="XMLID_12_" gradientUnits="userSpaceOnUse" x1="5.9965" y1="12.1888" x2="58.5813" y2="45.4836">
		<stop  offset="0" style="stop-color:#203A54"/>
		<stop  offset="1" style="stop-color:#142030"/>
	</linearGradient>
	<path id="XMLID_810_" class="st12" d="M31,27.7h-0.4c0,0,0-0.1,0-0.1c0,0,0-0.1,0-0.1c0,0,0-0.1,0-0.1c0,0,0-0.1,0-0.1h1.1v3.5
		c0,0-0.1,0-0.2,0c-0.1,0-0.1,0-0.2,0c0,0-0.1,0-0.2,0c-0.1,0-0.1,0-0.2,0V27.7z M30.9,26.4c0-0.1,0-0.1,0-0.2c0-0.1,0-0.1,0-0.2
		c0,0,0-0.1,0-0.2c0-0.1,0-0.1,0-0.2c0.1,0,0.1,0,0.2,0c0.1,0,0.1,0,0.2,0c0,0,0.1,0,0.2,0c0.1,0,0.1,0,0.2,0c0,0,0,0.1,0,0.2
		c0,0.1,0,0.1,0,0.2c0,0,0,0.1,0,0.2c0,0.1,0,0.1,0,0.2c-0.1,0-0.1,0-0.2,0c-0.1,0-0.1,0-0.2,0c-0.1,0-0.1,0-0.2,0
		C31,26.4,30.9,26.4,30.9,26.4z"/>
	<linearGradient id="XMLID_13_" gradientUnits="userSpaceOnUse" x1="6.4894" y1="11.4103" x2="59.0742" y2="44.7051">
		<stop  offset="0" style="stop-color:#203A54"/>
		<stop  offset="1" style="stop-color:#142030"/>
	</linearGradient>
	<path id="XMLID_813_" class="st13" d="M34.2,30.8c-0.3,0-0.5,0-0.7-0.1c-0.2-0.1-0.4-0.2-0.5-0.4c-0.1-0.2-0.2-0.4-0.3-0.6
		c-0.1-0.2-0.1-0.5-0.1-0.7c0-0.3,0-0.5,0.1-0.7c0.1-0.2,0.2-0.4,0.3-0.6c0.1-0.2,0.3-0.3,0.5-0.4c0.2-0.1,0.4-0.1,0.7-0.1
		c0.3,0,0.5,0,0.7,0.1c0.2,0.1,0.4,0.2,0.5,0.4c0.1,0.2,0.2,0.4,0.3,0.6c0.1,0.2,0.1,0.5,0.1,0.7c0,0.3,0,0.5-0.1,0.7
		c-0.1,0.2-0.2,0.4-0.3,0.6c-0.1,0.2-0.3,0.3-0.5,0.4C34.7,30.7,34.4,30.8,34.2,30.8z M34.2,30.2c0.3,0,0.5-0.1,0.7-0.3
		c0.1-0.2,0.2-0.5,0.2-0.9c0-0.4-0.1-0.7-0.2-0.9c-0.1-0.2-0.4-0.3-0.7-0.3c-0.3,0-0.5,0.1-0.7,0.3c-0.1,0.2-0.2,0.5-0.2,0.9
		c0,0.4,0.1,0.7,0.2,0.9C33.6,30.1,33.9,30.2,34.2,30.2z"/>
	<linearGradient id="XMLID_14_" gradientUnits="userSpaceOnUse" x1="7.5347" y1="9.7594" x2="60.1194" y2="43.0543">
		<stop  offset="0" style="stop-color:#203A54"/>
		<stop  offset="1" style="stop-color:#142030"/>
	</linearGradient>
	<path id="XMLID_816_" class="st14" d="M36.7,27.2c0,0,0.1,0,0.1,0c0,0,0.1,0,0.1,0c0,0,0.1,0,0.1,0c0,0,0.1,0,0.1,0
		c0,0.1,0,0.2,0,0.3c0,0.1,0,0.2,0,0.3c0-0.1,0.1-0.2,0.2-0.2c0.1-0.1,0.2-0.1,0.2-0.2c0.1-0.1,0.2-0.1,0.3-0.1
		c0.1,0,0.2-0.1,0.4-0.1c0.4,0,0.7,0.1,0.9,0.3c0.2,0.2,0.3,0.6,0.3,1v2.2c0,0-0.1,0-0.2,0c-0.1,0-0.1,0-0.2,0c0,0-0.1,0-0.2,0
		c-0.1,0-0.1,0-0.2,0v-2c0-0.3,0-0.6-0.1-0.7c-0.1-0.2-0.3-0.2-0.5-0.2c-0.1,0-0.2,0-0.4,0.1c-0.1,0-0.2,0.1-0.3,0.2
		c-0.1,0.1-0.2,0.2-0.2,0.4c-0.1,0.2-0.1,0.3-0.1,0.5v1.8c0,0-0.1,0-0.2,0c-0.1,0-0.1,0-0.2,0c0,0-0.1,0-0.2,0c-0.1,0-0.1,0-0.2,0
		V27.2z"/>
	<linearGradient id="XMLID_15_" gradientUnits="userSpaceOnUse" x1="8.6014" y1="8.0746" x2="61.1862" y2="41.3695">
		<stop  offset="0" style="stop-color:#203A54"/>
		<stop  offset="1" style="stop-color:#142030"/>
	</linearGradient>
	<path id="XMLID_818_" class="st15" d="M40.5,30c0.1,0,0.3,0.1,0.4,0.1c0.1,0,0.3,0,0.4,0c0.1,0,0.2,0,0.3,0c0.1,0,0.2-0.1,0.2-0.1
		c0.1,0,0.1-0.1,0.2-0.2c0-0.1,0.1-0.1,0.1-0.2c0-0.1,0-0.2-0.1-0.2c0-0.1-0.1-0.1-0.1-0.1c-0.1,0-0.1-0.1-0.2-0.1
		c-0.1,0-0.2-0.1-0.2-0.1L41.3,29c-0.3-0.1-0.5-0.2-0.6-0.4c-0.1-0.1-0.2-0.3-0.2-0.5c0-0.3,0.1-0.6,0.3-0.7c0.2-0.2,0.5-0.3,1-0.3
		c0.2,0,0.3,0,0.5,0.1c0.2,0,0.3,0.1,0.4,0.1c0,0.1,0,0.2-0.1,0.3c0,0.1-0.1,0.2-0.1,0.3c-0.1,0-0.2-0.1-0.4-0.1
		c-0.1,0-0.3-0.1-0.4-0.1c-0.2,0-0.3,0-0.4,0.1c-0.1,0.1-0.2,0.2-0.2,0.3c0,0.1,0,0.1,0,0.2c0,0.1,0.1,0.1,0.1,0.1
		c0.1,0,0.1,0.1,0.2,0.1c0.1,0,0.1,0.1,0.2,0.1l0.3,0.1c0.1,0,0.2,0.1,0.3,0.1c0.1,0,0.2,0.1,0.3,0.2c0.1,0.1,0.1,0.2,0.2,0.3
		c0,0.1,0.1,0.2,0.1,0.4c0,0.2,0,0.3-0.1,0.5c-0.1,0.1-0.2,0.3-0.3,0.4c-0.1,0.1-0.3,0.2-0.5,0.2c-0.2,0.1-0.4,0.1-0.6,0.1
		c-0.2,0-0.4,0-0.6,0c-0.2,0-0.3-0.1-0.5-0.1c0-0.1,0-0.2,0.1-0.3C40.5,30.2,40.5,30.1,40.5,30z"/>
	<linearGradient id="XMLID_16_" gradientUnits="userSpaceOnUse" x1="4.4002" y1="14.2992" x2="57.6875" y2="48.0389">
		<stop  offset="0" style="stop-color:#203A54"/>
		<stop  offset="1" style="stop-color:#142030"/>
	</linearGradient>
	<path id="XMLID_820_" class="st16" d="M13.9,17.7c0.3,0,0.6-0.1,0.9-0.1c0.3,0,0.7,0,1.1,0c1.3,0,2.4,0.3,3.1,1
		c0.7,0.7,1.1,1.7,1.1,3c0,1.3-0.4,2.3-1.1,3c-0.7,0.6-1.8,0.9-3.2,0.9c-0.4,0-0.7,0-1,0c-0.3,0-0.6-0.1-0.9-0.1V17.7z M15.5,24.1
		c0.1,0,0.1,0,0.2,0c0.1,0,0.2,0,0.4,0c0.3,0,0.6,0,0.9-0.1c0.3-0.1,0.5-0.2,0.7-0.4c0.2-0.2,0.4-0.5,0.5-0.8
		c0.1-0.3,0.2-0.8,0.2-1.3c0-0.5-0.1-0.9-0.2-1.3c-0.1-0.3-0.3-0.6-0.5-0.8c-0.2-0.2-0.4-0.3-0.7-0.4c-0.3-0.1-0.5-0.1-0.8-0.1
		c-0.1,0-0.2,0-0.3,0c-0.1,0-0.2,0-0.3,0V24.1z"/>
</g>
</svg>
