<?xml version="1.0" encoding="utf-8"?>
<!-- Generator: Adobe Illustrator 23.1.1, SVG Export Plug-In . SVG Version: 6.00 Build 0)  -->
<svg version="1.1" id="Stripelight-logo" xmlns="http://www.w3.org/2000/svg" xmlns:xlink="http://www.w3.org/1999/xlink" x="0px"
	 y="0px" viewBox="0 0 134.1 55.7" style="enable-background:new 0 0 134.1 55.7;" xml:space="preserve">
<style type="text/css">
	.st0{fill:#FFFFFF;}
</style>
<path class="st0" d="M26.2,37.3c-0.7-1.1-1.6-1.8-2.7-2.4c-0.5-0.3-1-0.5-1.6-0.8c0.4-0.2,0.8-0.4,1.2-0.7c1.4-1,2.5-2.3,3.1-3.9
	c0.6-1.7,0.2-3.5-0.6-5c-0.5-0.9-1.3-1.8-2.2-2.3c0,0-0.1-0.1-0.1-0.1c1.3-0.7,2.5-1.8,3.1-3.1c0.4-0.9,0.6-1.8,0.5-2.8
	c-0.1-1-0.4-1.9-1-2.7c-2-2.9-5.7-3.9-9-4.2c-1.8-0.2-3.6,0-5.3,0.3c-1.6,0.3-3,0.9-4.4,1.8c-0.5,0.3-0.1,0-0.8,0.5
	c-0.4,0.3-1,1.2-1.1,1.9l-3,2.1l0.6,0.8l3-2.1c0.6,0.2,1.7,0,2.2-0.1c0,0,0.2-0.1,0.3-0.1C8.5,14.1,8.7,14,9,13.8
	c0.2-0.1,0.5-0.3,0.7-0.4c0.1,0,0.1-0.1,0.2-0.1c0,0,0.3-0.1,0.3-0.1c1-0.4,2-0.6,3.1-0.8c1.3-0.2,2.6-0.2,3.9,0
	c0.8,0.1,1.6,0.3,2.3,0.5c0.3,0.1,0.7,0.2,1,0.4c0.1,0,0.2,0.1,0.2,0.1c0.2,0.1,0.4,0.2,0.5,0.3c0.3,0.2,0.6,0.3,0.9,0.5
	c0,0,0,0,0,0c0.1,0.1,0.2,0.1,0.3,0.2c0.1,0.1,0.3,0.3,0.4,0.4c0,0,0.1,0.1,0.1,0.1c0,0,0,0,0,0c0.1,0.2,0.2,0.4,0.3,0.5
	c0,0,0,0,0,0c0,0,0.1,0.2,0.1,0.3c0,0.1,0.1,0.3,0.1,0.4c0,0.2,0,0.4,0,0.5c0,0.2-0.1,0.3-0.1,0.5c0,0.1-0.1,0.2-0.1,0.3
	c-0.1,0.2-0.2,0.3-0.3,0.4c0,0,0,0.1-0.1,0.1c0,0,0,0,0,0c-0.1,0.1-0.2,0.3-0.4,0.4c-0.1,0.1-0.2,0.2-0.3,0.3c0,0,0,0-0.1,0
	c0,0-0.1,0.1-0.1,0.1c-0.2,0.2-0.5,0.3-0.7,0.4c-0.1,0.1-0.2,0.1-0.4,0.2c-0.1,0-0.1,0.1-0.2,0.1c-0.5,0.2-1.1,0.3-1.6,0.4
	c-0.8,0.1-1.7,0.1-2.5,0c-0.2,0-0.4-0.1-0.6-0.1c0,0,0,0,0,0c-0.1,0-0.1,0-0.2,0c-0.2,0-0.3-0.1-0.5-0.1c-0.2-0.1-0.3-0.1-0.5-0.2
	c0,0-0.2-0.1-0.3-0.1c-0.1-0.1-0.3-0.1-0.4-0.2c-0.1,0-0.2-0.1-0.2-0.1c0.4-1.2,0.8-2.4,1.2-3.6c0,0,0-0.1,0-0.1
	c0.3-0.8-0.3-1.7-1.1-2c-0.9-0.2-1.7,0.3-2,1.1c-0.7,2.2-1.5,4.5-2.2,6.7c-0.8,2.5-1.7,5-2.5,7.6c0,0,0,0.1,0,0.1
	c-0.3,0.8,0.3,1.7,1.1,2c0.9,0.2,1.7-0.3,2-1.1c0.7-2.2,1.5-4.5,2.2-6.7c0.1-0.3,0.2-0.6,0.3-0.9c0.7,0.4,1.5,0.7,2.3,0.8
	c1.7,0.5,3.5,0.8,5.2,1.4c0.2,0.1,0.3,0.1,0.5,0.2c0,0,0.1,0,0.1,0.1c0.1,0,0.2,0.1,0.3,0.1c0.2,0.1,0.3,0.2,0.5,0.3c0,0,0,0,0,0
	c0,0,0.1,0.1,0.1,0.1c0.1,0.1,0.2,0.2,0.3,0.3c0,0,0.1,0.1,0.1,0.1c0,0,0,0,0,0c0.2,0.2,0.3,0.4,0.4,0.7c0,0.1,0.1,0.1,0.1,0.2
	c0,0.1,0.1,0.2,0.1,0.3c0.1,0.2,0.1,0.4,0.2,0.6c0,0.2,0,0.5,0,0.7c0,0.2-0.1,0.4-0.2,0.6c0,0.1-0.1,0.3-0.2,0.3
	c-0.1,0.2-0.2,0.3-0.3,0.5c0,0.1-0.1,0.1-0.1,0.2c-0.1,0.1-0.2,0.2-0.3,0.3c-0.1,0.1-0.2,0.2-0.3,0.3c-0.1,0.1-0.3,0.3-0.3,0.3
	c-0.2,0.1-0.4,0.3-0.6,0.4c-0.1,0.1-0.3,0.2-0.4,0.2c-0.1,0-0.1,0.1-0.2,0.1c0,0,0,0,0,0c-0.7,0.3-1.5,0.5-2.3,0.6
	c-0.8,0.1-1.6,0.2-2.4,0.1c-0.2,0-0.5-0.1-0.7-0.2c0.4-1.2,0.8-2.5,1.2-3.7c0.2-0.7-0.3-1.6-1-1.8c-0.8-0.2-1.5,0.3-1.8,1
	c-0.8,2.5-1.7,5-2.5,7.4c-0.4,1.3-0.8,2.5-1.3,3.8c-0.2,0.7,0.3,1.6,1,1.8c0.8,0.2,1.5-0.3,1.8-1c0.5-1.5,1-3,1.5-4.5
	c0.4,0.1,0.7,0.2,1.1,0.2c0,0,0.1,0,0.1,0c0.9,0.2,1.7,0.4,2.5,0.7c0.5,0.2,1.1,0.4,1.6,0.5c0.3,0.1,0.5,0.2,0.8,0.3
	c0.1,0.1,0.3,0.1,0.4,0.2c0,0,0,0,0.1,0c0,0,0,0,0,0c0.8,0.4,1.7,0.7,2.4,1.3c0,0,0,0,0.1,0.1c0.1,0.1,0.1,0.1,0.2,0.2
	c0.1,0.1,0.2,0.2,0.3,0.3c0.1,0.1,0.1,0.2,0.2,0.3c0.1,0.1,0.2,0.3,0.2,0.4c0,0,0,0,0,0.1c0,0,0,0.1,0,0.1c0.1,0.2,0.2,0.5,0.2,0.7
	c0,0.3,0,0.6,0,0.8c-0.1,0.3-0.1,0.5-0.2,0.8c0,0,0,0,0,0c0,0.1-0.1,0.2-0.1,0.3c-0.1,0.2-0.2,0.3-0.3,0.5c-0.1,0.1-0.2,0.2-0.2,0.4
	c-0.1,0.1-0.1,0.1-0.2,0.2c-0.2,0.2-0.4,0.4-0.5,0.5c-0.1,0-0.2,0.1-0.2,0.2c-0.1,0.1-0.3,0.2-0.4,0.3c-0.1,0.1-0.3,0.2-0.4,0.2
	c0,0-0.1,0-0.1,0.1c-0.6,0.2-1.1,0.4-1.7,0.5c-0.8,0.1-1.6,0.1-2.4,0c-0.5-0.1-1-0.2-1.5-0.3c-0.4-0.1-0.7-0.3-1.1-0.4
	c-0.1,0-0.1,0-0.2-0.1c0,0-0.3-0.1-0.4-0.2c-0.6-0.3-1.3-0.7-1.9-1c-0.3-0.2-0.6-0.3-1-0.5c-0.2-0.1-1.3-0.2-2,0.2L6.2,41l-0.5,0.8
	l3.1,1.9c0.1,0.6,0.5,1.4,0.7,1.6c0.3,0.2,0.7,0.4,1,0.6c0.7,0.4,1.4,0.7,2.1,1.1c0.7,0.3,1.5,0.7,2.3,0.9c0.7,0.2,1.4,0.3,2.2,0.4
	c2.7,0.3,5.5-0.3,7.6-2.1c1.1-1,2-2.4,2.3-3.8C27.4,40.6,27.1,38.8,26.2,37.3z M20.7,13.3C20.8,13.3,21,13.4,20.7,13.3L20.7,13.3z
	 M22.2,14.2C22,14,22.1,14.1,22.2,14.2L22.2,14.2z M23.1,18.1C23.3,17.8,23.1,18,23.1,18.1L23.1,18.1z M20.3,36.9
	C20.1,36.8,20.2,36.8,20.3,36.9L20.3,36.9z M22.7,38.1C22.6,38,22.6,38.1,22.7,38.1L22.7,38.1z M23.7,42.1
	C23.7,42.2,23.6,42.2,23.7,42.1L23.7,42.1z"/>
</svg>
