<?xml version="1.0" encoding="utf-8"?>
<!-- Generator: Adobe Illustrator 24.0.2, SVG Export Plug-In . SVG Version: 6.00 Build 0)  -->
<svg version="1.1" id="Stripelight-logo" xmlns="http://www.w3.org/2000/svg" xmlns:xlink="http://www.w3.org/1999/xlink" x="0px"
	 y="0px" viewBox="0 0 260.1 31.7" style="enable-background:new 0 0 260.1 31.7;" xml:space="preserve">
<style type="text/css">
	.st0{fill:#FFFFFF;}
</style>
<path class="st0" d="M161.6,2.3V9h3.9v2.6h-3.9v18H159v-18h-3.9V9h3.9V2.3H161.6z M63.3,11.3c2.5,0,5.4,1.2,7,4.3h2.8
	c-1.9-4.8-6.4-6.6-9.9-6.6c-5.9,0-10.7,4.8-10.7,10.6c0,5.7,4.5,10.6,10.7,10.6c6,0,8.6-3.9,9.9-6.4h-2.8c-0.8,1.6-2.9,4.1-7,4.1
	c-4.8,0-8.2-3.8-8.2-8.3C55.1,14.2,59.5,11.3,63.3,11.3 M84.8,8.9c5.9,0,10.4,5.1,10.4,10.6c0,5.5-4.5,10.6-10.4,10.6
	c-5.8,0-10.4-5-10.4-10.5C74.4,13.3,79.6,8.9,84.8,8.9 M84.8,27.8c3.9,0,7.9-3.1,7.9-8.4c0-5.3-4.4-8.2-7.9-8.2
	c-3.6,0-7.9,3-7.9,8.4C77,24.3,80.7,27.8,84.8,27.8 M98.1,29.7h2.5V2.3h-2.5V29.7z M104.4,29.7h2.5V2.3h-2.5V29.7z M120.1,8.9
	c4.4,0,7.5,2.7,8.9,5.2c1.3,2.2,1.6,4.4,1.5,6.4h-18.1c0.2,4,3.8,7.3,7.7,7.3c3.6-0.1,6.2-2.3,7.1-4.8h2.7c-1.4,4-5.2,7.1-9.8,7.1
	c-5.6,0-10.4-4.6-10.4-10.6C109.7,13.8,114.3,9,120.1,8.9 M127.9,18.2c-0.8-4.8-4.6-6.9-7.8-6.9c-3.1,0-7,2.1-7.7,6.9H127.9z
	 M144,11.3c2.5,0,5.4,1.2,7,4.3h2.8c-1.9-4.8-6.4-6.6-9.9-6.6c-5.9,0-10.7,4.8-10.7,10.6c0,5.7,4.5,10.6,10.7,10.6
	c6,0,8.6-3.9,9.9-6.4H151c-0.8,1.6-2.9,4.1-7,4.1c-4.8,0-8.2-3.8-8.2-8.3C135.8,14.2,140.1,11.3,144,11.3 M46.3,11.4L46.3,11.4
	l-0.1-2.2h-5.6v20.4h6V18.4c0-3.1,2-3.3,4.7-3.4V8.9C47.9,8.9,46.8,10.4,46.3,11.4 M37.8,9.2h-5.7v0.9c-1.4-0.7-3-1.2-4.8-1.2
	c-4.7,0-8.7,3.2-10,7.5c0,0-0.3,1.1-0.4,1.7l0,0c-0.1,0.4-0.1,1.4-0.1,1.4l0,0c0,2.7-2.2,4.8-4.8,4.8c-2.6,0-4.8-2.2-4.8-4.9
	c0-2.7,2.1-4.9,4.8-4.9c0.9,0,1.8,0.3,2.5,0.8c0.6-1.9,1.6-3.6,2.8-5c-1.6-1-3.4-1.5-5.4-1.5c-5.8,0-10.5,4.8-10.5,10.6
	c0,5.9,4.7,10.6,10.5,10.6c5.5,0,10.1-4.4,10.5-9.9c0,0,0-0.4,0-0.7c0-0.7,0.2-1.5,0.4-2.1h0c0.8-1.7,2.4-2.8,4.3-2.8
	c2.6,0,4.6,2.1,4.8,4.6v0.5c-0.1,2.6-2.2,4.6-4.8,4.6c-0.9,0-1.8-0.3-2.6-0.8c-0.6,1.9-1.5,3.6-2.8,5c1.6,1,3.4,1.5,5.4,1.5
	c1.7,0,3.3-0.4,4.8-1.2v0.5h5.7v-9.7c0-0.1,0-0.2,0-0.3c0-0.1,0-0.2,0-0.3V9.2z"/>
</svg>
