<?xml version="1.0" encoding="utf-8"?>
<!-- Generator: Adobe Illustrator 27.1.0, SVG Export Plug-In . SVG Version: 6.00 Build 0)  -->
<svg version="1.1" id="Stripelight-logo" xmlns="http://www.w3.org/2000/svg" xmlns:xlink="http://www.w3.org/1999/xlink" x="0px"
	 y="0px" viewBox="0 0 179.2 31.7" style="enable-background:new 0 0 179.2 31.7;" xml:space="preserve">
<style type="text/css">
	.st0{fill:#FFFFFF;}
</style>
<g>
	<path class="st0" d="M2.6,1.1l14,20.4h0.1V1.1h2.3v24.1h-2.6L2.4,4.9H2.3v20.4H0V1.1H2.6z"/>
	<path class="st0" d="M24.9,19.5c0.2,0.8,0.6,1.6,1,2.2c0.5,0.7,1.1,1.2,1.8,1.6c0.7,0.4,1.6,0.6,2.6,0.6c1.6,0,2.8-0.4,3.6-1.2
		c0.9-0.8,1.5-1.9,1.8-3.2h2.1c-0.4,2-1.3,3.5-2.5,4.6c-1.2,1.1-2.9,1.6-5.1,1.6c-1.4,0-2.6-0.2-3.6-0.7c-1-0.5-1.8-1.1-2.4-2
		c-0.6-0.8-1.1-1.8-1.4-2.9c-0.3-1.1-0.5-2.3-0.5-3.5c0-1.1,0.2-2.3,0.5-3.4c0.3-1.1,0.8-2.1,1.4-2.9c0.6-0.9,1.4-1.6,2.4-2.1
		c1-0.5,2.2-0.8,3.6-0.8c1.4,0,2.6,0.3,3.6,0.8c1,0.6,1.8,1.3,2.4,2.2c0.6,0.9,1.1,2,1.3,3.1c0.3,1.2,0.4,2.4,0.3,3.6H24.6
		C24.6,17.9,24.7,18.6,24.9,19.5z M35.4,13c-0.3-0.7-0.6-1.4-1.1-2c-0.5-0.6-1-1-1.7-1.4c-0.7-0.3-1.4-0.5-2.3-0.5
		c-0.9,0-1.7,0.2-2.3,0.5c-0.7,0.3-1.2,0.8-1.7,1.4c-0.5,0.6-0.8,1.2-1.1,2c-0.3,0.8-0.5,1.5-0.6,2.3h11.3
		C35.8,14.5,35.7,13.7,35.4,13z"/>
	<path class="st0" d="M41.4,7.8l4.4,14.9h0.1l4.2-14.9h2.4l4.2,14.9h0.1l4.4-14.9h2.3l-5.6,17.4h-2.3l-4.3-14.6h-0.1L47,25.2h-2.3
		L39.1,7.8H41.4z"/>
	<path class="st0" d="M70.2,19.3c0.3,0.6,0.7,1,1.2,1.4c0.5,0.3,1,0.6,1.7,0.8c0.7,0.2,1.3,0.3,2,0.3c0.5,0,1,0,1.5-0.1
		c0.5-0.1,1-0.2,1.5-0.5c0.5-0.2,0.9-0.5,1.2-0.9c0.3-0.4,0.5-0.9,0.5-1.5c0-0.7-0.2-1.2-0.6-1.6c-0.4-0.4-1-0.7-1.6-1
		c-0.7-0.3-1.4-0.5-2.3-0.7c-0.9-0.2-1.7-0.4-2.6-0.7c-0.9-0.2-1.8-0.5-2.6-0.8c-0.9-0.3-1.6-0.7-2.3-1.3c-0.7-0.5-1.2-1.2-1.6-1.9
		c-0.4-0.8-0.6-1.7-0.6-2.8c0-1.2,0.3-2.3,0.8-3.2c0.5-0.9,1.2-1.7,2.1-2.3c0.9-0.6,1.8-1.1,2.9-1.3c1.1-0.3,2.2-0.4,3.2-0.4
		c1.3,0,2.5,0.1,3.6,0.4c1.2,0.3,2.2,0.7,3.1,1.4C82,3,82.7,3.8,83.3,4.8c0.5,1,0.8,2.2,0.8,3.6h-5.1c0-0.7-0.2-1.3-0.5-1.8
		c-0.3-0.5-0.6-0.8-1-1.1C77,5.2,76.5,5,76,4.9c-0.6-0.1-1.2-0.2-1.8-0.2c-0.4,0-0.9,0-1.3,0.1c-0.4,0.1-0.8,0.2-1.2,0.5
		c-0.3,0.2-0.6,0.5-0.9,0.8c-0.2,0.3-0.3,0.8-0.3,1.3c0,0.5,0.1,0.9,0.3,1.1c0.2,0.3,0.5,0.6,1.1,0.8c0.5,0.2,1.3,0.5,2.2,0.7
		c0.9,0.2,2.2,0.6,3.7,0.9c0.4,0.1,1.1,0.3,1.9,0.5c0.8,0.2,1.6,0.6,2.4,1.1c0.8,0.5,1.5,1.2,2,2.1c0.6,0.9,0.9,2,0.9,3.3
		c0,1.1-0.2,2.1-0.6,3.1c-0.4,0.9-1.1,1.8-1.9,2.4c-0.8,0.7-1.9,1.2-3.1,1.6c-1.2,0.4-2.7,0.6-4.3,0.6c-1.3,0-2.6-0.2-3.9-0.5
		c-1.2-0.3-2.3-0.8-3.3-1.5c-1-0.7-1.7-1.6-2.3-2.7c-0.6-1.1-0.8-2.4-0.8-3.8h5.1C69.7,18,69.9,18.7,70.2,19.3z"/>
	<path class="st0" d="M97.1,7.8V11h-3.5v8.6c0,0.8,0.1,1.3,0.4,1.6c0.3,0.3,0.8,0.4,1.6,0.4c0.3,0,0.5,0,0.8,0
		c0.2,0,0.5-0.1,0.7-0.1v3.7c-0.4,0.1-0.9,0.1-1.3,0.1c-0.5,0-1,0-1.4,0c-0.7,0-1.4-0.1-2.1-0.2c-0.7-0.1-1.2-0.3-1.8-0.6
		c-0.5-0.3-0.9-0.7-1.2-1.2c-0.3-0.5-0.4-1.2-0.4-2.1V11h-2.9V7.8h2.9V2.6h4.8v5.2H97.1z"/>
	<path class="st0" d="M105.8,30.4c-0.9,0.6-2.2,0.9-3.8,0.9c-0.5,0-1,0-1.5-0.1c-0.5,0-1-0.1-1.5-0.1v-3.9c0.4,0,0.9,0.1,1.4,0.1
		c0.5,0,0.9,0.1,1.4,0c0.6-0.1,1.1-0.3,1.4-0.7c0.3-0.4,0.5-0.9,0.5-1.4c0-0.4-0.1-0.7-0.2-1.1L97.4,7.8h5.1l3.9,11.9h0.1l3.8-11.9
		h5L108,27.4C107.4,28.8,106.7,29.8,105.8,30.4z"/>
	<path class="st0" d="M121.8,1.1v24.1H117V1.1H121.8z"/>
	<path class="st0" d="M130.7,21c0.7,0.7,1.8,1,3.1,1c1,0,1.8-0.2,2.5-0.7c0.7-0.5,1.1-1,1.3-1.5h4.2c-0.7,2.1-1.7,3.6-3.1,4.5
		c-1.4,0.9-3.1,1.3-5.1,1.3c-1.4,0-2.6-0.2-3.7-0.7c-1.1-0.4-2-1.1-2.8-1.9c-0.8-0.8-1.4-1.8-1.8-2.9c-0.4-1.1-0.6-2.4-0.6-3.7
		c0-1.3,0.2-2.5,0.6-3.6c0.4-1.1,1-2.1,1.8-2.9c0.8-0.8,1.7-1.5,2.8-1.9c1.1-0.5,2.3-0.7,3.6-0.7c1.5,0,2.8,0.3,3.9,0.9
		c1.1,0.6,2,1.3,2.7,2.3c0.7,1,1.2,2.1,1.5,3.3c0.3,1.2,0.4,2.5,0.3,3.9h-12.6C129.6,19.2,130,20.3,130.7,21z M136.1,11.9
		c-0.6-0.6-1.4-0.9-2.6-0.9c-0.8,0-1.4,0.1-1.9,0.4c-0.5,0.3-0.9,0.6-1.2,1c-0.3,0.4-0.5,0.8-0.6,1.2c-0.1,0.4-0.2,0.8-0.2,1.1h7.8
		C137.1,13.4,136.7,12.5,136.1,11.9z"/>
</g>
</svg>
