<?xml version="1.0" encoding="utf-8"?>
<!-- Generator: Adobe Illustrator 27.2.0, SVG Export Plug-In . SVG Version: 6.00 Build 0)  -->
<svg version="1.1" id="Stripelight-logo" xmlns="http://www.w3.org/2000/svg" xmlns:xlink="http://www.w3.org/1999/xlink" x="0px"
	 y="0px" viewBox="0 0 145.7 31.7" style="enable-background:new 0 0 145.7 31.7;" xml:space="preserve">
<style type="text/css">
	.st0{enable-background:new    ;}
	.st1{fill:#FFFFFF;}
	.st2{fill:#C4F47E;}
</style>
<g class="st0">
	<path class="st1" d="M19,9.5v3.3l-14,15h14.2v3.1H0.9v-3.3l13.9-15.1H1.2v-3H19z"/>
	<path class="st1" d="M28.4,0.7v21.9l1.1-4.3l9-8.7h4.4L34.1,18l9.7,12.8h-4.1l-7.8-10.6l-3.4,3.3v7.3H25V0.7H28.4z"/>
	<path class="st1" d="M51,9.5v7.3l1.1-5.3c1.1-1.1,3-2.4,6-2.4c0.5,0,0.9,0,1.4,0.1v3.5c-0.6-0.1-1.1-0.2-1.6-0.2
		c-3.9,0-6.7,2-6.7,7.9v10.3h-3.4V9.5H51z"/>
</g>
<g class="st0">
	<path class="st2" d="M67.7,26.3v4.5h-4.5v-4.5C63.2,26.3,67.7,26.3,67.7,26.3z"/>
</g>
</svg>
