<svg id="Stripelight-logo" xmlns="http://www.w3.org/2000/svg" xmlns:xlink="http://www.w3.org/1999/xlink" viewBox="0 0 135.86 31.44"><defs><style>.cls-1{fill:none;}.cls-2{fill:#fff;}.cls-3{clip-path:url(#clip-path);}.cls-4{clip-path:url(#clip-path-2);}.cls-5{clip-path:url(#clip-path-3);}.cls-6{clip-path:url(#clip-path-4);}</style><clipPath id="clip-path" transform="translate(0 0)"><path class="cls-1" d="M53,16.29a1.63,1.63,0,0,1,.52,1.26A1.6,1.6,0,0,1,53,18.83a1.9,1.9,0,0,1-1.35.46,2,2,0,0,1-1.34-.45,1.77,1.77,0,0,1,0-2.49h0l.06-.06a2,2,0,0,1,1.35-.45,2,2,0,0,1,1.33.45m-2.94-3.12a1.38,1.38,0,0,1,.45-1.06,1.65,1.65,0,0,1,1.14-.39,1.63,1.63,0,0,1,1.14.4,1.32,1.32,0,0,1,.45,1,1.4,1.4,0,0,1-.43,1.07,1.61,1.61,0,0,1-1.13.39,1.66,1.66,0,0,1-1.15-.39h0a1.33,1.33,0,0,1-.47-1.05m1.59-2.8a3.91,3.91,0,0,0-2.38.74h0a2.29,2.29,0,0,0-1,2,2.1,2.1,0,0,0,1.49,2.09,2.89,2.89,0,0,0-1.38,1A2.75,2.75,0,0,0,49,19.91a4.9,4.9,0,0,0,5.35,0,2.65,2.65,0,0,0,1.07-2.24,2.55,2.55,0,0,0-.49-1.55,2.92,2.92,0,0,0-1.38-1A2.2,2.2,0,0,0,55,13a2.3,2.3,0,0,0-1-1.94,3.84,3.84,0,0,0-2.27-.73h-.11"/></clipPath><clipPath id="clip-path-2" transform="translate(0 0)"><path class="cls-1" d="M65.3,10.36a4.61,4.61,0,0,0-3.49,1.44h0a5.09,5.09,0,0,0-1.39,3.69v.11a5.22,5.22,0,0,0,1.29,3.72,5.39,5.39,0,0,0,6.63.45,3.88,3.88,0,0,0,1.38-2.71H67.91a2.31,2.31,0,0,1-.83,1.58,2.68,2.68,0,0,1-1.75.54,2.6,2.6,0,0,1-2.16-.94,4.07,4.07,0,0,1-.77-2.65v-.12a4,4,0,0,1,.79-2.65,2.6,2.6,0,0,1,2.13-1,2.17,2.17,0,0,1,2.4,2h1.9a3.55,3.55,0,0,0-1.34-2.61,4.75,4.75,0,0,0-2.79-.91H65.3"/></clipPath><clipPath id="clip-path-3" transform="translate(0 0)"><path class="cls-1" d="M103,19.68h0a3.85,3.85,0,0,1-1.3-.92,4.4,4.4,0,0,1-.88-1.41,4.86,4.86,0,0,1-.31-1.77v-.11a5.1,5.1,0,0,1,.29-1.77,4.51,4.51,0,0,1,.83-1.4,4,4,0,0,1,1.29-.93,4.21,4.21,0,0,1,1.68-.34,4,4,0,0,1,1.68.35,3.87,3.87,0,0,1,1.29.94,4.16,4.16,0,0,1,.83,1.4,5.31,5.31,0,0,1,.29,1.72v.11a5.42,5.42,0,0,1-.3,1.79,4.11,4.11,0,0,1-.83,1.41,4,4,0,0,1-1.28.93,3.9,3.9,0,0,1-1.65.33h0a4,4,0,0,1-1.6-.33m-.34-8.89h0a4.73,4.73,0,0,0-1.56,1.09,5,5,0,0,0-1,1.61,5.49,5.49,0,0,0-.36,2v.11a5.34,5.34,0,0,0,.36,2,4.83,4.83,0,0,0,4.56,3.09,4.62,4.62,0,0,0,1.94-.4,4.79,4.79,0,0,0,1.54-1.09,5,5,0,0,0,1-1.61,5.5,5.5,0,0,0,.37-2v-.11a5.35,5.35,0,0,0-.37-2,4.82,4.82,0,0,0-1-1.61,5,5,0,0,0-5.46-1.08"/></clipPath><clipPath id="clip-path-4" transform="translate(0 0)"><path class="cls-1" d="M129.85,10.4a4,4,0,0,0-1.28.19h0a2.85,2.85,0,0,0-1,.54,2.66,2.66,0,0,0-.66.83,2.32,2.32,0,0,0-.23,1.07,2.12,2.12,0,0,0,.79,1.8,5.41,5.41,0,0,0,2.46.85,9,9,0,0,1,1.27.27,2.55,2.55,0,0,1,.84.42,1.33,1.33,0,0,1,.45.62,2.49,2.49,0,0,1,.13.9,2,2,0,0,1-.18.86,1.93,1.93,0,0,1-.53.68,2.52,2.52,0,0,1-.82.45A3.19,3.19,0,0,1,130,20a4,4,0,0,1-1.32-.19,2.6,2.6,0,0,1-.88-.51,2,2,0,0,1-.51-.75,3.54,3.54,0,0,1-.25-.9h-.78a4.66,4.66,0,0,0,.33,1.16,2.7,2.7,0,0,0,.69.95,3.37,3.37,0,0,0,1.12.64,5.12,5.12,0,0,0,1.6.23,4,4,0,0,0,1.38-.22,3.32,3.32,0,0,0,1.06-.62,2.66,2.66,0,0,0,.91-2,3.24,3.24,0,0,0-.2-1.19,2,2,0,0,0-.62-.82,3.33,3.33,0,0,0-1-.52,9.17,9.17,0,0,0-1.47-.32,8,8,0,0,1-1.29-.29,2.46,2.46,0,0,1-.8-.42,1.3,1.3,0,0,1-.42-.56,2.28,2.28,0,0,1-.12-.73,1.72,1.72,0,0,1,.64-1.42,2.81,2.81,0,0,1,1.8-.51,2.75,2.75,0,0,1,1.72.47,2.26,2.26,0,0,1,.79,1.41h.72a2.77,2.77,0,0,0-1-1.86,3.5,3.5,0,0,0-2.05-.66h-.18"/></clipPath></defs><g id="Group_43" data-name="Group 43"><path id="Path_21" data-name="Path 21" class="cls-2" d="M1.18,23.35l4-2.33v4.66ZM6,26.14V20.56L10.53,18V28.74Zm5.3,3.06V17.5l4.52-2.61V29.25l-2.22,1.28Zm5.3-14.76,4.52-2.61V26.19L16.61,28.8Zm5.31-3.06,4.52-2.62V23.12l-4.52,2.61ZM.79,8.31,13.61.9,26.05,8.08.79,22.67ZM.2,7.74,0,7.86V23.58l10.67,6.18.13-.22h0l-.11.21,2.92,1.69L27,23.69l.2-.11V7.86L13.81.11,13.61,0Z" transform="translate(0 0)"/><path id="Path_22" data-name="Path 22" class="cls-2" d="M43.68,11.93v5.2h-3Zm-5,5.93v.66h5v2h1.82v-2h1.34V17.13H45.47V10.51H43.12Z" transform="translate(0 0)"/><g id="Group_36" data-name="Group 36"><g class="cls-3"><g id="Group_35" data-name="Group 35"><rect id="Rectangle_43" data-name="Rectangle 43" class="cls-2" x="45.71" y="10.6" width="11.88" height="9.86" transform="matrix(0.25, -0.97, 0.97, 0.25, 23.65, 61.63)"/></g></g></g><g id="Group_38" data-name="Group 38"><g class="cls-4"><g id="Group_37" data-name="Group 37"><rect id="Rectangle_44" data-name="Rectangle 44" class="cls-2" x="58.91" y="9.73" width="12.35" height="11.6" transform="matrix(0.25, -0.97, 0.97, 0.25, 33.72, 74.63)"/></g></g></g><path id="Path_25" data-name="Path 25" class="cls-2" d="M71.41,10.51v10h1.88v-10Z" transform="translate(0 0)"/><path id="Path_26" data-name="Path 26" class="cls-2" d="M74.88,10.51h0V12h2.8v8.57h1.88V12h2.8V10.51H74.88Z" transform="translate(0 0)"/><path id="Path_27" data-name="Path 27" class="cls-2" d="M89.48,10.51l-2.21,4.16L85,10.51H83l3.33,5.69v4.36h1.88V16.22l3.15-5.71Z" transform="translate(0 0)"/><path id="Path_28" data-name="Path 28" class="cls-2" d="M92.84,10.51h0v10H98.5v-.63H93.62V10.51Z" transform="translate(0 0)"/><g id="Group_40" data-name="Group 40"><g class="cls-5"><g id="Group_39" data-name="Group 39"><rect id="Rectangle_45" data-name="Rectangle 45" class="cls-2" x="98.43" y="9.51" width="12.4" height="12.05" transform="translate(63.33 112.92) rotate(-75.46)"/></g></g></g><path id="Path_30" data-name="Path 30" class="cls-2" d="M111.54,10.51v10h.79V15.79h3.88v-.63h-3.88v-4h4.93v-.63Z" transform="translate(0 0)"/><path id="Path_31" data-name="Path 31" class="cls-2" d="M118.26,10.51h0v.63h3.12v9.42h.79V11.14h3.12v-.63Z" transform="translate(0 0)"/><g id="Group_42" data-name="Group 42"><g class="cls-6"><g id="Group_41" data-name="Group 41"><rect id="Rectangle_46" data-name="Rectangle 46" class="cls-2" x="123.97" y="10.82" width="11.72" height="9.44" transform="translate(82.2 137.31) rotate(-75.46)"/></g></g></g></g></svg>