<?xml version="1.0" encoding="utf-8"?>
<!-- Generator: Adobe Illustrator 25.2.3, SVG Export Plug-In . SVG Version: 6.00 Build 0)  -->
<svg version="1.1" id="Stripelight-logo" xmlns="http://www.w3.org/2000/svg" xmlns:xlink="http://www.w3.org/1999/xlink" x="0px"
	 y="0px" viewBox="0 0 179.2 31.7" style="enable-background:new 0 0 179.2 31.7;" xml:space="preserve">
<style type="text/css">
	.st0{fill:#FFFFFF;}
</style>
<g>
	<g>
		<path class="st0" d="M8.3,26.6l-2.6-8.3H4.3v8.3H0V5.3h6.1c4.7,0,5.9,2.4,5.9,6.5c0,2.3-0.4,4.3-2.4,5.6l3.1,9.2H8.3z M6.1,9.1
			H4.3v5.4h1.8c1.6,0,1.7-1.5,1.7-2.7S7.7,9.1,6.1,9.1z"/>
		<path class="st0" d="M23.3,25.3c-1,0.9-2.6,1.6-4.7,1.6c-2.1,0-3.7-0.6-4.6-1.6c-1.1-1.1-1.4-2.6-1.4-4.7h4.3c0,0.9,0.1,1.5,0.5,2
			c0.2,0.3,0.7,0.5,1.3,0.5c0.7,0,1.1-0.2,1.4-0.5c0.3-0.4,0.4-0.9,0.4-1.8c0-2-0.3-2.4-1.9-3l-2.7-1.1c-2.2-0.9-3.1-2-3.1-5.4
			c0-2,0.6-3.6,1.9-4.7c1-0.9,2.3-1.4,3.9-1.4c1.9,0,3.3,0.5,4.2,1.4c1.2,1.1,1.7,2.8,1.7,5h-4.3c0-0.8,0-1.4-0.4-1.9
			c-0.2-0.3-0.6-0.5-1.2-0.5c-0.6,0-1,0.2-1.2,0.6C17.1,9.9,17,10.3,17,11c0,1.4,0.2,1.7,1.5,2.3l2.7,1.1c2.7,1.1,3.5,2.3,3.5,6.2
			C24.6,22.7,24.4,24.2,23.3,25.3z"/>
		<path class="st0" d="M36.2,24.6c-1,1.1-2.3,2.1-4.7,2.1h-6V5.3h6c2.4,0,3.7,1,4.7,2.1c1.7,2,1.6,5.8,1.6,8.6S37.9,22.6,36.2,24.6z
			 M33,10c-0.3-0.5-0.8-0.9-1.6-0.9h-1.7v13.7h1.7c0.8,0,1.3-0.4,1.6-0.9c0.5-1,0.5-3.6,0.5-5.9S33.5,11,33,10z"/>
		<path class="st0" d="M51.7,26.6L51,23.3h-4.9l-0.7,3.3h-4.4l5.5-21.4h4.2l5.5,21.4H51.7z M48.5,11.5l-1.7,7.9h3.3L48.5,11.5z"/>
		<path class="st0" d="M66.8,26.6l-0.7-3.3h-4.9l-0.7,3.3h-4.4l5.5-21.4h4.2l5.5,21.4H66.8z M63.7,11.5L62,19.5h3.3L63.7,11.5z"/>
		<path class="st0" d="M80.6,26.6l-4.5-10.4v10.4h-4.3V5.3h3.7L80,15.7V5.3h4.3v21.4H80.6z"/>
		<path class="st0" d="M100.3,24.6c-1,1.1-2.3,2.1-4.7,2.1h-6V5.3h6c2.4,0,3.7,1,4.7,2.1c1.7,2,1.6,5.8,1.6,8.6S102,22.6,100.3,24.6
			z M97.1,10c-0.3-0.5-0.8-0.9-1.6-0.9h-1.7v13.7h1.7c0.8,0,1.3-0.4,1.6-0.9c0.5-1,0.5-3.6,0.5-5.9S97.6,11,97.1,10z"/>
		<path class="st0" d="M102.7,26.6V5.3h9.8v3.8h-5.6v4.8h4.8v3.8h-4.8v5h5.6v3.8H102.7z"/>
		<path class="st0" d="M127.1,25.2c-0.9,0.9-2.3,1.4-4.4,1.4h-6.2V5.3h6.2c2.1,0,3.5,0.5,4.5,1.4c1,1,1.4,2.6,1.4,4.6
			c0,1.4-0.1,2.6-1,3.5c-0.3,0.3-0.6,0.5-1,0.7c0.4,0.2,0.7,0.5,1,0.8c1,1.1,1.1,2.7,1.1,3.9C128.6,22.4,128.2,24.1,127.1,25.2z
			 M122,9.1h-1.3v4.6h1.3c1.7,0,2.3-0.7,2.3-2.3C124.3,9.8,123.8,9.1,122,9.1z M122.1,17.3h-1.4v5.5h1.4c1.7,0,2.2-0.8,2.2-2.8
			C124.3,18.1,123.8,17.3,122.1,17.3z"/>
		<path class="st0" d="M139,26.6l-0.7-3.3h-4.9l-0.7,3.3h-4.4l5.5-21.4h4.2l5.5,21.4H139z M135.9,11.5l-1.7,7.9h3.3L135.9,11.5z"/>
		<path class="st0" d="M152.7,26.6l-3.1-7.8l-1.4,2.9v4.9H144V5.3h4.3v9.2l4.1-9.2h4.3l-4.3,8.9l5,12.5H152.7z"/>
	</g>
	<path class="st0" d="M167.9,4.8c-5.9,0-10.8,4.8-10.8,10.8s4.8,10.8,10.8,10.8c5.9,0,10.8-4.8,10.8-10.8S173.9,4.8,167.9,4.8z
		 M162.9,20.4h-2.2v-2.2h2.2V20.4z M169.5,20.4h-1.7l-2.2-5v5h-2V10.1h1.8l2.1,5v-5h2V20.4z M174.9,20.4h-4.7V10.1h2v8.4h2.7V20.4z"
		/>
</g>
</svg>
