<?xml version="1.0" encoding="utf-8"?>
<!-- Generator: Adobe Illustrator 24.0.2, SVG Export Plug-In . SVG Version: 6.00 Build 0)  -->
<svg version="1.1" id="Stripelight-logo" xmlns="http://www.w3.org/2000/svg" xmlns:xlink="http://www.w3.org/1999/xlink" x="0px"
	 y="0px" viewBox="0 0 112.4 25.7" style="enable-background:new 0 0 112.4 25.7;" xml:space="preserve">
<style type="text/css">
	.st0{fill:#FFFFFF;}
</style>
<path class="st0" d="M53.3,4.7l-6.6,15.6C46,21.9,44.4,23,42.5,23H4.4L11,7.5c0.7-1.7,2.4-2.8,4.2-2.8L53.3,4.7 M55.3,3.4H15.2
	c-2.3,0-4.5,1.4-5.4,3.5L2.4,24.3h40.1c2.3,0,4.5-1.4,5.4-3.5L55.3,3.4z"/>
<g>
	<path class="st0" d="M14,7.2h3.5l5.6,13.3h-3.9l-1-2.4h-5.1l-0.9,2.4H8.4L14,7.2z M17.3,15.3l-1.5-3.8l-1.5,3.8H17.3z"/>
	<path class="st0" d="M24.9,7.3h6.8c0.8,0,1.5,0.1,2.1,0.3c0.6,0.2,1.1,0.5,1.5,0.9c0.3,0.3,0.5,0.6,0.6,0.9
		c0.2,0.3,0.2,0.8,0.2,1.2v0c0,0.8-0.2,1.4-0.6,1.9c-0.4,0.5-0.9,0.8-1.4,1.1c0.8,0.3,1.4,0.6,1.9,1.1c0.5,0.5,0.7,1.2,0.7,2.1v0
		c0,1.1-0.4,2-1.3,2.7c-0.9,0.6-2.1,1-3.7,1h-6.8L24.9,7.3L24.9,7.3z M30.7,12.5c0.6,0,1-0.1,1.3-0.3c0.3-0.2,0.4-0.5,0.4-0.9v0
		c0-0.4-0.1-0.6-0.4-0.8c-0.3-0.2-0.7-0.3-1.2-0.3h-2.4v2.3H30.7z M31.3,17.5c0.6,0,1-0.1,1.3-0.3c0.3-0.2,0.5-0.5,0.5-0.9v0
		c0-0.4-0.1-0.6-0.4-0.9c-0.3-0.2-0.8-0.3-1.4-0.3h-2.8v2.4L31.3,17.5L31.3,17.5z"/>
	<polygon class="st0" points="42.4,15.8 45.7,15.8 47,12.7 42.4,12.7 42.4,10.5 47.9,10.5 49.3,7.3 38.7,7.3 38.7,20.5 42.4,20.5 	
		"/>
</g>
</svg>
