<?xml version="1.0" encoding="utf-8"?>
<!-- Generator: Adobe Illustrator 26.5.0, SVG Export Plug-In . SVG Version: 6.00 Build 0)  -->
<svg version="1.1" id="Stripelight-logo" xmlns="http://www.w3.org/2000/svg" xmlns:xlink="http://www.w3.org/1999/xlink" x="0px"
	 y="0px" viewBox="0 0 145.7 31.7" style="enable-background:new 0 0 145.7 31.7;" xml:space="preserve">
<style type="text/css">
	.st0{fill:#FFFFFF;}
</style>
<g id="Group_3" transform="translate(-673.616 -412.441)">
	<g id="Group_134" transform="translate(673.616 412.441)">
		<path id="Path_83" class="st0" d="M27,14.7h-3.8v0.6c-1-0.4-2-0.7-3.1-0.7c-3.1,0-5.7,2-6.6,4.9c0,0-0.1,0.7-0.3,1.2l0,0
			c0,0.3,0,0.9,0,0.9l0,0c0,1.7-1.5,3.1-3.2,3.1s-3.1-1.5-3.1-3.2c0-1.7,1.5-3.1,3.2-3.1c0.6,0,1.2,0.1,1.6,0.4
			c0.4-1.2,1-2.3,1.9-3.3c-1-0.6-2.3-1-3.5-1c-3.8,0-7,3.1-7.1,6.8c0,3.8,3.1,7,6.8,7.1c3.6,0,6.8-2.8,7.1-6.6c0,0,0-0.3,0-0.4
			c0-0.4,0.1-0.9,0.3-1.3c0.7-1.6,2.6-2.3,4.1-1.6c1.2,0.4,1.7,1.6,1.9,2.8v0.3c0,1.7-1.5,3.1-3.1,3.1c-0.6,0-1.2-0.1-1.7-0.4
			c-0.4,1.2-1,2.3-1.9,3.3c2,1.3,4.5,1.3,6.7,0.3v0.3h3.8v-6.3c0-0.1,0-0.1,0-0.3c0-0.1,0-0.1,0-0.3L27,14.7z M32.7,16.1L32.7,16.1
			v-1.5h-3.6v13.4H33v-7.3c0-2,1.3-2.2,3.1-2.2v-4.1C33.7,14.5,33,15.5,32.7,16.1 M96.8,16.1c1.9,0,3.8,1,4.7,2.8h1.9
			c-1-2.6-3.6-4.4-6.6-4.4c-3.9,0-7,3.1-7,7c0,3.8,3.1,7,6.8,7h0.1c3.9,0,5.7-2.6,6.6-4.2h-1.9c-0.9,1.7-2.6,2.8-4.7,2.8
			c-3.1,0-5.4-2.5-5.4-5.5C91.4,18.5,93.9,16.1,96.8,16.1 M86.1,20.6c-0.3-2.8-2.9-4.8-5.7-4.5c-2.3,0.3-4.2,2.2-4.5,4.5H86.1z
			 M81,14.5c2.5,0,4.7,1.3,5.8,3.3c0.7,1.3,1.2,2.8,1,4.2H75.9c0.1,2.6,2.3,4.7,5.1,4.8c2,0,3.9-1.2,4.7-3.2h1.7
			c-1.2,3.5-4.9,5.5-8.6,4.4c-2.8-0.9-4.7-3.6-4.7-6.6C74.2,17.7,77.3,14.7,81,14.5 M70.9,28.2h1.6V10.2h-1.6V28.2z M66.6,28.2h1.6
			V10.2h-1.7L66.6,28.2z M57.9,26.9c3.1-0.1,5.2-2.8,5.1-5.7c-0.1-2.8-2.3-4.9-5.1-5.1c-3.1,0.1-5.2,2.8-5.1,5.7
			C52.9,24.6,55.1,26.8,57.9,26.9 M57.9,14.5c3.8-0.1,7,2.9,7.1,6.8c0.1,3.8-2.9,7-6.8,7.1c-3.8,0.1-7-2.9-7.1-6.8l0,0
			C51.1,17.9,54.1,14.7,57.9,14.5 M43.8,16.1c1.9,0,3.8,1,4.7,2.8h1.9c-1-2.6-3.6-4.4-6.6-4.4c-3.9,0-7,3.1-7,7c0,3.8,3.1,7,6.8,7
			h0.1c3.9,0,5.7-2.6,6.6-4.2h-1.9C47.6,26,45.8,27,43.8,27c-3.1,0-5.4-2.5-5.4-5.5C38.5,18.5,40.9,16.1,43.8,16.1 M108.4,10.2v4.4
			h2.5v1.7h-2.5v11.8h-1.7V16.3h-2.5v-1.7h2.5v-4.4L108.4,10.2z"/>
	</g>
</g>
</svg>
