<?xml version="1.0" encoding="utf-8"?>
<!-- Generator: Adobe Illustrator 24.1.3, SVG Export Plug-In . SVG Version: 6.00 Build 0)  -->
<svg version="1.1" id="Stripelight-logo" xmlns="http://www.w3.org/2000/svg" xmlns:xlink="http://www.w3.org/1999/xlink" x="0px"
	 y="0px" viewBox="0 0 145.7 31.7" style="enable-background:new 0 0 145.7 31.7;" xml:space="preserve">
<style type="text/css">
	.st0{fill:#FFFFFF;}
	.st1{opacity:0.6;fill:#FFFFFF;enable-background:new    ;}
</style>
<g>
	<g>
		<path class="st0" d="M42.2,10.5c0,0.4-0.1,0.7-0.4,0.9c-0.3,0.2-0.6,0.4-0.9,0.4s-0.7-0.1-0.9-0.4c-0.3-0.2-0.4-0.6-0.4-0.9
			c0-0.4,0.1-0.7,0.4-1c0.3-0.2,0.6-0.4,0.9-0.4s0.7,0.1,0.9,0.4C42.1,9.7,42.2,10.1,42.2,10.5z M42,22.4h-2.1v-9.2H42V22.4z"/>
		<path class="st0" d="M44.7,13.5c0.4-0.1,0.9-0.2,1.6-0.3c0.7-0.1,1.4-0.2,2.2-0.2c0.8,0,1.4,0.1,1.9,0.3c0.5,0.2,0.9,0.5,1.2,0.9
			s0.5,0.8,0.6,1.3c0.1,0.5,0.2,1.1,0.2,1.7v5.2h-2.1v-4.9c0-0.5,0-0.9-0.1-1.3s-0.2-0.6-0.3-0.8s-0.3-0.4-0.6-0.5
			c-0.3-0.1-0.6-0.1-0.9-0.1c-0.3,0-0.6,0-0.8,0.1c-0.3,0-0.5,0.1-0.7,0.1v7.5h-2.1L44.7,13.5L44.7,13.5z"/>
		<path class="st0" d="M54.4,10.7l2.1-0.4v2.8h3.3V15h-3.3v3.8c0,0.7,0.1,1.3,0.4,1.6c0.2,0.3,0.6,0.5,1.2,0.5c0.4,0,0.7,0,1-0.1
			s0.5-0.2,0.7-0.2l0.4,1.7c-0.2,0.1-0.6,0.2-1,0.3c-0.4,0.1-0.9,0.2-1.4,0.2c-0.7,0-1.2-0.1-1.6-0.3s-0.8-0.4-1-0.8
			c-0.3-0.3-0.4-0.7-0.5-1.2c-0.1-0.5-0.2-1-0.2-1.6L54.4,10.7L54.4,10.7z"/>
		<path class="st0" d="M61.2,17.8c0-0.8,0.1-1.5,0.4-2.1c0.2-0.6,0.6-1.1,1-1.5c0.4-0.4,0.9-0.7,1.4-0.9c0.5-0.2,1-0.3,1.6-0.3
			c1.3,0,2.3,0.4,3,1.2c0.7,0.8,1.1,2,1.1,3.5c0,0.1,0,0.2,0,0.4c0,0.1,0,0.3,0,0.4h-6.1c0.1,0.7,0.3,1.3,0.8,1.7
			c0.5,0.4,1.1,0.6,2,0.6c0.5,0,1,0,1.4-0.1c0.4-0.1,0.8-0.2,1-0.3l0.3,1.7c-0.1,0.1-0.3,0.1-0.5,0.2c-0.2,0.1-0.4,0.1-0.7,0.2
			c-0.3,0.1-0.5,0.1-0.9,0.1c-0.3,0-0.6,0.1-0.9,0.1c-0.8,0-1.5-0.1-2.1-0.4c-0.6-0.2-1.1-0.6-1.5-1s-0.7-0.9-0.9-1.5
			C61.3,19.2,61.2,18.5,61.2,17.8z M67.4,16.9c0-0.3,0-0.6-0.1-0.8c-0.1-0.3-0.2-0.5-0.4-0.7c-0.2-0.2-0.4-0.3-0.6-0.5
			c-0.2-0.1-0.5-0.2-0.8-0.2c-0.3,0-0.6,0.1-0.9,0.2c-0.2,0.1-0.5,0.3-0.6,0.5c-0.2,0.2-0.3,0.4-0.4,0.7c-0.1,0.3-0.2,0.5-0.2,0.8
			L67.4,16.9L67.4,16.9z"/>
		<path class="st0" d="M71.5,13.5c0.4-0.1,0.9-0.2,1.6-0.3s1.4-0.2,2.2-0.2c0.8,0,1.4,0.1,1.9,0.3c0.5,0.2,0.9,0.5,1.2,0.9
			s0.5,0.8,0.6,1.3c0.1,0.5,0.2,1.1,0.2,1.7v5.2h-2.1v-4.9c0-0.5,0-0.9-0.1-1.3c-0.1-0.3-0.2-0.6-0.3-0.8S76.3,15.1,76,15
			c-0.3-0.1-0.6-0.1-0.9-0.1c-0.3,0-0.6,0-0.8,0.1c-0.3,0-0.5,0.1-0.7,0.1v7.5h-2.1L71.5,13.5L71.5,13.5z"/>
		<path class="st0" d="M88.5,14.7c-0.2,0.2-0.5,0.6-0.9,1c-0.4,0.4-0.8,0.9-1.2,1.5c-0.4,0.5-0.9,1.1-1.3,1.7
			c-0.4,0.6-0.8,1.2-1.2,1.7h4.8v1.8h-7.3v-1.3c0.3-0.5,0.6-1,1-1.5c0.4-0.6,0.8-1.1,1.2-1.7c0.4-0.6,0.8-1.1,1.2-1.6
			c0.4-0.5,0.8-0.9,1.1-1.3h-4.3v-1.8h7V14.7z"/>
		<path class="st0" d="M93.7,13c0.7,0,1.3,0.1,1.8,0.3c0.5,0.2,0.9,0.4,1.2,0.7c0.3,0.3,0.5,0.7,0.6,1.2c0.1,0.5,0.2,0.9,0.2,1.5
			v5.6c-0.3,0.1-0.8,0.2-1.5,0.3c-0.7,0.1-1.4,0.1-2.3,0.1c-0.6,0-1.1-0.1-1.5-0.2c-0.5-0.1-0.8-0.3-1.2-0.5
			c-0.3-0.2-0.6-0.5-0.8-0.9C90,20.6,90,20.2,90,19.6c0-0.5,0.1-1,0.3-1.3c0.2-0.4,0.5-0.7,0.8-0.9c0.4-0.2,0.8-0.4,1.2-0.5
			c0.5-0.1,0.9-0.1,1.5-0.1c0.2,0,0.5,0,0.7,0c0.3,0,0.5,0.1,0.8,0.1v-0.4c0-0.2,0-0.5-0.1-0.7c-0.1-0.2-0.2-0.4-0.3-0.6
			c-0.2-0.2-0.3-0.3-0.6-0.4c-0.2-0.1-0.5-0.1-0.9-0.1c-0.5,0-0.9,0-1.4,0.1c-0.4,0.1-0.7,0.2-1,0.2l-0.3-1.7
			c0.3-0.1,0.7-0.2,1.2-0.3C92.5,13,93.1,13,93.7,13z M93.9,20.9c0.7,0,1.2,0,1.5-0.1v-2.4c-0.1,0-0.3-0.1-0.5-0.1
			c-0.2,0-0.5-0.1-0.7-0.1c-0.2,0-0.5,0-0.7,0.1c-0.2,0-0.5,0.1-0.7,0.2c-0.2,0.1-0.3,0.2-0.5,0.4c-0.1,0.2-0.2,0.4-0.2,0.6
			c0,0.5,0.2,0.9,0.5,1C92.9,20.8,93.3,20.9,93.9,20.9z"/>
	</g>
	<g>
		<path class="st0" d="M40.7,28.3c-0.1-0.3-0.3-0.6-0.4-1c-0.1-0.4-0.3-0.8-0.4-1.2h0.5c0,0.1,0.1,0.3,0.1,0.4
			c0,0.1,0.1,0.3,0.1,0.4c0,0.1,0.1,0.3,0.1,0.4s0.1,0.3,0.1,0.4c0-0.1,0.1-0.2,0.1-0.4c0.1-0.1,0.1-0.3,0.1-0.4
			c0-0.1,0.1-0.3,0.1-0.4c0-0.1,0.1-0.3,0.1-0.4H42c-0.1,0.4-0.3,0.8-0.4,1.2c-0.1,0.4-0.3,0.7-0.4,1H40.7z"/>
		<path class="st0" d="M43.3,26c0.2,0,0.3,0,0.4,0.1c0.1,0,0.2,0.1,0.3,0.2c0.1,0.1,0.1,0.2,0.1,0.3c0,0.1,0,0.2,0,0.4v1.3
			c-0.1,0-0.2,0-0.4,0.1c-0.2,0-0.3,0-0.5,0c-0.1,0-0.3,0-0.4,0c-0.1,0-0.2-0.1-0.3-0.1c-0.1-0.1-0.1-0.1-0.2-0.2
			c0-0.1-0.1-0.2-0.1-0.3c0-0.1,0-0.2,0.1-0.3c0-0.1,0.1-0.2,0.2-0.2C42.7,27,42.8,27,43,27c0.1,0,0.2,0,0.3,0c0.1,0,0.1,0,0.2,0
			c0.1,0,0.1,0,0.2,0v-0.1c0-0.1,0-0.1,0-0.2c0-0.1,0-0.1-0.1-0.1c0,0-0.1-0.1-0.1-0.1c-0.1,0-0.1,0-0.2,0c-0.1,0-0.2,0-0.3,0
			c-0.1,0-0.2,0-0.2,0.1l-0.1-0.4c0.1,0,0.2,0,0.3-0.1C43,26,43.2,26,43.3,26z M43.3,28c0.2,0,0.3,0,0.4,0v-0.6c0,0-0.1,0-0.1,0
			c-0.1,0-0.1,0-0.2,0c-0.1,0-0.1,0-0.2,0c-0.1,0-0.1,0-0.2,0c0,0-0.1,0.1-0.1,0.1c0,0,0,0.1,0,0.2c0,0.1,0,0.2,0.1,0.3
			C43.1,27.9,43.2,28,43.3,28z"/>
		<path class="st0" d="M45.1,26.2c0.1,0,0.2-0.1,0.4-0.1c0.2,0,0.3,0,0.5,0c0.2,0,0.3,0,0.5,0.1c0.1,0,0.2,0.1,0.3,0.2
			c0.1,0.1,0.1,0.2,0.2,0.3c0,0.1,0,0.3,0,0.4v1.2h-0.5v-1.2c0-0.1,0-0.2,0-0.3s0-0.2-0.1-0.2c0-0.1-0.1-0.1-0.1-0.1
			c-0.1,0-0.1,0-0.2,0c-0.1,0-0.1,0-0.2,0c-0.1,0-0.1,0-0.2,0v1.8h-0.5V26.2z"/>
		<path class="st0" d="M49.8,26c0.2,0,0.3,0,0.4,0.1c0.1,0,0.2,0.1,0.3,0.2c0.1,0.1,0.1,0.2,0.1,0.3c0,0.1,0,0.2,0,0.4v1.3
			c-0.1,0-0.2,0-0.4,0.1c-0.2,0-0.3,0-0.5,0c-0.1,0-0.3,0-0.4,0c-0.1,0-0.2-0.1-0.3-0.1c-0.1-0.1-0.1-0.1-0.2-0.2
			c0-0.1-0.1-0.2-0.1-0.3c0-0.1,0-0.2,0.1-0.3c0-0.1,0.1-0.2,0.2-0.2c0.1-0.1,0.2-0.1,0.3-0.1c0.1,0,0.2,0,0.3,0c0.1,0,0.1,0,0.2,0
			c0.1,0,0.1,0,0.2,0v-0.1c0-0.1,0-0.1,0-0.2c0-0.1,0-0.1-0.1-0.1c0,0-0.1-0.1-0.1-0.1c-0.1,0-0.1,0-0.2,0c-0.1,0-0.2,0-0.3,0
			c-0.1,0-0.2,0-0.2,0.1l-0.1-0.4c0.1,0,0.2,0,0.3-0.1C49.5,26,49.6,26,49.8,26z M49.8,28c0.2,0,0.3,0,0.4,0v-0.6c0,0-0.1,0-0.1,0
			c-0.1,0-0.1,0-0.2,0s-0.1,0-0.2,0c-0.1,0-0.1,0-0.2,0c0,0-0.1,0.1-0.1,0.1c0,0,0,0.1,0,0.2c0,0.1,0,0.2,0.1,0.3
			C49.6,27.9,49.7,28,49.8,28z"/>
		<path class="st0" d="M52.8,27.2c0-0.2,0-0.4-0.1-0.5c-0.1-0.1-0.2-0.2-0.3-0.2c-0.1,0-0.1,0-0.2,0s-0.1,0-0.2,0v1.8h-0.5v-2.2
			c0.1,0,0.2-0.1,0.4-0.1c0.2,0,0.3,0,0.5,0c0.2,0,0.3,0,0.4,0.1c0.1,0,0.2,0.1,0.2,0.2c0,0,0.1,0,0.1-0.1c0,0,0.1,0,0.2-0.1
			c0.1,0,0.1,0,0.2-0.1c0.1,0,0.1,0,0.2,0c0.2,0,0.3,0,0.4,0.1c0.1,0,0.2,0.1,0.3,0.2c0.1,0.1,0.1,0.2,0.1,0.3c0,0.1,0,0.3,0,0.4
			v1.2h-0.5v-1.2c0-0.2,0-0.4-0.1-0.5c-0.1-0.1-0.2-0.2-0.3-0.2c-0.1,0-0.2,0-0.2,0c-0.1,0-0.1,0.1-0.2,0.1c0,0.1,0,0.1,0,0.2
			c0,0.1,0,0.2,0,0.3v1.2h-0.5V27.2z"/>
		<path class="st0" d="M57.5,27.2c0,0.2,0,0.3-0.1,0.5c-0.1,0.1-0.1,0.3-0.2,0.4c-0.1,0.1-0.2,0.2-0.4,0.2c-0.1,0.1-0.3,0.1-0.5,0.1
			c-0.2,0-0.3,0-0.5,0c-0.2,0-0.3-0.1-0.4-0.1v-3.1L56,25v1.1c0.1,0,0.1-0.1,0.2-0.1c0.1,0,0.2,0,0.3,0c0.2,0,0.3,0,0.4,0.1
			c0.1,0.1,0.2,0.1,0.3,0.2c0.1,0.1,0.1,0.2,0.2,0.4C57.5,26.9,57.5,27,57.5,27.2z M57,27.2c0-0.2,0-0.4-0.1-0.5
			c-0.1-0.1-0.2-0.2-0.4-0.2c-0.1,0-0.2,0-0.2,0c-0.1,0-0.1,0.1-0.2,0.1v1.3c0,0,0.1,0,0.1,0c0.1,0,0.1,0,0.2,0
			c0.2,0,0.3-0.1,0.4-0.2C56.9,27.6,57,27.4,57,27.2z"/>
		<path class="st0" d="M58.8,25.4c0,0.1,0,0.2-0.1,0.2c-0.1,0.1-0.1,0.1-0.2,0.1c-0.1,0-0.2,0-0.2-0.1c-0.1-0.1-0.1-0.1-0.1-0.2
			s0-0.2,0.1-0.2c0.1-0.1,0.1-0.1,0.2-0.1c0.1,0,0.2,0,0.2,0.1C58.8,25.3,58.8,25.4,58.8,25.4z M58.8,28.3h-0.5v-2.2h0.5V28.3z"/>
		<path class="st0" d="M59.7,25.5l0.5-0.1v0.7H61v0.4h-0.8v0.9c0,0.2,0,0.3,0.1,0.4c0.1,0.1,0.2,0.1,0.3,0.1c0.1,0,0.2,0,0.2,0
			s0.1,0,0.2-0.1l0.1,0.4c-0.1,0-0.1,0.1-0.2,0.1c-0.1,0-0.2,0-0.3,0c-0.2,0-0.3,0-0.4-0.1c-0.1,0-0.2-0.1-0.3-0.2
			c-0.1-0.1-0.1-0.2-0.1-0.3c0-0.1,0-0.2,0-0.4L59.7,25.5L59.7,25.5z"/>
		<path class="st0" d="M62.3,25.4c0,0.1,0,0.2-0.1,0.2c-0.1,0.1-0.1,0.1-0.2,0.1c-0.1,0-0.2,0-0.2-0.1c-0.1-0.1-0.1-0.1-0.1-0.2
			s0-0.2,0.1-0.2c0.1-0.1,0.1-0.1,0.2-0.1c0.1,0,0.2,0,0.2,0.1C62.2,25.3,62.3,25.4,62.3,25.4z M62.2,28.3h-0.5v-2.2h0.5V28.3z"/>
		<path class="st0" d="M63,27.2c0-0.2,0-0.4,0.1-0.5c0.1-0.1,0.1-0.3,0.2-0.4c0.1-0.1,0.2-0.2,0.3-0.2c0.1,0,0.3-0.1,0.4-0.1
			c0.3,0,0.5,0.1,0.7,0.3s0.3,0.5,0.3,0.8c0,0,0,0.1,0,0.1c0,0,0,0.1,0,0.1h-1.5c0,0.2,0.1,0.3,0.2,0.4c0.1,0.1,0.3,0.1,0.5,0.1
			c0.1,0,0.2,0,0.3,0c0.1,0,0.2,0,0.2-0.1l0.1,0.4c0,0-0.1,0-0.1,0c0,0-0.1,0-0.2,0c-0.1,0-0.1,0-0.2,0c-0.1,0-0.1,0-0.2,0
			c-0.2,0-0.4,0-0.5-0.1c-0.1-0.1-0.3-0.1-0.4-0.2c-0.1-0.1-0.2-0.2-0.2-0.4C63,27.5,63,27.4,63,27.2z M64.5,27c0-0.1,0-0.1,0-0.2
			c0-0.1,0-0.1-0.1-0.2c0,0-0.1-0.1-0.1-0.1c-0.1,0-0.1,0-0.2,0c-0.1,0-0.1,0-0.2,0c-0.1,0-0.1,0.1-0.2,0.1c0,0-0.1,0.1-0.1,0.2
			c0,0.1,0,0.1,0,0.2L64.5,27L64.5,27z"/>
		<path class="st0" d="M67,26.2c0.1,0,0.2-0.1,0.4-0.1c0.2,0,0.3,0,0.5,0c0.2,0,0.3,0,0.5,0.1c0.1,0,0.2,0.1,0.3,0.2
			c0.1,0.1,0.1,0.2,0.2,0.3c0,0.1,0,0.3,0,0.4v1.2h-0.5v-1.2c0-0.1,0-0.2,0-0.3s0-0.2-0.1-0.2c0-0.1-0.1-0.1-0.1-0.1s-0.1,0-0.2,0
			c-0.1,0-0.1,0-0.2,0c-0.1,0-0.1,0-0.2,0v1.8H67V26.2z"/>
		<path class="st0" d="M70.5,26c0.2,0,0.3,0,0.4,0.1c0.1,0,0.2,0.1,0.3,0.2c0.1,0.1,0.1,0.2,0.1,0.3c0,0.1,0,0.2,0,0.4v1.3
			c-0.1,0-0.2,0-0.4,0.1c-0.2,0-0.3,0-0.5,0c-0.1,0-0.3,0-0.4,0c-0.1,0-0.2-0.1-0.3-0.1c-0.1-0.1-0.1-0.1-0.2-0.2
			c0-0.1-0.1-0.2-0.1-0.3c0-0.1,0-0.2,0.1-0.3c0-0.1,0.1-0.2,0.2-0.2S70,27,70.1,27c0.1,0,0.2,0,0.3,0c0.1,0,0.1,0,0.2,0
			c0.1,0,0.1,0,0.2,0v-0.1c0-0.1,0-0.1,0-0.2c0-0.1,0-0.1-0.1-0.1c0,0-0.1-0.1-0.1-0.1c-0.1,0-0.1,0-0.2,0c-0.1,0-0.2,0-0.3,0
			c-0.1,0-0.2,0-0.2,0.1l-0.1-0.4c0.1,0,0.2,0,0.3-0.1C70.2,26,70.3,26,70.5,26z M70.5,28c0.2,0,0.3,0,0.4,0v-0.6c0,0-0.1,0-0.1,0
			c-0.1,0-0.1,0-0.2,0s-0.1,0-0.2,0s-0.1,0-0.2,0c0,0-0.1,0.1-0.1,0.1c0,0,0,0.1,0,0.2c0,0.1,0,0.2,0.1,0.3
			C70.3,27.9,70.4,28,70.5,28z"/>
		<path class="st0" d="M73,26c0.2,0,0.3,0,0.4,0.1c0.1,0,0.2,0.1,0.3,0.2c0.1,0.1,0.1,0.2,0.1,0.3c0,0.1,0,0.2,0,0.4v1.3
			c-0.1,0-0.2,0-0.4,0.1c-0.2,0-0.3,0-0.5,0c-0.1,0-0.3,0-0.4,0c-0.1,0-0.2-0.1-0.3-0.1c-0.1-0.1-0.1-0.1-0.2-0.2
			c0-0.1-0.1-0.2-0.1-0.3c0-0.1,0-0.2,0.1-0.3c0-0.1,0.1-0.2,0.2-0.2c0.1-0.1,0.2-0.1,0.3-0.1c0.1,0,0.2,0,0.3,0c0.1,0,0.1,0,0.2,0
			c0.1,0,0.1,0,0.2,0v-0.1c0-0.1,0-0.1,0-0.2c0-0.1,0-0.1-0.1-0.1c0,0-0.1-0.1-0.1-0.1c-0.1,0-0.1,0-0.2,0c-0.1,0-0.2,0-0.3,0
			c-0.1,0-0.2,0-0.2,0.1l-0.1-0.4c0.1,0,0.2,0,0.3-0.1C72.7,26,72.9,26,73,26z M73,28c0.2,0,0.3,0,0.4,0v-0.6c0,0-0.1,0-0.1,0
			c-0.1,0-0.1,0-0.2,0c-0.1,0-0.1,0-0.2,0s-0.1,0-0.2,0c0,0-0.1,0.1-0.1,0.1c0,0,0,0.1,0,0.2c0,0.1,0,0.2,0.1,0.3
			C72.8,27.9,72.9,28,73,28z"/>
		<path class="st0" d="M76,26.6c0,0-0.1,0-0.2,0c-0.1,0-0.2,0-0.3,0c-0.1,0-0.1,0-0.2,0c-0.1,0-0.1,0-0.1,0v1.8h-0.5v-2.1
			c0.1,0,0.2-0.1,0.4-0.1c0.1,0,0.3,0,0.5,0c0,0,0.1,0,0.1,0s0.1,0,0.1,0c0,0,0.1,0,0.1,0c0,0,0.1,0,0.1,0L76,26.6z"/>
		<path class="st0" d="M79.2,26.6c0,0-0.1,0-0.2,0c-0.1,0-0.2,0-0.3,0c-0.1,0-0.1,0-0.2,0c-0.1,0-0.1,0-0.1,0v1.8H78v-2.1
			c0.1,0,0.2-0.1,0.4-0.1c0.1,0,0.3,0,0.5,0c0,0,0.1,0,0.1,0s0.1,0,0.1,0c0,0,0.1,0,0.1,0c0,0,0.1,0,0.1,0L79.2,26.6z"/>
		<path class="st0" d="M79.8,27.2c0-0.2,0-0.4,0.1-0.5c0.1-0.1,0.1-0.3,0.2-0.4c0.1-0.1,0.2-0.2,0.3-0.2c0.1,0,0.3-0.1,0.4-0.1
			c0.3,0,0.5,0.1,0.7,0.3s0.3,0.5,0.3,0.8c0,0,0,0.1,0,0.1c0,0,0,0.1,0,0.1h-1.5c0,0.2,0.1,0.3,0.2,0.4c0.1,0.1,0.3,0.1,0.5,0.1
			c0.1,0,0.2,0,0.3,0c0.1,0,0.2,0,0.2-0.1l0.1,0.4c0,0-0.1,0-0.1,0c0,0-0.1,0-0.2,0c-0.1,0-0.1,0-0.2,0c-0.1,0-0.1,0-0.2,0
			c-0.2,0-0.4,0-0.5-0.1c-0.1-0.1-0.3-0.1-0.4-0.2c-0.1-0.1-0.2-0.2-0.2-0.4C79.8,27.5,79.8,27.4,79.8,27.2z M81.3,27
			c0-0.1,0-0.1,0-0.2c0-0.1,0-0.1-0.1-0.2c0,0-0.1-0.1-0.1-0.1c-0.1,0-0.1,0-0.2,0c-0.1,0-0.1,0-0.2,0c-0.1,0-0.1,0.1-0.2,0.1
			c0,0-0.1,0.1-0.1,0.2c0,0.1,0,0.1,0,0.2L81.3,27L81.3,27z"/>
		<path class="st0" d="M83.1,28c0.1,0,0.2,0,0.3,0c0.1,0,0.1-0.1,0.1-0.2c0-0.1,0-0.1-0.1-0.2c-0.1,0-0.2-0.1-0.3-0.2
			c-0.1,0-0.2-0.1-0.3-0.1c-0.1,0-0.1-0.1-0.2-0.1c-0.1-0.1-0.1-0.1-0.1-0.2s0-0.2,0-0.3c0-0.2,0.1-0.4,0.2-0.5
			c0.1-0.1,0.4-0.2,0.6-0.2c0.1,0,0.3,0,0.4,0c0.1,0,0.2,0,0.3,0.1l-0.1,0.4c-0.1,0-0.1,0-0.2-0.1c-0.1,0-0.2,0-0.3,0
			c-0.1,0-0.2,0-0.3,0.1c-0.1,0-0.1,0.1-0.1,0.2c0,0,0,0.1,0,0.1c0,0,0,0.1,0.1,0.1c0,0,0.1,0,0.1,0.1c0.1,0,0.1,0,0.2,0.1
			c0.1,0,0.2,0.1,0.3,0.1c0.1,0,0.2,0.1,0.2,0.1c0.1,0.1,0.1,0.1,0.1,0.2c0,0.1,0,0.2,0,0.3c0,0.2-0.1,0.4-0.2,0.5
			c-0.2,0.1-0.4,0.2-0.7,0.2c-0.2,0-0.4,0-0.5,0c-0.1,0-0.2-0.1-0.2-0.1l0.1-0.4c0.1,0,0.2,0.1,0.3,0.1C82.9,27.9,83,28,83.1,28z"/>
		<path class="st0" d="M86.6,28.3c-0.1,0-0.2,0.1-0.4,0.1c-0.2,0-0.3,0-0.5,0c-0.2,0-0.3,0-0.4-0.1c-0.1-0.1-0.2-0.1-0.3-0.2
			c-0.1-0.1-0.1-0.2-0.2-0.3c0-0.1,0-0.3,0-0.4v-1.2h0.5v1.2c0,0.2,0,0.4,0.1,0.5c0.1,0.1,0.2,0.2,0.4,0.2c0.1,0,0.1,0,0.2,0
			c0.1,0,0.1,0,0.2,0v-1.8h0.5L86.6,28.3L86.6,28.3z"/>
		<path class="st0" d="M88.3,28.4c-0.2,0-0.3,0-0.4-0.1c-0.1,0-0.2-0.1-0.2-0.1s-0.1-0.1-0.1-0.2c0-0.1,0-0.2,0-0.3v-2.6L88,25v2.5
			c0,0.1,0,0.1,0,0.2c0,0,0,0.1,0.1,0.1c0,0,0.1,0.1,0.1,0.1c0,0,0.1,0,0.2,0L88.3,28.4z"/>
		<path class="st0" d="M89,25.5l0.5-0.1v0.7h0.8v0.4h-0.8v0.9c0,0.2,0,0.3,0.1,0.4c0.1,0.1,0.2,0.1,0.3,0.1c0.1,0,0.2,0,0.2,0
			c0.1,0,0.1,0,0.2-0.1l0.1,0.4c-0.1,0-0.1,0.1-0.2,0.1c-0.1,0-0.2,0-0.3,0c-0.2,0-0.3,0-0.4-0.1c-0.1,0-0.2-0.1-0.3-0.2
			C89.1,28,89,28,89,27.8s0-0.2,0-0.4L89,25.5L89,25.5z"/>
		<path class="st0" d="M91.8,26c0.2,0,0.3,0,0.4,0.1c0.1,0,0.2,0.1,0.3,0.2c0.1,0.1,0.1,0.2,0.1,0.3c0,0.1,0,0.2,0,0.4v1.3
			c-0.1,0-0.2,0-0.4,0.1c-0.2,0-0.3,0-0.5,0c-0.1,0-0.3,0-0.4,0c-0.1,0-0.2-0.1-0.3-0.1C91,28.1,91,28.1,90.9,28
			c0-0.1-0.1-0.2-0.1-0.3c0-0.1,0-0.2,0.1-0.3c0-0.1,0.1-0.2,0.2-0.2c0.1-0.1,0.2-0.1,0.3-0.1c0.1,0,0.2,0,0.3,0c0.1,0,0.1,0,0.2,0
			c0.1,0,0.1,0,0.2,0v-0.1c0-0.1,0-0.1,0-0.2c0-0.1,0-0.1-0.1-0.1c0,0-0.1-0.1-0.1-0.1c-0.1,0-0.1,0-0.2,0c-0.1,0-0.2,0-0.3,0
			c-0.1,0-0.2,0-0.2,0.1l-0.1-0.4c0.1,0,0.2,0,0.3-0.1C91.5,26,91.6,26,91.8,26z M91.8,28c0.2,0,0.3,0,0.4,0v-0.6c0,0-0.1,0-0.1,0
			c-0.1,0-0.1,0-0.2,0c-0.1,0-0.1,0-0.2,0c-0.1,0-0.1,0-0.2,0c0,0-0.1,0.1-0.1,0.1c0,0,0,0.1,0,0.2c0,0.1,0,0.2,0.1,0.3
			C91.6,27.9,91.7,28,91.8,28z"/>
		<path class="st0" d="M94.3,26c0.2,0,0.3,0,0.4,0.1c0.1,0,0.2,0.1,0.3,0.2c0.1,0.1,0.1,0.2,0.1,0.3c0,0.1,0,0.2,0,0.4v1.3
			c-0.1,0-0.2,0-0.4,0.1c-0.2,0-0.3,0-0.5,0c-0.1,0-0.3,0-0.4,0c-0.1,0-0.2-0.1-0.3-0.1c-0.1-0.1-0.1-0.1-0.2-0.2
			c0-0.1-0.1-0.2-0.1-0.3c0-0.1,0-0.2,0.1-0.3c0-0.1,0.1-0.2,0.2-0.2c0.1-0.1,0.2-0.1,0.3-0.1c0.1,0,0.2,0,0.3,0c0.1,0,0.1,0,0.2,0
			c0.1,0,0.1,0,0.2,0v-0.1c0-0.1,0-0.1,0-0.2c0-0.1,0-0.1-0.1-0.1c0,0-0.1-0.1-0.1-0.1c-0.1,0-0.1,0-0.2,0c-0.1,0-0.2,0-0.3,0
			c-0.1,0-0.2,0-0.2,0.1l-0.1-0.4c0.1,0,0.2,0,0.3-0.1C94,26,94.1,26,94.3,26z M94.3,28c0.2,0,0.3,0,0.4,0v-0.6c0,0-0.1,0-0.1,0
			c-0.1,0-0.1,0-0.2,0c-0.1,0-0.1,0-0.2,0s-0.1,0-0.2,0c0,0-0.1,0.1-0.1,0.1c0,0,0,0.1,0,0.2c0,0.1,0,0.2,0.1,0.3
			C94.1,27.9,94.2,28,94.3,28z"/>
		<path class="st0" d="M96,25.5l0.5-0.1v0.7h0.8v0.4h-0.8v0.9c0,0.2,0,0.3,0.1,0.4c0.1,0.1,0.2,0.1,0.3,0.1c0.1,0,0.2,0,0.2,0
			c0.1,0,0.1,0,0.2-0.1l0.1,0.4c-0.1,0-0.1,0.1-0.2,0.1c-0.1,0-0.2,0-0.3,0c-0.2,0-0.3,0-0.4-0.1c-0.1,0-0.2-0.1-0.3-0.2
			c-0.1-0.1-0.1-0.2-0.1-0.3c0-0.1,0-0.2,0-0.4L96,25.5L96,25.5z"/>
	</g>
	<path class="st1" d="M22.3,24.6c0.6,2.2,2.7,3.8,5.1,3.8c2.9,0,5.3-2.4,5.3-5.3V4.9L20.9,19.9L22.3,24.6z"/>
	<path class="st0" d="M22.3,24.6l-2.7-9.1H1.5l3.8,9.1c0.8,2.1,2.8,3.8,5.2,3.8h16.9C25,28.4,23,26.8,22.3,24.6z"/>
</g>
</svg>
