<?xml version="1.0" encoding="utf-8"?>
<!-- Generator: Adobe Illustrator 24.1.2, SVG Export Plug-In . SVG Version: 6.00 Build 0)  -->
<svg version="1.1" id="Stripelight-logo" xmlns="http://www.w3.org/2000/svg" xmlns:xlink="http://www.w3.org/1999/xlink" x="0px"
	 y="0px" viewBox="0 0 145.7 31.7" style="enable-background:new 0 0 145.7 31.7;" xml:space="preserve">
<style type="text/css">
	.st0{fill:#FFFFFF;}
</style>
<path class="st0" d="M2.5,12.5c1.6,0,3.2,0,4.8,0c0.6,0,1.1,0.1,1.7,0.3c0.8,0.3,1.4,0.9,1.4,1.8c0.1,1-0.3,1.7-1.1,2.2
	c-0.1,0-0.1,0.1-0.2,0.1c0.2,0.1,0.3,0.1,0.4,0.2c0.8,0.4,1.3,1,1.3,1.9c0,1-0.3,1.7-1.2,2.2c-0.7,0.4-1.4,0.5-2.2,0.5
	c-1.6,0-3.3,0-4.9,0C2.5,18.6,2.5,15.5,2.5,12.5z M5,18c0,0.6,0,1.1,0,1.6c0.8,0,1.6,0,2.4,0c0.5,0,0.8-0.4,0.8-0.8
	c0-0.5-0.3-0.8-0.9-0.8C6.6,17.9,5.8,18,5,18z M5,14.6c0,0.5,0,1,0,1.5c0.7,0,1.4,0,2.1,0c0.5,0,0.7-0.3,0.7-0.7
	c0-0.4-0.2-0.7-0.7-0.7C6.4,14.5,5.7,14.6,5,14.6z"/>
<path class="st0" d="M8.2,1.8C8.5,1.9,8.8,2,9.1,2.1c0.8,0.4,1.2,1,1.3,1.8c0.1,0.9-0.3,1.6-1.1,2.1C9.2,6.1,9.1,6.1,9,6.2
	c0.1,0.1,0.2,0.1,0.3,0.1c0.9,0.4,1.4,1.1,1.5,2.1c0,1-0.5,1.8-1.4,2.2C8.8,10.8,8.1,11,7.5,11c-1.6,0.1-3.2,0-4.8,0
	c-0.1,0-0.1,0-0.2,0c0-3.1,0-6.1,0-9.2C4.4,1.8,6.3,1.8,8.2,1.8z M5,7.3c0,0.6,0,1.1,0,1.6c0.8,0,1.6,0,2.4,0c0.5,0,0.8-0.4,0.7-0.8
	c0-0.4-0.3-0.7-1-0.8C6.5,7.2,5.8,7.3,5,7.3z M5,5.4c0.5,0,1,0,1.5,0c0.3,0,0.5,0,0.8-0.1C7.6,5.2,7.8,5,7.8,4.6
	c0-0.4-0.2-0.6-0.5-0.7C6.5,3.9,5.8,3.8,5,3.8C5,4.4,5,4.9,5,5.4z"/>
<path class="st0" d="M37.9,21.9c-0.1-0.3-0.1-0.6-0.1-0.8c-0.4,0.1-0.7,0.1-1.1,0.2c-0.2-1.1-0.4-2.1-0.6-3.1
	c-0.1-0.3-0.1-0.6-0.2-0.9c-0.2-0.6-0.6-0.9-1.2-0.7c-0.5,0.1-0.9,0.6-0.7,1.2c0.2,1.1,0.4,2.2,0.6,3.4c0,0.2,0.1,0.3,0.1,0.5
	c-0.3,0.1-0.6,0.1-1,0.2c0,0.3,0.1,0.5,0.1,0.8c0.1,0,0.2,0,0.3,0c0.4-0.1,0.5,0.1,0.4,0.4c0,0.1,0,0.2,0.1,0.3
	c0.4,0.8,0.9,1.5,1.2,2.3c0.3,0.7,0.6,1.5,0.8,2.3c0.3,1.1-0.5,2.2-1.6,2.4c-1.1,0.2-2.2-0.5-2.4-1.6c-0.2-1-0.2-2,0-2.9
	c0.1-0.7,0.2-1.3,0.3-2c0-0.2,0.1-0.4-0.1-0.6c-0.2-0.2,0-0.3,0.2-0.4c0.1-0.1,0.3-0.1,0.4-0.1c0-0.3-0.1-0.5-0.1-0.8
	c-0.3,0.1-0.6,0.1-1,0.2c-0.4-2.3-0.9-4.7-1.3-7c0.8-0.2,1.6-0.3,2.5-0.5c0.1,0.3,0.1,0.6,0.2,0.9c0.1-0.2,0.3-0.4,0.4-0.5
	c0.7-0.8,1.5-1.1,2.5-0.9c1,0.2,1.5,0.8,1.7,1.7c0.4,1.6,0.7,3.3,1,5c-0.3,0.1-0.6,0.1-0.9,0.2c0,0.3,0.1,0.5,0.1,0.8
	c0.1,0,0.2,0,0.3,0c0.4,0,0.5,0.1,0.4,0.4c0,0.1,0,0.2,0.1,0.3c0.4,0.8,0.9,1.5,1.3,2.3c0.3,0.7,0.6,1.4,0.8,2.2
	c0.3,1.1-0.5,2.2-1.6,2.5c-1.1,0.2-2.2-0.5-2.5-1.6c-0.2-1.1-0.1-2.2,0-3.2c0.1-0.6,0.2-1.2,0.2-1.8c0-0.1,0-0.2,0-0.3
	c-0.2-0.4-0.2-0.5,0.2-0.6C37.7,21.9,37.8,21.9,37.9,21.9z M38.6,24.2c-0.1,0-0.1,0-0.2,0c0.1,1.2,0.2,2.3,0.4,3.5
	c0.1,0.4,0.2,0.8,0.7,1.1C39.9,27.1,39.1,25.7,38.6,24.2z M34.8,29.6c0.1,0,0.1,0,0.2-0.1c0.3-1.6-0.4-3-0.9-4.5
	c-0.1,1.2,0,2.4,0.3,3.6C34.4,29,34.6,29.3,34.8,29.6z M38.8,28.9c-0.5-0.9-0.6-1.7-0.7-2.6C38,25.4,38,24.5,38,23.6
	c-0.1,0.4-0.2,0.8-0.2,1.2c-0.1,0.9-0.2,1.9,0,2.8C37.8,28.2,38.1,28.6,38.8,28.9z M39,23.4c0.5,1.7,1.3,3.3,1.2,5.2
	c0.5-0.5,0.6-0.9,0.5-1.5C40.5,25.7,39.6,24.6,39,23.4z M34.1,29.7c-0.8-1.7-0.6-3.5-0.8-5.3c-0.1,0.4-0.1,0.8-0.2,1.1
	c-0.1,1-0.3,2,0,3C33.2,29.2,33.5,29.5,34.1,29.7z M35.6,29.5c0.4-0.4,0.6-0.9,0.5-1.4c-0.2-1.4-1.1-2.6-1.8-3.8
	C34.9,25.9,35.7,27.5,35.6,29.5z"/>
<path class="st0" d="M39.9,23c0.3-0.5,0.5-1.1,0.8-1.6c0.3,0.1,0.5,0.2,0.7,0.3c0.7,0.3,1.4,0.4,2.2,0.3c1-0.2,1.5-0.8,1.4-1.9
	c-0.1,0-0.1,0.1-0.2,0.1c-1.4,1.6-4.4,1-5.1-1.4c-0.2-0.7-0.2-1.4,0-2.1c0.6-2.2,3.2-3,5-1.5c0,0,0.1,0.1,0.2,0.2c0-0.3,0-0.5,0-0.7
	c0.8,0,1.6,0,2.5,0c0,0.1,0,0.2,0,0.4c0,1.7,0,3.5,0,5.2c0,0.2,0,0.4,0,0.6c-0.3,1.8-1.2,2.8-3.1,3c-1.5,0.2-2.9,0-4.3-0.6
	C40.1,23.1,40.1,23.1,39.9,23C40,23.1,40,23,39.9,23z M42.2,17.7c0,0.8,0.6,1.4,1.5,1.4c0.8,0,1.4-0.6,1.4-1.4
	c0-0.8-0.6-1.4-1.4-1.4C42.8,16.4,42.2,16.9,42.2,17.7z"/>
<path class="st0" d="M27.1,21.7c-0.9,0-1.8,0-2.6,0c-0.1,0-0.2-0.1-0.3-0.3c-0.4-0.7-0.8-1.4-1.3-2.1c-0.4,0.4-0.7,0.7-0.7,1.3
	c0,0.4,0,0.7,0,1.1c-0.9,0-1.7,0-2.5,0c0-3.2,0-6.4,0-9.6c0.8,0,1.6,0,2.5,0c0,1.6,0,3.1,0,4.7c0,0,0.1,0,0.1,0
	c0.5-0.7,1.1-1.3,1.6-2c0.2-0.2,0.4-0.3,0.7-0.3c0.8,0,1.6,0,2.5,0c-0.9,1-1.7,1.9-2.5,2.9C25.4,18.8,26.2,20.2,27.1,21.7z"/>
<path class="st0" d="M15.9,17.6c0-0.8-0.4-1.2-1.1-1.2c-0.6,0-1.3,0.1-1.9,0.2c-0.1,0-0.3,0.1-0.4,0.1c-0.2-0.6-0.3-1.2-0.5-1.8
	c0.6-0.1,1.1-0.3,1.7-0.4c0.9-0.1,1.8-0.2,2.7,0.1c1.2,0.3,1.9,1.1,1.9,2.3c0.1,1.6,0,3.1,0,4.7c-0.8,0-1.6,0-2.4,0
	c0-0.2,0-0.4-0.1-0.6c-0.7,0.6-1.4,0.9-2.3,0.8c-1.6-0.1-2.5-1.4-2.1-2.9c0.3-0.9,1-1.3,1.9-1.5c0.8-0.1,1.5-0.1,2.2,0.1
	C15.7,17.6,15.8,17.6,15.9,17.6z M14.9,18.6c-0.2,0.1-0.4,0.1-0.7,0.2c-0.3,0.1-0.5,0.4-0.4,0.7c0.1,0.2,0.2,0.5,0.4,0.6
	c0.6,0.3,1.5-0.1,1.6-0.8c0.1-0.5,0.1-0.7-0.5-0.8C15.3,18.6,15.2,18.6,14.9,18.6z"/>
<path class="st0" d="M18.7,8.1c-1.6,0-3.2,0-4.8,0c0.1,0.5,0.4,0.9,0.8,1c0.9,0.3,1.6,0.1,2.3-0.6c0.5,0.4,0.9,0.8,1.4,1.2
	c-0.7,0.9-1.6,1.4-2.8,1.5c-1.6,0.1-2.9-0.4-3.7-1.8C11.2,8,11.3,6.2,12.3,5c1-1.3,2.4-1.6,3.9-1.2c1.4,0.3,2.2,1.3,2.4,2.7
	C18.7,7,18.7,7.6,18.7,8.1z M16.3,6.8c0-0.8-0.5-1.3-1.2-1.3c-0.6,0-1.1,0.6-1.1,1.3C14.7,6.8,15.5,6.8,16.3,6.8z"/>
<path class="st0" d="M33.1,8.1c0.3,1.3,1.6,1.5,3.1,0.5c0.4,0.4,0.9,0.7,1.4,1.1c-0.5,0.7-1.2,1.2-2.1,1.3c-1.6,0.3-3.1,0-4.1-1.3
	c-1-1.3-1-3.3,0-4.6c1-1.3,2.7-1.8,4.3-1.2c1.4,0.5,2,1.6,2.2,3c0.1,0.4,0,0.8,0,1.2C36.3,8.1,34.7,8.1,33.1,8.1z M35.5,6.8
	c-0.1-0.8-0.6-1.3-1.3-1.2c-0.6,0-1.1,0.6-1.1,1.2C33.9,6.8,34.7,6.8,35.5,6.8z"/>
<path class="st0" d="M20.2,5.9c-0.3,0-0.6,0-0.8,0c0-0.7,0-1.3,0-2c0.3,0,0.5,0,0.8,0c0-0.6,0-1.2,0-1.8c0.9,0,1.7,0,2.5,0
	c0,0.6,0,1.2,0,1.8c0.6,0,1.1,0,1.6,0c0,0.7,0,1.3,0,2c-0.5,0-1,0-1.6,0c0,0.5,0,0.9,0,1.3c0,0.4,0,0.8,0,1.1C22.8,8.8,23,9,23.5,9
	c0.3,0,0.6-0.1,0.9-0.2c0,0.6,0,1.2,0,1.8c0,0.1-0.1,0.2-0.2,0.3c-0.8,0.3-1.7,0.4-2.6,0.1c-0.8-0.2-1.2-0.8-1.3-1.6
	c-0.1-1-0.1-2-0.1-3C20.2,6.3,20.2,6.1,20.2,5.9z"/>
<path class="st0" d="M25.9,5.9c-0.3,0-0.5,0-0.8,0c0-0.7,0-1.3,0-2c0.2,0,0.5,0,0.8,0c0-0.6,0-1.2,0-1.8c0.9,0,1.7,0,2.5,0
	c0,0.6,0,1.2,0,1.8c0.6,0,1.1,0,1.7,0c0,0.7,0,1.4,0,2.1c-0.5,0-1.1,0-1.6,0c0,0.9,0,1.7,0,2.6c0,0.4,0.3,0.6,0.7,0.5
	c0.3,0,0.6-0.1,0.9-0.2c0,0.6,0,1.2,0,1.8c0,0.1-0.1,0.2-0.2,0.3c-0.9,0.4-1.8,0.4-2.7,0.1c-0.7-0.3-1.1-0.8-1.2-1.6
	c-0.1-0.7,0-1.4-0.1-2.2C25.9,6.8,25.9,6.4,25.9,5.9z"/>
<path class="st0" d="M39,3.9c0.8,0,1.6,0,2.5,0c0,0.4,0,0.8,0,1.2c0.5-0.8,1.2-1.4,2.2-1.3c0,0.9,0,1.7,0,2.6c-0.1,0-0.2,0-0.3,0
	c-1.2,0.1-1.8,0.7-1.9,1.9c0,0.7,0,1.5,0,2.2c0,0.2,0,0.3,0,0.5c-0.8,0-1.7,0-2.5,0C39,8.6,39,6.3,39,3.9z"/>
<path class="st0" d="M30.2,21.7c-0.8,0-1.6,0-2.5,0c0-2.4,0-4.7,0-7.1c0.8,0,1.6,0,2.5,0C30.2,16.9,30.2,19.3,30.2,21.7z"/>
<path class="st0" d="M27.7,13.9c0-0.6,0-1.2,0-1.8c0.9,0,1.7,0,2.6,0c0,0.6,0,1.2,0,1.8C29.4,13.9,28.6,13.9,27.7,13.9z"/>
</svg>
