<?xml version="1.0" encoding="utf-8"?>
<!-- Generator: Adobe Illustrator 26.5.0, SVG Export Plug-In . SVG Version: 6.00 Build 0)  -->
<svg version="1.1" id="Stripelight-logo" xmlns="http://www.w3.org/2000/svg" xmlns:xlink="http://www.w3.org/1999/xlink" x="0px"
	 y="0px" viewBox="0 0 145.7 31.7" style="enable-background:new 0 0 145.7 31.7;" xml:space="preserve">
<style type="text/css">
	.st0{clip-path:url(#SVGID_00000077290687627298644080000012738448771267488443_);}
	.st1{fill:#FFFFFF;}
</style>
<g id="Group_1413" transform="translate(0 0)">
	<g>
		<defs>
			<rect id="SVGID_1_" x="0.4" y="0.3" width="104.1" height="30.9"/>
		</defs>
		<clipPath id="SVGID_00000134235343064061853250000007889936745584122771_">
			<use xlink:href="#SVGID_1_"  style="overflow:visible;"/>
		</clipPath>
		
			<g id="Group_1412" transform="translate(0 0)" style="clip-path:url(#SVGID_00000134235343064061853250000007889936745584122771_);">
			<path id="Path_1022" class="st1" d="M14.4,13.9c0.2,0.4,0.4,0.7,0.7,1c0.3,0.3,0.5,0.5,0.5,0.7v0.1c0,0.2-0.2,0.4-0.5,0.4h-4.8
				c-0.3,0-0.5-0.1-0.5-0.4v-0.1c0-0.1,0.1-0.3,0.3-0.4c0.2-0.2,0.4-0.3,0.5-0.5c0.1-0.2,0.2-0.5,0.1-0.7L10,12.1H4l-0.6,1.7
				c-0.1,0.2-0.1,0.5,0.1,0.7c0.1,0.2,0.3,0.4,0.5,0.5c0.2,0.2,0.3,0.3,0.3,0.4v0.1C4.2,15.8,4,16,3.7,16H0.8
				c-0.3,0-0.5-0.1-0.5-0.4v-0.1c0-0.2,0.2-0.4,0.5-0.7c0.3-0.3,0.5-0.6,0.7-1L5.9,2.7c0.1-0.3,0-0.7-0.3-1.1C5.3,1.3,5.1,1,5.1,0.9
				V0.8c0-0.2,0.1-0.3,0.4-0.3h2.3c0.6,0,1.1,0.3,1.3,0.9L14.4,13.9z M4.5,10.7h5L7,3.9L4.5,10.7z"/>
			<path id="Path_1023" class="st1" d="M30.6,0.5c0.3,0,0.5,0.1,0.5,0.4v0.1c0,0.1-0.2,0.4-0.5,0.7c-0.3,0.3-0.5,0.6-0.5,1v12.5
				c0,0.2-0.1,0.5-0.2,0.6c-0.2,0.2-0.4,0.2-0.6,0.2h-1c-0.3,0-0.6-0.2-1-0.7L19,4.2v9.7c0,0.3,0.2,0.7,0.5,1
				c0.3,0.3,0.5,0.6,0.5,0.7v0.1c0,0.2-0.2,0.4-0.5,0.4H17c-0.3,0-0.5-0.1-0.5-0.4v-0.1c0-0.1,0.1-0.4,0.4-0.7
				c0.3-0.3,0.4-0.6,0.4-1V2.6c0-0.4-0.2-0.7-0.4-1c-0.3-0.3-0.4-0.5-0.4-0.7V0.9c0-0.2,0.2-0.4,0.5-0.4h2.7c0.4,0,0.7,0.2,1,0.6
				l7.8,10.8V2.6c0-0.3-0.2-0.7-0.5-1s-0.5-0.5-0.5-0.7V0.9c0-0.2,0.2-0.4,0.5-0.4L30.6,0.5z"/>
			<path id="Path_1024" class="st1" d="M33.5,16c-0.3,0-0.5-0.1-0.5-0.4v-0.1c0-0.1,0.1-0.4,0.4-0.7c0.3-0.3,0.4-0.6,0.4-1V2.6
				c0-0.4-0.2-0.7-0.4-1C33.1,1.3,33,1.1,33,0.9V0.8c0-0.2,0.2-0.3,0.5-0.3h5c2.8,0,5.1,0.7,6.8,2.2s2.6,3.3,2.6,5.6
				c0,2.3-0.8,4.2-2.3,5.6C44,15.3,42,16,39.5,16H33.5z M38.7,14.6h1.1c1.4,0,2.5-0.4,3.3-1.3c0.9-0.9,1.3-2.1,1.3-3.7
				c0-2.2-0.6-4-1.8-5.5s-2.6-2.3-4.3-2.3h-0.4c-0.6,0-0.9,0.3-0.9,0.9v10c0,0.6,0.1,1.1,0.4,1.4C37.8,14.5,38.2,14.7,38.7,14.6"/>
			<path id="Path_1025" class="st1" d="M61.8,13.9c0.2,0.3,0.4,0.5,0.7,0.8c0.3,0.2,0.5,0.4,0.6,0.5c0.1,0.1,0.2,0.2,0.2,0.4v0.1
				c0,0.2-0.2,0.4-0.5,0.4h-4.6c-0.3,0-0.5-0.1-0.5-0.4v-0.1c0-0.2,0.1-0.3,0.3-0.4c0.1-0.1,0.3-0.3,0.3-0.5c0.1-0.1,0-0.4-0.1-0.8
				L56,10.1l-2.4,0v3.8c0,0.3,0.2,0.7,0.5,1c0.3,0.3,0.5,0.5,0.5,0.7v0.1c0,0.2-0.2,0.4-0.5,0.4h-4.1c-0.3,0-0.5-0.1-0.5-0.4v-0.1
				c0-0.1,0.1-0.4,0.4-0.7c0.3-0.3,0.4-0.6,0.4-1V2.6c0-0.4-0.2-0.7-0.4-1c-0.3-0.3-0.4-0.5-0.4-0.7V0.8c0-0.2,0.2-0.3,0.5-0.3h5.4
				c2,0,3.6,0.4,4.8,1.2c1.2,0.8,1.8,2,1.8,3.6c0,0.9-0.3,1.7-0.8,2.5c-0.6,0.8-1.3,1.4-2.2,1.7L61.8,13.9z M54.8,8.8h0.9
				c0.8,0,1.5-0.3,2-0.8s0.8-1.3,0.8-2.3c0-1.2-0.3-2.1-1-2.9S56,1.8,55.1,1.8h-0.7c-0.5,0-0.7,0.3-0.7,1v4.5c0,0.5,0.1,0.9,0.3,1.1
				S54.4,8.8,54.8,8.8"/>
			<path id="Path_1026" class="st1" d="M64.8,16c-0.3,0-0.5-0.1-0.5-0.4v-0.1c0-0.1,0.1-0.4,0.4-0.7c0.3-0.3,0.4-0.6,0.4-1V2.6
				c0-0.4-0.2-0.7-0.4-1c-0.3-0.3-0.4-0.5-0.4-0.7V0.8c0-0.2,0.2-0.3,0.5-0.3h9.7c0.4,0,0.6,0.2,0.7,0.6l0.5,2.6
				c0.1,0.4-0.1,0.6-0.4,0.6h-0.1c-0.2,0-0.5-0.1-0.7-0.4C74.2,3.6,74,3.3,73.8,3c-0.2-0.3-0.5-0.6-0.7-0.8
				c-0.3-0.2-0.6-0.4-0.9-0.4h-2.8c-0.6,0-0.9,0.3-0.9,0.9v4.7h2.8c0.2,0,0.5-0.1,0.6-0.3c0.2-0.2,0.3-0.3,0.4-0.5
				c0.1-0.2,0.2-0.4,0.3-0.5c0.1-0.2,0.2-0.3,0.4-0.3h0.2c0.2,0,0.4,0.2,0.4,0.5v3.5c0,0.3-0.1,0.5-0.4,0.5H73
				c-0.2,0-0.3-0.1-0.4-0.2c-0.1-0.2-0.2-0.3-0.3-0.5c-0.1-0.2-0.2-0.4-0.4-0.5c-0.2-0.2-0.4-0.2-0.6-0.2h-2.8l0,4.6
				c0,0.3,0.1,0.7,0.3,0.9c0.2,0.3,0.5,0.4,0.9,0.4h3.2c0.3,0,0.7-0.1,0.9-0.4c0.3-0.2,0.5-0.5,0.7-0.9c0.2-0.3,0.4-0.6,0.6-0.9
				c0.2-0.3,0.5-0.4,0.7-0.4h0.2c0.1,0,0.3,0.1,0.3,0.2c0.1,0.1,0.1,0.3,0.1,0.4l-0.5,2.6c-0.1,0.4-0.3,0.6-0.7,0.6L64.8,16z"/>
			<path id="Path_1027" class="st1" d="M90.8,13.9c0.2,0.4,0.4,0.7,0.7,1c0.3,0.3,0.5,0.5,0.5,0.7v0.1c0,0.2-0.2,0.4-0.5,0.4h-4.8
				c-0.3,0-0.5-0.1-0.5-0.4v-0.1c0-0.1,0.1-0.3,0.3-0.4c0.2-0.2,0.4-0.3,0.5-0.5c0.1-0.2,0.2-0.5,0.1-0.7l-0.7-1.7h-6.1l-0.6,1.7
				c-0.1,0.2-0.1,0.5,0.1,0.7c0.1,0.2,0.3,0.4,0.5,0.5c0.2,0.2,0.3,0.3,0.3,0.4v0.1c0,0.2-0.2,0.4-0.5,0.4h-2.9
				c-0.3,0-0.5-0.1-0.5-0.4v-0.1c0-0.2,0.2-0.4,0.5-0.7c0.3-0.3,0.5-0.6,0.7-1l4.3-11.1c0.1-0.3,0-0.7-0.3-1.1
				c-0.3-0.4-0.5-0.7-0.5-0.7V0.8c0-0.2,0.1-0.3,0.4-0.3h2.3c0.6,0,1.1,0.3,1.3,0.9L90.8,13.9z M80.9,10.7h5l-2.6-6.8L80.9,10.7z"/>
			<path id="Path_1028" class="st1" d="M98.6,16.2c-1.9,0-3.5-0.4-4.7-1.2c-1.2-0.8-1.8-1.7-1.8-2.7c0-0.4,0.1-0.7,0.3-1
				c0.2-0.2,0.5-0.4,1-0.4c0.4,0,0.7,0.2,1,0.4c0.3,0.3,0.5,0.6,0.7,1c0.2,0.4,0.4,0.8,0.7,1.2c0.3,0.4,0.7,0.8,1.1,1
				c0.5,0.3,1.1,0.4,1.7,0.4c0.8,0,1.4-0.2,1.8-0.6c0.5-0.4,0.7-1,0.7-1.6c0-0.6-0.2-1.1-0.5-1.5c-0.3-0.4-0.8-0.7-1.3-0.9
				C99,10,98.4,9.9,97.8,9.7c-0.6-0.2-1.3-0.3-1.9-0.5c-0.6-0.2-1.2-0.5-1.7-0.8c-0.5-0.3-1-0.8-1.3-1.4c-0.3-0.6-0.5-1.3-0.5-2.2
				c0-1.3,0.5-2.5,1.6-3.3c1-0.8,2.4-1.3,4.2-1.3c1.7,0,3.2,0.4,4.4,1.2c1.2,0.8,1.7,1.6,1.7,2.6c0,0.9-0.5,1.4-1.4,1.4
				c-0.4,0-0.8-0.1-1.1-0.4c-0.3-0.3-0.5-0.6-0.7-1c-0.2-0.4-0.4-0.8-0.6-1.1c-0.2-0.4-0.5-0.7-0.9-1c-0.4-0.3-1-0.4-1.5-0.4
				c-0.8,0-1.4,0.2-1.8,0.6c-0.4,0.4-0.7,1-0.6,1.6c0,0.6,0.2,1.1,0.5,1.6c0.3,0.4,0.8,0.8,1.3,1c0.6,0.2,1.1,0.4,1.7,0.6
				c0.6,0.2,1.3,0.4,1.9,0.6c0.6,0.2,1.2,0.5,1.7,0.8c0.5,0.3,1,0.8,1.3,1.4c0.3,0.7,0.5,1.4,0.5,2.2c0,1.4-0.6,2.5-1.7,3.2
				C101.7,15.8,100.3,16.2,98.6,16.2"/>
			<path id="Path_1029" class="st1" d="M31.1,25.2c0,1.7-1,3.7-3.4,3.7c-0.4,0-1-0.1-1.4-0.1c-0.4,0-0.7,0-1.1,0.1l0.1-0.5
				c0.4-0.1,0.6-0.3,0.7-0.5l0.6-4.5c0-0.2-0.2-0.4-0.5-0.4l0-0.4h1.9C29.9,22.6,31.1,23.4,31.1,25.2 M30,25.1
				c0-1.2-0.6-2.1-1.9-2.1h-0.5L26.9,28c-0.1,0.4,0.5,0.4,0.9,0.4C29.4,28.4,30,26.3,30,25.1"/>
			<path id="Path_1030" class="st1" d="M36.3,28.1l-0.2,0.6c-0.2,0.2-0.5,0.3-0.8,0.3c-0.5,0-0.7-0.3-0.7-0.8l0-0.2
				C34.5,28.4,34,29,33.2,29c-0.9,0-1.5-0.6-1.3-1.8l0.2-2c0-0.3-0.1-0.5-0.5-0.3l0.1-0.3c0.3-0.2,0.6-0.3,0.9-0.3
				c0.4,0,0.5,0.4,0.5,0.8l-0.3,2.2c-0.1,0.8,0.2,1.1,0.7,1.1c0.6,0,1-0.4,1.3-1.1l0.3-2c0-0.3-0.1-0.5-0.5-0.3l0.1-0.3
				c0.3-0.2,0.6-0.3,0.9-0.3c0.4,0,0.5,0.4,0.5,0.8l-0.3,2.8C35.6,28.2,35.8,28.4,36.3,28.1"/>
			<path id="Path_1031" class="st1" d="M38.4,24.9l-0.4,3c0,0.3,0.1,0.4,0.3,0.4c0.3,0,0.6-0.1,0.8-0.4L39,28.4
				c-0.3,0.3-0.6,0.5-1.1,0.5c-0.6,0-0.9-0.5-0.8-1.1l0.4-3h-0.6l0.1-0.6c0.8,0,1-0.5,1.3-1.1c0-0.1,0.1-0.1,0.2-0.1
				c0.1,0,0.1,0.1,0.1,0.2l-0.1,1h1l-0.1,0.6L38.4,24.9z"/>
			<path id="Path_1032" class="st1" d="M41.7,29c-1,0-1.8-0.8-1.8-2c0-1.3,0.9-2.8,2.5-2.8c1.1,0,1.5,0.6,1.5,1.2
				c0,0.3-0.1,0.6-0.5,0.6c-0.3,0-0.5-0.2-0.4-0.5c0-0.1,0-0.2,0-0.3c0-0.3-0.1-0.4-0.6-0.4c-1.1,0-1.5,1.2-1.5,2.2
				c0,0.9,0.4,1.5,1,1.5c0.7,0,1.1-0.6,1.2-0.6c0.1,0,0.3,0.1,0.3,0.3C43.3,28.4,42.7,29,41.7,29"/>
			<path id="Path_1033" class="st1" d="M49,28.1l-0.2,0.6c-0.2,0.2-0.5,0.3-0.8,0.3c-0.5,0-0.7-0.4-0.6-0.8l0.3-2.1
				c0.1-0.7,0-1.1-0.5-1.1c-0.6,0-1.2,0.6-1.4,0.9l-0.4,3.2h-0.9l0.7-5.8c0-0.3-0.2-0.4-0.6-0.4l0.1-0.3c0.5,0,1.1-0.1,1.6-0.2
				L45.8,25l-0.1,0.3c0.2-0.3,0.8-1.1,1.7-1.1c0.9,0,1.4,0.4,1.2,1.8l-0.3,1.8C48.3,28.2,48.5,28.4,49,28.1"/>
			<path id="Path_1034" class="st1" d="M56.2,28.1L56,28.6c-0.2,0.2-0.5,0.3-0.8,0.3c-0.4,0-0.6-0.2-0.7-0.5
				c-0.3,0.4-0.8,0.6-1.3,0.6c-1,0-1.8-0.8-1.8-2s0.8-2.8,2.3-2.8c0.5,0,0.9,0.2,1.2,0.6l0.2-1.6c0-0.3-0.2-0.4-0.6-0.4l0.1-0.3
				c0.6,0,1.1-0.1,1.6-0.2l-0.7,5.7C55.4,28.2,55.7,28.4,56.2,28.1 M54.6,27.4l0.2-1.9c-0.2-0.5-0.7-0.8-1.2-0.7
				c-0.9,0-1.2,1.2-1.2,2.2c0,0.9,0.3,1.5,0.9,1.5C54,28.4,54.5,28,54.6,27.4"/>
			<path id="Path_1035" class="st1" d="M60.2,25c-0.5,0.6-0.6,0.2-1,0.2c-0.5,0-0.9,0.8-1.1,1.5l-0.3,2.3h-0.9l0.5-3.7
				c0-0.3-0.2-0.5-0.5-0.3l0.1-0.3c0.3-0.2,0.6-0.3,0.9-0.3c0.4,0,0.5,0.4,0.4,0.8L58,26.1l0.3-0.7c0.3-0.8,0.9-1.2,1.4-1.2
				C60.2,24.3,60.6,24.5,60.2,25"/>
			<path id="Path_1036" class="st1" d="M65.3,25.1c-0.9,2.1-3.4,6-4.8,6c-0.6,0-0.9-0.3-0.9-0.7c0-0.3,0.1-0.6,0.5-0.6
				c0.6,0,0.2,0.7,0.6,0.7c0.3,0,1-0.7,1.7-1.6l-0.8-3.6c-0.1-0.4-0.3-0.5-0.7-0.4l0.1-0.3c0.2-0.2,0.5-0.3,0.8-0.3
				c0.5,0,0.6,0.3,0.8,0.9l0.6,2.8c0.6-0.9,1.1-1.8,1.5-2.7c0.1-0.4-0.1-0.5-0.5-0.3l0.1-0.3c0.2-0.2,0.5-0.3,0.8-0.3
				C65.4,24.3,65.5,24.8,65.3,25.1"/>
			<path id="Path_1037" class="st1" d="M72.5,24.7c0,0.2-0.2,0.4-0.5,0.4c0,0,0,0,0,0c-0.3,0-0.5-0.1-0.5,0.4c0,1.1-0.8,1.9-2,1.9
				c-0.2,0-0.3,0-0.5-0.1c-0.5-0.1-0.9,0-0.9,0.3c0,0.3,0.3,0.3,0.7,0.4l1,0.2c1.2,0.2,1.8,0.5,1.8,1.2c0,1-1.2,1.8-2.5,1.8
				c-1.2,0-2-0.5-2-1.4c0-0.3,0.2-0.7,0.7-0.7c0.5,0,0.3,0.3,0.3,0.8c0,0.5,0.3,0.8,1.1,0.8c1.2,0,1.5-0.5,1.5-1
				c0-0.4-0.2-0.6-0.7-0.7l-1.4-0.3c-1-0.2-1.2-0.6-1.2-1c0-0.6,0.6-0.8,1.1-0.8c-0.3-0.3-0.5-0.7-0.5-1.1c0-0.6,0.5-1.7,1.9-1.7
				c0.7,0,1.2,0.3,1.4,0.7c0.1-0.4,0.4-0.7,0.7-0.7C72.3,24.2,72.5,24.4,72.5,24.7 M70.7,25.4c0-0.4-0.2-0.7-0.8-0.7
				c-0.9,0-1,0.8-1,1.3c0,0.5,0.2,0.9,0.8,0.9C70.6,26.9,70.7,26,70.7,25.4"/>
			<path id="Path_1038" class="st1" d="M74.3,28.1l-0.2,0.6c-0.2,0.2-0.5,0.3-0.8,0.3c-0.4,0-0.7-0.3-0.6-0.8l0.4-2.9
				c0-0.3-0.1-0.5-0.5-0.3l0.1-0.3c0.3-0.2,0.6-0.3,0.9-0.3c0.4,0,0.5,0.3,0.4,0.8l-0.4,2.8C73.6,28.2,73.8,28.4,74.3,28.1
				 M74.3,22.7c0,0.3-0.3,0.6-0.6,0.6c-0.3,0-0.6-0.3-0.5-0.7c0-0.3,0.3-0.5,0.6-0.6C74.1,22.1,74.4,22.3,74.3,22.7
				C74.3,22.7,74.3,22.7,74.3,22.7"/>
			<path id="Path_1039" class="st1" d="M79.7,28.1l-0.2,0.6c-0.2,0.2-0.5,0.3-0.8,0.3c-0.5,0-0.7-0.3-0.7-0.8l0.3-2.1
				c0.1-0.7,0-1.1-0.5-1.1c-0.7,0-1.2,0.7-1.4,0.9L76,28.9h-0.9l0.5-3.7c0-0.3-0.2-0.5-0.5-0.3l0.1-0.3c0.3-0.2,0.6-0.3,0.9-0.3
				c0.4,0,0.6,0.4,0.5,0.8l-0.1,0.2c0.2-0.3,0.8-1.1,1.8-1.1c0.8,0,1.3,0.4,1.1,1.7L79,27.8C78.9,28.2,79.2,28.4,79.7,28.1"/>
		</g>
	</g>
</g>
</svg>
