<?xml version="1.0" encoding="utf-8"?>
<!-- Generator: Adobe Illustrator 26.5.0, SVG Export Plug-In . SVG Version: 6.00 Build 0)  -->
<svg version="1.1" id="Stripelight-logo" xmlns="http://www.w3.org/2000/svg" xmlns:xlink="http://www.w3.org/1999/xlink" x="0px"
	 y="0px" viewBox="0 0 119.5 31.7" style="enable-background:new 0 0 119.5 31.7;" xml:space="preserve">
<style type="text/css">
	.st0{fill:#FFFFFF;}
	.st1{fill:#003E0D;}
	.st2{fill:#2EA94A;}
	.st3{fill:#35B6C4;}
	.st4{fill:#1A8137;}
	.st5{fill:#69662C;}
	.st6{fill:#33562B;}
</style>
<g id="logo" transform="translate(-2.3 -1.99)">
	<g id="Group_1008" transform="translate(4.007 273.259)">
		<path id="Path_4441" class="st0" d="M0.7-240.6L0.7-240.6l-0.3-1c0-0.1-0.1-0.2-0.2-0.2h-0.4l-0.1,0.9c0,0.1,0,0.1,0,0.1l0.3,0
			l0,0.2H-1l0-0.2l0.2,0c0.1,0,0.1,0,0.1-0.1l0.3-2.2c0-0.1,0-0.1,0-0.1l-0.2,0l0-0.2h1.1c0.6,0,0.8,0.3,0.8,0.7
			c0,0.4-0.2,0.7-0.6,0.8c0.1,0,0.1,0.2,0.2,0.4l0.2,0.6c0,0.1,0,0.1,0.1,0.1l0.2,0l0,0.2L0.7-240.6L0.7-240.6z M0.2-242
			c0.4,0,0.7-0.2,0.7-0.6c0-0.3-0.2-0.4-0.7-0.4H0l-0.2,1L0.2-242z"/>
		<path id="Path_4442" class="st0" d="M3.1-240.7c-0.2,0.1-0.5,0.2-0.7,0.2c-0.5,0-0.7-0.3-0.7-0.8c0-0.7,0.4-1.3,1.1-1.3
			c0.4,0,0.5,0.2,0.5,0.5c0,0.6-0.8,0.7-1.3,0.8c0,0.3,0.1,0.5,0.5,0.5c0.2,0,0.4-0.1,0.5-0.2L3.1-240.7z M2.9-242.1
			c0-0.1-0.1-0.2-0.3-0.2c-0.3,0-0.6,0.3-0.7,0.7C2.3-241.6,2.9-241.7,2.9-242.1z"/>
		<path id="Path_4443" class="st0" d="M3.7-240.6L3.7-240.6l0.1-0.5l0.2-1.2c0,0,0-0.1,0-0.1l-0.2,0l0-0.2h0.6l-0.2,1.7
			c0,0.1,0,0.1,0,0.1l0.2,0l0,0.2L3.7-240.6L3.7-240.6z M3.9-243.1c0-0.1,0.1-0.3,0.2-0.3c0,0,0,0,0,0c0.1,0,0.2,0.1,0.2,0.2
			c0,0,0,0,0,0c0,0.2-0.1,0.3-0.3,0.3c0,0,0,0,0,0C4-243,3.9-243,3.9-243.1L3.9-243.1z"/>
		<path id="Path_4444" class="st0" d="M6.2-240.6L6.2-240.6l0.1-0.5l0.1-0.8c0-0.1,0-0.2,0-0.2c0-0.1,0-0.2-0.2-0.2
			c-0.2,0-0.4,0.2-0.7,0.4l-0.1,1c0,0.1,0,0.1,0,0.1l0.2,0l0,0.2H4.7l0-0.2l0.2,0c0,0,0.1,0,0.1-0.1l0.2-1.3c0,0,0-0.1,0-0.1
			l-0.2-0.1l0-0.2h0.6l0,0.4c0.2-0.2,0.5-0.4,0.8-0.4c0.3,0,0.5,0.2,0.5,0.5c0,0.1,0,0.1,0,0.2l-0.2,1c0,0.1,0,0.1,0,0.1l0.2,0
			l0,0.2L6.2-240.6z"/>
		<path id="Path_4445" class="st0" d="M7.4-240.6L7.4-240.6l0.1-0.5l0.2-1.2c0,0,0-0.1,0-0.1l-0.2,0l0-0.2H8l-0.2,1.7
			c0,0.1,0,0.1,0,0.1l0.2,0l0,0.2L7.4-240.6L7.4-240.6z M7.6-243.1c0-0.1,0.1-0.3,0.2-0.3c0,0,0,0,0,0c0.1,0,0.2,0.1,0.2,0.2
			c0,0,0,0,0,0c0,0.2-0.1,0.3-0.3,0.3c0,0,0,0,0,0C7.7-243,7.6-243,7.6-243.1L7.6-243.1z"/>
		<path id="Path_4446" class="st0" d="M9.8-240.9c-0.2,0.2-0.4,0.4-0.7,0.4c-0.4,0-0.6-0.2-0.6-0.7c0-0.6,0.2-1.3,1-1.3
			c0.2,0,0.4,0.1,0.5,0.2l0.1-0.2h0.3c0,0.2-0.1,0.3-0.1,0.5l-0.2,1.6c-0.1,0.5-0.4,0.7-0.8,0.7c-0.3,0-0.6-0.1-0.7-0.2l0.1-0.2
			C8.8-240,9-240,9.2-240c0.3,0,0.5-0.2,0.5-0.5L9.8-240.9z M9.9-242.1c-0.1-0.1-0.3-0.2-0.5-0.2c-0.5,0-0.6,0.6-0.6,1
			c0,0.3,0.1,0.5,0.3,0.5c0.2,0,0.5-0.2,0.7-0.4L9.9-242.1z"/>
		<path id="Path_4447" class="st0" d="M11.9-240.6c-0.2,0.1-0.4,0.1-0.5,0.1c-0.3,0-0.5-0.1-0.5-0.4v-0.1l0.2-1.2c0,0,0,0,0,0h-0.3
			l0-0.2c0.3,0,0.4-0.2,0.5-0.5h0.2l-0.1,0.5c0,0,0,0,0,0h0.5l0,0.3h-0.6l-0.2,1.1c0,0,0,0.1,0,0.1c0,0.1,0.1,0.2,0.2,0.2
			c0.1,0,0.2,0,0.3-0.1L11.9-240.6z"/>
		<path id="Path_4448" class="st0" d="M14.6-240.6l0-0.3h0c-0.2,0.2-0.4,0.4-0.7,0.4c-0.4,0-0.6-0.2-0.6-0.7c0-0.6,0.2-1.3,1-1.3
			c0.2,0,0.4,0.1,0.5,0.2l0.1-0.2h0.3c0,0.2-0.1,0.3-0.1,0.5l-0.2,1.2c0,0.1,0,0.1,0,0.1l0.2,0l0,0.2L14.6-240.6z M14.8-242.1
			c-0.1-0.1-0.3-0.2-0.5-0.2c-0.5,0-0.6,0.6-0.6,1c0,0.3,0.1,0.5,0.3,0.5c0.2,0,0.5-0.2,0.7-0.4L14.8-242.1z"/>
		<path id="Path_4449" class="st0" d="M15.8-240.6L15.8-240.6l0.1-0.5l0.3-2.1c0,0,0-0.1,0-0.1l-0.2,0l0-0.2h0.6l-0.4,2.6
			c0,0.1,0,0.1,0,0.1l0.2,0l0,0.2L15.8-240.6L15.8-240.6z"/>
		<path id="Path_4450" class="st0" d="M17-240.6L17-240.6L17-241l0.3-2.1c0,0,0-0.1,0-0.1l-0.2,0l0-0.2h0.6l-0.4,2.6
			c0,0.1,0,0.1,0,0.1l0.2,0l0,0.2L17-240.6L17-240.6z"/>
		<path id="Path_4451" class="st0" d="M19.5-240.7c-0.2,0.1-0.5,0.2-0.7,0.2c-0.5,0-0.7-0.3-0.7-0.8c0-0.7,0.4-1.3,1.1-1.3
			c0.4,0,0.5,0.2,0.5,0.5c0,0.6-0.8,0.7-1.3,0.8c0,0.3,0.1,0.5,0.5,0.5c0.2,0,0.4-0.1,0.5-0.2L19.5-240.7z M19.4-242.1
			c0-0.1-0.1-0.2-0.3-0.2c-0.3,0-0.6,0.3-0.7,0.7C18.7-241.6,19.4-241.7,19.4-242.1z"/>
		<path id="Path_4452" class="st0" d="M21.2-242l0-0.2c0,0,0-0.1,0-0.1c-0.1,0-0.2,0-0.3,0c-0.2,0-0.4,0.1-0.4,0.3
			c0,0.2,0.2,0.3,0.4,0.3c0.2,0.1,0.5,0.2,0.5,0.6c0,0.4-0.3,0.6-0.8,0.6c-0.2,0-0.5,0-0.7-0.1l0.1-0.5l0.2,0l0,0.2c0,0,0,0,0,0.1
			c0.1,0,0.2,0,0.3,0c0.3,0,0.4-0.1,0.4-0.3c0-0.2-0.2-0.3-0.4-0.3c-0.2-0.1-0.5-0.2-0.5-0.5c0-0.4,0.3-0.6,0.8-0.6
			c0.2,0,0.4,0,0.6,0.1l-0.1,0.5L21.2-242z"/>
		<path id="Path_4453" class="st0" d="M21.7-240.2l0.2-0.4c0,0,0,0,0,0l-0.1,0l0.1-0.3c0.2,0,0.4,0,0.4,0.2c0,0.1,0,0.2-0.1,0.2
			l-0.3,0.4L21.7-240.2z"/>
		<path id="Path_4454" class="st0" d="M25-240.6L25-240.6L25-241l0.1-0.8c0-0.1,0-0.2,0-0.2c0-0.1,0-0.2-0.2-0.2
			c-0.2,0-0.4,0.2-0.7,0.4l-0.1,1c0,0.1,0,0.1,0,0.1l0.2,0l0,0.2h-0.9l0-0.2l0.2,0c0,0,0.1,0,0.1-0.1l0.2-1.3c0,0,0-0.1,0-0.1
			l-0.2-0.1l0-0.2h0.6l0,0.4c0.2-0.2,0.5-0.4,0.8-0.4s0.5,0.2,0.5,0.5c0,0.1,0,0.1,0,0.2l-0.2,1c0,0.1,0,0.1,0,0.1l0.2,0l0,0.2
			L25-240.6z"/>
		<path id="Path_4455" class="st0" d="M27.3-240.6l0-0.3h0c-0.2,0.2-0.4,0.4-0.7,0.4c-0.4,0-0.6-0.2-0.6-0.7c0-0.6,0.2-1.3,1-1.3
			c0.2,0,0.4,0.1,0.5,0.2l0.1-0.2h0.3c0,0.2-0.1,0.3-0.1,0.5l-0.2,1.2c0,0.1,0,0.1,0,0.1l0.2,0l0,0.2L27.3-240.6z M27.5-242.1
			c-0.1-0.1-0.3-0.2-0.5-0.2c-0.5,0-0.6,0.6-0.6,1c0,0.3,0.1,0.5,0.3,0.5c0.2,0,0.5-0.2,0.7-0.4L27.5-242.1z"/>
		<path id="Path_4456" class="st0" d="M29.5-240.6c-0.2,0.1-0.4,0.1-0.5,0.1c-0.3,0-0.5-0.1-0.5-0.4v-0.1l0.2-1.2c0,0,0,0,0,0h-0.3
			l0-0.2c0.3,0,0.4-0.2,0.5-0.5h0.2l-0.1,0.5c0,0,0,0,0,0h0.5l0,0.3H29l-0.2,1.1c0,0,0,0.1,0,0.1c0,0.1,0.1,0.2,0.2,0.2
			c0.1,0,0.2,0,0.3-0.1L29.5-240.6z"/>
		<path id="Path_4457" class="st0" d="M31.3-240.6l0.1-0.4c-0.2,0.2-0.5,0.4-0.8,0.4c-0.3,0-0.5-0.1-0.5-0.5c0-0.1,0-0.1,0-0.2
			l0.2-1c0-0.1,0-0.1,0-0.1l-0.2,0l0-0.2h0.6l0,0l-0.2,1.2c0,0.1,0,0.2,0,0.2c0,0.2,0,0.2,0.2,0.2c0.2,0,0.5-0.2,0.7-0.4l0.1-1
			c0-0.1,0-0.1,0-0.1l-0.2,0l0-0.2h0.6l0,0l-0.2,1.7c0,0,0,0.1,0,0.1l0.2,0l0,0.2L31.3-240.6L31.3-240.6z"/>
		<path id="Path_4458" class="st0" d="M33.8-240.6l0.1-0.4c-0.2,0.2-0.5,0.4-0.8,0.4c-0.3,0-0.5-0.1-0.5-0.5c0-0.1,0-0.1,0-0.2
			l0.2-1c0-0.1,0-0.1,0-0.1l-0.2,0l0-0.2h0.6l0,0l-0.2,1.2c0,0.1,0,0.2,0,0.2c0,0.2,0,0.2,0.2,0.2c0.2,0,0.5-0.2,0.7-0.4l0.1-1
			c0-0.1,0-0.1,0-0.1l-0.2,0l0-0.2h0.6l0,0l-0.2,1.7c0,0,0,0.1,0,0.1l0.2,0l0,0.2L33.8-240.6L33.8-240.6z"/>
		<path id="Path_4459" class="st0" d="M34.8-240.6l0-0.2l0.2,0c0,0,0.1,0,0.1-0.1l0.2-1.3c0,0,0-0.1,0-0.1l-0.2-0.1l0-0.2h0.6l0,0.4
			c0.1-0.2,0.4-0.4,0.7-0.4c0.1,0,0.2,0,0.2,0l-0.1,0.6l-0.3,0v-0.3c0,0,0,0,0,0c-0.1,0-0.3,0.2-0.5,0.4l-0.1,1c0,0.1,0,0.1,0,0.1
			l0.3,0l0,0.2H34.8z"/>
		<path id="Path_4460" class="st0" d="M36.7-240.6L36.7-240.6l0.1-0.5l0.3-2.1c0,0,0-0.1,0-0.1l-0.2,0l0-0.2h0.6l-0.4,2.6
			c0,0.1,0,0.1,0,0.1l0.2,0l0,0.2L36.7-240.6L36.7-240.6z"/>
		<path id="Path_4461" class="st0" d="M37.9-240.6L37.9-240.6L38-241l0.2-1.2c0,0,0-0.1,0-0.1l-0.2,0l0-0.2h0.6l-0.2,1.7
			c0,0.1,0,0.1,0,0.1l0.2,0l0,0.2L37.9-240.6L37.9-240.6z M38.2-243.1c0-0.1,0.1-0.3,0.2-0.3c0,0,0,0,0,0c0.1,0,0.2,0.1,0.2,0.2
			c0,0,0,0,0,0c0,0.2-0.1,0.3-0.3,0.3c0,0,0,0,0,0C38.2-243,38.2-243,38.2-243.1L38.2-243.1z"/>
		<path id="Path_4462" class="st0" d="M39.4-242.2C39.4-242.2,39.4-242.3,39.4-242.2l-0.3-0.2l0-0.2h0.6l-0.3,2.2
			c-0.1,0.4-0.2,0.6-0.6,0.6c-0.2,0-0.4-0.1-0.5-0.2l0.2-0.2c0.1,0.1,0.2,0.1,0.3,0.1c0.2,0,0.3-0.1,0.3-0.4L39.4-242.2z
			 M39.4-243.1c0-0.1,0.1-0.3,0.2-0.3c0,0,0,0,0,0c0.1,0,0.2,0.1,0.2,0.2c0,0,0,0,0,0c0,0.2-0.1,0.3-0.3,0.3c0,0,0,0,0,0
			C39.5-243,39.4-243,39.4-243.1L39.4-243.1z"/>
		<path id="Path_4463" class="st0" d="M41.6-240.6L41.6-240.6l-0.2-0.4l-0.3-0.7l-0.4,0.4l0,0.4c0,0.1,0,0.1,0,0.1l0.2,0l0,0.2h-0.9
			l0-0.2l0.2,0c0,0,0.1,0,0.1-0.1l0.3-2.3c0,0,0-0.1,0-0.1l-0.2-0.1l0-0.2h0.6l-0.3,1.8l0.8-0.7c0.2-0.1,0.3-0.2,0.4-0.2
			c0.1,0,0.1,0,0.2,0l0,0.2c-0.2,0-0.2,0-0.4,0.2l-0.3,0.3l0.4,1c0,0,0,0,0.1,0.1l0.2,0l0,0.2L41.6-240.6L41.6-240.6z"/>
	</g>
	<g id="Group_1030" transform="translate(2.3 1.99)">
		<g id="Group_1009" transform="translate(0 93.282)">
			<path id="Path_4464" class="st0" d="M15-68.7h-2.7l-1.5,0c0-1.2-0.1-1.6-0.5-2.8L9.9-73l-1.5,0H6.6L5-73l-0.5,1.5
				c-0.2,0.6-0.3,1.1-0.3,1.7c0,0.3,0,0.7,0.2,1l-0.7,0h-2l-1.1,0l-0.1-0.2c0.2-0.4,0.3-0.6,0.5-0.8c0.2-0.4,0.4-0.8,0.5-1.2
				c0.2-0.6,0.5-1,0.6-1.3l3.3-8.3c0.5-1.3,0.6-1.6,0.8-2.6l1.1,0l2.4-0.2l1.2-0.2c0.2,0.9,0.2,1.2,0.6,2.1l3.1,9.1
				c0.4,1.2,1.1,2.7,1.6,3.7L15-68.7z M7.7-80.9l-2,6l1.2,0H8l1.4,0L7.7-80.9z"/>
			<path id="Path_4465" class="st0" d="M27.2-68.7h-1.9l-1,0c0.1-0.4,0.1-0.7,0.1-0.9c0.1-0.5,0.1-1,0.1-1.5c0-0.7,0-1.2,0-1.5v-2
				c0-0.7,0-1-0.1-1.3c-0.2-0.5-0.7-0.8-1.3-0.8c-0.5,0-1,0.2-1.4,0.6c-0.4,0.4-0.5,0.7-0.5,1.9v1.6c0,1.9,0.1,3,0.4,3.9l-1.2,0
				h-1.9l-1,0c0.1-0.4,0.1-0.7,0.1-0.9c0.1-0.5,0.1-1.9,0.1-3l0-2.3c0-1-0.1-1.8-0.2-2.2c-0.1-0.4-0.4-0.6-0.9-0.6h-0.2l0.4-1l1,0
				l1.9,0l1.2-0.1l-0.1,1.7l0.8-0.7c1-0.8,1.8-1.1,2.9-1.1c1.1,0,1.8,0.3,2.4,0.9c0.5,0.6,0.7,1.2,0.7,2.5v2.9c0,1.9,0.1,3,0.4,3.9
				L27.2-68.7z"/>
			<path id="Path_4466" class="st0" d="M41.4-68.8l-0.8,0l-1.8,0.1l-1.2,0.1l-0.2-1.8l-0.9,0.7c-1,0.8-1.7,1.1-2.8,1.1
				c-1,0-1.8-0.3-2.3-1c-0.5-0.6-0.7-1.2-0.7-2.5l0-2.9c0-1-0.1-2-0.2-2.9c-0.1-0.5-0.1-0.6-0.3-1l1.2,0l1.9,0l1,0
				c-0.1,0.3-0.1,0.6-0.1,1c-0.1,0.5-0.1,1.9-0.2,3l0,2v0.2c0,0.7,0,0.8,0.1,1.1c0.2,0.5,0.6,0.8,1.3,0.8c0.5,0,1-0.2,1.3-0.6
				c0.3-0.4,0.4-0.7,0.4-1.9V-75c0-1,0-2-0.2-2.9c-0.1-0.5-0.1-0.6-0.3-1l1.2,0l1.9,0l1,0c-0.1,0.4-0.1,0.7-0.2,1
				c-0.1,0.5-0.1,1.9-0.1,3v2.3c0,1,0,1.8,0.2,2.2c0.1,0.4,0.4,0.6,0.9,0.6h0.2L41.4-68.8z"/>
			<path id="Path_4467" class="st0" d="M51.1-77.8l-0.2,1.4l-0.1,1.1l-0.4,0.1c-0.4-0.6-0.8-0.9-1.4-0.9c-0.9,0-1.5,0.8-1.5,2.2v1.4
				l0,0.3c-0.1,1.2,0.1,2.4,0.4,3.6l-1.2,0h-1.9l-1.1,0c0.1-0.3,0.1-0.6,0.2-0.9c0.1-0.5,0.1-1.9,0.1-3l0-2.3c0-1-0.1-1.8-0.2-2.2
				c-0.1-0.4-0.4-0.6-0.9-0.6h-0.2l0.4-1l1,0l1.7,0l1.2-0.1l-0.1,2.3l0.8-1c0.9-1.2,1.5-1.5,2.5-1.5c0.4,0,0.5,0,0.9,0.2L51.1-77.8z
				"/>
			<path id="Path_4468" class="st0" d="M61.4-68.7l-0.8,0l-1.8,0.1l-1.1,0.1l-0.1-1.4l-0.9,0.7c-0.7,0.6-1.5,0.9-2.4,0.9
				c-1.7,0-2.9-1.3-2.9-3.1c0-0.9,0.3-1.7,0.9-2.2c0.4-0.4,1-0.6,1.5-0.7c0.5-0.1,0.9-0.2,2.1-0.3c1-0.2,1.2-0.3,1.2-0.8
				c0-1-0.6-1.4-1.8-1.4c-1,0-1.8,0.3-2.5,1l-0.3-0.2l0.2-1.1l0.2-1.2c0.9-0.3,1.2-0.4,2.2-0.5c0.5-0.1,1-0.1,1.5-0.1
				c1.3,0,2.2,0.2,2.9,0.7c0.4,0.3,0.8,0.7,1,1.2c0.2,0.4,0.2,0.8,0.2,1.9l0,2.9l0,1.3c0,1,0.3,1.4,0.9,1.4h0.1l0.2,0L61.4-68.7z
				 M57.3-72.7l0-0.8c-0.9,0.1-1.3,0.2-1.7,0.3c-0.4,0.2-0.7,0.7-0.7,1.3c0,0.8,0.5,1.3,1.2,1.3c0.4,0,0.7-0.2,1-0.5
				C57.2-71.2,57.3-71.6,57.3-72.7L57.3-72.7z"/>
		</g>
		<g id="Group_1029" transform="translate(363.178 0)">
			<g id="Group_1028">
				<path id="Path_4469" class="st1" d="M-300.8,14.6c1.2,0.8,2.2,2.9,2.3,4.3c0.1,1.4-0.5,3.7-1.5,4.7c1.2-0.2,2.6-1.8,3.3-2.7
					c0.6-0.8,0.6-1.4,0.2-2.4s-1-1.8-1.7-2.6"/>
				<path id="Path_4470" class="st2" d="M-306.2,11.3c10,5.6,9.5,9.5,9.6,9.4c0.1-0.2,3.6-6.5-0.7-13.6c-2.8-4.6-8.7-7.3-11.2-3.6
					C-310.5,6.4-309,9.7-306.2,11.3z"/>
				<path id="Path_4471" class="st3" d="M-306.2,11.3c10,5.6,9.5,9.5,9.6,9.4c0.1-0.2,3.6-6.5-0.7-13.6c-2.8-4.6-8.7-7.3-11.2-3.6
					C-310.5,6.4-309,9.7-306.2,11.3z"/>
				<g id="Group_1012" transform="translate(199.427 40.889)">
					<g id="Group_1011">
						<g id="Group_1010">
							<path id="Path_4472" class="st4" d="M-504.7-36c0,0-0.1,0,0-0.1s0.4-0.2,1.2-0.3c0.5,0,0.9,0,1.4,0c0.5,0.1,1,0.2,1.5,0.3
								c0.4,0.1,0.7,0.3,1.1,0.4c0.1,0.1,0.2,0.1,0.3,0.2c0,0,0.1,0,0.1,0.1c0,0-0.1,0-0.1,0c-0.1,0-0.2-0.1-0.3-0.1
								c-0.4-0.1-0.7-0.2-1.1-0.3c-0.5-0.1-1-0.1-1.4-0.1c-0.4,0-0.9,0-1.3,0.1C-504.2-35.9-504.5-35.9-504.7-36
								C-504.8-36-504.7-36-504.7-36z"/>
						</g>
					</g>
				</g>
				<g id="Group_1015" transform="translate(220.555 64.898)">
					<g id="Group_1014">
						<g id="Group_1013">
							<path id="Path_4473" class="st4" d="M-523.7-57.8c0,0-0.1,0,0-0.1c0.1-0.1,0.4-0.2,1.1-0.2c0.4,0,0.9,0,1.3,0.1
								c0.5,0.1,0.9,0.3,1.3,0.5c0.3,0.2,0.6,0.4,0.9,0.6c0.1,0.1,0.2,0.2,0.3,0.2c0,0,0.1,0.1,0.1,0.1c0,0-0.1,0-0.1-0.1
								c-0.1-0.1-0.2-0.1-0.3-0.2c-0.3-0.2-0.6-0.3-1-0.4c-0.4-0.1-0.8-0.2-1.3-0.3c-0.4-0.1-0.8-0.1-1.2-0.1c-0.7,0-1,0.1-1.1,0
								C-523.7-57.7-523.7-57.8-523.7-57.8z"/>
						</g>
					</g>
				</g>
				<g id="Group_1018" transform="translate(237.129 89.717)">
					<g id="Group_1017">
						<g id="Group_1016">
							<path id="Path_4474" class="st4" d="M-538.5-80.3C-538.5-80.3-538.6-80.4-538.5-80.3c0.2-0.1,0.4-0.1,1,0
								c0.4,0.1,0.7,0.2,1.1,0.3c0.4,0.1,0.7,0.3,1.1,0.6c0.3,0.2,0.5,0.4,0.8,0.6c0.2,0.2,0.3,0.3,0.3,0.3l-0.3-0.2
								c-0.3-0.2-0.5-0.3-0.8-0.5c-0.7-0.3-1.5-0.5-2.2-0.7c-0.6-0.2-0.9-0.2-1-0.3C-538.6-80.3-538.5-80.3-538.5-80.3z"/>
						</g>
					</g>
				</g>
				<g id="Group_1021" transform="translate(180.306 54.062)">
					<g id="Group_1020">
						<g id="Group_1019">
							<path id="Path_4475" class="st4" d="M-487.2-48.3C-487.2-48.3-487.1-48.4-487.2-48.3c0.1,0.2,0.1,0.4,0.1,1
								c0,0.4,0,0.8,0,1.1c0,0.4,0.1,0.8,0.2,1.2c0.1,0.3,0.2,0.6,0.3,0.9c0,0.1,0.1,0.2,0.1,0.3c0,0,0,0.1,0,0.1c0,0,0-0.1-0.1-0.1
								c0-0.1-0.1-0.2-0.2-0.3c-0.2-0.3-0.3-0.6-0.4-0.9c-0.2-0.4-0.3-0.8-0.3-1.2c-0.1-0.4-0.1-0.8-0.1-1.2c0-0.7,0.2-1,0.2-1
								C-487.2-48.4-487.2-48.3-487.2-48.3z"/>
						</g>
					</g>
				</g>
				<g id="Group_1024" transform="translate(205.275 75.312)">
					<g id="Group_1023">
						<g id="Group_1022">
							<path id="Path_4476" class="st4" d="M-509.5-67.4C-509.5-67.4-509.4-67.4-509.5-67.4c0.1,0.1,0,0.3-0.2,0.7
								c-0.1,0.2-0.1,0.5-0.1,0.8c0,0.3,0,0.6,0.1,0.8c0.1,0.3,0.1,0.5,0.2,0.7c0,0.1,0.1,0.2,0.1,0.3c0-0.1-0.1-0.2-0.1-0.3
								c-0.1-0.2-0.2-0.4-0.3-0.7c-0.1-0.3-0.2-0.6-0.2-0.9c0-0.3,0-0.6,0.1-0.9C-509.8-67.3-509.6-67.4-509.5-67.4
								C-509.5-67.5-509.5-67.4-509.5-67.4z"/>
						</g>
					</g>
				</g>
				<g id="Group_1027" transform="translate(227.337 93.282)">
					<g id="Group_1026">
						<g id="Group_1025">
							<path id="Path_4477" class="st4" d="M-529.4-83.5C-529.4-83.5-529.4-83.5-529.4-83.5c0,0.1,0,0.1,0,0.2c0,0.2,0,0.3,0,0.5
								v0.2c0,0.1,0,0.1,0,0.2c0,0.1,0,0.3,0,0.4c0,0.3,0.1,0.5,0.2,0.8c0.1,0.2,0.2,0.5,0.3,0.6c0,0.1,0.1,0.2,0.1,0.3
								c0,0-0.1-0.1-0.2-0.2c-0.1-0.2-0.2-0.3-0.4-0.6c-0.2-0.3-0.3-0.5-0.3-0.8c0-0.1,0-0.3,0-0.4v-0.4c0-0.2,0-0.4,0.1-0.5
								c0-0.1,0.1-0.1,0.1-0.2C-529.5-83.6-529.5-83.6-529.4-83.5C-529.4-83.6-529.4-83.5-529.4-83.5z"/>
						</g>
					</g>
				</g>
				<path id="Path_4478" class="st5" d="M-314.8,8.3c2-0.7,3.8-3,4.3-3.8c1.5,0.4,2.6,0.7,4.5,2.2c2.9,2.2,4.5,4.4,6,6.5
					c-0.3-2.8-2.2-5.4-4.6-7.7c-2.1-2-4.4-2.8-5.8-3.2c-0.4-0.3-4.8-2.9-8.8-2.1c-4.2,0.8-6.5,3.5-6.4,4.3
					C-325.4,5.8-320.2,10.1-314.8,8.3z"/>
				<path id="Path_4479" class="st6" d="M-304.6,5.6c-2.1-2-4.4-2.8-5.8-3.2c-0.4-0.3-4.8-2.9-8.8-2.1c-4.2,0.8-6.5,3.5-6.4,4.3
					c0.1,0.5,1.4,1.8,3.3,2.8c2.6-3.4,6.8-3,9.8-0.7c0.7-0.7,1.4-1.5,2-2.3c1.5,0.4,2.6,0.7,4.5,2.2c2.9,2.2,4.5,4.4,6,6.5
					C-300.3,10.4-302.2,7.9-304.6,5.6z"/>
			</g>
			<circle id="Ellipse_29" class="st0" cx="-321.7" cy="4.7" r="1.1"/>
			<circle id="Ellipse_30" cx="-321.7" cy="4.8" r="0.7"/>
		</g>
	</g>
</g>
</svg>
