<?xml version="1.0" encoding="utf-8"?>
<!-- Generator: Adobe Illustrator 26.5.0, SVG Export Plug-In . SVG Version: 6.00 Build 0)  -->
<svg version="1.1" id="Stripelight-logo" xmlns="http://www.w3.org/2000/svg" xmlns:xlink="http://www.w3.org/1999/xlink" x="0px"
	 y="0px" viewBox="0 0 145.7 31.7" style="enable-background:new 0 0 145.7 31.7;" xml:space="preserve">
<style type="text/css">
	.st0{fill:#FFFFFF;}
</style>
<g id="Group_1250" transform="translate(636.178 -264.019)">
	<path id="Path_51" class="st0" d="M-570.3,273.5c0-0.8,0.7-1.5,1.5-1.5c0.8,0,1.5,0.7,1.5,1.5c0,0.8-0.7,1.5-1.5,1.5c0,0,0,0,0,0
		C-569.6,275.1-570.3,274.4-570.3,273.5"/>
	<path id="Path_52" class="st0" d="M-558.2,276.5c0-0.6-0.1-1.2-0.2-1.9c-0.4-3.3-2-6-4.6-8.2c-1.8-1.5-4.4-2.2-7.9-2.2
		c-1.5,0-3.2,0.1-5.2,0.4c-0.3,0.1-0.7,0.1-1,0.2c-1,7.4-0.6,8.8-0.5,9.7c0.2,1.7,0.9,3.2,1.1,4.1c0.4,1.4,1.1,2.4,2.6,2.7
		c0.8,0.1,1.6-0.1,2.3,0.1c0.6,0.2,0.9,1.2-0.1,1.4c-1.2,0.3-2.7-0.7-2.2,1.2c0.2,0.7,1.1,1.4,1.6,1.9c0.2,0.2,0.6,0.5,0.6,0.9
		c0,0.7-0.8,0.7-1.2,0.3c-0.6-0.5-1.3-1.5-2.1-1.7c-0.8-0.2,0.1,2.1,0.1,2.3c0.1,0.3,0.3,0.8,0.1,1.1c-0.3,0.5-1,0.4-1.2-0.1
		c-0.2-0.6-0.5-1.9-0.9-2.4c-0.6-0.9-1.1,1.2-1.3,1.5c-0.5,1.1-1.6,0.8-1.2-0.4c0.2-0.7,0.7-1.8,0.5-2.6c-0.6-2.9-0.1-3.1-0.3-4.2
		c-0.4-2-1.2-3.7-1.3-5.7c0-0.4-0.5-2.5,0.2-8.9c-2.7,1.7-4.4,4.8-5,9.1c-0.2,0-0.5,0-0.7,0c-0.5,0-1,0-1.5,0.1
		c-1.8,0.3-2.7,1.7-2.8,4.1v0.3c0,2.3,0.6,3.7,1.8,4.2c0.7,0.3,1.4,0.5,2.2,0.5c0.4,0,0.7,0,1-0.1c0.7,5,2.6,8.1,5.7,9.5
		c2.5,1.1,5,1.6,7.4,1.6c1.8,0,3.7-0.3,5.4-0.8c4.3-1.3,6.9-4.1,7.6-8.5c0.2-1.4,0.4-2.7,0.5-4c0.1-1.3,0.2-2.5,0.2-3.7
		C-558.2,277.8-558.2,277.1-558.2,276.5 M-585.9,281.3c-0.3,0-0.6-0.6-0.6-1.2s0.3-1.2,0.6-1.2c0.3,0,0.6,0.6,0.6,1.2
		S-585.6,281.3-585.9,281.3 M-568.8,276.9c-2.6,0-4.9-1.4-5.9-3.3c1-2,3.3-3.3,5.9-3.3c2.6,0,4.9,1.4,5.9,3.3
		C-563.9,275.5-566.2,276.9-568.8,276.9 M-562.3,285.1c-0.8,0-1.5-0.7-1.5-1.5c0-0.8,0.7-1.5,1.5-1.5c0.8,0,1.5,0.7,1.5,1.5
		C-560.8,284.4-561.5,285.1-562.3,285.1"/>
	<path id="Path_53" class="st0" d="M-630,278c-1,0-2.2-0.5-2.2-2.5s1.2-2.5,2.2-2.5c0.7,0,1.2,0.2,1.6,0.7l-0.8,0.8
		c-0.3-0.3-0.5-0.4-0.8-0.4c-0.3,0-0.5,0.1-0.7,0.3c-0.2,0.2-0.3,0.6-0.3,1.1s0.1,0.9,0.3,1.1c0.2,0.2,0.4,0.3,0.7,0.3
		c0.3,0,0.5-0.1,0.8-0.4l0.8,0.8C-628.8,277.8-629.3,278-630,278"/>
	<path id="Path_54" class="st0" d="M-624.2,278v-0.4c-0.3,0.3-0.8,0.5-1.2,0.5c-0.5,0-0.9-0.2-1.2-0.4c-0.4-0.4-0.5-0.9-0.5-1.4
		v-3.1h1.2v3c0,0.7,0.4,0.9,0.8,0.9c0.4,0,0.8-0.2,0.8-0.9v-3h1.2v4.9H-624.2z"/>
	<path id="Path_55" class="st0" d="M-619.8,278c-1,0-1.4-0.7-1.4-1.4v-5.3h1.2v5.2c0,0.3,0.1,0.4,0.4,0.4h0.5v1H-619.8z"/>
	<path id="Path_56" class="st0" d="M-616.1,278c-1,0-1.4-0.7-1.4-1.4v-2.4h-0.5v-0.9h0.5v-1.4h1.2v1.4h0.9v0.9h-0.9v2.3
		c0,0.3,0.1,0.4,0.4,0.4h0.4v1L-616.1,278z"/>
	<path id="Path_57" class="st0" d="M-611.1,278v-0.4c-0.3,0.3-0.8,0.5-1.2,0.5c-0.5,0-0.9-0.2-1.2-0.4c-0.4-0.4-0.5-0.9-0.5-1.4
		v-3.1h1.2v3c0,0.7,0.4,0.9,0.8,0.9s0.8-0.2,0.8-0.9v-3h1.2v4.9H-611.1z"/>
	<path id="Path_58" class="st0" d="M-605.2,278v-0.4c-0.3,0.3-0.8,0.5-1.2,0.5c-0.5,0-0.9-0.2-1.2-0.4c-0.4-0.4-0.5-0.9-0.5-1.4
		v-3.1h1.2v3c0,0.7,0.4,0.9,0.8,0.9c0.4,0,0.8-0.2,0.8-0.9v-3h1.2v4.9H-605.2z"/>
	<path id="Path_59" class="st0" d="M-599.5,274.4c-0.2-0.2-0.3-0.3-0.6-0.3c-0.4,0-0.8,0.3-0.8,0.9v2.9h-1.2v-4.9h1.2v0.5
		c0.2-0.3,0.7-0.5,1.2-0.5c0.5,0,0.8,0.1,1.2,0.5L-599.5,274.4z"/>
	<path id="Path_60" class="st0" d="M-633.5,286.4c-1,0-2.2-0.5-2.2-2.5s1.2-2.5,2.2-2.5c0.7,0,1.2,0.2,1.6,0.7l-0.8,0.8
		c-0.3-0.3-0.5-0.4-0.8-0.4c-0.3,0-0.5,0.1-0.7,0.3c-0.2,0.2-0.3,0.6-0.3,1.1c0,0.5,0.1,0.9,0.3,1.1c0.2,0.2,0.4,0.3,0.7,0.3
		c0.3,0,0.5-0.1,0.8-0.4l0.8,0.8C-632.4,286.2-632.9,286.4-633.5,286.4"/>
	<path id="Path_61" class="st0" d="M-627.3,285.8c-0.3,0.3-0.8,0.6-1.5,0.6c-0.7,0-1.2-0.3-1.5-0.6c-0.4-0.5-0.6-1-0.6-1.9
		c0-0.9,0.1-1.4,0.6-1.9c0.3-0.3,0.8-0.6,1.5-0.6c0.7,0,1.2,0.3,1.5,0.6c0.4,0.5,0.6,1,0.6,1.9
		C-626.7,284.8-626.9,285.3-627.3,285.8 M-628.2,282.7c-0.2-0.1-0.4-0.2-0.6-0.2c-0.2,0-0.4,0.1-0.6,0.2c-0.3,0.3-0.3,0.7-0.3,1.2
		c0,0.5,0,0.9,0.3,1.2c0.1,0.1,0.4,0.2,0.6,0.2c0.2,0,0.4-0.1,0.6-0.2c0.3-0.3,0.3-0.7,0.3-1.2C-628,283.4-628,283-628.2,282.7"/>
	<path id="Path_62" class="st0" d="M-619.4,286.3v-3c0-0.7-0.4-0.9-0.8-0.9c-0.4,0-0.8,0.2-0.8,0.9v3h-1.2v-3c0-0.7-0.4-0.9-0.8-0.9
		c-0.4,0-0.8,0.2-0.8,0.9v3h-1.2v-4.9h1.2v0.4c0.3-0.3,0.8-0.5,1.2-0.5c0.5,0,1,0.2,1.3,0.6c0.4-0.4,0.9-0.6,1.5-0.6
		c0.5,0,0.9,0.2,1.2,0.4c0.4,0.4,0.5,0.9,0.5,1.4v3.1L-619.4,286.3z"/>
	<path id="Path_63" class="st0" d="M-612.8,286c-0.3,0.3-0.7,0.4-1.2,0.4c-0.5,0-0.9-0.1-1.2-0.5v2.2h-1.2v-6.7h1.2v0.5
		c0.3-0.4,0.7-0.5,1.2-0.5c0.5,0,0.9,0.2,1.2,0.4c0.5,0.5,0.5,1.3,0.5,2.1S-612.4,285.5-612.8,286 M-614.4,282.5
		c-0.7,0-0.8,0.6-0.8,1.4c0,0.8,0.1,1.4,0.8,1.4s0.8-0.6,0.8-1.4C-613.6,283.1-613.7,282.5-614.4,282.5"/>
	<path id="Path_64" class="st0" d="M-608.2,286.3v-0.4c-0.3,0.3-0.6,0.5-1.2,0.5c-0.6,0-1-0.1-1.2-0.4c-0.3-0.3-0.4-0.7-0.4-1.1
		c0-0.8,0.5-1.4,1.7-1.4h1.2v-0.2c0-0.5-0.3-0.8-0.9-0.8c-0.5,0-0.7,0.1-0.9,0.4l-0.8-0.8c0.5-0.5,0.9-0.7,1.8-0.7
		c1.4,0,2.1,0.6,2.1,1.7v3.2L-608.2,286.3z M-608.2,284.3h-1c-0.4,0-0.7,0.2-0.7,0.6c0,0.3,0.2,0.6,0.7,0.6c0.3,0,0.6,0,0.8-0.2
		c0.1-0.1,0.2-0.3,0.2-0.6V284.3z"/>
	<path id="Path_65" class="st0" d="M-602.7,286.3v-0.4c-0.3,0.3-0.6,0.5-1.2,0.5c-0.6,0-1-0.1-1.2-0.4c-0.3-0.3-0.4-0.7-0.4-1.1
		c0-0.8,0.5-1.4,1.7-1.4h1.2v-0.2c0-0.5-0.3-0.8-0.9-0.8c-0.5,0-0.7,0.1-0.9,0.4l-0.8-0.8c0.5-0.5,0.9-0.7,1.8-0.7
		c1.4,0,2.1,0.6,2.1,1.7v3.2L-602.7,286.3z M-602.8,284.3h-1c-0.4,0-0.7,0.2-0.7,0.6c0,0.3,0.2,0.6,0.7,0.6c0.3,0,0.6,0,0.8-0.2
		c0.1-0.1,0.2-0.3,0.2-0.6L-602.8,284.3z"/>
	<path id="Path_66" class="st0" d="M-596.9,286.3v-3c0-0.7-0.4-0.9-0.8-0.9s-0.8,0.2-0.8,0.9v3h-1.2v-4.9h1.2v0.4
		c0.3-0.3,0.8-0.5,1.2-0.5c0.5,0,0.9,0.2,1.2,0.4c0.4,0.4,0.5,0.9,0.5,1.4v3.1L-596.9,286.3z"/>
</g>
</svg>
