<?xml version="1.0" encoding="utf-8"?>
<!-- Generator: Adobe Illustrator 26.5.0, SVG Export Plug-In . SVG Version: 6.00 Build 0)  -->
<svg version="1.1" id="Stripelight-logo" xmlns="http://www.w3.org/2000/svg" xmlns:xlink="http://www.w3.org/1999/xlink" x="0px"
	 y="0px" viewBox="0 0 145.7 31.7" style="enable-background:new 0 0 145.7 31.7;" xml:space="preserve">
<style type="text/css">
	.st0{fill:#FFFFFF;}
</style>
<g id="Group_665" transform="translate(-404.148 -278.022)">
	<g id="ecopoint_logo_RGB" transform="translate(404.148 278.022)">
		<path id="Path_3954" class="st0" d="M42.7,24.8c0.4-0.4,0.7-0.9,0.9-1.4c0.3-0.5,0.5-1,0.6-1.6c-0.8-1.4-2-2.6-3.5-3.2
			c-0.1,1-0.4,2-0.8,2.8c-0.6,1.2-1.5,2.1-2.6,2.8c-1.6,1-3.5,1.4-5.4,1c0.5,0.5,1.1,0.9,1.7,1.3C36.7,28.2,40.5,27.4,42.7,24.8z"/>
		<path id="Path_3955" class="st0" d="M36.5,23.8c-2-1.3-3.2-3.5-3.3-5.9c-0.1-1.3,0.2-2.6,0.8-3.8c0.3-0.5,0.6-1,0.9-1.4
			c-4,1.2-6.2,5.3-5.1,9.3c0,0.1,0.1,0.2,0.1,0.3c0.4,1.1,1,2.2,1.9,3C33.6,25.3,35.2,24.8,36.5,23.8z"/>
		<path id="Path_3956" class="st0" d="M35,12.8c-0.3,0.5-0.5,1-0.7,1.5c-0.3,1-0.4,2.1-0.3,3.2c2.1-1,4.6-0.9,6.6,0.1
			c0,0,0.1,0,0.1,0.1c1.6,0.9,2.9,2.4,3.5,4.2c1-4-1.4-8.1-5.4-9.1c-0.1,0-0.3-0.1-0.4-0.1C37.3,12.5,36.1,12.5,35,12.8L35,12.8z"/>
		<path id="Path_3957" class="st0" d="M11.4,23.4v2.8c0,0.1-0.1,0.2-0.2,0.2c0,0,0,0,0,0H0.8c-0.1,0-0.2-0.1-0.2-0.2c0,0,0,0,0,0
			V13.7c0-0.1,0.1-0.2,0.2-0.2c0,0,0,0,0,0h10.1c0.1,0,0.2,0.1,0.2,0.2c0,0,0,0,0,0v2.8c0,0.1-0.1,0.2-0.2,0.2c0,0,0,0,0,0H5.1
			c-0.1,0-0.2,0.1-0.2,0.2c0,0,0,0,0,0v1c0,0.1,0.1,0.2,0.2,0.2c0,0,0,0,0,0h5c0.1,0,0.2,0.1,0.2,0.2c0,0,0,0,0,0v2.7
			c0,0.1-0.1,0.2-0.2,0.2c0,0,0,0,0,0h-5c-0.1,0-0.2,0.1-0.2,0.2c0,0,0,0,0,0V23c0,0.1,0.1,0.2,0.2,0.2c0,0,0,0,0,0h6
			C11.2,23.2,11.4,23.2,11.4,23.4C11.4,23.3,11.4,23.4,11.4,23.4z"/>
		<path id="Path_3958" class="st0" d="M17.7,25.9c-1.1-0.5-2-1.4-2.6-2.4c-0.6-1.1-1-2.3-0.9-3.5c0-1.2,0.3-2.5,0.9-3.5
			c0.6-1,1.5-1.9,2.6-2.4c1.2-0.6,2.4-0.9,3.7-0.9c1.2,0,2.3,0.2,3.4,0.7c0.9,0.4,1.7,1,2.3,1.8c0.1,0.1,0.1,0.2,0,0.3c0,0,0,0,0,0
			l-2.4,2.2c-0.1,0.1-0.2,0.1-0.3,0c0,0,0,0,0,0c-0.8-0.9-1.7-1.4-2.7-1.4c-0.9,0-1.7,0.3-2.2,0.9c-0.5,0.6-0.8,1.4-0.8,2.4
			c0,1,0.3,1.8,0.8,2.4c0.5,0.6,1.3,0.9,2.2,0.9c1,0,1.9-0.4,2.7-1.4c0.1-0.1,0.2-0.1,0.3,0l2.4,2.2c0.1,0.1,0.1,0.2,0,0.3
			c-0.6,0.8-1.4,1.4-2.3,1.8c-1.1,0.5-2.2,0.7-3.4,0.7C20.1,26.8,18.9,26.5,17.7,25.9z"/>
		<path id="Path_3959" class="st0" d="M56.8,14.1c0.8,0.4,1.5,0.9,2.1,1.7c0.5,0.8,0.7,1.7,0.7,2.6c0,0.9-0.2,1.8-0.7,2.6
			c-0.5,0.8-1.2,1.4-2.1,1.7c-1,0.4-2.1,0.6-3.1,0.6H52c-0.1,0-0.2,0.1-0.2,0.2c0,0,0,0,0,0v2.7c0,0.1-0.1,0.2-0.2,0.2c0,0,0,0,0,0
			h-3.9c-0.1,0-0.2-0.1-0.2-0.2c0,0,0,0,0,0V13.7c0-0.1,0.1-0.2,0.2-0.2c0,0,0,0,0,0h6C54.7,13.4,55.8,13.6,56.8,14.1z M54.8,19.5
			c0.3-0.3,0.5-0.7,0.4-1.1c0-0.4-0.1-0.8-0.4-1.1c-0.3-0.3-0.7-0.4-1.4-0.4h-1.4c-0.1,0-0.2,0.1-0.2,0.2c0,0,0,0,0,0v2.6
			c0,0.1,0.1,0.2,0.2,0.2c0,0,0,0,0,0h1.4C54,19.9,54.5,19.8,54.8,19.5z"/>
		<path id="Path_3960" class="st0" d="M65.9,25.9c-1.1-0.5-2-1.4-2.6-2.4c-0.6-1-1-2.3-0.9-3.5c0-1.2,0.3-2.4,0.9-3.5
			c0.6-1,1.5-1.9,2.6-2.4c2.4-1.2,5.1-1.2,7.5,0c1.1,0.5,2,1.4,2.6,2.4c0.6,1,1,2.3,0.9,3.5c0,1.2-0.3,2.4-0.9,3.5
			c-0.6,1-1.5,1.9-2.6,2.4C71.1,27.1,68.3,27.1,65.9,25.9L65.9,25.9z M71.2,22.8c0.4-0.3,0.8-0.7,1-1.1c0.3-0.5,0.4-1.1,0.4-1.7
			c0-0.6-0.1-1.2-0.4-1.7c-0.8-1.4-2.5-1.9-3.9-1.2c0,0-0.1,0-0.1,0.1c-0.4,0.3-0.8,0.7-1,1.1c-0.3,0.5-0.4,1.1-0.4,1.7
			c0,0.6,0.1,1.2,0.4,1.7c0.8,1.4,2.5,1.9,3.9,1.2C71.1,22.8,71.2,22.8,71.2,22.8z"/>
		<path id="Path_3961" class="st0" d="M80.2,13.5h3.9c0.1,0,0.2,0.1,0.2,0.2c0,0,0,0,0,0v12.5c0,0.1-0.1,0.2-0.2,0.2c0,0,0,0,0,0
			h-3.9c-0.1,0-0.2-0.1-0.2-0.2c0,0,0,0,0,0V13.7C80,13.6,80.1,13.5,80.2,13.5C80.2,13.5,80.2,13.5,80.2,13.5z"/>
		<path id="Path_3962" class="st0" d="M101.2,13.7v12.5c0,0.1-0.1,0.2-0.2,0.2c0,0,0,0,0,0h-3.2c-0.1,0-0.1,0-0.2-0.1L93,21
			c-0.1-0.1-0.2-0.1-0.3,0c-0.1,0-0.1,0.1-0.1,0.2v5c0,0.1-0.1,0.2-0.2,0.2c0,0,0,0,0,0h-3.8c-0.1,0-0.2-0.1-0.2-0.2c0,0,0,0,0,0
			V13.7c0-0.1,0.1-0.2,0.2-0.2c0,0,0,0,0,0h3.2c0.1,0,0.1,0,0.2,0.1l4.5,5.3c0.1,0.1,0.2,0.1,0.3,0c0.1,0,0.1-0.1,0.1-0.2v-5
			c0-0.1,0.1-0.2,0.2-0.2c0,0,0,0,0,0h3.8C101,13.4,101.2,13.5,101.2,13.7C101.2,13.7,101.2,13.7,101.2,13.7z"/>
		<path id="Path_3963" class="st0" d="M107.9,16.9h-3.4c-0.1,0-0.2-0.1-0.2-0.2c0,0,0,0,0,0v-2.9c0-0.1,0.1-0.2,0.2-0.2c0,0,0,0,0,0
			h11.5c0.1,0,0.2,0.1,0.2,0.2c0,0,0,0,0,0v2.9c0,0.1-0.1,0.2-0.2,0.2c0,0,0,0,0,0h-3.4c-0.1,0-0.2,0.1-0.2,0.2c0,0,0,0,0,0v9.1
			c0,0.1-0.1,0.2-0.2,0.2c0,0,0,0,0,0h-3.9c-0.1,0-0.2-0.1-0.2-0.2c0,0,0,0,0,0v-9.1C108.2,17,108.1,16.9,107.9,16.9
			C108,16.9,108,16.9,107.9,16.9z"/>
	</g>
</g>
</svg>
