<?xml version="1.0" encoding="utf-8"?>
<!-- Generator: Adobe Illustrator 26.5.0, SVG Export Plug-In . SVG Version: 6.00 Build 0)  -->
<svg version="1.1" id="Stripelight-logo" xmlns="http://www.w3.org/2000/svg" xmlns:xlink="http://www.w3.org/1999/xlink" x="0px"
	 y="0px" viewBox="0 0 179.2 31.7" style="enable-background:new 0 0 179.2 31.7;" xml:space="preserve">
<style type="text/css">
	.st0{fill:#FFFFFF;}
</style>
<g id="Group_1" transform="translate(0 0)">
	<path id="Path_1" class="st0" d="M31.4,15.5h6.7v1.2c0,0.9,0,1.7-0.1,2.6c0,0.8-0.2,1.6-0.5,2.4c-0.3,0.7-0.7,1.4-1.2,1.9
		c-0.6,0.6-1.4,1-2.2,1.2C33.8,24.9,33.4,25,33,25c-0.4,0-0.8,0.1-1.2,0.1c-0.4,0-0.9,0-1.3-0.1c-0.4-0.1-0.7-0.1-1.1-0.2
		c-0.9-0.2-1.7-0.7-2.3-1.3c-0.5-0.6-0.9-1.3-1.2-2c-0.2-0.8-0.4-1.6-0.4-2.4c0-0.8-0.1-1.6-0.1-2.4v-0.1c0-0.9,0-1.9,0.1-2.8
		c0.1-0.6,0.2-1.2,0.3-1.8c0.1-0.4,0.3-0.8,0.5-1.2c0.2-0.3,0.4-0.6,0.6-0.8c0.3-0.3,0.6-0.6,1-0.8c0.4-0.2,0.8-0.4,1.2-0.5
		c0.4-0.1,0.8-0.2,1.2-0.3c0.4,0,0.8-0.1,1.2-0.1c0.9,0,1.7,0.1,2.6,0.4c0.8,0.2,1.6,0.7,2.2,1.3c0.1,0.1,0.2,0.3,0.3,0.4
		c0.1,0.1,0.2,0.3,0.3,0.5c0.1,0.2,0.2,0.5,0.3,0.7c0.1,0.3,0.2,0.7,0.3,1l-3.3,0.4c-0.2-0.5-0.6-0.9-1.1-1.1
		c-0.5-0.2-1.1-0.3-1.6-0.3c-0.4,0-0.8,0-1.3,0.1c-0.4,0.1-0.7,0.3-1,0.6c-0.1,0.1-0.2,0.2-0.2,0.3c-0.1,0.2-0.2,0.4-0.2,0.6
		C29,13.5,29,14,28.9,14.4c0,0.5-0.1,1.3-0.1,2.2v0.1c0,0.9,0,1.7,0.1,2.2c0,0.4,0.1,0.9,0.2,1.3c0,0.2,0.1,0.4,0.2,0.6
		c0.1,0.1,0.1,0.2,0.2,0.3c0.3,0.3,0.6,0.5,1,0.6c0.4,0.1,0.8,0.1,1.3,0.1c0.4,0,0.8-0.1,1.2-0.1c0.4-0.1,0.7-0.3,1-0.5
		c0.1-0.1,0.1-0.1,0.2-0.2c0.1-0.1,0.1-0.2,0.2-0.4c0.1-0.2,0.1-0.5,0.2-0.7c0.1-0.4,0.1-0.8,0.1-1.2h-3.2L31.4,15.5z"/>
	<path id="Path_2" class="st0" d="M41.1,23.4c-0.2-0.2-0.4-0.5-0.6-0.8c-0.2-0.4-0.4-0.8-0.5-1.2c-0.2-0.6-0.3-1.2-0.3-1.8
		c-0.1-0.9-0.1-1.9-0.1-2.9v-0.1c0-1,0-1.9,0.1-2.9c0.1-0.6,0.2-1.2,0.3-1.8c0.1-0.4,0.3-0.8,0.5-1.2c0.2-0.3,0.4-0.5,0.6-0.8
		c0.6-0.6,1.3-1.1,2.1-1.3c0.9-0.2,1.7-0.4,2.6-0.4c0.9,0,1.8,0.2,2.6,0.4c0.8,0.2,1.6,0.7,2.2,1.3c0.2,0.3,0.4,0.5,0.6,0.8
		c0.2,0.4,0.4,0.8,0.5,1.2c0.2,0.6,0.3,1.2,0.3,1.8c0.1,0.9,0.1,1.9,0.1,2.8v0.1c0,1,0,1.9-0.1,2.9c-0.1,0.6-0.2,1.2-0.3,1.8
		c-0.1,0.4-0.3,0.8-0.5,1.2c-0.2,0.3-0.4,0.6-0.6,0.8c-0.6,0.6-1.3,1-2.1,1.3c-0.9,0.3-1.8,0.4-2.7,0.4c-0.9,0-1.8-0.1-2.7-0.4
		C42.3,24.4,41.6,24,41.1,23.4 M45.8,21.8c0.4,0,0.8-0.1,1.2-0.1c0.4-0.1,0.7-0.3,1-0.6c0.1-0.1,0.2-0.2,0.2-0.3
		c0.1-0.2,0.2-0.4,0.2-0.6c0.1-0.4,0.1-0.8,0.2-1.3c0-0.5,0.1-1.3,0.1-2.2v-0.1c0-0.9,0-1.6-0.1-2.2c0-0.4-0.1-0.9-0.2-1.3
		c0-0.2-0.1-0.4-0.2-0.6c-0.1-0.1-0.1-0.2-0.2-0.3c-0.3-0.3-0.6-0.4-1-0.6c-0.4-0.1-0.8-0.2-1.2-0.2c-0.4,0-0.9,0.1-1.3,0.1
		c-0.4,0.1-0.7,0.3-1,0.6c-0.1,0.1-0.2,0.2-0.2,0.3c-0.1,0.2-0.2,0.4-0.2,0.6C43,13.5,43,14,43,14.4c0,0.5-0.1,1.3-0.1,2.2v0.1
		c0,0.9,0,1.6,0.1,2.2c0,0.4,0.1,0.8,0.2,1.3c0,0.2,0.1,0.4,0.2,0.6c0.3,0.4,0.7,0.7,1.2,0.8C45,21.7,45.4,21.8,45.8,21.8"/>
	<path id="Path_3" class="st0" d="M55.2,23.4c-0.2-0.2-0.4-0.5-0.6-0.8c-0.2-0.4-0.4-0.8-0.5-1.2c-0.2-0.6-0.3-1.2-0.3-1.8
		c-0.1-0.9-0.1-1.9-0.1-2.9v-0.1c0-1,0-1.9,0.1-2.9c0.1-0.6,0.2-1.2,0.3-1.8c0.1-0.4,0.3-0.8,0.5-1.2c0.2-0.3,0.4-0.5,0.6-0.8
		c0.6-0.6,1.3-1.1,2.1-1.3c0.9-0.2,1.7-0.4,2.6-0.4c0.9,0,1.8,0.2,2.6,0.4c0.8,0.2,1.6,0.7,2.2,1.3c0.2,0.3,0.4,0.5,0.6,0.8
		c0.2,0.4,0.4,0.8,0.5,1.2c0.2,0.6,0.3,1.2,0.3,1.8c0.1,0.9,0.1,1.9,0.1,2.8v0.1c0,1,0,1.9-0.1,2.9c-0.1,0.6-0.2,1.2-0.3,1.8
		c-0.1,0.4-0.3,0.8-0.5,1.2c-0.2,0.3-0.4,0.6-0.6,0.8c-0.6,0.6-1.3,1-2.1,1.3c-0.9,0.3-1.8,0.4-2.7,0.4c-0.9,0-1.8-0.1-2.7-0.4
		C56.4,24.4,55.7,24,55.2,23.4 M59.9,21.8c0.4,0,0.8-0.1,1.2-0.1c0.4-0.1,0.7-0.3,1-0.6c0.1-0.1,0.2-0.2,0.2-0.3
		c0.1-0.2,0.2-0.4,0.2-0.6c0.1-0.4,0.1-0.8,0.2-1.3c0-0.5,0.1-1.3,0.1-2.2v-0.1c0-0.9,0-1.6-0.1-2.2c0-0.4-0.1-0.9-0.2-1.3
		c0-0.2-0.1-0.4-0.2-0.6c-0.1-0.1-0.1-0.2-0.2-0.3c-0.3-0.3-0.6-0.4-1-0.6c-0.4-0.1-0.8-0.2-1.2-0.2c-0.4,0-0.9,0.1-1.3,0.1
		c-0.4,0.1-0.7,0.3-1,0.6c-0.1,0.1-0.2,0.2-0.2,0.3c-0.1,0.2-0.2,0.4-0.2,0.6c-0.1,0.4-0.1,0.8-0.2,1.3c0,0.5-0.1,1.3-0.1,2.2v0.1
		c0,0.9,0,1.6,0.1,2.2c0,0.4,0.1,0.8,0.2,1.3c0,0.2,0.1,0.4,0.2,0.6c0.3,0.4,0.7,0.7,1.2,0.8C59,21.7,59.5,21.8,59.9,21.8"/>
	<path id="Path_4" class="st0" d="M67.9,8.5h6.4c0.9,0,1.7,0.1,2.6,0.4c0.8,0.2,1.6,0.7,2.2,1.3c0.2,0.2,0.4,0.5,0.6,0.8
		c0.2,0.4,0.4,0.7,0.5,1.2c0.2,0.6,0.3,1.2,0.3,1.8c0.1,0.7,0.1,1.7,0.1,2.8v0.2c0,1.1,0,2-0.1,2.7c-0.1,0.6-0.2,1.2-0.3,1.8
		c-0.1,0.4-0.3,0.8-0.5,1.1c-0.2,0.3-0.4,0.6-0.6,0.8c-0.6,0.6-1.4,1.1-2.2,1.3c-0.8,0.2-1.6,0.3-2.5,0.3h-6.5L67.9,8.5z M71.2,21.5
		h3.1c0.4,0,0.9,0,1.3-0.1c0.4-0.1,0.7-0.3,1-0.5c0.1-0.1,0.2-0.2,0.2-0.3c0.1-0.2,0.2-0.4,0.2-0.6c0.1-0.4,0.2-0.8,0.2-1.2
		c0-0.5,0.1-1.2,0.1-2.1v-0.2c0-0.9,0-1.6-0.1-2.1c0-0.4-0.1-0.8-0.2-1.2c0-0.2-0.1-0.4-0.2-0.6c-0.1-0.1-0.1-0.2-0.2-0.3
		c-0.3-0.3-0.6-0.5-1-0.6c-0.4-0.1-0.8-0.1-1.3-0.1h-3.1L71.2,21.5z"/>
	<path id="Path_5" class="st0" d="M96.3,8.5v16.4H93V18c-0.3,0.8-0.7,1.7-1,2.6c-0.4,0.9-0.7,1.8-1,2.6h-3.1l-2.1-5.3v7h-3.3V8.5
		h3.3l3.7,9.6c0.6-1.7,1.2-3.3,1.8-4.8c0.6-1.6,1.2-3.1,1.8-4.8H96.3z"/>
	<path id="Path_6" class="st0" d="M99.6,23.4c-0.2-0.2-0.4-0.5-0.6-0.8c-0.2-0.4-0.4-0.8-0.5-1.2c-0.2-0.6-0.3-1.2-0.3-1.8
		C98,18.6,98,17.7,98,16.7v-0.1c0-1,0-1.9,0.1-2.9c0.1-0.6,0.2-1.2,0.3-1.8c0.1-0.4,0.3-0.8,0.5-1.2c0.2-0.3,0.4-0.5,0.6-0.8
		c0.6-0.6,1.3-1.1,2.1-1.3c0.9-0.2,1.7-0.4,2.6-0.4c0.9,0,1.8,0.2,2.6,0.4c0.8,0.2,1.6,0.7,2.2,1.3c0.2,0.3,0.4,0.5,0.6,0.8
		c0.2,0.4,0.4,0.8,0.5,1.2c0.2,0.6,0.3,1.2,0.3,1.8c0.1,0.9,0.1,1.9,0.1,2.8v0.1c0,1,0,1.9-0.1,2.9c-0.1,0.6-0.2,1.2-0.3,1.8
		c-0.1,0.4-0.3,0.8-0.5,1.2c-0.2,0.3-0.4,0.6-0.6,0.8c-0.6,0.6-1.3,1-2.1,1.3c-0.9,0.3-1.8,0.4-2.7,0.4c-0.9,0-1.8-0.1-2.7-0.4
		C100.8,24.4,100.1,24,99.6,23.4 M104.3,21.8c0.4,0,0.8-0.1,1.2-0.1c0.4-0.1,0.7-0.3,1-0.6c0.1-0.1,0.2-0.2,0.2-0.3
		c0.1-0.2,0.2-0.4,0.2-0.6c0.1-0.4,0.1-0.8,0.2-1.3c0-0.5,0.1-1.3,0.1-2.2v-0.1c0-0.9,0-1.6-0.1-2.2c0-0.4-0.1-0.9-0.2-1.3
		c0-0.2-0.1-0.4-0.2-0.6c-0.1-0.1-0.1-0.2-0.2-0.3c-0.3-0.3-0.6-0.4-1-0.6c-0.4-0.1-0.8-0.2-1.2-0.2c-0.4,0-0.9,0.1-1.3,0.1
		c-0.4,0.1-0.7,0.3-1,0.6c-0.1,0.1-0.2,0.2-0.2,0.3c-0.1,0.2-0.2,0.4-0.2,0.6c-0.1,0.4-0.1,0.8-0.2,1.3c0,0.5-0.1,1.3-0.1,2.2v0.1
		c0,0.9,0,1.6,0.1,2.2c0,0.4,0.1,0.8,0.2,1.3c0,0.2,0.1,0.4,0.2,0.6c0.3,0.4,0.7,0.7,1.2,0.8C103.5,21.7,103.9,21.8,104.3,21.8"/>
	<path id="Path_7" class="st0" d="M112.3,24.9V8.5h7.8c1.5-0.1,2.9,0.4,3.9,1.5c0.9,1.1,1.3,2.5,1.3,3.9c0,0.4,0,0.9-0.1,1.3
		c-0.1,0.4-0.2,0.7-0.4,1.1c-0.1,0.3-0.3,0.5-0.5,0.8c-0.1,0.2-0.3,0.4-0.4,0.5c-0.3,0.3-0.7,0.6-1.1,0.7c-0.4,0.2-0.8,0.3-1.2,0.5
		c0.4,0.5,0.8,1,1.2,1.6c0.4,0.5,0.8,1.1,1.3,1.6c0.4,0.5,0.8,1.1,1.2,1.6l1.1,1.4h-4.3l-4.6-6h-1.9v6L112.3,24.9z M122,13.6
		c0.1-0.6-0.1-1.1-0.6-1.5c-0.4-0.3-0.9-0.4-1.4-0.4h-4.4v3.7h4.4c0.5,0,1-0.1,1.4-0.4C121.9,14.7,122.1,14.2,122,13.6"/>
	<path id="Path_8" class="st0" d="M140.9,8.5v16.4h-3.3l-6.2-9.7v9.7h-3.3V8.5h3.3l6.2,9.8V8.5H140.9z"/>
	<rect id="Rectangle_1" x="144.1" y="8.5" class="st0" width="3.3" height="16.4"/>
	<path id="Path_9" class="st0" d="M163.8,8.5v16.4h-3.3l-6.2-9.7v9.7H151V8.5h3.3l6.2,9.8V8.5H163.8z"/>
	<path id="Path_10" class="st0" d="M171.5,15.5h6.7v1.2c0,0.9,0,1.7-0.1,2.6c0,0.8-0.2,1.6-0.5,2.4c-0.3,0.7-0.7,1.4-1.2,1.9
		c-0.6,0.6-1.4,1-2.2,1.2c-0.4,0.1-0.7,0.2-1.1,0.2c-0.4,0-0.8,0.1-1.2,0.1c-0.4,0-0.9,0-1.3-0.1c-0.4-0.1-0.7-0.1-1.1-0.2
		c-0.9-0.2-1.7-0.7-2.3-1.3c-0.5-0.6-0.9-1.3-1.2-2c-0.2-0.8-0.4-1.6-0.4-2.4c0-0.8-0.1-1.6-0.1-2.4v-0.1c0-0.9,0-1.9,0.1-2.8
		c0.1-0.6,0.2-1.2,0.3-1.8c0.1-0.4,0.3-0.8,0.5-1.2c0.2-0.3,0.4-0.6,0.6-0.8c0.3-0.3,0.6-0.6,1-0.8c0.4-0.2,0.8-0.4,1.2-0.5
		c0.4-0.1,0.8-0.2,1.2-0.3c0.4,0,0.8-0.1,1.2-0.1c0.9,0,1.7,0.1,2.6,0.4c0.8,0.2,1.6,0.7,2.2,1.3c0.1,0.1,0.2,0.3,0.3,0.4
		c0.1,0.1,0.2,0.3,0.3,0.5c0.1,0.2,0.2,0.5,0.3,0.7c0.1,0.3,0.2,0.7,0.3,1l-3.3,0.4c-0.2-0.5-0.6-0.9-1.1-1.1
		c-0.5-0.2-1.1-0.3-1.6-0.3c-0.4,0-0.8,0-1.3,0.1c-0.4,0.1-0.7,0.3-1,0.6c-0.1,0.1-0.2,0.2-0.2,0.3c-0.1,0.2-0.2,0.4-0.2,0.6
		c-0.1,0.4-0.1,0.8-0.2,1.3c0,0.5-0.1,1.3-0.1,2.2v0.1c0,0.9,0,1.7,0.1,2.2c0,0.4,0.1,0.9,0.2,1.3c0,0.2,0.1,0.4,0.2,0.6
		c0.1,0.1,0.1,0.2,0.2,0.3c0.3,0.3,0.6,0.5,1,0.6c0.4,0.1,0.8,0.1,1.3,0.1c0.4,0,0.8-0.1,1.2-0.1c0.4-0.1,0.7-0.3,1-0.5
		c0.1-0.1,0.1-0.1,0.2-0.2c0.1-0.1,0.1-0.2,0.2-0.4c0.1-0.2,0.1-0.5,0.2-0.7c0.1-0.4,0.1-0.8,0.1-1.2h-3.2L171.5,15.5z"/>
	<path id="Path_11" class="st0" d="M18.2,10.1c-3.9-2.6-9-2.6-12.9,0H18.2z"/>
	<path id="Path_12_00000024715789497694327300000016319319662655811974_" class="st0" d="M20.9,12.7c-0.5-0.7-1-1.3-1.6-1.8h-15
		c-0.6,0.5-1.2,1.1-1.6,1.8H20.9z"/>
	<path id="Path_13_00000036946094067589705200000006637534117102724764_" class="st0" d="M22.4,15.6c-0.2-0.7-0.5-1.3-0.9-1.9H2
		c-0.3,0.6-0.6,1.2-0.9,1.9H22.4z"/>
	<path id="Path_14_00000076585432035037810790000015878357271434348223_" class="st0" d="M23,18.8c0-0.7-0.1-1.3-0.2-2H0.8
		c-0.1,0.6-0.2,1.3-0.2,2H23z"/>
	<path id="Path_15_00000043440698671485824910000016593484155730610875_" class="st0" d="M22.5,21.9c0.2-0.6,0.3-1.3,0.4-1.9H0.7
		c0.1,0.6,0.2,1.3,0.4,1.9H22.5z"/>
	<path id="Path_16_00000103944711282511365070000006374751809494081930_" class="st0" d="M1.6,23.3c0.2,0.4,0.4,0.8,0.6,1.2h19.2
		c0.2-0.4,0.4-0.8,0.6-1.2H1.6z"/>
</g>
</svg>
