<?xml version="1.0" encoding="utf-8"?>
<!-- Generator: Adobe Illustrator 26.5.0, SVG Export Plug-In . SVG Version: 6.00 Build 0)  -->
<svg version="1.1" id="Stripelight-logo" xmlns="http://www.w3.org/2000/svg" xmlns:xlink="http://www.w3.org/1999/xlink" x="0px"
	 y="0px" viewBox="0 0 145.7 31.7" style="enable-background:new 0 0 145.7 31.7;" xml:space="preserve">
<style type="text/css">
	.st0{fill:#FFFFFF;}
</style>
<g>
	<polygon class="st0" points="33.5,22.4 23.1,22.4 23.1,11.4 24.9,11.4 24.9,20.8 33.5,20.8 	"/>
	<path class="st0" d="M48.1,18.8c0,1.2-0.6,2.1-1.7,2.8c-1.1,0.7-2.7,1.1-4.6,1.1c-1.9,0-3.4-0.4-4.6-1.1c-1.1-0.7-1.7-1.7-1.7-2.8
		l0-7.5l1.8,0l0,7c0,0.9,0.4,1.5,1.1,2c0.8,0.5,1.9,0.7,3.3,0.7c1.4,0,2.5-0.2,3.3-0.7c0.7-0.5,1.1-1.1,1.1-2l0-7l1.8,0L48.1,18.8z"
		/>
	<polygon class="st0" points="66.9,22.3 65.1,22.3 65,13.3 65,13.3 59.3,20.5 53.5,13.3 53.5,13.3 53.5,22.4 51.7,22.4 51.7,11.3 
		54,11.3 59.3,18 64.6,11.3 66.9,11.3 	"/>
	
		<rect x="70.6" y="11.3" transform="matrix(1 -2.295431e-03 2.295431e-03 1 -3.838324e-02 0.1641)" class="st0" width="1.8" height="11.1"/>
	<polygon class="st0" points="88.7,22.3 86.4,22.3 77.9,13.2 77.9,22.3 76.1,22.3 76.1,11.3 78.4,11.3 86.8,20.3 86.8,11.2 
		88.6,11.2 	"/>
	<path class="st0" d="M104.7,22.3l-2,0l-1.3-2.5l-7.4,0l-1.3,2.5l-2,0l5.8-11.1l2.3,0L104.7,22.3z M100.6,18.1l-2.8-5.4l-2.8,5.4
		L100.6,18.1z"/>
	
		<rect x="106.8" y="11.2" transform="matrix(1 -2.295431e-03 2.295431e-03 1 -3.809685e-02 0.2473)" class="st0" width="1.8" height="11.1"/>
	<path class="st0" d="M119.3,11.2c1.9,0,3.5,0.5,4.6,1.5c1.1,1,1.7,2.4,1.7,4.1c0,1.6-0.6,2.9-1.8,3.9c-1.1,1-2.5,1.5-4.1,1.5
		l-7.3,0l0-11.1L119.3,11.2z M119.8,20.6c1.1,0,2-0.4,2.7-1.1c0.7-0.7,1.1-1.6,1.1-2.7c0-1.2-0.4-2.1-1.1-2.9
		c-0.8-0.7-1.8-1.1-3-1.1l-5.3,0l0,7.8L119.8,20.6z"/>
	<path class="st0" d="M129.1,19c0.3,0,0.6,0.1,0.8,0.2c0.3,0.1,0.4,0.3,0.6,0.6c0.1,0.2,0.2,0.5,0.2,0.8c0,0.3-0.1,0.6-0.2,0.8
		c-0.1,0.2-0.3,0.4-0.6,0.6c-0.3,0.1-0.5,0.2-0.8,0.2c-0.3,0-0.6-0.1-0.8-0.2c-0.3-0.1-0.4-0.3-0.6-0.6c-0.1-0.2-0.2-0.5-0.2-0.8
		c0-0.3,0.1-0.6,0.2-0.8c0.1-0.2,0.3-0.4,0.6-0.6C128.5,19,128.8,19,129.1,19 M129.1,19.2c-0.4,0-0.7,0.1-1,0.4
		c-0.3,0.3-0.4,0.6-0.4,1c0,0.4,0.1,0.7,0.4,1c0.3,0.3,0.6,0.4,1,0.4c0.4,0,0.7-0.1,1-0.4c0.3-0.3,0.4-0.6,0.4-1
		c0-0.4-0.1-0.7-0.4-1C129.8,19.4,129.5,19.2,129.1,19.2 M128.7,21.5l-0.3,0l0-1.7l0.6,0c0.2,0,0.4,0,0.5,0c0.1,0,0.2,0.1,0.2,0.2
		c0.1,0.1,0.1,0.2,0.1,0.3c0,0.1,0,0.2-0.1,0.3c-0.1,0.1-0.2,0.1-0.4,0.2c0.1,0,0.1,0.1,0.2,0.1c0.1,0.1,0.1,0.2,0.2,0.3l0.2,0.3
		l-0.3,0l-0.2-0.3c-0.1-0.2-0.2-0.3-0.3-0.4c-0.1-0.1-0.2-0.1-0.3-0.1l-0.2,0L128.7,21.5z M128.7,20l0,0.5l0.3,0
		c0.1,0,0.3,0,0.3-0.1c0.1,0,0.1-0.1,0.1-0.2c0-0.1,0-0.2-0.1-0.2c-0.1,0-0.2-0.1-0.3-0.1L128.7,20z"/>
	<path class="st0" d="M13.2,23.9c0.1,0,0.1,0,0.2,0c0,0,0,0,0,0c1.5,0,3-0.4,4.3-1.2c-2.3,0.3-4.7,0-6.9-1.2c-0.5,0.5-1,0.9-1.6,1.2
		c0,0,0,0,0,0C10.4,23.5,11.8,23.8,13.2,23.9"/>
	<path class="st0" d="M17.7,22.7c0-2.9-1.6-5.8-4.3-7.4c0,1.5-0.4,2.9-1.1,4.3c-0.4,0.7-0.9,1.4-1.5,2
		C12.9,22.7,15.4,23.1,17.7,22.7C17.7,22.7,17.7,22.7,17.7,22.7"/>
	<path class="st0" d="M1.8,18.3c0,0.1-0.1,0.1-0.1,0.2c0,0,0,0,0,0c-0.8,1.3-1.1,2.8-1.1,4.3c0.9-2.2,2.4-4.1,4.5-5.4
		c-0.2-0.7-0.2-1.3-0.2-2c0,0,0,0,0,0C3.6,16.1,2.6,17.1,1.8,18.3"/>
	<path class="st0" d="M0.6,22.8c2.6,1.5,5.8,1.6,8.5,0C7.9,22,6.8,21,6,19.6c-0.4-0.7-0.7-1.5-0.9-2.3C3,18.7,1.5,20.6,0.6,22.8
		C0.6,22.7,0.6,22.7,0.6,22.8"/>
	<path class="st0" d="M12.4,11.3c0-0.1-0.1-0.1-0.1-0.2c0,0,0,0,0,0c-0.8-1.3-1.8-2.4-3.1-3.1c1.4,1.8,2.3,4.1,2.5,6.6
		c0.6,0.2,1.3,0.5,1.8,0.8l0,0C13.4,13.9,13,12.5,12.4,11.3"/>
	<path class="st0" d="M9.1,7.9c-2.6,1.5-4.3,4.2-4.3,7.4c1.3-0.7,2.7-1.1,4.3-1.1c0.9,0,1.7,0.1,2.5,0.4C11.5,12.1,10.6,9.8,9.1,7.9
		C9.1,7.9,9.1,7.9,9.1,7.9"/>
	<path class="st0" d="M12.4,11.3c0-0.1-0.1-0.1-0.1-0.2c0,0,0,0,0,0c-0.8-1.3-1.8-2.4-3.1-3.1c1.4,1.8,2.3,4.1,2.5,6.6
		c0.6,0.2,1.3,0.5,1.8,0.8l0,0C13.4,13.9,13,12.5,12.4,11.3"/>
	<path class="st0" d="M9.1,7.9c-2.6,1.5-4.3,4.2-4.3,7.4c1.3-0.7,2.7-1.1,4.3-1.1c0.9,0,1.7,0.1,2.5,0.4C11.5,12.1,10.6,9.8,9.1,7.9
		C9.1,7.9,9.1,7.9,9.1,7.9"/>
</g>
</svg>
