<?xml version="1.0" encoding="utf-8"?>
<!-- Generator: Adobe Illustrator 26.5.0, SVG Export Plug-In . SVG Version: 6.00 Build 0)  -->
<svg version="1.1" id="Stripelight-logo" xmlns="http://www.w3.org/2000/svg" xmlns:xlink="http://www.w3.org/1999/xlink" x="0px"
	 y="0px" viewBox="0 0 179.2 31.7" style="enable-background:new 0 0 179.2 31.7;" xml:space="preserve">
<style type="text/css">
	.st0{enable-background:new    ;}
	.st1{fill:#FFFFFF;}
	.st2{fill-rule:evenodd;clip-rule:evenodd;fill:#FFFFFF;}
</style>
<g>
	<g id="Group_1246" transform="translate(229.508 397.666)">
		<g class="st0">
			<path class="st1" d="M-186.6-375v-10.2h2.6v1.2c0.6-1,1.9-1.5,3-1.5c1.4,0,2.5,0.6,3,1.7c0.8-1.2,1.9-1.7,3.2-1.7
				c1.9,0,3.7,1.1,3.7,3.9v6.6h-2.7v-6.1c0-1.1-0.5-1.9-1.8-1.9c-1.2,0-1.9,0.9-1.9,2v6h-2.7v-6.1c0-1.1-0.6-1.9-1.8-1.9
				c-1.2,0-1.9,0.9-1.9,2v6H-186.6z"/>
			<path class="st1" d="M-166.9-390.3c1,0,1.7,0.8,1.7,1.7c0,0.9-0.7,1.7-1.7,1.7c-0.9,0-1.7-0.8-1.7-1.7
				C-168.6-389.5-167.8-390.3-166.9-390.3z M-168.2-375v-10.2h2.8v10.2H-168.2z"/>
			<path class="st1" d="M-152.8-376.8c0,0.7,0,1.4,0.1,1.8h-2.6c0-0.2-0.1-0.7-0.1-1.2c-0.5,0.8-1.5,1.4-2.9,1.4c-2.9,0-5-2.3-5-5.4
				c0-3,2-5.3,4.9-5.3c1.8,0,2.6,0.7,2.9,1.3v-5.8h2.7V-376.8z M-158-377.2c1.4,0,2.5-1.1,2.5-2.9c0-1.8-1.1-2.8-2.5-2.8
				s-2.5,1-2.5,2.9C-160.5-378.3-159.4-377.2-158-377.2z"/>
			<path class="st1" d="M-141.1-385.2l2.2,6.6l1.9-6.6h2.7l-3.2,10.2h-2.8l-2.4-7l-2.3,7h-2.8l-3.3-10.2h2.9l1.9,6.6l2.2-6.6H-141.1
				z"/>
			<path class="st1" d="M-130.2-380.9l2.5-0.4c0.6-0.1,0.8-0.4,0.8-0.7c0-0.7-0.6-1.3-1.7-1.3c-1.2,0-1.9,0.8-2,1.7l-2.5-0.5
				c0.2-1.6,1.6-3.4,4.4-3.4c3.2,0,4.4,1.8,4.4,3.9v5c0,0.5,0.1,1.3,0.1,1.6h-2.5c-0.1-0.3-0.1-0.8-0.1-1.2c-0.5,0.8-1.5,1.5-3,1.5
				c-2.2,0-3.5-1.5-3.5-3.1C-133.2-379.6-131.9-380.6-130.2-380.9z M-126.9-379.1v-0.5l-2.3,0.4c-0.7,0.1-1.3,0.5-1.3,1.3
				c0,0.6,0.4,1.2,1.3,1.2C-127.9-376.8-126.9-377.3-126.9-379.1z"/>
			<path class="st1" d="M-119.9-378.4c0.1,0.8,0.7,1.6,1.9,1.6c0.9,0,1.3-0.5,1.3-1c0-0.5-0.3-0.8-1.1-1l-1.3-0.3
				c-2-0.4-2.9-1.6-2.9-3.1c0-1.8,1.6-3.3,3.8-3.3c2.9,0,3.9,1.8,4,2.9l-2.3,0.5c-0.1-0.6-0.5-1.4-1.7-1.4c-0.7,0-1.3,0.4-1.3,1
				c0,0.5,0.4,0.8,0.9,0.9l1.5,0.3c2,0.4,3,1.6,3,3.1c0,1.7-1.3,3.4-4,3.4c-3.1,0-4.1-2-4.3-3.2L-119.9-378.4z"/>
			<path class="st1" d="M-108.4-385.2h2.1v2.5h-2.1v4.3c0,0.9,0.4,1.2,1.2,1.2c0.3,0,0.7,0,0.9-0.1v2.3c-0.2,0.1-0.7,0.2-1.6,0.2
				c-2,0-3.2-1.2-3.2-3.2v-4.8h-1.8v-2.5h0.5c1.1,0,1.6-0.7,1.6-1.6v-1.4h2.5V-385.2z"/>
			<path class="st1" d="M-95-377.9c-0.5,1.8-2.1,3.2-4.7,3.2c-2.8,0-5.3-2-5.3-5.5c0-3.3,2.4-5.4,5-5.4c3.2,0,5,2,5,5.3
				c0,0.4,0,0.8,0,0.9h-7.3c0.1,1.3,1.2,2.3,2.6,2.3c1.3,0,2-0.6,2.3-1.6L-95-377.9z M-97.5-381.3c0-1-0.7-2-2.3-2
				c-1.4,0-2.2,1.1-2.3,2H-97.5z"/>
		</g>
	</g>
	<path id="Path_18" class="st2" d="M35.6,19.9c-0.6,2.7-2.5,5.4-4.5,7.2c-6.2,5.5-15.7,5.7-21.6-0.4c-4.9-5.3-5-13.4,0.5-18.3
		c4.6-3.7,11.2-3.8,15.3,0.7c3.3,3.9,3.1,9.8-1.4,12.7c-3.5,2.2-8.6,1.3-10-2.9c-0.8-2.5,0.6-5.7,3.6-5.8c0.8,0,1.7,0.4,2.1,1
		c-1.4-3.4-8.8-1.2-7.9,4.7c0.8,4.3,4.9,6.7,9.4,6.5c6.5-0.6,10.5-6,10.1-11.8C30.5,6.7,24.3,1.9,17.1,1.5C9.6,1.4,3.4,5.7,0.6,12
		c0,0-0.4,1-0.3,0.5C0.9,9.8,3,7,5.2,5.1c6.7-5.7,17-5.8,23.4,0.4C33.9,11,34,19.3,28,24.4c-4.9,3.9-12.2,3.9-16.6-0.7
		c-3.6-4-3.3-10.2,1.5-13.2c3.8-2.2,9.3-1.3,10.8,3c1.3,3.9-2.7,7.3-5.6,5.4c2.3,2.3,7.5,0,6.9-5.2c-0.7-4-4.3-6.3-8.2-6.3
		c-0.2,0-0.3,0-0.5,0C10.4,8,6.7,13.2,7,18.9c0.7,6.7,6.3,11.3,13,11.7c6.9,0.2,12.6-4,15.2-10.1C35.3,20.4,35.7,19.5,35.6,19.9z"/>
</g>
</svg>
