<?xml version="1.0" encoding="utf-8"?>
<!-- Generator: Adobe Illustrator 26.5.0, SVG Export Plug-In . SVG Version: 6.00 Build 0)  -->
<svg version="1.1" id="Stripelight-logo" xmlns="http://www.w3.org/2000/svg" xmlns:xlink="http://www.w3.org/1999/xlink" x="0px"
	 y="0px" viewBox="0 0 145.7 31.7" style="enable-background:new 0 0 145.7 31.7;" xml:space="preserve">
<style type="text/css">
	.st0{fill:#FFFFFF;}
	.st1{fill:#00C49A;}
</style>
<g id="Group_1251" transform="translate(-241 -494.831)">
	<g id="Group_195" transform="translate(28.281 237.844)">
		<path id="Path_134" class="st0" d="M213.1,282.2v-16.7h6.4l7.8,9.9v-9.9h5.8v16.7h-6.6l-7.6-9.6v9.6H213.1z"/>
		<path id="Path_135" class="st0" d="M234.1,282.2l7.7-8.7l-6.9-8h7.3l3.2,4l3.2-4h7.3l-6.9,8l7.7,8.7h-7.4l-3.8-4.6l-3.8,4.6H234.1
			z"/>
		<path id="Path_136" class="st0" d="M261.6,282.2V270h-4.7v-4.5h15.3v4.5h-4.7v12.2H261.6z"/>
		<path id="Path_137" class="st0" d="M290.8,275.4c0.3,0.6,0.4,1.2,0.4,1.9c0,0.7-0.1,1.3-0.4,1.9c-0.5,1-1.3,1.8-2.4,2.2
			c-1.1,0.5-2.5,0.8-4.2,0.8h-10.4v-16.7h10.8c2.8,0,4.6,0.8,5.3,2.3c0.2,0.5,0.4,1.1,0.4,1.7c0,0.5-0.1,1.1-0.3,1.6
			c-0.4,0.9-1.2,1.5-2.5,1.9C289.1,273.5,290.2,274.2,290.8,275.4z M279.8,269v3.1h2.2c1.2,0,2-0.3,2.2-0.9c0.1-0.2,0.1-0.4,0.1-0.7
			c0-0.2,0-0.5-0.1-0.7c-0.3-0.6-1-0.9-2.2-0.9h-2.2V269z M284.8,277.9c0.2-0.5,0.2-1,0-1.5c-0.2-0.6-1-0.8-2.3-0.8h-2.7v3.3h2.8
			C283.8,278.8,284.5,278.5,284.8,277.9z"/>
		<path id="Path_138" class="st0" d="M302.4,282.8c-6.5,0-9.8-2.8-9.8-8.4v-8.9h5.9v8.5c0,1.4,0.3,2.4,0.9,3s1.6,1,2.9,1
			s2.3-0.3,2.9-1c0.6-0.6,0.9-1.7,0.9-3v-8.5h5.9v8.9C312.1,280,308.8,282.8,302.4,282.8z"/>
		<path id="Path_139" class="st0" d="M319.9,282.2v-7.4l-7.3-9.2h6.8l3.5,4.5l3.5-4.5h6.8l-7.3,9.2v7.4H319.9z"/>
		<path id="Path_140" class="st0" d="M234.9,265.6l6.9,8l-7.7,8.7h7.5l3.8-4.6l0,0l3.3-3.9l-6.4-8.2H234.9z"/>
		<path id="Path_141" class="st1" d="M304.8,260.2h-5.7c-2.1,0-3.8,1-3.8,3.1v0.7h1.9v-0.7c0-1,0.8-1.1,1.9-1.1h5.7
			c1,0,1.9,0.1,1.9,1.1v0.7h1.9v-0.7C308.6,261.1,306.9,260.2,304.8,260.2z"/>
		<g id="Group_194">
			<path id="Path_142" class="st0" d="M332.2,278.2c0.3,0.2,0.5,0.4,0.7,0.7c0.1,0.3,0.2,0.7,0.2,1.1s-0.1,0.7-0.2,1.1
				c-0.1,0.3-0.4,0.6-0.7,0.7c-0.7,0.4-1.5,0.4-2.2,0c-0.3-0.2-0.5-0.4-0.7-0.7c-0.2-0.3-0.2-0.7-0.2-1c0-0.4,0.1-0.7,0.2-1.1
				c0.1-0.3,0.4-0.6,0.7-0.7C330.6,277.8,331.5,277.8,332.2,278.2L332.2,278.2z M332,281.6c0.2-0.1,0.4-0.4,0.6-0.6
				c0.1-0.3,0.2-0.6,0.2-0.9c0-0.5-0.1-0.9-0.4-1.3c-0.3-0.3-0.8-0.5-1.3-0.5c-0.3,0-0.7,0.1-1,0.2c-0.2,0.2-0.4,0.4-0.6,0.6
				c-0.1,0.3-0.2,0.6-0.2,0.9s0.1,0.6,0.2,0.9s0.3,0.5,0.6,0.6c0.3,0.2,0.6,0.2,1,0.2C331.4,281.8,331.7,281.7,332,281.6z
				 M331.9,279.8c-0.1,0.1-0.2,0.2-0.3,0.2c0.1,0,0.2,0.1,0.2,0.2c0.1,0.1,0.1,0.2,0.1,0.3v0.6h-0.3v-0.5c0-0.1,0-0.2-0.1-0.3
				c-0.1-0.1-0.2-0.1-0.4-0.1h-0.5v0.9h-0.3v-2.3h0.9c0.2,0,0.4,0,0.6,0.2c0.1,0.1,0.2,0.3,0.2,0.5
				C332,279.6,331.9,279.7,331.9,279.8L331.9,279.8z M331.5,279.8c0.1-0.1,0.1-0.2,0.1-0.3c0-0.1,0-0.2-0.1-0.3
				c-0.1-0.1-0.3-0.1-0.4-0.1h-0.5v0.8h0.5C331.2,279.9,331.3,279.8,331.5,279.8L331.5,279.8z"/>
		</g>
	</g>
</g>
</svg>
