<?xml version="1.0" encoding="utf-8"?>
<!-- Generator: Adobe Illustrator 26.5.0, SVG Export Plug-In . SVG Version: 6.00 Build 0)  -->
<svg version="1.1" id="Stripelight-logo" xmlns="http://www.w3.org/2000/svg" xmlns:xlink="http://www.w3.org/1999/xlink" x="0px"
	 y="0px" viewBox="0 0 145.7 31.7" style="enable-background:new 0 0 145.7 31.7;" xml:space="preserve">
<style type="text/css">
	.st0{fill:#FFFFFF;}
</style>
<g>
	<path id="Path_17" class="st0" d="M26.8,2.5c0-0.1,0-0.1,0-0.2c0-0.1-0.1-0.2-0.1-0.3c0-0.1,0-0.1-0.1-0.2c0-0.1-0.1-0.2-0.2-0.3
		c0,0,0,0,0,0C26.3,1.3,26,1,25.7,0.8c0,0,0,0,0,0c-0.1-0.1-0.2-0.1-0.3-0.2c-0.1,0-0.1,0-0.2-0.1c-0.1,0-0.2-0.1-0.3-0.1
		c0,0-0.1,0-0.2,0c-0.1,0-0.3,0-0.4,0H16c-0.2,0-0.4,0.2-0.4,0.4v7.8c0,0.2,0.2,0.4,0.4,0.4h4.8v4.4H16c-0.2,0-0.4,0.2-0.4,0.4v0.9
		l-2.2-4.3c-0.1-0.2-0.3-0.3-0.5-0.2c0,0,0,0,0,0l-4.3,2.2L5.2,5.7C5.1,5.5,4.9,5.4,4.7,5.5L1.9,6.9C1.8,7,1.7,7.1,1.5,7.1
		c0,0-0.1,0.1-0.1,0.1C1.4,7.3,1.3,7.4,1.2,7.4c0,0-0.1,0.1-0.1,0.1C0.7,8,0.5,8.7,0.5,9.3c0,0.1,0,0.1,0,0.2c0,0.1,0,0.2,0,0.3
		c0,0,0,0.1,0,0.1c0,0.1,0.1,0.3,0.2,0.4l9.8,19.6c0.1,0.1,0.1,0.2,0.2,0.3c0,0,0,0,0,0c0.1,0.1,0.1,0.2,0.2,0.2c0,0,0,0,0,0
		c0.2,0.2,0.3,0.3,0.5,0.4c0.3,0.2,0.6,0.3,1,0.3c0.1,0,0.2,0,0.3,0c0.4,0,0.8-0.1,1.1-0.3l7.4-3.7h3c0.1,0,0.3,0,0.4,0
		c0.1,0,0.1,0,0.2,0c0.1,0,0.2,0,0.3-0.1c0.1,0,0.1,0,0.2-0.1c0.1-0.1,0.2-0.1,0.3-0.2l0,0c0.4-0.3,0.7-0.6,0.9-1.1
		c0-0.1,0-0.1,0.1-0.2c0-0.1,0.1-0.2,0.1-0.3c0,0,0-0.1,0-0.2c0-0.1,0-0.3,0-0.4V2.9C26.9,2.8,26.8,2.6,26.8,2.5z M16.4,2.8h4.8
		c0.4,0,0.7,0.3,0.7,0.7s-0.3,0.7-0.7,0.7l0,0h-4.8V2.8z M15.6,15.6v3.5c0,0.2,0.2,0.4,0.4,0.4h4.8v5.7l-2.7-5.5
		c-0.1-0.2-0.3-0.3-0.5-0.2c0,0,0,0,0,0l-4.3,2.2l-2-4L15.6,15.6C15.6,15.6,15.6,15.6,15.6,15.6L15.6,15.6z M5.5,8l0.4,0.9
		c-0.2,0-0.4-0.2-0.4-0.3C5.4,8.3,5.4,8.1,5.5,8z M10.7,26.4l-7-14l3.1-1.6L8,13.1c0.1,0.2,0.3,0.3,0.5,0.2c0,0,0,0,0,0l4.3-2.1
		l2,3.9l-4.3,2.2c-0.1,0-0.2,0.1-0.2,0.2c0,0.1,0,0.2,0,0.3l2.3,4.7c0.1,0.2,0.3,0.3,0.5,0.2l4.3-2.2l1,2L10.7,26.4z M18.3,26.9
		c-0.6,0.3-1.4,0.1-1.8-0.6s-0.1-1.4,0.6-1.8c0.6-0.3,1.4-0.1,1.8,0.6c0,0,0,0,0,0C19.2,25.8,18.9,26.6,18.3,26.9z M25.1,21.7h-3.5
		v-2.6c0-0.2-0.2-0.4-0.4-0.4h-4.8v-4.4h4.8c0.2,0,0.4-0.2,0.4-0.4V8.6c0-0.2-0.2-0.4-0.4-0.4h-4.8V6h8.7V21.7z"/>
	<g id="Group_1247" transform="translate(137.57 27.479)">
		<g id="Group_1246">
			<g id="Group_1245">
				<path id="Path_18" class="st0" d="M-103.6-17.9v-2.5h10.9v2.5h-4V-7h-2.9v-10.9H-103.6z"/>
				<path id="Path_19" class="st0" d="M-93.3-14c0.4-1.2,1.4-2.2,2.6-2.6c0.7-0.3,1.4-0.4,2.1-0.4c0.7,0,1.4,0.1,2.1,0.4
					c1.2,0.5,2.2,1.4,2.6,2.6c0.2,0.7,0.4,1.4,0.4,2.1c0,0.7-0.1,1.4-0.4,2.1c-0.2,0.6-0.6,1.1-1,1.6c-0.4,0.5-1,0.8-1.6,1
					c-0.7,0.2-1.4,0.4-2.1,0.4c-0.7,0-1.4-0.1-2.1-0.4c-0.6-0.2-1.1-0.6-1.6-1c-0.4-0.5-0.8-1-1-1.6c-0.2-0.7-0.4-1.4-0.4-2.1
					C-93.7-12.6-93.6-13.3-93.3-14z M-90.9-10.7c0.1,0.4,0.2,0.7,0.4,1c0.2,0.3,0.4,0.5,0.7,0.7c0.3,0.2,0.7,0.3,1.1,0.3
					c0.4,0,0.8-0.1,1.1-0.3c0.3-0.2,0.6-0.4,0.7-0.7c0.2-0.3,0.3-0.6,0.4-1c0.1-0.4,0.1-0.8,0.1-1.1c0-0.4,0-0.8-0.1-1.1
					c-0.1-0.4-0.2-0.7-0.4-1c-0.2-0.3-0.4-0.5-0.7-0.7c-0.3-0.2-0.7-0.3-1.1-0.3c-0.4,0-0.8,0.1-1.1,0.3c-0.3,0.2-0.5,0.4-0.7,0.7
					c-0.2,0.3-0.3,0.6-0.4,1c-0.1,0.4-0.1,0.8-0.1,1.1C-91-11.5-91-11.1-90.9-10.7z"/>
				<path id="Path_20" class="st0" d="M-75.2-7v-1.3h-0.1c-0.3,0.5-0.8,1-1.3,1.2c-0.5,0.2-1.1,0.4-1.6,0.4c-0.6,0-1.2-0.1-1.8-0.3
					c-0.4-0.2-0.8-0.4-1.1-0.8c-0.3-0.4-0.5-0.8-0.6-1.3c-0.1-0.5-0.2-1.1-0.2-1.6v-6h2.7v5.5c0,0.8,0.1,1.4,0.4,1.8
					c0.3,0.4,0.7,0.6,1.3,0.6c0.7,0,1.2-0.2,1.6-0.6c0.3-0.4,0.5-1.1,0.5-2.1v-5.1h2.7V-7H-75.2z"/>
				<path id="Path_21" class="st0" d="M-65.9-15c-0.4,0-0.7,0.1-1.1,0.3c-0.3,0.2-0.5,0.5-0.7,0.7c-0.2,0.3-0.3,0.7-0.4,1
					c-0.1,0.4-0.1,0.7-0.1,1.1c0,0.4,0,0.7,0.1,1.1c0.1,0.3,0.2,0.7,0.4,1c0.2,0.3,0.4,0.5,0.7,0.7c0.3,0.2,0.7,0.3,1,0.3
					c0.5,0,1.1-0.2,1.5-0.5c0.4-0.4,0.6-0.9,0.6-1.4h2.6c-0.2,1.3-0.7,2.3-1.5,2.9c-0.8,0.7-1.9,1-3.2,1c-0.7,0-1.4-0.1-2-0.4
					c-0.6-0.2-1.1-0.6-1.5-1c-0.4-0.4-0.8-1-1-1.6c-0.2-0.6-0.4-1.3-0.4-2c0-0.7,0.1-1.4,0.3-2.1c0.2-0.6,0.5-1.2,1-1.7
					c0.4-0.5,1-0.8,1.6-1.1c0.7-0.3,1.4-0.4,2.1-0.4c0.6,0,1.1,0.1,1.7,0.2c0.5,0.1,1,0.4,1.4,0.7c0.9,0.6,1.4,1.7,1.5,2.8H-64
					C-64.1-14.4-64.8-15-65.9-15z"/>
				<path id="Path_22" class="st0" d="M-57-20.4v5h0.1c0.3-0.5,0.8-1,1.3-1.2c0.5-0.2,1-0.4,1.5-0.4c0.6,0,1.2,0.1,1.7,0.3
					c0.4,0.2,0.8,0.4,1.1,0.8c0.3,0.4,0.5,0.8,0.5,1.3c0.1,0.5,0.2,1.1,0.2,1.6v6h-2.7v-5.5c0-0.8-0.1-1.4-0.4-1.8
					c-0.2-0.4-0.7-0.6-1.3-0.6c-0.7,0-1.2,0.2-1.6,0.6c-0.3,0.4-0.5,1.1-0.5,2.1V-7h-2.7v-13.4H-57z"/>
				<path id="Path_23" class="st0" d="M-38.8-20.4v2.5h-6.5v3.1h5.6v2.3h-5.6V-7h-2.9v-13.4H-38.8z"/>
				<path id="Path_24" class="st0" d="M-37.1-18.2v-2.2h2.7v2.2H-37.1z M-34.5-16.7V-7h-2.7v-9.7L-34.5-16.7z"/>
				<path id="Path_25" class="st0" d="M-33-16.7h3l1.7,2.5l1.7-2.5h2.9l-3.2,4.5l3.6,5.1h-3l-2-3l-2,3h-3l3.5-5.1L-33-16.7z"/>
			</g>
		</g>
	</g>
</g>
</svg>
