<?xml version="1.0" encoding="utf-8"?>
<!-- Generator: Adobe Illustrator 26.5.0, SVG Export Plug-In . SVG Version: 6.00 Build 0)  -->
<svg version="1.1" id="Stripelight-logo" xmlns="http://www.w3.org/2000/svg" xmlns:xlink="http://www.w3.org/1999/xlink" x="0px"
	 y="0px" viewBox="0 0 145.7 31.7" style="enable-background:new 0 0 145.7 31.7;" xml:space="preserve">
<style type="text/css">
	.st0{fill:#FFFFFF;}
</style>
<g>
	<path class="st0" d="M12.4,30.4C9.8,30.4,6,25.3,1.2,15c-0.4-0.9-0.4-1.9-0.1-2.8c0.4-0.9,1.1-1.6,2.1-1.9l0.3-0.1
		c1.7-0.6,3.5,0.2,4.2,1.8c2.9,6.4,5.7,11.3,8,14c2.2-2.8,5-7.6,7.9-13.8c0.7-1.5,2.4-2.3,4-1.8c0.9,0.3,1.7,0.9,2.1,1.8
		c0.4,0.9,0.4,1.9,0.1,2.8c-4.2,10.1-7.9,15.2-10.9,15.2c-1,0-2.1-0.6-3.2-1.6C14.2,30,13.2,30.4,12.4,30.4z M4.5,11.9
		c-0.2,0-0.3,0-0.5,0.1h0L3.7,12c-0.5,0.1-0.8,0.5-1,0.9c-0.2,0.4-0.2,0.9,0,1.3c4.7,9.9,8.2,14.4,9.6,14.4c0.6,0,1.2-0.4,2.1-1.2
		c-3-3.4-6-9.4-8.4-14.6C5.8,12.2,5.2,11.9,4.5,11.9z M16.8,27.4c0.8,0.7,1.4,1.1,2,1.1c2,0,5.7-5.5,9.3-14.1c0.2-0.4,0.2-0.9,0-1.3
		c-0.2-0.4-0.6-0.7-1-0.9c-0.8-0.2-1.6,0.1-1.9,0.9C21.6,20.5,18.9,24.9,16.8,27.4z"/>
	<g>
		<path class="st0" d="M43.6,16.5c0.4,0,0.7,0.1,1,0.3c0.3,0.2,0.4,0.5,0.4,0.9c0,0.2-0.1,0.5-0.2,0.9c-0.1,0.4-0.3,0.9-0.4,1.5
			c-0.2,0.6-0.4,1.2-0.6,1.8c-0.2,0.6-0.5,1.3-0.7,1.9c-0.3,0.6-0.5,1.2-0.8,1.8c-0.3,0.6-0.5,1-0.7,1.4c-0.1,0.1-0.4,0.2-0.7,0.3
			c-0.3,0.1-0.6,0.1-1,0.1c-0.4,0-0.8-0.1-1.1-0.2c-0.3-0.1-0.5-0.3-0.7-0.5c-0.1-0.3-0.3-0.6-0.5-1c-0.2-0.4-0.4-0.9-0.6-1.5
			c-0.2-0.6-0.4-1.2-0.7-1.8c-0.2-0.6-0.5-1.2-0.7-1.9c-0.2-0.6-0.4-1.2-0.6-1.8c-0.2-0.6-0.3-1.1-0.5-1.5c0.1-0.2,0.4-0.3,0.6-0.5
			c0.3-0.1,0.6-0.2,0.9-0.2c0.4,0,0.7,0.1,0.9,0.3c0.2,0.2,0.4,0.5,0.6,0.9l1.1,3.6c0.1,0.3,0.2,0.6,0.3,0.9c0.1,0.3,0.2,0.7,0.3,1
			c0.1,0.3,0.2,0.6,0.3,0.9c0.1,0.3,0.2,0.5,0.2,0.7H40c0.4-1.3,0.8-2.6,1.3-4c0.4-1.4,0.8-2.7,1.1-4.1c0.2-0.1,0.4-0.2,0.6-0.2
			C43.2,16.5,43.4,16.5,43.6,16.5z"/>
		<path class="st0" d="M49.7,27.1c-0.1,0-0.3,0.1-0.5,0.1c-0.2,0-0.5,0.1-0.8,0.1c-0.5,0-0.9-0.1-1.1-0.3c-0.3-0.2-0.4-0.5-0.4-1v-7
			c0-0.4,0.1-0.7,0.3-1c0.2-0.3,0.4-0.5,0.8-0.7c0.5-0.3,1-0.5,1.7-0.7c0.7-0.2,1.4-0.3,2.2-0.3c1.4,0,2.1,0.4,2.1,1.3
			c0,0.2,0,0.4-0.1,0.6c-0.1,0.2-0.1,0.3-0.2,0.5c-0.3-0.1-0.8-0.1-1.3-0.1c-0.5,0-1,0.1-1.5,0.2c-0.5,0.1-0.8,0.3-1.2,0.4V27.1z"/>
		<path class="st0" d="M65.6,21.9c0,0.9-0.1,1.6-0.4,2.3c-0.3,0.7-0.6,1.3-1.1,1.8c-0.5,0.5-1,0.9-1.7,1.1c-0.7,0.3-1.4,0.4-2.2,0.4
			c-0.8,0-1.6-0.1-2.2-0.4c-0.7-0.3-1.2-0.6-1.7-1.1c-0.5-0.5-0.8-1.1-1.1-1.7c-0.3-0.7-0.4-1.5-0.4-2.3c0-0.9,0.1-1.6,0.4-2.3
			c0.3-0.7,0.6-1.3,1.1-1.7c0.5-0.5,1-0.8,1.7-1.1c0.7-0.3,1.4-0.4,2.2-0.4c0.8,0,1.5,0.1,2.2,0.4c0.7,0.3,1.2,0.6,1.7,1.1
			c0.5,0.5,0.8,1.1,1.1,1.8C65.5,20.3,65.6,21.1,65.6,21.9z M60.2,18.6c-0.8,0-1.4,0.3-1.9,0.9c-0.5,0.6-0.7,1.4-0.7,2.5
			c0,1.1,0.2,1.9,0.7,2.5c0.4,0.6,1.1,0.9,1.9,0.9c0.8,0,1.4-0.3,1.9-0.9c0.4-0.6,0.7-1.4,0.7-2.5c0-1.1-0.2-1.9-0.7-2.5
			C61.6,18.9,61,18.6,60.2,18.6z"/>
		<path class="st0" d="M71.1,24.9c0.3,0.2,0.7,0.3,1.2,0.3c0.3,0,0.5,0,0.8-0.1c0.3-0.1,0.5-0.1,0.7-0.2c0.1,0.1,0.2,0.3,0.3,0.4
			c0.1,0.2,0.1,0.4,0.1,0.6c0,0.4-0.2,0.8-0.6,1.1c-0.4,0.3-1,0.4-1.9,0.4c-1.2,0-2.1-0.3-2.7-0.8c-0.7-0.5-1-1.4-1-2.6V13.9
			c0.1,0,0.3-0.1,0.5-0.1c0.2,0,0.5-0.1,0.7-0.1c0.5,0,0.9,0.1,1.1,0.3c0.2,0.2,0.4,0.5,0.4,1v1.8H74c0.1,0.1,0.1,0.3,0.2,0.5
			c0.1,0.2,0.1,0.4,0.1,0.6c0,0.4-0.1,0.7-0.3,0.8s-0.4,0.3-0.7,0.3h-2.6v4.8C70.7,24.4,70.9,24.7,71.1,24.9z"/>
		<path class="st0" d="M78.5,23.2c0.2,0.8,0.6,1.3,1.1,1.6c0.6,0.3,1.3,0.5,2.1,0.5c0.6,0,1.2-0.1,1.7-0.3c0.5-0.2,0.9-0.4,1.3-0.6
			c0.2,0.1,0.4,0.3,0.5,0.5c0.1,0.2,0.2,0.4,0.2,0.7c0,0.3-0.1,0.6-0.3,0.8c-0.2,0.2-0.5,0.4-0.8,0.6c-0.3,0.2-0.8,0.3-1.2,0.4
			c-0.5,0.1-1,0.1-1.5,0.1c-0.9,0-1.7-0.1-2.4-0.4c-0.7-0.2-1.3-0.6-1.8-1.1c-0.5-0.5-0.9-1.1-1.2-1.8c-0.3-0.7-0.4-1.5-0.4-2.5
			c0-0.9,0.1-1.7,0.4-2.4c0.3-0.7,0.7-1.2,1.1-1.7c0.5-0.5,1-0.8,1.7-1c0.6-0.2,1.3-0.3,2-0.3c0.7,0,1.4,0.1,2,0.3
			c0.6,0.2,1.1,0.5,1.5,0.9c0.4,0.4,0.8,0.9,1,1.5c0.2,0.6,0.4,1.2,0.4,1.8c0,0.4-0.1,0.7-0.3,0.9c-0.2,0.2-0.5,0.3-0.9,0.4
			L78.5,23.2z M80.9,18.5c-0.7,0-1.3,0.2-1.8,0.7c-0.5,0.5-0.8,1.2-0.8,2l4.9-0.7c-0.1-0.5-0.3-1-0.6-1.4
			C82.2,18.7,81.7,18.5,80.9,18.5z"/>
		<path class="st0" d="M93.4,18.6c-0.4,0-0.9,0.1-1.2,0.2c-0.4,0.1-0.7,0.4-1,0.6c-0.3,0.3-0.5,0.6-0.7,1c-0.2,0.4-0.2,0.9-0.2,1.4
			c0,1.1,0.3,1.9,0.9,2.5c0.6,0.6,1.3,0.8,2.2,0.8c0.5,0,1-0.1,1.3-0.2c0.4-0.1,0.7-0.3,1-0.5c0.2,0.1,0.4,0.3,0.5,0.5
			c0.1,0.2,0.2,0.4,0.2,0.7c0,0.5-0.3,0.9-0.9,1.2c-0.6,0.3-1.4,0.5-2.4,0.5c-0.8,0-1.6-0.1-2.3-0.3c-0.7-0.2-1.3-0.6-1.8-1
			c-0.5-0.5-0.9-1-1.2-1.7c-0.3-0.7-0.4-1.5-0.4-2.4c0-0.9,0.1-1.7,0.4-2.4c0.3-0.7,0.7-1.3,1.2-1.7c0.5-0.5,1.1-0.8,1.8-1
			c0.7-0.2,1.4-0.3,2.2-0.3c1,0,1.8,0.2,2.4,0.5c0.6,0.3,0.9,0.8,0.9,1.3c0,0.2-0.1,0.4-0.2,0.6c-0.1,0.2-0.3,0.3-0.4,0.5
			c-0.3-0.2-0.6-0.3-1-0.5C94.4,18.7,93.9,18.6,93.4,18.6z"/>
		<path class="st0" d="M101,27.2c-0.2,0-0.5,0.1-0.8,0.1c-0.5,0-0.9-0.1-1.1-0.3c-0.3-0.2-0.4-0.5-0.4-1V12.8c0.1,0,0.3-0.1,0.5-0.1
			c0.2,0,0.5-0.1,0.8-0.1c0.5,0,0.9,0.1,1.1,0.3c0.3,0.2,0.4,0.5,0.4,1v3c0.3-0.2,0.7-0.3,1.1-0.4c0.4-0.1,0.9-0.2,1.4-0.2
			c1.3,0,2.4,0.3,3.2,1c0.8,0.7,1.2,1.7,1.2,3.1v6.6c-0.1,0-0.3,0.1-0.5,0.1c-0.2,0-0.5,0.1-0.7,0.1c-0.5,0-0.9-0.1-1.2-0.3
			c-0.3-0.2-0.4-0.5-0.4-1v-5.3c0-0.7-0.2-1.3-0.6-1.6c-0.4-0.3-0.9-0.5-1.5-0.5c-0.4,0-0.8,0.1-1.1,0.2c-0.3,0.1-0.6,0.3-0.9,0.5
			v7.9C101.4,27.2,101.2,27.2,101,27.2z"/>
	</g>
</g>
</svg>
