<?xml version="1.0" encoding="utf-8"?>
<!-- Generator: Adobe Illustrator 26.5.0, SVG Export Plug-In . SVG Version: 6.00 Build 0)  -->
<svg version="1.1" id="Stripelight-logo" xmlns="http://www.w3.org/2000/svg" xmlns:xlink="http://www.w3.org/1999/xlink" x="0px"
	 y="0px" viewBox="0 0 145.7 31.7" style="enable-background:new 0 0 145.7 31.7;" xml:space="preserve">
<style type="text/css">
	.st0{fill:#FFFFFF;}
</style>
<g id="Group_823" transform="translate(0 0)">
	<g id="Group_592" transform="translate(0 0)">
		<path id="Path_5" class="st0" d="M22.2,21.4v3.7H6.1l0,0H1.3l0,0l2.9-3.7l5.1-6.6l2.4-3.1L14.5,8H1.3V4.3h20.8L19.2,8L14,14.8
			l-2.4,3.1l-2.8,3.6L22.2,21.4L22.2,21.4z"/>
		<path id="Path_6" class="st0" d="M45.9,4.3v10.4c0,5.8-4.7,10.4-10.4,10.4c-5.8,0-10.4-4.7-10.4-10.4V4.3h3.7v10.4
			c0,3.7,3,6.7,6.7,6.7s6.7-3,6.7-6.7V4.3H45.9z"/>
		<path id="Path_7" class="st0" d="M69.8,4.3v20.9h-3.7V11.9l-3.7,2.9l-3.1,2.4l-3.1-2.4L52.7,12v13.3h-3.7v-21l3.7,2.9l6.7,5.1
			l6.7-5.1L69.8,4.3z"/>
		<path id="Path_8" class="st0" d="M72.8,25.2V4.3l3.7,2.5v18.3L72.8,25.2z"/>
	</g>
	<g id="Group_593" transform="translate(313.375 13.162)">
		<path id="Path_9" class="st0" d="M-232.6-4.6V-4h-0.2v-1.5h0.4c0.1,0,0.3,0,0.4,0.1c0.1,0.1,0.1,0.2,0.1,0.4
			c0,0.2-0.1,0.4-0.3,0.4l0.4,0.6h-0.3l-0.4-0.6L-232.6-4.6L-232.6-4.6z M-232.6-4.8h0.1c0.1,0,0.1,0,0.2-0.1
			c0.1-0.1,0.1-0.1,0.1-0.2c0-0.1,0-0.1-0.1-0.2c-0.1-0.1-0.1-0.1-0.2-0.1h-0.1L-232.6-4.8z"/>
	</g>
	<path id="Path_10" class="st0" d="M81,10.3c-1,0-1.8-0.8-1.8-1.8S80,6.7,81,6.7s1.8,0.8,1.8,1.8l0,0C82.8,9.4,82,10.3,81,10.3z
		 M81,6.9c-0.9,0-1.6,0.7-1.6,1.6c0,0.9,0.7,1.6,1.6,1.6s1.6-0.7,1.6-1.6l0,0C82.5,7.6,81.8,6.9,81,6.9z"/>
</g>
</svg>
