<?xml version="1.0" encoding="utf-8"?>
<!-- Generator: Adobe Illustrator 24.0.2, SVG Export Plug-In . SVG Version: 6.00 Build 0)  -->
<svg version="1.1" id="Layer_1" xmlns="http://www.w3.org/2000/svg" xmlns:xlink="http://www.w3.org/1999/xlink" x="0px" y="0px"
	 viewBox="0 0 673.4 266.2" style="enable-background:new 0 0 673.4 266.2;" xml:space="preserve">
<style type="text/css">
	.st0{fill:#FFFFFF;}
</style>
<path class="st0" d="M582,43.9l-64.3,151.5c-6.9,16.3-22.9,26.9-40.7,26.9H105.7l64.3-151.5c6.9-16.4,22.9-26.9,40.7-26.9H582
	 M600.7,31.5h-390c-22.7,0-43.3,13.6-52.1,34.5L86.9,234.7h390c22.7,0,43.3-13.6,52.1-34.5L600.7,31.5z"/>
<g>
	<path class="st0" d="M199.7,67.9h34.4l54.7,129.5h-38.2l-9.4-23h-49.5l-9.2,23H145L199.7,67.9z M230.9,146.8l-14.4-36.6l-14.5,36.6
		H230.9z"/>
	<path class="st0" d="M304.9,68.8h65.8c8.1,0,15,1,20.7,2.9c5.7,2,10.5,4.8,14.3,8.6c2.6,2.6,4.6,5.6,6,9c1.5,3.4,2.2,7.3,2.2,11.8
		v0.4c0,7.5-1.8,13.5-5.6,18.1c-3.7,4.6-8.4,8.1-14.1,10.5c7.9,2.6,14.1,6.3,18.7,11.1c4.6,4.9,6.9,11.6,6.9,20.3v0.4
		c0,11.1-4.3,19.8-12.7,26.1c-8.5,6.3-20.5,9.4-35.9,9.4h-66.3L304.9,68.8L304.9,68.8z M362,120c5.5,0,9.7-0.9,12.6-2.7
		c2.9-1.8,4.3-4.7,4.3-8.5v-0.4c0-3.5-1.4-6.3-4-8.2c-2.7-1.9-6.7-2.8-12.1-2.8h-23.1V120H362z M367.1,168.7c5.5,0,9.8-1,12.7-3.1
		c3-2,4.4-4.9,4.4-8.7v-0.4c0-3.5-1.4-6.3-4.2-8.5c-2.8-2.1-7.3-3.1-13.2-3.1h-27.2v23.7L367.1,168.7L367.1,168.7z"/>
	<polygon class="st0" points="475.4,151.4 507.6,151.4 520.2,121.7 475.4,121.7 475.4,100 529.4,100 542.6,68.8 439.9,68.8 
		439.9,197.4 475.4,197.4 	"/>
</g>
</svg>
