<?xml version="1.0" encoding="utf-8"?>
<!-- Generator: Adobe Illustrator 24.0.2, SVG Export Plug-In . SVG Version: 6.00 Build 0)  -->
<svg version="1.1"  xmlns="http://www.w3.org/2000/svg" xmlns:xlink="http://www.w3.org/1999/xlink" x="0px" y="0px"
	 viewBox="0 0 858 297" style="enable-background:new 0 0 858 297;" xml:space="preserve">
<style type="text/css">
	.st0{fill:#FFFFFF;}
</style>
<g id="ZADjHN.tif">
	<g>
		<path class="st0" d="M578.8,235.3c-38.5,31.4-96.4,31.8-135.5,0.1c-41.4,33.5-99.3,29.3-135.5-0.1c-25.7,19.9-54.7,27.6-86.9,22
			c-25.7-4.5-46.9-17.1-63.6-37c-33.1-39.5-33.1-97.6,0.2-137.5c18.8-22.5,43-35.4,72.2-38.1c29-2.8,55.1,5.3,77.9,23.2
			c38.2-31,96.4-32.1,134.9-0.7c9-4.9,17.3-10.7,26.4-14.4c37.8-15.1,73.4-10.7,106.5,12.9c2.5,1.8,3.9,1.9,6.4,0
			c64.1-48.2,156.9-11.4,170.6,67.5c10.6,61-32.8,118.7-94.3,125.2c-27.6,2.9-52.8-3.8-75.4-20.2
			C581.5,237.2,580.2,236.3,578.8,235.3z M596.5,217.6c29,23.3,78,24.9,110.1-8.9c32-33.6,30.6-84.9-3.2-117.5
			c-32.4-31.2-80.4-27.8-106.9-5.7C626.1,129.5,626.2,173.3,596.5,217.6z M290.3,217.4c-28.2-35.9-31-91.8-0.1-131.7
			c-26.6-22.2-74.4-25.6-106.9,5.4c-34.3,32.6-35.6,84.3-2.5,118.5C213.2,242.9,261.7,240.4,290.3,217.4z M425.5,217.5
			c-29.6-44.1-29.6-88,0-132c-28.8-23.5-73.4-22-99.8,0.1c29.6,44.1,29.6,88-0.1,132C355.1,241.3,399.2,239.2,425.5,217.5z
			 M561,217.6c-29.7-44.3-29.6-88-0.1-132c-28.2-23.5-73.9-22.2-99.8,0.1c29.6,44.1,29.6,87.8-0.1,131.8
			C485.9,238.4,530.1,242.1,561,217.6z M307.9,199.2c22-29.6,19-71-0.1-95.3C287.3,131.1,287.4,171.9,307.9,199.2z M443.2,199.2
			c20.7-27,20.4-68.6,0.1-95.1C423.9,128.6,421.6,170,443.2,199.2z M578.6,103.8c-22,30.2-18.6,71,0.1,95.1
			C598.7,173.8,599.7,130.9,578.6,103.8z"/>
	</g>
</g>
</svg>
