<?xml version="1.0" encoding="utf-8"?>
<!-- Generator: Adobe Illustrator 24.0.2, SVG Export Plug-In . SVG Version: 6.00 Build 0)  -->
<svg version="1.1" id="Layer_1" xmlns="http://www.w3.org/2000/svg" xmlns:xlink="http://www.w3.org/1999/xlink" x="0px" y="0px"
	 viewBox="0 0 673.4 266.2" style="enable-background:new 0 0 673.4 266.2;" xml:space="preserve">
<style type="text/css">
	.st0{fill:#FFFFFF;}
</style>
<g>
	<g>
		<line class="st0" x1="256.4" y1="211.2" x2="207" y2="159.5"/>
		<path class="st0" d="M299.4,255.9h-21.7L177,149.8l-0.3-0.1c-1.4-1.6-2.8-3.3-3.9-4.6c-3.1-3.8-5.5-7.4-7.5-10.6s-3.3-6.3-4.1-9.3
			c-0.9-3.1-1.2-6-1.2-9.2c0-5.5,1.1-10.5,3.3-15.3c2.2-4.7,5.4-8.8,9.3-12.2c3.9-3.4,8.7-6.2,14.1-8.2c5.4-2,11.2-3,17.5-3
			c5.7,0,11.1,0.8,16.1,2.5c5,1.6,9.3,3.9,13,7.1c3.7,3.1,6.7,6.8,8.9,11.1c2.1,4.3,3.3,9,3.3,14.2c0,5.1-1.1,9.8-3.1,14.1
			c-2,4.3-4.8,8.2-8.3,12.1c-3.4,3.8-7.6,7.5-12.2,10.9c-1.2,1-2.5,1.9-3.7,2.8l-9.7-10.2c4.8-3.4,8.9-6.9,12.4-10
			c6-5.5,9.1-11.9,9.1-19c0-6.4-2.4-11.8-7.2-15.9c-4.8-4.1-10.9-6.2-18.4-6.2c-4.2,0-7.9,0.7-11.4,1.9c-3.4,1.3-6.5,3.2-9.1,5.5
			c-2.6,2.3-4.6,5-5.9,7.9c-1.4,3-2.1,6.2-2.1,9.7c0,2,0.3,4,0.9,5.9c0.6,2,1.7,4.3,3.3,6.9c1.7,2.6,3.9,5.5,6.6,8.9
			c2.8,3.4,6.4,7.5,10.8,12.1l9.7,10.1l49.5,51.7l9.9,10.4L299.4,255.9z"/>
		<path class="st0" d="M245.6,244.3c-4,3-8.4,5.5-12.9,7.7c-9,4.2-18.8,6.3-29.4,6.3c-7.7,0-15.1-1.1-22-3.4s-12.8-5.5-17.9-9.8
			c-5.1-4.2-9.1-9.3-12.1-15.2c-3.1-5.8-4.5-12.3-4.5-19.4c0-5.9,1.1-11.4,3-16.4c2-5,4.8-9.6,8.2-13.8c3.4-4.2,7.5-8.1,11.9-11.9
			c1.1-0.8,2.1-1.6,3.2-2.4l9.8,10.6c-4.1,3.4-7.7,7.1-10.9,10.8c-5.8,6.6-8.7,14.5-8.7,23.4c0,5.5,1.2,10.3,3.6,14.5
			c2.4,4.2,5.5,7.7,9.6,10.7c4,2.9,8.4,5.1,13.4,6.4c5,1.3,10,2.1,15.2,2.1c8.4,0,16.3-1.7,23.3-5.3c2.8-1.4,5.5-3.1,8-5
			L245.6,244.3z"/>
	</g>
	<g>
		<path class="st0" d="M127.4,164v-16.8c-6.3,12.8-19.7,18.6-31,18.6c-26.6,0-42.2-19.8-42.2-44.2s15.6-44.2,42.2-44.2
			c11.3,0,24.7,5.7,31,18.6v-59h15.9v127L127.4,164L127.4,164z M70.4,121.5c0,15.1,8.7,31.2,28.5,31.2s28.5-16.1,28.5-31.2
			c0-15-8.7-31.2-28.5-31.2C79.1,90.4,70.4,106.5,70.4,121.5z"/>
		<path class="st0" d="M322.9,79h22l-39.5,34.9l40.1,50.1h-19.6l-32-40l-12.2,10.7V164h-15.9V36.9h15.9v78.4L322.9,79z"/>
		<path class="st0" d="M354.7,79H371V53.9h15.9V79h24.6v13h-24.6v36.9c0,17.2,1.2,23.8,12.2,23.8c4.3,0,8.3-0.8,11.6-1.7l3.7,12.2
			c-3.3,1.3-10,2.4-15.3,2.4c-23.2,0-28-10.9-28-36.7V92h-16.4L354.7,79L354.7,79z"/>
		<path class="st0" d="M494.5,143.1l9.6,9.4c-6.3,6.3-18,13.2-36.8,13.2c-26.7,0-42.8-18.9-42.8-44.2s16-44.2,42.8-44.2
			c26.5,0,43.5,17.8,42.6,51.9h-68.3c1,12.1,9.9,23.3,25.7,23.3C479.6,152.7,488.1,148.1,494.5,143.1z M492.8,115.4
			c-1.1-11.9-7.6-25.2-25.6-25.2c-17.9,0-24.7,13.3-25.6,25.2C441.6,115.4,492.8,115.4,492.8,115.4z"/>
		<path class="st0" d="M576.8,93.2c-3.3-1.9-7.3-2.9-12.5-2.9c-18.5,0-23.5,13-23.5,28V164h-15.9V79h15.9v12.8
			c2.7-7.8,11.9-14.5,24.4-14.5c7.4,0,13.6,1.3,18.8,3.7L576.8,93.2z"/>
	</g>
</g>
</svg>
