<?xml version="1.0" encoding="utf-8"?>
<!-- Generator: Adobe Illustrator 24.0.2, SVG Export Plug-In . SVG Version: 6.00 Build 0)  -->
<svg version="1.1" id="Layer_1" xmlns="http://www.w3.org/2000/svg" xmlns:xlink="http://www.w3.org/1999/xlink" x="0px" y="0px"
	 viewBox="0 0 673.4 266.2" style="enable-background:new 0 0 673.4 266.2;" xml:space="preserve">
<style type="text/css">
	.st0{fill:#FFFFFF;}
</style>
<g>
	<path class="st0" d="M163.7,57.8c0-0.2-0.2-0.5-0.2-0.9c-0.2-0.5-0.2-0.9-0.5-1.4c-0.2-0.2-0.2-0.7-0.5-0.9
		c-0.2-0.7-0.7-1.2-0.9-1.9l0,0c-0.9-1.6-2.3-3.1-4-4l0,0c-0.5-0.5-1.2-0.7-1.9-0.9c-0.2-0.2-0.7-0.2-0.9-0.5
		c-0.5-0.2-0.9-0.2-1.4-0.5c-0.2,0-0.5-0.2-0.9-0.2c-0.7-0.2-1.4-0.2-2.3-0.2h-46.1c-1.2,0-2.3,0.9-2.3,2.3v43.5
		c0,1.2,0.9,2.3,2.3,2.3h26.6v24.4h-26.6c-1.2,0-2.3,0.9-2.3,2.3v4.7l-12-24c-0.5-1.2-1.9-1.6-3.1-0.9l-24,12L44.4,76.2
		c-0.5-1.2-1.9-1.6-3.1-0.9L25.8,83c-0.7,0.5-1.4,0.7-2.1,1.2c0-0.2-0.2-0.2-0.5,0c-0.5,0.2-0.7,0.7-1.2,1.2
		c-0.2,0.2-0.5,0.5-0.7,0.7c-1.2,1.4-1.9,2.8-2.6,4.5c-0.2,1.6-0.5,3.3-0.5,4.9c0,0.2,0,0.7,0,0.9c0,0.5,0.2,1.2,0.2,1.6
		c0,0.2,0,0.5,0.2,0.7c0.2,0.7,0.5,1.6,0.9,2.3l54,108.6c0.2,0.7,0.7,1.2,0.9,1.6c0,0,0,0.2,0.2,0.2c0.2,0.5,0.7,0.9,1.2,1.4l0,0
		c0.9,0.9,1.9,1.6,3.1,2.3c1.6,0.9,3.5,1.6,5.6,1.9c0.5,0,0.9,0,1.6,0c2.1,0,4.2-0.5,6.1-1.4l40.9-20.2h16.7c0.9,0,1.6,0,2.3-0.2
		c0.2,0,0.5-0.2,0.9-0.2c0.5-0.2,0.9-0.2,1.4-0.5c0.2-0.2,0.7-0.2,0.9-0.5c0.7-0.2,1.2-0.7,1.9-0.9l0,0c2.1-1.4,4-3.5,5.2-5.9
		c0.2-0.2,0.2-0.7,0.2-0.9c0.2-0.5,0.2-0.9,0.5-1.4c0-0.2,0.2-0.5,0.2-0.9c0.2-0.7,0.2-1.6,0.2-2.6V60.2
		C164,59.5,164,58.5,163.7,57.8z M106.2,59.5H133c1.9,0,3.5,1.6,3.5,3.5c0,1.9-1.6,3.5-3.5,3.5h-26.8V59.5z M101.7,130.4v19.5
		c0,1.2,0.9,2.3,2.3,2.3h26.6v31.5l-15-30.3c-0.5-1.2-1.9-1.6-3.1-0.9l-24,12l-10.8-21.9L101.7,130.4L101.7,130.4z M45.5,88.1
		l2.6,4.9c-0.9-0.2-1.9-0.9-2.3-1.9C45.1,90.2,45.3,89.1,45.5,88.1z M74.7,189.9l-38.8-77.5l17.4-8.7l6.3,12.9
		c0.5,1.2,1.9,1.6,3.1,0.9l24-12l10.8,21.9l-24,12c-0.5,0.2-0.9,0.7-1.2,1.4c-0.2,0.5-0.2,1.2,0.2,1.6l12.9,25.8
		c0.5,1.2,1.9,1.6,3.1,0.9l24-12l5.4,11L74.7,189.9z M116.7,193.2c-3.5,1.9-8,0.2-9.6-3.3c-1.9-3.5-0.2-8,3.3-9.6
		c3.5-1.9,8-0.2,9.6,3.3C121.7,187.1,120.3,191.5,116.7,193.2z M154.6,164.3h-19.5v-14.6c0-1.2-0.9-2.3-2.3-2.3h-26.6v-24.2H133
		c1.2,0,2.3-0.9,2.3-2.3V91.9c0-1.2-0.9-2.3-2.3-2.3h-26.8V77.3h48.4V164.3z"/>
	<g>
		<g>
			<g>
				<path class="st0" d="M203.2,96.8V83.2h60.6v13.6h-22.1V157h-16.2V96.8H203.2z"/>
				<path class="st0" d="M260.3,118.9c1.4-3.5,3.1-6.3,5.6-8.9c2.3-2.3,5.4-4.5,8.7-5.6c3.3-1.4,7.3-2.1,11.3-2.1
					c4.2,0,8,0.7,11.5,2.1c3.5,1.4,6.3,3.3,8.7,5.6c2.3,2.3,4.2,5.4,5.6,8.9c1.4,3.5,1.9,7.3,1.9,11.7c0,4.2-0.7,8.2-1.9,11.5
					c-1.4,3.5-3.1,6.3-5.6,8.9c-2.3,2.3-5.4,4.2-8.7,5.6c-3.5,1.4-7.3,1.9-11.5,1.9s-8-0.7-11.3-1.9c-3.3-1.4-6.3-3.3-8.7-5.6
					c-2.3-2.3-4.2-5.4-5.6-8.9c-1.4-3.5-1.9-7.3-1.9-11.5C258.4,126.2,259.1,122.2,260.3,118.9z M273.7,136.8
					c0.5,2.1,1.2,3.8,2.1,5.4c0.9,1.6,2.3,2.8,4,4c1.6,0.9,3.8,1.4,6.1,1.4c2.6,0,4.5-0.5,6.3-1.4c1.6-0.9,3.1-2.3,4-4
					c0.9-1.6,1.6-3.5,2.1-5.4c0.5-2.1,0.7-4.2,0.7-6.3s-0.2-4.2-0.7-6.3s-1.2-4-2.1-5.4c-0.9-1.6-2.3-2.8-4-4
					c-1.6-0.9-3.8-1.4-6.3-1.4c-2.6,0-4.5,0.5-6.1,1.4c-1.6,0.9-3.1,2.3-4,4c-0.9,1.6-1.6,3.5-2.1,5.4c-0.5,2.1-0.7,4.2-0.7,6.3
					C273,132.5,273.2,134.7,273.7,136.8z"/>
				<path class="st0" d="M360.4,157.2v-7.5h-0.2c-1.9,3.1-4.2,5.4-7.3,6.8c-3.1,1.4-6.1,2.1-9.2,2.1c-4,0-7.3-0.5-9.6-1.6
					c-2.6-0.9-4.5-2.6-5.9-4.5s-2.6-4.2-3.1-7c-0.7-2.8-0.9-5.6-0.9-9.2v-32.9H339v30.3c0,4.5,0.7,7.8,2.1,9.9
					c1.4,2.1,3.8,3.3,7.3,3.3c4,0,6.8-1.2,8.7-3.5c1.9-2.3,2.6-6.3,2.6-11.7v-28h14.8v53.6C374.5,157.2,360.4,157.2,360.4,157.2z"/>
				<path class="st0" d="M411.9,113.3c-2.3,0-4.2,0.5-5.9,1.6s-2.8,2.3-4,4.2c-0.9,1.6-1.6,3.5-2.1,5.6c-0.5,2.1-0.7,4-0.7,6.1
					c0,1.9,0.2,4,0.7,5.9c0.5,2.1,1.2,3.8,2.1,5.4s2.1,3.1,3.8,4c1.6,0.9,3.5,1.6,5.9,1.6c3.5,0,6.3-0.9,8.2-3.1
					c1.9-1.9,3.1-4.7,3.5-8h14.1c-0.9,7-3.8,12.5-8.2,16.2c-4.5,3.8-10.3,5.6-17.4,5.6c-4,0-7.8-0.7-11-2.1
					c-3.3-1.4-6.1-3.3-8.5-5.6c-2.3-2.3-4.2-5.4-5.4-8.7c-1.4-3.3-1.9-7-1.9-11c0-4.2,0.7-8,1.9-11.5c1.2-3.5,3.1-6.6,5.4-9.2
					c2.3-2.6,5.2-4.7,8.7-6.1c3.3-1.4,7.3-2.1,11.5-2.1c3.1,0,6.1,0.5,9.2,1.2c2.8,0.9,5.6,2.1,7.8,3.8c2.3,1.6,4.2,3.8,5.6,6.3
					c1.4,2.6,2.3,5.4,2.6,8.9h-14.3C421.8,116.3,418.2,113.3,411.9,113.3z"/>
				<path class="st0" d="M461.2,83.2v28h0.2c1.9-3.1,4.2-5.4,7-6.8c2.8-1.4,5.6-2.1,8.5-2.1c4,0,7,0.5,9.6,1.6s4.5,2.6,5.9,4.5
					c1.4,1.9,2.3,4.2,3.1,7c0.7,2.8,0.9,5.6,0.9,9.2v32.9h-14.8v-30.5c0-4.5-0.7-7.8-2.1-9.9c-1.4-2.1-3.8-3.3-7.3-3.3
					c-4,0-6.8,1.2-8.7,3.5s-2.8,6.3-2.8,11.7v28H446V83.2H461.2z"/>
				<path class="st0" d="M562.3,83.2v13.6h-35.7V114h31v12.7h-31v30.5h-16.2v-74H562.3z"/>
				<path class="st0" d="M571.2,95.4V83.2H586v12.2H571.2z M586,103.6v53.6h-14.8v-53.6H586z"/>
				<path class="st0" d="M594.5,103.6h16.7l9.4,13.9l9.4-13.9h16.2l-17.6,25.1l19.7,28.4h-16.7l-11.3-16.9L609,157.2h-16.4
					l19.3-28.2L594.5,103.6z"/>
			</g>
		</g>
	</g>
</g>
</svg>
