<?xml version="1.0" encoding="utf-8"?>
<!-- Generator: Adobe Illustrator 24.0.2, SVG Export Plug-In . SVG Version: 6.00 Build 0)  -->
<svg version="1.1" id="Layer_1" xmlns="http://www.w3.org/2000/svg" xmlns:xlink="http://www.w3.org/1999/xlink" x="0px" y="0px"
	 viewBox="0 0 673.4 266.2" style="enable-background:new 0 0 673.4 266.2;" xml:space="preserve">
<style type="text/css">
	.st0{fill:#FFFFFF;}
</style>
<g>
	<path class="st0" d="M75.1,191.5c-1.2,1.8-1.2,2.4-3.6,2.4H47.9c-2.4,0-3.6-0.6-3.6-3.6L37.2,70.7h-8.9c-1.8,0-2.4-1.2-2.4-2.4
		c0-0.6,0-1.8,0.6-2.4l1.8-11.2c0.6-2.4,1.2-3,3.6-3h28.4c3,0,3.6,0.6,3.6,3.6v84.1c0,11.8-0.6,24.9-0.6,33.2h0.6
		c3.6-9.5,8.3-22.5,13-33.2l37.3-85.3c0.6-1.8,1.2-2.4,3.6-2.4h29c1.8,0,2.4,1.2,2.4,2.4c0,0.6,0,1.8-0.6,2.4l-1.8,11.2
		c-0.6,2.4-1.2,3-3.6,3h-8.9L75.1,191.5z"/>
	<path class="st0" d="M142.6,189.8c-0.6,1.8-0.6,1.8-2.4,1.8h-15.4c-1.2,0-2.4-0.6-2.4-1.2c0-0.6,0-1.2,0-2.4l11.2-49.7
		c0.6-3.6,1.8-7.7,1.8-13H126c-1.2,0-2.4-0.6-2.4-1.8c0-0.6,0-1.2,0.6-1.8l1.8-8.9c0.6-1.8,0.6-1.8,2.4-1.8h21.9
		c3.6,0,3.6,11.8,3.6,14.2c4.1-4.7,13-16.6,25.5-16.6c2.4,0,5.3,0.6,5.3,2.4c0,0.6,0,0.6-0.6,1.2l-7.1,16.6c0,0.6-0.6,0.6-1.2,0.6
		c-1.2,0-3-1.2-5.3-1.2c-12.4,0-19.5,18.9-22.5,29.6L142.6,189.8z"/>
	<path class="st0" d="M210.7,194.5c-17.2,0-27.8-8.9-27.8-29.6c0-30.2,19.5-56.8,46.8-56.8c16.6,0,26.6,8.9,26.6,29.6
		C256.3,168.4,236.8,194.5,210.7,194.5z M235,136.5c0-7.7-3-11.8-10.1-11.8c-15.4,0-21.9,26.1-21.9,42c0,7.7,3,11.8,10.1,11.8
		C228.5,178.5,235,152.5,235,136.5z"/>
	<path class="st0" d="M296,188.6c0,0.6,0,1.2,0,1.8c0,2.4-10.1,4.7-16.6,4.7c-9.5,0-16-3-16-13.6c0-5.9,0.6-11.8,1.8-17.2l16-74.6
		h-9.5c-1.2,0-2.4-0.6-2.4-1.2s0-1.8,0.6-2.4l1.8-8.9c0.6-1.8,0.6-1.8,2.4-1.8h27.2c1.2,0,2.4,0.6,2.4,1.2s0,1.8-0.6,2.4l-18.4,85.3
		c-0.6,4.1-1.8,8.3-1.8,10.1c0,2.4,1.2,3.6,3.6,3.6c3,0,5.3-1.2,5.9-1.2s1.2,0,1.2,1.2L296,188.6z"/>
	<path class="st0" d="M343.4,189.8c-0.6,1.8-0.6,1.8-2.4,1.8h-13.6c-6.5,0-14.8-1.2-14.8-10.1c0-2.4,0.6-4.7,1.2-7.1l10.7-48.6H312
		c-1.2,0-2.4-0.6-2.4-1.8c0-0.6,0-1.2,0.6-1.8l1.8-8.9c0.6-1.8,0.6-1.8,2.4-1.8h30.2c1.2,0,1.8,0.6,1.8,1.8c0,0.6,0,1.2-0.6,2.4
		l-13,62.2h10.7c1.2,0,2.4,0.6,2.4,1.8c0,0.6,0,1.2-0.6,1.8L343.4,189.8z M341,100.3c-7.1,0-13.6-5.9-13.6-13.6
		c0-8.3,7.1-13.6,13.6-13.6c6.5,0,13.6,5.3,13.6,13.6C354.6,94.4,348.7,100.3,341,100.3z"/>
	<path class="st0" d="M379.5,190.3c-3.6,15.4-7.7,39.7-34.3,39.7c-7.7,0-16-3-16-4.1c0-0.6,0-1.2,0.6-1.8l4.1-11.8
		c0.6-1.2,0.6-1.2,1.8-1.2c1.8,0,4.7,3,9.5,3c10.7,0,13-13.6,14.8-23.7l13.6-64.5h-12.4c-1.2,0-2.4-0.6-2.4-1.8c0-0.6,0-1.2,0.6-1.8
		l1.8-8.9c0.6-1.8,0.6-1.8,2.4-1.8h30.2c1.2,0,1.8,0.6,1.8,1.8c0,0.6,0,1.2-0.6,2.4L379.5,190.3z M390.7,100.3
		c-7.1,0-13.6-5.9-13.6-13.6c0-8.3,7.1-13.6,13.6-13.6s13.6,5.3,13.6,13.6C404.3,94.4,397.8,100.3,390.7,100.3z"/>
	<path class="st0" d="M472.4,189.8c-0.6,1.8-0.6,1.8-2.4,1.8h-18.4c-1.2,0-1.8,0-2.4-1.2L428,152.5l-8.3,37.9
		c-0.6,1.8-0.6,1.8-2.4,1.8H402c-1.2,0-2.4-0.6-2.4-1.8s0.6-2.4,0.6-3.6l20.7-97.7h-9.5c-1.2,0-2.4-0.6-2.4-1.8c0-0.6,0-1.2,0.6-1.8
		l1.8-8.9c0.6-1.8,0.6-1.8,2.4-1.8h27.8c1.2,0,2.4,0.6,2.4,1.8c0,0.6,0,1.2-0.6,2.4l-14.2,67.5l26.6-19.5v-0.6H447
		c-1.2,0-2.4-0.6-2.4-1.8c0-0.6,0-1.2,0.6-1.8l1.8-8.9c0.6-1.8,0.6-1.8,2.4-1.8h37.9c1.2,0,2.4,0.6,2.4,1.8c0,0.6,0,1.2-0.6,1.8
		l-1.8,8.9c-0.6,1.8-0.6,1.8-2.4,1.8h-7.1L447,148.9l16.6,28.4h8.9c1.2,0,2.4,0.6,2.4,1.8c0,0.6,0,1.2-0.6,1.8L472.4,189.8z"/>
</g>
<rect x="605.7" y="148.3" class="st0" width="43.8" height="43.8"/>
<rect x="567.2" y="111" class="st0" width="43.8" height="43.8"/>
<rect x="529.3" y="148.9" class="st0" width="43.8" height="43.8"/>
<rect x="605.7" y="73.1" class="st0" width="43.8" height="43.8"/>
</svg>
