<?xml version="1.0" encoding="utf-8"?>
<!-- Generator: Adobe Illustrator 24.0.2, SVG Export Plug-In . SVG Version: 6.00 Build 0)  -->
<svg version="1.1" id="Layer_1" xmlns="http://www.w3.org/2000/svg" xmlns:xlink="http://www.w3.org/1999/xlink" x="0px" y="0px"
	 viewBox="0 0 673.4 266.2" style="enable-background:new 0 0 673.4 266.2;" xml:space="preserve">
<style type="text/css">
	.st0{fill:#FFFFFF;}
	.st1{opacity:0.6;fill:#FFFFFF;enable-background:new    ;}
</style>
<g>
	<path class="st0" d="M283.8,85.3c0,2.8-0.9,5-2.7,6.6c-1.8,1.6-3.9,2.5-6.4,2.5s-4.7-0.8-6.5-2.5c-1.8-1.6-2.7-3.9-2.7-6.6
		c0-2.9,0.9-5.1,2.7-6.8c1.8-1.6,4-2.5,6.5-2.5s4.6,0.8,6.4,2.5C282.9,80.2,283.8,82.5,283.8,85.3z M282.2,168.6h-14.9v-64.4h14.9
		V168.6z"/>
	<path class="st0" d="M301.1,106.3c2.9-0.8,6.6-1.6,11.2-2.3c4.6-0.7,9.7-1.1,15.3-1.1c5.3,0,9.6,0.7,13.2,2.2
		c3.5,1.4,6.3,3.4,8.4,6s3.6,5.7,4.4,9.4c0.9,3.7,1.3,7.7,1.3,12v36.2H340v-33.9c0-3.4-0.2-6.4-0.7-8.8c-0.5-2.4-1.2-4.4-2.2-5.9
		s-2.4-2.6-4.2-3.3c-1.8-0.7-3.9-1-6.5-1c-1.9,0-3.9,0.1-5.9,0.4c-2.1,0.2-3.6,0.5-4.6,0.6v52H301v-62.5H301.1z"/>
	<path class="st0" d="M369.2,87.2l14.9-2.5v19.5H407v12.4h-22.9v26.2c0,5.2,0.8,8.9,2.5,11.1c1.6,2.2,4.4,3.3,8.4,3.3
		c2.7,0,5.1-0.3,7.2-0.9c2.1-0.6,3.8-1.1,5-1.6l2.5,11.8c-1.7,0.7-4,1.5-6.8,2.3s-6.1,1.2-9.9,1.2c-4.6,0-8.4-0.6-11.5-1.8
		s-5.5-3-7.3-5.4c-1.8-2.3-3.1-5.2-3.8-8.5c-0.7-3.3-1.1-7.1-1.1-11.4V87.2H369.2z"/>
	<path class="st0" d="M416.7,136.7c0-5.7,0.8-10.6,2.5-14.9s3.9-7.8,6.7-10.7c2.8-2.8,6-5,9.6-6.4s7.3-2.2,11.1-2.2
		c8.9,0,15.8,2.8,20.7,8.3c5,5.5,7.4,13.7,7.4,24.6c0,0.8,0,1.7-0.1,2.8c0,1-0.1,2-0.2,2.8h-42.5c0.4,5.2,2.2,9.2,5.5,12
		c3.2,2.8,7.9,4.2,14.1,4.2c3.6,0,6.9-0.3,9.9-1s5.4-1.4,7.1-2.1l2,12.2c-0.8,0.4-2,0.8-3.4,1.3s-3.1,0.9-4.9,1.2
		c-1.8,0.4-3.8,0.7-6,0.9c-2.1,0.2-4.3,0.4-6.5,0.4c-5.7,0-10.6-0.8-14.8-2.5c-4.2-1.7-7.6-4-10.3-7c-2.7-3-4.7-6.5-6-10.6
		C417.4,146,416.7,141.5,416.7,136.7z M459.9,130c0-2.1-0.3-4-0.9-5.9c-0.6-1.8-1.4-3.4-2.5-4.8s-2.5-2.4-4.1-3.2
		c-1.6-0.8-3.5-1.2-5.7-1.2c-2.3,0-4.3,0.4-6,1.3s-3.2,2-4.4,3.4c-1.2,1.4-2.1,3-2.8,4.8c-0.7,1.8-1.1,3.7-1.4,5.5L459.9,130
		L459.9,130z"/>
	<path class="st0" d="M488.1,106.3c2.9-0.8,6.6-1.6,11.2-2.3c4.6-0.7,9.7-1.1,15.3-1.1c5.3,0,9.6,0.7,13.2,2.2
		c3.5,1.4,6.3,3.4,8.4,6c2.1,2.6,3.6,5.7,4.4,9.4c0.9,3.7,1.3,7.7,1.3,12v36.2H527v-33.9c0-3.4-0.2-6.4-0.7-8.8
		c-0.5-2.4-1.2-4.4-2.2-5.9s-2.4-2.6-4.2-3.3c-1.8-0.7-3.9-1-6.5-1c-1.9,0-3.9,0.1-5.9,0.4c-2.1,0.2-3.6,0.5-4.6,0.6v52H488
		L488.1,106.3L488.1,106.3z"/>
	<path class="st0" d="M606.9,114.7c-1.6,1.7-3.8,4.1-6.5,7.3c-2.7,3.1-5.5,6.6-8.6,10.4c-3,3.8-6.1,7.8-9.2,11.9
		c-3.1,4.1-5.8,8.1-8.3,11.9h33.3v12.4h-51.2v-9.2c1.8-3.3,4.1-6.9,6.8-10.7c2.7-3.9,5.5-7.7,8.4-11.6c2.9-3.9,5.7-7.6,8.6-11.1
		c2.8-3.5,5.4-6.6,7.6-9.2H558v-12.4h48.9V114.7z"/>
	<path class="st0" d="M642.9,102.6c4.9,0,9.1,0.6,12.4,1.8c3.4,1.2,6.1,3,8.1,5.2s3.4,4.9,4.3,8.1c0.9,3.2,1.3,6.6,1.3,10.4v39
		c-2.3,0.5-5.8,1.1-10.4,1.8c-4.6,0.7-9.9,1-15.7,1c-3.9,0-7.4-0.4-10.6-1.1c-3.2-0.7-5.9-1.9-8.2-3.6c-2.3-1.6-4-3.8-5.3-6.4
		c-1.3-2.6-1.9-5.9-1.9-9.7c0-3.7,0.7-6.8,2.2-9.4c1.4-2.5,3.4-4.6,5.9-6.2c2.5-1.6,5.3-2.7,8.6-3.4c3.2-0.7,6.6-1,10.2-1
		c1.6,0,3.4,0.1,5.2,0.3c1.8,0.2,3.7,0.6,5.8,1v-2.5c0-1.7-0.2-3.4-0.6-4.9c-0.4-1.6-1.1-2.9-2.2-4.1s-2.4-2.1-4.1-2.8
		c-1.7-0.7-3.8-1-6.3-1c-3.4,0-6.6,0.2-9.5,0.7s-5.2,1.1-7,1.7l-1.8-12.1c1.9-0.7,4.6-1.3,8.3-2
		C634.9,102.9,638.8,102.6,642.9,102.6z M644.1,158.1c4.6,0,8.1-0.2,10.5-0.7v-16.5c-0.8-0.2-2-0.5-3.6-0.7s-3.3-0.4-5.2-0.4
		c-1.6,0-3.3,0.1-5,0.4c-1.7,0.2-3.2,0.7-4.6,1.4c-1.4,0.7-2.4,1.6-3.3,2.8c-0.8,1.2-1.2,2.7-1.2,4.5c0,3.5,1.1,6,3.3,7.3
		C637.4,157.4,640.3,158.1,644.1,158.1z"/>
</g>
<path class="st1" d="M145.2,181.5c4.5,15.3,18.6,26.5,35.4,26.5c20.4,0,36.9-16.5,36.9-36.9V44.3l-82.1,104.2L145.2,181.5z"/>
<path class="st0" d="M145.2,181.5l-18.8-63.6H0l26.7,63.6c5.9,14.6,19.4,26.5,36.2,26.5h117.7C163.8,208,149.7,196.8,145.2,181.5z"
	/>
</svg>
