<?xml version="1.0" encoding="utf-8"?>
<!-- Generator: Adobe Illustrator 24.0.2, SVG Export Plug-In . SVG Version: 6.00 Build 0)  -->
<svg version="1.1" id="Layer_1" xmlns="http://www.w3.org/2000/svg" xmlns:xlink="http://www.w3.org/1999/xlink" x="0px" y="0px"
	 viewBox="0 0 673.4 266.2" style="enable-background:new 0 0 673.4 266.2;" xml:space="preserve">
<style type="text/css">
	.st0{fill:#FFFFFF;}
</style>
<g>
	<path class="st0" d="M221.5,28.1V33c1,0.2,1.8,0.3,2.2,0.4c6,1,10.3,2.6,12.8,4.9c2.5,2.3,3.8,4.7,3.8,7.2c0,3.9-2,10.9-6.1,21
		l-41.7,102.3l-45-103.6c-4-9.2-6-16-6-20.3c0-3.1,1.2-5.7,3.6-7.7c2.4-2,7.7-3.4,15.9-4.2v-4.8H88.8V33c5.4,0.4,9.7,1.4,12.8,2.9
		c3.2,1.5,5.8,3.6,8,6.3c1.4,1.7,3.8,6.5,7.2,14.3l66.2,152.3h4.8l61.6-150.4c3.6-8.8,7.6-15.3,12.3-19.5c3.2-2.9,7.9-4.9,14.2-6
		v-4.8H221.5z M316.2,202.8c2.5,3,5.9,4.4,10.2,4.4c8.9,0,18.2-6.5,27.9-19.5v-7.3c-5.2,5.2-8.7,8.4-10.6,9.5
		c-1,0.6-2.3,0.9-3.7,0.9c-1.3,0-2.5-0.4-3.5-1.3c-1-0.9-1.7-2.6-2.1-5.1c-0.4-2.6-0.7-9.5-0.7-20.9v-40.5c0-11.6-0.8-19.2-2.3-22.9
		c-2.4-5.7-6.2-9.9-11.3-12.6c-6.8-3.6-15.5-5.3-26.1-5.3c-13.8,0-24.5,3.1-32.2,9.4c-7.6,6.3-11.5,13.1-11.5,20.6
		c0,3.9,1,7,3.1,9.3c2,2.3,4.7,3.4,7.9,3.4c3.3,0,6-1.1,8-3.3c2-2.2,3.1-5.3,3.1-9.3l-0.3-7.6c0-3.8,1.6-7.2,5-10.2
		c3.2-3,7.6-4.4,13-4.4c7.2,0,12.7,2.2,16.5,6.6c3.8,4.4,5.7,12.6,5.7,24.5v4.7c-20.5,7.5-35.2,13.8-44,19
		c-8.8,5.2-15,10.8-18.6,16.7c-2.6,4.3-3.9,9.3-3.9,15.1c0,9.2,2.7,16.6,8,22.3c5.3,5.6,12.1,8.5,20.4,8.5c5.3,0,10.3-1.1,15-3.3
		c3.1-1.5,10.8-6.9,23.1-16.4C312.4,194.8,313.7,199.8,316.2,202.8 M286.2,192.2c-4.9,0-9.2-2.1-12.9-6.2c-3.7-4.1-5.6-9.3-5.6-15.6
		c0-5,1.5-9.5,4.4-13.7c3-4.2,7.9-8.2,14.7-12c3.8-2.2,12.3-5.9,25.4-11.1v45.5C301.5,187.9,292.8,192.2,286.2,192.2 M385,19.5
		l-35.6,14.6l2.2,4.6c3.5-1.4,6.3-2.1,8.6-2.1c2.1,0,3.8,0.6,5.1,1.7c1.3,1.1,2.3,3.2,2.9,6.3c0.6,3.1,0.9,11.4,0.9,24.8v108.4
		c0,7.4-0.6,12.4-1.7,15c-1.1,2.6-2.7,4.5-4.7,5.6c-2,1.1-5.7,1.7-11.2,1.7v4.7h58.5v-4.7c-6.2,0-10.4-0.6-12.6-1.9
		c-2.3-1.3-3.9-3.1-5-5.5c-1.1-2.4-1.6-7.4-1.6-14.9V19.5H385z M439.9,19.5l-35.4,14.6l2.2,4.6c3.6-1.5,6.4-2.2,8.2-2.2
		c2.3,0,4.1,0.6,5.5,1.8c1.4,1.2,2.4,3.3,3,6.4c0.6,3.1,0.9,11.5,0.9,25.3v108.7c0,7-0.7,12-2,14.9c-1,2-2.3,3.5-4.2,4.4
		c-3,1.5-7.6,2.2-13.7,2.2v4.7h60.7v-4.7c-6.7-0.1-11-0.7-13-1.7c-2-1-3.5-2.8-4.6-5.2c-1.1-2.4-1.6-7.5-1.6-15.2v-39.6l36.6,46.8
		c3.5,4.4,5.2,7.6,5.2,9.6c0,1.7-0.6,2.9-1.8,3.8c-1.2,0.9-3.4,1.4-6.7,1.5v4.7h58v-4.7c-5.4,0-9.2-0.4-11.3-1.3
		c-3.1-1.2-6.8-3.9-10.9-7.9c-3-2.9-8.7-9.6-17.2-20.3l-30.6-38.7l30.6-28.3c5.6-5.1,10.8-8.7,15.6-10.7c4.7-2,10.7-3.1,17.8-3.3
		v-4.2h-51.9v4.2c3.3,0.2,5.7,0.9,7.1,2.1c1.4,1.3,2.1,2.8,2.1,4.5c0,1-0.3,2.1-1,3.1c-1,1.6-4.8,5.3-11.2,11.2l-30.4,27.8V19.5
		H439.9z"/>
	<path class="st0" d="M538.5,223.4H529v17.7h2.5v-8.2h6.9v-2.3h-6.9v-4.9h6.9V223.4z M523.5,223.4h-10v17.7h10.3v-2.3H516v-5.5h7.2
		V231H516v-5.3h7.5V223.4z M506.9,223.4h-2.5v17.7h2.5V223.4z M498.3,224.4c-1.2-0.8-2.6-1.2-3.9-1.2c-3.2,0-5.4,1.8-5.4,4.7
		c0,4.9,7.7,5.3,7.7,8.9c0,1-0.9,2.2-2.9,2.2c-1.7,0-3.4-0.9-4.7-2.6v3.2c1.5,1.1,3,1.6,5,1.6c2.9,0,5-2,5-4.8c0-5.6-7.7-5.6-7.7-9
		c0-1.2,1.2-2.1,2.8-2.1c1.2,0,2.6,0.4,4.2,1.8V224.4z M483.8,223.4h-2.5v10.3c0,1.7-0.2,3-1.1,3.9c-0.8,0.8-2.2,1.4-4.2,1.4
		c-1.5,0-2.8-0.5-3.8-1.5c-0.8-0.8-1.1-1.6-1.1-3.6v-10.5h-2.5v11c0,4.8,3.6,6.9,7.4,6.9c5.3,0,7.9-2.9,7.9-7.2V223.4z M456.1,223.4
		h-2.5v17.7h10.5v-2.3h-8V223.4z M447.7,224.6c-2.4-1-4.3-1.5-6.1-1.5c-5.6,0-9.7,3.9-9.7,9.3c0,3.7,2.9,8.8,9.5,8.8
		c2.8,0,4.7-0.6,6.4-1.6V237c-2,1.3-4.2,2-6.2,2c-4.3,0-7.2-2.8-7.2-6.7c0-3.9,3-6.8,7.1-6.8c2,0,3.9,0.6,6.1,1.8V224.6z
		 M427.6,223.4h-3.1l-5.5,6.7l-5.6-6.7h-3.1l7.1,8.5l-7.6,9.2h3.1l6.1-7.3l6,7.3h3.1l-7.5-9.2L427.6,223.4z M406.2,223.4h-10v17.7
		h10.3v-2.3h-7.7v-5.5h7.2V231h-7.2v-5.3h7.5V223.4z M382,223.4h-4.9l-5.6,8h-0.1v-8h-4.4v17.7h4.4v-8.3l7,8.3h5.5l-7.8-9.4
		L382,223.4z M364.2,237.9h-9.1v-14.5h-4.4v17.7h13.5V237.9z M340.6,234.5h-5.4l2.6-6.9L340.6,234.5z M340.3,223.4h-5.1l-7.1,17.7
		h4.7l1.3-3.5h7.9l1.5,3.5h4.7L340.3,223.4z M329.5,223.4h-4.7l-4.4,10.1l-4.7-10.1h-4.8l8.6,17.9h1.9L329.5,223.4z M294,226.7h2.2
		c1.7,0,2.5,0.7,2.5,2c0,1.5-1.2,2-2.4,2H294V226.7z M289.6,223.4v17.7h4.4v-7.2h1.3c2.4,0,3.1,3.4,5,7.2h4.9
		c-2.5-5.2-3-7.4-4.9-8.3c2-0.9,3-2.4,3-4.3c0-2.6-2.2-5.1-5.8-5.1H289.6z M285.7,237.9h-8.6v-4.3h8.1v-3.2h-8.1v-3.7h8.5v-3.2
		h-12.9v17.7h13V237.9z M255.7,226.7h2.8c4.2,0,5.8,2.6,5.8,5.6c0,2.6-1.3,5.6-5.8,5.6h-2.9V226.7z M251.3,223.4v17.7h7.3
		c7.1,0,10.3-3.7,10.3-8.8c0-4.9-3.3-8.9-9.8-8.9H251.3z M240.3,223.4h-4.4v10.8l-9.4-10.8h-4v17.7h4.4v-11.3l9.8,11.3h3.7V223.4z
		 M212.3,234.5h-5.4l2.6-6.9L212.3,234.5z M212,223.4h-5.1l-7.1,17.7h4.7l1.3-3.5h7.9l1.5,3.5h4.7L212,223.4z M201.2,223.4h-4.7
		l-4.4,10.1l-4.7-10.1h-4.8l8.6,17.9h1.9L201.2,223.4z"/>
</g>
</svg>
