<?xml version="1.0" encoding="utf-8"?>
<!-- Generator: Adobe Illustrator 24.0.2, SVG Export Plug-In . SVG Version: 6.00 Build 0)  -->
<svg version="1.1" id="Layer_1" xmlns="http://www.w3.org/2000/svg" xmlns:xlink="http://www.w3.org/1999/xlink" x="0px" y="0px"
	 viewBox="0 0 673.4 266.2" style="enable-background:new 0 0 673.4 266.2;" xml:space="preserve">
<style type="text/css">
	.st0{fill:#FFFFFF;}
</style>
<g>
	<g>
		<path class="st0" d="M95.9,112.2H73.4c-3.7,0-6.7-1.9-6.7-5.4c0-3.6,3-5.4,6.7-5.4h34.1c3.3,0,6,1.4,6,5.9c0,1.6-0.6,3.3-1.8,4.7
			l-29.7,35.3h25.2c3.7,0,6.7,1.9,6.7,5.4c0,3.6-3,5.4-6.7,5.4H72c-4.7,0-7.5-1.6-7.5-6.4c0-2.1,0.9-3.6,2.1-5L95.9,112.2z"/>
		<path class="st0" d="M140.3,115.9c13.9,0,21.3,9.5,21.3,21.6c0,11.5-5.6,21.7-21.3,21.7S119,149,119,137.5
			C119,125.3,126.5,115.9,140.3,115.9z M140.3,150.7c6.9,0,9.8-6.2,9.8-13.2c0-7.5-3.1-13.1-9.8-13.1s-9.8,5.6-9.8,13.1
			C130.6,144.5,133.5,150.7,140.3,150.7z"/>
		<path class="st0" d="M169.7,121.2c0-3.5,2.3-5.4,5.2-5.4c2.9,0,5.2,1.9,5.2,5.4v4.4h0.2c1.3-4.8,3.9-9.8,9.5-9.8
			c3.6,0,6.3,2.4,6.3,5.6c0,4.3-2.8,5.8-5.7,5.8h-2.1c-4.7,0-7.2,3.2-7.2,12.8v13.4c0,3.1-1.3,5.8-5.8,5.8c-4.5,0-5.8-2.7-5.8-5.8
			V121.2z"/>
		<path class="st0" d="M240.2,154.8c0,13.9-8.5,20.3-20.5,20.3c-8.8,0-17.4-3.9-17.4-9.5c0-2.8,2.2-4.9,4.7-4.9
			c4.8,0,5.8,5.9,12.2,5.9c7,0,9.9-3.6,9.9-12.6v-2.4H229c-2,3-6.5,5.5-11.1,5.5c-12.2,0-18.5-7.9-18.5-19.2
			c0-14.9,8.4-21.9,18.1-21.9c5.6,0,10,2.6,12.1,6.9h0.2v-1.4c0-3.6,1.8-5.4,5.2-5.4c3.6,0,5.2,1.9,5.2,5.4V154.8z M220.1,148.5
			c5.1,0,9.1-3.4,9.1-11.6c0-8.4-3.2-12.1-8.5-12.1c-7.4,0-9.7,5.4-9.7,12.5C211,142.7,213.6,148.5,220.1,148.5z"/>
		<path class="st0" d="M288.4,154.8c0,13.9-8.5,20.3-20.5,20.3c-8.8,0-17.4-3.9-17.4-9.5c0-2.8,2.2-4.9,4.7-4.9
			c4.8,0,5.8,5.9,12.2,5.9c7,0,9.9-3.6,9.9-12.6v-2.4h-0.2c-2.1,3-6.5,5.5-11.1,5.5c-12.1,0-18.5-7.9-18.5-19.2
			c0-14.9,8.4-21.9,18.1-21.9c5.6,0,10,2.6,12.2,6.9h0.2v-1.4c0-3.6,1.8-5.4,5.2-5.4c3.5,0,5.2,1.9,5.2,5.4V154.8z M268.3,148.5
			c5.1,0,9.1-3.4,9.1-11.6c0-8.4-3.2-12.1-8.5-12.1c-7.4,0-9.7,5.4-9.7,12.5C259.2,142.7,261.8,148.5,268.3,148.5z"/>
		<path class="st0" d="M298.2,121.2c0-3.5,2.3-5.4,5.2-5.4c2.9,0,5.2,1.9,5.2,5.4v4.4h0.2c1.3-4.8,3.9-9.8,9.5-9.8
			c3.6,0,6.3,2.4,6.3,5.6c0,4.3-2.8,5.8-5.7,5.8h-2c-4.7,0-7.2,3.2-7.2,12.8v13.4c0,3.1-1.3,5.8-5.8,5.8s-5.8-2.7-5.8-5.8V121.2z"/>
		<path class="st0" d="M348.3,115.9c13.9,0,21.3,9.5,21.3,21.6c0,11.5-5.6,21.7-21.3,21.7c-15.7,0-21.3-10.2-21.3-21.7
			C327,125.3,334.4,115.9,348.3,115.9z M348.3,150.7c6.9,0,9.8-6.2,9.8-13.2c0-7.5-3.1-13.1-9.8-13.1s-9.8,5.6-9.8,13.1
			C338.5,144.5,341.5,150.7,348.3,150.7z"/>
		<path class="st0" d="M386.8,139.7c0,6.1,3.9,10.5,10.6,10.5c8.7,0,8.7-5.7,13.3-5.7c2.8,0,4.7,2.4,4.7,4.5
			c0,6.9-11.1,10.2-18.1,10.2c-16.1,0-22.2-10.9-22.2-20.9c0-13.4,8.1-22.4,21.8-22.4c13.3,0,20.8,9.4,20.8,18.9c0,3.9-1.2,5-5.1,5
			H386.8z M407,133.1c-0.6-5.3-4.6-9.2-9.7-9.2c-5.8,0-9.2,3.6-10.5,9.2H407z"/>
		<path class="st0" d="M425.3,121.3c0-3.6,1.7-5.4,5.2-5.4c3.4,0,5.2,1.9,5.2,5.4v1.8h0.2c1.9-4.9,6.5-7.3,12.2-7.3
			c9.6,0,18.1,7,18.1,21.9c0,11-5.6,21.4-17.7,21.4c-5.3,0-9.2-2.1-11.4-5.8h-0.2v15.4c0,3.8-2.3,5.8-5.8,5.8c-3.5,0-5.8-2-5.8-5.8
			V121.3z M445.4,124.9c-6.7,0-9.2,6-9.2,12.5c0,5.9,2.2,12.9,9.2,12.8c7.3,0,9.2-7.4,9.2-12.8C454.6,130.6,451.6,125,445.4,124.9z"
			/>
		<path class="st0" d="M122.8,233.1c-1.2,4.5-3.1,6.2-7.8,6.2c-4.9,0-6.6-2.1-7.7-6.4l-8.4-34.6h-0.2l-8.4,34.6
			c-1,4.3-2.8,6.4-7.7,6.4c-4.7,0-6.6-1.7-7.8-6.2L63.5,190c-0.3-1.2-0.6-2.4-0.6-3.7c0-3.9,3.2-5.8,6.2-5.8c3.3,0,5.3,1.5,6.1,5.3
			l7.7,37.7H83l8.8-38.2c0.7-3.2,2-4.8,6.8-4.8c5.4,0,6.5,2.6,7.3,6.2l8.6,36.8h0.2l7.7-37.7c0.8-3.8,2.8-5.3,5.8-5.3
			c3,0,6.2,1.9,6.2,5.8c0,1.3-0.3,2.5-0.6,3.7L122.8,233.1z"/>
		<path class="st0" d="M147.2,219.8c0,6.1,3.9,10.5,10.7,10.5c8.7,0,8.7-5.7,13.3-5.7c2.8,0,4.7,2.4,4.7,4.5
			c0,6.9-11.1,10.2-18.1,10.2c-16.1,0-22.2-10.9-22.2-20.9c0-13.4,8.1-22.4,21.8-22.4c13.3,0,20.8,9.4,20.8,18.9c0,3.9-1.2,5-5,5
			H147.2z M167.4,213.2c-0.6-5.3-4.6-9.2-9.7-9.2c-5.8,0-9.2,3.6-10.5,9.2H167.4z"/>
		<path class="st0" d="M201.2,196c8.8,0,17.6,3.5,17.6,8.8c0,2.7-1.8,5-4.8,5c-4.5,0-4.7-5.3-11.9-5.3c-4,0-6.6,1.1-6.6,3.6
			c0,2.7,2.6,3.3,6.2,4.1l4.8,1.1c6.5,1.5,14.4,4.3,14.4,12.3c0,9.4-9.1,13.7-17.7,13.7c-10.4,0-19.1-4.7-19.1-10.3
			c0-2.5,1.4-4.8,4.7-4.8c5,0,5.4,7.1,14,7.1c4.1,0,6.7-1.8,6.7-4.2c0-2.9-2.5-3.4-6.6-4.4l-6.8-1.7c-6.7-1.7-11.9-4.4-11.9-12.1
			C183.9,199.4,193.2,196,201.2,196z"/>
		<path class="st0" d="M231.1,204.6h-2c-3.2,0-4.6-1.3-4.6-3.8c0-2.5,1.3-3.8,4.6-3.8h2v-7c0-3.8,2.3-5.8,5.8-5.8
			c3.5,0,5.8,2,5.8,5.8v7h3.5c3.4,0,5.2,1,5.2,3.8c0,2.8-1.8,3.8-5.2,3.8h-3.5v23c0,1.7,0.9,2.7,3,2.7h1.7c2.5,0,4,1.4,4,3.9
			c0,3.3-2.8,5.1-8.4,5.1c-8.4,0-11.8-3.5-11.8-10.3V204.6z"/>
		<path class="st0" d="M275.3,211c3.5,0,6.4,1.4,6.4,5.4c0,4-2.8,5.4-6.4,5.4h-13c-3.6,0-6.4-1.4-6.4-5.4c0-4,2.8-5.4,6.4-5.4H275.3
			z"/>
		<path class="st0" d="M290.8,189c0-5.8,3-7.6,7.6-7.6h17.2c9.5,0,20.7,2.1,20.7,14.7c0,4.8-2.6,9.4-8,11.5v0.2
			c6,1.6,9.9,5.8,9.9,13.6c0,11.9-9.7,16.8-20.9,16.8h-19c-4.6,0-7.6-1.8-7.6-7.6V189z M303.7,204.8h10.7c6.1,0,9-2.4,9-6.9
			c0-5.4-4.6-6.9-9.4-6.9h-10.3V204.8z M303.7,228.3h10.9c5.1,0,10.7-1,10.7-7.6c0-6.9-6-7.7-12.3-7.7h-9.3V228.3z"/>
		<path class="st0" d="M347,201.3c0-3.5,2.3-5.4,5.2-5.4c2.9,0,5.2,1.9,5.2,5.4v4.4h0.2c1.3-4.8,3.9-9.8,9.5-9.8
			c3.6,0,6.3,2.4,6.3,5.6c0,4.3-2.8,5.8-5.7,5.8h-2.1c-4.7,0-7.2,3.2-7.2,12.8v13.4c0,3.1-1.3,5.8-5.8,5.8c-4.5,0-5.8-2.7-5.8-5.8
			V201.3z"/>
		<path class="st0" d="M415.3,227.1c0,4.8,1.2,5.9,1.2,7.7c0,2.6-2.4,4.4-5.2,4.4c-5,0-6.6-3.2-6.8-6.7c-4.5,5-9.7,6.7-15.8,6.7
			c-6.5,0-13-4.5-13-11.8c0-9.5,7.3-12.2,16.1-13.3l7-0.8c2.8-0.3,5-0.9,5-4.3c0-3.3-3.4-4.7-7.3-4.7c-8.5,0-8.8,6.3-13.3,6.3
			c-2.9,0-4.9-2.1-4.9-4.4c0-4.6,6.5-10.4,18.3-10.4c11,0,18.7,3.6,18.7,11.8V227.1z M403.8,218.8c-1.3,1.2-3.6,1.6-5,1.8l-4.2,0.6
			c-4.8,0.7-7.4,2.2-7.4,5.7c0,2.6,2.4,4.7,6.4,4.7c6.3,0,10.2-4.1,10.2-8.4V218.8z"/>
		<path class="st0" d="M425.2,186.2c0-3.8,2.3-5.8,5.8-5.8c3.5,0,5.8,2,5.8,5.8v15.6h0.2c2.3-3.7,6.2-5.8,11.4-5.8
			c12.2,0,17.8,10.3,17.8,21.4c0,14.9-8.4,21.9-18.1,21.9c-5.6,0-10.3-2.4-12.1-7.3h-0.2v1.8c0,3.6-1.8,5.4-5.2,5.4
			c-3.5,0-5.2-1.9-5.2-5.4V186.2z M445.4,204.9c-7-0.1-9.2,6.9-9.2,12.8c0,6.5,2.5,12.5,9.2,12.5c6.2-0.2,9.2-5.8,9.2-12.5
			C454.5,212.4,452.7,204.9,445.4,204.9z"/>
		<path class="st0" d="M511.7,227.1c0,4.8,1.2,5.9,1.2,7.7c0,2.6-2.4,4.4-5.2,4.4c-5,0-6.6-3.2-6.8-6.7c-4.5,5-9.7,6.7-15.8,6.7
			c-6.5,0-13-4.5-13-11.8c0-9.5,7.3-12.2,16.1-13.3l7-0.8c2.8-0.3,5-0.9,5-4.3c0-3.3-3.4-4.7-7.3-4.7c-8.5,0-8.8,6.3-13.3,6.3
			c-2.9,0-4.9-2.1-4.9-4.4c0-4.6,6.5-10.4,18.3-10.4c11,0,18.7,3.6,18.7,11.8V227.1z M500.2,218.8c-1.3,1.2-3.6,1.6-5,1.8l-4.2,0.6
			c-4.8,0.7-7.4,2.2-7.4,5.7c0,2.6,2.4,4.7,6.4,4.7c6.3,0,10.2-4.1,10.2-8.4V218.8z"/>
		<path class="st0" d="M521.7,201.7c0-3.5,1.6-5.8,5.2-5.8c3.6,0,5.2,2.3,5.2,5.8v1.5h0.2c3.2-4.3,7.4-7.3,14-7.3
			c6.9,0,14.5,3.5,14.5,15.1v22.4c0,3.1-1.3,5.8-5.8,5.8s-5.8-2.7-5.8-5.8v-20.1c0-4.7-2.3-8-7.3-8c-4,0-8.8,3.3-8.8,9.1v19
			c0,3.1-1.3,5.8-5.8,5.8s-5.8-2.7-5.8-5.8V201.7z"/>
		<path class="st0" d="M572.9,204.6h-2c-3.2,0-4.6-1.3-4.6-3.8c0-2.5,1.3-3.8,4.6-3.8h2v-7c0-3.8,2.3-5.8,5.8-5.8s5.8,2,5.8,5.8v7
			h3.5c3.4,0,5.2,1,5.2,3.8c0,2.8-1.8,3.8-5.2,3.8h-3.5v23c0,1.7,0.9,2.7,3,2.7h1.7c2.5,0,4,1.4,4,3.9c0,3.3-2.8,5.1-8.4,5.1
			c-8.4,0-11.8-3.5-11.8-10.3V204.6z"/>
	</g>
	<g>
		<circle class="st0" cx="517.6" cy="114.3" r="21.4"/>
	</g>
	<g>
		<path class="st0" d="M517.6,175c-4.3,0-7.8-3.5-7.8-7.8s3.5-7.8,7.8-7.8c24.9,0,45.1-20.2,45.1-45.1s-20.2-45.1-45.1-45.1
			c-4.3,0-7.8-3.5-7.8-7.8s3.5-7.8,7.8-7.8c33.5,0,60.7,27.2,60.7,60.7S551.1,175,517.6,175z"/>
	</g>
	<g>
		<path class="st0" d="M605.9,126.3c-6.6,0-12-5.4-12-12c0-42.1-34.2-76.3-76.3-76.3c-31.7,0-59.6,19.1-71.1,48.6
			c-2.4,6.2-9.3,9.2-15.5,6.8c-6.2-2.4-9.2-9.3-6.8-15.5c7.3-18.6,19.8-34.5,36.2-45.9c16.8-11.7,36.6-17.9,57.2-17.9
			c55.3,0,100.2,45,100.2,100.2C617.8,120.9,612.5,126.3,605.9,126.3z"/>
	</g>
</g>
</svg>
