<?xml version="1.0" encoding="utf-8"?>
<!-- Generator: Adobe Illustrator 24.0.2, SVG Export Plug-In . SVG Version: 6.00 Build 0)  -->
<svg version="1.1" id="Layer_1" xmlns="http://www.w3.org/2000/svg" xmlns:xlink="http://www.w3.org/1999/xlink" x="0px" y="0px"
	 viewBox="0 0 314.9 77.6" style="enable-background:new 0 0 314.9 77.6;" xml:space="preserve">
<style type="text/css">
	.st0{fill:#FFFFFF;}
	.st1{fill:#E6E7E8;}
</style>
<polygon class="st0" points="89,51.1 65.4,51.1 65.4,26 69.6,26 69.6,47.4 89,47.4 "/>
<path class="st0" d="M122.1,43c0,2.6-1.3,4.7-3.8,6.3c-2.6,1.7-6,2.5-10.4,2.5s-7.8-0.8-10.4-2.5c-2.5-1.6-3.8-3.8-3.8-6.3V26h4.2
	v16c0,2,0.9,3.5,2.6,4.5s4.2,1.6,7.5,1.6s5.8-0.5,7.5-1.6c1.7-1,2.5-2.5,2.5-4.5V26h4.2L122.1,43L122.1,43z"/>
<polygon class="st0" points="164.8,51.1 160.7,51.1 160.7,30.6 160.6,30.6 147.5,46.9 134.6,30.6 134.5,30.6 134.5,51.1 130.3,51.1 
	130.3,26 135.5,26 147.6,41.2 159.7,26 164.8,26 "/>
<rect x="173.2" y="26" class="st0" width="4.2" height="25.1"/>
<polygon class="st0" points="214.3,51.1 209.1,51.1 189.9,30.5 189.9,51.1 185.8,51.1 185.8,26 191,26 210.1,46.6 210.1,26 
	214.3,26 "/>
<path class="st0" d="M250.8,51.1h-4.6l-2.9-5.6h-16.9l-2.9,5.6H219L232.3,26h5.2L250.8,51.1z M241.3,41.7l-6.4-12.1l-6.5,12.2
	L241.3,41.7L241.3,41.7z"/>
<rect x="255.5" y="26" class="st0" width="4.2" height="25.1"/>
<path class="st0" d="M284,26c4.4,0,7.8,1.2,10.4,3.5s3.8,5.4,3.8,9.3c0,3.6-1.4,6.6-4.1,8.9c-2.5,2.2-5.6,3.3-9.4,3.3H268V26H284z
	 M285.1,47.4c2.5,0,4.5-0.8,6.2-2.4c1.6-1.6,2.4-3.7,2.4-6.2c0-2.7-0.9-4.9-2.6-6.5c-1.7-1.6-4-2.5-6.8-2.5h-12.1v17.6H285.1z"/>
<path class="st0" d="M306.2,43.8c0.7,0,1.3,0.2,1.8,0.5c0.6,0.3,1,0.8,1.3,1.3c0.3,0.6,0.5,1.2,0.5,1.8c0,0.7-0.2,1.3-0.5,1.8
	c-0.3,0.6-0.8,1-1.3,1.3c-0.6,0.3-1.2,0.5-1.8,0.5c-0.7,0-1.3-0.2-1.8-0.5c-0.6-0.3-1-0.8-1.3-1.3c-0.3-0.6-0.5-1.2-0.5-1.8
	c0-0.7,0.2-1.3,0.5-1.8c0.3-0.6,0.8-1,1.3-1.3C304.9,43.9,305.5,43.8,306.2,43.8 M306.2,44.4c-0.8,0-1.6,0.3-2.2,0.9
	c-0.6,0.6-0.9,1.3-0.9,2.2c0,0.8,0.3,1.6,0.9,2.2c0.6,0.6,1.3,0.9,2.2,0.9c0.8,0,1.6-0.3,2.2-0.9c0.6-0.6,0.9-1.3,0.9-2.2
	c0-0.8-0.3-1.6-0.9-2.2C307.7,44.7,307,44.4,306.2,44.4 M305.3,49.4h-0.6v-3.9h1.4c0.5,0,0.8,0,1,0.1s0.4,0.2,0.5,0.4
	s0.2,0.4,0.2,0.6c0,0.3-0.1,0.6-0.3,0.8c-0.2,0.2-0.5,0.3-0.8,0.4c0.1,0.1,0.3,0.2,0.4,0.3s0.3,0.4,0.5,0.7l0.5,0.8h-0.8L307,49
	c-0.2-0.4-0.4-0.7-0.6-0.9c-0.1-0.1-0.3-0.2-0.6-0.2h-0.4v1.5H305.3z M305.3,46v1.2h0.8c0.3,0,0.6,0,0.7-0.1
	c0.2-0.1,0.2-0.2,0.2-0.5c0-0.2-0.1-0.4-0.2-0.5S306.4,46,306,46C306,46,305.3,46,305.3,46z"/>
<path class="st1" d="M42.9,54.3c0.2,0,0.3,0,0.4,0l0,0c3.4,0,6.8-0.9,9.7-2.6c-5.2,0.7-10.7-0.1-15.8-2.7c-1.1,1-2.3,2-3.6,2.7l0,0
	C36.6,53.4,39.8,54.2,42.9,54.3"/>
<path class="st0" d="M53.1,51.7c0-6.7-3.5-13.2-9.7-16.8c0,3.3-0.8,6.6-2.6,9.7c-1,1.7-2.2,3.2-3.5,4.4
	C42.3,51.6,47.8,52.4,53.1,51.7L53.1,51.7"/>
<path class="st1" d="M17.1,41.5c-0.1,0.1-0.2,0.3-0.2,0.4l0,0c-1.7,3-2.6,6.3-2.6,9.7c2-4.9,5.5-9.3,10.2-12.3
	c-0.4-1.5-0.5-3-0.5-4.5l0,0C21.1,36.6,18.8,38.9,17.1,41.5"/>
<path class="st0" d="M14.3,51.7c5.8,3.3,13.2,3.6,19.4,0c-2.9-1.6-5.3-4-7.1-7.1c-1-1.7-1.7-3.5-2.1-5.3
	C19.7,42.4,16.3,46.7,14.3,51.7L14.3,51.7"/>
<path class="st0" d="M33.7,18.1c-5.8,3.4-9.7,9.6-9.7,16.8c2.9-1.6,6.2-2.6,9.7-2.6c1.9,0,3.8,0.3,5.6,0.8
	C39,27.5,37,22.3,33.7,18.1L33.7,18.1"/>
<path class="st1" d="M41.1,25.7c-0.1-0.2-0.2-0.3-0.2-0.4l0,0c-1.7-3-4.2-5.4-7.1-7.2c3.3,4.2,5.3,9.4,5.5,15c1.5,0.4,2.8,1,4.1,1.8
	l0,0C43.4,31.5,42.6,28.4,41.1,25.7"/>
</svg>
