<?xml version="1.0" encoding="utf-8"?>
<!-- Generator: Adobe Illustrator 24.0.2, SVG Export Plug-In . SVG Version: 6.00 Build 0)  -->
<svg version="1.1" id="Layer_1" xmlns="http://www.w3.org/2000/svg" xmlns:xlink="http://www.w3.org/1999/xlink" x="0px" y="0px"
	 viewBox="0 0 270.2 104.8" style="enable-background:new 0 0 270.2 104.8;" xml:space="preserve">
<style type="text/css">
	.st0{fill:#FFFFFF;}
</style>
<g>
	<path class="st0" d="M217.2,40.5c-0.3-2.2-1.4-4.1-3.3-5c-2.5-1.1-6-1-9.6,2.7c-2.2,2.2-5.8,5-16.7,18.6c0.3-1.6,0.3-1.9,0.8-3.6
		c1.5-5.9,5.1-8.7,0.8-10.8c-1-0.4-2.1-0.8-2.8-0.8c-3.3,0.1-4.7,5.7-5.6,9.1c-0.3,1.3-0.6,2.7-1,4.2c-0.1,0.1-0.1,0.1-0.1,0.2
		c-3,6.6-3.8,8.7-7.6,13.8c-7.7,10.6-17.1,10.7-17.6-0.1c-0.1-1.2-0.1-1.7-0.1-2c1,1.8,3.6,2.5,6.1,1.9c8.2-2,13.5-15.9,10.1-25
		c-1.3-3.4-4.7-3.1-9.1-1.4c-1.3,0.5-3.1-0.1-4.7,0.5c-2.7,1-5,3.3-6.5,6.1c-5,10.2-4.9,20.2-3,26.1c3.8,12.1,21,12.2,30.9-8.5
		c-0.1,2.3-0.3,4.5-0.3,6.3c-0.1,3.4,0,6,0.1,6.8c0.2,1.3,0.7,3.4,3.1,3.6c0.6,0.1,2.1,0,2.7-0.1c2.4-0.4,3.6-1.5,3.1-5.1
		c-0.2-1.7-0.8-4.6-0.8-9c0-1.7,0-3.3,0.1-5.2c2.5-2.8,5.9-6.3,8.2-8.5c2.7-2.7,7.6-7.3,9.6-8.9c2.1-1.7,4.3-2.2,5.7,0.1
		c0.8,1.3,1.2,1.9,2,2.2c0.9,0.4,2.1-0.1,3-1C217.2,45.8,217.4,41.8,217.2,40.5 M160.9,48.8c1-0.3,2.2,0,2.5,0.8
		c1.7,4.7-0.1,12.5-3.7,13.8c-1.8,0.6-3.4,0-4.2-2C154.5,58.6,157.9,49.9,160.9,48.8"/>
	<path class="st0" d="M116.4,67.9c-0.8,0.1-1.1,1.1-1.9,2.8c-4.5,10.8-9.3,5.9-8.3-3.9c0.3-3.2,0.9-5.5,1.8-9.8
		c0.6-2.8,0.9-4.1,1.5-7.1c0.1-0.3,0.9-3.2-0.8-4.3c-1.3-0.9-2.4-1.1-3.9-1c-0.8,0.1-1.5,0.5-2.4,1c-4.5-4.7-7.9-3.9-9.8-3.4
		c-4.7,1.2-8,6.4-10.8,15.6c-0.7,2.3-1.1,4.5-1.4,6.4c-1.1-0.6-2.3-1-3.6-1.5c-3.4-1-8.3-2.2-12.8-3.4c-10.4-2.8-12.4-5.6-7.5-8
		c2.2-1,4.5-1.8,7.8-2c3.1-0.3,6.5,0.1,9.1,0.3c1.8,0.1,1.8-1.5,1.9-2c0.3-1.3,0.4-2.7,0-3.8c-0.2-0.5-0.6-1.1-1.8-1.3
		c-1.7-0.3-3.1-0.6-7.5-0.5C59.4,42.1,54,43.8,49,47.5c-6.8,5.1-5.9,13.2,9.1,17c3.7,1,10.9,3,10.9,3c8.1,2.2,9.8,4.5,3.6,6.9
		c-4.5,1.7-8.4,1.6-12.1,1.1c-5.2-0.6-6.6-2.1-8.4-2.1c-3.3-0.1-3.9,2.4-3.8,4.1c0.3,3.8,5.4,5,7,5.4c2,0.4,11.7,2.6,23.7-2.9
		c1.3-0.6,2.4-1.2,3.3-1.9c1.4,2.9,3.6,4.9,6.3,5.1c8.5,0.6,12.2-9.5,12.2-9.5c1.3,13.4,11.5,11,15.6,2.6c1.4-2.9,2-5.2,2.1-6.3
		C118.5,69.2,117.4,67.8,116.4,67.9 M99.3,56c-0.2,4.9-1,8-1.8,11c-0.4,1.8-1.6,4.1-2,4.7c-2.9,4.4-5.4,2.9-6.2,0.8
		c-0.8-2.1-1.3-5.3,0.4-12.1c1-3.8,2.6-7,4.2-9C96.1,48.9,99.6,49.1,99.3,56"/>
	<path class="st0" d="M133.6,65.2c0,0-0.7-1.6-1.4-3.5c-2.6-6.6-4.7-15.1-5.4-18.8c-0.6-3-1.1-5-1.4-6.4c-0.4-1.6-0.8-3.3-2.4-4.1
		c-1.9-1-4-1.1-7.1-0.4c-1.4,0.3-2.6,0.8-3.3,1.5c-0.7,0.6-1.1,1.5-1.2,2.7c-0.4,9,7.1,28,9.8,33.8c2.4,5,5.8,11.4,7.7,12.9
		c0.9,0.7,2.6,2,5.8,0.4c3.3-1.8,5.9-2.9,6.9-8c0.7-3.6,0.9-4.9,1.4-7.7c1.2-7.1,2.2-12.1,3.8-18.3c3.1-12.1,7-22.4,15.1-29.2
		c0.8-0.7,1-0.9,1.3-1.2c1.1-1.2,0.3-1.9-1.5-1.4c-0.8,0.3-1.1,0.4-2.2,1c-1.3,0.7-3.1,1.9-4.8,3.3c-9.1,7.3-12.6,15.6-15,22.5
		c-1.7,4.8-2.8,8.9-3.9,13.1C135.1,59.5,133.6,65.2,133.6,65.2"/>
</g>
</svg>
