<?xml version="1.0" encoding="utf-8"?>
<!-- Generator: Adobe Illustrator 26.2.1, SVG Export Plug-In . SVG Version: 6.00 Build 0)  -->
<svg version="1.1" id="Stripelight-logo" xmlns="http://www.w3.org/2000/svg" xmlns:xlink="http://www.w3.org/1999/xlink" x="0px"
	 y="0px" viewBox="0 0 145.7 31.7" style="enable-background:new 0 0 145.7 31.7;" xml:space="preserve">
<style type="text/css">
	.st0{fill:#FFFFFF;}
</style>
<g>
	<path class="st0" d="M11.5,24.7c0,0-2.8,0.6-4.7,0.6c-5,0-6.2-2.9-6.2-8.5c0-6,1.5-8.6,6.2-8.6c2.1,0,4.7,0.6,4.7,0.6l-0.1,2.5
		c0,0-2.8-0.4-4.2-0.4c-2.9,0-3.6,1.4-3.6,5.8c0,4.2,0.6,5.8,3.7,5.8c1.3,0,4.1-0.4,4.1-0.4L11.5,24.7z"/>
	<path class="st0" d="M23.7,19c0,3.9-1.2,6.3-5.4,6.3c-4.1,0-5.4-2.4-5.4-6.3c0-3.8,1.3-6.2,5.4-6.2C22.3,12.8,23.7,15.2,23.7,19z
		 M20.9,19c0-2.5-0.6-3.7-2.6-3.7c-2,0-2.6,1.2-2.6,3.7c0,2.6,0.5,3.8,2.6,3.8S20.9,21.5,20.9,19z"/>
	<path class="st0" d="M26.4,25v-12h2.7v0.6c0,0,1.9-0.9,3.2-0.9c3.3,0,4.2,2,4.2,6V25h-2.7v-6.2c0-2.3-0.3-3.5-2-3.5
		c-1.1,0-2.7,0.6-2.7,0.6V25H26.4z"/>
	<path class="st0" d="M43.4,15.5v4.9c0,1.7,0,2.3,1.2,2.3c0.7,0,1.9-0.1,1.9-0.1l0.1,2.3c0,0-1.6,0.3-2.4,0.3
		c-2.8,0-3.6-1.1-3.6-4.5v-5.3h-1.5v-2.5h1.5V9.6h2.7v3.5h3.2v2.5H43.4z"/>
	<path class="st0" d="M49.4,13.1h2.7v1.3c0,0,1.6-1.2,3.6-1.6v2.9c-2.2,0.4-3.6,1.2-3.6,1.2V25h-2.7V13.1z"/>
	<path class="st0" d="M67.9,19c0,3.9-1.2,6.3-5.4,6.3c-4.1,0-5.4-2.4-5.4-6.3c0-3.8,1.3-6.2,5.4-6.2C66.6,12.8,67.9,15.2,67.9,19z
		 M65.2,19c0-2.5-0.6-3.7-2.6-3.7c-2,0-2.6,1.2-2.6,3.7c0,2.6,0.5,3.8,2.6,3.8C64.7,22.8,65.2,21.5,65.2,19z"/>
	<path class="st0" d="M70.7,8.1h2.7V25h-2.7V8.1z"/>
	<path class="st0" d="M77.3,8.4h3.2l4.8,14l4.8-14h3.2V25h-1.8V10.5h-0.3l-4.8,13.9h-2l-4.8-13.9h-0.3V25h-1.8V8.4z"/>
	<path class="st0" d="M106.1,23.4l0,1.5c0,0-2.7,0.4-4.6,0.4c-3.6,0-4.8-2.1-4.8-6.2c0-4.6,2-6.3,5-6.3c3.2,0,4.8,1.7,4.8,5.6
		l-0.1,1.4h-7.9c0,2.5,0.8,3.8,3.2,3.8C103.5,23.6,106.1,23.4,106.1,23.4z M104.7,18.4c0-2.9-0.9-3.9-3-3.9c-2.1,0-3.2,1.1-3.2,3.9
		H104.7z"/>
	<path class="st0" d="M118.6,25h-1.8v-0.8c0,0-1.8,1-3.6,1c-2.3,0-4.3-1-4.3-6.2c0-4.2,1.3-6.3,5-6.3c1,0,2.6,0.2,2.9,0.3V8.3h1.8
		V25z M116.8,22.7v-8c-0.4,0-1.9-0.3-2.8-0.3c-2.5,0-3.3,1.6-3.3,4.7c0,3.8,1.3,4.5,2.7,4.5C115,23.6,116.8,22.7,116.8,22.7z"/>
	<path class="st0" d="M122.6,8.3h1.8v2.1h-1.8V8.3z M122.6,13.1h1.8v12h-1.8V13.1z"/>
	<path class="st0" d="M136.7,22.6c0,0.8,0.6,1,1.4,1.1l-0.1,1.6c-1.4,0-2.2-0.3-2.8-0.9c0,0-2.2,0.9-4.4,0.9c-2.1,0-3.3-1.3-3.3-3.7
		c0-2.3,1.2-3.3,3.6-3.5l3.8-0.4v-1c0-1.5-0.8-2.2-2.1-2.2c-1.7,0-4.6,0.3-4.6,0.3l-0.1-1.6c0,0,2.9-0.5,4.7-0.5
		c2.5,0,3.8,1.2,3.8,3.9V22.6z M131.4,19.5c-1.5,0.1-2.1,0.9-2.1,2.1c0,1.4,0.6,2.2,1.7,2.2c1.8,0,3.9-0.7,3.9-0.7v-3.8L131.4,19.5z
		"/>
</g>
</svg>
