<?xml version="1.0" encoding="utf-8"?>
<!-- Generator: Adobe Illustrator 24.1.0, SVG Export Plug-In . SVG Version: 6.00 Build 0)  -->
<svg version="1.1" id="Stripelight-logo" xmlns="http://www.w3.org/2000/svg" xmlns:xlink="http://www.w3.org/1999/xlink" x="0px"
	 y="0px" viewBox="0 0 199.1 31.7" style="enable-background:new 0 0 199.1 31.7;" xml:space="preserve">
<style type="text/css">
	.st0{fill:#FFFFFF;}
	.st1{fill-rule:evenodd;clip-rule:evenodd;fill:#FFFFFF;}
	.st2{opacity:0.5;fill-rule:evenodd;clip-rule:evenodd;fill:#FFFFFF;}
	.st3{clip-path:url(#SVGID_4_);fill:#FFFFFF;}
</style>
<g>
	<g>
		<path class="st0" d="M60.3,10.9h3l2.8,4.7l2.8-4.7h2.9l-4.4,7.4v4.6h-2.6v-4.7L60.3,10.9z"/>
		<path class="st0" d="M76.5,10.9l2.8,8.2h0l2.6-8.2h3.7v12h-2.5v-8.5h0l-2.9,8.5h-2l-2.9-8.4h0v8.4h-2.5v-12H76.5z"/>
		<path class="st0" d="M87,10.9h3.1l2.3,3.8l2.4-3.8h2.9l-3.8,5.7l4.2,6.3H95l-2.6-4.1l-2.7,4.1h-3l4.2-6.3L87,10.9z"/>
		<path class="st0" d="M112.8,10.9v2.2h-6.3v2.6h5.8v2h-5.8v2.9h6.5v2.2h-9.1v-12H112.8z"/>
		<path class="st0" d="M120.3,22.9v-1.2h-0.1c-0.3,0.5-0.7,0.9-1.2,1.1c-0.5,0.2-1,0.3-1.5,0.3c-0.6,0-1.2-0.1-1.6-0.3
			c-0.4-0.2-0.7-0.4-1-0.7s-0.4-0.7-0.5-1.1c-0.1-0.4-0.1-0.9-0.1-1.5v-5.3h2.4v4.9c0,0.7,0.1,1.2,0.3,1.6c0.2,0.4,0.6,0.5,1.2,0.5
			c0.6,0,1.1-0.2,1.4-0.6c0.3-0.4,0.4-1,0.4-1.9v-4.5h2.4v8.7H120.3z"/>
		<path class="st0" d="M126.6,14.2v1.6h0c0.1-0.3,0.3-0.5,0.5-0.7c0.2-0.2,0.4-0.4,0.7-0.6c0.2-0.2,0.5-0.3,0.8-0.4
			c0.3-0.1,0.6-0.1,0.9-0.1c0.2,0,0.3,0,0.5,0.1v2.2c-0.1,0-0.2,0-0.4-0.1c-0.2,0-0.3,0-0.5,0c-0.4,0-0.8,0.1-1.1,0.2
			c-0.3,0.1-0.5,0.3-0.7,0.6c-0.2,0.3-0.3,0.5-0.4,0.9c-0.1,0.3-0.1,0.7-0.1,1.1v3.9h-2.4v-8.7H126.6z"/>
		<path class="st0" d="M130.6,16.7c0.2-0.6,0.5-1,0.9-1.4c0.4-0.4,0.9-0.7,1.4-0.9c0.5-0.2,1.2-0.3,1.8-0.3c0.7,0,1.3,0.1,1.9,0.3
			c0.6,0.2,1,0.5,1.4,0.9c0.4,0.4,0.7,0.9,0.9,1.4c0.2,0.6,0.3,1.2,0.3,1.9c0,0.7-0.1,1.3-0.3,1.9c-0.2,0.6-0.5,1-0.9,1.4
			c-0.4,0.4-0.9,0.7-1.4,0.9c-0.6,0.2-1.2,0.3-1.9,0.3c-0.7,0-1.3-0.1-1.8-0.3c-0.5-0.2-1-0.5-1.4-0.9c-0.4-0.4-0.7-0.9-0.9-1.4
			c-0.2-0.6-0.3-1.2-0.3-1.9C130.3,17.9,130.4,17.3,130.6,16.7z M132.8,19.6c0.1,0.3,0.2,0.6,0.3,0.9c0.2,0.3,0.4,0.5,0.6,0.6
			c0.3,0.2,0.6,0.2,1,0.2c0.4,0,0.7-0.1,1-0.2c0.3-0.2,0.5-0.4,0.7-0.6c0.2-0.3,0.3-0.6,0.3-0.9c0.1-0.3,0.1-0.7,0.1-1s0-0.7-0.1-1
			c-0.1-0.3-0.2-0.6-0.3-0.9c-0.2-0.3-0.4-0.5-0.7-0.6c-0.3-0.2-0.6-0.2-1-0.2c-0.4,0-0.7,0.1-1,0.2c-0.3,0.2-0.5,0.4-0.6,0.6
			c-0.2,0.3-0.3,0.6-0.3,0.9c-0.1,0.3-0.1,0.7-0.1,1S132.7,19.3,132.8,19.6z"/>
		<path class="st0" d="M147.8,20c0.1,0.3,0.3,0.5,0.6,0.7c0.2,0.2,0.5,0.3,0.8,0.4c0.3,0.1,0.7,0.1,1,0.1c0.2,0,0.5,0,0.8-0.1
			c0.3,0,0.5-0.1,0.8-0.2s0.4-0.3,0.6-0.5c0.2-0.2,0.2-0.4,0.2-0.7c0-0.3-0.1-0.6-0.3-0.8c-0.2-0.2-0.5-0.4-0.8-0.5
			c-0.3-0.1-0.7-0.3-1.1-0.4c-0.4-0.1-0.9-0.2-1.3-0.3c-0.4-0.1-0.9-0.2-1.3-0.4c-0.4-0.2-0.8-0.4-1.1-0.6c-0.3-0.3-0.6-0.6-0.8-1
			c-0.2-0.4-0.3-0.9-0.3-1.4c0-0.6,0.1-1.1,0.4-1.6c0.3-0.5,0.6-0.8,1-1.1c0.4-0.3,0.9-0.5,1.4-0.7c0.5-0.1,1.1-0.2,1.6-0.2
			c0.6,0,1.2,0.1,1.8,0.2c0.6,0.1,1.1,0.4,1.5,0.7c0.4,0.3,0.8,0.7,1.1,1.2c0.3,0.5,0.4,1.1,0.4,1.8h-2.5c0-0.4-0.1-0.7-0.2-0.9
			c-0.1-0.2-0.3-0.4-0.5-0.6c-0.2-0.1-0.5-0.2-0.7-0.3c-0.3-0.1-0.6-0.1-0.9-0.1c-0.2,0-0.4,0-0.6,0.1c-0.2,0-0.4,0.1-0.6,0.2
			c-0.2,0.1-0.3,0.3-0.4,0.4c-0.1,0.2-0.2,0.4-0.2,0.6c0,0.2,0,0.4,0.1,0.6c0.1,0.1,0.3,0.3,0.5,0.4c0.3,0.1,0.6,0.2,1.1,0.4
			c0.5,0.1,1.1,0.3,1.8,0.5c0.2,0,0.5,0.1,0.9,0.2c0.4,0.1,0.8,0.3,1.2,0.6c0.4,0.3,0.7,0.6,1,1c0.3,0.4,0.4,1,0.4,1.7
			c0,0.5-0.1,1.1-0.3,1.5c-0.2,0.5-0.5,0.9-0.9,1.2c-0.4,0.3-0.9,0.6-1.6,0.8c-0.6,0.2-1.3,0.3-2.2,0.3c-0.7,0-1.3-0.1-1.9-0.2
			c-0.6-0.2-1.2-0.4-1.6-0.8c-0.5-0.3-0.9-0.8-1.1-1.3c-0.3-0.5-0.4-1.2-0.4-1.9h2.5C147.5,19.3,147.6,19.7,147.8,20z"/>
		<path class="st0" d="M156.4,16.7c0.2-0.6,0.5-1,0.9-1.4c0.4-0.4,0.9-0.7,1.4-0.9c0.5-0.2,1.2-0.3,1.8-0.3c0.7,0,1.3,0.1,1.9,0.3
			c0.6,0.2,1,0.5,1.4,0.9c0.4,0.4,0.7,0.9,0.9,1.4s0.3,1.2,0.3,1.9c0,0.7-0.1,1.3-0.3,1.9c-0.2,0.6-0.5,1-0.9,1.4
			c-0.4,0.4-0.9,0.7-1.4,0.9c-0.6,0.2-1.2,0.3-1.9,0.3c-0.7,0-1.3-0.1-1.8-0.3c-0.5-0.2-1-0.5-1.4-0.9c-0.4-0.4-0.7-0.9-0.9-1.4
			c-0.2-0.6-0.3-1.2-0.3-1.9C156.1,17.9,156.2,17.3,156.4,16.7z M158.6,19.6c0.1,0.3,0.2,0.6,0.3,0.9c0.2,0.3,0.4,0.5,0.6,0.6
			c0.3,0.2,0.6,0.2,1,0.2c0.4,0,0.7-0.1,1-0.2c0.3-0.2,0.5-0.4,0.7-0.6c0.2-0.3,0.3-0.6,0.3-0.9c0.1-0.3,0.1-0.7,0.1-1s0-0.7-0.1-1
			c-0.1-0.3-0.2-0.6-0.3-0.9c-0.2-0.3-0.4-0.5-0.7-0.6c-0.3-0.2-0.6-0.2-1-0.2c-0.4,0-0.7,0.1-1,0.2c-0.3,0.2-0.5,0.4-0.6,0.6
			c-0.2,0.3-0.3,0.6-0.3,0.9c-0.1,0.3-0.1,0.7-0.1,1S158.5,19.3,158.6,19.6z"/>
		<path class="st0" d="M169.1,10.9v12h-2.4v-12H169.1z"/>
		<path class="st0" d="M170.9,16.9c0-0.6,0.2-1,0.4-1.4c0.2-0.4,0.6-0.7,0.9-0.9c0.4-0.2,0.8-0.4,1.3-0.5c0.5-0.1,1-0.1,1.4-0.1
			c0.4,0,0.9,0,1.3,0.1c0.4,0.1,0.9,0.2,1.2,0.4c0.4,0.2,0.7,0.4,0.9,0.7c0.2,0.3,0.4,0.7,0.4,1.3V21c0,0.4,0,0.8,0.1,1.1
			c0,0.4,0.1,0.6,0.2,0.8h-2.4c0-0.1-0.1-0.3-0.1-0.4s0-0.3-0.1-0.4c-0.4,0.4-0.8,0.7-1.3,0.8c-0.5,0.2-1,0.2-1.6,0.2
			c-0.4,0-0.8-0.1-1.2-0.2c-0.4-0.1-0.7-0.3-0.9-0.5c-0.3-0.2-0.5-0.5-0.6-0.8c-0.2-0.3-0.2-0.7-0.2-1.2c0-0.5,0.1-0.9,0.3-1.2
			c0.2-0.3,0.4-0.6,0.7-0.8c0.3-0.2,0.6-0.3,0.9-0.4c0.4-0.1,0.7-0.2,1.1-0.2c0.4-0.1,0.7-0.1,1.1-0.1c0.3,0,0.7-0.1,0.9-0.2
			s0.5-0.2,0.6-0.3c0.2-0.1,0.2-0.3,0.2-0.6c0-0.3,0-0.5-0.1-0.6c-0.1-0.2-0.2-0.3-0.3-0.4c-0.1-0.1-0.3-0.1-0.5-0.2
			c-0.2,0-0.4,0-0.6,0c-0.5,0-0.8,0.1-1.1,0.3c-0.3,0.2-0.4,0.5-0.5,1H170.9z M176.4,18.7c-0.1,0.1-0.2,0.2-0.4,0.2
			c-0.2,0.1-0.3,0.1-0.5,0.1s-0.4,0.1-0.5,0.1c-0.2,0-0.4,0.1-0.6,0.1c-0.2,0-0.4,0.1-0.5,0.1c-0.2,0.1-0.3,0.1-0.5,0.2
			c-0.1,0.1-0.2,0.2-0.3,0.4c-0.1,0.1-0.1,0.3-0.1,0.6c0,0.2,0,0.4,0.1,0.5c0.1,0.1,0.2,0.3,0.3,0.3c0.1,0.1,0.3,0.1,0.5,0.2
			c0.2,0,0.4,0.1,0.6,0.1c0.5,0,0.8-0.1,1.1-0.2c0.3-0.2,0.4-0.3,0.6-0.6c0.1-0.2,0.2-0.4,0.2-0.7c0-0.2,0-0.4,0-0.5V18.7z"/>
		<path class="st0" d="M182.8,14.2v1.6h0c0.1-0.3,0.3-0.5,0.5-0.7c0.2-0.2,0.4-0.4,0.7-0.6c0.2-0.2,0.5-0.3,0.8-0.4
			c0.3-0.1,0.6-0.1,0.9-0.1c0.2,0,0.3,0,0.5,0.1v2.2c-0.1,0-0.2,0-0.4-0.1c-0.2,0-0.3,0-0.5,0c-0.4,0-0.8,0.1-1.1,0.2
			c-0.3,0.1-0.5,0.3-0.7,0.6c-0.2,0.3-0.3,0.5-0.4,0.9c-0.1,0.3-0.1,0.7-0.1,1.1v3.9h-2.4v-8.7H182.8z"/>
	</g>
	<g>
		<path class="st0" d="M192.1,11.3c0.4,0,0.7,0.1,1,0.3c0.3,0.2,0.6,0.4,0.8,0.8c0.2,0.3,0.3,0.7,0.3,1c0,0.4-0.1,0.7-0.3,1
			c-0.2,0.3-0.4,0.6-0.8,0.7c-0.3,0.2-0.7,0.3-1,0.3c-0.4,0-0.7-0.1-1-0.3c-0.3-0.2-0.6-0.4-0.8-0.7c-0.2-0.3-0.3-0.7-0.3-1
			c0-0.4,0.1-0.7,0.3-1c0.2-0.3,0.4-0.6,0.8-0.8C191.4,11.4,191.8,11.3,192.1,11.3 M192.1,11.6c-0.5,0-0.9,0.2-1.2,0.5
			c-0.3,0.3-0.5,0.7-0.5,1.2c0,0.5,0.2,0.9,0.5,1.2c0.3,0.3,0.7,0.5,1.2,0.5c0.5,0,0.9-0.2,1.2-0.5c0.3-0.3,0.5-0.7,0.5-1.2
			c0-0.5-0.2-0.9-0.5-1.2C193,11.8,192.6,11.6,192.1,11.6 M191.7,14.4h-0.4v-2.2h0.8c0.3,0,0.5,0,0.6,0.1c0.1,0,0.2,0.1,0.3,0.2
			c0.1,0.1,0.1,0.2,0.1,0.3c0,0.2-0.1,0.3-0.2,0.4c-0.1,0.1-0.3,0.2-0.5,0.2c0.1,0,0.2,0.1,0.2,0.2c0.1,0.1,0.2,0.2,0.3,0.4l0.3,0.4
			h-0.4l-0.2-0.3c-0.1-0.2-0.3-0.4-0.3-0.5c-0.1-0.1-0.2-0.1-0.3-0.1h-0.2V14.4z M191.7,12.5v0.7h0.4c0.2,0,0.3,0,0.4-0.1
			c0.1-0.1,0.1-0.1,0.1-0.3c0-0.1,0-0.2-0.1-0.3c-0.1,0-0.2-0.1-0.4-0.1H191.7z"/>
	</g>
	<g>
		<path class="st1" d="M29.7,4.5C16.9,3.6,8.1,6.9,3.4,12.9c-1.6,2.1-2,2.2-0.5,4.2c6.8,9.8,19.5,13.6,44,12
			C30.5,28.2-3.3,17.2,29.7,4.5"/>
		<path class="st2" d="M24,3.6c27.6-0.4,24.9,13.2-0.5,16.7C59.9,24.5,63.6-0.2,24,3.6"/>
		<g>
			<g>
				<defs>
					<path id="SVGID_1_" d="M29.5,6.1c2.9,0,5.3,2.1,5.3,4.7c0,2.6-2.3,4.7-5.3,4.7c-0.7,0-1.4-0.1-2-0.3c0.2,0,0.5,0.1,0.7,0.1
						c4.3,0,4.3-5.8,0-5.8c-1.8,0-3.3,1.3-3.3,2.9c0,0.5,0.2,1,0.4,1.4c-0.7-0.8-1.2-1.8-1.2-2.9C24.2,8.2,26.6,6.1,29.5,6.1z"/>
				</defs>
				<clipPath id="SVGID_2_">
					<use xlink:href="#SVGID_1_"  style="overflow:visible;"/>
				</clipPath>
			</g>
			<g>
				<defs>
					<path id="SVGID_3_" d="M29.5,6.1c2.9,0,5.3,2.1,5.3,4.7c0,2.6-2.3,4.7-5.3,4.7c-0.7,0-1.4-0.1-2-0.3c0.2,0,0.5,0.1,0.7,0.1
						c4.3,0,4.3-5.8,0-5.8c-1.8,0-3.3,1.3-3.3,2.9c0,0.5,0.2,1,0.4,1.4c-0.7-0.8-1.2-1.8-1.2-2.9C24.2,8.2,26.6,6.1,29.5,6.1z"/>
				</defs>
				<use xlink:href="#SVGID_3_"  style="overflow:visible;fill-rule:evenodd;clip-rule:evenodd;fill:#FFFFFF;"/>
				<clipPath id="SVGID_4_">
					<use xlink:href="#SVGID_3_"  style="overflow:visible;"/>
				</clipPath>
				<rect x="24.2" y="6.1" class="st3" width="10.6" height="9.4"/>
			</g>
			<g>
				<defs>
					<path id="SVGID_5_" d="M29.5,6.1c2.9,0,5.3,2.1,5.3,4.7c0,2.6-2.3,4.7-5.3,4.7c-0.7,0-1.4-0.1-2-0.3c0.2,0,0.5,0.1,0.7,0.1
						c4.3,0,4.3-5.8,0-5.8c-1.8,0-3.3,1.3-3.3,2.9c0,0.5,0.2,1,0.4,1.4c-0.7-0.8-1.2-1.8-1.2-2.9C24.2,8.2,26.6,6.1,29.5,6.1z"/>
				</defs>
				<clipPath id="SVGID_6_">
					<use xlink:href="#SVGID_5_"  style="overflow:visible;"/>
				</clipPath>
			</g>
		</g>
	</g>
</g>
</svg>
