<svg xmlns="http://www.w3.org/2000/svg" width="12.111" height="29.998" viewBox="0 0 12.111 29.998">
  <path id="np_arrow_2168754_000000" d="M43.661,42.661l-5.192,5.192a.856.856,0,1,1-1.21-1.212l3.722-3.722H14.866a.866.866,0,0,1,0-1.731H40.978l-3.722-3.722a.857.857,0,0,1,1.212-1.212l5.192,5.192.13.13a.153.153,0,0,1,.044.086c0,.044.044.044.044.086s0,.044.044.086c0,.044,0,.044.044.086a.472.472,0,0,1,0,.347c0,.044,0,.044-.044.086,0,.044,0,.044-.044.086,0,.044-.044.044-.044.086s-.044.044-.044.086c-.042-.041-.086,0-.13.046Z" transform="translate(48.114 -14.001) rotate(90)" fill="#fff"/>
</svg>
