<?xml version="1.0" encoding="UTF-8"?>
<svg width="30px" height="15px" viewBox="0 0 30 15" version="1.1" xmlns="http://www.w3.org/2000/svg" xmlns:xlink="http://www.w3.org/1999/xlink">
    <!-- Generator: Sketch 53.2 (72643) - https://sketchapp.com -->
    <title>arrow-right</title>
    <desc>Created with Sketch.</desc>
    <g id="Page-1" stroke="none" stroke-width="1" fill="none" fill-rule="evenodd">
        <g id="Desktop-HD" transform="translate(-1751.000000, -1283.000000)" fill="#FFFFFF" fill-rule="nonzero">
            <g id="arrow-right" transform="translate(1766.000000, 1290.500000) rotate(-180.000000) translate(-1766.000000, -1290.500000) translate(1751.000000, 1283.000000)">
                <path d="M29.7233379,6.58210362 L24.2769361,0.670919408 C23.9072956,0.332709264 23.1998761,0.19280892 22.7876856,0.583990228 C22.3808053,0.969747158 22.394115,1.71813785 22.7983232,2.10525087 L26.6278244,6.25629306 L1.02111342,6.25629306 C0.457342746,6.25629306 -8.69291789e-05,6.72355478 -8.69291789e-05,7.29944321 C-8.69291789e-05,7.87533163 0.457342746,8.34259334 1.02111342,8.34259334 L26.6278244,8.34259334 L22.7983232,12.4936356 C22.4499577,12.8508449 22.3848051,13.6250709 22.7876856,14.0148962 C23.1892556,14.4047214 23.9232264,14.279759 24.2769361,13.927967 L29.7233379,8.01678276 C29.909496,7.81440124 29.9999131,7.57671252 29.9999131,7.29961707 C29.9906052,7.05070753 29.8895486,6.76274245 29.7233379,6.58210362 Z" id="Path"></path>
            </g>
        </g>
    </g>
</svg>