<svg xmlns="http://www.w3.org/2000/svg" width="160.362" height="33.123" viewBox="0 0 160.362 33.123">
  <g id="Group_20" data-name="Group 20" transform="translate(-301.457 -624.424)">
    <path id="Path_52" data-name="Path 52" d="M306.506,672.247c.594,2.339,2.486,3.638,5.159,3.638a8.281,8.281,0,0,0,5.121-1.856l2.078,3.415a11.231,11.231,0,0,1-7.348,2.747,9.63,9.63,0,0,1-10.057-9.613,9.476,9.476,0,0,1,9.612-9.613,8.359,8.359,0,0,1,8.647,8.537,11.83,11.83,0,0,1-.334,2.746Zm8.35-3.526a3.738,3.738,0,0,0-3.971-3.711,4.525,4.525,0,0,0-4.379,3.711Z" transform="translate(0 -29.324)"/>
    <path id="Path_53" data-name="Path 53" d="M406.6,663.04l-9.092,18.818h-1.67l-9.092-18.818h5.27l4.639,10.393,3.974-8.9a2.513,2.513,0,0,1,2.295-1.489Z" transform="translate(-68.453 -30.992)"/>
    <path id="Path_54" data-name="Path 54" d="M486.069,672.247c.594,2.339,2.486,3.638,5.159,3.637a8.281,8.281,0,0,0,5.121-1.856l2.078,3.415a11.231,11.231,0,0,1-7.348,2.747,9.63,9.63,0,0,1-10.057-9.613,9.476,9.476,0,0,1,9.612-9.613,8.359,8.359,0,0,1,8.647,8.537,11.815,11.815,0,0,1-.334,2.746Zm8.35-3.526a3.738,3.738,0,0,0-3.971-3.711,4.525,4.525,0,0,0-4.379,3.711Z" transform="translate(-144.117 -29.324)"/>
    <path id="Path_55" data-name="Path 55" d="M593.441,666.553H592.1c-3.006,0-4.936,1.633-4.936,4.788v9.168h-5.01V662.136h4.6v2.19a6.369,6.369,0,0,1,5.047-2.413,5.436,5.436,0,0,1,1.633.223Z" transform="translate(-225.291 -30.087)"/>
    <path id="Path_56" data-name="Path 56" d="M656.062,675.1l-4.49-12.063h-5.307l7.051,17.259-.557,1.262a3.657,3.657,0,0,1-3.822,2.487c-.3,0-1-.037-2.152-.148v4.194a12.494,12.494,0,0,0,3.229.445c3.414,0,5.641-1.707,7.311-5.53l8.8-19.969h-5.27Z" transform="translate(-276.742 -30.992)"/>
    <path id="Path_57" data-name="Path 57" d="M797.953,633.83a7.1,7.1,0,0,0-5.493-2.19c-5.121,0-8.907,4.083-8.907,9.613s3.786,9.613,8.907,9.613a6.989,6.989,0,0,0,5.9-2.709v2.264h4.6v-26h-5.01ZM793.389,646.3c-2.709,0-4.75-2-4.75-5.085a4.745,4.745,0,0,1,4.75-5.048c2.524,0,4.639,1.819,4.639,5.085C798.028,644.556,795.912,646.3,793.389,646.3Z" transform="translate(-386.929)"/>
    <path id="Path_58" data-name="Path 58" d="M906.65,679.753V668.841c0-5.085-3.08-7.869-7.868-7.869a10.018,10.018,0,0,0-8.016,3.786l2.6,3.081c1.633-1.745,2.969-2.524,4.862-2.524,2.227,0,3.415,1.188,3.414,3.229v.817h-4.6c-4.268,0-6.94,2.041-6.94,5.345,0,3.229,2.449,5.493,6.346,5.493a7.652,7.652,0,0,0,5.6-2.227v1.782Zm-5.01-6.867a3.652,3.652,0,0,1-3.86,3.638c-1.6,0-2.635-.78-2.635-2s.928-1.856,2.561-1.856h3.934Z" transform="translate(-472.441 -29.332)"/>
    <path id="Path_59" data-name="Path 59" d="M988.431,683.009l8.8-19.969h-5.27L987.169,675.1l-4.49-12.063h-5.307l7.051,17.259-.557,1.262a3.657,3.657,0,0,1-3.823,2.487c-.3,0-1-.037-2.152-.148v4.194a12.5,12.5,0,0,0,3.229.445C984.534,688.539,986.761,686.831,988.431,683.009Z" transform="translate(-542.487 -30.992)"/>
    <g id="Group_17" data-name="Group 17" transform="translate(456.151 632.048)">
      <path id="Path_60" data-name="Path 60" d="M1090.768,665.874a2.734,2.734,0,0,1-.23,1.1,2.529,2.529,0,0,1-.613.894,3.089,3.089,0,0,1-.893.613,2.644,2.644,0,0,1-1.1.23,2.73,2.73,0,0,1-1.1-.23,2.523,2.523,0,0,1-.893-.613,3.086,3.086,0,0,1-.613-.894,2.737,2.737,0,0,1,0-2.2,2.522,2.522,0,0,1,.613-.894,3.7,3.7,0,0,1,.893-.613,2.642,2.642,0,0,1,1.1-.23,2.73,2.73,0,0,1,1.1.23,2.529,2.529,0,0,1,.893.613,3.094,3.094,0,0,1,.613.894A2.646,2.646,0,0,1,1090.768,665.874Zm-2.834-2.323a2.149,2.149,0,0,0-.893.179,2.479,2.479,0,0,0-.74.485,2.072,2.072,0,0,0-.485.74,2.326,2.326,0,0,0,0,1.787,2.486,2.486,0,0,0,.485.74,2.069,2.069,0,0,0,.74.485,2.646,2.646,0,0,0,.893.179,2.147,2.147,0,0,0,.893-.179,2.47,2.47,0,0,0,.74-.485,2.074,2.074,0,0,0,.485-.74,2.654,2.654,0,0,0,.179-.893,2.153,2.153,0,0,0-.179-.894,2.481,2.481,0,0,0-.485-.74,2.364,2.364,0,0,0-1.634-.664Zm.638,2.63.638,1.174a.078.078,0,0,1,0,.1c-.026.025-.051.051-.077.051h-.485c-.051,0-.077-.026-.077-.051l-.612-1.149h-.485v1.1a.09.09,0,0,1-.1.1h-.434a.09.09,0,0,1-.1-.1v-3.038a.09.09,0,0,1,.1-.1h.919a1.886,1.886,0,0,1,.613.077.849.849,0,0,1,.434.358,1.028,1.028,0,0,1,.153.562,1.051,1.051,0,0,1-.485.919C1088.547,666.129,1088.547,666.155,1088.573,666.18Zm-.179-.919a.4.4,0,0,0-.179-.383,1.244,1.244,0,0,0-.383-.051h-.383v.893h.511a.485.485,0,0,0,.332-.127A.434.434,0,0,0,1088.394,665.261Z" transform="translate(-1085.101 -663.04)"/>
    </g>
  </g>
</svg>
