<?xml version="1.0" encoding="UTF-8"?>
<svg width="32px" height="32px" viewBox="0 0 32 32" version="1.1" xmlns="http://www.w3.org/2000/svg" xmlns:xlink="http://www.w3.org/1999/xlink">
    <!-- Generator: Sketch 53.2 (72643) - https://sketchapp.com -->
    <title>noun_times_857328</title>
    <desc>Created with Sketch.</desc>
    <g id="Page-1" stroke="none" stroke-width="1" fill="none" fill-rule="evenodd">
        <g id="noun_times_857328" fill="#D0021B" fill-rule="nonzero">
            <path d="M30.5350316,1.13186526 C29.3095916,-0.0935747368 27.3229726,-0.0929936842 26.0969516,1.13128421 L15.9291116,11.2962189 L5.76069053,1.13186526 C4.53466947,-0.0924126316 2.54863158,-0.0929936842 1.32319158,1.13244632 C0.0977515789,2.35788632 0.0977515789,4.34450526 1.32319158,5.56994526 L11.4904505,15.7331368 L1.32319158,25.8963284 C0.0977515789,27.1217684 0.0977515789,29.1083874 1.32319158,30.3344084 C1.93620211,30.9474189 2.73863579,31.2536337 3.54165053,31.2536337 C4.34466526,31.2536337 5.14768,30.9474189 5.76010947,30.3355705 L15.9285305,20.1700547 L26.0963705,30.3355705 C26.7093811,30.9474189 27.5123958,31.2536337 28.3148295,31.2536337 C29.1184253,31.2536337 29.92144,30.9474189 30.5338695,30.3344084 C31.7587284,29.1089684 31.7587284,27.1223495 30.5332884,25.8963284 L20.3671916,15.7331368 L30.5344505,5.56936421 C31.7598905,4.34450526 31.7598905,2.35788632 30.5350316,1.13186526 Z" id="Path"></path>
        </g>
    </g>
</svg>