<?xml version="1.0" encoding="UTF-8"?>
<svg width="40px" height="30px" viewBox="0 0 40 30" version="1.1" xmlns="http://www.w3.org/2000/svg" xmlns:xlink="http://www.w3.org/1999/xlink">
    <!-- Generator: Sketch 53.2 (72643) - https://sketchapp.com -->
    <title>noun_Check_1807547</title>
    <desc>Created with Sketch.</desc>
    <g id="Page-1" stroke="none" stroke-width="1" fill="none" fill-rule="evenodd">
        <g id="noun_Check_1807547" fill="#688169" fill-rule="nonzero">
            <path d="M35.7866473,0.4899693 C34.8886032,0.519889472 34.0376563,0.898960022 33.4147723,1.5465663 C26.7321499,8.2436373 20.6366278,14.8312398 14.1810223,21.4055598 L6.26758481,15.0877818 C5.30464242,14.3174277 4.00386791,14.1193148 2.85525052,14.5680705 C1.70663313,15.0168261 0.884675202,16.0442735 0.699000369,17.2633832 C0.513325537,18.4824928 0.99214223,19.7080529 1.95508481,20.4784068 L12.3050848,28.7584068 C13.6785912,29.8541457 15.6561552,29.7427336 16.8978973,28.4996568 C24.3288385,21.0527628 30.9988477,13.7244798 38.2878973,6.4196913 C39.3125881,5.42929528 39.6229626,3.91082779 39.0690963,2.59777501 C38.5152299,1.28472223 37.2110957,0.447279904 35.7866473,0.4899693 L35.7866473,0.4899693 Z" id="Path"></path>
        </g>
    </g>
</svg>