<svg id="Laag_1" data-name="Laag 1" xmlns="http://www.w3.org/2000/svg" viewBox="0 0 1150.6 790.9"><defs><style>.cls-1{fill:#688169;}</style></defs><title>line-right-02</title><path d="M1138.18,22l1.81-.26c.18,0,.18,2.38.37,6.62h-1.82C1138.36,24.13,1138.18,22,1138.18,22Z"/><path d="M1136,80.8c.55-4.24.91-8.74,1.28-13l1.81.27c-.36,4.5-.72,8.73-1.27,13.24Zm2-25.95c.19-4.5.37-9,.37-13.24h1.81c0,4.23-.18,8.74-.36,13.24Z"/><path d="M9.72,765.82c.19-4.51.73-9,1.28-13.24l1.81.53c-.54,4.23-.9,8.73-1.27,13Zm3.64-26.22c.91-4.23,2-8.47,3.27-12.44l1.64,1.06c-1.09,4-2.18,7.94-3.09,12.18ZM20.81,715c1.45-3.71,2.91-7.68,4.73-11.39L27,705.18c-1.64,3.71-3.27,7.41-4.73,11.12ZM31,692.73a103.47,103.47,0,0,1,6-10.06l1.27,1.86c-2,3.44-4,6.61-5.82,10.06Zm12.36-19.59c2.18-2.91,4.54-5.83,6.9-8.74l1.09,2.12c-2.36,2.91-4.54,5.82-6.72,8.74Zm13.81-16.95c2.36-2.38,4.91-5,7.45-7.68l1.09,2.12c-2.36,2.38-4.91,5-7.27,7.68ZM72.43,641.1c2.54-2.38,5.09-4.77,7.81-6.89l.91,2.39c-2.73,2.38-5.27,4.5-7.82,6.88Zm15.63-13.51c2.72-2.11,5.45-4,8.17-6.09l.73,2.39c-2.72,2.12-5.45,4-8,6.09Zm16.17-11.65c2.73-1.85,5.45-3.7,8.36-5.56l.73,2.39-8.18,5.56ZM121,605.09c2.91-1.86,5.64-3.45,8.54-5l.73,2.38c-2.73,1.85-5.63,3.44-8.36,5Zm17.27-9.54c2.72-1.58,5.63-2.91,8.54-4.5l.54,2.39c-2.9,1.58-5.81,2.91-8.54,4.5Zm17.08-9,8.73-4,.54,2.65c-3.09,1.32-5.82,2.65-8.72,4Zm17.45-7.94c2.91-1.33,5.82-2.39,8.72-3.71l.55,2.65c-2.91,1.32-5.82,2.38-8.73,3.71Zm17.45-7.15c2.72-1.06,5.81-2.38,8.72-3.44l.55,2.64c-2.91,1.06-5.82,2.39-8.73,3.45ZM208,564.84c2.91-1.06,6-2.12,8.9-3.18l.37,2.65c-3.09,1.06-6,2.12-8.91,3.18Zm17.63-6.36c2.9-1.06,5.81-1.85,8.9-2.91l.37,2.65c-3.09,1.06-6,1.85-8.91,2.91Zm17.81-5.56c2.91-.79,5.81-1.85,8.9-2.65l.37,2.65c-3.09.8-6,1.86-8.91,2.65Zm17.81-5c2.91-.79,5.81-1.59,8.9-2.38l.37,2.65c-2.91.79-6,1.59-8.91,2.38Zm18-4.76c2.91-.8,5.82-1.59,8.91-2.39l.36,2.65c-2.91.79-6,1.59-8.91,2.38Zm17.63-4.51c3.09-.79,6-1.32,9.09-2.11l.36,2.64c-2.91.8-6,1.33-8.9,2.12Zm18.36-4.23c3.09-.53,6-1.33,9.08-1.86l.19,2.65c-3.09.53-6.18,1.33-9.09,1.86Zm18.17-3.71c3.09-.79,6-1.32,9.09-1.85l.18,2.64c-3.09.53-6.18,1.33-9.09,1.86Zm18-3.44c3.09-.53,6-1.06,9.09-1.59l.18,2.65c-3.09.53-6.18,1.06-9.08,1.59Zm18-3.18c3.09-.53,6-1.06,9.08-1.59l.19,2.65c-3.09.53-6.18,1.06-9.09,1.59Zm18.17-2.91c3.09-.53,6-.8,9.09-1.33l.18,2.65c-3.09.27-6.18.8-9.09,1.33Zm18-2.92c3.09-.52,6-.79,9.09-1.32l.18,2.65c-3.09.53-6.18.79-9.08,1.32Zm18.18-2.38c3.09-.26,6-.79,9.09-1.06l.18,2.65c-3.09.27-6,.53-9.09,1.06Zm18.17-2.38c3.09-.27,6-.8,9.09-1.06l.18,2.65c-3.09.26-6,.79-9.09,1.06Zm18.18-2.12c3.09-.53,6-.79,9.08-1.06l.19,2.65c-3.09.26-6,.79-9.09,1.06Zm18.17-1.85,9.09-.8.18,2.65-9.09.79Zm18.18-1.86,9.08-.79.18,2.65-9.08.79Zm18.17-1.59,9.09-.79.18,2.65-9.09.79ZM533,504.47l9.08-.8v2.65l-9.08.79Zm18.17-1.33,9.09-.53v2.65l-9.09.53Zm18.18-1.06c3.09-.26,6-.26,9.08-.53v2.65c-3.09.27-6,.27-9.08.53ZM587.49,501c3.09-.26,6-.26,9.09-.53v2.65c-3.09.27-6,.27-9.09.53Zm18.17-.79c3.09-.27,6-.53,9.09-.53v2.65c-3.09.26-6,.26-9.09.53Zm18.18-1.06c3.09-.27,6-.27,9.09-.53v2.65c-2.91.26-6,.26-9.09.53ZM642,498.11l9.09-.79.18,2.64-9.08.8Zm18.18-1.32,9.08-.8.19,2.65-9.09.79Zm18.17-1.86c3.09-.26,6-.79,9.09-1.06l.18,2.65c-3.09.27-6,.8-9.09,1.06Zm18.18-2.12c3.09-.52,6.18-.79,9.08-1.32l.19,2.65c-3.09.53-6,.79-9.09,1.32Zm18-2.64c3.09-.53,6.18-1.06,9.09-1.59l.18,2.65c-3.09.53-6,1.06-9.09,1.58ZM732.7,487c3.09-.53,6.18-1.06,9.09-1.59l.18,2.65c-3.09.53-6,1.06-9.08,1.59Zm18.18-3.44c3.09-.53,6.18-1.33,9.09-1.86l.18,2.65c-3.09.53-6,1.33-9.09,1.85Zm17.81-4c2.91-.8,6-1.33,8.9-2.12l.37,2.64c-2.91.8-5.82,1.33-8.91,2.12Zm18-4.24c2.91-.8,6-1.59,8.91-2.38l.36,2.64c-2.91.8-5.82,1.59-8.9,2.39Zm17.81-5c2.91-.8,6-1.86,8.91-2.65l.36,2.65c-2.91.79-5.81,1.85-8.9,2.65Zm17.81-5.56c3.09-.8,6-1.86,8.91-2.92l.36,2.65c-2.91,1.06-6,1.86-8.9,2.91Zm17.81-6.09,8.73-3.18.54,2.65c-2.9,1.06-6,2.12-8.9,3.17Zm17.45-6.89c2.91-1.32,5.82-2.38,8.73-3.71l.54,2.65c-2.91,1.33-5.81,2.65-8.72,3.71ZM875,444.36l8.72-4,.55,2.64-8.73,4Zm17.45-7.68c2.9-1.33,5.63-2.91,8.54-4.24l.54,2.39c-2.72,1.32-5.63,2.91-8.54,4.23Zm16.9-9c2.91-1.59,5.82-3.18,8.54-4.77l.73,2.38c-2.91,1.59-5.64,3.18-8.54,4.77Zm17.08-9.54c2.73-1.59,5.64-3.17,8.36-5l.73,2.39c-2.73,1.58-5.45,3.44-8.36,5Zm16.91-10.59,8.17-5.56.73,2.38c-2.73,1.86-5.63,3.71-8.36,5.56Zm16.17-11.38c2.91-2.12,5.45-4,8.18-6.1l.91,2.39c-2.73,2.12-5.45,4-8.18,6.09Zm16.18-12.45c2.72-2.12,5.45-4.24,8-6.36l.91,2.39c-2.72,2.38-5.27,4.5-8,6.62ZM991.51,371c2.72-2.12,5.27-4.5,7.81-6.88l.91,2.11c-2.54,2.12-5.27,4.5-7.81,6.89Zm15.26-14.3c2.55-2.38,5.09-5,7.46-7.41l1.09,2.12c-2.37,2.38-4.91,5-7.46,7.41Zm14.91-15.09c2.54-2.65,4.9-5.3,7.27-7.95l1.09,2.12c-2.37,2.65-4.73,5.3-7.27,7.95Zm14.17-16.42c2.37-2.65,4.73-5.56,6.91-8.47l1.27,2.12c-2.18,2.64-4.54,5.56-6.9,8.47Zm14-17.21c2.18-2.91,4.36-6.09,6.54-9l1.27,1.85-6.72,9Zm12.9-18.8c2-3.18,4.18-6.36,6.18-9.53l1.27,1.85c-2,3.44-4,6.62-6.18,9.8Zm12.18-19.33c2-3.18,4-6.62,5.81-10.06l1.46,1.59c-1.82,3.44-3.82,6.88-5.82,10.32Zm11.63-20.66c1.82-3.44,3.63-7.14,5.27-10.59l1.45,1.59c-1.81,3.71-3.63,7.42-5.45,10.86ZM1096.74,228q2.44-5.57,4.9-11.12l1.64,1.32-4.91,11.13Zm9.45-22.77c1.45-3.71,2.91-7.68,4.36-11.65l1.64,1.32c-1.46,4-2.91,7.68-4.37,11.65Zm8.36-23.83q1.9-6,3.82-11.92l1.63,1.06c-1.27,4-2.54,8.21-3.82,12.18Zm7.45-23.83c1.09-4.24,2-8.21,3.09-12.45l1.64.8c-1.09,4.23-2.19,8.47-3.28,12.44Zm5.82-25.16c.9-4.24,1.81-8.47,2.54-12.71l1.82.8c-.73,4.23-1.64,8.47-2.55,12.71Zm4.72-25.42c.55-4.24,1.27-8.74,1.82-13l1.82.53c-.55,4.23-1.09,8.73-1.82,13Z"/><path d="M9.36,780.12h1.82c0,2.38.18,4.5.18,6.62L9.54,787C9.54,784.88,9.36,782.76,9.36,780.12Z"/><ellipse class="cls-1" cx="1138.54" cy="13.2" rx="6.36" ry="6.8"/><ellipse class="cls-1" cx="9.9" cy="781.2" rx="6.36" ry="6.8"/></svg>