<svg id="Laag_1" data-name="Laag 1" xmlns="http://www.w3.org/2000/svg" viewBox="0 0 1150.6 790.9"><defs><style>.cls-1{fill:#688169;}</style></defs><title>line-left</title><path d="M9.9,28.37H8.09c.18-4.24.18-6.62.36-6.62l1.82.26S10.09,24.13,9.9,28.37Z"/><path d="M10.63,81.33c-.54-4.51-.91-8.74-1.27-13.24l1.82-.27c.36,4.24.72,8.74,1.27,13Zm-2-26.48c-.18-4.5-.36-9-.36-13.24h1.82c0,4.23.18,8.74.36,13.24Z"/><path d="M1136.9,766.08c-.36-4.24-.73-8.74-1.27-13l1.82-.53c.54,4.23,1.09,8.73,1.27,13.24Zm-3.63-25.68c-.91-4.24-2-8.21-3.09-12.18l1.63-1.06c1.27,4,2.36,8.21,3.27,12.44Zm-7.09-24.1c-1.46-3.71-3.09-7.41-4.73-11.12l1.46-1.59c1.81,3.71,3.27,7.68,4.72,11.39ZM1116,694.59c-1.82-3.45-3.82-6.62-5.82-10.06l1.28-1.86a101.42,101.42,0,0,1,6,10.06Zm-12.18-19.33c-2.18-2.92-4.36-5.83-6.72-8.74l1.09-2.12c2.36,2.91,4.72,5.83,6.91,8.74Zm-13.81-17c-2.36-2.65-4.91-5.3-7.27-7.68l1.09-2.12c2.55,2.65,5.09,5.3,7.45,7.68Zm-14.9-14.83c-2.55-2.38-5.09-4.5-7.82-6.88l.91-2.39c2.73,2.12,5.27,4.51,7.82,6.89ZM1059.48,630c-2.55-2.12-5.27-4-8-6.09l.73-2.39c2.72,2.12,5.45,4,8.18,6.09Zm-16.18-11.65q-4.08-2.79-8.18-5.56l.73-2.39c2.91,1.86,5.64,3.71,8.36,5.56Zm-16.72-10.86c-2.72-1.59-5.63-3.18-8.36-5l.73-2.38c2.91,1.58,5.63,3.17,8.54,5Zm-16.9-9.53c-2.73-1.59-5.63-2.92-8.54-4.5l.54-2.39c2.91,1.59,5.82,2.92,8.54,4.5ZM992.6,589.2c-2.91-1.32-5.64-2.65-8.73-4l.55-2.65,8.72,4Zm-17.45-7.94c-2.91-1.33-5.82-2.39-8.73-3.71l.55-2.65c2.91,1.32,5.82,2.38,8.72,3.71Zm-17.45-7.15c-2.91-1.06-5.82-2.39-8.72-3.45l.54-2.64c2.91,1.06,6,2.38,8.73,3.44Zm-17.63-6.62c-2.91-1.06-5.81-2.12-8.9-3.18l.36-2.65c2.91,1.06,6,2.12,8.91,3.18Zm-17.63-6.36c-2.91-1.06-5.81-1.85-8.9-2.91l.36-2.65c3.09,1.06,6,1.85,8.91,2.91Zm-17.81-5.56c-2.91-.79-5.81-1.85-8.9-2.65l.36-2.65c3.09.8,6,1.86,8.9,2.65Zm-17.81-5c-2.91-.79-6-1.59-8.91-2.38l.37-2.65c3.09.79,6,1.59,8.9,2.38Zm-18-4.77c-2.91-.79-6-1.59-8.91-2.38l.37-2.65c3.09.8,6,1.59,8.9,2.39ZM851,541.27c-2.91-.79-6-1.32-8.91-2.12l.36-2.64c3.09.79,6,1.32,9.09,2.11ZM833,537c-2.9-.53-6-1.33-9.08-1.86l.18-2.65c3.09.53,6,1.33,9.09,1.86Zm-18.17-3.71c-2.91-.53-6-1.33-9.09-1.86l.18-2.64c3.09.53,6,1.06,9.09,1.85Zm-18-3.44c-2.91-.53-6-1.06-9.09-1.59l.18-2.65c3.09.53,6,1.06,9.09,1.59Zm-18-3.18c-2.9-.53-6-1.06-9.08-1.59l.18-2.65c3.09.53,6,1.06,9.09,1.59Zm-18.17-2.91c-2.91-.53-6-1.06-9.09-1.33l.18-2.65c3.09.53,6,.8,9.09,1.33Zm-18-2.92c-2.91-.53-6-.79-9.09-1.32l.18-2.65c3.09.53,6,.8,9.09,1.32Zm-18.18-2.38c-3.09-.53-6-.79-9.08-1.06l.18-2.65c3.09.27,6,.8,9.08,1.06Zm-18.17-2.38c-3.09-.27-6-.8-9.09-1.06l.18-2.65c3.09.26,6,.79,9.09,1.06ZM688.17,514c-3.09-.27-6-.8-9.08-1.06l.18-2.65c3.09.27,6,.53,9.09,1.06ZM670,512.14l-9.09-.79.18-2.65,9.09.8Zm-18.17-1.85-9.09-.79.18-2.65,9.09.79Zm-18.18-1.59-9.09-.79.19-2.65,9.08.79Zm-18.17-1.59-9.09-.79v-2.65l9.09.8Zm-18.18-1.32-9.09-.53v-2.65l9.09.53Zm-18.17-1.06c-3.09-.26-6-.26-9.09-.53v-2.65c3.09.27,6,.27,9.09.53ZM561,503.67c-3.09-.26-6-.26-9.08-.53v-2.65c3.09.27,6,.27,9.08.53Zm-18.17-.79c-3.09-.27-6-.27-9.09-.53V499.7c3.09,0,6,.26,9.09.53Zm-18.18-1.06c-3.09-.27-6.18-.27-9.08-.53v-2.65c3.09.26,6,.26,9.08.53Zm-18.35-1.06-9.09-.8.18-2.64,9.09.79Zm-18.18-1.33-9.08-.79.18-2.65,9.09.8Zm-18.17-1.85c-3.09-.26-6-.79-9.09-1.06l.18-2.65c3.09.27,6,.8,9.09,1.06Zm-18.18-2.12c-3.09-.53-6-.79-9.08-1.32l.18-2.65c2.91.53,6,.8,9.09,1.32Zm-18-2.65c-3.09-.52-6-1.05-9.09-1.58l.19-2.65c2.9.53,6,1.06,9.08,1.59Zm-18.17-3.17c-3.09-.53-6-1.06-9.09-1.59l.18-2.65c2.91.53,6,1.06,9.09,1.59Zm-18.18-3.45c-3.09-.52-6-1.32-9.08-1.85l.18-2.65c2.91.53,6,1.33,9.08,1.86Zm-18-4c-3.09-.79-6-1.32-8.91-2.12l.37-2.64c2.91.79,6,1.32,8.9,2.12Zm-18-4.23c-3.09-.8-6-1.59-8.91-2.39l.37-2.64c2.9.79,6,1.58,8.9,2.38Zm-17.81-5c-3.09-.8-6-1.86-8.91-2.65l.36-2.65c2.91.79,6,1.85,8.91,2.65Zm-17.81-5.57c-2.91-1.05-6-1.85-8.91-2.91l.36-2.65c2.91,1.06,5.82,2.12,8.91,2.92ZM308,461.3c-2.9-1.05-6-2.11-8.9-3.17l.54-2.65,8.73,3.18Zm-17.62-6.88c-2.91-1.06-5.82-2.38-8.73-3.71l.55-2.65c2.9,1.33,5.81,2.39,8.72,3.71ZM272.89,447l-8.73-4,.55-2.64,8.72,4Zm-17.45-7.95c-2.91-1.32-5.82-2.91-8.54-4.23l.54-2.39c2.91,1.33,5.64,2.91,8.55,4.24Zm-17.08-9c-2.91-1.59-5.64-3.18-8.55-4.77l.73-2.38c2.73,1.59,5.64,3.18,8.54,4.77Zm-17.09-9.53c-2.91-1.59-5.63-3.45-8.36-5l.73-2.39c2.73,1.86,5.63,3.44,8.36,5Zm-16.72-10.6c-2.72-1.85-5.63-3.7-8.36-5.56l.73-2.38,8.18,5.56ZM188,398.55c-2.72-2.12-5.45-4-8.18-6.09l.91-2.39c2.73,2.12,5.27,4,8.18,6.1Zm-16.17-12.18c-2.73-2.12-5.27-4.24-8-6.62l.91-2.39c2.54,2.12,5.27,4.24,8,6.36ZM156,373.13c-2.55-2.39-5.27-4.77-7.82-6.89l.91-2.11c2.54,2.38,5.09,4.76,7.82,6.88Zm-15.45-14.3c-2.55-2.38-5.09-5-7.45-7.41l1.09-2.12c2.36,2.38,4.9,5,7.45,7.41Zm-14.91-15.09c-2.54-2.65-4.9-5.3-7.26-7.95l1.09-2.12c2.36,2.65,4.72,5.3,7.27,7.95Zm-14.35-16.42c-2.37-2.91-4.73-5.83-6.91-8.47l1.27-2.12c2.18,2.91,4.55,5.82,6.91,8.47ZM97.5,309.84l-6.72-9L92.05,299c2.18,2.91,4.36,6.09,6.55,9ZM84.42,291.31c-2.18-3.18-4.18-6.36-6.18-9.8l1.27-1.85c2,3.17,4.18,6.35,6.18,9.53Zm-12.36-19.6c-2-3.44-4-6.88-5.82-10.32l1.46-1.59c1.82,3.44,3.82,6.88,5.81,10.06ZM60.61,251.06c-1.82-3.44-3.63-7.15-5.45-10.86l1.45-1.59c1.64,3.45,3.46,7.15,5.27,10.59ZM50.07,229.35l-4.91-11.13,1.64-1.32q2.45,5.57,4.9,11.12Zm-9.45-22.78c-1.46-4-2.91-7.68-4.36-11.65l1.63-1.32c1.46,4,2.91,7.94,4.36,11.65Zm-8.36-23.83c-1.27-4-2.55-8.21-3.82-12.18l1.64-1.06,3.81,11.92ZM25,158.38c-1.09-4-2.18-8.21-3.27-12.44l1.63-.8c1.09,4.24,2,8.21,3.09,12.45Zm-6.18-25.15c-.91-4.24-1.82-8.48-2.55-12.71l1.82-.8c.73,4.24,1.64,8.47,2.55,12.71Zm-4.73-25.69c-.72-4.24-1.27-8.74-1.81-13L14.08,94c.55,4.23,1.28,8.73,1.82,13Z"/><path d="M1138.9,787l-1.82-.26c0-2.12.18-4.24.18-6.62h1.82C1139.08,782.76,1138.9,784.88,1138.9,787Z"/><ellipse class="cls-1" cx="9.9" cy="13.2" rx="6.36" ry="6.8"/><ellipse class="cls-1" cx="1138.54" cy="781.2" rx="6.36" ry="6.8"/></svg>