<?xml version="1.0" encoding="UTF-8"?>
<svg width="23px" height="24px" viewBox="0 0 23 24" version="1.1" xmlns="http://www.w3.org/2000/svg" xmlns:xlink="http://www.w3.org/1999/xlink">
    <!-- Generator: Sketch 53.2 (72643) - https://sketchapp.com -->
    <title>np_whatsapp_988424_7B927B</title>
    <desc>Created with Sketch.</desc>
    <g id="Page-1" stroke="none" stroke-width="1" fill="none" fill-rule="evenodd">
        <g id="Desktop-HD" transform="translate(-98.000000, -660.000000)" fill="#7B927B" fill-rule="nonzero">
            <g id="np_whatsapp_988424_7B927B" transform="translate(98.000000, 660.000000)">
                <path d="M11.5,0 C5.1436625,0 0,5.20644304 0,11.6455696 C0,14.0736127 0.7311125,16.3209747 2.03046875,18.2509367 C2.12817275,18.3976447 2.15512587,18.5818747 2.10234375,18.7513468 L0.934375,22.7090937 L4.761575,21.3716582 C4.9277845,21.3159313 5.1085875,21.338678 5.25573,21.4353449 C7.04812,22.6135563 9.1941925,23.2913576 11.4999425,23.2913576 C17.85973,23.2913576 22.9999425,18.0860791 22.9999425,11.645788 C22.9999425,5.20549684 17.85973,0.00021835443 11.4999425,0.00021835443 L11.5,0 Z M6.7921875,5.07688608 L8.8855325,8.57958228 L8.0140625,9.453 C7.83212963,9.63950962 7.795068,9.92610127 7.92421875,10.1535392 C9.25390625,12.4860595 10.8294063,14.2999443 13.0362563,15.2848684 C13.2530054,15.3815353 13.5056863,15.3349094 13.6741613,15.166593 L14.5995663,14.2294741 L17.9776913,16.3675424 C17.6037113,17.220493 17.1163125,17.7277158 16.55816,18.0233968 C15.9124063,18.3657184 15.1229025,18.4305259 14.2222225,18.2417513 C12.4208625,17.8630373 10.2455225,16.4300791 8.4722225,14.5934854 C6.6989225,12.7568918 5.326685,10.5233589 4.9773725,8.70694114 C4.80217575,7.79826646 4.8796685,7.01582975 5.21096625,6.39602342 C5.49622088,5.86152089 5.98025875,5.40434494 6.79221625,5.07681329 L6.7921875,5.07688608 Z" id="Shape"></path>
            </g>
        </g>
    </g>
</svg>