<?xml version="1.0" encoding="UTF-8"?>
<svg fill="#FFFFFF" width="100pt" height="100pt" version="1.1" viewBox="0 0 100 100" xmlns="http://www.w3.org/2000/svg">
 <g>
  <path d="m40.262 25.012h-19.941l1.4414-1.4414c0.58594-0.58594 0.58594-1.5352 0-2.1211-0.58594-0.58594-1.5352-0.58594-2.1211 0l-4 4c-0.58594 0.58594-0.58594 1.5352 0 2.1211l4 4.0039c0.29297 0.29297 0.67578 0.4375 1.0625 0.4375 0.38281 0 0.76953-0.14453 1.0625-0.4375 0.58594-0.58594 0.58594-1.5352 0-2.1211l-1.4375-1.4375 19.934-0.003906c0.82812 0 1.5-0.67188 1.5-1.5s-0.67188-1.5-1.5-1.5z"/>
  <path d="m37.32 33.449c-0.58594-0.58594-1.5352-0.58594-2.1211 0-0.58594 0.58594-0.58594 1.5352 0 2.1211l1.4375 1.4375h-19.934c-0.82812 0-1.5 0.67188-1.5 1.5 0 0.82813 0.67188 1.5 1.5 1.5h19.934l-1.4375 1.4375c-0.58594 0.58594-0.58594 1.5352 0 2.1211 0.29297 0.29297 0.67578 0.4375 1.0625 0.4375 0.38281 0 0.76953-0.14453 1.0625-0.4375l4-3.9961c0.28125-0.28125 0.4375-0.66016 0.4375-1.0625 0-0.39844-0.15625-0.77734-0.4375-1.0625z"/>
  <path d="m79.992 45.742c-0.80469 0-1.5625 0.19531-2.2422 0.52344v-0.3125c0-2.8906-2.3516-5.2422-5.2422-5.2422-0.80469 0-1.5586 0.19531-2.2422 0.52344v-0.23047c0-2.8906-2.3516-5.2383-5.2422-5.2383-0.80469 0-1.5586 0.19531-2.2422 0.52344v-2.9492c0-2.8906-2.3516-5.2422-5.2422-5.2422-2.8906 0-5.2422 2.3516-5.2422 5.2422v18.199c-0.68359-0.32422-1.4375-0.52344-2.2422-0.52344-2.8906 0-5.2422 2.3516-5.2422 5.2422v11.379 0.011719 0.019531 0.80859c0 0.14063 0.023438 0.27344 0.0625 0.40234 0.64062 10.57 9.4219 18.98 20.148 18.98 11.145 0 20.211-9.0664 20.211-20.211l0.003906-16.664c-0.003906-2.8867-2.3555-5.2422-5.2461-5.2422zm-14.969 39.113c-9.4844 0-17.199-7.7109-17.211-17.191v-11.406c0-1.2344 1.0078-2.2422 2.2422-2.2422 1.2344 0 2.2422 1.0078 2.2422 2.2422v7.0195c0 0.82812 0.67188 1.5 1.5 1.5s1.5-0.67188 1.5-1.5v-29.938c0-1.2344 1.0078-2.2422 2.2422-2.2422 1.2344 0 2.2422 1.0078 2.2422 2.2422v22.414c0 0.82812 0.67188 1.5 1.5 1.5s1.5-0.67188 1.5-1.5v-14.75c0-1.2344 1.0078-2.2383 2.2422-2.2383 1.2344 0 2.2422 1.0039 2.2422 2.2383v17.715c0 0.82812 0.67188 1.5 1.5 1.5s1.5-0.67188 1.5-1.5v-12.766c0-1.2344 1.0078-2.2422 2.2422-2.2422 1.2344 0 2.2422 1.0078 2.2422 2.2422v16.473c0 0.82812 0.67188 1.5 1.5 1.5s1.5-0.67188 1.5-1.5v-11.441c0-1.2344 1.0078-2.2422 2.2422-2.2422 1.2344 0 2.2422 1.0078 2.2422 2.2422v16.656c0 9.4961-7.7188 17.215-17.211 17.215z"/>
 </g>
</svg>
